<?xml version="1.0" standalone="no"?>
<!DOCTYPE svg PUBLIC "-//W3C//DTD SVG 1.1//EN"
"http://www.w3.org/Graphics/SVG/1.1/DTD/svg11.dtd">
<svg width="348.979" height="269.609" viewBox="0 0 7270.39 5616.85" version="1.1"
xmlns="http://www.w3.org/2000/svg"
xmlns:xlink="http://www.w3.org/1999/xlink">
<circle cx="6312.36" cy="4340.71" r="31.4961" style=""/>
<circle cx="6312.36" cy="4540.71" r="31.4961" style=""/>
<circle cx="6112.36" cy="4540.71" r="31.4961" style=""/>
<circle cx="6112.36" cy="4340.71" r="31.4961" style=""/>
<circle cx="5912.36" cy="4340.71" r="31.4961" style=""/>
<circle cx="5912.36" cy="4540.71" r="31.4961" style=""/>
<circle cx="5712.36" cy="4540.71" r="31.4961" style=""/>
<circle cx="5712.36" cy="4340.71" r="31.4961" style=""/>
<circle cx="5512.36" cy="4340.71" r="31.4961" style=""/>
<circle cx="5512.36" cy="4540.71" r="31.4961" style=""/>
<circle cx="5279.29" cy="4540.71" r="31.4961" style=""/>
<circle cx="4964.33" cy="4147.01" r="31.4961" style=""/>
<circle cx="4652.52" cy="4716.3" r="31.4961" style=""/>
<circle cx="4333.62" cy="4717.09" r="31.4961" style=""/>
<circle cx="3595.04" cy="4715.51" r="31.4961" style=""/>
<circle cx="3595.04" cy="4515.51" r="31.4961" style=""/>
<circle cx="3595.04" cy="4315.51" r="31.4961" style=""/>
<circle cx="3595.04" cy="4115.51" r="31.4961" style=""/>
<circle cx="3595.04" cy="3915.51" r="31.4961" style=""/>
<circle cx="3595.04" cy="3715.51" r="31.4961" style=""/>
<circle cx="3341.02" cy="3264.33" r="31.4961" style=""/>
<circle cx="3141.02" cy="3264.33" r="31.4961" style=""/>
<circle cx="2941.02" cy="3264.33" r="31.4961" style=""/>
<circle cx="2195.04" cy="2915.51" r="31.4961" style=""/>
<circle cx="2195.04" cy="3115.51" r="31.4961" style=""/>
<circle cx="2195.04" cy="3315.51" r="31.4961" style=""/>
<circle cx="2195.04" cy="3515.51" r="31.4961" style=""/>
<circle cx="2195.04" cy="3715.51" r="31.4961" style=""/>
<circle cx="2195.04" cy="3915.51" r="31.4961" style=""/>
<circle cx="2195.04" cy="4115.51" r="31.4961" style=""/>
<circle cx="2195.04" cy="4315.51" r="31.4961" style=""/>
<circle cx="2195.04" cy="4515.51" r="31.4961" style=""/>
<circle cx="2195.04" cy="4715.51" r="31.4961" style=""/>
<circle cx="1695.43" cy="4511.57" r="31.4961" style=""/>
<circle cx="1183.62" cy="4511.57" r="31.4961" style=""/>
<circle cx="888.346" cy="4313.15" r="31.4961" style=""/>
<circle cx="888.346" cy="3913.15" r="31.4961" style=""/>
<circle cx="1183.62" cy="4157.24" r="31.4961" style=""/>
<circle cx="1695.43" cy="4157.24" r="31.4961" style=""/>
<circle cx="888.346" cy="3449.37" r="31.4961" style=""/>
<circle cx="888.346" cy="3249.37" r="31.4961" style=""/>
<circle cx="1194.25" cy="2817.87" r="31.4961" style=""/>
<circle cx="1194.25" cy="2617.87" r="31.4961" style=""/>
<circle cx="1194.25" cy="2417.87" r="31.4961" style=""/>
<circle cx="1194.25" cy="2217.87" r="31.4961" style=""/>
<circle cx="839.921" cy="1981.65" r="31.4961" style=""/>
<circle cx="839.921" cy="1620.24" r="31.4961" style=""/>
<circle cx="1194.25" cy="1400.55" r="31.4961" style=""/>
<circle cx="1194.25" cy="1200.55" r="31.4961" style=""/>
<circle cx="1194.25" cy="1000.55" r="31.4961" style=""/>
<circle cx="1194.25" cy="800.551" r="31.4961" style=""/>
<circle cx="1666.69" cy="1509.21" r="31.4961" style=""/>
<circle cx="1666.69" cy="1709.21" r="31.4961" style=""/>
<circle cx="1666.69" cy="1909.21" r="31.4961" style=""/>
<circle cx="1666.69" cy="2109.21" r="31.4961" style=""/>
<circle cx="2195.04" cy="2715.51" r="31.4961" style=""/>
<circle cx="2195.04" cy="2515.51" r="31.4961" style=""/>
<circle cx="2195.04" cy="2315.51" r="31.4961" style=""/>
<circle cx="2195.04" cy="2115.51" r="31.4961" style=""/>
<circle cx="2195.04" cy="1915.51" r="31.4961" style=""/>
<circle cx="2195.04" cy="1715.51" r="31.4961" style=""/>
<circle cx="2195.04" cy="1515.51" r="31.4961" style=""/>
<circle cx="2195.04" cy="1315.51" r="31.4961" style=""/>
<circle cx="2195.04" cy="1115.51" r="31.4961" style=""/>
<circle cx="2195.04" cy="915.512" r="31.4961" style=""/>
<circle cx="3595.04" cy="915.512" r="31.4961" style=""/>
<circle cx="3595.04" cy="1115.51" r="31.4961" style=""/>
<circle cx="3595.04" cy="1315.51" r="31.4961" style=""/>
<circle cx="3595.04" cy="1515.51" r="31.4961" style=""/>
<circle cx="3595.04" cy="1715.51" r="31.4961" style=""/>
<circle cx="3595.04" cy="1915.51" r="31.4961" style=""/>
<circle cx="3595.04" cy="2115.51" r="31.4961" style=""/>
<circle cx="3595.04" cy="2315.51" r="31.4961" style=""/>
<circle cx="3595.04" cy="2515.51" r="31.4961" style=""/>
<circle cx="3595.04" cy="2715.51" r="31.4961" style=""/>
<circle cx="3595.04" cy="2915.51" r="31.4961" style=""/>
<circle cx="3595.04" cy="3115.51" r="31.4961" style=""/>
<circle cx="3595.04" cy="3315.51" r="31.4961" style=""/>
<circle cx="3595.04" cy="3515.51" r="31.4961" style=""/>
<circle cx="4333.23" cy="3701.34" r="31.4961" style=""/>
<circle cx="4645.43" cy="3918.66" r="31.4961" style=""/>
<circle cx="4964.33" cy="3542.28" r="31.4961" style=""/>
<circle cx="5276.14" cy="3218.66" r="31.4961" style=""/>
</svg>
