<?xml version="1.0" standalone="no"?>
<!DOCTYPE svg PUBLIC "-//W3C//DTD SVG 1.1//EN"
"http://www.w3.org/Graphics/SVG/1.1/DTD/svg11.dtd">
<svg width="296.844" height="217.474" viewBox="0 0 6184.25 4530.71" version="1.1"
xmlns="http://www.w3.org/2000/svg"
xmlns:xlink="http://www.w3.org/1999/xlink">
<circle cx="5769.29" cy="3797.64" r="39.3701" style=""/>
<circle cx="5769.29" cy="3997.64" r="39.3701" style=""/>
<circle cx="5569.29" cy="3997.64" r="39.3701" style=""/>
<circle cx="5569.29" cy="3797.64" r="39.3701" style=""/>
<circle cx="5369.29" cy="3797.64" r="39.3701" style=""/>
<circle cx="5369.29" cy="3997.64" r="39.3701" style=""/>
<circle cx="5169.29" cy="3997.64" r="39.3701" style=""/>
<circle cx="5169.29" cy="3797.64" r="39.3701" style=""/>
<circle cx="4969.29" cy="3797.64" r="39.3701" style=""/>
<circle cx="4969.29" cy="3997.64" r="39.3701" style=""/>
<circle cx="3051.97" cy="3372.44" r="39.3701" style=""/>
<circle cx="3051.97" cy="3572.44" r="39.3701" style=""/>
<circle cx="3051.97" cy="3772.44" r="39.3701" style=""/>
<circle cx="3051.97" cy="3972.44" r="39.3701" style=""/>
<circle cx="3051.97" cy="4172.44" r="39.3701" style=""/>
<circle cx="1651.97" cy="4172.44" r="39.3701" style=""/>
<circle cx="1651.97" cy="3972.44" r="39.3701" style=""/>
<circle cx="1651.97" cy="3772.44" r="39.3701" style=""/>
<circle cx="1651.97" cy="3572.44" r="39.3701" style=""/>
<circle cx="1651.97" cy="3372.44" r="39.3701" style=""/>
<circle cx="1651.97" cy="3172.44" r="39.3701" style=""/>
<circle cx="1651.97" cy="2972.44" r="39.3701" style=""/>
<circle cx="1651.97" cy="2772.44" r="39.3701" style=""/>
<circle cx="1651.97" cy="2572.44" r="39.3701" style=""/>
<circle cx="1651.97" cy="2372.44" r="39.3701" style=""/>
<circle cx="1651.97" cy="2172.44" r="39.3701" style=""/>
<circle cx="1651.97" cy="1972.44" r="39.3701" style=""/>
<circle cx="1651.97" cy="1772.44" r="39.3701" style=""/>
<circle cx="1651.97" cy="1572.44" r="39.3701" style=""/>
<circle cx="1651.97" cy="1372.44" r="39.3701" style=""/>
<circle cx="1651.97" cy="1172.44" r="39.3701" style=""/>
<circle cx="1651.97" cy="972.441" r="39.3701" style=""/>
<circle cx="1651.97" cy="772.441" r="39.3701" style=""/>
<circle cx="1651.97" cy="572.441" r="39.3701" style=""/>
<circle cx="1651.97" cy="372.441" r="39.3701" style=""/>
<circle cx="651.181" cy="257.48" r="39.3701" style=""/>
<circle cx="651.181" cy="457.48" r="39.3701" style=""/>
<circle cx="651.181" cy="657.48" r="39.3701" style=""/>
<circle cx="651.181" cy="857.48" r="39.3701" style=""/>
<circle cx="296.85" cy="1077.17" r="39.3701" style=""/>
<circle cx="296.85" cy="1438.58" r="39.3701" style=""/>
<circle cx="651.181" cy="1674.8" r="39.3701" style=""/>
<circle cx="651.181" cy="1874.8" r="39.3701" style=""/>
<circle cx="651.181" cy="2074.8" r="39.3701" style=""/>
<circle cx="651.181" cy="2274.8" r="39.3701" style=""/>
<circle cx="1123.62" cy="1566.14" r="39.3701" style=""/>
<circle cx="1123.62" cy="1366.14" r="39.3701" style=""/>
<circle cx="1123.62" cy="1166.14" r="39.3701" style=""/>
<circle cx="1123.62" cy="966.142" r="39.3701" style=""/>
<circle cx="2397.95" cy="2721.26" r="39.3701" style=""/>
<circle cx="2597.95" cy="2721.26" r="39.3701" style=""/>
<circle cx="2797.95" cy="2721.26" r="39.3701" style=""/>
<circle cx="3051.97" cy="3172.44" r="39.3701" style=""/>
<circle cx="3051.97" cy="2972.44" r="39.3701" style=""/>
<circle cx="3051.97" cy="2772.44" r="39.3701" style=""/>
<circle cx="3051.97" cy="2572.44" r="39.3701" style=""/>
<circle cx="3051.97" cy="2372.44" r="39.3701" style=""/>
<circle cx="3051.97" cy="2172.44" r="39.3701" style=""/>
<circle cx="3051.97" cy="1972.44" r="39.3701" style=""/>
<circle cx="3051.97" cy="1772.44" r="39.3701" style=""/>
<circle cx="3051.97" cy="1572.44" r="39.3701" style=""/>
<circle cx="3051.97" cy="1372.44" r="39.3701" style=""/>
<circle cx="3051.97" cy="1172.44" r="39.3701" style=""/>
<circle cx="3051.97" cy="972.441" r="39.3701" style=""/>
<circle cx="3051.97" cy="772.441" r="39.3701" style=""/>
<circle cx="3051.97" cy="572.441" r="39.3701" style=""/>
<circle cx="3051.97" cy="372.441" r="39.3701" style=""/>
<circle cx="1152.36" cy="3614.17" r="43.3071" style=""/>
<circle cx="1152.36" cy="3968.5" r="43.3071" style=""/>
<circle cx="640.551" cy="3614.17" r="43.3071" style=""/>
<circle cx="640.551" cy="3968.5" r="43.3071" style=""/>
</svg>
