<?xml version="1.0" standalone="no"?>
<!DOCTYPE svg PUBLIC "-//W3C//DTD SVG 1.1//EN"
"http://www.w3.org/Graphics/SVG/1.1/DTD/svg11.dtd">
<svg width="295.933" height="216.563" viewBox="0 0 6165.28 4511.73" version="1.1"
xmlns="http://www.w3.org/2000/svg"
xmlns:xlink="http://www.w3.org/1999/xlink">
<g fill-rule="evenodd"><path d="M 574.764,2065.31 L 576.226,2051.4 L 580.55,2038.09 L 587.546,2025.98 L 596.909,2015.58 L 608.228,2007.35 L 621.011,2001.66 L 634.697,1998.75 L 648.689,1998.75 L 662.375,2001.66 L 675.157,2007.35 L 686.477,2015.58 L 695.84,2025.98 L 702.836,2038.09 L 707.159,2051.4 L 708.622,2065.31 L 707.159,2079.23 L 702.836,2092.54 L 695.84,2104.65 L 686.477,2115.05 L 675.157,2123.28 L 662.375,2128.97 L 648.689,2131.88 L 634.697,2131.88 L 621.011,2128.97 L 608.228,2123.28 L 596.909,2115.05 L 587.546,2104.65 L 580.55,2092.54 L 576.226,2079.23 L 574.764,2065.31 z " style="fill-opacity:1.000000;fill:rgb(103,198,105);stroke:rgb(0,0,0);stroke-width:2"/></g>
<g fill-rule="evenodd"><path d="M 574.764,647.992 L 576.226,634.077 L 580.55,620.77 L 587.546,608.652 L 596.909,598.254 L 608.228,590.03 L 621.011,584.339 L 634.697,581.43 L 648.689,581.43 L 662.375,584.339 L 675.157,590.03 L 686.477,598.254 L 695.84,608.652 L 702.836,620.77 L 707.159,634.077 L 708.622,647.992 L 707.159,661.907 L 702.836,675.215 L 695.84,687.332 L 686.477,697.73 L 675.157,705.954 L 662.375,711.646 L 648.689,714.555 L 634.697,714.555 L 621.011,711.646 L 608.228,705.954 L 596.909,697.73 L 587.546,687.332 L 580.55,675.215 L 576.226,661.907 L 574.764,647.992 z " style="fill-opacity:1.000000;fill:rgb(115,81,255);stroke:rgb(0,0,0);stroke-width:2"/></g>
<g fill-rule="evenodd"><path d="M 5692.87,3988.15 L 5694.34,3974.23 L 5698.66,3960.93 L 5705.66,3948.81 L 5715.02,3938.41 L 5726.34,3930.19 L 5739.12,3924.5 L 5752.81,3921.59 L 5766.8,3921.59 L 5780.49,3924.5 L 5793.27,3930.19 L 5804.59,3938.41 L 5813.95,3948.81 L 5820.95,3960.93 L 5825.27,3974.23 L 5826.73,3988.15 L 5825.27,4002.06 L 5820.95,4015.37 L 5813.95,4027.49 L 5804.59,4037.89 L 5793.27,4046.11 L 5780.49,4051.8 L 5766.8,4054.71 L 5752.81,4054.71 L 5739.12,4051.8 L 5726.34,4046.11 L 5715.02,4037.89 L 5705.66,4027.49 L 5698.66,4015.37 L 5694.34,4002.06 L 5692.87,3988.15 z " style="fill-opacity:1.000000;fill:rgb(74,236,41);stroke:rgb(0,0,0);stroke-width:2"/></g>
<g fill-rule="evenodd"><path d="M 5492.87,3988.15 L 5494.34,3974.23 L 5498.66,3960.93 L 5505.66,3948.81 L 5515.02,3938.41 L 5526.34,3930.19 L 5539.12,3924.5 L 5552.81,3921.59 L 5566.8,3921.59 L 5580.49,3924.5 L 5593.27,3930.19 L 5604.59,3938.41 L 5613.95,3948.81 L 5620.95,3960.93 L 5625.27,3974.23 L 5626.73,3988.15 L 5625.27,4002.06 L 5620.95,4015.37 L 5613.95,4027.49 L 5604.59,4037.89 L 5593.27,4046.11 L 5580.49,4051.8 L 5566.8,4054.71 L 5552.81,4054.71 L 5539.12,4051.8 L 5526.34,4046.11 L 5515.02,4037.89 L 5505.66,4027.49 L 5498.66,4015.37 L 5494.34,4002.06 L 5492.87,3988.15 z " style="fill-opacity:1.000000;fill:rgb(205,186,171);stroke:rgb(0,0,0);stroke-width:2"/></g>
<g fill-rule="evenodd"><path d="M 1519.15,418.946 L 1516.8,413.269 L 1516.8,410.499 L 1516.5,410.197 L 1516.5,315.709 L 1516.8,315.406 L 1516.8,312.636 L 1519.15,306.96 L 1523.49,302.615 L 1529.17,300.263 L 1531.94,300.263 L 1532.24,299.961 L 1705.47,299.961 L 1705.47,300.264 L 1711.65,300.264 L 1723.76,302.673 L 1735.17,307.399 L 1745.43,314.259 L 1754.17,322.991 L 1761.03,333.259 L 1765.75,344.667 L 1768.16,356.778 L 1768.16,369.127 L 1765.75,381.238 L 1761.03,392.647 L 1754.17,402.915 L 1745.43,411.646 L 1735.17,418.507 L 1723.76,423.232 L 1711.65,425.642 L 1705.47,425.642 L 1705.47,425.945 L 1532.24,425.945 L 1531.94,425.642 L 1529.17,425.642 L 1523.49,423.291 L 1519.15,418.946 z " style="fill-opacity:1.000000;fill:rgb(242,251,227);stroke:rgb(0,0,0);stroke-width:2"/></g>
<g fill-rule="evenodd"><path d="M 1768.46,962.952 L 1767.09,976.05 L 1763.02,988.575 L 1756.43,999.979 L 1747.62,1009.77 L 1736.97,1017.51 L 1724.94,1022.86 L 1712.06,1025.6 L 1705.47,1025.6 L 1705.47,1025.95 L 1579.49,1025.95 L 1579.49,1025.6 L 1572.9,1025.6 L 1560.02,1022.86 L 1547.99,1017.51 L 1537.34,1009.77 L 1528.53,999.979 L 1521.94,988.575 L 1517.87,976.05 L 1516.5,962.954 L 1517.87,949.855 L 1521.94,937.331 L 1528.53,925.926 L 1537.34,916.14 L 1547.99,908.399 L 1560.02,903.043 L 1572.9,900.305 L 1579.49,900.305 L 1579.49,899.96 L 1705.47,899.96 L 1705.47,900.305 L 1712.06,900.305 L 1724.94,903.043 L 1736.97,908.399 L 1747.62,916.14 L 1756.43,925.926 L 1763.02,937.331 L 1767.09,949.855 L 1768.46,962.952 z " style="fill-opacity:1.000000;fill:rgb(70,124,194);stroke:rgb(0,0,0);stroke-width:2"/></g>
<g fill-rule="evenodd"><path d="M 1768.46,1362.95 L 1767.09,1376.05 L 1763.02,1388.57 L 1756.43,1399.98 L 1747.62,1409.77 L 1736.97,1417.51 L 1724.94,1422.86 L 1712.06,1425.6 L 1705.47,1425.6 L 1705.47,1425.95 L 1579.49,1425.95 L 1579.49,1425.6 L 1572.9,1425.6 L 1560.02,1422.86 L 1547.99,1417.51 L 1537.34,1409.77 L 1528.53,1399.98 L 1521.94,1388.57 L 1517.87,1376.05 L 1516.5,1362.95 L 1517.87,1349.86 L 1521.94,1337.33 L 1528.53,1325.93 L 1537.34,1316.14 L 1547.99,1308.4 L 1560.02,1303.04 L 1572.9,1300.3 L 1579.49,1300.3 L 1579.49,1299.96 L 1705.47,1299.96 L 1705.47,1300.3 L 1712.06,1300.3 L 1724.94,1303.04 L 1736.97,1308.4 L 1747.62,1316.14 L 1756.43,1325.93 L 1763.02,1337.33 L 1767.09,1349.86 L 1768.46,1362.95 z " style="fill-opacity:1.000000;fill:rgb(84,248,27);stroke:rgb(0,0,0);stroke-width:2"/></g>
<g fill-rule="evenodd"><path d="M 1768.46,1562.95 L 1767.09,1576.05 L 1763.02,1588.57 L 1756.43,1599.98 L 1747.62,1609.77 L 1736.97,1617.51 L 1724.94,1622.86 L 1712.06,1625.6 L 1705.47,1625.6 L 1705.47,1625.95 L 1579.49,1625.95 L 1579.49,1625.6 L 1572.9,1625.6 L 1560.02,1622.86 L 1547.99,1617.51 L 1537.34,1609.77 L 1528.53,1599.98 L 1521.94,1588.57 L 1517.87,1576.05 L 1516.5,1562.95 L 1517.87,1549.86 L 1521.94,1537.33 L 1528.53,1525.93 L 1537.34,1516.14 L 1547.99,1508.4 L 1560.02,1503.04 L 1572.9,1500.3 L 1579.49,1500.3 L 1579.49,1499.96 L 1705.47,1499.96 L 1705.47,1500.3 L 1712.06,1500.3 L 1724.94,1503.04 L 1736.97,1508.4 L 1747.62,1516.14 L 1756.43,1525.93 L 1763.02,1537.33 L 1767.09,1549.86 L 1768.46,1562.95 z " style="fill-opacity:1.000000;fill:rgb(232,231,141);stroke:rgb(0,0,0);stroke-width:2"/></g>
<g fill-rule="evenodd"><path d="M 1768.46,1962.95 L 1767.09,1976.05 L 1763.02,1988.57 L 1756.43,1999.98 L 1747.62,2009.77 L 1736.97,2017.51 L 1724.94,2022.86 L 1712.06,2025.6 L 1705.47,2025.6 L 1705.47,2025.95 L 1579.49,2025.95 L 1579.49,2025.6 L 1572.9,2025.6 L 1560.02,2022.86 L 1547.99,2017.51 L 1537.34,2009.77 L 1528.53,1999.98 L 1521.94,1988.57 L 1517.87,1976.05 L 1516.5,1962.95 L 1517.87,1949.86 L 1521.94,1937.33 L 1528.53,1925.93 L 1537.34,1916.14 L 1547.99,1908.4 L 1560.02,1903.04 L 1572.9,1900.3 L 1579.49,1900.3 L 1579.49,1899.96 L 1705.47,1899.96 L 1705.47,1900.3 L 1712.06,1900.3 L 1724.94,1903.04 L 1736.97,1908.4 L 1747.62,1916.14 L 1756.43,1925.93 L 1763.02,1937.33 L 1767.09,1949.86 L 1768.46,1962.95 z " style="fill-opacity:1.000000;fill:rgb(118,90,46);stroke:rgb(0,0,0);stroke-width:2"/></g>
<g fill-rule="evenodd"><path d="M 1768.46,2362.95 L 1767.09,2376.05 L 1763.02,2388.57 L 1756.43,2399.98 L 1747.62,2409.77 L 1736.97,2417.51 L 1724.94,2422.86 L 1712.06,2425.6 L 1705.47,2425.6 L 1705.47,2425.95 L 1579.49,2425.95 L 1579.49,2425.6 L 1572.9,2425.6 L 1560.02,2422.86 L 1547.99,2417.51 L 1537.34,2409.77 L 1528.53,2399.98 L 1521.94,2388.57 L 1517.87,2376.05 L 1516.5,2362.95 L 1517.87,2349.86 L 1521.94,2337.33 L 1528.53,2325.93 L 1537.34,2316.14 L 1547.99,2308.4 L 1560.02,2303.04 L 1572.9,2300.3 L 1579.49,2300.3 L 1579.49,2299.96 L 1705.47,2299.96 L 1705.47,2300.3 L 1712.06,2300.3 L 1724.94,2303.04 L 1736.97,2308.4 L 1747.62,2316.14 L 1756.43,2325.93 L 1763.02,2337.33 L 1767.09,2349.86 L 1768.46,2362.95 z " style="fill-opacity:1.000000;fill:rgb(99,51,159);stroke:rgb(0,0,0);stroke-width:2"/></g>
<g fill-rule="evenodd"><path d="M 1768.46,2562.95 L 1767.09,2576.05 L 1763.02,2588.57 L 1756.43,2599.98 L 1747.62,2609.77 L 1736.97,2617.51 L 1724.94,2622.86 L 1712.06,2625.6 L 1705.47,2625.6 L 1705.47,2625.95 L 1579.49,2625.95 L 1579.49,2625.6 L 1572.9,2625.6 L 1560.02,2622.86 L 1547.99,2617.51 L 1537.34,2609.77 L 1528.53,2599.98 L 1521.94,2588.57 L 1517.87,2576.05 L 1516.5,2562.95 L 1517.87,2549.86 L 1521.94,2537.33 L 1528.53,2525.93 L 1537.34,2516.14 L 1547.99,2508.4 L 1560.02,2503.04 L 1572.9,2500.3 L 1579.49,2500.3 L 1579.49,2499.96 L 1705.47,2499.96 L 1705.47,2500.3 L 1712.06,2500.3 L 1724.94,2503.04 L 1736.97,2508.4 L 1747.62,2516.14 L 1756.43,2525.93 L 1763.02,2537.33 L 1767.09,2549.86 L 1768.46,2562.95 z " style="fill-opacity:1.000000;fill:rgb(201,154,102);stroke:rgb(0,0,0);stroke-width:2"/></g>
<g fill-rule="evenodd"><path d="M 1768.46,2962.95 L 1767.09,2976.05 L 1763.02,2988.57 L 1756.43,2999.98 L 1747.62,3009.77 L 1736.97,3017.51 L 1724.94,3022.86 L 1712.06,3025.6 L 1705.47,3025.6 L 1705.47,3025.95 L 1579.49,3025.95 L 1579.49,3025.6 L 1572.9,3025.6 L 1560.02,3022.86 L 1547.99,3017.51 L 1537.34,3009.77 L 1528.53,2999.98 L 1521.94,2988.57 L 1517.87,2976.05 L 1516.5,2962.95 L 1517.87,2949.86 L 1521.94,2937.33 L 1528.53,2925.93 L 1537.34,2916.14 L 1547.99,2908.4 L 1560.02,2903.04 L 1572.9,2900.3 L 1579.49,2900.3 L 1579.49,2899.96 L 1705.47,2899.96 L 1705.47,2900.3 L 1712.06,2900.3 L 1724.94,2903.04 L 1736.97,2908.4 L 1747.62,2916.14 L 1756.43,2925.93 L 1763.02,2937.33 L 1767.09,2949.86 L 1768.46,2962.95 z " style="fill-opacity:1.000000;fill:rgb(50,13,183);stroke:rgb(0,0,0);stroke-width:2"/></g>
<g fill-rule="evenodd"><path d="M 1768.46,3162.95 L 1767.09,3176.05 L 1763.02,3188.57 L 1756.43,3199.98 L 1747.62,3209.77 L 1736.97,3217.51 L 1724.94,3222.86 L 1712.06,3225.6 L 1705.47,3225.6 L 1705.47,3225.95 L 1579.49,3225.95 L 1579.49,3225.6 L 1572.9,3225.6 L 1560.02,3222.86 L 1547.99,3217.51 L 1537.34,3209.77 L 1528.53,3199.98 L 1521.94,3188.57 L 1517.87,3176.05 L 1516.5,3162.95 L 1517.87,3149.86 L 1521.94,3137.33 L 1528.53,3125.93 L 1537.34,3116.14 L 1547.99,3108.4 L 1560.02,3103.04 L 1572.9,3100.3 L 1579.49,3100.3 L 1579.49,3099.96 L 1705.47,3099.96 L 1705.47,3100.3 L 1712.06,3100.3 L 1724.94,3103.04 L 1736.97,3108.4 L 1747.62,3116.14 L 1756.43,3125.93 L 1763.02,3137.33 L 1767.09,3149.86 L 1768.46,3162.95 z " style="fill-opacity:1.000000;fill:rgb(49,88,163);stroke:rgb(0,0,0);stroke-width:2"/></g>
<g fill-rule="evenodd"><path d="M 1768.46,3362.95 L 1767.09,3376.05 L 1763.02,3388.57 L 1756.43,3399.98 L 1747.62,3409.77 L 1736.97,3417.51 L 1724.94,3422.86 L 1712.06,3425.6 L 1705.47,3425.6 L 1705.47,3425.95 L 1579.49,3425.95 L 1579.49,3425.6 L 1572.9,3425.6 L 1560.02,3422.86 L 1547.99,3417.51 L 1537.34,3409.77 L 1528.53,3399.98 L 1521.94,3388.57 L 1517.87,3376.05 L 1516.5,3362.95 L 1517.87,3349.86 L 1521.94,3337.33 L 1528.53,3325.93 L 1537.34,3316.14 L 1547.99,3308.4 L 1560.02,3303.04 L 1572.9,3300.3 L 1579.49,3300.3 L 1579.49,3299.96 L 1705.47,3299.96 L 1705.47,3300.3 L 1712.06,3300.3 L 1724.94,3303.04 L 1736.97,3308.4 L 1747.62,3316.14 L 1756.43,3325.93 L 1763.02,3337.33 L 1767.09,3349.86 L 1768.46,3362.95 z " style="fill-opacity:1.000000;fill:rgb(90,37,93);stroke:rgb(0,0,0);stroke-width:2"/></g>
<g fill-rule="evenodd"><path d="M 1768.46,3562.95 L 1767.09,3576.05 L 1763.02,3588.57 L 1756.43,3599.98 L 1747.62,3609.77 L 1736.97,3617.51 L 1724.94,3622.86 L 1712.06,3625.6 L 1705.47,3625.6 L 1705.47,3625.95 L 1579.49,3625.95 L 1579.49,3625.6 L 1572.9,3625.6 L 1560.02,3622.86 L 1547.99,3617.51 L 1537.34,3609.77 L 1528.53,3599.98 L 1521.94,3588.57 L 1517.87,3576.05 L 1516.5,3562.95 L 1517.87,3549.86 L 1521.94,3537.33 L 1528.53,3525.93 L 1537.34,3516.14 L 1547.99,3508.4 L 1560.02,3503.04 L 1572.9,3500.3 L 1579.49,3500.3 L 1579.49,3499.96 L 1705.47,3499.96 L 1705.47,3500.3 L 1712.06,3500.3 L 1724.94,3503.04 L 1736.97,3508.4 L 1747.62,3516.14 L 1756.43,3525.93 L 1763.02,3537.33 L 1767.09,3549.86 L 1768.46,3562.95 z " style="fill-opacity:1.000000;fill:rgb(5,23,88);stroke:rgb(0,0,0);stroke-width:2"/></g>
<g fill-rule="evenodd"><path d="M 3168.46,2562.95 L 3167.09,2576.05 L 3163.02,2588.57 L 3156.43,2599.98 L 3147.62,2609.77 L 3136.97,2617.51 L 3124.94,2622.86 L 3112.06,2625.6 L 3105.47,2625.6 L 3105.47,2625.95 L 2979.49,2625.95 L 2979.49,2625.6 L 2972.9,2625.6 L 2960.02,2622.86 L 2947.99,2617.51 L 2937.34,2609.77 L 2928.53,2599.98 L 2921.94,2588.57 L 2917.87,2576.05 L 2916.5,2562.95 L 2917.87,2549.86 L 2921.94,2537.33 L 2928.53,2525.93 L 2937.34,2516.14 L 2947.99,2508.4 L 2960.02,2503.04 L 2972.9,2500.3 L 2979.49,2500.3 L 2979.49,2499.96 L 3105.47,2499.96 L 3105.47,2500.3 L 3112.06,2500.3 L 3124.94,2503.04 L 3136.97,2508.4 L 3147.62,2516.14 L 3156.43,2525.93 L 3163.02,2537.33 L 3167.09,2549.86 L 3168.46,2562.95 z " style="fill-opacity:1.000000;fill:rgb(233,94,212);stroke:rgb(0,0,0);stroke-width:2"/></g>
<g fill-rule="evenodd"><path d="M 3168.46,2362.95 L 3167.09,2376.05 L 3163.02,2388.57 L 3156.43,2399.98 L 3147.62,2409.77 L 3136.97,2417.51 L 3124.94,2422.86 L 3112.06,2425.6 L 3105.47,2425.6 L 3105.47,2425.95 L 2979.49,2425.95 L 2979.49,2425.6 L 2972.9,2425.6 L 2960.02,2422.86 L 2947.99,2417.51 L 2937.34,2409.77 L 2928.53,2399.98 L 2921.94,2388.57 L 2917.87,2376.05 L 2916.5,2362.95 L 2917.87,2349.86 L 2921.94,2337.33 L 2928.53,2325.93 L 2937.34,2316.14 L 2947.99,2308.4 L 2960.02,2303.04 L 2972.9,2300.3 L 2979.49,2300.3 L 2979.49,2299.96 L 3105.47,2299.96 L 3105.47,2300.3 L 3112.06,2300.3 L 3124.94,2303.04 L 3136.97,2308.4 L 3147.62,2316.14 L 3156.43,2325.93 L 3163.02,2337.33 L 3167.09,2349.86 L 3168.46,2362.95 z " style="fill-opacity:1.000000;fill:rgb(171,178,205);stroke:rgb(0,0,0);stroke-width:2"/></g>
<g fill-rule="evenodd"><path d="M 3168.46,2162.95 L 3167.09,2176.05 L 3163.02,2188.57 L 3156.43,2199.98 L 3147.62,2209.77 L 3136.97,2217.51 L 3124.94,2222.86 L 3112.06,2225.6 L 3105.47,2225.6 L 3105.47,2225.95 L 2979.49,2225.95 L 2979.49,2225.6 L 2972.9,2225.6 L 2960.02,2222.86 L 2947.99,2217.51 L 2937.34,2209.77 L 2928.53,2199.98 L 2921.94,2188.57 L 2917.87,2176.05 L 2916.5,2162.95 L 2917.87,2149.86 L 2921.94,2137.33 L 2928.53,2125.93 L 2937.34,2116.14 L 2947.99,2108.4 L 2960.02,2103.04 L 2972.9,2100.3 L 2979.49,2100.3 L 2979.49,2099.96 L 3105.47,2099.96 L 3105.47,2100.3 L 3112.06,2100.3 L 3124.94,2103.04 L 3136.97,2108.4 L 3147.62,2116.14 L 3156.43,2125.93 L 3163.02,2137.33 L 3167.09,2149.86 L 3168.46,2162.95 z " style="fill-opacity:1.000000;fill:rgb(198,155,180);stroke:rgb(0,0,0);stroke-width:2"/></g>
<g fill-rule="evenodd"><path d="M 3168.46,1962.95 L 3167.09,1976.05 L 3163.02,1988.57 L 3156.43,1999.98 L 3147.62,2009.77 L 3136.97,2017.51 L 3124.94,2022.86 L 3112.06,2025.6 L 3105.47,2025.6 L 3105.47,2025.95 L 2979.49,2025.95 L 2979.49,2025.6 L 2972.9,2025.6 L 2960.02,2022.86 L 2947.99,2017.51 L 2937.34,2009.77 L 2928.53,1999.98 L 2921.94,1988.57 L 2917.87,1976.05 L 2916.5,1962.95 L 2917.87,1949.86 L 2921.94,1937.33 L 2928.53,1925.93 L 2937.34,1916.14 L 2947.99,1908.4 L 2960.02,1903.04 L 2972.9,1900.3 L 2979.49,1900.3 L 2979.49,1899.96 L 3105.47,1899.96 L 3105.47,1900.3 L 3112.06,1900.3 L 3124.94,1903.04 L 3136.97,1908.4 L 3147.62,1916.14 L 3156.43,1925.93 L 3163.02,1937.33 L 3167.09,1949.86 L 3168.46,1962.95 z " style="fill-opacity:1.000000;fill:rgb(84,17,14);stroke:rgb(0,0,0);stroke-width:2"/></g>
<g fill-rule="evenodd"><path d="M 2919.15,1818.95 L 2916.8,1813.27 L 2916.8,1810.5 L 2916.5,1810.2 L 2916.5,1715.71 L 2916.8,1715.41 L 2916.8,1712.64 L 2919.15,1706.96 L 2923.49,1702.61 L 2929.17,1700.26 L 2931.94,1700.26 L 2932.24,1699.96 L 3105.47,1699.96 L 3105.47,1700.26 L 3111.65,1700.26 L 3123.76,1702.67 L 3135.17,1707.4 L 3145.43,1714.26 L 3154.17,1722.99 L 3161.03,1733.26 L 3165.75,1744.67 L 3168.16,1756.78 L 3168.16,1769.13 L 3165.75,1781.24 L 3161.03,1792.65 L 3154.17,1802.91 L 3145.43,1811.65 L 3135.17,1818.51 L 3123.76,1823.23 L 3111.65,1825.64 L 3105.47,1825.64 L 3105.47,1825.94 L 2932.24,1825.94 L 2931.94,1825.64 L 2929.17,1825.64 L 2923.49,1823.29 L 2919.15,1818.95 z " style="fill-opacity:1.000000;fill:rgb(130,116,65);stroke:rgb(0,0,0);stroke-width:2"/></g>
<g fill-rule="evenodd"><path d="M 3168.46,1562.95 L 3167.09,1576.05 L 3163.02,1588.57 L 3156.43,1599.98 L 3147.62,1609.77 L 3136.97,1617.51 L 3124.94,1622.86 L 3112.06,1625.6 L 3105.47,1625.6 L 3105.47,1625.95 L 2979.49,1625.95 L 2979.49,1625.6 L 2972.9,1625.6 L 2960.02,1622.86 L 2947.99,1617.51 L 2937.34,1609.77 L 2928.53,1599.98 L 2921.94,1588.57 L 2917.87,1576.05 L 2916.5,1562.95 L 2917.87,1549.86 L 2921.94,1537.33 L 2928.53,1525.93 L 2937.34,1516.14 L 2947.99,1508.4 L 2960.02,1503.04 L 2972.9,1500.3 L 2979.49,1500.3 L 2979.49,1499.96 L 3105.47,1499.96 L 3105.47,1500.3 L 3112.06,1500.3 L 3124.94,1503.04 L 3136.97,1508.4 L 3147.62,1516.14 L 3156.43,1525.93 L 3163.02,1537.33 L 3167.09,1549.86 L 3168.46,1562.95 z " style="fill-opacity:1.000000;fill:rgb(33,61,220);stroke:rgb(0,0,0);stroke-width:2"/></g>
<g fill-rule="evenodd"><path d="M 3168.46,1362.95 L 3167.09,1376.05 L 3163.02,1388.57 L 3156.43,1399.98 L 3147.62,1409.77 L 3136.97,1417.51 L 3124.94,1422.86 L 3112.06,1425.6 L 3105.47,1425.6 L 3105.47,1425.95 L 2979.49,1425.95 L 2979.49,1425.6 L 2972.9,1425.6 L 2960.02,1422.86 L 2947.99,1417.51 L 2937.34,1409.77 L 2928.53,1399.98 L 2921.94,1388.57 L 2917.87,1376.05 L 2916.5,1362.95 L 2917.87,1349.86 L 2921.94,1337.33 L 2928.53,1325.93 L 2937.34,1316.14 L 2947.99,1308.4 L 2960.02,1303.04 L 2972.9,1300.3 L 2979.49,1300.3 L 2979.49,1299.96 L 3105.47,1299.96 L 3105.47,1300.3 L 3112.06,1300.3 L 3124.94,1303.04 L 3136.97,1308.4 L 3147.62,1316.14 L 3156.43,1325.93 L 3163.02,1337.33 L 3167.09,1349.86 L 3168.46,1362.95 z " style="fill-opacity:1.000000;fill:rgb(135,112,233);stroke:rgb(0,0,0);stroke-width:2"/></g>
<g fill-rule="evenodd"><path d="M 3168.46,962.952 L 3167.09,976.05 L 3163.02,988.575 L 3156.43,999.979 L 3147.62,1009.77 L 3136.97,1017.51 L 3124.94,1022.86 L 3112.06,1025.6 L 3105.47,1025.6 L 3105.47,1025.95 L 2979.49,1025.95 L 2979.49,1025.6 L 2972.9,1025.6 L 2960.02,1022.86 L 2947.99,1017.51 L 2937.34,1009.77 L 2928.53,999.979 L 2921.94,988.575 L 2917.87,976.05 L 2916.5,962.954 L 2917.87,949.855 L 2921.94,937.331 L 2928.53,925.926 L 2937.34,916.14 L 2947.99,908.399 L 2960.02,903.043 L 2972.9,900.305 L 2979.49,900.305 L 2979.49,899.96 L 3105.47,899.96 L 3105.47,900.305 L 3112.06,900.305 L 3124.94,903.043 L 3136.97,908.399 L 3147.62,916.14 L 3156.43,925.926 L 3163.02,937.331 L 3167.09,949.855 L 3168.46,962.952 z " style="fill-opacity:1.000000;fill:rgb(62,161,65);stroke:rgb(0,0,0);stroke-width:2"/></g>
<g fill-rule="evenodd"><path d="M 3168.46,362.952 L 3167.09,376.05 L 3163.02,388.575 L 3156.43,399.979 L 3147.62,409.766 L 3136.97,417.506 L 3124.94,422.863 L 3112.06,425.601 L 3105.47,425.601 L 3105.47,425.946 L 2979.49,425.946 L 2979.49,425.601 L 2972.9,425.601 L 2960.02,422.863 L 2947.99,417.506 L 2937.34,409.766 L 2928.53,399.979 L 2921.94,388.575 L 2917.87,376.05 L 2916.5,362.954 L 2917.87,349.855 L 2921.94,337.331 L 2928.53,325.926 L 2937.34,316.14 L 2947.99,308.399 L 2960.02,303.043 L 2972.9,300.305 L 2979.49,300.305 L 2979.49,299.96 L 3105.47,299.96 L 3105.47,300.305 L 3112.06,300.305 L 3124.94,303.043 L 3136.97,308.399 L 3147.62,316.14 L 3156.43,325.926 L 3163.02,337.331 L 3167.09,349.855 L 3168.46,362.952 z " style="fill-opacity:1.000000;fill:rgb(225,252,103);stroke:rgb(0,0,0);stroke-width:2"/></g>
<g fill-rule="evenodd"><path d="M 2448.46,2768.27 L 2446.25,2770.72 L 2443.59,2772.65 L 2440.58,2773.99 L 2435.72,2774.76 L 2341.23,2774.76 L 2336.36,2773.99 L 2333.35,2772.65 L 2330.69,2770.72 L 2328.49,2768.27 L 2326.84,2765.42 L 2325.82,2762.29 L 2325.48,2759.02 L 2325.48,2664.53 L 2325.82,2661.25 L 2326.84,2658.12 L 2328.49,2655.27 L 2330.69,2652.82 L 2333.35,2650.89 L 2336.36,2649.55 L 2341.23,2648.78 L 2435.72,2648.78 L 2440.58,2649.55 L 2443.59,2650.89 L 2446.25,2652.82 L 2448.46,2655.27 L 2450.1,2658.12 L 2451.12,2661.25 L 2451.46,2664.53 L 2451.46,2759.02 L 2451.12,2762.29 L 2450.1,2765.42 L 2448.46,2768.27 z " style="fill-opacity:1.000000;fill:rgb(62,1,126);stroke:rgb(0,0,0);stroke-width:2"/></g>
<g fill-rule="evenodd"><path d="M 2525.48,2711.77 L 2526.86,2698.67 L 2530.93,2686.15 L 2537.51,2674.75 L 2546.32,2664.96 L 2556.98,2657.22 L 2569.01,2651.86 L 2581.89,2649.12 L 2595.06,2649.12 L 2607.94,2651.86 L 2619.97,2657.22 L 2630.62,2664.96 L 2639.43,2674.75 L 2646.02,2686.15 L 2650.09,2698.67 L 2651.46,2711.77 L 2650.09,2724.87 L 2646.02,2737.39 L 2639.43,2748.8 L 2630.62,2758.58 L 2619.97,2766.32 L 2607.94,2771.68 L 2595.06,2774.42 L 2581.89,2774.42 L 2569.01,2771.68 L 2556.98,2766.32 L 2546.32,2758.58 L 2537.51,2748.8 L 2530.93,2737.39 L 2526.86,2724.87 L 2525.48,2711.77 z " style="fill-opacity:1.000000;fill:rgb(151,234,220);stroke:rgb(0,0,0);stroke-width:2"/></g>
<g fill-rule="evenodd"><path d="M 2725.48,2711.77 L 2726.86,2698.67 L 2730.93,2686.15 L 2737.51,2674.75 L 2746.32,2664.96 L 2756.98,2657.22 L 2769.01,2651.86 L 2781.89,2649.12 L 2795.06,2649.12 L 2807.94,2651.86 L 2819.97,2657.22 L 2830.62,2664.96 L 2839.43,2674.75 L 2846.02,2686.15 L 2850.09,2698.67 L 2851.46,2711.77 L 2850.09,2724.87 L 2846.02,2737.39 L 2839.43,2748.8 L 2830.62,2758.58 L 2819.97,2766.32 L 2807.94,2771.68 L 2795.06,2774.42 L 2781.89,2774.42 L 2769.01,2771.68 L 2756.98,2766.32 L 2746.32,2758.58 L 2737.51,2748.8 L 2730.93,2737.39 L 2726.86,2724.87 L 2725.48,2711.77 z " style="fill-opacity:1.000000;fill:rgb(107,150,143);stroke:rgb(0,0,0);stroke-width:2"/></g>
<g fill-rule="evenodd"><path d="M 1047.2,1356.65 L 1048.67,1342.74 L 1052.99,1329.43 L 1059.99,1317.31 L 1069.35,1306.92 L 1080.67,1298.69 L 1093.45,1293 L 1107.14,1290.09 L 1121.13,1290.09 L 1134.82,1293 L 1147.6,1298.69 L 1158.92,1306.92 L 1168.28,1317.31 L 1175.28,1329.43 L 1179.6,1342.74 L 1181.06,1356.65 L 1179.6,1370.57 L 1175.28,1383.88 L 1168.28,1395.99 L 1158.92,1406.39 L 1147.6,1414.62 L 1134.82,1420.31 L 1121.13,1423.22 L 1107.14,1423.22 L 1093.45,1420.31 L 1080.67,1414.62 L 1069.35,1406.39 L 1059.99,1395.99 L 1052.99,1383.88 L 1048.67,1370.57 L 1047.2,1356.65 z " style="fill-opacity:1.000000;fill:rgb(56,92,42);stroke:rgb(0,0,0);stroke-width:2"/></g>
<g fill-rule="evenodd"><path d="M 3245.07,1326.94 L 3252.66,1327.9 L 3259.3,1331.69 L 3260.31,1332.63 L 3291.03,1363.35 L 3295.28,1369.71 L 3296.77,1377.21 L 3296.77,2513.22 L 3299.2,2528.53 L 3303.99,2543.27 L 3311.02,2557.08 L 3320.13,2569.62 L 3483.61,2733.09 L 3487.86,2739.45 L 3489.35,2746.96 L 3487.86,2754.46 L 3483.61,2760.82 L 3382.53,2861.9 L 3376.17,2866.15 L 3368.67,2867.64 L 3193.44,2867.64 L 3185.94,2866.15 L 3179.58,2861.9 L 3175.33,2855.53 L 3173.83,2848.03 L 3175.33,2840.53 L 3179.58,2834.17 L 3182.52,2831.22 L 3187.46,2825.2 L 3194.36,2814.88 L 3198.03,2808.01 L 3202.78,2796.54 L 3205.04,2789.08 L 3206.33,2782.64 L 3165.17,2782.64 L 3161.03,2792.65 L 3154.17,2802.91 L 3145.43,2811.65 L 3135.17,2818.51 L 3123.76,2823.23 L 3111.65,2825.64 L 3105.47,2825.64 L 3105.47,2825.94 L 2932.24,2825.94 L 2931.94,2825.64 L 2929.17,2825.64 L 2923.49,2823.29 L 2919.15,2818.95 L 2916.8,2813.27 L 2916.8,2810.5 L 2916.5,2810.2 L 2916.5,2715.71 L 2916.8,2715.41 L 2916.8,2712.64 L 2919.15,2706.96 L 2923.49,2702.61 L 2929.17,2700.26 L 2931.94,2700.26 L 2932.24,2699.96 L 3105.47,2699.96 L 3105.47,2700.26 L 3111.65,2700.26 L 3123.76,2702.67 L 3135.17,2707.4 L 3145.43,2714.26 L 3154.17,2722.99 L 3161.03,2733.26 L 3165.17,2743.27 L 3206.33,2743.27 L 3205.04,2736.82 L 3202.78,2729.36 L 3198.03,2717.9 L 3194.36,2711.02 L 3187.46,2700.71 L 3182.52,2694.68 L 3177.56,2689.72 L 3173.31,2683.36 L 3171.82,2675.86 L 3173.31,2668.36 L 3177.56,2662 L 3192.08,2649.56 L 3204.85,2634.55 L 3215.05,2617.68 L 3222.41,2599.39 L 3226.74,2580.16 L 3227.56,2568.58 L 3227.56,2557.33 L 3226.74,2545.74 L 3222.41,2526.51 L 3215.05,2508.23 L 3204.85,2491.36 L 3191.57,2475.74 L 3191.74,2475.6 L 3188.3,2470.46 L 3186.81,2462.95 L 3188.3,2455.45 L 3191.74,2450.31 L 3191.57,2450.16 L 3204.85,2434.55 L 3215.05,2417.68 L 3222.41,2399.39 L 3226.74,2380.16 L 3227.56,2368.58 L 3227.56,2357.33 L 3226.74,2345.74 L 3222.41,2326.51 L 3215.05,2308.23 L 3204.85,2291.36 L 3191.57,2275.74 L 3191.74,2275.6 L 3188.3,2270.46 L 3186.81,2262.95 L 3188.3,2255.45 L 3191.74,2250.31 L 3191.57,2250.16 L 3204.85,2234.55 L 3215.05,2217.68 L 3222.41,2199.39 L 3226.74,2180.16 L 3227.56,2168.58 L 3227.56,2157.33 L 3226.74,2145.74 L 3222.41,2126.51 L 3215.05,2108.23 L 3204.85,2091.36 L 3191.57,2075.74 L 3191.74,2075.6 L 3188.3,2070.46 L 3186.81,2062.95 L 3188.3,2055.45 L 3191.74,2050.31 L 3191.57,2050.16 L 3204.85,2034.55 L 3215.05,2017.68 L 3222.41,1999.39 L 3226.74,1980.16 L 3227.56,1968.58 L 3227.56,1957.33 L 3226.74,1945.74 L 3222.41,1926.51 L 3215.05,1908.23 L 3204.85,1891.36 L 3191.57,1875.74 L 3191.74,1875.6 L 3188.3,1870.45 L 3186.81,1862.95 L 3188.3,1855.45 L 3192.55,1849.09 L 3196.47,1845.17 L 3203.86,1836.16 L 3210.76,1825.84 L 3216.26,1815.56 L 3221,1804.09 L 3224.39,1792.93 L 3226.81,1780.76 L 3227.95,1769.16 L 3227.95,1756.75 L 3226.81,1745.14 L 3224.39,1732.97 L 3221,1721.81 L 3216.26,1710.35 L 3210.76,1700.06 L 3203.86,1689.75 L 3196.47,1680.73 L 3192.55,1676.82 L 3188.3,1670.46 L 3186.81,1662.96 L 3188.3,1655.45 L 3191.74,1650.31 L 3191.57,1650.16 L 3204.85,1634.55 L 3215.05,1617.68 L 3222.41,1599.39 L 3226.74,1580.16 L 3227.56,1568.58 L 3227.56,1557.33 L 3226.74,1545.74 L 3222.41,1526.51 L 3215.05,1508.23 L 3204.85,1491.36 L 3191.57,1475.74 L 3191.74,1475.6 L 3188.3,1470.46 L 3186.81,1462.95 L 3188.3,1455.45 L 3191.74,1450.31 L 3191.57,1450.16 L 3204.85,1434.55 L 3215.05,1417.68 L 3222.41,1399.39 L 3226.74,1380.16 L 3227.56,1368.58 L 3227.56,1357.33 L 3226.89,1347.88 L 3227.85,1340.29 L 3231.64,1333.65 L 3237.69,1328.96 L 3245.07,1326.94 z " style="fill-opacity:1.000000;fill:rgb(236,176,59);stroke:rgb(0,0,0);stroke-width:2"/></g>
<g fill-rule="evenodd"><path d="M 6023.86,4331.38 L 6006.31,4351.21 L 5986.65,4368.95 L 5973.83,4378.19 L 5966.85,4381.32 L 5962.48,4381.81 L 5270.2,4381.81 L 5262.7,4380.32 L 5256.34,4376.07 L 5252.09,4369.71 L 5250.59,4362.2 L 5252.09,4354.7 L 5256.34,4348.34 L 5434.91,4169.77 L 5444.02,4157.23 L 5451.05,4143.42 L 5455.84,4128.68 L 5458.27,4113.37 L 5458.27,4107.24 L 5459.76,4101.13 L 5461,4098.65 L 5464.01,4094.77 L 5466.11,4092.95 L 5470.37,4090.52 L 5473,4089.64 L 5477.87,4089.03 L 5480.64,4089.22 L 5485.38,4090.52 L 5487.86,4091.76 L 5493.75,4095.93 L 5511.43,4104.94 L 5530.29,4111.07 L 5549.88,4114.17 L 5569.72,4114.17 L 5589.31,4111.07 L 5608.18,4104.94 L 5625.85,4095.93 L 5641.9,4084.28 L 5645.94,4080.24 L 5652.3,4075.99 L 5659.8,4074.5 L 5667.31,4075.99 L 5673.67,4080.24 L 5677.7,4084.28 L 5693.75,4095.93 L 5711.43,4104.94 L 5730.29,4111.07 L 5749.88,4114.17 L 5769.72,4114.17 L 5789.31,4111.07 L 5808.18,4104.94 L 5825.85,4095.93 L 5841.9,4084.28 L 5855.93,4070.25 L 5867.59,4054.2 L 5876.59,4036.53 L 5882.72,4017.66 L 5885.83,3998.07 L 5885.83,3978.23 L 5882.72,3958.64 L 5876.59,3939.77 L 5867.59,3922.1 L 5855.93,3906.05 L 5851.89,3902.01 L 5847.64,3895.65 L 5846.15,3888.15 L 5847.64,3880.65 L 5851.89,3874.29 L 5855.93,3870.25 L 5867.59,3854.2 L 5876.59,3836.53 L 5882.72,3817.66 L 5885.83,3798.07 L 5885.83,3778.23 L 5882.72,3758.64 L 5876.59,3739.77 L 5867.59,3722.1 L 5862.01,3714.42 L 5858.81,3707.48 L 5858.27,3702.9 L 5858.27,3429.22 L 5855.84,3413.91 L 5851.05,3399.17 L 5844.02,3385.36 L 5834.91,3372.82 L 5219.15,2757.06 L 5206.61,2747.95 L 5192.8,2740.91 L 5178.06,2736.13 L 5162.75,2733.7 L 4852.83,2733.7 L 4845.33,2732.21 L 4838.97,2727.96 L 4834.72,2721.6 L 4833.23,2714.09 L 4834.19,2708.04 L 4838.82,2693.77 L 4841.73,2675.4 L 4841.73,2656.8 L 4838.82,2638.44 L 4833.08,2620.75 L 4824.63,2604.18 L 4813.7,2589.13 L 4800.55,2575.98 L 4785.51,2565.05 L 4768.94,2556.61 L 4751.25,2550.86 L 4732.88,2547.95 L 4714.28,2547.95 L 4705.1,2549.41 L 4700.87,2549.75 L 4600.86,2567.34 L 4597.47,2567.64 L 3604.77,2567.64 L 3597.27,2566.15 L 3590.91,2561.9 L 3499.44,2470.43 L 3495.19,2464.07 L 3493.7,2456.57 L 3493.7,1320.56 L 3491.28,1305.25 L 3486.49,1290.51 L 3479.45,1276.7 L 3470.34,1264.16 L 3297.18,1091 L 3284.64,1081.89 L 3270.83,1074.85 L 3256.09,1070.06 L 3240.78,1067.64 L 3219.12,1067.64 L 3211.62,1066.15 L 3205.26,1061.9 L 3201.01,1055.53 L 3199.52,1048.03 L 3201.01,1040.53 L 3215.05,1017.68 L 3222.41,999.392 L 3226.74,980.162 L 3227.56,968.578 L 3227.56,957.327 L 3226.74,945.743 L 3222.41,926.513 L 3215.05,908.227 L 3204.85,891.358 L 3192.08,876.344 L 3178.72,864.98 L 3173.97,858.982 L 3171.88,851.623 L 3172.77,844.025 L 3176.49,837.343 L 3182.52,831.224 L 3187.46,825.2 L 3194.36,814.882 L 3198.03,808.007 L 3202.78,796.543 L 3205.04,789.085 L 3206.33,782.638 L 3165.17,782.637 L 3161.03,792.647 L 3154.17,802.915 L 3145.43,811.646 L 3135.17,818.507 L 3123.76,823.232 L 3111.65,825.642 L 3105.47,825.642 L 3105.47,825.945 L 2932.24,825.945 L 2931.94,825.642 L 2929.17,825.642 L 2923.49,823.291 L 2919.15,818.946 L 2916.8,813.269 L 2916.5,805.473 L 2876.73,805.473 L 2876.96,817.58 L 2879.76,828.547 L 2883.99,838.174 L 2890.78,847.234 L 2892.52,848.977 L 2896.77,855.337 L 2898.26,862.84 L 2896.77,870.343 L 2893.39,875.742 L 2880.11,891.358 L 2869.91,908.227 L 2862.55,926.513 L 2858.22,945.743 L 2857.4,957.327 L 2857.4,968.579 L 2858.22,980.162 L 2862.55,999.392 L 2869.91,1017.68 L 2880.11,1034.55 L 2893.39,1050.16 L 2893.22,1050.31 L 2896.66,1055.45 L 2898.15,1062.95 L 2896.66,1070.46 L 2893.22,1075.6 L 2893.39,1075.74 L 2880.11,1091.36 L 2869.91,1108.23 L 2862.55,1126.51 L 2858.22,1145.74 L 2857.4,1157.33 L 2857.4,1168.58 L 2858.22,1180.16 L 2862.55,1199.39 L 2869.91,1217.68 L 2880.11,1234.55 L 2893.39,1250.16 L 2893.22,1250.31 L 2896.66,1255.45 L 2898.15,1262.95 L 2896.66,1270.46 L 2893.22,1275.6 L 2893.39,1275.74 L 2880.11,1291.36 L 2869.91,1308.23 L 2862.55,1326.51 L 2858.22,1345.74 L 2857.4,1357.33 L 2857.4,1368.58 L 2858.22,1380.16 L 2862.55,1399.39 L 2869.91,1417.68 L 2880.11,1434.55 L 2893.39,1450.16 L 2893.22,1450.31 L 2896.66,1455.45 L 2898.15,1462.95 L 2896.66,1470.46 L 2893.22,1475.6 L 2893.39,1475.74 L 2880.11,1491.36 L 2869.91,1508.23 L 2862.55,1526.51 L 2858.22,1545.74 L 2857.4,1557.33 L 2857.4,1568.58 L 2858.22,1580.16 L 2862.55,1599.39 L 2869.91,1617.68 L 2880.75,1635.3 L 2884.48,1641.99 L 2885.36,1649.59 L 2883.27,1656.94 L 2879.68,1661.87 L 2876.83,1664.72 L 2870.66,1671.96 L 2863.93,1684.02 L 2861.54,1689.81 L 2858.61,1698.86 L 2857.01,1712.58 L 2857.01,1813.33 L 2857.77,1822.81 L 2861.54,1836.09 L 2863.93,1841.88 L 2868.26,1850.35 L 2876.83,1861.18 L 2879.68,1864.03 L 2883.93,1870.39 L 2885.42,1877.9 L 2883.93,1885.4 L 2869.91,1908.23 L 2862.55,1926.51 L 2858.22,1945.74 L 2857.4,1957.33 L 2857.4,1968.58 L 2858.22,1980.16 L 2862.55,1999.39 L 2869.91,2017.68 L 2880.11,2034.55 L 2893.39,2050.16 L 2893.22,2050.31 L 2896.66,2055.45 L 2898.15,2062.95 L 2896.66,2070.46 L 2893.22,2075.6 L 2893.39,2075.74 L 2880.11,2091.36 L 2869.91,2108.23 L 2862.55,2126.51 L 2858.22,2145.74 L 2857.4,2157.33 L 2857.4,2168.58 L 2858.22,2180.16 L 2862.55,2199.39 L 2869.91,2217.68 L 2880.11,2234.55 L 2893.39,2250.16 L 2893.22,2250.31 L 2896.66,2255.45 L 2898.15,2262.95 L 2896.66,2270.46 L 2893.22,2275.6 L 2893.39,2275.74 L 2880.11,2291.36 L 2869.91,2308.23 L 2862.55,2326.51 L 2858.22,2345.74 L 2857.4,2357.33 L 2857.4,2368.58 L 2858.22,2380.16 L 2862.55,2399.39 L 2869.91,2417.68 L 2880.11,2434.55 L 2893.39,2450.16 L 2893.22,2450.31 L 2896.66,2455.45 L 2898.15,2462.95 L 2896.66,2470.46 L 2893.22,2475.6 L 2893.39,2475.74 L 2880.11,2491.36 L 2869.91,2508.23 L 2862.55,2526.51 L 2858.22,2545.74 L 2857.4,2557.33 L 2857.4,2568.58 L 2858.04,2577.66 L 2857.08,2585.25 L 2853.29,2591.89 L 2847.24,2596.58 L 2839.87,2598.59 L 2832.43,2597.68 L 2817.06,2592.69 L 2798.08,2589.69 L 2778.86,2589.69 L 2759.88,2592.69 L 2741.61,2598.63 L 2724.48,2607.35 L 2708.94,2618.65 L 2702.34,2625.25 L 2695.98,2629.5 L 2688.47,2630.99 L 2680.97,2629.5 L 2674.61,2625.25 L 2668.01,2618.65 L 2652.46,2607.35 L 2635.34,2598.63 L 2617.06,2592.69 L 2598.08,2589.69 L 2578.86,2589.69 L 2559.88,2592.69 L 2541.61,2598.63 L 2524.48,2607.35 L 2515.11,2614.17 L 2508.16,2617.37 L 2500.52,2617.67 L 2493.34,2615.02 L 2477.11,2601.71 L 2463.62,2594.67 L 2448.99,2590.48 L 2440.06,2589.69 L 2336.89,2589.69 L 2327.96,2590.48 L 2313.32,2594.67 L 2299.83,2601.71 L 2288.03,2611.33 L 2278.41,2623.13 L 2271.37,2636.62 L 2267.18,2651.26 L 2266.39,2660.19 L 2266.39,2763.36 L 2267.18,2772.29 L 2271.37,2786.92 L 2278.41,2800.41 L 2288.03,2812.21 L 2299.83,2821.83 L 2313.32,2828.88 L 2327.96,2833.06 L 2336.89,2833.86 L 2440.06,2833.86 L 2448.99,2833.06 L 2463.62,2828.88 L 2477.11,2821.83 L 2494.28,2807.98 L 2501.59,2805.73 L 2509.21,2806.46 L 2515.11,2809.38 L 2524.49,2816.19 L 2541.61,2824.91 L 2559.88,2830.85 L 2578.86,2833.86 L 2598.08,2833.86 L 2617.06,2830.85 L 2635.34,2824.91 L 2652.46,2816.19 L 2668.01,2804.89 L 2674.61,2798.29 L 2680.97,2794.04 L 2688.47,2792.55 L 2695.98,2794.04 L 2702.34,2798.29 L 2708.94,2804.89 L 2724.49,2816.19 L 2741.61,2824.91 L 2759.88,2830.85 L 2778.86,2833.86 L 2798.08,2833.86 L 2817.06,2830.85 L 2835.34,2824.91 L 2851.99,2816.43 L 2859.35,2814.35 L 2866.95,2815.25 L 2873.62,2818.99 L 2877.6,2823.64 L 2895.36,2852.58 L 2896.77,2855.34 L 2898.02,2859.76 L 2898.26,2862.84 L 2897.72,2867.4 L 2896.77,2870.34 L 2894.52,2874.35 L 2880.11,2891.36 L 2869.91,2908.23 L 2862.55,2926.51 L 2858.22,2945.74 L 2857.4,2957.33 L 2857.4,2968.58 L 2858.22,2980.16 L 2862.55,2999.39 L 2869.91,3017.68 L 2880.11,3034.55 L 2893.39,3050.16 L 2893.22,3050.31 L 2896.66,3055.45 L 2898.15,3062.95 L 2896.66,3070.46 L 2893.22,3075.6 L 2893.39,3075.74 L 2880.11,3091.36 L 2869.91,3108.23 L 2862.55,3126.51 L 2858.22,3145.74 L 2857.4,3157.33 L 2857.4,3168.58 L 2858.22,3180.16 L 2862.55,3199.39 L 2869.91,3217.68 L 2880.11,3234.55 L 2893.39,3250.16 L 2893.22,3250.31 L 2896.66,3255.45 L 2898.15,3262.95 L 2896.66,3270.46 L 2893.22,3275.6 L 2893.39,3275.74 L 2880.11,3291.36 L 2869.91,3308.23 L 2862.55,3326.51 L 2858.22,3345.74 L 2857.4,3357.33 L 2857.4,3368.58 L 2858.22,3380.16 L 2862.55,3399.39 L 2869.91,3417.68 L 2880.11,3434.55 L 2893.39,3450.16 L 2893.22,3450.31 L 2896.66,3455.45 L 2898.15,3462.95 L 2896.66,3470.46 L 2893.22,3475.6 L 2893.39,3475.74 L 2880.11,3491.36 L 2869.91,3508.23 L 2862.55,3526.51 L 2858.22,3545.74 L 2857.4,3557.33 L 2857.4,3568.58 L 2858.25,3580.55 L 2857.29,3588.14 L 2853.49,3594.78 L 2847.45,3599.47 L 2840.07,3601.49 L 2838.69,3601.54 L 1846.27,3601.54 L 1838.77,3600.04 L 1832.41,3595.79 L 1828.16,3589.43 L 1826.67,3581.93 L 1827.56,3568.58 L 1827.56,3557.33 L 1826.74,3545.74 L 1822.41,3526.51 L 1815.05,3508.23 L 1804.85,3491.36 L 1791.57,3475.74 L 1791.74,3475.6 L 1788.3,3470.46 L 1786.81,3462.95 L 1788.3,3455.45 L 1791.74,3450.31 L 1791.57,3450.16 L 1804.85,3434.55 L 1815.05,3417.68 L 1822.41,3399.39 L 1826.74,3380.16 L 1827.56,3368.58 L 1827.56,3357.33 L 1826.74,3345.74 L 1822.41,3326.51 L 1815.05,3308.23 L 1804.85,3291.36 L 1791.57,3275.74 L 1791.74,3275.6 L 1788.3,3270.46 L 1786.81,3262.95 L 1788.3,3255.45 L 1791.74,3250.31 L 1791.57,3250.16 L 1804.85,3234.55 L 1815.05,3217.68 L 1822.41,3199.39 L 1826.74,3180.16 L 1827.56,3168.58 L 1827.56,3157.33 L 1826.74,3145.74 L 1822.41,3126.51 L 1815.05,3108.23 L 1804.85,3091.36 L 1791.57,3075.74 L 1791.74,3075.6 L 1788.3,3070.46 L 1786.81,3062.95 L 1788.3,3055.45 L 1791.74,3050.31 L 1791.57,3050.16 L 1804.85,3034.55 L 1815.05,3017.68 L 1822.41,2999.39 L 1826.74,2980.16 L 1827.56,2968.58 L 1827.56,2957.33 L 1826.74,2945.74 L 1822.41,2926.51 L 1815.05,2908.23 L 1804.85,2891.36 L 1791.57,2875.74 L 1788.19,2870.34 L 1786.7,2862.84 L 1788.19,2855.34 L 1792.44,2848.98 L 1797.03,2844.07 L 1802.8,2834.33 L 1806.62,2824.53 L 1808.23,2813.33 L 1808.23,2782.64 L 1768.46,2782.64 L 1768.46,2810.2 L 1768.16,2810.5 L 1768.16,2813.27 L 1765.81,2818.95 L 1761.47,2823.29 L 1755.79,2825.64 L 1753.02,2825.64 L 1752.72,2825.94 L 1579.49,2825.94 L 1579.49,2825.64 L 1573.31,2825.64 L 1561.2,2823.23 L 1549.79,2818.51 L 1539.53,2811.65 L 1533.35,2805.47 L 1485.88,2805.47 L 1490.6,2814.88 L 1497.5,2825.2 L 1502.44,2831.22 L 1507.4,2836.18 L 1511.65,2842.54 L 1513.14,2850.05 L 1511.65,2857.55 L 1507.4,2863.91 L 1492.88,2876.34 L 1480.11,2891.36 L 1469.91,2908.23 L 1462.55,2926.51 L 1458.22,2945.74 L 1457.4,2957.33 L 1457.4,2968.58 L 1458.22,2980.16 L 1462.55,2999.39 L 1469.91,3017.68 L 1480.11,3034.55 L 1493.39,3050.16 L 1493.22,3050.31 L 1496.66,3055.45 L 1498.15,3062.95 L 1496.66,3070.46 L 1493.22,3075.6 L 1493.39,3075.74 L 1480.11,3091.36 L 1469.91,3108.23 L 1462.55,3126.51 L 1458.22,3145.74 L 1457.4,3157.33 L 1457.4,3168.58 L 1458.22,3180.16 L 1462.55,3199.39 L 1469.91,3217.68 L 1480.11,3234.55 L 1493.39,3250.16 L 1493.22,3250.31 L 1496.66,3255.45 L 1498.15,3262.95 L 1496.66,3270.46 L 1493.22,3275.6 L 1493.39,3275.74 L 1480.11,3291.36 L 1469.91,3308.23 L 1462.55,3326.51 L 1458.22,3345.74 L 1457.4,3357.33 L 1457.4,3368.58 L 1458.22,3380.16 L 1462.55,3399.39 L 1469.91,3417.68 L 1480.11,3434.55 L 1493.39,3450.16 L 1493.22,3450.31 L 1496.66,3455.45 L 1498.15,3462.95 L 1496.66,3470.46 L 1493.22,3475.6 L 1493.39,3475.74 L 1480.11,3491.36 L 1469.91,3508.23 L 1462.55,3526.51 L 1458.22,3545.74 L 1457.4,3557.33 L 1457.4,3568.58 L 1458.22,3580.16 L 1462.55,3599.39 L 1469.91,3617.68 L 1480.11,3634.55 L 1492.88,3649.56 L 1506.24,3660.93 L 1510.99,3666.92 L 1513.08,3674.28 L 1512.19,3681.88 L 1508.47,3688.56 L 1502.44,3694.68 L 1497.5,3700.71 L 1490.6,3711.02 L 1486.93,3717.9 L 1483.27,3726.73 L 1528.29,3726.73 L 1530.79,3722.99 L 1539.53,3714.26 L 1549.79,3707.4 L 1561.2,3702.67 L 1573.31,3700.26 L 1579.49,3700.26 L 1579.49,3699.96 L 1752.72,3699.96 L 1753.02,3700.26 L 1755.79,3700.26 L 1761.47,3702.61 L 1765.81,3706.96 L 1768.16,3712.64 L 1768.16,3715.41 L 1768.46,3715.71 L 1768.46,3810.2 L 1768.16,3810.5 L 1768.16,3813.27 L 1765.81,3818.95 L 1761.47,3823.29 L 1755.79,3825.64 L 1753.02,3825.64 L 1752.72,3825.94 L 1579.49,3825.94 L 1579.49,3825.64 L 1573.31,3825.64 L 1561.2,3823.23 L 1549.79,3818.51 L 1539.53,3811.65 L 1533.35,3805.47 L 1485.88,3805.47 L 1490.6,3814.88 L 1497.5,3825.2 L 1502.44,3831.22 L 1505.38,3834.17 L 1509.63,3840.53 L 1511.13,3848.03 L 1509.63,3855.53 L 1505.38,3861.9 L 1499.02,3866.15 L 1491.52,3867.64 L 1254.54,3867.64 L 1247.04,3866.15 L 1240.68,3861.9 L 1233.95,3855.16 L 1219.62,3844.17 L 1203.97,3835.13 L 1187.27,3828.22 L 1169.82,3823.54 L 1151.91,3821.18 L 1133.84,3821.18 L 1115.93,3823.54 L 1098.47,3828.22 L 1081.78,3835.13 L 1066.13,3844.16 L 1051.8,3855.16 L 1045.07,3861.9 L 1038.71,3866.15 L 1031.2,3867.64 L 742.734,3867.64 L 735.231,3866.15 L 728.87,3861.9 L 722.138,3855.16 L 707.803,3844.16 L 692.157,3835.13 L 675.463,3828.22 L 658.011,3823.54 L 640.097,3821.18 L 622.029,3821.18 L 604.115,3823.54 L 586.663,3828.22 L 569.969,3835.13 L 554.321,3844.17 L 539.988,3855.16 L 527.211,3867.94 L 516.211,3882.28 L 507.178,3897.92 L 502.4,3909.46 L 498.15,3915.82 L 491.789,3920.07 L 484.286,3921.56 L 476.783,3920.07 L 470.422,3915.82 L 439.994,3885.39 L 435.744,3879.03 L 434.252,3871.53 L 434.252,3823.62 L 435.744,3816.12 L 441.632,3804.43 L 447.188,3787.34 L 450,3769.58 L 450,3751.6 L 447.188,3733.85 L 441.632,3716.75 L 433.471,3700.73 L 422.904,3686.19 L 410.192,3673.47 L 395.648,3662.91 L 379.63,3654.75 L 370.122,3651.66 L 362.532,3649.19 L 344.777,3646.38 L 326.798,3646.38 L 309.043,3649.19 L 291.945,3654.75 L 275.927,3662.91 L 261.383,3673.47 L 248.671,3686.19 L 238.104,3700.73 L 229.942,3716.75 L 224.387,3733.85 L 221.575,3751.6 L 221.575,3769.58 L 224.387,3787.34 L 229.942,3804.43 L 235.186,3814.72 L 237.262,3822.09 L 237.323,3928.18 L 239.747,3943.49 L 242.636,3952.38 L 244.537,3958.23 L 251.573,3972.04 L 260.683,3984.58 L 506.352,4230.25 L 517.311,4241.21 L 529.85,4250.32 L 543.66,4257.35 L 558.4,4262.14 L 573.707,4264.57 L 669.331,4264.57 L 676.834,4266.06 L 683.194,4270.31 L 687.445,4276.67 L 688.937,4284.17 L 688.937,4362.2 L 687.445,4369.71 L 683.194,4376.07 L 676.834,4380.32 L 669.331,4381.81 L 202.908,4381.81 L 198.542,4381.32 L 195.405,4380.32 L 191.56,4378.19 L 178.709,4368.92 L 159.041,4351.17 L 142.857,4333.05 L 133.534,4320.12 L 130.411,4313.13 L 129.921,4308.77 L 129.921,1349.09 L 131.414,1341.59 L 134.048,1337.06 L 142.703,1325.92 L 160.064,1308.2 L 181.347,1291.35 L 200.496,1279.61 L 222.986,1269.14 L 248.845,1260.87 L 273.232,1256.33 L 297.399,1254.68 L 501.535,1252.72 L 501.543,1185.75 L 503.037,1178.24 L 507.288,1171.88 L 513.647,1167.63 L 521.15,1166.14 L 523.622,1166.14 L 531.125,1167.63 L 537.486,1171.88 L 541.736,1178.25 L 543.228,1185.75 L 543.228,1538.23 L 541.736,1545.73 L 537.486,1552.09 L 528.094,1561.48 L 520.841,1573.24 L 516.496,1586.35 L 515.669,1594.45 L 515.669,1736.18 L 516.496,1744.28 L 520.841,1757.39 L 528.094,1769.15 L 532.294,1773.35 L 536.544,1779.71 L 538.037,1787.21 L 536.544,1794.71 L 533.908,1799.26 L 524.902,1816.94 L 518.772,1835.8 L 515.669,1855.4 L 515.669,1875.23 L 518.772,1894.83 L 524.902,1913.69 L 533.908,1931.37 L 545.567,1947.41 L 549.605,1951.45 L 553.855,1957.81 L 555.347,1965.31 L 553.855,1972.82 L 549.605,1979.18 L 545.567,1983.22 L 533.908,1999.26 L 524.902,2016.94 L 518.772,2035.8 L 515.669,2055.4 L 515.669,2075.23 L 518.772,2094.83 L 524.902,2113.69 L 533.908,2131.37 L 545.567,2147.41 L 559.594,2161.44 L 581.252,2177.04 L 610.54,2206.32 L 621.011,2201.66 L 634.697,2198.75 L 648.689,2198.75 L 662.375,2201.66 L 672.846,2206.32 L 702.133,2177.04 L 707.096,2173.43 L 709.906,2172.53 L 711.623,2170.36 L 723.792,2161.44 L 737.818,2147.41 L 749.478,2131.37 L 758.484,2113.69 L 764.613,2094.83 L 767.717,2075.23 L 767.716,2055.4 L 764.613,2035.8 L 758.484,2016.94 L 749.478,1999.26 L 746.315,1994.91 L 743.112,1987.96 L 742.811,1980.32 L 745.459,1973.14 L 750.652,1967.52 L 757.599,1964.32 L 762.176,1963.78 L 871.526,1963.78 L 879.029,1965.27 L 885.39,1969.52 L 1157.08,2241.21 L 1169.61,2250.32 L 1183.42,2257.35 L 1198.16,2262.14 L 1213.47,2264.57 L 1461.54,2264.57 L 1469.04,2266.06 L 1475.4,2270.31 L 1479.65,2276.67 L 1481.15,2284.17 L 1479.65,2291.68 L 1469.91,2308.23 L 1462.55,2326.51 L 1458.22,2345.74 L 1457.4,2357.33 L 1457.4,2368.58 L 1458.22,2380.16 L 1462.55,2399.39 L 1469.91,2417.68 L 1480.11,2434.55 L 1493.39,2450.16 L 1493.22,2450.31 L 1496.66,2455.45 L 1498.15,2462.95 L 1496.66,2470.46 L 1493.22,2475.6 L 1493.39,2475.74 L 1480.11,2491.36 L 1469.91,2508.23 L 1462.55,2526.51 L 1458.22,2545.74 L 1457.4,2557.33 L 1457.4,2568.58 L 1458.22,2580.16 L 1462.55,2599.39 L 1469.91,2617.68 L 1480.11,2634.55 L 1492.88,2649.56 L 1506.24,2660.93 L 1510.99,2666.92 L 1513.08,2674.28 L 1512.19,2681.88 L 1508.47,2688.56 L 1502.44,2694.68 L 1497.5,2700.71 L 1490.6,2711.02 L 1486.93,2717.9 L 1483.27,2726.73 L 1528.29,2726.73 L 1530.79,2722.99 L 1539.53,2714.26 L 1549.79,2707.4 L 1561.2,2702.67 L 1573.31,2700.26 L 1579.49,2700.26 L 1579.49,2699.96 L 1752.72,2699.96 L 1753.02,2700.26 L 1755.79,2700.26 L 1761.47,2702.61 L 1765.81,2706.96 L 1768.16,2712.64 L 1768.16,2715.41 L 1768.46,2715.71 L 1768.46,2743.27 L 1808.23,2743.27 L 1808.23,2712.58 L 1808,2708.33 L 1805.2,2697.36 L 1800.97,2687.73 L 1794.18,2678.67 L 1792.44,2676.93 L 1788.19,2670.57 L 1786.7,2663.06 L 1788.19,2655.56 L 1791.57,2650.16 L 1804.85,2634.55 L 1815.05,2617.68 L 1822.41,2599.39 L 1826.74,2580.16 L 1827.56,2568.58 L 1827.56,2557.33 L 1826.74,2545.74 L 1822.41,2526.51 L 1815.05,2508.23 L 1804.85,2491.36 L 1791.57,2475.74 L 1791.74,2475.6 L 1788.3,2470.46 L 1786.81,2462.95 L 1788.3,2455.45 L 1791.74,2450.31 L 1791.57,2450.16 L 1804.85,2434.55 L 1815.05,2417.68 L 1822.41,2399.39 L 1826.74,2380.16 L 1827.56,2368.58 L 1827.56,2357.33 L 1826.74,2345.74 L 1822.41,2326.51 L 1815.05,2308.23 L 1804.85,2291.36 L 1791.57,2275.74 L 1791.74,2275.6 L 1788.3,2270.46 L 1786.81,2262.95 L 1788.3,2255.45 L 1791.74,2250.31 L 1791.57,2250.16 L 1804.85,2234.55 L 1815.05,2217.68 L 1822.41,2199.39 L 1826.74,2180.16 L 1827.56,2168.58 L 1827.56,2157.33 L 1826.74,2145.74 L 1822.41,2126.51 L 1815.05,2108.23 L 1804.85,2091.36 L 1791.57,2075.74 L 1791.74,2075.6 L 1788.3,2070.46 L 1786.81,2062.95 L 1788.3,2055.45 L 1791.74,2050.31 L 1791.57,2050.16 L 1804.85,2034.55 L 1815.05,2017.68 L 1822.41,1999.39 L 1826.74,1980.16 L 1827.56,1968.58 L 1827.56,1957.33 L 1826.74,1945.74 L 1822.41,1926.51 L 1815.05,1908.23 L 1804.85,1891.36 L 1791.57,1875.74 L 1788.19,1870.34 L 1786.7,1862.84 L 1788.19,1855.34 L 1792.44,1848.98 L 1797.03,1844.07 L 1802.8,1834.33 L 1806.62,1824.53 L 1808.23,1813.33 L 1808.23,1782.64 L 1768.46,1782.64 L 1768.46,1810.2 L 1768.16,1810.5 L 1768.16,1813.27 L 1765.81,1818.95 L 1761.47,1823.29 L 1755.79,1825.64 L 1753.02,1825.64 L 1752.72,1825.94 L 1579.49,1825.94 L 1579.49,1825.64 L 1573.31,1825.64 L 1561.2,1823.23 L 1549.79,1818.51 L 1539.53,1811.65 L 1533.35,1805.47 L 1485.88,1805.47 L 1490.6,1814.88 L 1497.5,1825.2 L 1502.44,1831.22 L 1507.4,1836.18 L 1511.65,1842.54 L 1513.14,1850.05 L 1511.65,1857.55 L 1507.4,1863.91 L 1492.88,1876.34 L 1480.11,1891.36 L 1469.91,1908.23 L 1462.55,1926.51 L 1458.22,1945.74 L 1457.4,1957.33 L 1457.4,1968.58 L 1458.22,1980.16 L 1462.55,1999.39 L 1469.91,2017.68 L 1480.77,2035.33 L 1484.5,2042.01 L 1485.38,2049.61 L 1483.29,2056.97 L 1478.54,2062.97 L 1471.86,2066.69 L 1465.84,2067.64 L 1270.13,2067.64 L 1262.62,2066.15 L 1256.26,2061.9 L 984.578,1790.21 L 972.04,1781.1 L 958.23,1774.06 L 943.49,1769.27 L 928.183,1766.85 L 786.295,1766.85 L 778.792,1765.36 L 772.431,1761.11 L 768.181,1754.75 L 766.688,1747.24 L 767.717,1736.18 L 767.716,1594.45 L 766.89,1586.35 L 762.544,1573.24 L 755.292,1561.48 L 745.9,1552.09 L 741.65,1545.73 L 740.157,1538.23 L 740.157,1185.75 L 741.65,1178.25 L 745.9,1171.88 L 752.261,1167.63 L 759.764,1166.14 L 806.923,1166.14 L 822.23,1163.72 L 836.971,1158.93 L 850.78,1151.89 L 863.319,1142.78 L 945.24,1060.86 L 951.6,1056.61 L 959.103,1055.12 L 987.047,1055.12 L 994.55,1056.61 L 1000.91,1060.86 L 1004.74,1064.69 L 1008.99,1071.05 L 1010.48,1078.55 L 1008.99,1086.05 L 1006.35,1090.6 L 997.343,1108.28 L 991.213,1127.14 L 988.11,1146.73 L 988.11,1166.57 L 991.213,1186.16 L 997.343,1205.03 L 1006.35,1222.7 L 1018.01,1238.75 L 1022.05,1242.79 L 1026.3,1249.15 L 1027.79,1256.65 L 1026.3,1264.16 L 1022.05,1270.52 L 1018.01,1274.55 L 1006.35,1290.6 L 997.343,1308.28 L 991.213,1327.14 L 988.11,1346.73 L 988.11,1366.57 L 991.213,1386.16 L 997.343,1405.03 L 1006.35,1422.7 L 1018.01,1438.75 L 1032.03,1452.78 L 1053.69,1468.37 L 1082.98,1497.66 L 1093.45,1493 L 1107.14,1490.09 L 1121.13,1490.09 L 1134.82,1493 L 1145.29,1497.66 L 1174.57,1468.37 L 1179.54,1464.77 L 1182.35,1463.87 L 1184.06,1461.69 L 1196.23,1452.78 L 1210.26,1438.75 L 1221.92,1422.7 L 1230.92,1405.03 L 1237.05,1386.16 L 1240.16,1366.57 L 1240.16,1346.74 L 1237.05,1327.14 L 1230.92,1308.28 L 1221.92,1290.6 L 1218.76,1286.25 L 1215.55,1279.3 L 1215.25,1271.66 L 1217.9,1264.48 L 1223.09,1258.86 L 1230.04,1255.66 L 1234.62,1255.12 L 1468.52,1255.12 L 1476.02,1256.61 L 1482.38,1260.86 L 1486.63,1267.22 L 1488.12,1274.72 L 1486.63,1282.23 L 1483.45,1287.43 L 1480.11,1291.36 L 1469.91,1308.23 L 1462.55,1326.51 L 1458.22,1345.74 L 1457.4,1357.33 L 1457.4,1368.58 L 1458.22,1380.16 L 1462.55,1399.39 L 1469.91,1417.68 L 1480.11,1434.55 L 1493.39,1450.16 L 1493.22,1450.31 L 1496.66,1455.45 L 1498.15,1462.95 L 1496.66,1470.46 L 1493.22,1475.6 L 1493.39,1475.74 L 1480.11,1491.36 L 1469.91,1508.23 L 1462.55,1526.51 L 1458.22,1545.74 L 1457.4,1557.33 L 1457.4,1568.58 L 1458.22,1580.16 L 1462.55,1599.39 L 1469.91,1617.68 L 1480.11,1634.55 L 1492.88,1649.56 L 1506.24,1660.93 L 1510.99,1666.92 L 1513.08,1674.28 L 1512.19,1681.88 L 1508.47,1688.56 L 1502.44,1694.68 L 1497.5,1700.71 L 1490.6,1711.02 L 1486.93,1717.9 L 1483.27,1726.73 L 1528.29,1726.73 L 1530.79,1722.99 L 1539.53,1714.26 L 1549.79,1707.4 L 1561.2,1702.67 L 1573.31,1700.26 L 1579.49,1700.26 L 1579.49,1699.96 L 1752.72,1699.96 L 1753.02,1700.26 L 1755.79,1700.26 L 1761.47,1702.61 L 1765.81,1706.96 L 1768.16,1712.64 L 1768.16,1715.41 L 1768.46,1715.71 L 1768.46,1743.27 L 1808.23,1743.27 L 1808.23,1712.58 L 1808,1708.33 L 1805.2,1697.36 L 1800.97,1687.73 L 1794.18,1678.67 L 1792.44,1676.93 L 1788.19,1670.57 L 1786.7,1663.06 L 1788.19,1655.56 L 1791.57,1650.16 L 1804.85,1634.55 L 1815.05,1617.68 L 1822.41,1599.39 L 1826.74,1580.16 L 1827.56,1568.58 L 1827.56,1557.33 L 1826.74,1545.74 L 1822.41,1526.51 L 1815.05,1508.23 L 1804.85,1491.36 L 1791.57,1475.74 L 1791.74,1475.6 L 1788.3,1470.46 L 1786.81,1462.95 L 1788.3,1455.45 L 1791.74,1450.31 L 1791.57,1450.16 L 1804.85,1434.55 L 1815.05,1417.68 L 1822.41,1399.39 L 1826.74,1380.16 L 1827.56,1368.58 L 1827.56,1357.33 L 1826.74,1345.74 L 1822.41,1326.51 L 1815.05,1308.23 L 1804.85,1291.36 L 1791.57,1275.74 L 1791.74,1275.6 L 1788.3,1270.46 L 1786.81,1262.95 L 1788.3,1255.45 L 1791.74,1250.31 L 1791.57,1250.16 L 1804.85,1234.55 L 1815.05,1217.68 L 1822.41,1199.39 L 1826.74,1180.16 L 1827.56,1168.58 L 1827.56,1157.33 L 1826.74,1145.74 L 1822.41,1126.51 L 1815.05,1108.23 L 1804.85,1091.36 L 1791.57,1075.74 L 1791.74,1075.6 L 1788.3,1070.46 L 1786.81,1062.95 L 1788.3,1055.45 L 1791.74,1050.31 L 1791.57,1050.16 L 1804.85,1034.55 L 1815.05,1017.68 L 1822.41,999.392 L 1826.74,980.162 L 1827.56,968.578 L 1827.56,957.327 L 1826.74,945.743 L 1822.41,926.513 L 1815.05,908.227 L 1804.85,891.358 L 1791.57,875.742 L 1788.19,870.343 L 1786.7,862.84 L 1788.19,855.337 L 1792.44,848.977 L 1797.03,844.068 L 1802.8,834.334 L 1805.2,828.545 L 1806.62,824.532 L 1808.23,813.329 L 1808.23,805.472 L 1768.46,805.473 L 1768.16,813.269 L 1765.81,818.946 L 1761.47,823.291 L 1755.79,825.642 L 1753.02,825.642 L 1752.72,825.945 L 1579.49,825.945 L 1579.49,825.642 L 1573.31,825.642 L 1561.2,823.232 L 1549.79,818.507 L 1539.53,811.646 L 1533.35,805.473 L 1485.88,805.473 L 1490.6,814.882 L 1497.5,825.2 L 1502.44,831.225 L 1507.4,836.182 L 1511.65,842.543 L 1513.14,850.046 L 1511.65,857.549 L 1507.4,863.91 L 1492.88,876.344 L 1480.11,891.358 L 1469.91,908.227 L 1462.55,926.513 L 1458.22,945.743 L 1457.4,957.327 L 1457.4,968.579 L 1458.22,980.162 L 1462.55,999.391 L 1469.91,1017.68 L 1476.42,1028.44 L 1479.02,1035.63 L 1478.67,1043.27 L 1475.43,1050.2 L 1469.78,1055.36 L 1462.59,1057.97 L 1459.64,1058.19 L 1258.74,1058.19 L 1251.23,1056.7 L 1244.87,1052.45 L 1240.62,1046.09 L 1239.13,1038.58 L 1240.16,1027.52 L 1240.16,885.787 L 1239.33,877.693 L 1234.99,864.58 L 1227.73,852.822 L 1217.97,843.054 L 1206.21,835.802 L 1193.09,831.457 L 1185,830.63 L 1043.27,830.63 L 1035.17,831.457 L 1022.06,835.802 L 1010.3,843.054 L 1000.91,852.446 L 994.55,856.697 L 987.047,858.189 L 902.447,858.189 L 887.14,860.613 L 872.4,865.403 L 858.59,872.439 L 846.052,881.549 L 764.13,963.47 L 757.77,967.72 L 750.267,969.213 L 716.036,969.213 L 708.533,967.72 L 702.172,963.47 L 697.922,957.109 L 696.43,949.606 L 697.922,942.103 L 701.61,936.584 L 701.671,935.809 L 672.846,906.984 L 662.375,911.646 L 648.689,914.555 L 634.697,914.555 L 621.011,911.646 L 610.54,906.984 L 581.715,935.809 L 581.802,936.912 L 584.067,939.362 L 586.715,946.539 L 586.414,954.183 L 583.211,961.131 L 577.594,966.323 L 570.417,968.971 L 567.35,969.213 L 521.178,969.213 L 513.675,967.72 L 507.314,963.47 L 503.064,957.109 L 501.572,949.606 L 501.58,884.545 L 503.073,877.043 L 507.324,870.683 L 513.685,866.433 L 521.188,864.942 L 528.691,866.435 L 535.051,870.686 L 539.3,877.047 L 543.182,888.797 L 550.777,903.704 L 553.876,907.97 L 582.776,879.07 L 580.55,875.215 L 576.226,861.907 L 574.764,847.992 L 576.226,834.077 L 580.55,820.77 L 582.776,816.914 L 553.876,788.014 L 550.777,792.28 L 543.182,807.187 L 539.841,817.468 L 536.103,824.143 L 530.096,828.879 L 522.733,830.955 L 515.136,830.056 L 508.461,826.318 L 503.725,820.31 L 501.649,812.947 L 501.598,729.911 L 503.091,722.409 L 507.342,716.049 L 513.703,711.799 L 521.207,710.308 L 528.709,711.801 L 535.07,716.052 L 545.567,730.091 L 559.594,744.118 L 570.554,752.08 L 573.248,754.994 L 576.29,756.107 L 581.252,759.713 L 610.54,789 L 621.011,784.339 L 634.697,781.43 L 648.689,781.43 L 662.375,784.339 L 672.846,789 L 702.133,759.713 L 707.096,756.107 L 709.906,755.211 L 711.623,753.033 L 723.792,744.118 L 737.818,730.091 L 749.478,714.043 L 758.484,696.368 L 764.613,677.503 L 767.716,657.911 L 767.717,639.34 L 769.209,631.837 L 773.459,625.476 L 779.82,621.226 L 787.323,619.733 L 794.826,621.226 L 801.187,625.476 L 816.918,641.207 L 829.456,650.317 L 843.267,657.353 L 858.006,662.143 L 873.314,664.567 L 1485.7,664.567 L 1493.2,666.059 L 1499.56,670.309 L 1503.82,676.67 L 1505.31,684.173 L 1503.82,691.676 L 1500.86,696.611 L 1497.5,700.705 L 1490.6,711.023 L 1486.93,717.899 L 1483.27,726.732 L 1528.29,726.732 L 1530.79,722.991 L 1539.53,714.259 L 1549.79,707.399 L 1561.2,702.673 L 1573.31,700.264 L 1579.49,700.264 L 1579.49,699.961 L 1752.72,699.961 L 1753.02,700.263 L 1755.79,700.263 L 1761.47,702.615 L 1765.81,706.96 L 1768.16,712.636 L 1768.16,715.406 L 1768.46,715.709 L 1768.46,726.732 L 1808.23,726.732 L 1808,708.326 L 1805.2,697.359 L 1800.97,687.731 L 1794.18,678.671 L 1786.59,671.397 L 1776.85,665.621 L 1767.05,661.808 L 1758.05,660.513 L 1750.84,657.968 L 1745.14,652.856 L 1741.84,645.955 L 1741.43,638.316 L 1743.98,631.102 L 1746.9,626.94 L 1755.62,609.818 L 1761.56,591.541 L 1764.57,572.561 L 1764.57,553.343 L 1761.56,534.364 L 1755.62,516.088 L 1747.86,500.853 L 1745.78,493.491 L 1746.68,485.894 L 1750.42,479.219 L 1756.43,474.483 L 1768.36,468.238 L 1778.68,461.345 L 1787.69,453.946 L 1796.47,445.172 L 1803.86,436.158 L 1810.76,425.841 L 1816.26,415.556 L 1821,404.092 L 1824.39,392.932 L 1826.81,380.762 L 1827.95,369.157 L 1827.95,356.749 L 1826.81,345.143 L 1824.39,332.973 L 1821,321.813 L 1816.26,310.35 L 1809.57,298.294 L 1806.65,291.226 L 1806.65,283.576 L 1809.57,276.509 L 1814.98,271.099 L 1822.05,268.172 L 1825.88,267.795 L 2035.59,267.795 L 2043.09,269.288 L 2049.45,273.538 L 2053.7,279.899 L 2055.19,287.402 L 2053.7,294.905 L 2049.45,301.265 L 2046.8,303.914 L 2036.96,317.455 L 2029.37,332.369 L 2024.19,348.288 L 2021.57,364.819 L 2021.57,381.559 L 2024.19,398.09 L 2029.37,414.009 L 2036.96,428.923 L 2046.8,442.464 L 2058.64,454.3 L 2072.18,464.138 L 2087.09,471.737 L 2103.01,476.909 L 2119.54,479.528 L 2136.28,479.528 L 2152.81,476.909 L 2168.73,471.737 L 2183.65,464.138 L 2197.19,454.3 L 2209.02,442.464 L 2218.86,428.923 L 2226.46,414.009 L 2231.63,398.09 L 2234.25,381.558 L 2234.25,364.819 L 2231.63,348.288 L 2226.46,332.369 L 2218.86,317.455 L 2209.02,303.914 L 2206.38,301.265 L 2202.13,294.905 L 2200.63,287.402 L 2202.13,279.899 L 2206.38,273.538 L 2212.74,269.288 L 2220.24,267.795 L 2464.72,267.795 L 2472.22,269.288 L 2478.59,273.538 L 2482.84,279.899 L 2484.33,287.402 L 2482.84,294.905 L 2478.59,301.265 L 2475.94,303.914 L 2466.1,317.455 L 2458.5,332.369 L 2453.33,348.288 L 2450.71,364.819 L 2450.71,381.559 L 2453.33,398.09 L 2458.5,414.009 L 2466.1,428.923 L 2475.94,442.464 L 2487.77,454.3 L 2501.31,464.138 L 2516.23,471.737 L 2532.15,476.909 L 2548.68,479.527 L 2565.42,479.528 L 2581.95,476.909 L 2597.87,471.737 L 2612.78,464.138 L 2626.32,454.3 L 2638.16,442.464 L 2648,428.923 L 2655.6,414.009 L 2660.77,398.09 L 2663.39,381.558 L 2663.39,364.819 L 2660.77,348.288 L 2655.6,332.369 L 2648,317.455 L 2638.16,303.914 L 2635.51,301.265 L 2631.26,294.905 L 2629.77,287.402 L 2631.26,279.899 L 2635.51,273.538 L 2641.87,269.288 L 2649.37,267.795 L 2859.59,267.795 L 2867.09,269.288 L 2873.45,273.538 L 2877.7,279.899 L 2879.2,287.402 L 2877.7,294.905 L 2869.91,308.227 L 2862.55,326.514 L 2858.22,345.743 L 2857.4,357.327 L 2857.4,368.579 L 2858.22,380.162 L 2862.55,399.392 L 2869.91,417.678 L 2880.11,434.547 L 2893.39,450.164 L 2893.22,450.308 L 2896.66,455.45 L 2898.15,462.953 L 2896.66,470.456 L 2893.22,475.597 L 2893.39,475.742 L 2880.11,491.358 L 2869.91,508.227 L 2862.55,526.513 L 2858.22,545.743 L 2857.4,557.327 L 2857.4,568.579 L 2858.22,580.162 L 2862.55,599.392 L 2869.91,617.678 L 2880.11,634.547 L 2893.39,650.164 L 2896.77,655.562 L 2898.26,663.065 L 2896.77,670.568 L 2892.52,676.928 L 2887.93,681.837 L 2882.16,691.572 L 2878.34,701.373 L 2876.73,712.576 L 2876.73,726.732 L 2916.5,726.732 L 2916.5,715.709 L 2916.8,715.406 L 2916.8,712.636 L 2919.15,706.96 L 2923.49,702.615 L 2929.17,700.263 L 2931.94,700.263 L 2932.24,699.961 L 3105.47,699.961 L 3105.47,700.264 L 3111.65,700.264 L 3123.76,702.673 L 3135.17,707.399 L 3145.43,714.259 L 3154.17,722.991 L 3161.03,733.259 L 3165.17,743.268 L 3206.33,743.268 L 3205.04,736.821 L 3202.78,729.363 L 3198.03,717.898 L 3195.68,713.494 L 3193.46,706.174 L 3194.21,698.561 L 3197.81,691.814 L 3203.73,686.961 L 3211.05,684.74 L 3212.97,684.646 L 3349.84,684.646 L 3365.14,682.221 L 3379.88,677.432 L 3393.69,670.396 L 3406.23,661.286 L 3472.7,594.815 L 3481.81,582.276 L 3488.85,568.467 L 3493.64,553.726 L 3496.06,538.419 L 3496.06,240.243 L 3493.64,224.935 L 3488.85,210.195 L 3481.81,196.385 L 3472.7,183.847 L 3452.25,163.391 L 3448,157.031 L 3446.5,149.528 L 3448,142.025 L 3452.25,135.664 L 3458.61,131.414 L 3466.11,129.921 L 3520.92,129.921 L 3528.42,131.414 L 3532.25,133.532 L 3545.43,143.027 L 3565.13,160.784 L 3581.34,178.917 L 3590.7,191.893 L 3593.82,198.876 L 3594.31,203.255 L 3592.41,2433.46 L 3595.1,2443.52 L 3600.27,2452.48 L 3607.6,2459.82 L 3616.59,2465.02 L 3626.64,2467.72 L 5961.59,2467.72 L 5965.96,2468.21 L 5969.1,2469.21 L 5972.94,2471.34 L 5985,2479.89 L 6004.81,2497.45 L 6022.54,2517.11 L 6031.74,2529.88 L 6034.86,2536.86 L 6035.35,2541.22 L 6035.35,4308.94 L 6034.86,4313.3 L 6033.86,4316.44 L 6031.74,4320.29 L 6023.86,4331.38M 1066.93,3109.44 L 1066.93,3087.33 L 1064.45,3065.35 L 1059.53,3043.79 L 1052.23,3022.92 L 1042.63,3003 L 1030.87,2984.27 L 1017.08,2966.98 L 1001.44,2951.35 L 984.153,2937.56 L 965.429,2925.79 L 945.504,2916.2 L 924.631,2908.89 L 903.072,2903.97 L 881.097,2901.5 L 858.981,2901.5 L 837.007,2903.97 L 815.447,2908.89 L 794.575,2916.2 L 774.649,2925.79 L 755.925,2937.56 L 738.635,2951.35 L 722.999,2966.98 L 709.211,2984.27 L 697.445,3003 L 687.85,3022.92 L 680.546,3043.79 L 675.626,3065.35 L 673.15,3087.33 L 673.15,3109.44 L 675.626,3131.42 L 680.546,3152.98 L 687.85,3173.85 L 697.446,3193.78 L 709.211,3212.5 L 722.999,3229.79 L 738.636,3245.43 L 755.925,3259.21 L 774.65,3270.98 L 794.574,3280.57 L 815.447,3287.88 L 837.007,3292.8 L 858.982,3295.28 L 881.096,3295.28 L 903.072,3292.8 L 924.631,3287.88 L 945.505,3280.57 L 965.429,3270.98 L 984.153,3259.21 L 1001.44,3245.43 L 1017.08,3229.79 L 1030.87,3212.5 L 1042.63,3193.78 L 1052.23,3173.85 L 1059.53,3152.98 L 1064.45,3131.42 L 1066.93,3109.44M 729.509,2205.34 L 700.61,2234.24 L 702.836,2238.09 L 707.159,2251.4 L 708.622,2265.31 L 707.159,2279.23 L 702.836,2292.54 L 700.61,2296.39 L 729.509,2325.29 L 732.608,2321.03 L 740.204,2306.12 L 745.375,2290.21 L 747.992,2273.68 L 747.992,2256.95 L 745.375,2240.42 L 740.204,2224.51 L 732.608,2209.6 L 729.509,2205.34M 562.629,3700.96 L 569.159,3705.7 L 585.725,3714.14 L 603.406,3719.89 L 621.768,3722.8 L 640.358,3722.8 L 658.72,3719.89 L 676.401,3714.14 L 692.967,3705.7 L 699.496,3700.96 L 671.002,3672.46 L 655.395,3679.57 L 639.294,3682.99 L 622.832,3682.99 L 606.731,3679.57 L 591.124,3672.46 L 562.629,3700.96M 534.791,3536.25 L 530.046,3542.78 L 521.606,3559.35 L 515.861,3577.03 L 512.953,3595.39 L 512.953,3613.98 L 515.861,3632.34 L 521.606,3650.02 L 530.046,3666.59 L 534.79,3673.12 L 563.547,3644.36 L 559.13,3636.71 L 554.043,3621.06 L 552.323,3604.69 L 554.043,3588.31 L 559.13,3572.66 L 563.547,3565.01 L 534.791,3536.25M 699.496,3508.41 L 692.967,3503.67 L 676.401,3495.23 L 658.72,3489.48 L 640.359,3486.57 L 621.768,3486.57 L 603.406,3489.48 L 585.725,3495.23 L 569.16,3503.67 L 562.629,3508.41 L 591.124,3536.91 L 606.731,3529.8 L 622.832,3526.38 L 639.294,3526.38 L 655.395,3529.8 L 671.002,3536.91 L 699.496,3508.41M 1211.31,3508.41 L 1204.78,3503.67 L 1188.21,3495.23 L 1170.53,3489.48 L 1152.17,3486.57 L 1133.58,3486.57 L 1115.22,3489.48 L 1097.54,3495.23 L 1080.97,3503.67 L 1074.44,3508.41 L 1102.94,3536.91 L 1118.54,3529.8 L 1134.64,3526.38 L 1151.1,3526.38 L 1167.21,3529.8 L 1182.81,3536.91 L 1211.31,3508.41M 316.102,2586.57 L 261.155,2586.57 L 256.467,2587.08 L 245.859,2591.04 L 236.796,2597.82 L 230.011,2606.88 L 226.055,2617.49 L 225.551,2622.18 L 225.551,2677.13 L 264.921,2677.13 L 264.921,2625.94 L 316.102,2625.94 L 316.102,2586.57M 267.677,1322.8 L 216.667,1322.8 L 211.979,1323.3 L 201.371,1327.26 L 192.308,1334.04 L 185.523,1343.1 L 181.567,1353.71 L 181.063,1358.4 L 181.063,1409.41 L 220.433,1409.41 L 220.433,1362.17 L 267.677,1362.17 L 267.677,1322.8M 393.661,1409.41 L 393.661,1358.4 L 393.157,1353.71 L 389.201,1343.1 L 382.416,1334.04 L 373.353,1327.26 L 362.746,1323.3 L 358.058,1322.8 L 307.047,1322.8 L 307.047,1362.17 L 354.291,1362.17 L 354.291,1409.41 L 393.661,1409.41M 5907.87,2793.69 L 5907.87,2771.58 L 5905.4,2749.61 L 5900.48,2728.05 L 5893.17,2707.17 L 5883.58,2687.25 L 5871.81,2668.52 L 5858.02,2651.23 L 5842.39,2635.6 L 5825.1,2621.81 L 5806.37,2610.04 L 5786.45,2600.45 L 5765.58,2593.14 L 5744.02,2588.22 L 5722.04,2585.75 L 5699.93,2585.75 L 5677.95,2588.22 L 5656.39,2593.14 L 5635.52,2600.45 L 5615.59,2610.04 L 5596.87,2621.81 L 5579.58,2635.6 L 5563.94,2651.23 L 5550.16,2668.52 L 5538.39,2687.25 L 5528.79,2707.17 L 5521.49,2728.05 L 5516.57,2749.61 L 5514.09,2771.58 L 5514.09,2793.7 L 5516.57,2815.67 L 5521.49,2837.23 L 5528.79,2858.1 L 5538.39,2878.03 L 5550.16,2896.75 L 5563.94,2914.04 L 5579.58,2929.68 L 5594.2,2941.34 L 5596.87,2943.47 L 5615.59,2955.23 L 5635.52,2964.83 L 5656.39,2972.13 L 5677.95,2977.05 L 5699.93,2979.53 L 5722.04,2979.53 L 5744.02,2977.05 L 5765.58,2972.13 L 5786.45,2964.83 L 5806.37,2955.23 L 5825.1,2943.47 L 5842.39,2929.68 L 5858.02,2914.04 L 5871.81,2896.75 L 5883.58,2878.03 L 5893.17,2858.1 L 5900.48,2837.23 L 5905.4,2815.67 L 5907.87,2793.69M 2244.09,619.056 L 2244.09,604.486 L 2241.82,590.097 L 2237.31,576.241 L 2230.7,563.26 L 2222.14,551.473 L 2211.83,541.172 L 2200.05,532.608 L 2187.06,525.993 L 2173.21,521.492 L 2158.82,519.213 L 2144.25,519.213 L 2129.86,521.492 L 2116.01,525.994 L 2103.02,532.608 L 2091.24,541.171 L 2080.94,551.474 L 2072.37,563.26 L 2065.76,576.242 L 2061.26,590.098 L 2058.98,604.486 L 2058.98,619.057 L 2061.26,633.445 L 2065.76,647.301 L 2072.37,660.283 L 2080.94,672.07 L 2091.24,682.372 L 2103.02,690.935 L 2116.01,697.55 L 2129.86,702.052 L 2144.25,704.331 L 2158.82,704.331 L 2173.21,702.052 L 2187.07,697.55 L 2200.05,690.935 L 2211.83,682.372 L 2222.14,672.07 L 2230.7,660.283 L 2237.31,647.302 L 2241.82,633.446 L 2244.09,619.056M 2625.98,619.056 L 2625.98,604.486 L 2623.71,590.097 L 2619.2,576.241 L 2612.59,563.26 L 2604.03,551.473 L 2593.72,541.172 L 2581.94,532.608 L 2568.95,525.993 L 2555.1,521.492 L 2540.71,519.213 L 2526.14,519.213 L 2511.75,521.492 L 2497.89,525.994 L 2484.91,532.608 L 2473.13,541.171 L 2462.82,551.474 L 2454.26,563.26 L 2447.65,576.242 L 2443.15,590.098 L 2440.87,604.486 L 2440.87,619.057 L 2443.15,633.445 L 2447.65,647.301 L 2454.26,660.283 L 2462.83,672.07 L 2473.13,682.372 L 2484.91,690.935 L 2497.89,697.55 L 2511.75,702.052 L 2526.14,704.331 L 2540.71,704.331 L 2555.1,702.052 L 2568.96,697.55 L 2581.94,690.935 L 2593.72,682.372 L 2604.03,672.07 L 2612.59,660.283 L 2619.2,647.302 L 2623.71,633.446 L 2625.98,619.056M 1054.16,1644.47 L 1058.42,1647.57 L 1073.33,1655.16 L 1089.24,1660.34 L 1105.77,1662.95 L 1122.5,1662.95 L 1139.03,1660.34 L 1154.94,1655.16 L 1169.85,1647.57 L 1174.11,1644.47 L 1145.29,1615.65 L 1134.82,1620.31 L 1121.13,1623.22 L 1107.14,1623.22 L 1093.45,1620.31 L 1082.98,1615.65 L 1054.16,1644.47M 1026.24,1496.78 L 1023.22,1500.94 L 1015.62,1515.85 L 1010.45,1531.76 L 1007.83,1548.29 L 1007.83,1565.02 L 1010.45,1581.55 L 1015.62,1597.46 L 1023.22,1612.37 L 1026.32,1616.63 L 1055.22,1587.73 L 1052.99,1583.88 L 1048.67,1570.57 L 1047.2,1556.65 L 1048.67,1542.74 L 1052.99,1529.43 L 1055.22,1525.58 L 1026.24,1496.78M 681.063,2332.52 L 681.063,2364.29 L 682.498,2363.83 L 697.406,2356.23 L 701.671,2353.13 L 681.063,2332.52M 698.579,3644.36 L 727.335,3673.12 L 732.08,3666.59 L 740.52,3650.02 L 742.459,3644.06 L 698.756,3644.06 L 698.579,3644.36M 698.579,3565.01 L 698.756,3565.31 L 742.459,3565.31 L 740.52,3559.35 L 732.08,3542.78 L 727.335,3536.25 L 698.579,3565.01M 1031.48,3644.06 L 1033.42,3650.02 L 1041.86,3666.59 L 1046.6,3673.12 L 1075.36,3644.36 L 1075.18,3644.06 L 1031.48,3644.06M 1031.48,3565.31 L 1075.18,3565.31 L 1075.36,3565.01 L 1046.6,3536.25 L 1041.86,3542.78 L 1033.42,3559.35 L 1031.48,3565.31M 1074.44,3700.96 L 1080.97,3705.7 L 1097.54,3714.14 L 1115.22,3719.89 L 1133.58,3722.8 L 1152.17,3722.8 L 1170.53,3719.89 L 1188.21,3714.14 L 1194.33,3711.03 L 1163.63,3680.33 L 1151.1,3682.99 L 1134.64,3682.99 L 1118.54,3679.57 L 1102.94,3672.46 L 1074.44,3700.96M 1239.15,3536.25 L 1210.39,3565.01 L 1214.81,3572.66 L 1219.89,3588.31 L 1221.61,3604.69 L 1219.89,3621.06 L 1218.87,3624.21 L 1249.75,3655.09 L 1252.33,3650.02 L 1258.08,3632.34 L 1260.98,3613.98 L 1260.98,3595.39 L 1258.08,3577.03 L 1252.33,3559.35 L 1243.89,3542.78 L 1239.15,3536.25M 574.484,2304.68 L 542.715,2304.68 L 543.182,2306.12 L 550.777,2321.03 L 553.876,2325.29 L 574.484,2304.68M 602.323,2364.29 L 602.323,2332.52 L 581.715,2353.13 L 585.98,2356.23 L 600.888,2363.83 L 602.323,2364.29M 309.043,3471.99 L 326.799,3474.8 L 344.776,3474.8 L 362.532,3471.99 L 379.63,3466.44 L 395.648,3458.27 L 410.192,3447.71 L 422.904,3435 L 433.471,3420.45 L 441.632,3404.43 L 447.188,3387.34 L 450,3369.58 L 450,3351.6 L 447.188,3333.85 L 441.632,3316.75 L 436.389,3306.46 L 434.312,3299.09 L 434.252,3297.56 L 434.252,2988.76 L 435.744,2981.26 L 437.996,2977.23 L 446.94,2964.93 L 456.227,2946.7 L 462.548,2927.24 L 465.748,2907.04 L 465.748,2886.58 L 462.548,2866.38 L 456.227,2846.92 L 446.94,2828.7 L 437.321,2815.46 L 434.118,2808.51 L 433.818,2800.87 L 436.466,2793.69 L 441.563,2786.74 L 445.52,2776.13 L 446.024,2771.44 L 446.024,2736.18 L 406.654,2736.18 L 406.654,2767.68 L 264.921,2767.68 L 264.921,2716.5 L 225.551,2716.5 L 225.551,2771.44 L 226.055,2776.13 L 230.012,2786.74 L 234.087,2792.18 L 237.389,2799.08 L 237.799,2806.72 L 235.254,2813.94 L 224.635,2828.7 L 215.348,2846.92 L 209.027,2866.38 L 205.827,2886.58 L 205.827,2907.04 L 209.027,2927.24 L 215.348,2946.7 L 224.635,2964.93 L 233.578,2977.23 L 236.781,2984.18 L 237.323,2988.76 L 237.323,3297.56 L 235.83,3305.06 L 229.942,3316.75 L 224.387,3333.85 L 221.575,3351.6 L 221.575,3369.58 L 224.387,3387.34 L 229.942,3404.43 L 238.104,3420.45 L 248.671,3435 L 261.383,3447.71 L 275.927,3458.27 L 291.945,3466.44 L 309.043,3471.99M 355.472,2586.57 L 355.472,2625.94 L 406.654,2625.94 L 406.654,2657.44 L 446.024,2657.44 L 446.024,2622.18 L 445.52,2617.49 L 441.563,2606.88 L 434.779,2597.82 L 425.716,2591.04 L 415.108,2587.08 L 410.42,2586.57 L 355.472,2586.57M 544.776,2221.38 L 549.339,2225.94 L 574.484,2225.94 L 553.801,2205.44 L 550.777,2209.6 L 544.776,2221.38M 181.063,1448.78 L 181.063,1499.79 L 181.567,1504.48 L 185.523,1515.09 L 192.308,1524.15 L 201.371,1530.93 L 211.979,1534.89 L 216.667,1535.39 L 247.992,1535.39 L 247.992,1496.02 L 220.433,1496.02 L 220.433,1448.78 L 181.063,1448.78M 393.661,1448.78 L 354.291,1448.78 L 354.291,1496.02 L 326.732,1496.02 L 326.732,1535.39 L 358.057,1535.39 L 362.746,1534.89 L 373.353,1530.93 L 382.416,1524.15 L 389.201,1515.09 L 393.157,1504.48 L 393.661,1499.79 L 393.661,1448.78M 1201.95,1496.68 L 1174.97,1523.66 L 1181.34,1528.81 L 1220.04,1567.51 L 1220.43,1565.02 L 1220.43,1548.29 L 1217.82,1531.76 L 1212.64,1515.85 L 1205.05,1500.94 L 1201.95,1496.68M 740.67,887.362 L 708.902,887.362 L 729.509,907.97 L 732.608,903.705 L 740.204,888.797 L 740.67,887.362M 708.902,808.622 L 740.67,808.622 L 740.204,807.187 L 732.608,792.279 L 729.509,788.014 L 708.902,808.622 z " style="fill-opacity:1.000000;fill:rgb(251,50,175);stroke:rgb(0,0,0);stroke-width:2"/></g>
<g fill-rule="evenodd"><path d="M 5425.27,3802.06 L 5420.95,3815.37 L 5413.95,3827.49 L 5404.59,3837.89 L 5393.27,3846.11 L 5380.49,3851.8 L 5366.8,3854.71 L 5352.81,3854.71 L 5339.12,3851.8 L 5326.34,3846.11 L 5315.02,3837.89 L 5305.66,3827.49 L 5298.66,3815.37 L 5294.34,3802.06 L 5292.87,3788.15 L 5294.34,3774.23 L 5298.66,3760.93 L 5305.66,3748.81 L 5315.02,3738.41 L 5320.43,3734.48 L 5320.43,3626.5 L 5170.27,3476.34 L 4309.97,3476.34 L 4195.52,3590.79 L 4189.55,3595.69 L 4182.74,3599.33 L 4175.36,3601.57 L 4167.68,3602.32 L 3154.32,3602.32 L 3147.62,3609.77 L 3136.97,3617.51 L 3124.94,3622.86 L 3112.06,3625.6 L 3105.47,3625.6 L 3105.47,3625.95 L 2979.49,3625.95 L 2979.49,3625.6 L 2972.9,3625.6 L 2960.02,3622.86 L 2947.99,3617.51 L 2937.34,3609.77 L 2928.53,3599.98 L 2921.94,3588.57 L 2917.87,3576.05 L 2916.5,3562.95 L 2917.87,3549.86 L 2921.94,3537.33 L 2928.53,3525.93 L 2937.34,3516.14 L 2947.99,3508.4 L 2960.02,3503.04 L 2972.9,3500.3 L 2979.49,3500.3 L 2979.49,3499.96 L 3105.47,3499.96 L 3105.47,3500.3 L 3112.06,3500.3 L 3124.94,3503.04 L 3136.97,3508.4 L 3147.62,3516.14 L 3154.32,3523.58 L 4151.37,3523.58 L 4265.82,3409.13 L 4271.79,3404.23 L 4278.6,3400.6 L 4285.98,3398.35 L 4293.66,3397.6 L 5186.57,3397.6 L 5194.26,3398.35 L 5201.64,3400.6 L 5208.45,3404.23 L 5214.41,3409.13 L 5387.64,3582.36 L 5392.54,3588.32 L 5396.18,3595.13 L 5398.42,3602.52 L 5399.17,3610.2 L 5399.17,3734.48 L 5404.59,3738.41 L 5413.95,3748.81 L 5420.95,3760.93 L 5425.27,3774.23 L 5426.73,3788.15 L 5425.27,3802.06 z " style="fill-opacity:1.000000;fill:rgb(60,84,236);stroke:rgb(0,0,0);stroke-width:2"/></g>
<g fill-rule="evenodd"><path d="M 5820.95,3815.37 L 5813.95,3827.49 L 5804.59,3837.89 L 5793.27,3846.11 L 5780.49,3851.8 L 5766.8,3854.71 L 5752.81,3854.71 L 5739.12,3851.8 L 5726.34,3846.11 L 5715.02,3837.89 L 5705.66,3827.49 L 5698.66,3815.37 L 5694.34,3802.06 L 5692.87,3788.15 L 5694.34,3774.23 L 5698.66,3760.93 L 5705.66,3748.81 L 5715.02,3738.41 L 5720.43,3734.48 L 5720.43,3453.28 L 5138.69,2871.54 L 3567.82,2871.54 L 3445.41,2993.94 L 3439.45,2998.84 L 3432.64,3002.48 L 3425.26,3004.72 L 3417.58,3005.47 L 3151.49,3005.47 L 3147.62,3009.77 L 3136.97,3017.51 L 3124.94,3022.86 L 3112.06,3025.6 L 3105.47,3025.6 L 3105.47,3025.95 L 2979.49,3025.95 L 2979.49,3025.6 L 2972.9,3025.6 L 2960.02,3022.86 L 2947.99,3017.51 L 2937.34,3009.77 L 2928.53,2999.98 L 2921.94,2988.57 L 2917.87,2976.05 L 2916.5,2962.95 L 2917.87,2949.86 L 2921.94,2937.33 L 2928.53,2925.93 L 2937.34,2916.14 L 2947.99,2908.4 L 2960.02,2903.04 L 2972.9,2900.3 L 2979.49,2900.3 L 2979.49,2899.96 L 3105.47,2899.96 L 3105.47,2900.3 L 3112.06,2900.3 L 3124.94,2903.04 L 3136.97,2908.4 L 3147.62,2916.14 L 3156.9,2926.73 L 3401.27,2926.73 L 3523.67,2804.33 L 3529.64,2799.43 L 3536.45,2795.79 L 3543.83,2793.55 L 3551.51,2792.8 L 5155,2792.8 L 5162.68,2793.55 L 5170.07,2795.79 L 5176.87,2799.43 L 5182.84,2804.33 L 5787.64,3409.13 L 5792.54,3415.1 L 5796.18,3421.9 L 5798.42,3429.29 L 5799.17,3436.97 L 5799.17,3734.48 L 5804.59,3738.41 L 5813.95,3748.81 L 5820.95,3760.93 L 5825.27,3774.23 L 5826.73,3788.15 L 5825.27,3802.06 L 5820.95,3815.37 z " style="fill-opacity:1.000000;fill:rgb(24,219,92);stroke:rgb(0,0,0);stroke-width:2"/></g>
<g fill-rule="evenodd"><path d="M 343.195,2826.33 L 357.686,2829.41 L 371.22,2835.44 L 383.206,2844.15 L 393.119,2855.16 L 400.527,2867.99 L 405.105,2882.08 L 406.654,2896.81 L 405.105,2911.54 L 400.527,2925.63 L 393.119,2938.47 L 383.206,2949.47 L 375.158,2955.32 L 375.157,3322.39 L 380.379,3328.19 L 386.14,3338.17 L 389.701,3349.13 L 390.906,3360.59 L 389.701,3372.05 L 386.14,3383.01 L 380.379,3392.99 L 372.669,3401.55 L 363.346,3408.32 L 352.82,3413.01 L 341.549,3415.41 L 330.026,3415.41 L 318.755,3413.01 L 308.228,3408.32 L 298.906,3401.55 L 291.196,3392.99 L 285.435,3383.01 L 281.874,3372.05 L 280.669,3360.59 L 281.874,3349.13 L 285.435,3338.17 L 291.196,3328.19 L 296.417,3322.39 L 296.417,2955.32 L 288.369,2949.47 L 278.455,2938.47 L 271.048,2925.63 L 266.47,2911.54 L 264.921,2896.81 L 266.47,2882.08 L 271.048,2867.99 L 278.455,2855.16 L 288.369,2844.15 L 300.354,2835.44 L 313.889,2829.41 L 328.38,2826.33 L 343.195,2826.33 z " style="fill-opacity:1.000000;fill:rgb(2,26,254);stroke:rgb(0,0,0);stroke-width:2"/></g>
<g fill-rule="evenodd"><path d="M 1768.46,3962.95 L 1767.09,3976.05 L 1763.02,3988.57 L 1756.43,3999.98 L 1747.62,4009.77 L 1736.97,4017.51 L 1724.94,4022.86 L 1712.06,4025.6 L 1705.47,4025.6 L 1705.47,4025.95 L 1579.49,4025.95 L 1579.49,4025.6 L 1572.9,4025.6 L 1560.02,4022.86 L 1547.99,4017.51 L 1537.34,4009.77 L 1533.47,4005.47 L 1206.42,4005.47 L 1195.56,4017.53 L 1182.24,4027.21 L 1167.21,4033.9 L 1151.1,4037.32 L 1134.64,4037.32 L 1118.54,4033.9 L 1103.5,4027.21 L 1090.19,4017.53 L 1079.33,4005.47 L 694.608,4005.47 L 683.75,4017.53 L 670.433,4027.21 L 655.395,4033.9 L 639.294,4037.32 L 622.832,4037.32 L 606.731,4033.9 L 591.693,4027.21 L 578.376,4017.53 L 567.361,4005.3 L 559.13,3991.04 L 554.043,3975.39 L 552.323,3959.02 L 554.043,3942.64 L 559.13,3926.99 L 567.361,3912.73 L 578.376,3900.5 L 591.693,3890.82 L 606.731,3884.13 L 622.832,3880.71 L 639.294,3880.71 L 655.395,3884.13 L 670.433,3890.82 L 683.75,3900.5 L 694.765,3912.73 L 702.847,3926.73 L 1071.09,3926.73 L 1079.17,3912.73 L 1090.19,3900.5 L 1103.5,3890.82 L 1118.54,3884.13 L 1134.64,3880.71 L 1151.1,3880.71 L 1167.21,3884.13 L 1182.24,3890.82 L 1195.56,3900.5 L 1206.58,3912.73 L 1214.66,3926.73 L 1528.06,3926.73 L 1537.34,3916.14 L 1547.99,3908.4 L 1560.02,3903.04 L 1572.9,3900.3 L 1579.49,3900.3 L 1579.49,3899.96 L 1705.47,3899.96 L 1705.47,3900.3 L 1712.06,3900.3 L 1724.94,3903.04 L 1736.97,3908.4 L 1747.62,3916.14 L 1756.43,3925.93 L 1763.02,3937.33 L 1767.09,3949.86 L 1768.46,3962.95 z " style="fill-opacity:1.000000;fill:rgb(67,251,250);stroke:rgb(0,0,0);stroke-width:2"/></g>
<g fill-rule="evenodd"><path d="M 281.874,3749.13 L 285.435,3738.17 L 291.196,3728.19 L 298.906,3719.63 L 308.228,3712.86 L 318.755,3708.17 L 330.026,3705.77 L 341.549,3705.77 L 352.82,3708.17 L 363.346,3712.86 L 372.669,3719.63 L 380.379,3728.19 L 386.14,3738.17 L 389.701,3749.13 L 390.906,3760.59 L 389.701,3772.05 L 386.14,3783.01 L 380.379,3792.99 L 375.157,3798.79 L 375.157,3904.13 L 597.765,4126.73 L 1528.06,4126.73 L 1537.34,4116.14 L 1547.99,4108.4 L 1560.02,4103.04 L 1572.9,4100.3 L 1579.49,4100.3 L 1579.49,4099.96 L 1705.47,4099.96 L 1705.47,4100.3 L 1712.06,4100.3 L 1724.94,4103.04 L 1736.97,4108.4 L 1747.62,4116.14 L 1756.43,4125.93 L 1763.02,4137.33 L 1767.09,4149.86 L 1768.46,4162.95 L 1767.09,4176.05 L 1763.02,4188.57 L 1756.43,4199.98 L 1747.62,4209.77 L 1736.97,4217.51 L 1724.94,4222.86 L 1712.06,4225.6 L 1705.47,4225.6 L 1705.47,4225.95 L 1579.49,4225.95 L 1579.49,4225.6 L 1572.9,4225.6 L 1560.02,4222.86 L 1547.99,4217.51 L 1537.34,4209.77 L 1533.47,4205.47 L 581.457,4205.47 L 573.776,4204.72 L 566.39,4202.48 L 559.584,4198.84 L 553.618,4193.94 L 307.949,3948.27 L 303.052,3942.31 L 299.414,3935.5 L 297.174,3928.11 L 296.417,3920.43 L 296.417,3798.79 L 291.196,3792.99 L 285.435,3783.01 L 281.874,3772.05 L 280.669,3760.59 L 281.874,3749.13 z " style="fill-opacity:1.000000;fill:rgb(170,58,251);stroke:rgb(0,0,0);stroke-width:2"/></g>
<g fill-rule="evenodd"><path d="M 576.226,434.077 L 580.55,420.77 L 587.546,408.652 L 596.909,398.254 L 608.228,390.03 L 621.011,384.339 L 634.697,381.43 L 648.689,381.43 L 662.375,384.339 L 675.157,390.03 L 686.477,398.254 L 695.813,408.622 L 762.953,408.622 L 770.633,409.379 L 778.019,411.619 L 784.826,415.257 L 790.792,420.153 L 897.37,526.732 L 1580.28,526.732 L 1588.46,527.593 L 1590.23,528.166 L 1591.52,525.927 L 1600.33,516.14 L 1610.98,508.4 L 1623.01,503.044 L 1635.9,500.306 L 1649.06,500.306 L 1661.95,503.044 L 1673.98,508.4 L 1684.63,516.14 L 1693.44,525.927 L 1700.03,537.332 L 1704.1,549.856 L 1705.47,562.953 L 1704.1,576.05 L 1700.03,588.574 L 1693.44,599.979 L 1684.63,609.765 L 1673.98,617.506 L 1661.95,622.862 L 1649.06,625.6 L 1635.9,625.6 L 1623.01,622.862 L 1610.98,617.506 L 1600.33,609.765 L 1594.05,602.795 L 1588.46,604.612 L 1580.28,605.472 L 881.063,605.472 L 873.382,604.716 L 865.997,602.476 L 859.19,598.837 L 853.224,593.941 L 746.645,487.362 L 695.813,487.362 L 686.477,497.73 L 675.157,505.954 L 662.375,511.646 L 648.689,514.555 L 634.697,514.555 L 621.011,511.646 L 608.228,505.954 L 596.909,497.73 L 587.546,487.332 L 580.55,475.215 L 576.226,461.907 L 574.764,447.992 L 576.226,434.077 z " style="fill-opacity:1.000000;fill:rgb(41,209,230);stroke:rgb(0,0,0);stroke-width:2"/></g>
<g fill-rule="evenodd"><path d="M 1047.2,1156.65 L 1048.67,1142.74 L 1052.99,1129.43 L 1059.99,1117.31 L 1069.35,1106.92 L 1080.67,1098.69 L 1093.45,1093 L 1107.14,1090.09 L 1121.13,1090.09 L 1134.82,1093 L 1147.6,1098.69 L 1158.92,1106.92 L 1168.25,1117.28 L 1536.31,1117.28 L 1537.34,1116.14 L 1547.99,1108.4 L 1560.02,1103.04 L 1572.9,1100.3 L 1579.49,1100.3 L 1579.49,1099.96 L 1705.47,1099.96 L 1705.47,1100.3 L 1712.06,1100.3 L 1724.94,1103.04 L 1736.97,1108.4 L 1747.62,1116.14 L 1756.43,1125.93 L 1763.02,1137.33 L 1767.09,1149.86 L 1768.46,1162.95 L 1767.09,1176.05 L 1763.02,1188.57 L 1756.43,1199.98 L 1747.62,1209.77 L 1736.97,1217.51 L 1724.94,1222.86 L 1712.06,1225.6 L 1705.47,1225.6 L 1705.47,1225.95 L 1579.49,1225.95 L 1579.49,1225.6 L 1572.9,1225.6 L 1560.02,1222.86 L 1547.99,1217.51 L 1537.34,1209.77 L 1528.53,1199.98 L 1526.24,1196.02 L 1168.25,1196.02 L 1158.92,1206.39 L 1147.6,1214.62 L 1134.82,1220.31 L 1121.13,1223.22 L 1107.14,1223.22 L 1093.45,1220.31 L 1080.67,1214.62 L 1069.35,1206.39 L 1059.99,1195.99 L 1052.99,1183.88 L 1048.67,1170.57 L 1047.2,1156.65 z " style="fill-opacity:1.000000;fill:rgb(5,60,124);stroke:rgb(0,0,0);stroke-width:2"/></g>
<g fill-rule="evenodd"><path d="M 3433.97,232.926 L 3436.21,240.311 L 3436.97,247.992 L 3436.97,530.669 L 3436.21,538.35 L 3433.97,545.736 L 3430.33,552.542 L 3425.44,558.508 L 3369.93,614.02 L 3363.96,618.916 L 3357.15,622.554 L 3349.77,624.795 L 3342.09,625.551 L 3175.94,625.551 L 3167.76,624.691 L 3159.93,622.147 L 3152.8,618.032 L 3146.69,612.525 L 3145.7,611.164 L 3136.97,617.506 L 3124.94,622.863 L 3112.06,625.601 L 3105.47,625.601 L 3105.47,625.946 L 2979.49,625.946 L 2979.49,625.601 L 2972.9,625.601 L 2960.02,622.863 L 2947.99,617.506 L 2937.34,609.766 L 2928.53,599.979 L 2921.94,588.575 L 2917.87,576.05 L 2916.5,562.954 L 2917.87,549.855 L 2921.94,537.331 L 2928.53,525.926 L 2937.34,516.14 L 2947.99,508.399 L 2960.02,503.043 L 2972.9,500.305 L 2979.49,500.305 L 2979.49,499.96 L 3105.47,499.96 L 3105.47,500.305 L 3112.06,500.305 L 3124.94,503.043 L 3136.97,508.399 L 3147.62,516.14 L 3156.43,525.926 L 3163.02,537.331 L 3166.51,548.077 L 3167.76,547.671 L 3175.94,546.811 L 3325.78,546.811 L 3358.23,514.362 L 3358.23,264.299 L 3302.63,208.701 L 815.481,208.701 L 748.351,275.831 L 742.385,280.727 L 735.578,284.365 L 728.193,286.606 L 720.512,287.362 L 708.622,287.362 L 708.622,314.921 L 574.764,314.921 L 574.764,287.362 L 535.394,287.362 L 535.394,318.688 L 535.898,323.376 L 539.854,333.983 L 544.072,339.618 L 547.374,346.519 L 547.784,354.158 L 545.239,361.372 L 540.127,367.064 L 533.226,370.365 L 528.266,370.974 L 502.323,370.827 L 502.083,639.402 L 500.584,646.903 L 496.328,653.26 L 491.401,656.842 L 480.66,662.333 L 474.298,666.582 L 466.84,672.478 L 457.884,682.992 L 453.633,689.353 L 448.998,697.654 L 444.747,710.797 L 443.254,718.298 L 442.11,729.904 L 442.213,815.456 L 444.394,829.095 L 446.47,836.457 L 448.181,841.075 L 449.389,848.629 L 448.452,853.921 L 444.729,865.431 L 443.236,872.932 L 442.091,884.538 L 442.083,949.599 L 443.227,961.214 L 444.719,968.716 L 447.313,977.861 L 453.601,990.159 L 457.852,996.52 L 463.749,1003.98 L 474.265,1012.93 L 480.626,1017.18 L 494.829,1025.29 L 495.995,1026.37 L 497.287,1028.31 L 782.866,1028.31 L 882.358,928.815 L 888.324,923.919 L 895.131,920.28 L 902.516,918.04 L 910.197,917.283 L 1047.2,917.283 L 1047.2,889.724 L 1181.06,889.724 L 1181.06,1023.58 L 1047.2,1023.58 L 1047.2,996.024 L 926.505,996.023 L 827.012,1095.52 L 821.046,1100.41 L 814.24,1104.05 L 806.854,1106.29 L 799.173,1107.05 L 681.063,1107.05 L 681.063,1598.39 L 708.622,1598.39 L 708.622,1732.24 L 574.764,1732.24 L 574.764,1598.39 L 602.323,1598.39 L 602.323,1107.05 L 492.216,1107.05 L 489.799,1111.49 L 483.851,1116.3 L 476.609,1120.53 L 466.779,1128.32 L 459.697,1136.19 L 456.19,1140.87 L 451.651,1148.27 L 448.94,1153.5 L 445.324,1163.82 L 443.943,1169.34 L 442.851,1177.36 L 440.765,1183.61 L 435.911,1189.53 L 429.164,1193.13 L 423.664,1193.97 L 398.201,1194.22 L 390.684,1192.8 L 384.283,1188.61 L 379.972,1182.29 L 378.407,1174.8 L 379.828,1167.29 L 382.317,1162.86 L 389.201,1153.67 L 393.157,1143.06 L 393.661,1138.37 L 393.661,1107.05 L 354.291,1107.05 L 354.291,1134.61 L 220.433,1134.61 L 220.433,1087.36 L 181.063,1087.36 L 181.063,1138.37 L 181.567,1143.06 L 185.523,1153.67 L 192.308,1162.73 L 201.371,1169.52 L 212.855,1173.84 L 218.232,1177.4 L 219.1,1178.26 L 222.706,1183.6 L 223.179,1184.73 L 224.466,1191.05 L 224.471,1192.27 L 223.242,1198.6 L 222.779,1199.73 L 219.222,1205.11 L 218.361,1205.98 L 213.017,1209.58 L 211.889,1210.05 L 203.68,1212.83 L 194.468,1216.73 L 188.177,1218.02 L 186.927,1218.02 L 180.624,1216.8 L 175.419,1213.91 L 162.638,1203.97 L 145.061,1186.72 L 134.133,1173.1 L 130.658,1166.28 L 129.921,1160.96 L 129.921,207.257 L 131.414,199.754 L 133.538,195.91 L 143.921,181.493 L 160.149,163.346 L 181.593,144.205 L 196.668,133.528 L 203.654,130.409 L 208,129.921 L 524.7,129.921 L 532.203,131.414 L 538.564,135.664 L 542.814,142.025 L 544.306,149.528 L 542.814,157.031 L 539.854,162.001 L 535.898,172.609 L 535.394,177.297 L 535.394,208.622 L 574.764,208.622 L 574.764,181.063 L 708.622,181.063 L 708.622,204.205 L 771.334,141.492 L 777.3,136.596 L 784.107,132.957 L 791.493,130.717 L 799.173,129.961 L 3318.94,129.961 L 3326.62,130.717 L 3334,132.957 L 3340.81,136.596 L 3346.78,141.492 L 3425.44,220.153 L 3430.33,226.119 L 3433.97,232.926M 181.063,1047.99 L 220.433,1047.99 L 220.433,1000.75 L 247.992,1000.75 L 247.992,961.378 L 216.667,961.378 L 211.979,961.882 L 201.371,965.838 L 192.308,972.623 L 185.523,981.686 L 181.567,992.294 L 181.063,996.982 L 181.063,1047.99M 393.661,1028.31 L 393.661,996.982 L 393.157,992.294 L 389.201,981.686 L 382.416,972.623 L 373.353,965.838 L 362.746,961.882 L 358.058,961.378 L 326.732,961.378 L 326.732,1000.75 L 354.291,1000.75 L 354.291,1028.31 L 393.661,1028.31 z " style="fill-opacity:1.000000;fill:rgb(148,117,216);stroke:rgb(0,0,0);stroke-width:2"/></g>
<g fill-rule="evenodd"><path d="M 1767.09,2176.05 L 1763.02,2188.57 L 1756.43,2199.98 L 1747.62,2209.77 L 1736.97,2217.51 L 1724.94,2222.86 L 1712.06,2225.6 L 1705.47,2225.6 L 1705.47,2225.95 L 1579.49,2225.95 L 1579.49,2225.6 L 1572.9,2225.6 L 1560.02,2222.86 L 1547.99,2217.51 L 1537.34,2209.77 L 1533.47,2205.47 L 1221.22,2205.47 L 1213.54,2204.72 L 1206.15,2202.48 L 1199.35,2198.84 L 1193.38,2193.94 L 904.125,1904.69 L 695.813,1904.69 L 686.477,1915.05 L 675.157,1923.28 L 662.375,1928.97 L 648.689,1931.88 L 634.697,1931.88 L 621.011,1928.97 L 608.228,1923.28 L 596.909,1915.05 L 587.546,1904.65 L 580.55,1892.54 L 576.226,1879.23 L 574.764,1865.31 L 576.226,1851.4 L 580.55,1838.09 L 587.546,1825.98 L 596.909,1815.58 L 608.228,1807.35 L 621.011,1801.66 L 634.697,1798.75 L 648.689,1798.75 L 662.375,1801.66 L 675.157,1807.35 L 686.477,1815.58 L 695.813,1825.94 L 920.433,1825.94 L 928.114,1826.7 L 935.499,1828.94 L 942.306,1832.58 L 948.272,1837.48 L 1237.53,2126.73 L 1528.06,2126.73 L 1537.34,2116.14 L 1547.99,2108.4 L 1560.02,2103.04 L 1572.9,2100.3 L 1579.49,2100.3 L 1579.49,2099.96 L 1705.47,2099.96 L 1705.47,2100.3 L 1712.06,2100.3 L 1724.94,2103.04 L 1736.97,2108.4 L 1747.62,2116.14 L 1756.43,2125.93 L 1763.02,2137.33 L 1767.09,2149.86 L 1768.46,2162.95 L 1767.09,2176.05 z " style="fill-opacity:1.000000;fill:rgb(190,97,137);stroke:rgb(0,0,0);stroke-width:2"/></g>
<g fill-rule="evenodd"><path d="M 5026.73,3721.22 L 5026.73,3855.08 L 4892.87,3855.08 L 4892.87,3827.52 L 4853.5,3827.52 L 4853.5,3858.85 L 4854.14,3864.75 L 4853.82,3864.79 L 4854,3870.03 L 4851.33,3877.19 L 4846.11,3882.79 L 4839.15,3885.96 L 4831.5,3886.23 L 4749.44,3871.8 L 4736.03,3870 L 4717.43,3870 L 4699.07,3872.91 L 4681.38,3878.66 L 4664.81,3887.1 L 4649.76,3898.03 L 4636.61,3911.18 L 4625.68,3926.23 L 4617.78,3941.74 L 4613.04,3947.74 L 4606.37,3951.48 L 4598.77,3952.38 L 4591.41,3950.31 L 4586.44,3946.7 L 4530.74,3891 L 4518.2,3881.89 L 4504.39,3874.85 L 4489.65,3870.06 L 4474.35,3867.64 L 3193.44,3867.64 L 3185.94,3866.15 L 3179.58,3861.9 L 3175.33,3855.53 L 3173.83,3848.03 L 3175.33,3840.53 L 3179.58,3834.17 L 3182.52,3831.22 L 3185.56,3827.52 L 3175.74,3826.76 L 3168.36,3824.52 L 3161.55,3820.88 L 3155.59,3815.99 L 3148.34,3808.74 L 3145.43,3811.65 L 3135.17,3818.51 L 3123.76,3823.23 L 3111.65,3825.64 L 3105.47,3825.64 L 3105.47,3825.94 L 2932.24,3825.94 L 2931.94,3825.64 L 2929.17,3825.64 L 2923.49,3823.29 L 2919.15,3818.95 L 2916.8,3813.27 L 2916.8,3810.5 L 2916.5,3810.2 L 2916.5,3715.71 L 2916.8,3715.41 L 2916.8,3712.64 L 2919.15,3706.96 L 2923.49,3702.61 L 2929.17,3700.26 L 2931.94,3700.26 L 2932.24,3699.96 L 3105.47,3699.96 L 3105.47,3700.26 L 3111.65,3700.26 L 3123.76,3702.67 L 3135.17,3707.4 L 3145.43,3714.26 L 3154.17,3722.99 L 3156.67,3726.73 L 3161.38,3726.73 L 3169.06,3727.49 L 3176.44,3729.73 L 3183.25,3733.37 L 3189.22,3738.26 L 3194.22,3743.27 L 3206.33,3743.27 L 3205.04,3736.82 L 3202.78,3729.36 L 3198.03,3717.9 L 3194.36,3711.02 L 3187.46,3700.71 L 3182.2,3694.32 L 3178.48,3688.53 L 3176.98,3681.02 L 3178.48,3673.52 L 3182.73,3667.16 L 3189.09,3662.91 L 3196.59,3661.42 L 4175.43,3661.42 L 4190.73,3658.99 L 4205.47,3654.2 L 4219.28,3647.17 L 4231.82,3638.06 L 4262.65,3607.23 L 4266.27,3604.37 L 4269.01,3602.98 L 4273.45,3601.72 L 4276.52,3601.48 L 4281.09,3602.02 L 4284.02,3602.98 L 4288.04,3605.23 L 4290.38,3607.23 L 4293.23,3610.84 L 4294.63,3613.59 L 4295.88,3618.02 L 4296.53,3622.12 L 4302.28,3639.8 L 4310.72,3656.37 L 4321.65,3671.42 L 4334.8,3684.57 L 4349.85,3695.5 L 4366.42,3703.94 L 4384.1,3709.69 L 4402.47,3712.6 L 4421.07,3712.6 L 4430.26,3711.14 L 4434.49,3710.8 L 4534.49,3693.21 L 4537.89,3692.91 L 4834.32,3692.91 L 4841.82,3694.41 L 4848.18,3698.66 L 4852.43,3705.02 L 4853.92,3712.52 L 4853.5,3717.45 L 4853.5,3748.78 L 4892.87,3748.78 L 4892.87,3721.22 L 5026.73,3721.22 z " style="fill-opacity:1.000000;fill:rgb(249,92,187);stroke:rgb(0,0,0);stroke-width:2"/></g>
<g fill-rule="evenodd"><path d="M 5220.95,3815.37 L 5213.95,3827.49 L 5204.59,3837.89 L 5193.27,3846.11 L 5180.49,3851.8 L 5166.8,3854.71 L 5152.81,3854.71 L 5139.12,3851.8 L 5126.34,3846.11 L 5115.02,3837.89 L 5105.66,3827.49 L 5098.66,3815.37 L 5094.34,3802.06 L 5092.87,3788.15 L 5094.34,3774.23 L 5098.66,3760.93 L 5105.66,3748.81 L 5115.02,3738.41 L 5120.43,3734.48 L 5120.43,3689.5 L 5064.76,3633.82 L 4528.24,3633.82 L 4424.18,3652.21 L 4423.46,3652.01 L 4417.94,3653.18 L 4405.6,3653.18 L 4393.52,3650.61 L 4382.24,3645.59 L 4372.26,3638.34 L 4364,3629.16 L 4357.82,3618.47 L 4354.01,3606.73 L 4352.72,3594.45 L 4354.01,3582.17 L 4357.82,3570.43 L 4364,3559.74 L 4372.26,3550.56 L 4382.24,3543.31 L 4393.52,3538.28 L 4405.6,3535.72 L 4417.94,3535.72 L 4423.46,3536.89 L 4424.18,3536.68 L 4528.2,3555.08 L 5081.06,3555.08 L 5088.74,3555.84 L 5096.13,3558.08 L 5102.94,3561.71 L 5108.9,3566.61 L 5187.64,3645.35 L 5191.65,3650.05 L 5195.77,3657.18 L 5198.31,3665 L 5199.17,3673.19 L 5199.17,3734.48 L 5204.59,3738.41 L 5213.95,3748.81 L 5220.95,3760.93 L 5225.27,3774.23 L 5226.73,3788.15 L 5225.27,3802.06 L 5220.95,3815.37 z " style="fill-opacity:1.000000;fill:rgb(168,153,15);stroke:rgb(0,0,0);stroke-width:2"/></g>
<g fill-rule="evenodd"><path d="M 5620.95,3815.37 L 5613.95,3827.49 L 5604.59,3837.89 L 5593.27,3846.11 L 5580.49,3851.8 L 5566.8,3854.71 L 5552.81,3854.71 L 5539.12,3851.8 L 5526.34,3846.11 L 5515.02,3837.89 L 5505.66,3827.49 L 5498.66,3815.37 L 5494.34,3802.06 L 5492.87,3788.15 L 5494.34,3774.23 L 5498.66,3760.93 L 5505.66,3748.81 L 5515.02,3738.41 L 5520.43,3734.48 L 5520.43,3551.71 L 5156.87,3188.15 L 3897.14,3188.15 L 3793.08,3206.54 L 3792.35,3206.34 L 3786.84,3207.51 L 3774.5,3207.51 L 3762.42,3204.94 L 3751.14,3199.92 L 3741.15,3192.67 L 3732.89,3183.49 L 3726.72,3172.8 L 3722.9,3161.06 L 3721.61,3148.78 L 3722.9,3136.5 L 3726.72,3124.76 L 3732.89,3114.07 L 3741.15,3104.89 L 3751.14,3097.64 L 3762.42,3092.61 L 3774.5,3090.05 L 3786.84,3090.05 L 3792.36,3091.22 L 3793.08,3091.01 L 3897.09,3109.41 L 5173.18,3109.41 L 5180.86,3110.17 L 5188.24,3112.41 L 5195.05,3116.04 L 5201.02,3120.94 L 5587.64,3507.57 L 5592.54,3513.53 L 5596.18,3520.34 L 5598.42,3527.73 L 5599.17,3535.41 L 5599.17,3734.48 L 5604.59,3738.41 L 5613.95,3748.81 L 5620.95,3760.93 L 5625.27,3774.23 L 5626.73,3788.15 L 5625.27,3802.06 L 5620.95,3815.37 z " style="fill-opacity:1.000000;fill:rgb(149,177,235);stroke:rgb(0,0,0);stroke-width:2"/></g>
<g fill-rule="evenodd"><path d="M 2937.34,1116.14 L 2947.99,1108.4 L 2960.02,1103.04 L 2972.9,1100.3 L 2979.49,1100.3 L 2979.49,1099.96 L 3105.47,1099.96 L 3105.47,1100.3 L 3112.06,1100.3 L 3124.94,1103.04 L 3136.97,1108.4 L 3147.62,1116.14 L 3156.9,1126.73 L 3233.03,1126.73 L 3240.71,1127.49 L 3248.1,1129.73 L 3254.9,1133.37 L 3260.87,1138.26 L 3423.08,1300.47 L 3427.97,1306.43 L 3431.61,1313.24 L 3433.85,1320.63 L 3434.61,1328.31 L 3434.61,2489.17 L 3572.17,2626.73 L 4607.11,2626.73 L 4711.18,2608.34 L 4711.9,2608.54 L 4717.41,2607.37 L 4729.76,2607.37 L 4741.83,2609.94 L 4753.11,2614.96 L 4763.1,2622.22 L 4771.36,2631.39 L 4777.53,2642.08 L 4781.35,2653.82 L 4782.64,2666.1 L 4781.35,2678.38 L 4777.53,2690.12 L 4771.36,2700.81 L 4763.1,2709.99 L 4753.11,2717.25 L 4741.83,2722.27 L 4729.76,2724.83 L 4717.41,2724.83 L 4711.89,2723.66 L 4711.18,2723.87 L 4607.16,2705.47 L 3555.87,2705.47 L 3548.19,2704.72 L 3540.8,2702.48 L 3533.99,2698.84 L 3528.03,2693.94 L 3367.4,2533.31 L 3362.5,2527.35 L 3358.86,2520.54 L 3356.62,2513.15 L 3355.87,2505.47 L 3355.87,1344.61 L 3216.72,1205.47 L 3151.49,1205.47 L 3147.62,1209.77 L 3136.97,1217.51 L 3124.94,1222.86 L 3112.06,1225.6 L 3105.47,1225.6 L 3105.47,1225.95 L 2979.49,1225.95 L 2979.49,1225.6 L 2972.9,1225.6 L 2960.02,1222.86 L 2947.99,1217.51 L 2937.34,1209.77 L 2928.53,1199.98 L 2921.94,1188.57 L 2917.87,1176.05 L 2916.5,1162.95 L 2917.87,1149.86 L 2921.94,1137.33 L 2928.53,1125.93 L 2937.34,1116.14 z " style="fill-opacity:1.000000;fill:rgb(241,179,5);stroke:rgb(0,0,0);stroke-width:2"/></g>
<g fill-rule="evenodd"><path d="M 4151.93,3366.1 L 4150.64,3378.38 L 4146.82,3390.12 L 4140.65,3400.81 L 4132.39,3409.99 L 4122.4,3417.25 L 4111.12,3422.27 L 4099.05,3424.83 L 4086.7,3424.83 L 4081.18,3423.66 L 4080.47,3423.87 L 3976.45,3405.47 L 3151.49,3405.47 L 3147.62,3409.77 L 3136.97,3417.51 L 3124.94,3422.86 L 3112.06,3425.6 L 3105.47,3425.6 L 3105.47,3425.95 L 2979.49,3425.95 L 2979.49,3425.6 L 2972.9,3425.6 L 2960.02,3422.86 L 2947.99,3417.51 L 2937.34,3409.77 L 2928.53,3399.98 L 2921.94,3388.57 L 2917.87,3376.05 L 2916.5,3362.95 L 2917.87,3349.86 L 2921.94,3337.33 L 2928.53,3325.93 L 2937.34,3316.14 L 2947.99,3308.4 L 2960.02,3303.04 L 2972.9,3300.3 L 2979.49,3300.3 L 2979.49,3299.96 L 3105.47,3299.96 L 3105.47,3300.3 L 3112.06,3300.3 L 3124.94,3303.04 L 3136.97,3308.4 L 3147.62,3316.14 L 3156.9,3326.73 L 3976.4,3326.73 L 4080.47,3308.34 L 4081.19,3308.54 L 4086.7,3307.37 L 4099.05,3307.37 L 4111.12,3309.94 L 4122.4,3314.96 L 4132.39,3322.22 L 4140.65,3331.39 L 4146.82,3342.08 L 4150.64,3353.82 L 4151.93,3366.1 z " style="fill-opacity:1.000000;fill:rgb(239,247,0);stroke:rgb(0,0,0);stroke-width:2"/></g>
<g fill-rule="evenodd"><path d="M 5226.73,3988.15 L 5225.27,4002.06 L 5220.95,4015.37 L 5213.95,4027.49 L 5204.59,4037.89 L 5199.17,4041.82 L 5199.17,4082.8 L 5198.42,4090.48 L 5196.18,4097.87 L 5192.54,4104.67 L 5187.64,4110.64 L 5116.86,4181.42 L 5110.89,4186.32 L 5104.09,4189.96 L 5096.7,4192.2 L 5089.02,4192.96 L 4654.08,4192.96 L 4646.4,4192.2 L 4639.01,4189.96 L 4632.21,4186.32 L 4626.24,4181.42 L 4450.29,4005.47 L 3151.49,4005.47 L 3147.62,4009.77 L 3136.97,4017.51 L 3124.94,4022.86 L 3112.06,4025.6 L 3105.47,4025.6 L 3105.47,4025.95 L 2979.49,4025.95 L 2979.49,4025.6 L 2972.9,4025.6 L 2960.02,4022.86 L 2947.99,4017.51 L 2937.34,4009.77 L 2928.53,3999.98 L 2921.94,3988.57 L 2917.87,3976.05 L 2916.5,3962.95 L 2917.87,3949.86 L 2921.94,3937.33 L 2928.53,3925.93 L 2937.34,3916.14 L 2947.99,3908.4 L 2960.02,3903.04 L 2972.9,3900.3 L 2979.49,3900.3 L 2979.49,3899.96 L 3105.47,3899.96 L 3105.47,3900.3 L 3112.06,3900.3 L 3124.94,3903.04 L 3136.97,3908.4 L 3147.62,3916.14 L 3156.9,3926.73 L 4466.6,3926.73 L 4474.28,3927.49 L 4481.66,3929.73 L 4488.47,3933.37 L 4494.44,3938.26 L 4670.39,4114.22 L 5072.71,4114.22 L 5120.43,4066.49 L 5120.43,4041.82 L 5115.02,4037.89 L 5105.66,4027.49 L 5098.66,4015.37 L 5094.34,4002.06 L 5092.87,3988.15 L 5094.34,3974.23 L 5098.66,3960.93 L 5105.66,3948.81 L 5115.02,3938.41 L 5126.34,3930.19 L 5139.12,3924.5 L 5152.81,3921.59 L 5166.8,3921.59 L 5180.49,3924.5 L 5193.27,3930.19 L 5204.59,3938.41 L 5213.95,3948.81 L 5220.95,3960.93 L 5225.27,3974.23 L 5226.73,3988.15 z " style="fill-opacity:1.000000;fill:rgb(233,161,58);stroke:rgb(0,0,0);stroke-width:2"/></g>
<g fill-rule="evenodd"><path d="M 3840.12,4164.53 L 3838.83,4176.81 L 3835.01,4188.55 L 3828.84,4199.24 L 3820.58,4208.41 L 3810.59,4215.67 L 3799.31,4220.69 L 3787.24,4223.26 L 3774.89,4223.26 L 3769.38,4222.09 L 3768.67,4222.31 L 3664.66,4205.47 L 3151.49,4205.47 L 3147.62,4209.77 L 3136.97,4217.51 L 3124.94,4222.86 L 3112.06,4225.6 L 3105.47,4225.6 L 3105.47,4225.95 L 2979.49,4225.95 L 2979.49,4225.6 L 2972.9,4225.6 L 2960.02,4222.86 L 2947.99,4217.51 L 2937.34,4209.77 L 2928.53,4199.98 L 2921.94,4188.57 L 2917.87,4176.05 L 2916.5,4162.95 L 2917.87,4149.86 L 2921.94,4137.33 L 2928.53,4125.93 L 2937.34,4116.14 L 2947.99,4108.4 L 2960.02,4103.04 L 2972.9,4100.3 L 2979.49,4100.3 L 2979.49,4099.96 L 3105.47,4099.96 L 3105.47,4100.3 L 3112.06,4100.3 L 3124.94,4103.04 L 3136.97,4108.4 L 3147.62,4116.14 L 3156.9,4126.73 L 3664.57,4126.73 L 3768.65,4106.78 L 3769.37,4106.97 L 3774.89,4105.8 L 3787.24,4105.8 L 3799.31,4108.36 L 3810.59,4113.38 L 3820.58,4120.64 L 3828.84,4129.82 L 3835.01,4140.51 L 3838.83,4152.25 L 3840.12,4164.53 z " style="fill-opacity:1.000000;fill:rgb(229,202,11);stroke:rgb(0,0,0);stroke-width:2"/></g>
<g fill-rule="evenodd"><path d="M 5425.27,3974.23 L 5426.73,3988.15 L 5425.27,4002.06 L 5420.95,4015.37 L 5413.95,4027.49 L 5404.59,4037.89 L 5399.17,4041.82 L 5399.17,4105.62 L 5398.42,4113.3 L 5396.18,4120.69 L 5392.54,4127.5 L 5387.64,4133.46 L 5201.81,4319.3 L 5195.84,4324.19 L 5189.03,4327.83 L 5181.65,4330.07 L 5173.97,4330.83 L 4596.97,4330.83 L 4589.29,4330.07 L 4581.91,4327.83 L 4575.1,4324.19 L 4569.13,4319.3 L 4452.94,4203.11 L 4216.43,4203.11 L 4112.37,4221.5 L 4111.65,4221.3 L 4106.13,4222.47 L 4093.79,4222.47 L 4081.71,4219.9 L 4070.43,4214.88 L 4060.45,4207.63 L 4052.18,4198.45 L 4046.01,4187.76 L 4042.2,4176.02 L 4040.91,4163.74 L 4042.2,4151.46 L 4046.01,4139.72 L 4052.18,4129.03 L 4060.45,4119.85 L 4070.43,4112.6 L 4081.71,4107.58 L 4093.79,4105.01 L 4106.13,4105.01 L 4111.65,4106.18 L 4112.37,4105.98 L 4216.39,4124.37 L 4469.25,4124.37 L 4476.93,4125.13 L 4484.32,4127.37 L 4491.12,4131.01 L 4497.09,4135.9 L 4613.28,4252.09 L 5157.66,4252.09 L 5320.43,4089.32 L 5320.43,4041.82 L 5315.02,4037.89 L 5305.66,4027.49 L 5298.66,4015.37 L 5294.34,4002.06 L 5292.87,3988.15 L 5294.34,3974.23 L 5298.66,3960.93 L 5305.66,3948.81 L 5315.02,3938.41 L 5326.34,3930.19 L 5339.12,3924.5 L 5352.81,3921.59 L 5366.8,3921.59 L 5380.49,3924.5 L 5393.27,3930.19 L 5404.59,3938.41 L 5413.95,3948.81 L 5420.95,3960.93 L 5425.27,3974.23 z " style="fill-opacity:1.000000;fill:rgb(203,208,72);stroke:rgb(0,0,0);stroke-width:2"/></g>
<g fill-rule="evenodd"><path d="M 2916.5,3162.95 L 2917.87,3149.86 L 2921.94,3137.33 L 2928.53,3125.93 L 2937.34,3116.14 L 2947.99,3108.4 L 2960.02,3103.04 L 2972.9,3100.3 L 2979.49,3100.3 L 2979.49,3099.96 L 3105.47,3099.96 L 3105.47,3100.3 L 3112.06,3100.3 L 3124.94,3103.04 L 3136.97,3108.4 L 3147.62,3116.14 L 3156.9,3126.73 L 3457.67,3126.73 L 3622.52,2961.89 L 3628.48,2956.99 L 3635.29,2953.35 L 3642.67,2951.11 L 3650.35,2950.35 L 4295.3,2950.35 L 4399.36,2931.96 L 4400.09,2932.16 L 4405.6,2930.99 L 4417.94,2930.99 L 4430.02,2933.56 L 4441.3,2938.58 L 4451.29,2945.84 L 4459.55,2955.01 L 4465.72,2965.7 L 4469.54,2977.45 L 4470.83,2989.72 L 4469.54,3002 L 4465.72,3013.74 L 4459.55,3024.44 L 4451.29,3033.61 L 4441.3,3040.87 L 4430.02,3045.89 L 4417.94,3048.46 L 4405.6,3048.46 L 4400.08,3047.28 L 4399.36,3047.49 L 4295.35,3029.09 L 3666.66,3029.09 L 3501.82,3193.94 L 3495.85,3198.84 L 3489.04,3202.48 L 3481.66,3204.72 L 3473.98,3205.47 L 3151.49,3205.47 L 3147.62,3209.77 L 3136.97,3217.51 L 3124.94,3222.86 L 3112.06,3225.6 L 3105.47,3225.6 L 3105.47,3225.95 L 2979.49,3225.95 L 2979.49,3225.6 L 2972.9,3225.6 L 2960.02,3222.86 L 2947.99,3217.51 L 2937.34,3209.77 L 2928.53,3199.98 L 2921.94,3188.57 L 2917.87,3176.05 L 2916.5,3162.95 z " style="fill-opacity:1.000000;fill:rgb(71,100,189);stroke:rgb(0,0,0);stroke-width:2"/></g>
<g fill-rule="evenodd"><path d="M 4668.97,3975.87 L 4672.78,3964.13 L 4678.96,3953.44 L 4687.22,3944.26 L 4697.2,3937.01 L 4708.48,3931.98 L 4720.56,3929.42 L 4732.91,3929.42 L 4738.43,3930.59 L 4739.14,3930.39 L 4843.16,3948.78 L 4905.68,3948.78 L 4915.02,3938.41 L 4926.34,3930.19 L 4939.12,3924.5 L 4952.81,3921.59 L 4966.8,3921.59 L 4980.49,3924.5 L 4993.27,3930.19 L 5004.59,3938.41 L 5013.95,3948.81 L 5020.95,3960.93 L 5025.27,3974.23 L 5026.73,3988.15 L 5025.27,4002.06 L 5020.95,4015.37 L 5013.95,4027.49 L 5004.59,4037.89 L 4993.27,4046.11 L 4980.49,4051.8 L 4966.8,4054.71 L 4952.81,4054.71 L 4939.12,4051.8 L 4926.34,4046.11 L 4915.02,4037.89 L 4905.68,4027.52 L 4843.2,4027.52 L 4739.14,4045.91 L 4738.42,4045.71 L 4732.91,4046.88 L 4720.56,4046.88 L 4708.48,4044.31 L 4697.2,4039.29 L 4687.22,4032.04 L 4678.96,4022.86 L 4672.78,4012.17 L 4668.97,4000.43 L 4667.68,3988.15 L 4668.97,3975.87 z " style="fill-opacity:1.000000;fill:rgb(31,35,30);stroke:rgb(0,0,0);stroke-width:2"/></g>
</svg>
