<?xml version="1.0" standalone="no"?>
<!DOCTYPE svg PUBLIC "-//W3C//DTD SVG 1.1//EN"
"http://www.w3.org/Graphics/SVG/1.1/DTD/svg11.dtd">
<svg width="295.933" height="216.563" viewBox="0 0 6165.28 4511.73" version="1.1"
xmlns="http://www.w3.org/2000/svg"
xmlns:xlink="http://www.w3.org/1999/xlink">
<g fill-rule="evenodd"><path d="M 0,4511.73 L 0,-9.09495e-13 L 6165.28,-9.09495e-13 L 6165.28,4511.73 L 0,4511.73 z " style="fill-opacity:0.200000;fill:rgb(103,198,105);"/></g>
<polyline points="51.1413,4421.22 51.1413,90.5112 51.8973,82.8292 54.1373,75.4452 57.7753,68.6372 62.6713,62.6712 68.6373,57.7752 75.4453,54.1372 82.8293,51.8972 90.5113,51.1412 3633.82,51.1412 3641.5,51.8972 3648.89,54.1412 3655.7,57.7832 3661.67,62.6832 3666.57,68.6552 3670.2,75.4672 3672.44,82.8592 3673.19,90.5452 3671.23,2388.94 6074.76,2388.94 6082.44,2389.69 6089.83,2391.93 6096.64,2395.57 6102.6,2400.47 6107.5,2406.43 6111.14,2413.24 6113.38,2420.63 6114.13,2428.31 6114.13,4421.22 6113.38,4428.9 6111.14,4436.29 6107.5,4443.09 6102.6,4449.06 6096.64,4453.96 6089.83,4457.59 6082.44,4459.83 6074.76,4460.59 90.5113,4460.59 82.8293,4459.83 75.4453,4457.59 68.6373,4453.96 62.6713,4449.06 57.7753,4443.09 54.1373,4436.29 51.8973,4428.9 51.1413,4421.22" style="stroke:rgb(103,198,105);stroke-width:78.740157;fill:none;stroke-opacity:0.5;stroke-linecap:round;stroke-linejoin:round;;fill:none"/>
<polyline points="51.1413,4421.22 51.1413,90.5112 51.8973,82.8292 54.1373,75.4452 57.7753,68.6372 62.6713,62.6712 68.6373,57.7752 75.4453,54.1372 82.8293,51.8972 90.5113,51.1412 3633.82,51.1412 3641.5,51.8972 3648.89,54.1412 3655.7,57.7832 3661.67,62.6832 3666.57,68.6552 3670.2,75.4672 3672.44,82.8592 3673.19,90.5452 3671.23,2388.94 6074.76,2388.94 6082.44,2389.69 6089.83,2391.93 6096.64,2395.57 6102.6,2400.47 6107.5,2406.43 6111.14,2413.24 6113.38,2420.63 6114.13,2428.31 6114.13,4421.22 6113.38,4428.9 6111.14,4436.29 6107.5,4443.09 6102.6,4449.06 6096.64,4453.96 6089.83,4457.59 6082.44,4459.83 6074.76,4460.59 90.5113,4460.59 82.8293,4459.83 75.4453,4457.59 68.6373,4453.96 62.6713,4449.06 57.7753,4443.09 54.1373,4436.29 51.8973,4428.9 51.1413,4421.22" style="stroke:rgb(0,0,0);stroke-width:1px;fill:none;stroke-opacity:1;stroke-linecap:round;stroke-linejoin:round;;fill:none"/>
<g fill-rule="evenodd"><path d="M 6074.76,2428.31 L 6074.76,4421.22 L 90.5118,4421.22 L 90.5118,90.5118 L 3633.82,90.5118 L 3631.83,2428.31 L 6074.76,2428.31 z " style="fill-opacity:1.000000;fill:rgb(103,198,105);stroke:rgb(0,0,0);stroke-width:2"/></g>
</svg>
