<?xml version="1.0" standalone="no"?>
<!DOCTYPE svg PUBLIC "-//W3C//DTD SVG 1.1//EN"
"http://www.w3.org/Graphics/SVG/1.1/DTD/svg11.dtd">
<svg width="348.979" height="269.609" viewBox="0 0 7270.39 5616.85" version="1.1"
xmlns="http://www.w3.org/2000/svg"
xmlns:xlink="http://www.w3.org/1999/xlink">
<g fill-rule="evenodd"><path d="M 0,5616.85 L 0,-9.09495e-13 L 7270.39,-9.09495e-13 L 7270.39,5616.85 L 0,5616.85 z " style="fill-opacity:0.200000;fill:rgb(103,198,105);"/></g>
<polyline points="603.7,4973.78 603.7,643.07 604.456,635.388 606.696,628.004 610.334,621.196 615.23,615.23 621.196,610.334 628.004,606.696 635.388,604.456 643.07,603.7 4186.38,603.7 4194.06,604.456 4201.45,606.7 4208.26,610.342 4214.23,615.242 4219.12,621.214 4222.76,628.026 4225,635.418 4225.75,643.104 4223.79,2941.49 6627.32,2941.49 6635,2942.25 6642.39,2944.49 6649.19,2948.13 6655.16,2953.03 6660.06,2958.99 6663.69,2965.8 6665.94,2973.18 6666.69,2980.86 6666.69,4973.78 6665.94,4981.46 6663.69,4988.84 6660.06,4995.65 6655.16,5001.62 6649.19,5006.51 6642.39,5010.15 6635,5012.39 6627.32,5013.15 643.07,5013.15 635.388,5012.39 628.004,5010.15 621.196,5006.51 615.23,5001.62 610.334,4995.65 606.696,4988.84 604.456,4981.46 603.7,4973.78" style="stroke:rgb(103,198,105);stroke-width:78.740157;fill:none;stroke-opacity:0.5;stroke-linecap:round;stroke-linejoin:round;;fill:none"/>
<polyline points="603.7,4973.78 603.7,643.07 604.456,635.388 606.696,628.004 610.334,621.196 615.23,615.23 621.196,610.334 628.004,606.696 635.388,604.456 643.07,603.7 4186.38,603.7 4194.06,604.456 4201.45,606.7 4208.26,610.342 4214.23,615.242 4219.12,621.214 4222.76,628.026 4225,635.418 4225.75,643.104 4223.79,2941.49 6627.32,2941.49 6635,2942.25 6642.39,2944.49 6649.19,2948.13 6655.16,2953.03 6660.06,2958.99 6663.69,2965.8 6665.94,2973.18 6666.69,2980.86 6666.69,4973.78 6665.94,4981.46 6663.69,4988.84 6660.06,4995.65 6655.16,5001.62 6649.19,5006.51 6642.39,5010.15 6635,5012.39 6627.32,5013.15 643.07,5013.15 635.388,5012.39 628.004,5010.15 621.196,5006.51 615.23,5001.62 610.334,4995.65 606.696,4988.84 604.456,4981.46 603.7,4973.78" style="stroke:rgb(0,0,0);stroke-width:1px;fill:none;stroke-opacity:1;stroke-linecap:round;stroke-linejoin:round;;fill:none"/>
<g fill-rule="evenodd"><path d="M 6627.32,2980.87 L 6627.32,4973.78 L 643.071,4973.78 L 643.071,643.071 L 4186.38,643.071 L 4184.39,2980.87 L 6627.32,2980.87 z " style="fill-opacity:1.000000;fill:rgb(103,198,105);stroke:rgb(0,0,0);stroke-width:2"/></g>
</svg>
