%TF.GenerationSoftware,KiCad,Pcbnew,9.0.2*%
%TF.CreationDate,2025-07-08T09:36:54-03:00*%
%TF.ProjectId,RadProt_IOT,52616450-726f-4745-9f49-4f542e6b6963,rev?*%
%TF.SameCoordinates,Original*%
%TF.FileFunction,Copper,L2,Bot*%
%TF.FilePolarity,Positive*%
%FSLAX46Y46*%
G04 Gerber Fmt 4.6, Leading zero omitted, Abs format (unit mm)*
G04 Created by KiCad (PCBNEW 9.0.2) date 2025-07-08 09:36:54*
%MOMM*%
%LPD*%
G01*
G04 APERTURE LIST*
G04 Aperture macros list*
%AMRoundRect*
0 Rectangle with rounded corners*
0 $1 Rounding radius*
0 $2 $3 $4 $5 $6 $7 $8 $9 X,Y pos of 4 corners*
0 Add a 4 corners polygon primitive as box body*
4,1,4,$2,$3,$4,$5,$6,$7,$8,$9,$2,$3,0*
0 Add four circle primitives for the rounded corners*
1,1,$1+$1,$2,$3*
1,1,$1+$1,$4,$5*
1,1,$1+$1,$6,$7*
1,1,$1+$1,$8,$9*
0 Add four rect primitives between the rounded corners*
20,1,$1+$1,$2,$3,$4,$5,0*
20,1,$1+$1,$4,$5,$6,$7,0*
20,1,$1+$1,$6,$7,$8,$9,0*
20,1,$1+$1,$8,$9,$2,$3,0*%
%AMFreePoly0*
4,1,37,0.800000,0.796148,0.878414,0.796148,1.032228,0.765552,1.177117,0.705537,1.307515,0.618408,1.418408,0.507515,1.505537,0.377117,1.565552,0.232228,1.596148,0.078414,1.596148,-0.078414,1.565552,-0.232228,1.505537,-0.377117,1.418408,-0.507515,1.307515,-0.618408,1.177117,-0.705537,1.032228,-0.765552,0.878414,-0.796148,0.800000,-0.796148,0.800000,-0.800000,-1.400000,-0.800000,
-1.403843,-0.796157,-1.439018,-0.796157,-1.511114,-0.766294,-1.566294,-0.711114,-1.596157,-0.639018,-1.596157,-0.603843,-1.600000,-0.600000,-1.600000,0.600000,-1.596157,0.603843,-1.596157,0.639018,-1.566294,0.711114,-1.511114,0.766294,-1.439018,0.796157,-1.403843,0.796157,-1.400000,0.800000,0.800000,0.800000,0.800000,0.796148,0.800000,0.796148,$1*%
%AMFreePoly1*
4,1,37,1.403843,0.796157,1.439018,0.796157,1.511114,0.766294,1.566294,0.711114,1.596157,0.639018,1.596157,0.603843,1.600000,0.600000,1.600000,-0.600000,1.596157,-0.603843,1.596157,-0.639018,1.566294,-0.711114,1.511114,-0.766294,1.439018,-0.796157,1.403843,-0.796157,1.400000,-0.800000,-0.800000,-0.800000,-0.800000,-0.796148,-0.878414,-0.796148,-1.032228,-0.765552,-1.177117,-0.705537,
-1.307515,-0.618408,-1.418408,-0.507515,-1.505537,-0.377117,-1.565552,-0.232228,-1.596148,-0.078414,-1.596148,0.078414,-1.565552,0.232228,-1.505537,0.377117,-1.418408,0.507515,-1.307515,0.618408,-1.177117,0.705537,-1.032228,0.765552,-0.878414,0.796148,-0.800000,0.796148,-0.800000,0.800000,1.400000,0.800000,1.403843,0.796157,1.403843,0.796157,$1*%
G04 Aperture macros list end*
%TA.AperFunction,ComponentPad*%
%ADD10R,1.700000X1.700000*%
%TD*%
%TA.AperFunction,ComponentPad*%
%ADD11C,1.700000*%
%TD*%
%TA.AperFunction,ComponentPad*%
%ADD12C,2.000000*%
%TD*%
%TA.AperFunction,ComponentPad*%
%ADD13FreePoly0,0.000000*%
%TD*%
%TA.AperFunction,ComponentPad*%
%ADD14C,1.600000*%
%TD*%
%TA.AperFunction,ComponentPad*%
%ADD15FreePoly1,0.000000*%
%TD*%
%TA.AperFunction,ComponentPad*%
%ADD16RoundRect,0.800000X-0.800000X-0.000010X0.800000X-0.000010X0.800000X0.000010X-0.800000X0.000010X0*%
%TD*%
%TA.AperFunction,ComponentPad*%
%ADD17RoundRect,0.200000X-0.600000X-0.600000X0.600000X-0.600000X0.600000X0.600000X-0.600000X0.600000X0*%
%TD*%
%TA.AperFunction,ComponentPad*%
%ADD18C,1.400000*%
%TD*%
%TA.AperFunction,ComponentPad*%
%ADD19R,1.800000X1.800000*%
%TD*%
%TA.AperFunction,ComponentPad*%
%ADD20C,1.800000*%
%TD*%
%TA.AperFunction,ViaPad*%
%ADD21C,1.500000*%
%TD*%
%TA.AperFunction,Conductor*%
%ADD22C,1.000000*%
%TD*%
G04 APERTURE END LIST*
D10*
%TO.P,UART3,1,Pin_1*%
%TO.N,+5V*%
X112000000Y-100000000D03*
D11*
%TO.P,UART3,2,Pin_2*%
%TO.N,/UART3_RX*%
X112000000Y-102540000D03*
%TO.P,UART3,3,Pin_3*%
%TO.N,N/C*%
X112000000Y-105080000D03*
%TO.P,UART3,4,Pin_4*%
%TO.N,GND*%
X112000000Y-107620000D03*
%TD*%
D10*
%TO.P,UART1,1,Pin_1*%
%TO.N,+5V*%
X112000000Y-82000000D03*
D11*
%TO.P,UART1,2,Pin_2*%
%TO.N,/UART0_RX*%
X112000000Y-84540000D03*
%TO.P,UART1,3,Pin_3*%
%TO.N,N/C*%
X112000000Y-87080000D03*
%TO.P,UART1,4,Pin_4*%
%TO.N,GND*%
X112000000Y-89620000D03*
%TD*%
D12*
%TO.P,SW1,1,1*%
%TO.N,GND*%
X111865000Y-124630000D03*
X118365000Y-124630000D03*
%TO.P,SW1,2,2*%
%TO.N,Net-(U1-GPIO14)*%
X111865000Y-129130000D03*
X118365000Y-129130000D03*
%TD*%
D11*
%TO.P,J1,CLKOUT,CLKOUT*%
%TO.N,unconnected-(J6-PadCLKOUT)*%
X177000000Y-129500000D03*
%TO.P,J1,CS,CS*%
%TO.N,Net-(U1-GPIO17)*%
X169380000Y-129500000D03*
D10*
%TO.P,J1,GND,GND*%
%TO.N,GND*%
X166840000Y-126960000D03*
D11*
%TO.P,J1,INT,INT*%
%TO.N,Net-(U1-GPIO21)*%
X177000000Y-126960000D03*
%TO.P,J1,RESET,RESET*%
%TO.N,Net-(U1-GPIO20)*%
X169380000Y-126960000D03*
%TO.P,J1,SCK,SCK*%
%TO.N,Net-(U1-GPIO18)*%
X171920000Y-126960000D03*
%TO.P,J1,SI,SI*%
%TO.N,Net-(U1-GPIO19)*%
X171920000Y-129500000D03*
%TO.P,J1,SO,SO*%
%TO.N,Net-(U1-GPIO16)*%
X174460000Y-126960000D03*
%TO.P,J1,VCC,VCC*%
%TO.N,Net-(U1-3V3)*%
X166840000Y-129500000D03*
%TO.P,J1,WOL,WOL*%
%TO.N,unconnected-(J6-PadWOL)*%
X174460000Y-129500000D03*
%TD*%
D10*
%TO.P,+5v,1,Pin_1*%
%TO.N,+5V*%
X107500000Y-92410000D03*
%TD*%
D13*
%TO.P,U1,1,GPIO0*%
%TO.N,/UART0_TX*%
X124710000Y-83460000D03*
D14*
%TO.P,U1,2,GPIO1*%
%TO.N,/UART0_RX*%
X124710000Y-86000000D03*
D15*
%TO.P,U1,3,GND*%
%TO.N,GND*%
X124710000Y-88540000D03*
D16*
%TO.P,U1,4,GPIO2*%
%TO.N,/UART2_TX*%
X124710000Y-91080000D03*
%TO.P,U1,5,GPIO3*%
%TO.N,/UART2_RX*%
X124710000Y-93620000D03*
%TO.P,U1,6,GPIO4*%
%TO.N,/UART1_TX*%
X124710000Y-96160000D03*
%TO.P,U1,7,GPIO5*%
%TO.N,/UART1_RX*%
X124710000Y-98700000D03*
D15*
%TO.P,U1,8,GND*%
%TO.N,GND*%
X124710000Y-101240000D03*
D16*
%TO.P,U1,9,GPIO6*%
%TO.N,/UART3_TX*%
X124710000Y-103780000D03*
%TO.P,U1,10,GPIO7*%
%TO.N,/UART3_RX*%
X124710000Y-106320000D03*
%TO.P,U1,11,GPIO8*%
%TO.N,unconnected-(U1-GPIO8-Pad11)*%
X124710000Y-108860000D03*
%TO.P,U1,12,GPIO9*%
%TO.N,unconnected-(U1-GPIO9-Pad12)*%
X124710000Y-111400000D03*
D15*
%TO.P,U1,13,GND*%
%TO.N,GND*%
X124710000Y-113940000D03*
D16*
%TO.P,U1,14,GPIO10*%
%TO.N,unconnected-(U1-GPIO10-Pad14)*%
X124710000Y-116480000D03*
%TO.P,U1,15,GPIO11*%
%TO.N,unconnected-(U1-GPIO11-Pad15)*%
X124710000Y-119020000D03*
%TO.P,U1,16,GPIO12*%
%TO.N,unconnected-(U1-GPIO12-Pad16)*%
X124710000Y-121560000D03*
%TO.P,U1,17,GPIO13*%
%TO.N,unconnected-(U1-GPIO13-Pad17)*%
X124710000Y-124100000D03*
D15*
%TO.P,U1,18,GND*%
%TO.N,GND*%
X124710000Y-126640000D03*
D16*
%TO.P,U1,19,GPIO14*%
%TO.N,Net-(U1-GPIO14)*%
X124710000Y-129180000D03*
%TO.P,U1,20,GPIO15*%
%TO.N,Net-(U1-GPIO15)*%
X124710000Y-131720000D03*
%TO.P,U1,21,GPIO16*%
%TO.N,Net-(U1-GPIO16)*%
X142490000Y-131720000D03*
%TO.P,U1,22,GPIO17*%
%TO.N,Net-(U1-GPIO17)*%
X142490000Y-129180000D03*
D13*
%TO.P,U1,23,GND*%
%TO.N,GND*%
X142490000Y-126640000D03*
D16*
%TO.P,U1,24,GPIO18*%
%TO.N,Net-(U1-GPIO18)*%
X142490000Y-124100000D03*
%TO.P,U1,25,GPIO19*%
%TO.N,Net-(U1-GPIO19)*%
X142490000Y-121560000D03*
%TO.P,U1,26,GPIO20*%
%TO.N,Net-(U1-GPIO20)*%
X142490000Y-119020000D03*
%TO.P,U1,27,GPIO21*%
%TO.N,Net-(U1-GPIO21)*%
X142490000Y-116480000D03*
D13*
%TO.P,U1,28,GND*%
%TO.N,GND*%
X142490000Y-113940000D03*
D16*
%TO.P,U1,29,GPIO22*%
%TO.N,unconnected-(U1-GPIO22-Pad29)*%
X142490000Y-111400000D03*
%TO.P,U1,30,RUN*%
%TO.N,unconnected-(U1-RUN-Pad30)*%
X142490000Y-108860000D03*
%TO.P,U1,31,GPIO26_ADC0*%
%TO.N,unconnected-(U1-GPIO26_ADC0-Pad31)*%
X142490000Y-106320000D03*
%TO.P,U1,32,GPIO27_ADC1*%
%TO.N,unconnected-(U1-GPIO27_ADC1-Pad32)*%
X142490000Y-103780000D03*
D13*
%TO.P,U1,33,AGND*%
%TO.N,unconnected-(U1-AGND-Pad33)*%
X142490000Y-101240000D03*
D16*
%TO.P,U1,34,GPIO28_ADC2*%
%TO.N,unconnected-(U1-GPIO28_ADC2-Pad34)*%
X142490000Y-98700000D03*
%TO.P,U1,35,ADC_VREF*%
%TO.N,unconnected-(U1-ADC_VREF-Pad35)*%
X142490000Y-96160000D03*
%TO.P,U1,36,3V3*%
%TO.N,Net-(U1-3V3)*%
X142490000Y-93620000D03*
%TO.P,U1,37,3V3_EN*%
%TO.N,unconnected-(U1-3V3_EN-Pad37)*%
X142490000Y-91080000D03*
D13*
%TO.P,U1,38,GND*%
%TO.N,GND*%
X142490000Y-88540000D03*
D16*
%TO.P,U1,39,VSYS*%
%TO.N,+5V*%
X142490000Y-86000000D03*
%TO.P,U1,40,VBUS*%
%TO.N,unconnected-(U1-VBUS-Pad40)*%
X142490000Y-83460000D03*
D17*
%TO.P,U1,D1*%
%TO.N,N/C*%
X134184100Y-113290000D03*
D14*
%TO.P,U1,D2*%
X136724100Y-113290000D03*
%TO.P,U1,D3*%
X139264100Y-113290000D03*
%TD*%
D10*
%TO.P,UART2,1,Pin_1*%
%TO.N,+5V*%
X118000000Y-91000000D03*
D11*
%TO.P,UART2,2,Pin_2*%
%TO.N,/UART2_RX*%
X118000000Y-93540000D03*
%TO.P,UART2,3,Pin_3*%
%TO.N,N/C*%
X118000000Y-96080000D03*
%TO.P,UART2,4,Pin_4*%
%TO.N,GND*%
X118000000Y-98620000D03*
%TD*%
D18*
%TO.P,R1,1*%
%TO.N,Net-(U1-GPIO15)*%
X108115000Y-126610000D03*
%TO.P,R1,2*%
%TO.N,Net-(D1-A)*%
X108115000Y-121530000D03*
%TD*%
D10*
%TO.P,GND,1,Pin_1*%
%TO.N,GND*%
X107500000Y-97000000D03*
%TD*%
D19*
%TO.P,D1,1,K*%
%TO.N,GND*%
X108115000Y-113100000D03*
D20*
%TO.P,D1,2,A*%
%TO.N,Net-(D1-A)*%
X108115000Y-115640000D03*
%TD*%
D21*
%TO.N,Net-(U1-3V3)*%
X163880000Y-129500000D03*
X163840000Y-112710000D03*
%TO.N,Net-(U1-GPIO19)*%
X155920000Y-131730000D03*
X155830000Y-121600000D03*
%TO.N,Net-(U1-GPIO20)*%
X159880000Y-116820000D03*
X159880000Y-124500000D03*
%TO.N,Net-(U1-GPIO16)*%
X151870000Y-131740000D03*
X151865000Y-118840000D03*
%TD*%
D22*
%TO.N,/UART3_RX*%
X119360000Y-106360000D02*
X123920000Y-106360000D01*
X115540000Y-102540000D02*
X119360000Y-106360000D01*
X112000000Y-102540000D02*
X115540000Y-102540000D01*
%TO.N,GND*%
X114976288Y-88580000D02*
X123920000Y-88580000D01*
X118365000Y-124630000D02*
X118375000Y-124630000D01*
X111865000Y-124630000D02*
X118365000Y-124630000D01*
X118500000Y-98620000D02*
X121160000Y-101280000D01*
X112000000Y-89620000D02*
X113936288Y-89620000D01*
X110620000Y-107620000D02*
X112000000Y-107620000D01*
X144280000Y-126960000D02*
X144000000Y-126680000D01*
X118375000Y-124630000D02*
X120425000Y-126680000D01*
X114480000Y-113980000D02*
X123920000Y-113980000D01*
X144000000Y-126680000D02*
X143300000Y-126680000D01*
X123920000Y-88580000D02*
X143300000Y-88580000D01*
X166840000Y-126960000D02*
X144280000Y-126960000D01*
X110400000Y-113100000D02*
X112000000Y-111500000D01*
X107500000Y-97000000D02*
X107500000Y-104500000D01*
X112000000Y-111500000D02*
X114480000Y-113980000D01*
X107500000Y-104500000D02*
X110620000Y-107620000D01*
X108115000Y-113100000D02*
X110400000Y-113100000D01*
X112000000Y-107620000D02*
X112000000Y-111500000D01*
X113936288Y-89620000D02*
X114976288Y-88580000D01*
X121160000Y-101280000D02*
X123920000Y-101280000D01*
X119960000Y-126680000D02*
X123920000Y-126680000D01*
X166560000Y-126680000D02*
X166840000Y-126960000D01*
%TO.N,/UART0_RX*%
X113540000Y-84540000D02*
X115040000Y-86040000D01*
X112000000Y-84540000D02*
X113540000Y-84540000D01*
X115040000Y-86040000D02*
X123920000Y-86040000D01*
%TO.N,/UART2_RX*%
X123800000Y-93540000D02*
X123920000Y-93660000D01*
X118000000Y-93540000D02*
X123800000Y-93540000D01*
%TO.N,+5V*%
X107500000Y-92410000D02*
X114000000Y-92410000D01*
X112000000Y-82000000D02*
X113001000Y-82000000D01*
X107500000Y-92410000D02*
X107500000Y-84650000D01*
X115410000Y-91000000D02*
X114000000Y-92410000D01*
X118000000Y-91000000D02*
X115410000Y-91000000D01*
X146295000Y-86295000D02*
X144185000Y-86295000D01*
X147000000Y-82000000D02*
X147000000Y-85590000D01*
X146001000Y-81001000D02*
X147000000Y-82000000D01*
X107500000Y-84650000D02*
X110150000Y-82000000D01*
X114000000Y-81001000D02*
X146001000Y-81001000D01*
X147000000Y-85590000D02*
X146295000Y-86295000D01*
X110150000Y-82000000D02*
X112000000Y-82000000D01*
X112000000Y-100000000D02*
X112000000Y-92410000D01*
X113001000Y-82000000D02*
X114000000Y-81001000D01*
%TO.N,Net-(D1-A)*%
X108115000Y-115640000D02*
X108115000Y-121530000D01*
%TO.N,Net-(U1-3V3)*%
X163840000Y-112710000D02*
X149010000Y-112710000D01*
X146970000Y-95720000D02*
X144910000Y-93660000D01*
X163880000Y-129500000D02*
X166840000Y-129500000D01*
X144910000Y-93660000D02*
X143300000Y-93660000D01*
X146970000Y-110670000D02*
X146970000Y-95720000D01*
X149010000Y-112710000D02*
X146970000Y-110670000D01*
%TO.N,Net-(U1-GPIO21)*%
X169319000Y-114819000D02*
X177000000Y-122500000D01*
X177000000Y-126960000D02*
X177000000Y-122500000D01*
X143300000Y-116520000D02*
X147253712Y-116520000D01*
X148954712Y-114819000D02*
X169319000Y-114819000D01*
X147253712Y-116520000D02*
X148954712Y-114819000D01*
%TO.N,Net-(U1-GPIO19)*%
X162232041Y-133352041D02*
X169559881Y-133352041D01*
X154810000Y-121600000D02*
X155830000Y-121600000D01*
X155920000Y-131730000D02*
X160610000Y-131730000D01*
X143300000Y-121600000D02*
X154810000Y-121600000D01*
X169559881Y-133352041D02*
X171920000Y-130991922D01*
X160610000Y-131730000D02*
X162232041Y-133352041D01*
X171920000Y-130991922D02*
X171920000Y-129500000D01*
%TO.N,Net-(U1-GPIO20)*%
X168489000Y-124609000D02*
X169380000Y-125500000D01*
X150210000Y-116820000D02*
X159920000Y-116820000D01*
X147970000Y-119060000D02*
X150210000Y-116820000D01*
X143300000Y-119060000D02*
X147970000Y-119060000D01*
X169380000Y-125500000D02*
X168380000Y-124500000D01*
X168380000Y-124500000D02*
X159880000Y-124500000D01*
X169380000Y-126960000D02*
X169380000Y-125500000D01*
%TO.N,Net-(U1-GPIO17)*%
X162957329Y-131601041D02*
X160576288Y-129220000D01*
X169380000Y-130702081D02*
X169380000Y-129500000D01*
X160576288Y-129220000D02*
X143300000Y-129220000D01*
X168481040Y-131601041D02*
X169380000Y-130702081D01*
X162957329Y-131601041D02*
X168481040Y-131601041D01*
X162957329Y-131601041D02*
X160756288Y-129400000D01*
%TO.N,Net-(U1-GPIO16)*%
X151866000Y-118839000D02*
X151865000Y-118840000D01*
X174460000Y-123750158D02*
X169549842Y-118840000D01*
X169549842Y-118840000D02*
X151865000Y-118840000D01*
X151620000Y-131760000D02*
X151880000Y-131500000D01*
X174460000Y-126960000D02*
X174460000Y-123750158D01*
X143300000Y-131760000D02*
X151620000Y-131760000D01*
%TO.N,Net-(U1-GPIO18)*%
X158380000Y-122500000D02*
X169720000Y-122500000D01*
X142490000Y-124100000D02*
X156780000Y-124100000D01*
X157445000Y-123435000D02*
X158380000Y-122500000D01*
X171920000Y-124700000D02*
X171920000Y-126960000D01*
X156780000Y-124100000D02*
X157445000Y-123435000D01*
X169720000Y-122500000D02*
X171920000Y-124700000D01*
X143300000Y-124140000D02*
X143460496Y-124300496D01*
%TO.N,Net-(U1-GPIO15)*%
X111235000Y-131760000D02*
X123920000Y-131760000D01*
X108115000Y-128640000D02*
X111235000Y-131760000D01*
X108115000Y-126610000D02*
X108115000Y-128640000D01*
%TO.N,Net-(U1-GPIO14)*%
X123920000Y-129220000D02*
X111490000Y-129220000D01*
%TD*%
%TA.AperFunction,Conductor*%
%TO.N,GND*%
G36*
X110595788Y-93679454D02*
G01*
X110676570Y-93733430D01*
X110730546Y-93814212D01*
X110749500Y-93909500D01*
X110749500Y-98385992D01*
X110730546Y-98481280D01*
X110676570Y-98562061D01*
X110557288Y-98681343D01*
X110465184Y-98830668D01*
X110410002Y-98997197D01*
X110410001Y-98997204D01*
X110399500Y-99099988D01*
X110399500Y-100900006D01*
X110410001Y-101002800D01*
X110465185Y-101169332D01*
X110465186Y-101169334D01*
X110494321Y-101216570D01*
X110539304Y-101289500D01*
X110557288Y-101318656D01*
X110610640Y-101372008D01*
X110664614Y-101452787D01*
X110683568Y-101548075D01*
X110664614Y-101643363D01*
X110636016Y-101694430D01*
X110631132Y-101701151D01*
X110516757Y-101925625D01*
X110438909Y-102165217D01*
X110399500Y-102414028D01*
X110399500Y-102665971D01*
X110438909Y-102914782D01*
X110438910Y-102914785D01*
X110516759Y-103154379D01*
X110631130Y-103378845D01*
X110779207Y-103582656D01*
X110830484Y-103633933D01*
X110884458Y-103714712D01*
X110903412Y-103810000D01*
X110884458Y-103905288D01*
X110830484Y-103986066D01*
X110779207Y-104037344D01*
X110779204Y-104037347D01*
X110631134Y-104241148D01*
X110631131Y-104241153D01*
X110631130Y-104241155D01*
X110630303Y-104242779D01*
X110516757Y-104465625D01*
X110438909Y-104705217D01*
X110399500Y-104954028D01*
X110399500Y-105205971D01*
X110438909Y-105454782D01*
X110438910Y-105454785D01*
X110516759Y-105694379D01*
X110631130Y-105918845D01*
X110779207Y-106122656D01*
X110957344Y-106300793D01*
X111161155Y-106448870D01*
X111177869Y-106457386D01*
X111191073Y-106466411D01*
X111199253Y-106474765D01*
X111232401Y-106498849D01*
X111870590Y-107137037D01*
X111807007Y-107154075D01*
X111692993Y-107219901D01*
X111599901Y-107312993D01*
X111534075Y-107427007D01*
X111517037Y-107490590D01*
X110890907Y-106864460D01*
X110883779Y-106859588D01*
X110845380Y-106912441D01*
X110845372Y-106912454D01*
X110748908Y-107101774D01*
X110748904Y-107101784D01*
X110683241Y-107303876D01*
X110650000Y-107513743D01*
X110650000Y-107726256D01*
X110683241Y-107936123D01*
X110748904Y-108138215D01*
X110748908Y-108138225D01*
X110845371Y-108327545D01*
X110845375Y-108327551D01*
X110884729Y-108381717D01*
X111517037Y-107749408D01*
X111534075Y-107812993D01*
X111599901Y-107927007D01*
X111692993Y-108020099D01*
X111807007Y-108085925D01*
X111870589Y-108102962D01*
X111238282Y-108735269D01*
X111238282Y-108735270D01*
X111292448Y-108774624D01*
X111481774Y-108871091D01*
X111481784Y-108871095D01*
X111683876Y-108936758D01*
X111893743Y-108969999D01*
X111893756Y-108970000D01*
X112106244Y-108970000D01*
X112106256Y-108969999D01*
X112316123Y-108936758D01*
X112518215Y-108871095D01*
X112518224Y-108871091D01*
X112707551Y-108774624D01*
X112761716Y-108735270D01*
X112129408Y-108102962D01*
X112192993Y-108085925D01*
X112307007Y-108020099D01*
X112400099Y-107927007D01*
X112465925Y-107812993D01*
X112482962Y-107749408D01*
X113115270Y-108381716D01*
X113154624Y-108327551D01*
X113251091Y-108138224D01*
X113251095Y-108138215D01*
X113316758Y-107936123D01*
X113349999Y-107726256D01*
X113350000Y-107726244D01*
X113350000Y-107513755D01*
X113349999Y-107513743D01*
X113316758Y-107303876D01*
X113251095Y-107101784D01*
X113251091Y-107101774D01*
X113154624Y-106912448D01*
X113115270Y-106858282D01*
X113115268Y-106858282D01*
X112482962Y-107490589D01*
X112465925Y-107427007D01*
X112400099Y-107312993D01*
X112307007Y-107219901D01*
X112192993Y-107154075D01*
X112129407Y-107137037D01*
X112767593Y-106498852D01*
X112830615Y-106453063D01*
X112836384Y-106450123D01*
X112866307Y-106441683D01*
X112888114Y-106414022D01*
X112903448Y-106401932D01*
X113042656Y-106300793D01*
X113220793Y-106122656D01*
X113368870Y-105918845D01*
X113483241Y-105694379D01*
X113561090Y-105454785D01*
X113581881Y-105323513D01*
X113600499Y-105205971D01*
X113600500Y-105205959D01*
X113600500Y-104954040D01*
X113600499Y-104954028D01*
X113561090Y-104705217D01*
X113561090Y-104705215D01*
X113483241Y-104465621D01*
X113368870Y-104241155D01*
X113368866Y-104241150D01*
X113368865Y-104241147D01*
X113328696Y-104185860D01*
X113288020Y-104097629D01*
X113284205Y-104000549D01*
X113317832Y-103909399D01*
X113383780Y-103838056D01*
X113472011Y-103797380D01*
X113530140Y-103790500D01*
X114918886Y-103790500D01*
X115014174Y-103809454D01*
X115094956Y-103863430D01*
X118545354Y-107313828D01*
X118704595Y-107429524D01*
X118879974Y-107518884D01*
X118944067Y-107539709D01*
X119067174Y-107579709D01*
X119261583Y-107610500D01*
X119261584Y-107610500D01*
X119458417Y-107610500D01*
X122412066Y-107610500D01*
X122507354Y-107629454D01*
X122588136Y-107683430D01*
X122642112Y-107764212D01*
X122661066Y-107859500D01*
X122642112Y-107954788D01*
X122625155Y-107988317D01*
X122518356Y-108164982D01*
X122424890Y-108397220D01*
X122424886Y-108397233D01*
X122369886Y-108641436D01*
X122359500Y-108788547D01*
X122359500Y-108931452D01*
X122369886Y-109078563D01*
X122424886Y-109322766D01*
X122424890Y-109322779D01*
X122518355Y-109555014D01*
X122647867Y-109769253D01*
X122816565Y-109967579D01*
X122814405Y-109969415D01*
X122858035Y-110034712D01*
X122876989Y-110130000D01*
X122858035Y-110225288D01*
X122814405Y-110290584D01*
X122816565Y-110292421D01*
X122647867Y-110490746D01*
X122518355Y-110704985D01*
X122424890Y-110937220D01*
X122424886Y-110937233D01*
X122369886Y-111181436D01*
X122359500Y-111328547D01*
X122359500Y-111471452D01*
X122369886Y-111618563D01*
X122424886Y-111862766D01*
X122424890Y-111862779D01*
X122518355Y-112095014D01*
X122647867Y-112309253D01*
X122810057Y-112499928D01*
X122810064Y-112499936D01*
X122810070Y-112499941D01*
X122810071Y-112499942D01*
X122979725Y-112644251D01*
X123040027Y-112720427D01*
X123066587Y-112813881D01*
X123055361Y-112910386D01*
X123008060Y-112995248D01*
X122994465Y-113009985D01*
X122931517Y-113072933D01*
X122931498Y-113072954D01*
X122868713Y-113149458D01*
X122781157Y-113280494D01*
X122734484Y-113367814D01*
X122674187Y-113513385D01*
X122674179Y-113513406D01*
X122645447Y-113608122D01*
X122629161Y-113690000D01*
X124276988Y-113690000D01*
X124244075Y-113747007D01*
X124210000Y-113874174D01*
X124210000Y-114005826D01*
X124244075Y-114132993D01*
X124276988Y-114190000D01*
X122629161Y-114190000D01*
X122645447Y-114271877D01*
X122674179Y-114366593D01*
X122674187Y-114366614D01*
X122734484Y-114512185D01*
X122781157Y-114599505D01*
X122868713Y-114730541D01*
X122931498Y-114807045D01*
X122931507Y-114807055D01*
X122994464Y-114870012D01*
X123048440Y-114950794D01*
X123067394Y-115046082D01*
X123048440Y-115141370D01*
X122994464Y-115222152D01*
X122979726Y-115235748D01*
X122810066Y-115380062D01*
X122810057Y-115380071D01*
X122647867Y-115570746D01*
X122518355Y-115784985D01*
X122424890Y-116017220D01*
X122424886Y-116017233D01*
X122369886Y-116261436D01*
X122359500Y-116408547D01*
X122359500Y-116551452D01*
X122369886Y-116698563D01*
X122424886Y-116942766D01*
X122424890Y-116942779D01*
X122518355Y-117175014D01*
X122647867Y-117389253D01*
X122816565Y-117587579D01*
X122814405Y-117589415D01*
X122858035Y-117654712D01*
X122876989Y-117750000D01*
X122858035Y-117845288D01*
X122814405Y-117910584D01*
X122816565Y-117912421D01*
X122647867Y-118110746D01*
X122518355Y-118324985D01*
X122424890Y-118557220D01*
X122424886Y-118557233D01*
X122369886Y-118801436D01*
X122359500Y-118948547D01*
X122359500Y-119091452D01*
X122369886Y-119238563D01*
X122424886Y-119482766D01*
X122424890Y-119482779D01*
X122518355Y-119715014D01*
X122647867Y-119929253D01*
X122816565Y-120127579D01*
X122814405Y-120129415D01*
X122858035Y-120194712D01*
X122876989Y-120290000D01*
X122858035Y-120385288D01*
X122814405Y-120450584D01*
X122816565Y-120452421D01*
X122647867Y-120650746D01*
X122518355Y-120864985D01*
X122424890Y-121097220D01*
X122424886Y-121097233D01*
X122369886Y-121341436D01*
X122359500Y-121488547D01*
X122359500Y-121631452D01*
X122369886Y-121778563D01*
X122424886Y-122022766D01*
X122424890Y-122022779D01*
X122518355Y-122255014D01*
X122647867Y-122469253D01*
X122816565Y-122667579D01*
X122814405Y-122669415D01*
X122858035Y-122734712D01*
X122876989Y-122830000D01*
X122858035Y-122925288D01*
X122814405Y-122990584D01*
X122816565Y-122992421D01*
X122647867Y-123190746D01*
X122518355Y-123404985D01*
X122424890Y-123637220D01*
X122424886Y-123637233D01*
X122369886Y-123881436D01*
X122359500Y-124028547D01*
X122359500Y-124171452D01*
X122369886Y-124318563D01*
X122424886Y-124562766D01*
X122424890Y-124562779D01*
X122518355Y-124795014D01*
X122647867Y-125009253D01*
X122784195Y-125169524D01*
X122810064Y-125199936D01*
X122810070Y-125199941D01*
X122810071Y-125199942D01*
X122979725Y-125344251D01*
X123040027Y-125420427D01*
X123066587Y-125513881D01*
X123055361Y-125610386D01*
X123008060Y-125695248D01*
X122994465Y-125709985D01*
X122931517Y-125772933D01*
X122931498Y-125772954D01*
X122868713Y-125849458D01*
X122781157Y-125980494D01*
X122734484Y-126067814D01*
X122674187Y-126213385D01*
X122674179Y-126213406D01*
X122645447Y-126308122D01*
X122629161Y-126390000D01*
X124276988Y-126390000D01*
X124244075Y-126447007D01*
X124210000Y-126574174D01*
X124210000Y-126705826D01*
X124244075Y-126832993D01*
X124276988Y-126890000D01*
X122629161Y-126890000D01*
X122645447Y-126971877D01*
X122674179Y-127066593D01*
X122674187Y-127066614D01*
X122734484Y-127212185D01*
X122781157Y-127299505D01*
X122868713Y-127430541D01*
X122931498Y-127507045D01*
X122931507Y-127507055D01*
X122968882Y-127544430D01*
X123022858Y-127625212D01*
X123041812Y-127720500D01*
X123022858Y-127815788D01*
X122968882Y-127896570D01*
X122888100Y-127950546D01*
X122792812Y-127969500D01*
X119783220Y-127969500D01*
X119687932Y-127950546D01*
X119607151Y-127896571D01*
X119568412Y-127857832D01*
X119521661Y-127811081D01*
X119521656Y-127811077D01*
X119521655Y-127811076D01*
X119339621Y-127671396D01*
X119339622Y-127671396D01*
X119339612Y-127671389D01*
X119339602Y-127671383D01*
X119140893Y-127556658D01*
X119140882Y-127556653D01*
X118928885Y-127468841D01*
X118785944Y-127430541D01*
X118707238Y-127409452D01*
X118707235Y-127409451D01*
X118707236Y-127409451D01*
X118479734Y-127379500D01*
X118250266Y-127379500D01*
X118022765Y-127409451D01*
X117801114Y-127468841D01*
X117589117Y-127556653D01*
X117589106Y-127556658D01*
X117390397Y-127671383D01*
X117390378Y-127671396D01*
X117208344Y-127811076D01*
X117122849Y-127896571D01*
X117042067Y-127950547D01*
X116946780Y-127969500D01*
X113283220Y-127969500D01*
X113187932Y-127950546D01*
X113107151Y-127896571D01*
X113068412Y-127857832D01*
X113021661Y-127811081D01*
X113021656Y-127811077D01*
X113021655Y-127811076D01*
X112839621Y-127671396D01*
X112839622Y-127671396D01*
X112839612Y-127671389D01*
X112839602Y-127671383D01*
X112640893Y-127556658D01*
X112640882Y-127556653D01*
X112428885Y-127468841D01*
X112285944Y-127430541D01*
X112207238Y-127409452D01*
X112207235Y-127409451D01*
X112207236Y-127409451D01*
X111979734Y-127379500D01*
X111750266Y-127379500D01*
X111522765Y-127409451D01*
X111301114Y-127468841D01*
X111089117Y-127556653D01*
X111089106Y-127556658D01*
X110890397Y-127671383D01*
X110890378Y-127671396D01*
X110708344Y-127811076D01*
X110546076Y-127973344D01*
X110406396Y-128155378D01*
X110406383Y-128155397D01*
X110291658Y-128354106D01*
X110291655Y-128354112D01*
X110230976Y-128500605D01*
X110176999Y-128581386D01*
X110096217Y-128635362D01*
X110000929Y-128654316D01*
X109905641Y-128635362D01*
X109824860Y-128581386D01*
X109438430Y-128194956D01*
X109384454Y-128114174D01*
X109365500Y-128018886D01*
X109365500Y-127410536D01*
X109384454Y-127315248D01*
X109392639Y-127297492D01*
X109408172Y-127267007D01*
X109459231Y-127166799D01*
X109529784Y-126949660D01*
X109565500Y-126724157D01*
X109565500Y-126495843D01*
X109529784Y-126270340D01*
X109459231Y-126053201D01*
X109355579Y-125849772D01*
X109221379Y-125665063D01*
X109059937Y-125503621D01*
X108875228Y-125369421D01*
X108875224Y-125369419D01*
X108875224Y-125369418D01*
X108671799Y-125265769D01*
X108671794Y-125265767D01*
X108551048Y-125226534D01*
X108454660Y-125195216D01*
X108454658Y-125195215D01*
X108454656Y-125195215D01*
X108229168Y-125159501D01*
X108229159Y-125159500D01*
X108229157Y-125159500D01*
X108000843Y-125159500D01*
X108000840Y-125159500D01*
X108000831Y-125159501D01*
X107775343Y-125195215D01*
X107558205Y-125265767D01*
X107558200Y-125265769D01*
X107354775Y-125369418D01*
X107354774Y-125369419D01*
X107354772Y-125369421D01*
X107284569Y-125420427D01*
X107170065Y-125503619D01*
X107008619Y-125665065D01*
X106987024Y-125694788D01*
X106874650Y-125849458D01*
X106874420Y-125849774D01*
X106874418Y-125849775D01*
X106770769Y-126053200D01*
X106770767Y-126053205D01*
X106700215Y-126270343D01*
X106664501Y-126495831D01*
X106664500Y-126495847D01*
X106664500Y-126724152D01*
X106664501Y-126724168D01*
X106700215Y-126949656D01*
X106700216Y-126949660D01*
X106770769Y-127166799D01*
X106821828Y-127267007D01*
X106837361Y-127297492D01*
X106863732Y-127391000D01*
X106864500Y-127410536D01*
X106864500Y-128738412D01*
X106864501Y-128738428D01*
X106895290Y-128932823D01*
X106931982Y-129045751D01*
X106956116Y-129120026D01*
X107045476Y-129295405D01*
X107161172Y-129454646D01*
X108731511Y-131024985D01*
X110281171Y-132574645D01*
X110281172Y-132574646D01*
X110281171Y-132574646D01*
X110414036Y-132707510D01*
X110420354Y-132713828D01*
X110579595Y-132829524D01*
X110754975Y-132918884D01*
X110754978Y-132918885D01*
X110754985Y-132918888D01*
X110880547Y-132959685D01*
X110880549Y-132959686D01*
X110901091Y-132966360D01*
X110942173Y-132979709D01*
X110942175Y-132979709D01*
X110942177Y-132979710D01*
X111066840Y-132999454D01*
X111136583Y-133010500D01*
X111333416Y-133010500D01*
X112351000Y-133010500D01*
X112446288Y-133029454D01*
X112527070Y-133083430D01*
X112581046Y-133164212D01*
X112600000Y-133259500D01*
X112600000Y-134250500D01*
X112581046Y-134345788D01*
X112527070Y-134426570D01*
X112446288Y-134480546D01*
X112351000Y-134499500D01*
X106427437Y-134499500D01*
X106399971Y-134494036D01*
X106371982Y-134493246D01*
X106352782Y-134484650D01*
X106332149Y-134480546D01*
X106283309Y-134453547D01*
X106245304Y-134426570D01*
X106141924Y-134353187D01*
X106120103Y-134335778D01*
X106005084Y-134232943D01*
X105890071Y-134130113D01*
X105870326Y-134110358D01*
X105789731Y-134020124D01*
X105664779Y-133880227D01*
X105647382Y-133858400D01*
X105585482Y-133771105D01*
X105546381Y-133715961D01*
X105506726Y-133627267D01*
X105500500Y-133571934D01*
X105500500Y-124511951D01*
X110365000Y-124511951D01*
X110365000Y-124748048D01*
X110365001Y-124748063D01*
X110401934Y-124981247D01*
X110474893Y-125205795D01*
X110582088Y-125416176D01*
X110642339Y-125499105D01*
X111341211Y-124800232D01*
X111352482Y-124842292D01*
X111424890Y-124967708D01*
X111527292Y-125070110D01*
X111652708Y-125142518D01*
X111694764Y-125153787D01*
X110995893Y-125852659D01*
X111078823Y-125912911D01*
X111289204Y-126020106D01*
X111513752Y-126093065D01*
X111746936Y-126129998D01*
X111746951Y-126130000D01*
X111983049Y-126130000D01*
X111983063Y-126129998D01*
X112216247Y-126093065D01*
X112440795Y-126020106D01*
X112651177Y-125912910D01*
X112734105Y-125852659D01*
X112035233Y-125153787D01*
X112077292Y-125142518D01*
X112202708Y-125070110D01*
X112305110Y-124967708D01*
X112377518Y-124842292D01*
X112388787Y-124800233D01*
X113087659Y-125499105D01*
X113147910Y-125416177D01*
X113255106Y-125205795D01*
X113328065Y-124981247D01*
X113364998Y-124748063D01*
X113365000Y-124748048D01*
X113365000Y-124511951D01*
X116865000Y-124511951D01*
X116865000Y-124748048D01*
X116865001Y-124748063D01*
X116901934Y-124981247D01*
X116974893Y-125205795D01*
X117082088Y-125416176D01*
X117142339Y-125499105D01*
X117841211Y-124800232D01*
X117852482Y-124842292D01*
X117924890Y-124967708D01*
X118027292Y-125070110D01*
X118152708Y-125142518D01*
X118194764Y-125153787D01*
X117495893Y-125852659D01*
X117578823Y-125912911D01*
X117789204Y-126020106D01*
X118013752Y-126093065D01*
X118246936Y-126129998D01*
X118246951Y-126130000D01*
X118483049Y-126130000D01*
X118483063Y-126129998D01*
X118716247Y-126093065D01*
X118940795Y-126020106D01*
X119151177Y-125912910D01*
X119234105Y-125852659D01*
X118535233Y-125153787D01*
X118577292Y-125142518D01*
X118702708Y-125070110D01*
X118805110Y-124967708D01*
X118877518Y-124842292D01*
X118888787Y-124800233D01*
X119587659Y-125499105D01*
X119647910Y-125416177D01*
X119755106Y-125205795D01*
X119828065Y-124981247D01*
X119864998Y-124748063D01*
X119865000Y-124748048D01*
X119865000Y-124511951D01*
X119864998Y-124511936D01*
X119828065Y-124278752D01*
X119755106Y-124054204D01*
X119647911Y-123843823D01*
X119587659Y-123760893D01*
X118888787Y-124459764D01*
X118877518Y-124417708D01*
X118805110Y-124292292D01*
X118702708Y-124189890D01*
X118577292Y-124117482D01*
X118535232Y-124106211D01*
X119234105Y-123407339D01*
X119151176Y-123347088D01*
X118940795Y-123239893D01*
X118716247Y-123166934D01*
X118483063Y-123130001D01*
X118483049Y-123130000D01*
X118246951Y-123130000D01*
X118246936Y-123130001D01*
X118013752Y-123166934D01*
X117789204Y-123239894D01*
X117789199Y-123239896D01*
X117578833Y-123347082D01*
X117495894Y-123407340D01*
X118194766Y-124106212D01*
X118152708Y-124117482D01*
X118027292Y-124189890D01*
X117924890Y-124292292D01*
X117852482Y-124417708D01*
X117841212Y-124459766D01*
X117142340Y-123760894D01*
X117082082Y-123843833D01*
X116974896Y-124054199D01*
X116974894Y-124054204D01*
X116901934Y-124278752D01*
X116865001Y-124511936D01*
X116865000Y-124511951D01*
X113365000Y-124511951D01*
X113364998Y-124511936D01*
X113328065Y-124278752D01*
X113255106Y-124054204D01*
X113147911Y-123843823D01*
X113087659Y-123760893D01*
X112388787Y-124459764D01*
X112377518Y-124417708D01*
X112305110Y-124292292D01*
X112202708Y-124189890D01*
X112077292Y-124117482D01*
X112035232Y-124106211D01*
X112734105Y-123407339D01*
X112651176Y-123347088D01*
X112440795Y-123239893D01*
X112216247Y-123166934D01*
X111983063Y-123130001D01*
X111983049Y-123130000D01*
X111746951Y-123130000D01*
X111746936Y-123130001D01*
X111513752Y-123166934D01*
X111289204Y-123239894D01*
X111289199Y-123239896D01*
X111078833Y-123347082D01*
X110995894Y-123407340D01*
X111694766Y-124106212D01*
X111652708Y-124117482D01*
X111527292Y-124189890D01*
X111424890Y-124292292D01*
X111352482Y-124417708D01*
X111341212Y-124459766D01*
X110642340Y-123760894D01*
X110582082Y-123843833D01*
X110474896Y-124054199D01*
X110474894Y-124054204D01*
X110401934Y-124278752D01*
X110365001Y-124511936D01*
X110365000Y-124511951D01*
X105500500Y-124511951D01*
X105500500Y-115510107D01*
X106464500Y-115510107D01*
X106464500Y-115769892D01*
X106464501Y-115769908D01*
X106505138Y-116026487D01*
X106505140Y-116026493D01*
X106585419Y-116273567D01*
X106585423Y-116273577D01*
X106703365Y-116505050D01*
X106722346Y-116531175D01*
X106815256Y-116659055D01*
X106816945Y-116661379D01*
X106857620Y-116749610D01*
X106864500Y-116807738D01*
X106864500Y-120729463D01*
X106845546Y-120824751D01*
X106837361Y-120842506D01*
X106770769Y-120973200D01*
X106770767Y-120973205D01*
X106700215Y-121190343D01*
X106664501Y-121415831D01*
X106664500Y-121415847D01*
X106664500Y-121644152D01*
X106664501Y-121644168D01*
X106700215Y-121869656D01*
X106770767Y-122086794D01*
X106770769Y-122086799D01*
X106874418Y-122290224D01*
X106874419Y-122290224D01*
X106874421Y-122290228D01*
X107008621Y-122474937D01*
X107170063Y-122636379D01*
X107354772Y-122770579D01*
X107354774Y-122770580D01*
X107354775Y-122770581D01*
X107454473Y-122821379D01*
X107558201Y-122874231D01*
X107775340Y-122944784D01*
X108000843Y-122980500D01*
X108000847Y-122980500D01*
X108229153Y-122980500D01*
X108229157Y-122980500D01*
X108454660Y-122944784D01*
X108671799Y-122874231D01*
X108875228Y-122770579D01*
X109059937Y-122636379D01*
X109221379Y-122474937D01*
X109355579Y-122290228D01*
X109459231Y-122086799D01*
X109529784Y-121869660D01*
X109565500Y-121644157D01*
X109565500Y-121415843D01*
X109529784Y-121190340D01*
X109459231Y-120973201D01*
X109392639Y-120842506D01*
X109366268Y-120748999D01*
X109365500Y-120729463D01*
X109365500Y-118059562D01*
X112399500Y-118059562D01*
X112399500Y-118340437D01*
X112430945Y-118619510D01*
X112493440Y-118893318D01*
X112586195Y-119158399D01*
X112586201Y-119158413D01*
X112708056Y-119411447D01*
X112708059Y-119411453D01*
X112857476Y-119649247D01*
X112893866Y-119694878D01*
X113032584Y-119868825D01*
X113231175Y-120067416D01*
X113309056Y-120129524D01*
X113450752Y-120242523D01*
X113688546Y-120391940D01*
X113688551Y-120391942D01*
X113688555Y-120391945D01*
X113941592Y-120513801D01*
X113941597Y-120513802D01*
X113941600Y-120513804D01*
X113985905Y-120529306D01*
X114206682Y-120606560D01*
X114480491Y-120669055D01*
X114654917Y-120688708D01*
X114759562Y-120700499D01*
X114759575Y-120700500D01*
X115040425Y-120700500D01*
X115040437Y-120700499D01*
X115119711Y-120691566D01*
X115319509Y-120669055D01*
X115593318Y-120606560D01*
X115858408Y-120513801D01*
X116111445Y-120391945D01*
X116349248Y-120242523D01*
X116568825Y-120067416D01*
X116767416Y-119868825D01*
X116942523Y-119649248D01*
X117091945Y-119411445D01*
X117213801Y-119158408D01*
X117306560Y-118893318D01*
X117369055Y-118619509D01*
X117391566Y-118419711D01*
X117400499Y-118340437D01*
X117400500Y-118340424D01*
X117400500Y-118059575D01*
X117400499Y-118059562D01*
X117376881Y-117849949D01*
X117369055Y-117780491D01*
X117306560Y-117506682D01*
X117213801Y-117241592D01*
X117091945Y-116988555D01*
X117091942Y-116988551D01*
X117091940Y-116988546D01*
X116942523Y-116750752D01*
X116900900Y-116698558D01*
X116767416Y-116531175D01*
X116568825Y-116332584D01*
X116349248Y-116157477D01*
X116349249Y-116157477D01*
X116349247Y-116157476D01*
X116111453Y-116008059D01*
X116111447Y-116008056D01*
X115858413Y-115886201D01*
X115858399Y-115886195D01*
X115670570Y-115820471D01*
X115593318Y-115793440D01*
X115593320Y-115793440D01*
X115319510Y-115730945D01*
X115040437Y-115699500D01*
X115040425Y-115699500D01*
X114759575Y-115699500D01*
X114759562Y-115699500D01*
X114480489Y-115730945D01*
X114206681Y-115793440D01*
X113941600Y-115886195D01*
X113941586Y-115886201D01*
X113688552Y-116008056D01*
X113688546Y-116008059D01*
X113450752Y-116157476D01*
X113231178Y-116332581D01*
X113231170Y-116332588D01*
X113032588Y-116531170D01*
X113032581Y-116531178D01*
X112857476Y-116750752D01*
X112708059Y-116988546D01*
X112708056Y-116988552D01*
X112586201Y-117241586D01*
X112586195Y-117241600D01*
X112493440Y-117506681D01*
X112430945Y-117780489D01*
X112399500Y-118059562D01*
X109365500Y-118059562D01*
X109365500Y-116807738D01*
X109384454Y-116712450D01*
X109413055Y-116661379D01*
X109526634Y-116505051D01*
X109644579Y-116273572D01*
X109724860Y-116026493D01*
X109765500Y-115769897D01*
X109765500Y-115510103D01*
X109724860Y-115253507D01*
X109644579Y-115006428D01*
X109554896Y-114830417D01*
X109526634Y-114774949D01*
X109463270Y-114687736D01*
X109404477Y-114606814D01*
X109363803Y-114518585D01*
X109359989Y-114421505D01*
X109393615Y-114330355D01*
X109406590Y-114311234D01*
X109458353Y-114242088D01*
X109508596Y-114107378D01*
X109508598Y-114107371D01*
X109514999Y-114047832D01*
X109515000Y-114047825D01*
X109515000Y-113350001D01*
X109514999Y-113350000D01*
X108490278Y-113350000D01*
X108534333Y-113273694D01*
X108565000Y-113159244D01*
X108565000Y-113040756D01*
X108534333Y-112926306D01*
X108490278Y-112850000D01*
X109514999Y-112850000D01*
X109515000Y-112849999D01*
X109515000Y-112152175D01*
X109514999Y-112152167D01*
X109508598Y-112092628D01*
X109508596Y-112092621D01*
X109458353Y-111957912D01*
X109372189Y-111842812D01*
X109372187Y-111842810D01*
X109257087Y-111756646D01*
X109122378Y-111706403D01*
X109122371Y-111706401D01*
X109062832Y-111700000D01*
X108365001Y-111700000D01*
X108365000Y-111700001D01*
X108365000Y-112724722D01*
X108288694Y-112680667D01*
X108174244Y-112650000D01*
X108055756Y-112650000D01*
X107941306Y-112680667D01*
X107865000Y-112724722D01*
X107865000Y-111700001D01*
X107864999Y-111700000D01*
X107167167Y-111700000D01*
X107107628Y-111706401D01*
X107107621Y-111706403D01*
X106972912Y-111756646D01*
X106857812Y-111842810D01*
X106857810Y-111842812D01*
X106771646Y-111957912D01*
X106721403Y-112092621D01*
X106721401Y-112092628D01*
X106715000Y-112152167D01*
X106715000Y-112849999D01*
X106715001Y-112850000D01*
X107739722Y-112850000D01*
X107695667Y-112926306D01*
X107665000Y-113040756D01*
X107665000Y-113159244D01*
X107695667Y-113273694D01*
X107739722Y-113350000D01*
X106715001Y-113350000D01*
X106715000Y-113350001D01*
X106715000Y-114047832D01*
X106721401Y-114107371D01*
X106721403Y-114107378D01*
X106771647Y-114242090D01*
X106823410Y-114311236D01*
X106865341Y-114398877D01*
X106870542Y-114495892D01*
X106838220Y-114587513D01*
X106825521Y-114606815D01*
X106703368Y-114774944D01*
X106703365Y-114774948D01*
X106585423Y-115006422D01*
X106585419Y-115006432D01*
X106505140Y-115253506D01*
X106505138Y-115253512D01*
X106464501Y-115510091D01*
X106464500Y-115510107D01*
X105500500Y-115510107D01*
X105500500Y-96102167D01*
X106150000Y-96102167D01*
X106150000Y-96749999D01*
X106150001Y-96750000D01*
X107066988Y-96750000D01*
X107034075Y-96807007D01*
X107000000Y-96934174D01*
X107000000Y-97065826D01*
X107034075Y-97192993D01*
X107066988Y-97250000D01*
X106150001Y-97250000D01*
X106150000Y-97250001D01*
X106150000Y-97897832D01*
X106156401Y-97957371D01*
X106156403Y-97957378D01*
X106206646Y-98092087D01*
X106292810Y-98207187D01*
X106292812Y-98207189D01*
X106407912Y-98293353D01*
X106542621Y-98343596D01*
X106542628Y-98343598D01*
X106602167Y-98349999D01*
X106602175Y-98350000D01*
X107249999Y-98350000D01*
X107250000Y-98349999D01*
X107250000Y-97433012D01*
X107307007Y-97465925D01*
X107434174Y-97500000D01*
X107565826Y-97500000D01*
X107692993Y-97465925D01*
X107750000Y-97433012D01*
X107750000Y-98349999D01*
X107750001Y-98350000D01*
X108397825Y-98350000D01*
X108397832Y-98349999D01*
X108457371Y-98343598D01*
X108457378Y-98343596D01*
X108592087Y-98293353D01*
X108707187Y-98207189D01*
X108707189Y-98207187D01*
X108793353Y-98092087D01*
X108843596Y-97957378D01*
X108843598Y-97957371D01*
X108849999Y-97897832D01*
X108850000Y-97897825D01*
X108850000Y-97250001D01*
X108849999Y-97250000D01*
X107933012Y-97250000D01*
X107965925Y-97192993D01*
X108000000Y-97065826D01*
X108000000Y-96934174D01*
X107965925Y-96807007D01*
X107933012Y-96750000D01*
X108849999Y-96750000D01*
X108850000Y-96749999D01*
X108850000Y-96102175D01*
X108849999Y-96102167D01*
X108843598Y-96042628D01*
X108843596Y-96042621D01*
X108793353Y-95907912D01*
X108707189Y-95792812D01*
X108707187Y-95792810D01*
X108592087Y-95706646D01*
X108457378Y-95656403D01*
X108457371Y-95656401D01*
X108397832Y-95650000D01*
X107750001Y-95650000D01*
X107750000Y-95650001D01*
X107750000Y-96566988D01*
X107692993Y-96534075D01*
X107565826Y-96500000D01*
X107434174Y-96500000D01*
X107307007Y-96534075D01*
X107250000Y-96566988D01*
X107250000Y-95650001D01*
X107249999Y-95650000D01*
X106602167Y-95650000D01*
X106542628Y-95656401D01*
X106542621Y-95656403D01*
X106407912Y-95706646D01*
X106292812Y-95792810D01*
X106292810Y-95792812D01*
X106206646Y-95907912D01*
X106156403Y-96042621D01*
X106156401Y-96042628D01*
X106150000Y-96102167D01*
X105500500Y-96102167D01*
X105500500Y-95983942D01*
X105519454Y-95888654D01*
X105552909Y-95831124D01*
X105662831Y-95689721D01*
X105682532Y-95667296D01*
X105883310Y-95464679D01*
X105905531Y-95444796D01*
X106129135Y-95267679D01*
X106153602Y-95250583D01*
X106396794Y-95101530D01*
X106423133Y-95087488D01*
X106682416Y-94968638D01*
X106710251Y-94957850D01*
X106981904Y-94870908D01*
X107010834Y-94863530D01*
X107290945Y-94809748D01*
X107320545Y-94805888D01*
X107612547Y-94785519D01*
X107627472Y-94784928D01*
X110220000Y-94760000D01*
X110220102Y-93909470D01*
X110230031Y-93859582D01*
X110239056Y-93814212D01*
X110239063Y-93814200D01*
X110239067Y-93814184D01*
X110267421Y-93771759D01*
X110293032Y-93733430D01*
X110293044Y-93733421D01*
X110293053Y-93733409D01*
X110333239Y-93706564D01*
X110373814Y-93679454D01*
X110373828Y-93679451D01*
X110373841Y-93679443D01*
X110469102Y-93660500D01*
X110500500Y-93660500D01*
X110595788Y-93679454D01*
G37*
%TD.AperFunction*%
%TA.AperFunction,Conductor*%
G36*
X148661421Y-80519454D02*
G01*
X148710129Y-80546360D01*
X148855672Y-80649534D01*
X148877511Y-80666938D01*
X149107895Y-80872705D01*
X149127659Y-80892461D01*
X149333508Y-81122748D01*
X149350941Y-81144605D01*
X149452358Y-81287547D01*
X149492037Y-81376228D01*
X149498279Y-81431842D01*
X149474279Y-109607541D01*
X149474265Y-109623900D01*
X149474210Y-109624108D01*
X149474210Y-109689513D01*
X149474210Y-109689935D01*
X149474153Y-109755476D01*
X149474207Y-109755881D01*
X149474210Y-109755892D01*
X149491230Y-109819413D01*
X149508154Y-109882789D01*
X149508261Y-109882975D01*
X149508318Y-109883186D01*
X149541072Y-109939918D01*
X149552607Y-109959936D01*
X149573951Y-109996978D01*
X149574164Y-109997256D01*
X149574206Y-109997310D01*
X149574210Y-109997314D01*
X149620501Y-110043605D01*
X149667055Y-110090238D01*
X149667062Y-110090242D01*
X149667389Y-110090493D01*
X149667396Y-110090500D01*
X149724494Y-110123465D01*
X149781127Y-110156227D01*
X149781130Y-110156228D01*
X149781519Y-110156389D01*
X149781524Y-110156392D01*
X149845021Y-110173405D01*
X149908392Y-110190444D01*
X149908609Y-110190444D01*
X149908818Y-110190500D01*
X149908822Y-110190500D01*
X149974284Y-110190500D01*
X150040176Y-110190556D01*
X150040176Y-110190555D01*
X150055732Y-110190569D01*
X150056799Y-110190500D01*
X179562726Y-110190500D01*
X179590215Y-110195968D01*
X179618228Y-110196765D01*
X179637403Y-110205354D01*
X179658014Y-110209454D01*
X179706889Y-110236478D01*
X179859944Y-110345166D01*
X179881747Y-110362567D01*
X180111581Y-110568102D01*
X180131312Y-110587845D01*
X180336703Y-110817816D01*
X180354098Y-110839642D01*
X180453611Y-110979967D01*
X180493271Y-111068657D01*
X180499500Y-111124004D01*
X180499500Y-133574054D01*
X180494041Y-133601494D01*
X180493257Y-133629463D01*
X180484654Y-133648687D01*
X180480546Y-133669342D01*
X180453574Y-133718144D01*
X180353583Y-133859067D01*
X180336174Y-133880897D01*
X180130638Y-134110893D01*
X180110893Y-134130638D01*
X179880895Y-134336176D01*
X179859065Y-134353585D01*
X179718145Y-134453574D01*
X179629464Y-134493257D01*
X179574055Y-134499500D01*
X170782035Y-134499500D01*
X170686747Y-134480546D01*
X170605965Y-134426570D01*
X170551989Y-134345788D01*
X170533035Y-134250500D01*
X170551989Y-134155212D01*
X170605962Y-134074433D01*
X172873828Y-131806568D01*
X172989524Y-131647327D01*
X172997546Y-131631583D01*
X173078884Y-131471947D01*
X173132084Y-131308215D01*
X173139709Y-131284749D01*
X173170500Y-131090339D01*
X173170500Y-131012485D01*
X173172992Y-130995003D01*
X173183355Y-130965512D01*
X173189454Y-130934852D01*
X173199316Y-130920091D01*
X173205202Y-130903343D01*
X173226061Y-130880063D01*
X173243430Y-130854070D01*
X173258193Y-130844205D01*
X173270038Y-130830987D01*
X173298216Y-130817463D01*
X173324212Y-130800094D01*
X173341624Y-130796630D01*
X173357628Y-130788950D01*
X173388837Y-130787239D01*
X173419500Y-130781140D01*
X173436912Y-130784603D01*
X173454637Y-130783632D01*
X173484127Y-130793995D01*
X173514788Y-130800094D01*
X173537198Y-130812644D01*
X173546297Y-130815842D01*
X173551945Y-130820903D01*
X173565860Y-130828696D01*
X173621147Y-130868865D01*
X173621150Y-130868866D01*
X173621155Y-130868870D01*
X173845621Y-130983241D01*
X174085215Y-131061090D01*
X174172729Y-131074951D01*
X174334028Y-131100499D01*
X174334035Y-131100499D01*
X174334038Y-131100500D01*
X174334041Y-131100500D01*
X174585959Y-131100500D01*
X174585962Y-131100500D01*
X174585965Y-131100499D01*
X174585971Y-131100499D01*
X174703513Y-131081881D01*
X174834785Y-131061090D01*
X175074379Y-130983241D01*
X175298845Y-130868870D01*
X175502656Y-130720793D01*
X175553933Y-130669515D01*
X175634712Y-130615542D01*
X175730000Y-130596588D01*
X175825288Y-130615542D01*
X175906066Y-130669515D01*
X175957344Y-130720793D01*
X176161155Y-130868870D01*
X176385621Y-130983241D01*
X176625215Y-131061090D01*
X176712729Y-131074951D01*
X176874028Y-131100499D01*
X176874035Y-131100499D01*
X176874038Y-131100500D01*
X176874041Y-131100500D01*
X177125959Y-131100500D01*
X177125962Y-131100500D01*
X177125965Y-131100499D01*
X177125971Y-131100499D01*
X177243513Y-131081881D01*
X177374785Y-131061090D01*
X177614379Y-130983241D01*
X177838845Y-130868870D01*
X178042656Y-130720793D01*
X178220793Y-130542656D01*
X178368870Y-130338845D01*
X178483241Y-130114379D01*
X178561090Y-129874785D01*
X178581881Y-129743513D01*
X178600499Y-129625971D01*
X178600500Y-129625959D01*
X178600500Y-129374040D01*
X178600499Y-129374028D01*
X178561090Y-129125217D01*
X178561090Y-129125215D01*
X178483241Y-128885621D01*
X178368870Y-128661155D01*
X178220793Y-128457344D01*
X178169515Y-128406066D01*
X178115542Y-128325288D01*
X178096588Y-128230000D01*
X178115542Y-128134712D01*
X178169515Y-128053933D01*
X178220793Y-128002656D01*
X178368870Y-127798845D01*
X178483241Y-127574379D01*
X178561090Y-127334785D01*
X178587697Y-127166799D01*
X178600499Y-127085971D01*
X178600500Y-127085959D01*
X178600500Y-126834040D01*
X178600499Y-126834028D01*
X178571825Y-126652993D01*
X178561090Y-126585215D01*
X178483241Y-126345621D01*
X178368870Y-126121155D01*
X178298053Y-126023684D01*
X178257380Y-125935454D01*
X178250500Y-125877327D01*
X178250500Y-122401587D01*
X178250498Y-122401571D01*
X178219710Y-122207180D01*
X178219709Y-122207176D01*
X178219709Y-122207174D01*
X178205578Y-122163685D01*
X178181694Y-122090178D01*
X178158884Y-122019975D01*
X178069524Y-121844595D01*
X177953828Y-121685354D01*
X177899910Y-121631436D01*
X177814646Y-121546171D01*
X177814646Y-121546172D01*
X177814645Y-121546171D01*
X174154646Y-117886172D01*
X170318036Y-114049562D01*
X173879500Y-114049562D01*
X173879500Y-114330437D01*
X173910945Y-114609510D01*
X173973440Y-114883318D01*
X174066195Y-115148399D01*
X174066201Y-115148413D01*
X174188056Y-115401447D01*
X174188059Y-115401453D01*
X174337476Y-115639247D01*
X174373866Y-115684878D01*
X174512584Y-115858825D01*
X174711175Y-116057416D01*
X174896811Y-116205456D01*
X174930752Y-116232523D01*
X175168546Y-116381940D01*
X175168551Y-116381942D01*
X175168555Y-116381945D01*
X175421592Y-116503801D01*
X175421597Y-116503802D01*
X175421600Y-116503804D01*
X175425161Y-116505050D01*
X175686682Y-116596560D01*
X175960491Y-116659055D01*
X176134917Y-116678708D01*
X176239562Y-116690499D01*
X176239575Y-116690500D01*
X176520425Y-116690500D01*
X176520437Y-116690499D01*
X176599711Y-116681566D01*
X176799509Y-116659055D01*
X177073318Y-116596560D01*
X177338408Y-116503801D01*
X177591445Y-116381945D01*
X177829248Y-116232523D01*
X178048825Y-116057416D01*
X178247416Y-115858825D01*
X178422523Y-115639248D01*
X178571945Y-115401445D01*
X178693801Y-115148408D01*
X178786560Y-114883318D01*
X178849055Y-114609509D01*
X178880500Y-114330425D01*
X178880500Y-114049575D01*
X178878310Y-114030140D01*
X178859723Y-113865172D01*
X178849055Y-113770491D01*
X178786560Y-113496682D01*
X178693801Y-113231592D01*
X178571945Y-112978555D01*
X178571942Y-112978551D01*
X178571940Y-112978546D01*
X178422523Y-112740752D01*
X178374607Y-112680667D01*
X178247416Y-112521175D01*
X178048825Y-112322584D01*
X177884066Y-112191193D01*
X177829247Y-112147476D01*
X177591453Y-111998059D01*
X177591447Y-111998056D01*
X177338413Y-111876201D01*
X177338399Y-111876195D01*
X177128537Y-111802762D01*
X177073318Y-111783440D01*
X177073320Y-111783440D01*
X176799510Y-111720945D01*
X176520437Y-111689500D01*
X176520425Y-111689500D01*
X176239575Y-111689500D01*
X176239562Y-111689500D01*
X175960489Y-111720945D01*
X175686681Y-111783440D01*
X175421600Y-111876195D01*
X175421586Y-111876201D01*
X175168552Y-111998056D01*
X175168546Y-111998059D01*
X174930752Y-112147476D01*
X174711178Y-112322581D01*
X174711170Y-112322588D01*
X174512588Y-112521170D01*
X174512581Y-112521178D01*
X174337476Y-112740752D01*
X174188059Y-112978546D01*
X174188056Y-112978552D01*
X174066201Y-113231586D01*
X174066195Y-113231600D01*
X173973440Y-113496681D01*
X173910945Y-113770489D01*
X173879500Y-114049562D01*
X170318036Y-114049562D01*
X170133646Y-113865172D01*
X169974405Y-113749476D01*
X169799026Y-113660116D01*
X169799023Y-113660115D01*
X169799021Y-113660114D01*
X169611823Y-113599290D01*
X169417428Y-113568501D01*
X169417419Y-113568500D01*
X169417417Y-113568500D01*
X169417413Y-113568500D01*
X165481495Y-113568500D01*
X165386207Y-113549546D01*
X165305425Y-113495570D01*
X165251449Y-113414788D01*
X165232495Y-113319500D01*
X165244682Y-113242555D01*
X165271751Y-113159244D01*
X165303553Y-113061368D01*
X165340500Y-112828092D01*
X165340500Y-112591908D01*
X165303553Y-112358632D01*
X165230568Y-112134008D01*
X165123343Y-111923567D01*
X165123341Y-111923564D01*
X165123340Y-111923562D01*
X164984521Y-111732495D01*
X164984519Y-111732493D01*
X164984517Y-111732490D01*
X164817510Y-111565483D01*
X164817506Y-111565480D01*
X164817504Y-111565478D01*
X164626437Y-111426659D01*
X164612747Y-111419683D01*
X164415992Y-111319432D01*
X164415989Y-111319431D01*
X164415987Y-111319430D01*
X164291079Y-111278845D01*
X164191368Y-111246447D01*
X164191366Y-111246446D01*
X164191364Y-111246446D01*
X163958103Y-111209501D01*
X163958094Y-111209500D01*
X163958092Y-111209500D01*
X163721908Y-111209500D01*
X163721905Y-111209500D01*
X163721896Y-111209501D01*
X163605226Y-111227980D01*
X163580658Y-111230630D01*
X163551545Y-111232314D01*
X163551539Y-111232315D01*
X162281445Y-111455735D01*
X162238306Y-111459500D01*
X149631114Y-111459500D01*
X149535826Y-111440546D01*
X149455044Y-111386570D01*
X148293430Y-110224956D01*
X148239454Y-110144174D01*
X148220500Y-110048886D01*
X148220500Y-95621587D01*
X148220498Y-95621571D01*
X148195798Y-95465621D01*
X148189709Y-95427174D01*
X148132385Y-95250750D01*
X148128884Y-95239974D01*
X148075289Y-95134788D01*
X148039526Y-95064598D01*
X148039525Y-95064597D01*
X148039524Y-95064595D01*
X147923828Y-94905354D01*
X145724646Y-92706172D01*
X145565405Y-92590476D01*
X145390026Y-92501116D01*
X145390023Y-92501115D01*
X145390021Y-92501114D01*
X145202823Y-92440290D01*
X145008428Y-92409501D01*
X145008419Y-92409500D01*
X145008417Y-92409500D01*
X145008413Y-92409500D01*
X144733364Y-92409500D01*
X144638076Y-92390546D01*
X144557294Y-92336570D01*
X144503318Y-92255788D01*
X144484364Y-92160500D01*
X144503318Y-92065212D01*
X144543696Y-91999171D01*
X144552132Y-91989252D01*
X144552134Y-91989250D01*
X144681644Y-91775015D01*
X144775110Y-91542779D01*
X144830114Y-91298558D01*
X144840500Y-91151446D01*
X144840500Y-91008554D01*
X144830114Y-90861442D01*
X144811861Y-90780399D01*
X144775113Y-90617233D01*
X144775111Y-90617229D01*
X144775110Y-90617221D01*
X144681644Y-90384985D01*
X144552134Y-90170750D01*
X144552132Y-90170746D01*
X144389942Y-89980071D01*
X144389941Y-89980070D01*
X144389936Y-89980064D01*
X144389928Y-89980057D01*
X144220274Y-89835748D01*
X144159972Y-89759572D01*
X144133412Y-89666118D01*
X144144638Y-89569613D01*
X144191939Y-89484751D01*
X144205537Y-89470011D01*
X144268483Y-89407064D01*
X144268501Y-89407045D01*
X144331286Y-89330541D01*
X144418842Y-89199505D01*
X144465515Y-89112185D01*
X144525812Y-88966614D01*
X144525820Y-88966593D01*
X144554552Y-88871877D01*
X144570839Y-88790000D01*
X142923012Y-88790000D01*
X142955925Y-88732993D01*
X142990000Y-88605826D01*
X142990000Y-88474174D01*
X142955925Y-88347007D01*
X142923012Y-88290000D01*
X144570839Y-88290000D01*
X144554552Y-88208122D01*
X144525820Y-88113406D01*
X144525812Y-88113385D01*
X144465512Y-87967805D01*
X144435618Y-87911878D01*
X144407415Y-87818906D01*
X144416938Y-87722219D01*
X144462736Y-87636536D01*
X144537838Y-87574902D01*
X144630810Y-87546699D01*
X144655216Y-87545500D01*
X146393413Y-87545500D01*
X146393417Y-87545500D01*
X146587826Y-87514709D01*
X146775026Y-87453884D01*
X146950405Y-87364524D01*
X147109646Y-87248828D01*
X147953829Y-86404645D01*
X148069524Y-86245405D01*
X148158884Y-86070025D01*
X148219709Y-85882826D01*
X148220478Y-85877973D01*
X148250500Y-85688417D01*
X148250500Y-81901583D01*
X148219709Y-81707174D01*
X148158884Y-81519975D01*
X148115054Y-81433954D01*
X148069524Y-81344594D01*
X147953828Y-81185354D01*
X147694040Y-80925566D01*
X147640067Y-80844788D01*
X147621113Y-80749500D01*
X147640067Y-80654212D01*
X147694043Y-80573430D01*
X147774825Y-80519454D01*
X147870113Y-80500500D01*
X148566133Y-80500500D01*
X148661421Y-80519454D01*
G37*
%TD.AperFunction*%
%TA.AperFunction,Conductor*%
G36*
X158191068Y-124595060D02*
G01*
X158220403Y-124596213D01*
X158238270Y-124604449D01*
X158257566Y-124608288D01*
X158281974Y-124624596D01*
X158308634Y-124636887D01*
X158321989Y-124651334D01*
X158338347Y-124662264D01*
X158354655Y-124686670D01*
X158374584Y-124708229D01*
X158381394Y-124726688D01*
X158392324Y-124743046D01*
X158408212Y-124799379D01*
X158416446Y-124851367D01*
X158489430Y-125075987D01*
X158489432Y-125075992D01*
X158582620Y-125258884D01*
X158596659Y-125286437D01*
X158735478Y-125477504D01*
X158735480Y-125477506D01*
X158735483Y-125477510D01*
X158902490Y-125644517D01*
X158902493Y-125644519D01*
X158902495Y-125644521D01*
X159093562Y-125783340D01*
X159093564Y-125783341D01*
X159093567Y-125783343D01*
X159304008Y-125890568D01*
X159528632Y-125963553D01*
X159761908Y-126000500D01*
X159761912Y-126000500D01*
X159998089Y-126000500D01*
X159998092Y-126000500D01*
X160114799Y-125982015D01*
X160139347Y-125979367D01*
X160168461Y-125977684D01*
X161438547Y-125754265D01*
X161481686Y-125750500D01*
X165246303Y-125750500D01*
X165341591Y-125769454D01*
X165422373Y-125823430D01*
X165476349Y-125904212D01*
X165495303Y-125999500D01*
X165493876Y-126026116D01*
X165490000Y-126062164D01*
X165490000Y-126709999D01*
X165490001Y-126710000D01*
X166406988Y-126710000D01*
X166374075Y-126767007D01*
X166340000Y-126894174D01*
X166340000Y-127025826D01*
X166374075Y-127152993D01*
X166406988Y-127210000D01*
X165490001Y-127210000D01*
X165490000Y-127210001D01*
X165490000Y-127857832D01*
X165498067Y-127932863D01*
X165494014Y-127933298D01*
X165496348Y-127999836D01*
X165462336Y-128090843D01*
X165396086Y-128161907D01*
X165307685Y-128202208D01*
X165210589Y-128205613D01*
X165207441Y-128205080D01*
X164389034Y-128061116D01*
X164168459Y-128022315D01*
X164168455Y-128022314D01*
X164168446Y-128022313D01*
X164168450Y-128022313D01*
X164103700Y-128015815D01*
X164089617Y-128013995D01*
X163998092Y-127999500D01*
X163761908Y-127999500D01*
X163761905Y-127999500D01*
X163761896Y-127999501D01*
X163528635Y-128036446D01*
X163304012Y-128109430D01*
X163093562Y-128216659D01*
X162902495Y-128355478D01*
X162735478Y-128522495D01*
X162596656Y-128713567D01*
X162496281Y-128910563D01*
X162436133Y-128986861D01*
X162351365Y-129034332D01*
X162254884Y-129045751D01*
X162161377Y-129019379D01*
X162098351Y-128973589D01*
X161570934Y-128446172D01*
X161570934Y-128446171D01*
X161390935Y-128266173D01*
X161367987Y-128249500D01*
X161231693Y-128150476D01*
X161056314Y-128061116D01*
X161056311Y-128061115D01*
X161056309Y-128061114D01*
X160869111Y-128000290D01*
X160674716Y-127969501D01*
X160674707Y-127969500D01*
X160674705Y-127969500D01*
X160674701Y-127969500D01*
X144407188Y-127969500D01*
X144311900Y-127950546D01*
X144231118Y-127896570D01*
X144177142Y-127815788D01*
X144158188Y-127720500D01*
X144177142Y-127625212D01*
X144231118Y-127544430D01*
X144268493Y-127507055D01*
X144268501Y-127507045D01*
X144331286Y-127430541D01*
X144418842Y-127299505D01*
X144465515Y-127212185D01*
X144525812Y-127066614D01*
X144525820Y-127066593D01*
X144554552Y-126971877D01*
X144570839Y-126890000D01*
X142923012Y-126890000D01*
X142955925Y-126832993D01*
X142990000Y-126705826D01*
X142990000Y-126574174D01*
X142955925Y-126447007D01*
X142923012Y-126390000D01*
X144570839Y-126390000D01*
X144554552Y-126308122D01*
X144525820Y-126213406D01*
X144525812Y-126213385D01*
X144465515Y-126067814D01*
X144418842Y-125980494D01*
X144331286Y-125849458D01*
X144268501Y-125772954D01*
X144264388Y-125768416D01*
X144265602Y-125767315D01*
X144217142Y-125694788D01*
X144198188Y-125599500D01*
X144217142Y-125504212D01*
X144271118Y-125423430D01*
X144351900Y-125369454D01*
X144447188Y-125350500D01*
X156878413Y-125350500D01*
X156878417Y-125350500D01*
X157072826Y-125319709D01*
X157260026Y-125258884D01*
X157435405Y-125169524D01*
X157594646Y-125053828D01*
X157986211Y-124662262D01*
X158010614Y-124645956D01*
X158032173Y-124626028D01*
X158050632Y-124619217D01*
X158066990Y-124608288D01*
X158095780Y-124602561D01*
X158123323Y-124592400D01*
X158142982Y-124593172D01*
X158162278Y-124589334D01*
X158191068Y-124595060D01*
G37*
%TD.AperFunction*%
%TA.AperFunction,Conductor*%
G36*
X129797752Y-82270454D02*
G01*
X129878534Y-82324430D01*
X129932510Y-82405212D01*
X129951464Y-82500500D01*
X129932510Y-82595788D01*
X129878534Y-82676570D01*
X129844897Y-82710206D01*
X129719950Y-82882182D01*
X129623441Y-83071592D01*
X129557753Y-83273759D01*
X129524500Y-83483703D01*
X129524500Y-83696296D01*
X129557753Y-83906240D01*
X129620638Y-84099781D01*
X129623443Y-84108412D01*
X129719949Y-84297816D01*
X129844896Y-84469792D01*
X129995208Y-84620104D01*
X130167184Y-84745051D01*
X130356588Y-84841557D01*
X130558757Y-84907246D01*
X130632601Y-84918941D01*
X130768703Y-84940499D01*
X130768710Y-84940499D01*
X130768713Y-84940500D01*
X130768716Y-84940500D01*
X130981284Y-84940500D01*
X130981287Y-84940500D01*
X130981290Y-84940499D01*
X130981296Y-84940499D01*
X131080476Y-84924789D01*
X131191243Y-84907246D01*
X131393412Y-84841557D01*
X131582816Y-84745051D01*
X131754792Y-84620104D01*
X131905104Y-84469792D01*
X132030051Y-84297816D01*
X132126557Y-84108412D01*
X132192246Y-83906243D01*
X132225500Y-83696287D01*
X132225500Y-83483713D01*
X132225499Y-83483710D01*
X132225499Y-83483703D01*
X132192246Y-83273759D01*
X132192246Y-83273757D01*
X132126557Y-83071588D01*
X132030051Y-82882184D01*
X131905104Y-82710208D01*
X131871466Y-82676570D01*
X131817490Y-82595788D01*
X131798536Y-82500500D01*
X131817490Y-82405212D01*
X131871466Y-82324430D01*
X131952248Y-82270454D01*
X132047536Y-82251500D01*
X135152464Y-82251500D01*
X135247752Y-82270454D01*
X135328534Y-82324430D01*
X135382510Y-82405212D01*
X135401464Y-82500500D01*
X135382510Y-82595788D01*
X135328534Y-82676570D01*
X135294897Y-82710206D01*
X135169950Y-82882182D01*
X135073441Y-83071592D01*
X135007753Y-83273759D01*
X134974500Y-83483703D01*
X134974500Y-83696296D01*
X135007753Y-83906240D01*
X135070638Y-84099781D01*
X135073443Y-84108412D01*
X135169949Y-84297816D01*
X135294896Y-84469792D01*
X135445208Y-84620104D01*
X135617184Y-84745051D01*
X135806588Y-84841557D01*
X136008757Y-84907246D01*
X136082601Y-84918941D01*
X136218703Y-84940499D01*
X136218710Y-84940499D01*
X136218713Y-84940500D01*
X136218716Y-84940500D01*
X136431284Y-84940500D01*
X136431287Y-84940500D01*
X136431290Y-84940499D01*
X136431296Y-84940499D01*
X136530476Y-84924789D01*
X136641243Y-84907246D01*
X136843412Y-84841557D01*
X137032816Y-84745051D01*
X137204792Y-84620104D01*
X137355104Y-84469792D01*
X137480051Y-84297816D01*
X137576557Y-84108412D01*
X137642246Y-83906243D01*
X137675500Y-83696287D01*
X137675500Y-83483713D01*
X137675499Y-83483710D01*
X137675499Y-83483703D01*
X137642246Y-83273759D01*
X137642246Y-83273757D01*
X137576557Y-83071588D01*
X137480051Y-82882184D01*
X137355104Y-82710208D01*
X137321466Y-82676570D01*
X137267490Y-82595788D01*
X137248536Y-82500500D01*
X137267490Y-82405212D01*
X137321466Y-82324430D01*
X137402248Y-82270454D01*
X137497536Y-82251500D01*
X140167281Y-82251500D01*
X140262569Y-82270454D01*
X140343351Y-82324430D01*
X140397327Y-82405212D01*
X140416281Y-82500500D01*
X140397327Y-82595788D01*
X140380370Y-82629318D01*
X140298355Y-82764985D01*
X140204890Y-82997220D01*
X140204886Y-82997233D01*
X140149886Y-83241436D01*
X140139500Y-83388547D01*
X140139500Y-83531452D01*
X140149886Y-83678563D01*
X140204886Y-83922766D01*
X140204890Y-83922779D01*
X140298355Y-84155014D01*
X140427867Y-84369253D01*
X140596565Y-84567579D01*
X140594405Y-84569415D01*
X140638035Y-84634712D01*
X140656989Y-84730000D01*
X140638035Y-84825288D01*
X140594405Y-84890584D01*
X140596565Y-84892421D01*
X140427867Y-85090746D01*
X140298355Y-85304985D01*
X140204890Y-85537220D01*
X140204886Y-85537233D01*
X140149886Y-85781436D01*
X140139500Y-85928547D01*
X140139500Y-86071452D01*
X140149886Y-86218563D01*
X140204886Y-86462766D01*
X140204890Y-86462779D01*
X140298355Y-86695014D01*
X140427867Y-86909253D01*
X140596565Y-87107579D01*
X140594707Y-87109159D01*
X140639460Y-87176137D01*
X140658414Y-87271425D01*
X140639460Y-87366713D01*
X140585487Y-87447491D01*
X140563352Y-87469626D01*
X140527237Y-87509831D01*
X140453884Y-87633463D01*
X140423443Y-87706957D01*
X140423434Y-87706980D01*
X140405456Y-87757940D01*
X140405456Y-87757942D01*
X140385000Y-87900221D01*
X140385000Y-88289999D01*
X140385001Y-88290000D01*
X142056988Y-88290000D01*
X142024075Y-88347007D01*
X141990000Y-88474174D01*
X141990000Y-88605826D01*
X142024075Y-88732993D01*
X142056988Y-88790000D01*
X140385001Y-88790000D01*
X140385000Y-88790001D01*
X140385000Y-89179789D01*
X140387893Y-89233761D01*
X140387894Y-89233769D01*
X140423441Y-89373040D01*
X140423441Y-89373041D01*
X140453878Y-89446522D01*
X140477221Y-89495313D01*
X140477222Y-89495314D01*
X140563354Y-89610374D01*
X140585484Y-89632504D01*
X140639460Y-89713286D01*
X140658414Y-89808574D01*
X140639460Y-89903862D01*
X140594713Y-89970845D01*
X140596565Y-89972421D01*
X140427867Y-90170746D01*
X140298355Y-90384985D01*
X140204890Y-90617220D01*
X140204886Y-90617233D01*
X140149886Y-90861436D01*
X140139500Y-91008547D01*
X140139500Y-91151452D01*
X140149886Y-91298563D01*
X140204886Y-91542766D01*
X140204890Y-91542779D01*
X140298355Y-91775014D01*
X140427867Y-91989253D01*
X140596565Y-92187579D01*
X140594405Y-92189415D01*
X140638035Y-92254712D01*
X140656989Y-92350000D01*
X140638035Y-92445288D01*
X140594405Y-92510584D01*
X140596565Y-92512421D01*
X140427867Y-92710746D01*
X140298355Y-92924985D01*
X140204890Y-93157220D01*
X140204886Y-93157233D01*
X140149886Y-93401436D01*
X140139500Y-93548547D01*
X140139500Y-93691452D01*
X140149886Y-93838563D01*
X140204886Y-94082766D01*
X140204890Y-94082779D01*
X140298355Y-94315014D01*
X140427867Y-94529253D01*
X140596565Y-94727579D01*
X140594405Y-94729415D01*
X140638035Y-94794712D01*
X140656989Y-94890000D01*
X140638035Y-94985288D01*
X140594405Y-95050584D01*
X140596565Y-95052421D01*
X140427867Y-95250746D01*
X140298355Y-95464985D01*
X140204890Y-95697220D01*
X140204886Y-95697233D01*
X140149886Y-95941436D01*
X140139500Y-96088547D01*
X140139500Y-96231452D01*
X140149886Y-96378563D01*
X140204886Y-96622766D01*
X140204890Y-96622779D01*
X140298355Y-96855014D01*
X140427867Y-97069253D01*
X140596565Y-97267579D01*
X140594405Y-97269415D01*
X140638035Y-97334712D01*
X140656989Y-97430000D01*
X140638035Y-97525288D01*
X140594405Y-97590584D01*
X140596565Y-97592421D01*
X140427867Y-97790746D01*
X140298355Y-98004985D01*
X140204890Y-98237220D01*
X140204886Y-98237233D01*
X140149886Y-98481436D01*
X140139500Y-98628547D01*
X140139500Y-98771452D01*
X140149886Y-98918563D01*
X140204886Y-99162766D01*
X140204890Y-99162779D01*
X140298355Y-99395014D01*
X140427867Y-99609252D01*
X140436048Y-99618870D01*
X140483348Y-99703733D01*
X140494572Y-99800237D01*
X140468011Y-99893691D01*
X140422452Y-99956266D01*
X140386234Y-99992484D01*
X140307943Y-100084420D01*
X140222456Y-100237595D01*
X140222454Y-100237598D01*
X140192008Y-100311103D01*
X140192004Y-100311115D01*
X140154866Y-100425982D01*
X140154864Y-100425995D01*
X140134500Y-100600218D01*
X140134500Y-101879781D01*
X140144148Y-102000136D01*
X140192006Y-102168889D01*
X140192009Y-102168899D01*
X140222453Y-102242400D01*
X140243814Y-102284173D01*
X140277429Y-102349911D01*
X140277431Y-102349913D01*
X140277433Y-102349917D01*
X140386233Y-102487515D01*
X140422447Y-102523728D01*
X140476425Y-102604509D01*
X140495380Y-102699797D01*
X140476427Y-102795085D01*
X140436052Y-102861124D01*
X140427869Y-102870744D01*
X140427868Y-102870745D01*
X140298355Y-103084985D01*
X140204890Y-103317220D01*
X140204886Y-103317233D01*
X140149886Y-103561436D01*
X140139500Y-103708547D01*
X140139500Y-103851452D01*
X140149886Y-103998563D01*
X140204886Y-104242766D01*
X140204890Y-104242779D01*
X140298355Y-104475014D01*
X140427867Y-104689253D01*
X140596565Y-104887579D01*
X140594405Y-104889415D01*
X140638035Y-104954712D01*
X140656989Y-105050000D01*
X140638035Y-105145288D01*
X140594405Y-105210584D01*
X140596565Y-105212421D01*
X140427867Y-105410746D01*
X140298355Y-105624985D01*
X140204890Y-105857220D01*
X140204886Y-105857233D01*
X140149886Y-106101436D01*
X140139500Y-106248547D01*
X140139500Y-106391452D01*
X140149886Y-106538563D01*
X140204886Y-106782766D01*
X140204890Y-106782779D01*
X140298355Y-107015014D01*
X140427867Y-107229253D01*
X140596565Y-107427579D01*
X140594405Y-107429415D01*
X140638035Y-107494712D01*
X140656989Y-107590000D01*
X140638035Y-107685288D01*
X140594405Y-107750584D01*
X140596565Y-107752421D01*
X140427867Y-107950746D01*
X140298355Y-108164985D01*
X140204890Y-108397220D01*
X140204886Y-108397233D01*
X140149886Y-108641436D01*
X140139500Y-108788547D01*
X140139500Y-108931452D01*
X140149886Y-109078563D01*
X140204886Y-109322766D01*
X140204890Y-109322779D01*
X140298355Y-109555014D01*
X140427867Y-109769253D01*
X140596565Y-109967579D01*
X140594405Y-109969415D01*
X140638035Y-110034712D01*
X140656989Y-110130000D01*
X140638035Y-110225288D01*
X140594405Y-110290584D01*
X140596565Y-110292421D01*
X140427867Y-110490746D01*
X140298355Y-110704985D01*
X140204890Y-110937220D01*
X140204886Y-110937233D01*
X140149886Y-111181436D01*
X140139500Y-111328547D01*
X140139500Y-111471455D01*
X140147639Y-111586734D01*
X140135442Y-111683120D01*
X140087289Y-111767502D01*
X140010509Y-111827034D01*
X139916792Y-111852651D01*
X139822312Y-111841082D01*
X139627173Y-111777678D01*
X139386136Y-111739500D01*
X139386127Y-111739500D01*
X139142073Y-111739500D01*
X139142063Y-111739500D01*
X138901026Y-111777678D01*
X138668919Y-111853094D01*
X138668915Y-111853095D01*
X138668915Y-111853096D01*
X138649911Y-111862779D01*
X138451459Y-111963895D01*
X138254019Y-112107343D01*
X138254017Y-112107344D01*
X138254017Y-112107345D01*
X138170166Y-112191195D01*
X138089388Y-112245169D01*
X137994100Y-112264123D01*
X137898812Y-112245169D01*
X137818033Y-112191195D01*
X137734183Y-112107345D01*
X137536739Y-111963894D01*
X137319285Y-111853096D01*
X137319282Y-111853095D01*
X137319280Y-111853094D01*
X137087173Y-111777678D01*
X136846136Y-111739500D01*
X136846127Y-111739500D01*
X136602073Y-111739500D01*
X136602063Y-111739500D01*
X136361026Y-111777678D01*
X136128919Y-111853094D01*
X136128915Y-111853095D01*
X136128915Y-111853096D01*
X136109911Y-111862779D01*
X135911455Y-111963897D01*
X135792388Y-112050404D01*
X135704157Y-112091079D01*
X135607077Y-112094892D01*
X135515927Y-112061264D01*
X135470450Y-112021507D01*
X135468600Y-112023358D01*
X135459669Y-112014427D01*
X135309851Y-111892266D01*
X135309846Y-111892263D01*
X135138505Y-111802762D01*
X135022287Y-111769508D01*
X134952652Y-111749583D01*
X134850305Y-111740483D01*
X134839239Y-111739500D01*
X134839238Y-111739500D01*
X133528962Y-111739500D01*
X133528960Y-111739500D01*
X133506826Y-111741467D01*
X133415548Y-111749583D01*
X133415545Y-111749584D01*
X133229694Y-111802762D01*
X133058353Y-111892263D01*
X133058348Y-111892266D01*
X132908530Y-112014427D01*
X132908527Y-112014430D01*
X132786366Y-112164248D01*
X132786363Y-112164253D01*
X132696862Y-112335594D01*
X132650279Y-112498394D01*
X132643683Y-112521448D01*
X132633600Y-112634862D01*
X132633600Y-113945138D01*
X132643683Y-114058552D01*
X132656298Y-114102639D01*
X132696862Y-114244405D01*
X132786363Y-114415746D01*
X132786366Y-114415751D01*
X132908527Y-114565569D01*
X132908530Y-114565572D01*
X132970502Y-114616104D01*
X133058349Y-114687734D01*
X133229694Y-114777237D01*
X133415548Y-114830417D01*
X133528962Y-114840500D01*
X133528965Y-114840500D01*
X134839235Y-114840500D01*
X134839238Y-114840500D01*
X134952652Y-114830417D01*
X135138506Y-114777237D01*
X135309851Y-114687734D01*
X135459671Y-114565571D01*
X135459675Y-114565565D01*
X135468600Y-114556642D01*
X135470911Y-114558953D01*
X135527838Y-114511880D01*
X135620705Y-114483332D01*
X135717426Y-114492496D01*
X135792387Y-114529594D01*
X135911461Y-114616106D01*
X136128915Y-114726904D01*
X136361024Y-114802321D01*
X136445803Y-114815748D01*
X136602063Y-114840499D01*
X136602070Y-114840499D01*
X136602073Y-114840500D01*
X136602076Y-114840500D01*
X136846124Y-114840500D01*
X136846127Y-114840500D01*
X136846130Y-114840499D01*
X136846136Y-114840499D01*
X136960006Y-114822462D01*
X137087176Y-114802321D01*
X137319285Y-114726904D01*
X137536739Y-114616106D01*
X137734183Y-114472655D01*
X137818033Y-114388804D01*
X137898812Y-114334831D01*
X137994100Y-114315877D01*
X138089388Y-114334831D01*
X138170166Y-114388804D01*
X138254017Y-114472655D01*
X138451461Y-114616106D01*
X138668915Y-114726904D01*
X138901024Y-114802321D01*
X138985803Y-114815748D01*
X139142063Y-114840499D01*
X139142070Y-114840499D01*
X139142073Y-114840500D01*
X139142076Y-114840500D01*
X139386124Y-114840500D01*
X139386127Y-114840500D01*
X139386130Y-114840499D01*
X139386136Y-114840499D01*
X139500006Y-114822462D01*
X139627176Y-114802321D01*
X139859285Y-114726904D01*
X140070767Y-114619148D01*
X140164270Y-114592778D01*
X140260751Y-114604197D01*
X140345519Y-114651668D01*
X140396021Y-114710755D01*
X140621628Y-115078319D01*
X140628481Y-115096854D01*
X140639460Y-115113286D01*
X140645170Y-115141993D01*
X140655320Y-115169445D01*
X140654558Y-115189191D01*
X140658414Y-115208574D01*
X140652703Y-115237280D01*
X140651576Y-115266528D01*
X140643315Y-115284480D01*
X140639460Y-115303862D01*
X140623190Y-115328216D01*
X140610964Y-115354788D01*
X140596488Y-115368188D01*
X140594713Y-115370845D01*
X140596565Y-115372421D01*
X140427867Y-115570746D01*
X140298355Y-115784985D01*
X140204890Y-116017220D01*
X140204886Y-116017233D01*
X140149886Y-116261436D01*
X140139500Y-116408547D01*
X140139500Y-116551452D01*
X140149886Y-116698563D01*
X140204886Y-116942766D01*
X140204890Y-116942779D01*
X140298355Y-117175014D01*
X140427867Y-117389253D01*
X140596565Y-117587579D01*
X140594405Y-117589415D01*
X140638035Y-117654712D01*
X140656989Y-117750000D01*
X140638035Y-117845288D01*
X140594405Y-117910584D01*
X140596565Y-117912421D01*
X140427867Y-118110746D01*
X140298355Y-118324985D01*
X140204890Y-118557220D01*
X140204886Y-118557233D01*
X140149886Y-118801436D01*
X140139500Y-118948547D01*
X140139500Y-119091452D01*
X140149886Y-119238563D01*
X140204886Y-119482766D01*
X140204890Y-119482779D01*
X140298355Y-119715014D01*
X140427867Y-119929253D01*
X140596565Y-120127579D01*
X140594405Y-120129415D01*
X140638035Y-120194712D01*
X140656989Y-120290000D01*
X140638035Y-120385288D01*
X140594405Y-120450584D01*
X140596565Y-120452421D01*
X140427867Y-120650746D01*
X140298355Y-120864985D01*
X140204890Y-121097220D01*
X140204886Y-121097233D01*
X140149886Y-121341436D01*
X140139500Y-121488547D01*
X140139500Y-121631452D01*
X140149886Y-121778563D01*
X140204886Y-122022766D01*
X140204890Y-122022779D01*
X140298355Y-122255014D01*
X140427867Y-122469253D01*
X140596565Y-122667579D01*
X140594405Y-122669415D01*
X140638035Y-122734712D01*
X140656989Y-122830000D01*
X140638035Y-122925288D01*
X140594405Y-122990584D01*
X140596565Y-122992421D01*
X140427867Y-123190746D01*
X140298355Y-123404985D01*
X140204890Y-123637220D01*
X140204886Y-123637233D01*
X140149886Y-123881436D01*
X140149886Y-123881442D01*
X140139500Y-124028554D01*
X140139500Y-124171446D01*
X140149886Y-124318558D01*
X140149886Y-124318561D01*
X140150233Y-124323464D01*
X140138037Y-124419850D01*
X140089884Y-124504232D01*
X140013104Y-124563764D01*
X139919387Y-124589382D01*
X139901851Y-124590000D01*
X127298149Y-124590000D01*
X127202861Y-124571046D01*
X127122079Y-124517070D01*
X127068103Y-124436288D01*
X127049149Y-124341000D01*
X127049767Y-124323464D01*
X127050113Y-124318562D01*
X127050114Y-124318558D01*
X127060500Y-124171446D01*
X127060500Y-124028554D01*
X127050114Y-123881442D01*
X127041641Y-123843823D01*
X126995113Y-123637233D01*
X126995111Y-123637229D01*
X126995110Y-123637221D01*
X126901644Y-123404985D01*
X126866640Y-123347082D01*
X126772132Y-123190746D01*
X126603435Y-122992421D01*
X126605594Y-122990584D01*
X126561965Y-122925288D01*
X126543011Y-122830000D01*
X126561965Y-122734712D01*
X126605594Y-122669415D01*
X126603435Y-122667579D01*
X126772132Y-122469253D01*
X126813040Y-122401583D01*
X126901644Y-122255015D01*
X126995110Y-122022779D01*
X127050114Y-121778558D01*
X127060500Y-121631446D01*
X127060500Y-121488554D01*
X127050114Y-121341442D01*
X127043124Y-121310407D01*
X126995113Y-121097233D01*
X126995111Y-121097229D01*
X126995110Y-121097221D01*
X126901644Y-120864985D01*
X126802209Y-120700500D01*
X126772132Y-120650746D01*
X126603435Y-120452421D01*
X126605594Y-120450584D01*
X126561965Y-120385288D01*
X126543011Y-120290000D01*
X126561965Y-120194712D01*
X126605594Y-120129415D01*
X126603435Y-120127579D01*
X126772132Y-119929253D01*
X126808662Y-119868825D01*
X126901644Y-119715015D01*
X126995110Y-119482779D01*
X127011176Y-119411445D01*
X127050113Y-119238563D01*
X127050113Y-119238562D01*
X127050114Y-119238558D01*
X127060500Y-119091446D01*
X127060500Y-118948554D01*
X127050114Y-118801442D01*
X127032201Y-118721908D01*
X126995113Y-118557233D01*
X126995111Y-118557229D01*
X126995110Y-118557221D01*
X126901644Y-118324985D01*
X126772134Y-118110750D01*
X126772132Y-118110746D01*
X126603435Y-117912421D01*
X126605594Y-117910584D01*
X126561965Y-117845288D01*
X126543011Y-117750000D01*
X126561965Y-117654712D01*
X126605594Y-117589415D01*
X126603435Y-117587579D01*
X126772132Y-117389253D01*
X126772134Y-117389250D01*
X126901644Y-117175015D01*
X126995110Y-116942779D01*
X127038616Y-116749610D01*
X127050113Y-116698563D01*
X127050113Y-116698562D01*
X127050114Y-116698558D01*
X127060500Y-116551446D01*
X127060500Y-116408554D01*
X127050114Y-116261442D01*
X127046187Y-116244008D01*
X126995113Y-116017233D01*
X126995111Y-116017229D01*
X126995110Y-116017221D01*
X126901644Y-115784985D01*
X126868976Y-115730945D01*
X126772132Y-115570746D01*
X126603435Y-115372421D01*
X126605292Y-115370841D01*
X126560539Y-115303862D01*
X126541585Y-115208574D01*
X126560539Y-115113286D01*
X126614515Y-115032504D01*
X126614519Y-115032501D01*
X126636648Y-115010372D01*
X126672762Y-114970168D01*
X126746115Y-114846536D01*
X126776556Y-114773042D01*
X126776565Y-114773019D01*
X126794543Y-114722059D01*
X126794543Y-114722057D01*
X126815000Y-114579778D01*
X126815000Y-114190001D01*
X126814999Y-114190000D01*
X125143012Y-114190000D01*
X125175925Y-114132993D01*
X125210000Y-114005826D01*
X125210000Y-113874174D01*
X125175925Y-113747007D01*
X125143012Y-113690000D01*
X126814999Y-113690000D01*
X126815000Y-113689999D01*
X126815000Y-113300210D01*
X126812106Y-113246238D01*
X126812105Y-113246230D01*
X126776558Y-113106959D01*
X126776558Y-113106958D01*
X126746121Y-113033477D01*
X126722778Y-112984686D01*
X126722777Y-112984685D01*
X126636645Y-112869625D01*
X126614515Y-112847495D01*
X126560539Y-112766713D01*
X126541585Y-112671425D01*
X126560539Y-112576137D01*
X126605291Y-112509158D01*
X126603435Y-112507579D01*
X126772132Y-112309253D01*
X126843502Y-112191193D01*
X126901644Y-112095015D01*
X126995110Y-111862779D01*
X126999607Y-111842812D01*
X127050113Y-111618563D01*
X127050113Y-111618562D01*
X127050114Y-111618558D01*
X127060500Y-111471446D01*
X127060500Y-111328554D01*
X127050114Y-111181442D01*
X127043038Y-111150026D01*
X126995113Y-110937233D01*
X126995111Y-110937229D01*
X126995110Y-110937221D01*
X126901644Y-110704985D01*
X126830830Y-110587845D01*
X126772132Y-110490746D01*
X126603435Y-110292421D01*
X126605594Y-110290584D01*
X126561965Y-110225288D01*
X126543011Y-110130000D01*
X126561965Y-110034712D01*
X126605594Y-109969415D01*
X126603435Y-109967579D01*
X126772132Y-109769253D01*
X126780340Y-109755675D01*
X126901644Y-109555015D01*
X126995110Y-109322779D01*
X127050114Y-109078558D01*
X127060500Y-108931446D01*
X127060500Y-108788554D01*
X127050114Y-108641442D01*
X126995110Y-108397221D01*
X126901644Y-108164985D01*
X126874450Y-108120000D01*
X126772132Y-107950746D01*
X126603435Y-107752421D01*
X126605594Y-107750584D01*
X126561965Y-107685288D01*
X126543011Y-107590000D01*
X126561965Y-107494712D01*
X126605594Y-107429415D01*
X126603435Y-107427579D01*
X126772132Y-107229253D01*
X126772134Y-107229250D01*
X126901644Y-107015015D01*
X126995110Y-106782779D01*
X127050114Y-106538558D01*
X127060500Y-106391446D01*
X127060500Y-106248554D01*
X127050114Y-106101442D01*
X127008990Y-105918851D01*
X126995113Y-105857233D01*
X126995111Y-105857229D01*
X126995110Y-105857221D01*
X126901644Y-105624985D01*
X126772132Y-105410746D01*
X126603435Y-105212421D01*
X126605594Y-105210584D01*
X126561965Y-105145288D01*
X126543011Y-105050000D01*
X126561965Y-104954712D01*
X126605594Y-104889415D01*
X126603435Y-104887579D01*
X126772132Y-104689253D01*
X126772134Y-104689250D01*
X126901644Y-104475015D01*
X126995110Y-104242779D01*
X126995478Y-104241147D01*
X127050113Y-103998563D01*
X127050113Y-103998562D01*
X127050114Y-103998558D01*
X127060500Y-103851446D01*
X127060500Y-103708554D01*
X127050114Y-103561442D01*
X127008990Y-103378851D01*
X126995113Y-103317233D01*
X126995111Y-103317229D01*
X126995110Y-103317221D01*
X126901644Y-103084985D01*
X126772132Y-102870746D01*
X126603435Y-102672421D01*
X126605292Y-102670841D01*
X126560539Y-102603862D01*
X126541585Y-102508574D01*
X126560539Y-102413286D01*
X126614515Y-102332504D01*
X126614519Y-102332501D01*
X126636648Y-102310372D01*
X126672762Y-102270168D01*
X126746115Y-102146536D01*
X126776556Y-102073042D01*
X126776565Y-102073019D01*
X126794543Y-102022059D01*
X126794543Y-102022057D01*
X126815000Y-101879778D01*
X126815000Y-101490001D01*
X126814999Y-101490000D01*
X125143012Y-101490000D01*
X125175925Y-101432993D01*
X125210000Y-101305826D01*
X125210000Y-101174174D01*
X125175925Y-101047007D01*
X125143012Y-100990000D01*
X126814999Y-100990000D01*
X126815000Y-100989999D01*
X126815000Y-100600210D01*
X126812106Y-100546238D01*
X126812105Y-100546230D01*
X126776558Y-100406959D01*
X126776558Y-100406958D01*
X126746121Y-100333477D01*
X126722778Y-100284686D01*
X126722777Y-100284685D01*
X126636645Y-100169625D01*
X126614515Y-100147495D01*
X126560539Y-100066713D01*
X126541585Y-99971425D01*
X126560539Y-99876137D01*
X126605291Y-99809158D01*
X126603435Y-99807579D01*
X126772132Y-99609253D01*
X126772134Y-99609250D01*
X126901644Y-99395015D01*
X126995110Y-99162779D01*
X127032401Y-98997204D01*
X127050113Y-98918563D01*
X127050113Y-98918562D01*
X127050114Y-98918558D01*
X127060500Y-98771446D01*
X127060500Y-98628554D01*
X127050114Y-98481442D01*
X127050077Y-98481279D01*
X126995113Y-98237233D01*
X126995111Y-98237229D01*
X126995110Y-98237221D01*
X126901644Y-98004985D01*
X126772132Y-97790746D01*
X126603435Y-97592421D01*
X126605594Y-97590584D01*
X126561965Y-97525288D01*
X126543011Y-97430000D01*
X126561965Y-97334712D01*
X126605594Y-97269415D01*
X126603435Y-97267579D01*
X126772132Y-97069253D01*
X126774204Y-97065826D01*
X126901644Y-96855015D01*
X126995110Y-96622779D01*
X127050114Y-96378558D01*
X127060500Y-96231446D01*
X127060500Y-96088554D01*
X127050114Y-95941442D01*
X127042562Y-95907912D01*
X126995113Y-95697233D01*
X126995111Y-95697229D01*
X126995110Y-95697221D01*
X126901644Y-95464985D01*
X126772134Y-95250750D01*
X126772132Y-95250746D01*
X126603435Y-95052421D01*
X126605594Y-95050584D01*
X126561965Y-94985288D01*
X126543011Y-94890000D01*
X126561965Y-94794712D01*
X126605594Y-94729415D01*
X126603435Y-94727579D01*
X126772132Y-94529253D01*
X126772134Y-94529250D01*
X126901644Y-94315015D01*
X126995110Y-94082779D01*
X127050114Y-93838558D01*
X127060500Y-93691446D01*
X127060500Y-93548554D01*
X127050114Y-93401442D01*
X127041642Y-93363828D01*
X126995113Y-93157233D01*
X126995111Y-93157229D01*
X126995110Y-93157221D01*
X126901644Y-92924985D01*
X126772134Y-92710750D01*
X126772132Y-92710746D01*
X126603435Y-92512421D01*
X126605594Y-92510584D01*
X126561965Y-92445288D01*
X126543011Y-92350000D01*
X126561965Y-92254712D01*
X126605594Y-92189415D01*
X126603435Y-92187579D01*
X126772132Y-91989253D01*
X126826082Y-91900009D01*
X126901644Y-91775015D01*
X126995110Y-91542779D01*
X127050114Y-91298558D01*
X127060500Y-91151446D01*
X127060500Y-91008554D01*
X127050114Y-90861442D01*
X127031861Y-90780399D01*
X126995113Y-90617233D01*
X126995111Y-90617229D01*
X126995110Y-90617221D01*
X126901644Y-90384985D01*
X126772134Y-90170750D01*
X126772132Y-90170746D01*
X126603435Y-89972421D01*
X126605292Y-89970841D01*
X126560539Y-89903862D01*
X126541585Y-89808574D01*
X126560539Y-89713286D01*
X126614515Y-89632504D01*
X126614519Y-89632501D01*
X126636648Y-89610372D01*
X126672762Y-89570168D01*
X126746115Y-89446536D01*
X126776556Y-89373042D01*
X126776565Y-89373019D01*
X126794543Y-89322059D01*
X126794543Y-89322057D01*
X126815000Y-89179778D01*
X126815000Y-88790001D01*
X126814999Y-88790000D01*
X125143012Y-88790000D01*
X125175925Y-88732993D01*
X125210000Y-88605826D01*
X125210000Y-88474174D01*
X125175925Y-88347007D01*
X125143012Y-88290000D01*
X126814999Y-88290000D01*
X126815000Y-88289999D01*
X126815000Y-87900210D01*
X126812106Y-87846238D01*
X126812105Y-87846230D01*
X126776558Y-87706959D01*
X126776558Y-87706958D01*
X126746121Y-87633477D01*
X126722778Y-87584686D01*
X126722777Y-87584685D01*
X126636645Y-87469625D01*
X126580363Y-87413343D01*
X126540168Y-87377237D01*
X126416535Y-87303884D01*
X126416536Y-87303884D01*
X126343042Y-87273443D01*
X126343019Y-87273434D01*
X126292058Y-87255456D01*
X126177734Y-87239019D01*
X126086114Y-87206696D01*
X126013836Y-87141773D01*
X125971906Y-87054132D01*
X125966705Y-86957116D01*
X125999028Y-86865496D01*
X126011720Y-86846202D01*
X126036106Y-86812639D01*
X126146904Y-86595185D01*
X126168904Y-86527476D01*
X129999500Y-86527476D01*
X129999500Y-86712523D01*
X130028442Y-86895253D01*
X130028447Y-86895270D01*
X130085617Y-87071224D01*
X130085621Y-87071235D01*
X130169622Y-87236096D01*
X130262930Y-87364524D01*
X130278379Y-87385787D01*
X130409213Y-87516621D01*
X130558904Y-87625378D01*
X130723765Y-87709379D01*
X130899736Y-87766555D01*
X130899742Y-87766556D01*
X130899746Y-87766557D01*
X131082476Y-87795499D01*
X131082483Y-87795499D01*
X131082486Y-87795500D01*
X131082489Y-87795500D01*
X131267511Y-87795500D01*
X131267514Y-87795500D01*
X131267517Y-87795499D01*
X131267523Y-87795499D01*
X131450253Y-87766557D01*
X131450254Y-87766556D01*
X131450264Y-87766555D01*
X131626235Y-87709379D01*
X131791096Y-87625378D01*
X131940787Y-87516621D01*
X132071621Y-87385787D01*
X132180378Y-87236096D01*
X132264379Y-87071235D01*
X132321555Y-86895264D01*
X132326270Y-86865496D01*
X132350499Y-86712523D01*
X132350500Y-86712511D01*
X132350500Y-86527488D01*
X132350499Y-86527476D01*
X134849500Y-86527476D01*
X134849500Y-86712523D01*
X134878442Y-86895253D01*
X134878447Y-86895270D01*
X134935617Y-87071224D01*
X134935621Y-87071235D01*
X135019622Y-87236096D01*
X135112930Y-87364524D01*
X135128379Y-87385787D01*
X135259213Y-87516621D01*
X135408904Y-87625378D01*
X135573765Y-87709379D01*
X135749736Y-87766555D01*
X135749742Y-87766556D01*
X135749746Y-87766557D01*
X135932476Y-87795499D01*
X135932483Y-87795499D01*
X135932486Y-87795500D01*
X135932489Y-87795500D01*
X136117511Y-87795500D01*
X136117514Y-87795500D01*
X136117517Y-87795499D01*
X136117523Y-87795499D01*
X136300253Y-87766557D01*
X136300254Y-87766556D01*
X136300264Y-87766555D01*
X136476235Y-87709379D01*
X136641096Y-87625378D01*
X136790787Y-87516621D01*
X136921621Y-87385787D01*
X137030378Y-87236096D01*
X137114379Y-87071235D01*
X137171555Y-86895264D01*
X137176270Y-86865496D01*
X137200499Y-86712523D01*
X137200500Y-86712511D01*
X137200500Y-86527488D01*
X137200499Y-86527476D01*
X137171557Y-86344746D01*
X137171556Y-86344742D01*
X137171555Y-86344736D01*
X137114379Y-86168765D01*
X137030378Y-86003904D01*
X136921621Y-85854213D01*
X136790787Y-85723379D01*
X136641096Y-85614622D01*
X136476235Y-85530621D01*
X136476224Y-85530617D01*
X136300270Y-85473447D01*
X136300271Y-85473447D01*
X136300264Y-85473445D01*
X136300262Y-85473444D01*
X136300253Y-85473442D01*
X136117523Y-85444500D01*
X136117514Y-85444500D01*
X135932486Y-85444500D01*
X135932476Y-85444500D01*
X135749746Y-85473442D01*
X135749729Y-85473447D01*
X135573775Y-85530617D01*
X135573764Y-85530621D01*
X135408900Y-85614624D01*
X135259216Y-85723376D01*
X135128376Y-85854216D01*
X135019624Y-86003900D01*
X134935621Y-86168764D01*
X134935617Y-86168775D01*
X134878447Y-86344729D01*
X134878442Y-86344746D01*
X134849500Y-86527476D01*
X132350499Y-86527476D01*
X132321557Y-86344746D01*
X132321556Y-86344742D01*
X132321555Y-86344736D01*
X132264379Y-86168765D01*
X132180378Y-86003904D01*
X132071621Y-85854213D01*
X131940787Y-85723379D01*
X131791096Y-85614622D01*
X131626235Y-85530621D01*
X131626224Y-85530617D01*
X131450270Y-85473447D01*
X131450271Y-85473447D01*
X131450264Y-85473445D01*
X131450262Y-85473444D01*
X131450253Y-85473442D01*
X131267523Y-85444500D01*
X131267514Y-85444500D01*
X131082486Y-85444500D01*
X131082476Y-85444500D01*
X130899746Y-85473442D01*
X130899729Y-85473447D01*
X130723775Y-85530617D01*
X130723764Y-85530621D01*
X130558900Y-85614624D01*
X130409216Y-85723376D01*
X130278376Y-85854216D01*
X130169624Y-86003900D01*
X130085621Y-86168764D01*
X130085617Y-86168775D01*
X130028447Y-86344729D01*
X130028442Y-86344746D01*
X129999500Y-86527476D01*
X126168904Y-86527476D01*
X126189002Y-86465621D01*
X126197081Y-86440757D01*
X126197082Y-86440754D01*
X126222321Y-86363076D01*
X126222321Y-86363075D01*
X126260499Y-86122036D01*
X126260500Y-86122024D01*
X126260500Y-85877975D01*
X126260499Y-85877961D01*
X126222321Y-85636926D01*
X126222321Y-85636924D01*
X126146904Y-85404815D01*
X126048322Y-85211338D01*
X126021953Y-85117834D01*
X126033372Y-85021353D01*
X126080844Y-84936585D01*
X126157141Y-84876437D01*
X126174903Y-84868249D01*
X126178060Y-84866942D01*
X126308675Y-84797127D01*
X126439703Y-84709577D01*
X126554189Y-84615620D01*
X126665620Y-84504189D01*
X126759577Y-84389703D01*
X126847127Y-84258675D01*
X126916942Y-84128060D01*
X126977248Y-83982469D01*
X127020241Y-83840739D01*
X127050984Y-83686181D01*
X127065500Y-83538793D01*
X127065500Y-83381207D01*
X127050984Y-83233819D01*
X127020241Y-83079261D01*
X126982192Y-82953828D01*
X126977252Y-82937544D01*
X126977251Y-82937543D01*
X126977248Y-82937531D01*
X126944711Y-82858981D01*
X126916943Y-82791941D01*
X126916941Y-82791938D01*
X126873254Y-82710206D01*
X126847127Y-82661325D01*
X126832100Y-82638835D01*
X126794921Y-82549075D01*
X126794922Y-82451920D01*
X126832102Y-82362161D01*
X126900802Y-82293463D01*
X126990562Y-82256284D01*
X127039137Y-82251500D01*
X129702464Y-82251500D01*
X129797752Y-82270454D01*
G37*
%TD.AperFunction*%
%TA.AperFunction,Conductor*%
G36*
X145159260Y-95714838D02*
G01*
X145243642Y-95762991D01*
X145256480Y-95774954D01*
X145646570Y-96165044D01*
X145700546Y-96245826D01*
X145719500Y-96341114D01*
X145719500Y-110768412D01*
X145719501Y-110768428D01*
X145750290Y-110962823D01*
X145784677Y-111068657D01*
X145811116Y-111150026D01*
X145900476Y-111325405D01*
X146016172Y-111484646D01*
X147107663Y-112576137D01*
X148092312Y-113560786D01*
X148146288Y-113641568D01*
X148165242Y-113736856D01*
X148146288Y-113832144D01*
X148092312Y-113912926D01*
X146808668Y-115196570D01*
X146727886Y-115250546D01*
X146632598Y-115269500D01*
X144407188Y-115269500D01*
X144311900Y-115250546D01*
X144231118Y-115196570D01*
X144177142Y-115115788D01*
X144158188Y-115020500D01*
X144177142Y-114925212D01*
X144231118Y-114844430D01*
X144268493Y-114807055D01*
X144268501Y-114807045D01*
X144331286Y-114730541D01*
X144418842Y-114599505D01*
X144465515Y-114512185D01*
X144525812Y-114366614D01*
X144525820Y-114366593D01*
X144554552Y-114271877D01*
X144570839Y-114190000D01*
X142923012Y-114190000D01*
X142955925Y-114132993D01*
X142990000Y-114005826D01*
X142990000Y-113874174D01*
X142955925Y-113747007D01*
X142923012Y-113690000D01*
X144570839Y-113690000D01*
X144554552Y-113608122D01*
X144525820Y-113513406D01*
X144525812Y-113513385D01*
X144465515Y-113367814D01*
X144418842Y-113280494D01*
X144331286Y-113149458D01*
X144268501Y-113072954D01*
X144268493Y-113072945D01*
X144205535Y-113009987D01*
X144151559Y-112929205D01*
X144132605Y-112833917D01*
X144151559Y-112738629D01*
X144205535Y-112657847D01*
X144220261Y-112644261D01*
X144389936Y-112499936D01*
X144540789Y-112322588D01*
X144552132Y-112309253D01*
X144623502Y-112191193D01*
X144681644Y-112095015D01*
X144775110Y-111862779D01*
X144779607Y-111842812D01*
X144830113Y-111618563D01*
X144830113Y-111618562D01*
X144830114Y-111618558D01*
X144840500Y-111471446D01*
X144840500Y-111328554D01*
X144830114Y-111181442D01*
X144823038Y-111150026D01*
X144775113Y-110937233D01*
X144775111Y-110937229D01*
X144775110Y-110937221D01*
X144681644Y-110704985D01*
X144610830Y-110587845D01*
X144552132Y-110490746D01*
X144383435Y-110292421D01*
X144385594Y-110290584D01*
X144341965Y-110225288D01*
X144323011Y-110130000D01*
X144341965Y-110034712D01*
X144385594Y-109969415D01*
X144383435Y-109967579D01*
X144552132Y-109769253D01*
X144560340Y-109755675D01*
X144681644Y-109555015D01*
X144775110Y-109322779D01*
X144830114Y-109078558D01*
X144840500Y-108931446D01*
X144840500Y-108788554D01*
X144830114Y-108641442D01*
X144775110Y-108397221D01*
X144681644Y-108164985D01*
X144654450Y-108120000D01*
X144552132Y-107950746D01*
X144383435Y-107752421D01*
X144385594Y-107750584D01*
X144341965Y-107685288D01*
X144323011Y-107590000D01*
X144341965Y-107494712D01*
X144385594Y-107429415D01*
X144383435Y-107427579D01*
X144552132Y-107229253D01*
X144552134Y-107229250D01*
X144681644Y-107015015D01*
X144775110Y-106782779D01*
X144830114Y-106538558D01*
X144840500Y-106391446D01*
X144840500Y-106248554D01*
X144830114Y-106101442D01*
X144788990Y-105918851D01*
X144775113Y-105857233D01*
X144775111Y-105857229D01*
X144775110Y-105857221D01*
X144681644Y-105624985D01*
X144552132Y-105410746D01*
X144383435Y-105212421D01*
X144385594Y-105210584D01*
X144341965Y-105145288D01*
X144323011Y-105050000D01*
X144341965Y-104954712D01*
X144385594Y-104889415D01*
X144383435Y-104887579D01*
X144552132Y-104689253D01*
X144552134Y-104689250D01*
X144681644Y-104475015D01*
X144775110Y-104242779D01*
X144775478Y-104241147D01*
X144830113Y-103998563D01*
X144830113Y-103998562D01*
X144830114Y-103998558D01*
X144840500Y-103851446D01*
X144840500Y-103708554D01*
X144830114Y-103561442D01*
X144788990Y-103378851D01*
X144775113Y-103317233D01*
X144775111Y-103317229D01*
X144775110Y-103317221D01*
X144681644Y-103084985D01*
X144552132Y-102870746D01*
X144383435Y-102672421D01*
X144385587Y-102670590D01*
X144341933Y-102605256D01*
X144322979Y-102509968D01*
X144341933Y-102414680D01*
X144395904Y-102333904D01*
X144445620Y-102284189D01*
X144539577Y-102169703D01*
X144627127Y-102038675D01*
X144696942Y-101908060D01*
X144757248Y-101762469D01*
X144800241Y-101620739D01*
X144830984Y-101466181D01*
X144845500Y-101318793D01*
X144845500Y-101161207D01*
X144830984Y-101013819D01*
X144800241Y-100859261D01*
X144757248Y-100717531D01*
X144724711Y-100638981D01*
X144696943Y-100571941D01*
X144696941Y-100571938D01*
X144627131Y-100441333D01*
X144627127Y-100441325D01*
X144627123Y-100441319D01*
X144627119Y-100441312D01*
X144539591Y-100310317D01*
X144539584Y-100310308D01*
X144539577Y-100310297D01*
X144527227Y-100295248D01*
X144445633Y-100195826D01*
X144445626Y-100195819D01*
X144445620Y-100195811D01*
X144395906Y-100146097D01*
X144341933Y-100065319D01*
X144322979Y-99970031D01*
X144341933Y-99874743D01*
X144385586Y-99809409D01*
X144383435Y-99807579D01*
X144552132Y-99609253D01*
X144552134Y-99609250D01*
X144681644Y-99395015D01*
X144775110Y-99162779D01*
X144812401Y-98997204D01*
X144830113Y-98918563D01*
X144830113Y-98918562D01*
X144830114Y-98918558D01*
X144840500Y-98771446D01*
X144840500Y-98628554D01*
X144830114Y-98481442D01*
X144830077Y-98481279D01*
X144775113Y-98237233D01*
X144775111Y-98237229D01*
X144775110Y-98237221D01*
X144681644Y-98004985D01*
X144552132Y-97790746D01*
X144383435Y-97592421D01*
X144385594Y-97590584D01*
X144341965Y-97525288D01*
X144323011Y-97430000D01*
X144341965Y-97334712D01*
X144385594Y-97269415D01*
X144383435Y-97267579D01*
X144552132Y-97069253D01*
X144554204Y-97065826D01*
X144681644Y-96855015D01*
X144775110Y-96622779D01*
X144830114Y-96378558D01*
X144840500Y-96231446D01*
X144840500Y-96088554D01*
X144832028Y-95968557D01*
X144844224Y-95872174D01*
X144892377Y-95787792D01*
X144969157Y-95728260D01*
X145062874Y-95702642D01*
X145159260Y-95714838D01*
G37*
%TD.AperFunction*%
%TA.AperFunction,Conductor*%
G36*
X116481280Y-92269454D02*
G01*
X116562062Y-92323430D01*
X116610637Y-92372005D01*
X116664613Y-92452787D01*
X116683567Y-92548075D01*
X116664613Y-92643363D01*
X116636021Y-92694421D01*
X116631135Y-92701146D01*
X116631131Y-92701153D01*
X116631130Y-92701155D01*
X116517083Y-92924985D01*
X116516757Y-92925625D01*
X116438909Y-93165217D01*
X116399500Y-93414028D01*
X116399500Y-93665971D01*
X116438909Y-93914782D01*
X116493494Y-94082779D01*
X116516759Y-94154379D01*
X116631130Y-94378845D01*
X116631133Y-94378849D01*
X116631134Y-94378851D01*
X116779204Y-94582652D01*
X116779207Y-94582656D01*
X116830484Y-94633933D01*
X116884458Y-94714712D01*
X116903412Y-94810000D01*
X116884458Y-94905288D01*
X116830484Y-94986066D01*
X116779207Y-95037344D01*
X116779204Y-95037347D01*
X116631134Y-95241148D01*
X116631131Y-95241153D01*
X116631130Y-95241155D01*
X116536349Y-95427174D01*
X116516757Y-95465625D01*
X116438909Y-95705217D01*
X116399500Y-95954028D01*
X116399500Y-96205971D01*
X116438909Y-96454782D01*
X116516308Y-96692993D01*
X116516759Y-96694379D01*
X116631130Y-96918845D01*
X116631133Y-96918849D01*
X116631134Y-96918851D01*
X116779204Y-97122652D01*
X116779207Y-97122656D01*
X116957344Y-97300793D01*
X117161155Y-97448870D01*
X117177869Y-97457386D01*
X117191073Y-97466411D01*
X117199253Y-97474765D01*
X117232401Y-97498849D01*
X117870590Y-98137037D01*
X117807007Y-98154075D01*
X117692993Y-98219901D01*
X117599901Y-98312993D01*
X117534075Y-98427007D01*
X117517037Y-98490590D01*
X116890907Y-97864460D01*
X116883779Y-97859588D01*
X116845380Y-97912441D01*
X116845372Y-97912454D01*
X116748908Y-98101774D01*
X116748904Y-98101784D01*
X116683241Y-98303876D01*
X116650000Y-98513743D01*
X116650000Y-98726256D01*
X116683241Y-98936123D01*
X116748904Y-99138215D01*
X116748908Y-99138225D01*
X116845371Y-99327545D01*
X116845375Y-99327551D01*
X116884729Y-99381717D01*
X117517037Y-98749408D01*
X117534075Y-98812993D01*
X117599901Y-98927007D01*
X117692993Y-99020099D01*
X117807007Y-99085925D01*
X117870589Y-99102962D01*
X117238282Y-99735269D01*
X117238282Y-99735270D01*
X117292448Y-99774624D01*
X117481774Y-99871091D01*
X117481784Y-99871095D01*
X117683876Y-99936758D01*
X117893743Y-99969999D01*
X117893756Y-99970000D01*
X118106244Y-99970000D01*
X118106256Y-99969999D01*
X118316123Y-99936758D01*
X118518215Y-99871095D01*
X118518224Y-99871091D01*
X118707551Y-99774624D01*
X118761716Y-99735270D01*
X118129408Y-99102962D01*
X118192993Y-99085925D01*
X118307007Y-99020099D01*
X118400099Y-98927007D01*
X118465925Y-98812993D01*
X118482962Y-98749408D01*
X119115270Y-99381716D01*
X119154624Y-99327551D01*
X119251091Y-99138224D01*
X119251095Y-99138215D01*
X119316758Y-98936123D01*
X119349999Y-98726256D01*
X119350000Y-98726244D01*
X119350000Y-98513755D01*
X119349999Y-98513743D01*
X119316758Y-98303876D01*
X119251095Y-98101784D01*
X119251091Y-98101774D01*
X119154624Y-97912448D01*
X119115270Y-97858282D01*
X119115268Y-97858282D01*
X118482962Y-98490589D01*
X118465925Y-98427007D01*
X118400099Y-98312993D01*
X118307007Y-98219901D01*
X118192993Y-98154075D01*
X118129407Y-98137037D01*
X118767593Y-97498852D01*
X118830615Y-97453063D01*
X118836384Y-97450123D01*
X118866307Y-97441683D01*
X118888114Y-97414022D01*
X118903448Y-97401932D01*
X119042656Y-97300793D01*
X119220793Y-97122656D01*
X119368870Y-96918845D01*
X119483241Y-96694379D01*
X119561090Y-96454785D01*
X119596464Y-96231446D01*
X119600499Y-96205971D01*
X119600500Y-96205959D01*
X119600500Y-95954040D01*
X119600499Y-95954028D01*
X119562614Y-95714838D01*
X119561090Y-95705215D01*
X119483241Y-95465621D01*
X119368870Y-95241155D01*
X119368866Y-95241150D01*
X119368865Y-95241147D01*
X119328696Y-95185860D01*
X119288020Y-95097629D01*
X119284205Y-95000549D01*
X119317832Y-94909399D01*
X119383780Y-94838056D01*
X119472011Y-94797380D01*
X119530140Y-94790500D01*
X122500661Y-94790500D01*
X122595949Y-94809454D01*
X122676731Y-94863430D01*
X122730707Y-94944212D01*
X122749661Y-95039500D01*
X122730707Y-95134788D01*
X122690326Y-95200832D01*
X122647868Y-95250746D01*
X122518355Y-95464985D01*
X122424890Y-95697220D01*
X122424886Y-95697233D01*
X122369886Y-95941436D01*
X122359500Y-96088547D01*
X122359500Y-96231452D01*
X122369886Y-96378563D01*
X122424886Y-96622766D01*
X122424890Y-96622779D01*
X122518355Y-96855014D01*
X122647867Y-97069253D01*
X122816565Y-97267579D01*
X122814405Y-97269415D01*
X122858035Y-97334712D01*
X122876989Y-97430000D01*
X122858035Y-97525288D01*
X122814405Y-97590584D01*
X122816565Y-97592421D01*
X122647867Y-97790746D01*
X122518355Y-98004985D01*
X122424890Y-98237220D01*
X122424886Y-98237233D01*
X122369886Y-98481436D01*
X122359500Y-98628547D01*
X122359500Y-98771452D01*
X122369886Y-98918563D01*
X122424886Y-99162766D01*
X122424890Y-99162779D01*
X122518355Y-99395014D01*
X122647867Y-99609253D01*
X122810057Y-99799928D01*
X122810064Y-99799936D01*
X122810070Y-99799941D01*
X122810071Y-99799942D01*
X122979725Y-99944251D01*
X123040027Y-100020427D01*
X123066587Y-100113881D01*
X123055361Y-100210386D01*
X123008060Y-100295248D01*
X122994465Y-100309985D01*
X122931517Y-100372933D01*
X122931498Y-100372954D01*
X122868713Y-100449458D01*
X122781157Y-100580494D01*
X122734484Y-100667814D01*
X122674187Y-100813385D01*
X122674179Y-100813406D01*
X122645447Y-100908122D01*
X122629161Y-100990000D01*
X124276988Y-100990000D01*
X124244075Y-101047007D01*
X124210000Y-101174174D01*
X124210000Y-101305826D01*
X124244075Y-101432993D01*
X124276988Y-101490000D01*
X122629161Y-101490000D01*
X122645447Y-101571877D01*
X122674179Y-101666593D01*
X122674187Y-101666614D01*
X122734484Y-101812185D01*
X122781157Y-101899505D01*
X122868713Y-102030541D01*
X122931498Y-102107045D01*
X122931507Y-102107055D01*
X122994464Y-102170012D01*
X123048440Y-102250794D01*
X123067394Y-102346082D01*
X123048440Y-102441370D01*
X122994464Y-102522152D01*
X122979726Y-102535748D01*
X122810066Y-102680062D01*
X122810057Y-102680071D01*
X122647867Y-102870746D01*
X122518355Y-103084985D01*
X122424890Y-103317220D01*
X122424886Y-103317233D01*
X122369886Y-103561436D01*
X122359500Y-103708547D01*
X122359500Y-103851452D01*
X122369886Y-103998563D01*
X122424886Y-104242766D01*
X122424890Y-104242779D01*
X122518355Y-104475014D01*
X122647867Y-104689252D01*
X122656304Y-104699171D01*
X122703604Y-104784034D01*
X122714828Y-104880539D01*
X122688267Y-104973992D01*
X122627965Y-105050168D01*
X122543102Y-105097468D01*
X122466636Y-105109500D01*
X119981114Y-105109500D01*
X119885826Y-105090546D01*
X119805044Y-105036570D01*
X118085694Y-103317220D01*
X116354646Y-101586172D01*
X116195405Y-101470476D01*
X116020026Y-101381116D01*
X116020023Y-101381115D01*
X116020021Y-101381114D01*
X115832823Y-101320290D01*
X115638428Y-101289501D01*
X115638419Y-101289500D01*
X115638417Y-101289500D01*
X115638413Y-101289500D01*
X113836443Y-101289500D01*
X113741155Y-101270546D01*
X113660373Y-101216570D01*
X113606397Y-101135788D01*
X113587443Y-101040500D01*
X113588732Y-101015193D01*
X113589998Y-101002799D01*
X113589999Y-101002797D01*
X113600500Y-100900009D01*
X113600499Y-99099992D01*
X113589999Y-98997203D01*
X113534814Y-98830666D01*
X113442712Y-98681344D01*
X113389915Y-98628547D01*
X113323430Y-98562061D01*
X113269454Y-98481279D01*
X113250500Y-98385992D01*
X113250500Y-93909500D01*
X113269454Y-93814212D01*
X113323430Y-93733430D01*
X113404212Y-93679454D01*
X113499500Y-93660500D01*
X114098413Y-93660500D01*
X114098417Y-93660500D01*
X114292826Y-93629709D01*
X114480026Y-93568884D01*
X114655405Y-93479524D01*
X114814646Y-93363828D01*
X115855044Y-92323430D01*
X115935826Y-92269454D01*
X116031114Y-92250500D01*
X116385992Y-92250500D01*
X116481280Y-92269454D01*
G37*
%TD.AperFunction*%
%TA.AperFunction,Conductor*%
G36*
X113944788Y-86740068D02*
G01*
X114025570Y-86794044D01*
X114086172Y-86854646D01*
X114086171Y-86854646D01*
X114225353Y-86993827D01*
X114384092Y-87109159D01*
X114384595Y-87109524D01*
X114559975Y-87198884D01*
X114559978Y-87198885D01*
X114559985Y-87198888D01*
X114674498Y-87236095D01*
X114674500Y-87236096D01*
X114709477Y-87247460D01*
X114747173Y-87259709D01*
X114747174Y-87259709D01*
X114747177Y-87259710D01*
X114900088Y-87283928D01*
X114941583Y-87290500D01*
X122718905Y-87290500D01*
X122814193Y-87309454D01*
X122894975Y-87363430D01*
X122948951Y-87444212D01*
X122967905Y-87539500D01*
X122948951Y-87634788D01*
X122911385Y-87697463D01*
X122868713Y-87749458D01*
X122781157Y-87880494D01*
X122734484Y-87967814D01*
X122674187Y-88113385D01*
X122674179Y-88113406D01*
X122645447Y-88208122D01*
X122629161Y-88290000D01*
X124276988Y-88290000D01*
X124244075Y-88347007D01*
X124210000Y-88474174D01*
X124210000Y-88605826D01*
X124244075Y-88732993D01*
X124276988Y-88790000D01*
X122629161Y-88790000D01*
X122645447Y-88871877D01*
X122674179Y-88966593D01*
X122674187Y-88966614D01*
X122734484Y-89112185D01*
X122781157Y-89199505D01*
X122868713Y-89330541D01*
X122931498Y-89407045D01*
X122931507Y-89407055D01*
X122994464Y-89470012D01*
X123048440Y-89550794D01*
X123067394Y-89646082D01*
X123048440Y-89741370D01*
X122994464Y-89822152D01*
X122979726Y-89835748D01*
X122810066Y-89980062D01*
X122810057Y-89980071D01*
X122647867Y-90170746D01*
X122518355Y-90384985D01*
X122424890Y-90617220D01*
X122424886Y-90617233D01*
X122369886Y-90861436D01*
X122359500Y-91008547D01*
X122359500Y-91151452D01*
X122369886Y-91298563D01*
X122424886Y-91542766D01*
X122424890Y-91542779D01*
X122518356Y-91775017D01*
X122600974Y-91911683D01*
X122634050Y-92003034D01*
X122629650Y-92100089D01*
X122588443Y-92188073D01*
X122516702Y-92253589D01*
X122425351Y-92286665D01*
X122387885Y-92289500D01*
X119836443Y-92289500D01*
X119741155Y-92270546D01*
X119660373Y-92216570D01*
X119606397Y-92135788D01*
X119587443Y-92040500D01*
X119588732Y-92015193D01*
X119589998Y-92002799D01*
X119589999Y-92002797D01*
X119600500Y-91900009D01*
X119600499Y-90099992D01*
X119589999Y-89997203D01*
X119587280Y-89988999D01*
X119559069Y-89903862D01*
X119534814Y-89830666D01*
X119442712Y-89681344D01*
X119318656Y-89557288D01*
X119313607Y-89554174D01*
X119248058Y-89513743D01*
X119169334Y-89465186D01*
X119169332Y-89465185D01*
X119169330Y-89465184D01*
X119169332Y-89465184D01*
X119002802Y-89410002D01*
X119002798Y-89410001D01*
X119002797Y-89410001D01*
X118900009Y-89399500D01*
X118900005Y-89399500D01*
X117099993Y-89399500D01*
X116997199Y-89410001D01*
X116830667Y-89465185D01*
X116681343Y-89557288D01*
X116562061Y-89676570D01*
X116481279Y-89730546D01*
X116385992Y-89749500D01*
X115508416Y-89749500D01*
X115311583Y-89749500D01*
X115311580Y-89749500D01*
X115311571Y-89749501D01*
X115117176Y-89780290D01*
X114929978Y-89841114D01*
X114754595Y-89930476D01*
X114595356Y-90046170D01*
X113554956Y-91086570D01*
X113474174Y-91140546D01*
X113378886Y-91159500D01*
X112944156Y-91159500D01*
X112848868Y-91140546D01*
X112768086Y-91086570D01*
X112714110Y-91005788D01*
X112695156Y-90910500D01*
X112714110Y-90815212D01*
X112760941Y-90745123D01*
X112761716Y-90735270D01*
X112129408Y-90102962D01*
X112192993Y-90085925D01*
X112307007Y-90020099D01*
X112400099Y-89927007D01*
X112465925Y-89812993D01*
X112482962Y-89749408D01*
X113115270Y-90381716D01*
X113154624Y-90327551D01*
X113251091Y-90138224D01*
X113251095Y-90138215D01*
X113316758Y-89936123D01*
X113349999Y-89726256D01*
X113350000Y-89726244D01*
X113350000Y-89513755D01*
X113349999Y-89513743D01*
X113316758Y-89303876D01*
X113251095Y-89101784D01*
X113251091Y-89101774D01*
X113154624Y-88912448D01*
X113115270Y-88858282D01*
X113115268Y-88858282D01*
X112482962Y-89490589D01*
X112465925Y-89427007D01*
X112400099Y-89312993D01*
X112307007Y-89219901D01*
X112192993Y-89154075D01*
X112129407Y-89137037D01*
X112767593Y-88498852D01*
X112830615Y-88453063D01*
X112836384Y-88450123D01*
X112866307Y-88441683D01*
X112888114Y-88414022D01*
X112903448Y-88401932D01*
X113042656Y-88300793D01*
X113220793Y-88122656D01*
X113368870Y-87918845D01*
X113483241Y-87694379D01*
X113561090Y-87454785D01*
X113584991Y-87303884D01*
X113600499Y-87205971D01*
X113600500Y-87205959D01*
X113600500Y-86970114D01*
X113619454Y-86874826D01*
X113673430Y-86794044D01*
X113754212Y-86740068D01*
X113849500Y-86721114D01*
X113944788Y-86740068D01*
G37*
%TD.AperFunction*%
%TA.AperFunction,Conductor*%
G36*
X111534075Y-89812993D02*
G01*
X111599901Y-89927007D01*
X111692993Y-90020099D01*
X111807007Y-90085925D01*
X111870589Y-90102962D01*
X111238282Y-90735269D01*
X111239385Y-90749281D01*
X111268149Y-90780399D01*
X111301776Y-90871549D01*
X111297961Y-90968629D01*
X111257285Y-91056860D01*
X111185942Y-91122808D01*
X111094792Y-91156435D01*
X111055841Y-91159500D01*
X110469461Y-91159500D01*
X110374173Y-91140546D01*
X110293391Y-91086570D01*
X110239415Y-91005788D01*
X110220461Y-90910500D01*
X110220461Y-90910470D01*
X110220472Y-90815212D01*
X110220560Y-90084224D01*
X110239524Y-89988945D01*
X110293510Y-89908170D01*
X110374298Y-89854203D01*
X110469589Y-89835260D01*
X110564874Y-89854225D01*
X110645649Y-89908211D01*
X110699616Y-89988999D01*
X110706372Y-90007315D01*
X110748904Y-90138215D01*
X110748908Y-90138225D01*
X110845371Y-90327545D01*
X110845375Y-90327551D01*
X110884729Y-90381717D01*
X111517037Y-89749408D01*
X111534075Y-89812993D01*
G37*
%TD.AperFunction*%
%TA.AperFunction,Conductor*%
G36*
X110565110Y-87890375D02*
G01*
X110645885Y-87944362D01*
X110671239Y-87974051D01*
X110779207Y-88122656D01*
X110957344Y-88300793D01*
X111096530Y-88401917D01*
X111130744Y-88438930D01*
X111145856Y-88441936D01*
X111163606Y-88450118D01*
X111169380Y-88453061D01*
X111232401Y-88498849D01*
X111870590Y-89137037D01*
X111807007Y-89154075D01*
X111692993Y-89219901D01*
X111599901Y-89312993D01*
X111534075Y-89427007D01*
X111517037Y-89490590D01*
X110884728Y-88858281D01*
X110845380Y-88912441D01*
X110845372Y-88912454D01*
X110748908Y-89101774D01*
X110748905Y-89101781D01*
X110706483Y-89232343D01*
X110659011Y-89317110D01*
X110582713Y-89377258D01*
X110489206Y-89403629D01*
X110392724Y-89392210D01*
X110307957Y-89344738D01*
X110247809Y-89268440D01*
X110221438Y-89174933D01*
X110220671Y-89155399D01*
X110220795Y-88120373D01*
X110239759Y-88025094D01*
X110293746Y-87944319D01*
X110374533Y-87890353D01*
X110469824Y-87871410D01*
X110565110Y-87890375D01*
G37*
%TD.AperFunction*%
%TD*%
%TA.AperFunction,Conductor*%
%TO.N,+5V*%
G36*
X110609480Y-80519454D02*
G01*
X110690262Y-80573430D01*
X110744238Y-80654212D01*
X110763192Y-80749500D01*
X110744238Y-80844788D01*
X110713528Y-80898719D01*
X110706647Y-80907910D01*
X110656403Y-81042621D01*
X110656401Y-81042628D01*
X110650000Y-81102167D01*
X110650000Y-81749999D01*
X110650001Y-81750000D01*
X111566988Y-81750000D01*
X111534075Y-81807007D01*
X111500000Y-81934174D01*
X111500000Y-82065826D01*
X111534075Y-82192993D01*
X111566988Y-82250000D01*
X110650001Y-82250000D01*
X110650000Y-82250001D01*
X110650000Y-82897832D01*
X110656401Y-82957371D01*
X110656403Y-82957378D01*
X110706647Y-83092090D01*
X110760220Y-83163653D01*
X110802152Y-83251293D01*
X110807353Y-83348309D01*
X110775032Y-83439930D01*
X110710109Y-83512208D01*
X110622469Y-83554140D01*
X110559473Y-83561871D01*
X110229999Y-83559999D01*
X110228429Y-85320028D01*
X110226954Y-86970901D01*
X110207915Y-87066173D01*
X110153866Y-87146906D01*
X110091294Y-87192388D01*
X109954891Y-87262118D01*
X109954880Y-87262124D01*
X109874086Y-87316095D01*
X109779372Y-87390966D01*
X109665630Y-87524497D01*
X109611638Y-87605279D01*
X109552777Y-87710712D01*
X109498792Y-87877619D01*
X109479829Y-87972887D01*
X109465295Y-88120276D01*
X109465295Y-88120279D01*
X109465171Y-89155322D01*
X109465753Y-89185048D01*
X109466513Y-89204394D01*
X109466610Y-89206786D01*
X109494302Y-89380002D01*
X109520671Y-89473503D01*
X109520673Y-89473508D01*
X109539804Y-89525135D01*
X109542403Y-89532147D01*
X109557741Y-89628084D01*
X109545835Y-89695298D01*
X109498558Y-89841465D01*
X109498557Y-89841468D01*
X109479594Y-89936738D01*
X109465060Y-90084127D01*
X109465060Y-90084130D01*
X109464960Y-90910413D01*
X109479476Y-91057878D01*
X109479482Y-91057915D01*
X109498427Y-91153157D01*
X109498436Y-91153195D01*
X109524280Y-91244323D01*
X109531373Y-91269335D01*
X109611237Y-91425517D01*
X109629347Y-91452621D01*
X109665215Y-91506302D01*
X109740109Y-91601020D01*
X109802882Y-91654475D01*
X109873662Y-91714748D01*
X109954444Y-91768724D01*
X110059872Y-91827565D01*
X110059878Y-91827566D01*
X110068227Y-91831204D01*
X110068903Y-91831340D01*
X110069584Y-91831796D01*
X110071085Y-91832450D01*
X110070966Y-91832721D01*
X110101048Y-91852860D01*
X110134826Y-91871708D01*
X110141155Y-91879711D01*
X110149636Y-91885389D01*
X110171098Y-91917572D01*
X110195093Y-91947912D01*
X110197878Y-91957729D01*
X110203540Y-91966219D01*
X110211052Y-92004162D01*
X110221611Y-92041378D01*
X110222409Y-92061524D01*
X110222323Y-92157470D01*
X110221859Y-92172439D01*
X110204066Y-92463530D01*
X110200446Y-92493252D01*
X110149194Y-92772728D01*
X110142033Y-92801799D01*
X110117357Y-92881097D01*
X110070946Y-92966450D01*
X109995405Y-93027545D01*
X109984613Y-93032886D01*
X109977884Y-93036015D01*
X109905806Y-93080371D01*
X109903439Y-93081249D01*
X109839726Y-93129033D01*
X109830174Y-93137017D01*
X109830175Y-93137018D01*
X109824962Y-93141376D01*
X109809483Y-93152944D01*
X109803146Y-93159611D01*
X109792195Y-93168766D01*
X109778592Y-93180137D01*
X109778587Y-93180142D01*
X109739355Y-93226211D01*
X109730295Y-93236281D01*
X109688657Y-93280103D01*
X109688654Y-93280106D01*
X109644112Y-93339496D01*
X109640870Y-93347189D01*
X109624395Y-93374245D01*
X109610936Y-93394384D01*
X109587477Y-93434108D01*
X109586478Y-93433525D01*
X109586471Y-93433537D01*
X109576748Y-93452278D01*
X109572484Y-93459497D01*
X109572442Y-93459568D01*
X109568137Y-93466860D01*
X109563503Y-93476517D01*
X109563417Y-93476475D01*
X109558613Y-93487233D01*
X109552040Y-93499904D01*
X109532527Y-93560253D01*
X109528525Y-93571675D01*
X109506125Y-93630944D01*
X109506121Y-93630955D01*
X109488577Y-93701134D01*
X109488542Y-93713547D01*
X109487721Y-93718857D01*
X109479135Y-93761998D01*
X109475757Y-93796247D01*
X109474710Y-93803025D01*
X109460370Y-93842342D01*
X109448217Y-93882389D01*
X109443804Y-93887764D01*
X109441421Y-93894299D01*
X109413124Y-93925138D01*
X109386574Y-93957483D01*
X109380441Y-93960760D01*
X109375738Y-93965886D01*
X109337793Y-93983549D01*
X109300885Y-94003272D01*
X109292748Y-94004518D01*
X109287658Y-94006888D01*
X109273228Y-94007508D01*
X109231027Y-94013973D01*
X108907655Y-94017082D01*
X108812189Y-93999045D01*
X108730892Y-93945848D01*
X108676142Y-93865589D01*
X108656273Y-93770488D01*
X108674310Y-93675022D01*
X108705928Y-93618871D01*
X108793353Y-93502088D01*
X108843596Y-93367378D01*
X108843598Y-93367371D01*
X108849999Y-93307832D01*
X108850000Y-93307825D01*
X108850000Y-92660001D01*
X108849999Y-92660000D01*
X107933012Y-92660000D01*
X107965925Y-92602993D01*
X108000000Y-92475826D01*
X108000000Y-92344174D01*
X107965925Y-92217007D01*
X107933012Y-92160000D01*
X108849999Y-92160000D01*
X108850000Y-92159999D01*
X108850000Y-91512175D01*
X108849999Y-91512167D01*
X108843598Y-91452628D01*
X108843596Y-91452621D01*
X108793353Y-91317912D01*
X108707189Y-91202812D01*
X108707187Y-91202810D01*
X108592087Y-91116646D01*
X108457378Y-91066403D01*
X108457371Y-91066401D01*
X108397832Y-91060000D01*
X107750001Y-91060000D01*
X107750000Y-91060001D01*
X107750000Y-91976988D01*
X107692993Y-91944075D01*
X107565826Y-91910000D01*
X107434174Y-91910000D01*
X107307007Y-91944075D01*
X107250000Y-91976988D01*
X107250000Y-91060001D01*
X107249999Y-91060000D01*
X106602167Y-91060000D01*
X106542628Y-91066401D01*
X106542621Y-91066403D01*
X106407912Y-91116646D01*
X106292812Y-91202810D01*
X106292810Y-91202812D01*
X106206646Y-91317912D01*
X106156403Y-91452621D01*
X106156401Y-91452628D01*
X106150000Y-91512167D01*
X106150000Y-92159999D01*
X106150001Y-92160000D01*
X107066988Y-92160000D01*
X107034075Y-92217007D01*
X107000000Y-92344174D01*
X107000000Y-92475826D01*
X107034075Y-92602993D01*
X107066988Y-92660000D01*
X106150001Y-92660000D01*
X106150000Y-92660001D01*
X106150000Y-93307832D01*
X106156401Y-93367371D01*
X106156403Y-93367378D01*
X106206646Y-93502087D01*
X106292810Y-93617187D01*
X106292812Y-93617189D01*
X106407912Y-93703353D01*
X106539389Y-93752391D01*
X106546085Y-93756527D01*
X106553760Y-93758268D01*
X106587199Y-93781925D01*
X106622045Y-93803450D01*
X106626647Y-93809832D01*
X106633074Y-93814379D01*
X106654915Y-93849033D01*
X106678871Y-93882253D01*
X106680681Y-93889912D01*
X106684877Y-93896570D01*
X106691795Y-93936944D01*
X106701214Y-93976804D01*
X106699955Y-93984570D01*
X106701285Y-93992330D01*
X106692224Y-94032279D01*
X106685674Y-94072708D01*
X106681537Y-94079404D01*
X106679797Y-94087079D01*
X106656139Y-94120518D01*
X106634615Y-94155364D01*
X106628232Y-94159966D01*
X106623686Y-94166393D01*
X106599373Y-94180776D01*
X106555812Y-94212190D01*
X106541495Y-94218196D01*
X106534943Y-94220707D01*
X106479962Y-94238304D01*
X106437230Y-94253407D01*
X106409395Y-94264195D01*
X106367607Y-94281852D01*
X106327679Y-94300154D01*
X106320239Y-94303006D01*
X106280031Y-94309895D01*
X106240344Y-94319331D01*
X106232405Y-94318055D01*
X106224479Y-94319414D01*
X106184691Y-94310390D01*
X106144419Y-94303921D01*
X106136350Y-94299427D01*
X106129730Y-94297926D01*
X106115208Y-94287653D01*
X106078321Y-94267109D01*
X105916000Y-94140959D01*
X105893356Y-94121049D01*
X105755900Y-93984570D01*
X105692773Y-93921892D01*
X105672703Y-93899391D01*
X105553988Y-93748865D01*
X105509862Y-93662309D01*
X105500500Y-93594671D01*
X105500500Y-81482659D01*
X105519454Y-81387371D01*
X105546436Y-81338555D01*
X105660845Y-81177335D01*
X105678299Y-81155458D01*
X105884389Y-80924996D01*
X105904179Y-80905222D01*
X106134850Y-80699326D01*
X106156735Y-80681901D01*
X106348188Y-80546303D01*
X106436903Y-80506696D01*
X106492104Y-80500500D01*
X110514192Y-80500500D01*
X110609480Y-80519454D01*
G37*
%TD.AperFunction*%
%TD*%
%TA.AperFunction,Conductor*%
%TO.N,Net-(U1-3V3)*%
G36*
X163691169Y-111978332D02*
G01*
X163695926Y-111985615D01*
X163840539Y-112707702D01*
X163840539Y-112712298D01*
X163695926Y-113434384D01*
X163690941Y-113441823D01*
X163682427Y-113443609D01*
X162364084Y-113211701D01*
X162356530Y-113206893D01*
X162354411Y-113200178D01*
X162354411Y-112219821D01*
X162357838Y-112211548D01*
X162364082Y-112208298D01*
X163682429Y-111976390D01*
X163691169Y-111978332D01*
G37*
%TD.AperFunction*%
%TD*%
%TA.AperFunction,Conductor*%
%TO.N,Net-(U1-3V3)*%
G36*
X165355916Y-128998298D02*
G01*
X165363470Y-129003106D01*
X165365589Y-129009821D01*
X165365589Y-129990178D01*
X165362162Y-129998451D01*
X165355916Y-130001701D01*
X164037572Y-130233609D01*
X164028830Y-130231667D01*
X164024074Y-130224386D01*
X163879460Y-129502296D01*
X163879460Y-129497702D01*
X164024074Y-128775612D01*
X164029058Y-128768176D01*
X164037570Y-128766390D01*
X165355916Y-128998298D01*
G37*
%TD.AperFunction*%
%TD*%
%TA.AperFunction,Conductor*%
%TO.N,Net-(U1-GPIO19)*%
G36*
X155681169Y-120868332D02*
G01*
X155685926Y-120875615D01*
X155830539Y-121597702D01*
X155830539Y-121602298D01*
X155685926Y-122324384D01*
X155680941Y-122331823D01*
X155672427Y-122333609D01*
X154354084Y-122101701D01*
X154346530Y-122096893D01*
X154344411Y-122090178D01*
X154344411Y-121109821D01*
X154347838Y-121101548D01*
X154354082Y-121098298D01*
X155672429Y-120866390D01*
X155681169Y-120868332D01*
G37*
%TD.AperFunction*%
%TD*%
%TA.AperFunction,Conductor*%
%TO.N,Net-(U1-GPIO19)*%
G36*
X157395916Y-131228298D02*
G01*
X157403470Y-131233106D01*
X157405589Y-131239821D01*
X157405589Y-132220178D01*
X157402162Y-132228451D01*
X157395916Y-132231701D01*
X156077572Y-132463609D01*
X156068830Y-132461667D01*
X156064074Y-132454386D01*
X155919460Y-131732296D01*
X155919460Y-131727702D01*
X156064074Y-131005612D01*
X156069058Y-130998176D01*
X156077570Y-130996390D01*
X157395916Y-131228298D01*
G37*
%TD.AperFunction*%
%TD*%
%TA.AperFunction,Conductor*%
%TO.N,Net-(U1-GPIO20)*%
G36*
X159731169Y-116088332D02*
G01*
X159735926Y-116095615D01*
X159880539Y-116817702D01*
X159880539Y-116822298D01*
X159735926Y-117544384D01*
X159730941Y-117551823D01*
X159722427Y-117553609D01*
X158404084Y-117321701D01*
X158396530Y-117316893D01*
X158394411Y-117310178D01*
X158394411Y-116329821D01*
X158397838Y-116321548D01*
X158404082Y-116318298D01*
X159722429Y-116086390D01*
X159731169Y-116088332D01*
G37*
%TD.AperFunction*%
%TD*%
%TA.AperFunction,Conductor*%
%TO.N,Net-(U1-GPIO20)*%
G36*
X161355916Y-123998298D02*
G01*
X161363470Y-124003106D01*
X161365589Y-124009821D01*
X161365589Y-124990178D01*
X161362162Y-124998451D01*
X161355916Y-125001701D01*
X160037572Y-125233609D01*
X160028830Y-125231667D01*
X160024074Y-125224386D01*
X159879460Y-124502296D01*
X159879460Y-124497702D01*
X160024074Y-123775612D01*
X160029058Y-123768176D01*
X160037570Y-123766390D01*
X161355916Y-123998298D01*
G37*
%TD.AperFunction*%
%TD*%
%TA.AperFunction,Conductor*%
%TO.N,Net-(U1-GPIO16)*%
G36*
X153340916Y-118338298D02*
G01*
X153348470Y-118343106D01*
X153350589Y-118349821D01*
X153350589Y-119330178D01*
X153347162Y-119338451D01*
X153340916Y-119341701D01*
X152022572Y-119573609D01*
X152013830Y-119571667D01*
X152009074Y-119564386D01*
X151864460Y-118842296D01*
X151864460Y-118837702D01*
X152009074Y-118115612D01*
X152014058Y-118108176D01*
X152022570Y-118106390D01*
X153340916Y-118338298D01*
G37*
%TD.AperFunction*%
%TD*%
%TA.AperFunction,Conductor*%
%TO.N,Net-(U1-GPIO16)*%
G36*
X151721062Y-131008400D02*
G01*
X151725958Y-131015779D01*
X151870539Y-131737702D01*
X151870539Y-131742298D01*
X151725893Y-132464546D01*
X151720908Y-132471985D01*
X151712562Y-132473799D01*
X150394252Y-132261584D01*
X150386628Y-132256886D01*
X150384411Y-132250033D01*
X150384411Y-131269678D01*
X150387838Y-131261405D01*
X150393916Y-131258186D01*
X151712294Y-131006584D01*
X151721062Y-131008400D01*
G37*
%TD.AperFunction*%
%TD*%
M02*
