%TF.GenerationSoftware,KiCad,Pcbnew,9.0.2*%
%TF.CreationDate,2025-07-08T09:36:59-03:00*%
%TF.ProjectId,RadProt_IOT,52616450-726f-4745-9f49-4f542e6b6963,rev?*%
%TF.SameCoordinates,Original*%
%TF.FileFunction,Drillmap*%
%TF.FilePolarity,Positive*%
%FSLAX45Y45*%
G04 Gerber Fmt 4.5, Leading zero omitted, Abs format (unit mm)*
G04 Created by KiCad (PCBNEW 9.0.2) date 2025-07-08 09:36:59*
%MOMM*%
%LPD*%
G01*
G04 APERTURE LIST*
%ADD10C,0.200000*%
%ADD11C,0.050000*%
%ADD12C,0.185000*%
%ADD13C,0.220000*%
G04 APERTURE END LIST*
D10*
X11690000Y-11820000D02*
G75*
G02*
X11290000Y-11820000I-200000J0D01*
G01*
X11290000Y-11820000D02*
G75*
G02*
X11690000Y-11820000I200000J0D01*
G01*
D11*
X15000000Y-8000000D02*
X10500000Y-8000000D01*
D10*
X17838000Y-11419000D02*
G75*
G02*
X17438000Y-11419000I-200000J0D01*
G01*
X17438000Y-11419000D02*
G75*
G02*
X17838000Y-11419000I200000J0D01*
G01*
D11*
X18100000Y-10969000D02*
X14997471Y-10969000D01*
X10500000Y-13500000D02*
X18100000Y-13500000D01*
X14997471Y-10969000D02*
X15000000Y-8000000D01*
X10500000Y-8000000D02*
X10500000Y-13500000D01*
X18100000Y-10969000D02*
X18100000Y-13500000D01*
D10*
D12*
X13025000Y-8569500D02*
X13210000Y-8754500D01*
X13210000Y-8569500D02*
X13025000Y-8754500D01*
X13510000Y-8569500D02*
X13695000Y-8754500D01*
X13695000Y-8569500D02*
X13510000Y-8754500D01*
D13*
X13197500Y-8359000D02*
G75*
G02*
X12977500Y-8359000I-110000J0D01*
G01*
X12977500Y-8359000D02*
G75*
G02*
X13197500Y-8359000I110000J0D01*
G01*
X13742500Y-8359000D02*
G75*
G02*
X13522500Y-8359000I-110000J0D01*
G01*
X13522500Y-8359000D02*
G75*
G02*
X13742500Y-8359000I110000J0D01*
G01*
D10*
X10758277Y-13813984D02*
X10758277Y-13613984D01*
X10758277Y-13613984D02*
X10805896Y-13613984D01*
X10805896Y-13613984D02*
X10834467Y-13623508D01*
X10834467Y-13623508D02*
X10853515Y-13642555D01*
X10853515Y-13642555D02*
X10863039Y-13661603D01*
X10863039Y-13661603D02*
X10872563Y-13699698D01*
X10872563Y-13699698D02*
X10872563Y-13728269D01*
X10872563Y-13728269D02*
X10863039Y-13766365D01*
X10863039Y-13766365D02*
X10853515Y-13785412D01*
X10853515Y-13785412D02*
X10834467Y-13804460D01*
X10834467Y-13804460D02*
X10805896Y-13813984D01*
X10805896Y-13813984D02*
X10758277Y-13813984D01*
X10958277Y-13813984D02*
X10958277Y-13680650D01*
X10958277Y-13718746D02*
X10967801Y-13699698D01*
X10967801Y-13699698D02*
X10977324Y-13690174D01*
X10977324Y-13690174D02*
X10996372Y-13680650D01*
X10996372Y-13680650D02*
X11015420Y-13680650D01*
X11082086Y-13813984D02*
X11082086Y-13680650D01*
X11082086Y-13613984D02*
X11072563Y-13623508D01*
X11072563Y-13623508D02*
X11082086Y-13633031D01*
X11082086Y-13633031D02*
X11091610Y-13623508D01*
X11091610Y-13623508D02*
X11082086Y-13613984D01*
X11082086Y-13613984D02*
X11082086Y-13633031D01*
X11205896Y-13813984D02*
X11186848Y-13804460D01*
X11186848Y-13804460D02*
X11177324Y-13785412D01*
X11177324Y-13785412D02*
X11177324Y-13613984D01*
X11310658Y-13813984D02*
X11291610Y-13804460D01*
X11291610Y-13804460D02*
X11282086Y-13785412D01*
X11282086Y-13785412D02*
X11282086Y-13613984D01*
X11539229Y-13813984D02*
X11539229Y-13613984D01*
X11539229Y-13613984D02*
X11605896Y-13756841D01*
X11605896Y-13756841D02*
X11672562Y-13613984D01*
X11672562Y-13613984D02*
X11672562Y-13813984D01*
X11853515Y-13813984D02*
X11853515Y-13709222D01*
X11853515Y-13709222D02*
X11843991Y-13690174D01*
X11843991Y-13690174D02*
X11824943Y-13680650D01*
X11824943Y-13680650D02*
X11786848Y-13680650D01*
X11786848Y-13680650D02*
X11767801Y-13690174D01*
X11853515Y-13804460D02*
X11834467Y-13813984D01*
X11834467Y-13813984D02*
X11786848Y-13813984D01*
X11786848Y-13813984D02*
X11767801Y-13804460D01*
X11767801Y-13804460D02*
X11758277Y-13785412D01*
X11758277Y-13785412D02*
X11758277Y-13766365D01*
X11758277Y-13766365D02*
X11767801Y-13747317D01*
X11767801Y-13747317D02*
X11786848Y-13737793D01*
X11786848Y-13737793D02*
X11834467Y-13737793D01*
X11834467Y-13737793D02*
X11853515Y-13728269D01*
X11948753Y-13680650D02*
X11948753Y-13880650D01*
X11948753Y-13690174D02*
X11967801Y-13680650D01*
X11967801Y-13680650D02*
X12005896Y-13680650D01*
X12005896Y-13680650D02*
X12024943Y-13690174D01*
X12024943Y-13690174D02*
X12034467Y-13699698D01*
X12034467Y-13699698D02*
X12043991Y-13718746D01*
X12043991Y-13718746D02*
X12043991Y-13775888D01*
X12043991Y-13775888D02*
X12034467Y-13794936D01*
X12034467Y-13794936D02*
X12024943Y-13804460D01*
X12024943Y-13804460D02*
X12005896Y-13813984D01*
X12005896Y-13813984D02*
X11967801Y-13813984D01*
X11967801Y-13813984D02*
X11948753Y-13804460D01*
X12129705Y-13794936D02*
X12139229Y-13804460D01*
X12139229Y-13804460D02*
X12129705Y-13813984D01*
X12129705Y-13813984D02*
X12120182Y-13804460D01*
X12120182Y-13804460D02*
X12129705Y-13794936D01*
X12129705Y-13794936D02*
X12129705Y-13813984D01*
X12129705Y-13690174D02*
X12139229Y-13699698D01*
X12139229Y-13699698D02*
X12129705Y-13709222D01*
X12129705Y-13709222D02*
X12120182Y-13699698D01*
X12120182Y-13699698D02*
X12129705Y-13690174D01*
X12129705Y-13690174D02*
X12129705Y-13709222D01*
D12*
X10312500Y-14050000D02*
X10497500Y-14235000D01*
X10497500Y-14050000D02*
X10312500Y-14235000D01*
D10*
X10863039Y-14233984D02*
X10748753Y-14233984D01*
X10805896Y-14233984D02*
X10805896Y-14033984D01*
X10805896Y-14033984D02*
X10786848Y-14062555D01*
X10786848Y-14062555D02*
X10767801Y-14081603D01*
X10767801Y-14081603D02*
X10748753Y-14091127D01*
X10948753Y-14214936D02*
X10958277Y-14224460D01*
X10958277Y-14224460D02*
X10948753Y-14233984D01*
X10948753Y-14233984D02*
X10939229Y-14224460D01*
X10939229Y-14224460D02*
X10948753Y-14214936D01*
X10948753Y-14214936D02*
X10948753Y-14233984D01*
X11072563Y-14119698D02*
X11053515Y-14110174D01*
X11053515Y-14110174D02*
X11043991Y-14100650D01*
X11043991Y-14100650D02*
X11034467Y-14081603D01*
X11034467Y-14081603D02*
X11034467Y-14072079D01*
X11034467Y-14072079D02*
X11043991Y-14053031D01*
X11043991Y-14053031D02*
X11053515Y-14043508D01*
X11053515Y-14043508D02*
X11072563Y-14033984D01*
X11072563Y-14033984D02*
X11110658Y-14033984D01*
X11110658Y-14033984D02*
X11129705Y-14043508D01*
X11129705Y-14043508D02*
X11139229Y-14053031D01*
X11139229Y-14053031D02*
X11148753Y-14072079D01*
X11148753Y-14072079D02*
X11148753Y-14081603D01*
X11148753Y-14081603D02*
X11139229Y-14100650D01*
X11139229Y-14100650D02*
X11129705Y-14110174D01*
X11129705Y-14110174D02*
X11110658Y-14119698D01*
X11110658Y-14119698D02*
X11072563Y-14119698D01*
X11072563Y-14119698D02*
X11053515Y-14129222D01*
X11053515Y-14129222D02*
X11043991Y-14138746D01*
X11043991Y-14138746D02*
X11034467Y-14157793D01*
X11034467Y-14157793D02*
X11034467Y-14195888D01*
X11034467Y-14195888D02*
X11043991Y-14214936D01*
X11043991Y-14214936D02*
X11053515Y-14224460D01*
X11053515Y-14224460D02*
X11072563Y-14233984D01*
X11072563Y-14233984D02*
X11110658Y-14233984D01*
X11110658Y-14233984D02*
X11129705Y-14224460D01*
X11129705Y-14224460D02*
X11139229Y-14214936D01*
X11139229Y-14214936D02*
X11148753Y-14195888D01*
X11148753Y-14195888D02*
X11148753Y-14157793D01*
X11148753Y-14157793D02*
X11139229Y-14138746D01*
X11139229Y-14138746D02*
X11129705Y-14129222D01*
X11129705Y-14129222D02*
X11110658Y-14119698D01*
X11329705Y-14033984D02*
X11234467Y-14033984D01*
X11234467Y-14033984D02*
X11224943Y-14129222D01*
X11224943Y-14129222D02*
X11234467Y-14119698D01*
X11234467Y-14119698D02*
X11253515Y-14110174D01*
X11253515Y-14110174D02*
X11301134Y-14110174D01*
X11301134Y-14110174D02*
X11320182Y-14119698D01*
X11320182Y-14119698D02*
X11329705Y-14129222D01*
X11329705Y-14129222D02*
X11339229Y-14148269D01*
X11339229Y-14148269D02*
X11339229Y-14195888D01*
X11339229Y-14195888D02*
X11329705Y-14214936D01*
X11329705Y-14214936D02*
X11320182Y-14224460D01*
X11320182Y-14224460D02*
X11301134Y-14233984D01*
X11301134Y-14233984D02*
X11253515Y-14233984D01*
X11253515Y-14233984D02*
X11234467Y-14224460D01*
X11234467Y-14224460D02*
X11224943Y-14214936D01*
X11463039Y-14033984D02*
X11482086Y-14033984D01*
X11482086Y-14033984D02*
X11501134Y-14043508D01*
X11501134Y-14043508D02*
X11510658Y-14053031D01*
X11510658Y-14053031D02*
X11520182Y-14072079D01*
X11520182Y-14072079D02*
X11529705Y-14110174D01*
X11529705Y-14110174D02*
X11529705Y-14157793D01*
X11529705Y-14157793D02*
X11520182Y-14195888D01*
X11520182Y-14195888D02*
X11510658Y-14214936D01*
X11510658Y-14214936D02*
X11501134Y-14224460D01*
X11501134Y-14224460D02*
X11482086Y-14233984D01*
X11482086Y-14233984D02*
X11463039Y-14233984D01*
X11463039Y-14233984D02*
X11443991Y-14224460D01*
X11443991Y-14224460D02*
X11434467Y-14214936D01*
X11434467Y-14214936D02*
X11424943Y-14195888D01*
X11424943Y-14195888D02*
X11415420Y-14157793D01*
X11415420Y-14157793D02*
X11415420Y-14110174D01*
X11415420Y-14110174D02*
X11424943Y-14072079D01*
X11424943Y-14072079D02*
X11434467Y-14053031D01*
X11434467Y-14053031D02*
X11443991Y-14043508D01*
X11443991Y-14043508D02*
X11463039Y-14033984D01*
X11615420Y-14233984D02*
X11615420Y-14100650D01*
X11615420Y-14119698D02*
X11624943Y-14110174D01*
X11624943Y-14110174D02*
X11643991Y-14100650D01*
X11643991Y-14100650D02*
X11672563Y-14100650D01*
X11672563Y-14100650D02*
X11691610Y-14110174D01*
X11691610Y-14110174D02*
X11701134Y-14129222D01*
X11701134Y-14129222D02*
X11701134Y-14233984D01*
X11701134Y-14129222D02*
X11710658Y-14110174D01*
X11710658Y-14110174D02*
X11729705Y-14100650D01*
X11729705Y-14100650D02*
X11758277Y-14100650D01*
X11758277Y-14100650D02*
X11777324Y-14110174D01*
X11777324Y-14110174D02*
X11786848Y-14129222D01*
X11786848Y-14129222D02*
X11786848Y-14233984D01*
X11882086Y-14233984D02*
X11882086Y-14100650D01*
X11882086Y-14119698D02*
X11891610Y-14110174D01*
X11891610Y-14110174D02*
X11910658Y-14100650D01*
X11910658Y-14100650D02*
X11939229Y-14100650D01*
X11939229Y-14100650D02*
X11958277Y-14110174D01*
X11958277Y-14110174D02*
X11967801Y-14129222D01*
X11967801Y-14129222D02*
X11967801Y-14233984D01*
X11967801Y-14129222D02*
X11977324Y-14110174D01*
X11977324Y-14110174D02*
X11996372Y-14100650D01*
X11996372Y-14100650D02*
X12024943Y-14100650D01*
X12024943Y-14100650D02*
X12043991Y-14110174D01*
X12043991Y-14110174D02*
X12053515Y-14129222D01*
X12053515Y-14129222D02*
X12053515Y-14233984D01*
X12443991Y-14024460D02*
X12272563Y-14281603D01*
X12701134Y-14033984D02*
X12720182Y-14033984D01*
X12720182Y-14033984D02*
X12739229Y-14043508D01*
X12739229Y-14043508D02*
X12748753Y-14053031D01*
X12748753Y-14053031D02*
X12758277Y-14072079D01*
X12758277Y-14072079D02*
X12767801Y-14110174D01*
X12767801Y-14110174D02*
X12767801Y-14157793D01*
X12767801Y-14157793D02*
X12758277Y-14195888D01*
X12758277Y-14195888D02*
X12748753Y-14214936D01*
X12748753Y-14214936D02*
X12739229Y-14224460D01*
X12739229Y-14224460D02*
X12720182Y-14233984D01*
X12720182Y-14233984D02*
X12701134Y-14233984D01*
X12701134Y-14233984D02*
X12682086Y-14224460D01*
X12682086Y-14224460D02*
X12672563Y-14214936D01*
X12672563Y-14214936D02*
X12663039Y-14195888D01*
X12663039Y-14195888D02*
X12653515Y-14157793D01*
X12653515Y-14157793D02*
X12653515Y-14110174D01*
X12653515Y-14110174D02*
X12663039Y-14072079D01*
X12663039Y-14072079D02*
X12672563Y-14053031D01*
X12672563Y-14053031D02*
X12682086Y-14043508D01*
X12682086Y-14043508D02*
X12701134Y-14033984D01*
X12853515Y-14214936D02*
X12863039Y-14224460D01*
X12863039Y-14224460D02*
X12853515Y-14233984D01*
X12853515Y-14233984D02*
X12843991Y-14224460D01*
X12843991Y-14224460D02*
X12853515Y-14214936D01*
X12853515Y-14214936D02*
X12853515Y-14233984D01*
X12986848Y-14033984D02*
X13005896Y-14033984D01*
X13005896Y-14033984D02*
X13024944Y-14043508D01*
X13024944Y-14043508D02*
X13034467Y-14053031D01*
X13034467Y-14053031D02*
X13043991Y-14072079D01*
X13043991Y-14072079D02*
X13053515Y-14110174D01*
X13053515Y-14110174D02*
X13053515Y-14157793D01*
X13053515Y-14157793D02*
X13043991Y-14195888D01*
X13043991Y-14195888D02*
X13034467Y-14214936D01*
X13034467Y-14214936D02*
X13024944Y-14224460D01*
X13024944Y-14224460D02*
X13005896Y-14233984D01*
X13005896Y-14233984D02*
X12986848Y-14233984D01*
X12986848Y-14233984D02*
X12967801Y-14224460D01*
X12967801Y-14224460D02*
X12958277Y-14214936D01*
X12958277Y-14214936D02*
X12948753Y-14195888D01*
X12948753Y-14195888D02*
X12939229Y-14157793D01*
X12939229Y-14157793D02*
X12939229Y-14110174D01*
X12939229Y-14110174D02*
X12948753Y-14072079D01*
X12948753Y-14072079D02*
X12958277Y-14053031D01*
X12958277Y-14053031D02*
X12967801Y-14043508D01*
X12967801Y-14043508D02*
X12986848Y-14033984D01*
X13120182Y-14033984D02*
X13253515Y-14033984D01*
X13253515Y-14033984D02*
X13167801Y-14233984D01*
X13320182Y-14053031D02*
X13329706Y-14043508D01*
X13329706Y-14043508D02*
X13348753Y-14033984D01*
X13348753Y-14033984D02*
X13396372Y-14033984D01*
X13396372Y-14033984D02*
X13415420Y-14043508D01*
X13415420Y-14043508D02*
X13424944Y-14053031D01*
X13424944Y-14053031D02*
X13434467Y-14072079D01*
X13434467Y-14072079D02*
X13434467Y-14091127D01*
X13434467Y-14091127D02*
X13424944Y-14119698D01*
X13424944Y-14119698D02*
X13310658Y-14233984D01*
X13310658Y-14233984D02*
X13434467Y-14233984D01*
X13548753Y-14119698D02*
X13529706Y-14110174D01*
X13529706Y-14110174D02*
X13520182Y-14100650D01*
X13520182Y-14100650D02*
X13510658Y-14081603D01*
X13510658Y-14081603D02*
X13510658Y-14072079D01*
X13510658Y-14072079D02*
X13520182Y-14053031D01*
X13520182Y-14053031D02*
X13529706Y-14043508D01*
X13529706Y-14043508D02*
X13548753Y-14033984D01*
X13548753Y-14033984D02*
X13586848Y-14033984D01*
X13586848Y-14033984D02*
X13605896Y-14043508D01*
X13605896Y-14043508D02*
X13615420Y-14053031D01*
X13615420Y-14053031D02*
X13624944Y-14072079D01*
X13624944Y-14072079D02*
X13624944Y-14081603D01*
X13624944Y-14081603D02*
X13615420Y-14100650D01*
X13615420Y-14100650D02*
X13605896Y-14110174D01*
X13605896Y-14110174D02*
X13586848Y-14119698D01*
X13586848Y-14119698D02*
X13548753Y-14119698D01*
X13548753Y-14119698D02*
X13529706Y-14129222D01*
X13529706Y-14129222D02*
X13520182Y-14138746D01*
X13520182Y-14138746D02*
X13510658Y-14157793D01*
X13510658Y-14157793D02*
X13510658Y-14195888D01*
X13510658Y-14195888D02*
X13520182Y-14214936D01*
X13520182Y-14214936D02*
X13529706Y-14224460D01*
X13529706Y-14224460D02*
X13548753Y-14233984D01*
X13548753Y-14233984D02*
X13586848Y-14233984D01*
X13586848Y-14233984D02*
X13605896Y-14224460D01*
X13605896Y-14224460D02*
X13615420Y-14214936D01*
X13615420Y-14214936D02*
X13624944Y-14195888D01*
X13624944Y-14195888D02*
X13624944Y-14157793D01*
X13624944Y-14157793D02*
X13615420Y-14138746D01*
X13615420Y-14138746D02*
X13605896Y-14129222D01*
X13605896Y-14129222D02*
X13586848Y-14119698D01*
X13701134Y-14033984D02*
X13701134Y-14072079D01*
X13777325Y-14033984D02*
X13777325Y-14072079D01*
X14072563Y-14310174D02*
X14063039Y-14300650D01*
X14063039Y-14300650D02*
X14043991Y-14272079D01*
X14043991Y-14272079D02*
X14034468Y-14253031D01*
X14034468Y-14253031D02*
X14024944Y-14224460D01*
X14024944Y-14224460D02*
X14015420Y-14176841D01*
X14015420Y-14176841D02*
X14015420Y-14138746D01*
X14015420Y-14138746D02*
X14024944Y-14091127D01*
X14024944Y-14091127D02*
X14034468Y-14062555D01*
X14034468Y-14062555D02*
X14043991Y-14043508D01*
X14043991Y-14043508D02*
X14063039Y-14014936D01*
X14063039Y-14014936D02*
X14072563Y-14005412D01*
X14139229Y-14053031D02*
X14148753Y-14043508D01*
X14148753Y-14043508D02*
X14167801Y-14033984D01*
X14167801Y-14033984D02*
X14215420Y-14033984D01*
X14215420Y-14033984D02*
X14234468Y-14043508D01*
X14234468Y-14043508D02*
X14243991Y-14053031D01*
X14243991Y-14053031D02*
X14253515Y-14072079D01*
X14253515Y-14072079D02*
X14253515Y-14091127D01*
X14253515Y-14091127D02*
X14243991Y-14119698D01*
X14243991Y-14119698D02*
X14129706Y-14233984D01*
X14129706Y-14233984D02*
X14253515Y-14233984D01*
X14491610Y-14233984D02*
X14491610Y-14033984D01*
X14577325Y-14233984D02*
X14577325Y-14129222D01*
X14577325Y-14129222D02*
X14567801Y-14110174D01*
X14567801Y-14110174D02*
X14548753Y-14100650D01*
X14548753Y-14100650D02*
X14520182Y-14100650D01*
X14520182Y-14100650D02*
X14501134Y-14110174D01*
X14501134Y-14110174D02*
X14491610Y-14119698D01*
X14701134Y-14233984D02*
X14682087Y-14224460D01*
X14682087Y-14224460D02*
X14672563Y-14214936D01*
X14672563Y-14214936D02*
X14663039Y-14195888D01*
X14663039Y-14195888D02*
X14663039Y-14138746D01*
X14663039Y-14138746D02*
X14672563Y-14119698D01*
X14672563Y-14119698D02*
X14682087Y-14110174D01*
X14682087Y-14110174D02*
X14701134Y-14100650D01*
X14701134Y-14100650D02*
X14729706Y-14100650D01*
X14729706Y-14100650D02*
X14748753Y-14110174D01*
X14748753Y-14110174D02*
X14758277Y-14119698D01*
X14758277Y-14119698D02*
X14767801Y-14138746D01*
X14767801Y-14138746D02*
X14767801Y-14195888D01*
X14767801Y-14195888D02*
X14758277Y-14214936D01*
X14758277Y-14214936D02*
X14748753Y-14224460D01*
X14748753Y-14224460D02*
X14729706Y-14233984D01*
X14729706Y-14233984D02*
X14701134Y-14233984D01*
X14882087Y-14233984D02*
X14863039Y-14224460D01*
X14863039Y-14224460D02*
X14853515Y-14205412D01*
X14853515Y-14205412D02*
X14853515Y-14033984D01*
X15034468Y-14224460D02*
X15015420Y-14233984D01*
X15015420Y-14233984D02*
X14977325Y-14233984D01*
X14977325Y-14233984D02*
X14958277Y-14224460D01*
X14958277Y-14224460D02*
X14948753Y-14205412D01*
X14948753Y-14205412D02*
X14948753Y-14129222D01*
X14948753Y-14129222D02*
X14958277Y-14110174D01*
X14958277Y-14110174D02*
X14977325Y-14100650D01*
X14977325Y-14100650D02*
X15015420Y-14100650D01*
X15015420Y-14100650D02*
X15034468Y-14110174D01*
X15034468Y-14110174D02*
X15043991Y-14129222D01*
X15043991Y-14129222D02*
X15043991Y-14148269D01*
X15043991Y-14148269D02*
X14948753Y-14167317D01*
X15120182Y-14224460D02*
X15139230Y-14233984D01*
X15139230Y-14233984D02*
X15177325Y-14233984D01*
X15177325Y-14233984D02*
X15196372Y-14224460D01*
X15196372Y-14224460D02*
X15205896Y-14205412D01*
X15205896Y-14205412D02*
X15205896Y-14195888D01*
X15205896Y-14195888D02*
X15196372Y-14176841D01*
X15196372Y-14176841D02*
X15177325Y-14167317D01*
X15177325Y-14167317D02*
X15148753Y-14167317D01*
X15148753Y-14167317D02*
X15129706Y-14157793D01*
X15129706Y-14157793D02*
X15120182Y-14138746D01*
X15120182Y-14138746D02*
X15120182Y-14129222D01*
X15120182Y-14129222D02*
X15129706Y-14110174D01*
X15129706Y-14110174D02*
X15148753Y-14100650D01*
X15148753Y-14100650D02*
X15177325Y-14100650D01*
X15177325Y-14100650D02*
X15196372Y-14110174D01*
X15272563Y-14310174D02*
X15282087Y-14300650D01*
X15282087Y-14300650D02*
X15301134Y-14272079D01*
X15301134Y-14272079D02*
X15310658Y-14253031D01*
X15310658Y-14253031D02*
X15320182Y-14224460D01*
X15320182Y-14224460D02*
X15329706Y-14176841D01*
X15329706Y-14176841D02*
X15329706Y-14138746D01*
X15329706Y-14138746D02*
X15320182Y-14091127D01*
X15320182Y-14091127D02*
X15310658Y-14062555D01*
X15310658Y-14062555D02*
X15301134Y-14043508D01*
X15301134Y-14043508D02*
X15282087Y-14014936D01*
X15282087Y-14014936D02*
X15272563Y-14005412D01*
X15634468Y-14310174D02*
X15624944Y-14300650D01*
X15624944Y-14300650D02*
X15605896Y-14272079D01*
X15605896Y-14272079D02*
X15596372Y-14253031D01*
X15596372Y-14253031D02*
X15586849Y-14224460D01*
X15586849Y-14224460D02*
X15577325Y-14176841D01*
X15577325Y-14176841D02*
X15577325Y-14138746D01*
X15577325Y-14138746D02*
X15586849Y-14091127D01*
X15586849Y-14091127D02*
X15596372Y-14062555D01*
X15596372Y-14062555D02*
X15605896Y-14043508D01*
X15605896Y-14043508D02*
X15624944Y-14014936D01*
X15624944Y-14014936D02*
X15634468Y-14005412D01*
X15710658Y-14100650D02*
X15710658Y-14233984D01*
X15710658Y-14119698D02*
X15720182Y-14110174D01*
X15720182Y-14110174D02*
X15739230Y-14100650D01*
X15739230Y-14100650D02*
X15767801Y-14100650D01*
X15767801Y-14100650D02*
X15786849Y-14110174D01*
X15786849Y-14110174D02*
X15796372Y-14129222D01*
X15796372Y-14129222D02*
X15796372Y-14233984D01*
X15920182Y-14233984D02*
X15901134Y-14224460D01*
X15901134Y-14224460D02*
X15891611Y-14214936D01*
X15891611Y-14214936D02*
X15882087Y-14195888D01*
X15882087Y-14195888D02*
X15882087Y-14138746D01*
X15882087Y-14138746D02*
X15891611Y-14119698D01*
X15891611Y-14119698D02*
X15901134Y-14110174D01*
X15901134Y-14110174D02*
X15920182Y-14100650D01*
X15920182Y-14100650D02*
X15948753Y-14100650D01*
X15948753Y-14100650D02*
X15967801Y-14110174D01*
X15967801Y-14110174D02*
X15977325Y-14119698D01*
X15977325Y-14119698D02*
X15986849Y-14138746D01*
X15986849Y-14138746D02*
X15986849Y-14195888D01*
X15986849Y-14195888D02*
X15977325Y-14214936D01*
X15977325Y-14214936D02*
X15967801Y-14224460D01*
X15967801Y-14224460D02*
X15948753Y-14233984D01*
X15948753Y-14233984D02*
X15920182Y-14233984D01*
X16043992Y-14100650D02*
X16120182Y-14100650D01*
X16072563Y-14033984D02*
X16072563Y-14205412D01*
X16072563Y-14205412D02*
X16082087Y-14224460D01*
X16082087Y-14224460D02*
X16101134Y-14233984D01*
X16101134Y-14233984D02*
X16120182Y-14233984D01*
X16339230Y-14100650D02*
X16339230Y-14300650D01*
X16339230Y-14110174D02*
X16358277Y-14100650D01*
X16358277Y-14100650D02*
X16396373Y-14100650D01*
X16396373Y-14100650D02*
X16415420Y-14110174D01*
X16415420Y-14110174D02*
X16424944Y-14119698D01*
X16424944Y-14119698D02*
X16434468Y-14138746D01*
X16434468Y-14138746D02*
X16434468Y-14195888D01*
X16434468Y-14195888D02*
X16424944Y-14214936D01*
X16424944Y-14214936D02*
X16415420Y-14224460D01*
X16415420Y-14224460D02*
X16396373Y-14233984D01*
X16396373Y-14233984D02*
X16358277Y-14233984D01*
X16358277Y-14233984D02*
X16339230Y-14224460D01*
X16548753Y-14233984D02*
X16529706Y-14224460D01*
X16529706Y-14224460D02*
X16520182Y-14205412D01*
X16520182Y-14205412D02*
X16520182Y-14033984D01*
X16710658Y-14233984D02*
X16710658Y-14129222D01*
X16710658Y-14129222D02*
X16701134Y-14110174D01*
X16701134Y-14110174D02*
X16682087Y-14100650D01*
X16682087Y-14100650D02*
X16643992Y-14100650D01*
X16643992Y-14100650D02*
X16624944Y-14110174D01*
X16710658Y-14224460D02*
X16691611Y-14233984D01*
X16691611Y-14233984D02*
X16643992Y-14233984D01*
X16643992Y-14233984D02*
X16624944Y-14224460D01*
X16624944Y-14224460D02*
X16615420Y-14205412D01*
X16615420Y-14205412D02*
X16615420Y-14186365D01*
X16615420Y-14186365D02*
X16624944Y-14167317D01*
X16624944Y-14167317D02*
X16643992Y-14157793D01*
X16643992Y-14157793D02*
X16691611Y-14157793D01*
X16691611Y-14157793D02*
X16710658Y-14148269D01*
X16777325Y-14100650D02*
X16853515Y-14100650D01*
X16805896Y-14033984D02*
X16805896Y-14205412D01*
X16805896Y-14205412D02*
X16815420Y-14224460D01*
X16815420Y-14224460D02*
X16834468Y-14233984D01*
X16834468Y-14233984D02*
X16853515Y-14233984D01*
X16996373Y-14224460D02*
X16977325Y-14233984D01*
X16977325Y-14233984D02*
X16939230Y-14233984D01*
X16939230Y-14233984D02*
X16920182Y-14224460D01*
X16920182Y-14224460D02*
X16910658Y-14205412D01*
X16910658Y-14205412D02*
X16910658Y-14129222D01*
X16910658Y-14129222D02*
X16920182Y-14110174D01*
X16920182Y-14110174D02*
X16939230Y-14100650D01*
X16939230Y-14100650D02*
X16977325Y-14100650D01*
X16977325Y-14100650D02*
X16996373Y-14110174D01*
X16996373Y-14110174D02*
X17005896Y-14129222D01*
X17005896Y-14129222D02*
X17005896Y-14148269D01*
X17005896Y-14148269D02*
X16910658Y-14167317D01*
X17177325Y-14233984D02*
X17177325Y-14033984D01*
X17177325Y-14224460D02*
X17158277Y-14233984D01*
X17158277Y-14233984D02*
X17120182Y-14233984D01*
X17120182Y-14233984D02*
X17101135Y-14224460D01*
X17101135Y-14224460D02*
X17091611Y-14214936D01*
X17091611Y-14214936D02*
X17082087Y-14195888D01*
X17082087Y-14195888D02*
X17082087Y-14138746D01*
X17082087Y-14138746D02*
X17091611Y-14119698D01*
X17091611Y-14119698D02*
X17101135Y-14110174D01*
X17101135Y-14110174D02*
X17120182Y-14100650D01*
X17120182Y-14100650D02*
X17158277Y-14100650D01*
X17158277Y-14100650D02*
X17177325Y-14110174D01*
X17253516Y-14310174D02*
X17263039Y-14300650D01*
X17263039Y-14300650D02*
X17282087Y-14272079D01*
X17282087Y-14272079D02*
X17291611Y-14253031D01*
X17291611Y-14253031D02*
X17301135Y-14224460D01*
X17301135Y-14224460D02*
X17310658Y-14176841D01*
X17310658Y-14176841D02*
X17310658Y-14138746D01*
X17310658Y-14138746D02*
X17301135Y-14091127D01*
X17301135Y-14091127D02*
X17291611Y-14062555D01*
X17291611Y-14062555D02*
X17282087Y-14043508D01*
X17282087Y-14043508D02*
X17263039Y-14014936D01*
X17263039Y-14014936D02*
X17253516Y-14005412D01*
X10497500Y-14447500D02*
G75*
G02*
X10297500Y-14447500I-100000J0D01*
G01*
X10297500Y-14447500D02*
G75*
G02*
X10497500Y-14447500I100000J0D01*
G01*
X10748753Y-14358031D02*
X10758277Y-14348508D01*
X10758277Y-14348508D02*
X10777324Y-14338984D01*
X10777324Y-14338984D02*
X10824944Y-14338984D01*
X10824944Y-14338984D02*
X10843991Y-14348508D01*
X10843991Y-14348508D02*
X10853515Y-14358031D01*
X10853515Y-14358031D02*
X10863039Y-14377079D01*
X10863039Y-14377079D02*
X10863039Y-14396127D01*
X10863039Y-14396127D02*
X10853515Y-14424698D01*
X10853515Y-14424698D02*
X10739229Y-14538984D01*
X10739229Y-14538984D02*
X10863039Y-14538984D01*
X10948753Y-14519936D02*
X10958277Y-14529460D01*
X10958277Y-14529460D02*
X10948753Y-14538984D01*
X10948753Y-14538984D02*
X10939229Y-14529460D01*
X10939229Y-14529460D02*
X10948753Y-14519936D01*
X10948753Y-14519936D02*
X10948753Y-14538984D01*
X11034467Y-14358031D02*
X11043991Y-14348508D01*
X11043991Y-14348508D02*
X11063039Y-14338984D01*
X11063039Y-14338984D02*
X11110658Y-14338984D01*
X11110658Y-14338984D02*
X11129705Y-14348508D01*
X11129705Y-14348508D02*
X11139229Y-14358031D01*
X11139229Y-14358031D02*
X11148753Y-14377079D01*
X11148753Y-14377079D02*
X11148753Y-14396127D01*
X11148753Y-14396127D02*
X11139229Y-14424698D01*
X11139229Y-14424698D02*
X11024944Y-14538984D01*
X11024944Y-14538984D02*
X11148753Y-14538984D01*
X11272562Y-14338984D02*
X11291610Y-14338984D01*
X11291610Y-14338984D02*
X11310658Y-14348508D01*
X11310658Y-14348508D02*
X11320182Y-14358031D01*
X11320182Y-14358031D02*
X11329705Y-14377079D01*
X11329705Y-14377079D02*
X11339229Y-14415174D01*
X11339229Y-14415174D02*
X11339229Y-14462793D01*
X11339229Y-14462793D02*
X11329705Y-14500888D01*
X11329705Y-14500888D02*
X11320182Y-14519936D01*
X11320182Y-14519936D02*
X11310658Y-14529460D01*
X11310658Y-14529460D02*
X11291610Y-14538984D01*
X11291610Y-14538984D02*
X11272562Y-14538984D01*
X11272562Y-14538984D02*
X11253515Y-14529460D01*
X11253515Y-14529460D02*
X11243991Y-14519936D01*
X11243991Y-14519936D02*
X11234467Y-14500888D01*
X11234467Y-14500888D02*
X11224943Y-14462793D01*
X11224943Y-14462793D02*
X11224943Y-14415174D01*
X11224943Y-14415174D02*
X11234467Y-14377079D01*
X11234467Y-14377079D02*
X11243991Y-14358031D01*
X11243991Y-14358031D02*
X11253515Y-14348508D01*
X11253515Y-14348508D02*
X11272562Y-14338984D01*
X11463039Y-14338984D02*
X11482086Y-14338984D01*
X11482086Y-14338984D02*
X11501134Y-14348508D01*
X11501134Y-14348508D02*
X11510658Y-14358031D01*
X11510658Y-14358031D02*
X11520182Y-14377079D01*
X11520182Y-14377079D02*
X11529705Y-14415174D01*
X11529705Y-14415174D02*
X11529705Y-14462793D01*
X11529705Y-14462793D02*
X11520182Y-14500888D01*
X11520182Y-14500888D02*
X11510658Y-14519936D01*
X11510658Y-14519936D02*
X11501134Y-14529460D01*
X11501134Y-14529460D02*
X11482086Y-14538984D01*
X11482086Y-14538984D02*
X11463039Y-14538984D01*
X11463039Y-14538984D02*
X11443991Y-14529460D01*
X11443991Y-14529460D02*
X11434467Y-14519936D01*
X11434467Y-14519936D02*
X11424943Y-14500888D01*
X11424943Y-14500888D02*
X11415420Y-14462793D01*
X11415420Y-14462793D02*
X11415420Y-14415174D01*
X11415420Y-14415174D02*
X11424943Y-14377079D01*
X11424943Y-14377079D02*
X11434467Y-14358031D01*
X11434467Y-14358031D02*
X11443991Y-14348508D01*
X11443991Y-14348508D02*
X11463039Y-14338984D01*
X11615420Y-14538984D02*
X11615420Y-14405650D01*
X11615420Y-14424698D02*
X11624943Y-14415174D01*
X11624943Y-14415174D02*
X11643991Y-14405650D01*
X11643991Y-14405650D02*
X11672563Y-14405650D01*
X11672563Y-14405650D02*
X11691610Y-14415174D01*
X11691610Y-14415174D02*
X11701134Y-14434222D01*
X11701134Y-14434222D02*
X11701134Y-14538984D01*
X11701134Y-14434222D02*
X11710658Y-14415174D01*
X11710658Y-14415174D02*
X11729705Y-14405650D01*
X11729705Y-14405650D02*
X11758277Y-14405650D01*
X11758277Y-14405650D02*
X11777324Y-14415174D01*
X11777324Y-14415174D02*
X11786848Y-14434222D01*
X11786848Y-14434222D02*
X11786848Y-14538984D01*
X11882086Y-14538984D02*
X11882086Y-14405650D01*
X11882086Y-14424698D02*
X11891610Y-14415174D01*
X11891610Y-14415174D02*
X11910658Y-14405650D01*
X11910658Y-14405650D02*
X11939229Y-14405650D01*
X11939229Y-14405650D02*
X11958277Y-14415174D01*
X11958277Y-14415174D02*
X11967801Y-14434222D01*
X11967801Y-14434222D02*
X11967801Y-14538984D01*
X11967801Y-14434222D02*
X11977324Y-14415174D01*
X11977324Y-14415174D02*
X11996372Y-14405650D01*
X11996372Y-14405650D02*
X12024943Y-14405650D01*
X12024943Y-14405650D02*
X12043991Y-14415174D01*
X12043991Y-14415174D02*
X12053515Y-14434222D01*
X12053515Y-14434222D02*
X12053515Y-14538984D01*
X12443991Y-14329460D02*
X12272563Y-14586603D01*
X12701134Y-14338984D02*
X12720182Y-14338984D01*
X12720182Y-14338984D02*
X12739229Y-14348508D01*
X12739229Y-14348508D02*
X12748753Y-14358031D01*
X12748753Y-14358031D02*
X12758277Y-14377079D01*
X12758277Y-14377079D02*
X12767801Y-14415174D01*
X12767801Y-14415174D02*
X12767801Y-14462793D01*
X12767801Y-14462793D02*
X12758277Y-14500888D01*
X12758277Y-14500888D02*
X12748753Y-14519936D01*
X12748753Y-14519936D02*
X12739229Y-14529460D01*
X12739229Y-14529460D02*
X12720182Y-14538984D01*
X12720182Y-14538984D02*
X12701134Y-14538984D01*
X12701134Y-14538984D02*
X12682086Y-14529460D01*
X12682086Y-14529460D02*
X12672563Y-14519936D01*
X12672563Y-14519936D02*
X12663039Y-14500888D01*
X12663039Y-14500888D02*
X12653515Y-14462793D01*
X12653515Y-14462793D02*
X12653515Y-14415174D01*
X12653515Y-14415174D02*
X12663039Y-14377079D01*
X12663039Y-14377079D02*
X12672563Y-14358031D01*
X12672563Y-14358031D02*
X12682086Y-14348508D01*
X12682086Y-14348508D02*
X12701134Y-14338984D01*
X12853515Y-14519936D02*
X12863039Y-14529460D01*
X12863039Y-14529460D02*
X12853515Y-14538984D01*
X12853515Y-14538984D02*
X12843991Y-14529460D01*
X12843991Y-14529460D02*
X12853515Y-14519936D01*
X12853515Y-14519936D02*
X12853515Y-14538984D01*
X12986848Y-14338984D02*
X13005896Y-14338984D01*
X13005896Y-14338984D02*
X13024944Y-14348508D01*
X13024944Y-14348508D02*
X13034467Y-14358031D01*
X13034467Y-14358031D02*
X13043991Y-14377079D01*
X13043991Y-14377079D02*
X13053515Y-14415174D01*
X13053515Y-14415174D02*
X13053515Y-14462793D01*
X13053515Y-14462793D02*
X13043991Y-14500888D01*
X13043991Y-14500888D02*
X13034467Y-14519936D01*
X13034467Y-14519936D02*
X13024944Y-14529460D01*
X13024944Y-14529460D02*
X13005896Y-14538984D01*
X13005896Y-14538984D02*
X12986848Y-14538984D01*
X12986848Y-14538984D02*
X12967801Y-14529460D01*
X12967801Y-14529460D02*
X12958277Y-14519936D01*
X12958277Y-14519936D02*
X12948753Y-14500888D01*
X12948753Y-14500888D02*
X12939229Y-14462793D01*
X12939229Y-14462793D02*
X12939229Y-14415174D01*
X12939229Y-14415174D02*
X12948753Y-14377079D01*
X12948753Y-14377079D02*
X12958277Y-14358031D01*
X12958277Y-14358031D02*
X12967801Y-14348508D01*
X12967801Y-14348508D02*
X12986848Y-14338984D01*
X13167801Y-14424698D02*
X13148753Y-14415174D01*
X13148753Y-14415174D02*
X13139229Y-14405650D01*
X13139229Y-14405650D02*
X13129706Y-14386603D01*
X13129706Y-14386603D02*
X13129706Y-14377079D01*
X13129706Y-14377079D02*
X13139229Y-14358031D01*
X13139229Y-14358031D02*
X13148753Y-14348508D01*
X13148753Y-14348508D02*
X13167801Y-14338984D01*
X13167801Y-14338984D02*
X13205896Y-14338984D01*
X13205896Y-14338984D02*
X13224944Y-14348508D01*
X13224944Y-14348508D02*
X13234467Y-14358031D01*
X13234467Y-14358031D02*
X13243991Y-14377079D01*
X13243991Y-14377079D02*
X13243991Y-14386603D01*
X13243991Y-14386603D02*
X13234467Y-14405650D01*
X13234467Y-14405650D02*
X13224944Y-14415174D01*
X13224944Y-14415174D02*
X13205896Y-14424698D01*
X13205896Y-14424698D02*
X13167801Y-14424698D01*
X13167801Y-14424698D02*
X13148753Y-14434222D01*
X13148753Y-14434222D02*
X13139229Y-14443746D01*
X13139229Y-14443746D02*
X13129706Y-14462793D01*
X13129706Y-14462793D02*
X13129706Y-14500888D01*
X13129706Y-14500888D02*
X13139229Y-14519936D01*
X13139229Y-14519936D02*
X13148753Y-14529460D01*
X13148753Y-14529460D02*
X13167801Y-14538984D01*
X13167801Y-14538984D02*
X13205896Y-14538984D01*
X13205896Y-14538984D02*
X13224944Y-14529460D01*
X13224944Y-14529460D02*
X13234467Y-14519936D01*
X13234467Y-14519936D02*
X13243991Y-14500888D01*
X13243991Y-14500888D02*
X13243991Y-14462793D01*
X13243991Y-14462793D02*
X13234467Y-14443746D01*
X13234467Y-14443746D02*
X13224944Y-14434222D01*
X13224944Y-14434222D02*
X13205896Y-14424698D01*
X13415420Y-14338984D02*
X13377325Y-14338984D01*
X13377325Y-14338984D02*
X13358277Y-14348508D01*
X13358277Y-14348508D02*
X13348753Y-14358031D01*
X13348753Y-14358031D02*
X13329706Y-14386603D01*
X13329706Y-14386603D02*
X13320182Y-14424698D01*
X13320182Y-14424698D02*
X13320182Y-14500888D01*
X13320182Y-14500888D02*
X13329706Y-14519936D01*
X13329706Y-14519936D02*
X13339229Y-14529460D01*
X13339229Y-14529460D02*
X13358277Y-14538984D01*
X13358277Y-14538984D02*
X13396372Y-14538984D01*
X13396372Y-14538984D02*
X13415420Y-14529460D01*
X13415420Y-14529460D02*
X13424944Y-14519936D01*
X13424944Y-14519936D02*
X13434467Y-14500888D01*
X13434467Y-14500888D02*
X13434467Y-14453269D01*
X13434467Y-14453269D02*
X13424944Y-14434222D01*
X13424944Y-14434222D02*
X13415420Y-14424698D01*
X13415420Y-14424698D02*
X13396372Y-14415174D01*
X13396372Y-14415174D02*
X13358277Y-14415174D01*
X13358277Y-14415174D02*
X13339229Y-14424698D01*
X13339229Y-14424698D02*
X13329706Y-14434222D01*
X13329706Y-14434222D02*
X13320182Y-14453269D01*
X13605896Y-14338984D02*
X13567801Y-14338984D01*
X13567801Y-14338984D02*
X13548753Y-14348508D01*
X13548753Y-14348508D02*
X13539229Y-14358031D01*
X13539229Y-14358031D02*
X13520182Y-14386603D01*
X13520182Y-14386603D02*
X13510658Y-14424698D01*
X13510658Y-14424698D02*
X13510658Y-14500888D01*
X13510658Y-14500888D02*
X13520182Y-14519936D01*
X13520182Y-14519936D02*
X13529706Y-14529460D01*
X13529706Y-14529460D02*
X13548753Y-14538984D01*
X13548753Y-14538984D02*
X13586848Y-14538984D01*
X13586848Y-14538984D02*
X13605896Y-14529460D01*
X13605896Y-14529460D02*
X13615420Y-14519936D01*
X13615420Y-14519936D02*
X13624944Y-14500888D01*
X13624944Y-14500888D02*
X13624944Y-14453269D01*
X13624944Y-14453269D02*
X13615420Y-14434222D01*
X13615420Y-14434222D02*
X13605896Y-14424698D01*
X13605896Y-14424698D02*
X13586848Y-14415174D01*
X13586848Y-14415174D02*
X13548753Y-14415174D01*
X13548753Y-14415174D02*
X13529706Y-14424698D01*
X13529706Y-14424698D02*
X13520182Y-14434222D01*
X13520182Y-14434222D02*
X13510658Y-14453269D01*
X13701134Y-14338984D02*
X13701134Y-14377079D01*
X13777325Y-14338984D02*
X13777325Y-14377079D01*
X14072563Y-14615174D02*
X14063039Y-14605650D01*
X14063039Y-14605650D02*
X14043991Y-14577079D01*
X14043991Y-14577079D02*
X14034468Y-14558031D01*
X14034468Y-14558031D02*
X14024944Y-14529460D01*
X14024944Y-14529460D02*
X14015420Y-14481841D01*
X14015420Y-14481841D02*
X14015420Y-14443746D01*
X14015420Y-14443746D02*
X14024944Y-14396127D01*
X14024944Y-14396127D02*
X14034468Y-14367555D01*
X14034468Y-14367555D02*
X14043991Y-14348508D01*
X14043991Y-14348508D02*
X14063039Y-14319936D01*
X14063039Y-14319936D02*
X14072563Y-14310412D01*
X14139229Y-14358031D02*
X14148753Y-14348508D01*
X14148753Y-14348508D02*
X14167801Y-14338984D01*
X14167801Y-14338984D02*
X14215420Y-14338984D01*
X14215420Y-14338984D02*
X14234468Y-14348508D01*
X14234468Y-14348508D02*
X14243991Y-14358031D01*
X14243991Y-14358031D02*
X14253515Y-14377079D01*
X14253515Y-14377079D02*
X14253515Y-14396127D01*
X14253515Y-14396127D02*
X14243991Y-14424698D01*
X14243991Y-14424698D02*
X14129706Y-14538984D01*
X14129706Y-14538984D02*
X14253515Y-14538984D01*
X14491610Y-14538984D02*
X14491610Y-14338984D01*
X14577325Y-14538984D02*
X14577325Y-14434222D01*
X14577325Y-14434222D02*
X14567801Y-14415174D01*
X14567801Y-14415174D02*
X14548753Y-14405650D01*
X14548753Y-14405650D02*
X14520182Y-14405650D01*
X14520182Y-14405650D02*
X14501134Y-14415174D01*
X14501134Y-14415174D02*
X14491610Y-14424698D01*
X14701134Y-14538984D02*
X14682087Y-14529460D01*
X14682087Y-14529460D02*
X14672563Y-14519936D01*
X14672563Y-14519936D02*
X14663039Y-14500888D01*
X14663039Y-14500888D02*
X14663039Y-14443746D01*
X14663039Y-14443746D02*
X14672563Y-14424698D01*
X14672563Y-14424698D02*
X14682087Y-14415174D01*
X14682087Y-14415174D02*
X14701134Y-14405650D01*
X14701134Y-14405650D02*
X14729706Y-14405650D01*
X14729706Y-14405650D02*
X14748753Y-14415174D01*
X14748753Y-14415174D02*
X14758277Y-14424698D01*
X14758277Y-14424698D02*
X14767801Y-14443746D01*
X14767801Y-14443746D02*
X14767801Y-14500888D01*
X14767801Y-14500888D02*
X14758277Y-14519936D01*
X14758277Y-14519936D02*
X14748753Y-14529460D01*
X14748753Y-14529460D02*
X14729706Y-14538984D01*
X14729706Y-14538984D02*
X14701134Y-14538984D01*
X14882087Y-14538984D02*
X14863039Y-14529460D01*
X14863039Y-14529460D02*
X14853515Y-14510412D01*
X14853515Y-14510412D02*
X14853515Y-14338984D01*
X15034468Y-14529460D02*
X15015420Y-14538984D01*
X15015420Y-14538984D02*
X14977325Y-14538984D01*
X14977325Y-14538984D02*
X14958277Y-14529460D01*
X14958277Y-14529460D02*
X14948753Y-14510412D01*
X14948753Y-14510412D02*
X14948753Y-14434222D01*
X14948753Y-14434222D02*
X14958277Y-14415174D01*
X14958277Y-14415174D02*
X14977325Y-14405650D01*
X14977325Y-14405650D02*
X15015420Y-14405650D01*
X15015420Y-14405650D02*
X15034468Y-14415174D01*
X15034468Y-14415174D02*
X15043991Y-14434222D01*
X15043991Y-14434222D02*
X15043991Y-14453269D01*
X15043991Y-14453269D02*
X14948753Y-14472317D01*
X15120182Y-14529460D02*
X15139230Y-14538984D01*
X15139230Y-14538984D02*
X15177325Y-14538984D01*
X15177325Y-14538984D02*
X15196372Y-14529460D01*
X15196372Y-14529460D02*
X15205896Y-14510412D01*
X15205896Y-14510412D02*
X15205896Y-14500888D01*
X15205896Y-14500888D02*
X15196372Y-14481841D01*
X15196372Y-14481841D02*
X15177325Y-14472317D01*
X15177325Y-14472317D02*
X15148753Y-14472317D01*
X15148753Y-14472317D02*
X15129706Y-14462793D01*
X15129706Y-14462793D02*
X15120182Y-14443746D01*
X15120182Y-14443746D02*
X15120182Y-14434222D01*
X15120182Y-14434222D02*
X15129706Y-14415174D01*
X15129706Y-14415174D02*
X15148753Y-14405650D01*
X15148753Y-14405650D02*
X15177325Y-14405650D01*
X15177325Y-14405650D02*
X15196372Y-14415174D01*
X15272563Y-14615174D02*
X15282087Y-14605650D01*
X15282087Y-14605650D02*
X15301134Y-14577079D01*
X15301134Y-14577079D02*
X15310658Y-14558031D01*
X15310658Y-14558031D02*
X15320182Y-14529460D01*
X15320182Y-14529460D02*
X15329706Y-14481841D01*
X15329706Y-14481841D02*
X15329706Y-14443746D01*
X15329706Y-14443746D02*
X15320182Y-14396127D01*
X15320182Y-14396127D02*
X15310658Y-14367555D01*
X15310658Y-14367555D02*
X15301134Y-14348508D01*
X15301134Y-14348508D02*
X15282087Y-14319936D01*
X15282087Y-14319936D02*
X15272563Y-14310412D01*
X15634468Y-14615174D02*
X15624944Y-14605650D01*
X15624944Y-14605650D02*
X15605896Y-14577079D01*
X15605896Y-14577079D02*
X15596372Y-14558031D01*
X15596372Y-14558031D02*
X15586849Y-14529460D01*
X15586849Y-14529460D02*
X15577325Y-14481841D01*
X15577325Y-14481841D02*
X15577325Y-14443746D01*
X15577325Y-14443746D02*
X15586849Y-14396127D01*
X15586849Y-14396127D02*
X15596372Y-14367555D01*
X15596372Y-14367555D02*
X15605896Y-14348508D01*
X15605896Y-14348508D02*
X15624944Y-14319936D01*
X15624944Y-14319936D02*
X15634468Y-14310412D01*
X15710658Y-14405650D02*
X15710658Y-14538984D01*
X15710658Y-14424698D02*
X15720182Y-14415174D01*
X15720182Y-14415174D02*
X15739230Y-14405650D01*
X15739230Y-14405650D02*
X15767801Y-14405650D01*
X15767801Y-14405650D02*
X15786849Y-14415174D01*
X15786849Y-14415174D02*
X15796372Y-14434222D01*
X15796372Y-14434222D02*
X15796372Y-14538984D01*
X15920182Y-14538984D02*
X15901134Y-14529460D01*
X15901134Y-14529460D02*
X15891611Y-14519936D01*
X15891611Y-14519936D02*
X15882087Y-14500888D01*
X15882087Y-14500888D02*
X15882087Y-14443746D01*
X15882087Y-14443746D02*
X15891611Y-14424698D01*
X15891611Y-14424698D02*
X15901134Y-14415174D01*
X15901134Y-14415174D02*
X15920182Y-14405650D01*
X15920182Y-14405650D02*
X15948753Y-14405650D01*
X15948753Y-14405650D02*
X15967801Y-14415174D01*
X15967801Y-14415174D02*
X15977325Y-14424698D01*
X15977325Y-14424698D02*
X15986849Y-14443746D01*
X15986849Y-14443746D02*
X15986849Y-14500888D01*
X15986849Y-14500888D02*
X15977325Y-14519936D01*
X15977325Y-14519936D02*
X15967801Y-14529460D01*
X15967801Y-14529460D02*
X15948753Y-14538984D01*
X15948753Y-14538984D02*
X15920182Y-14538984D01*
X16043992Y-14405650D02*
X16120182Y-14405650D01*
X16072563Y-14338984D02*
X16072563Y-14510412D01*
X16072563Y-14510412D02*
X16082087Y-14529460D01*
X16082087Y-14529460D02*
X16101134Y-14538984D01*
X16101134Y-14538984D02*
X16120182Y-14538984D01*
X16339230Y-14405650D02*
X16339230Y-14605650D01*
X16339230Y-14415174D02*
X16358277Y-14405650D01*
X16358277Y-14405650D02*
X16396373Y-14405650D01*
X16396373Y-14405650D02*
X16415420Y-14415174D01*
X16415420Y-14415174D02*
X16424944Y-14424698D01*
X16424944Y-14424698D02*
X16434468Y-14443746D01*
X16434468Y-14443746D02*
X16434468Y-14500888D01*
X16434468Y-14500888D02*
X16424944Y-14519936D01*
X16424944Y-14519936D02*
X16415420Y-14529460D01*
X16415420Y-14529460D02*
X16396373Y-14538984D01*
X16396373Y-14538984D02*
X16358277Y-14538984D01*
X16358277Y-14538984D02*
X16339230Y-14529460D01*
X16548753Y-14538984D02*
X16529706Y-14529460D01*
X16529706Y-14529460D02*
X16520182Y-14510412D01*
X16520182Y-14510412D02*
X16520182Y-14338984D01*
X16710658Y-14538984D02*
X16710658Y-14434222D01*
X16710658Y-14434222D02*
X16701134Y-14415174D01*
X16701134Y-14415174D02*
X16682087Y-14405650D01*
X16682087Y-14405650D02*
X16643992Y-14405650D01*
X16643992Y-14405650D02*
X16624944Y-14415174D01*
X16710658Y-14529460D02*
X16691611Y-14538984D01*
X16691611Y-14538984D02*
X16643992Y-14538984D01*
X16643992Y-14538984D02*
X16624944Y-14529460D01*
X16624944Y-14529460D02*
X16615420Y-14510412D01*
X16615420Y-14510412D02*
X16615420Y-14491365D01*
X16615420Y-14491365D02*
X16624944Y-14472317D01*
X16624944Y-14472317D02*
X16643992Y-14462793D01*
X16643992Y-14462793D02*
X16691611Y-14462793D01*
X16691611Y-14462793D02*
X16710658Y-14453269D01*
X16777325Y-14405650D02*
X16853515Y-14405650D01*
X16805896Y-14338984D02*
X16805896Y-14510412D01*
X16805896Y-14510412D02*
X16815420Y-14529460D01*
X16815420Y-14529460D02*
X16834468Y-14538984D01*
X16834468Y-14538984D02*
X16853515Y-14538984D01*
X16996373Y-14529460D02*
X16977325Y-14538984D01*
X16977325Y-14538984D02*
X16939230Y-14538984D01*
X16939230Y-14538984D02*
X16920182Y-14529460D01*
X16920182Y-14529460D02*
X16910658Y-14510412D01*
X16910658Y-14510412D02*
X16910658Y-14434222D01*
X16910658Y-14434222D02*
X16920182Y-14415174D01*
X16920182Y-14415174D02*
X16939230Y-14405650D01*
X16939230Y-14405650D02*
X16977325Y-14405650D01*
X16977325Y-14405650D02*
X16996373Y-14415174D01*
X16996373Y-14415174D02*
X17005896Y-14434222D01*
X17005896Y-14434222D02*
X17005896Y-14453269D01*
X17005896Y-14453269D02*
X16910658Y-14472317D01*
X17177325Y-14538984D02*
X17177325Y-14338984D01*
X17177325Y-14529460D02*
X17158277Y-14538984D01*
X17158277Y-14538984D02*
X17120182Y-14538984D01*
X17120182Y-14538984D02*
X17101135Y-14529460D01*
X17101135Y-14529460D02*
X17091611Y-14519936D01*
X17091611Y-14519936D02*
X17082087Y-14500888D01*
X17082087Y-14500888D02*
X17082087Y-14443746D01*
X17082087Y-14443746D02*
X17091611Y-14424698D01*
X17091611Y-14424698D02*
X17101135Y-14415174D01*
X17101135Y-14415174D02*
X17120182Y-14405650D01*
X17120182Y-14405650D02*
X17158277Y-14405650D01*
X17158277Y-14405650D02*
X17177325Y-14415174D01*
X17253516Y-14615174D02*
X17263039Y-14605650D01*
X17263039Y-14605650D02*
X17282087Y-14577079D01*
X17282087Y-14577079D02*
X17291611Y-14558031D01*
X17291611Y-14558031D02*
X17301135Y-14529460D01*
X17301135Y-14529460D02*
X17310658Y-14481841D01*
X17310658Y-14481841D02*
X17310658Y-14443746D01*
X17310658Y-14443746D02*
X17301135Y-14396127D01*
X17301135Y-14396127D02*
X17291611Y-14367555D01*
X17291611Y-14367555D02*
X17282087Y-14348508D01*
X17282087Y-14348508D02*
X17263039Y-14319936D01*
X17263039Y-14319936D02*
X17253516Y-14310412D01*
M02*
