%TF.GenerationSoftware,KiCad,Pcbnew,9.0.6*%
%TF.CreationDate,2025-11-11T08:28:45-03:00*%
%TF.ProjectId,RadProt_IOT,52616450-726f-4745-9f49-4f542e6b6963,rev?*%
%TF.SameCoordinates,Original*%
%TF.FileFunction,Soldermask,Bot*%
%TF.FilePolarity,Negative*%
%FSLAX46Y46*%
G04 Gerber Fmt 4.6, Leading zero omitted, Abs format (unit mm)*
G04 Created by KiCad (PCBNEW 9.0.6) date 2025-11-11 08:28:45*
%MOMM*%
%LPD*%
G01*
G04 APERTURE LIST*
G04 Aperture macros list*
%AMRoundRect*
0 Rectangle with rounded corners*
0 $1 Rounding radius*
0 $2 $3 $4 $5 $6 $7 $8 $9 X,Y pos of 4 corners*
0 Add a 4 corners polygon primitive as box body*
4,1,4,$2,$3,$4,$5,$6,$7,$8,$9,$2,$3,0*
0 Add four circle primitives for the rounded corners*
1,1,$1+$1,$2,$3*
1,1,$1+$1,$4,$5*
1,1,$1+$1,$6,$7*
1,1,$1+$1,$8,$9*
0 Add four rect primitives between the rounded corners*
20,1,$1+$1,$2,$3,$4,$5,0*
20,1,$1+$1,$4,$5,$6,$7,0*
20,1,$1+$1,$6,$7,$8,$9,0*
20,1,$1+$1,$8,$9,$2,$3,0*%
%AMFreePoly0*
4,1,37,0.800000,0.796148,0.878414,0.796148,1.032228,0.765552,1.177117,0.705537,1.307515,0.618408,1.418408,0.507515,1.505537,0.377117,1.565552,0.232228,1.596148,0.078414,1.596148,-0.078414,1.565552,-0.232228,1.505537,-0.377117,1.418408,-0.507515,1.307515,-0.618408,1.177117,-0.705537,1.032228,-0.765552,0.878414,-0.796148,0.800000,-0.796148,0.800000,-0.800000,-1.400000,-0.800000,
-1.403843,-0.796157,-1.439018,-0.796157,-1.511114,-0.766294,-1.566294,-0.711114,-1.596157,-0.639018,-1.596157,-0.603843,-1.600000,-0.600000,-1.600000,0.600000,-1.596157,0.603843,-1.596157,0.639018,-1.566294,0.711114,-1.511114,0.766294,-1.439018,0.796157,-1.403843,0.796157,-1.400000,0.800000,0.800000,0.800000,0.800000,0.796148,0.800000,0.796148,$1*%
%AMFreePoly1*
4,1,37,1.403843,0.796157,1.439018,0.796157,1.511114,0.766294,1.566294,0.711114,1.596157,0.639018,1.596157,0.603843,1.600000,0.600000,1.600000,-0.600000,1.596157,-0.603843,1.596157,-0.639018,1.566294,-0.711114,1.511114,-0.766294,1.439018,-0.796157,1.403843,-0.796157,1.400000,-0.800000,-0.800000,-0.800000,-0.800000,-0.796148,-0.878414,-0.796148,-1.032228,-0.765552,-1.177117,-0.705537,
-1.307515,-0.618408,-1.418408,-0.507515,-1.505537,-0.377117,-1.565552,-0.232228,-1.596148,-0.078414,-1.596148,0.078414,-1.565552,0.232228,-1.505537,0.377117,-1.418408,0.507515,-1.307515,0.618408,-1.177117,0.705537,-1.032228,0.765552,-0.878414,0.796148,-0.800000,0.796148,-0.800000,0.800000,1.400000,0.800000,1.403843,0.796157,1.403843,0.796157,$1*%
G04 Aperture macros list end*
%ADD10R,1.800000X1.800000*%
%ADD11C,1.800000*%
%ADD12C,2.000000*%
%ADD13R,1.700000X1.700000*%
%ADD14C,1.700000*%
%ADD15C,2.200000*%
%ADD16C,1.850000*%
%ADD17FreePoly0,0.000000*%
%ADD18RoundRect,0.800000X-0.800000X-0.000010X0.800000X-0.000010X0.800000X0.000010X-0.800000X0.000010X0*%
%ADD19FreePoly1,0.000000*%
%ADD20RoundRect,0.200000X-0.600000X-0.600000X0.600000X-0.600000X0.600000X0.600000X-0.600000X0.600000X0*%
%ADD21C,1.600000*%
%ADD22C,0.120000*%
%TA.AperFunction,Profile*%
%ADD23C,0.100000*%
%TD*%
%TA.AperFunction,Profile*%
%ADD24C,0.200000*%
%TD*%
G04 APERTURE END LIST*
D10*
%TO.C,D2*%
X117140000Y-95860000D03*
D11*
X117140000Y-93320000D03*
%TD*%
D12*
%TO.C,SW1*%
X114000000Y-126570000D03*
X120500000Y-126570000D03*
X114000000Y-131070000D03*
X120500000Y-131070000D03*
%TD*%
D13*
%TO.C,UART0*%
X107000000Y-91260000D03*
D14*
X107000000Y-88720000D03*
X107000000Y-86180000D03*
X107000000Y-83640000D03*
%TD*%
%TO.C,J1*%
X177000000Y-129240000D03*
X169380000Y-129240000D03*
D13*
X166840000Y-126700000D03*
D14*
X177000000Y-126700000D03*
X169380000Y-126700000D03*
X171920000Y-126700000D03*
X171920000Y-129240000D03*
X174460000Y-126700000D03*
X166840000Y-129240000D03*
X174460000Y-129240000D03*
%TD*%
D13*
%TO.C,UART2*%
X107000000Y-124100000D03*
D14*
X107000000Y-121560000D03*
X107000000Y-119020000D03*
X107000000Y-116480000D03*
%TD*%
%TO.C,R2*%
X106970000Y-101510000D03*
X106970000Y-109130000D03*
%TD*%
D13*
%TO.C,J5*%
X147970000Y-84640000D03*
%TD*%
%TO.C,UART3*%
X106975000Y-157120000D03*
D14*
X106975000Y-154580000D03*
X106975000Y-152040000D03*
X106975000Y-149500000D03*
%TD*%
D15*
%TO.C,U1*%
X130875000Y-83590000D03*
D16*
X131175000Y-86620000D03*
X136025000Y-86620000D03*
D15*
X136325000Y-83590000D03*
D17*
X124710000Y-83460000D03*
D18*
X124710000Y-86000000D03*
D19*
X124710000Y-88540000D03*
D18*
X124710000Y-91080000D03*
X124710000Y-93620000D03*
X124710000Y-96160000D03*
X124710000Y-98700000D03*
D19*
X124710000Y-101240000D03*
D18*
X124710000Y-103780000D03*
X124710000Y-106320000D03*
X124710000Y-108860000D03*
X124710000Y-111400000D03*
D19*
X124710000Y-113940000D03*
D18*
X124710000Y-116480000D03*
X124710000Y-119020000D03*
X124710000Y-121560000D03*
X124710000Y-124100000D03*
D19*
X124710000Y-126640000D03*
D18*
X124710000Y-129180000D03*
X124710000Y-131720000D03*
X142490000Y-131720000D03*
X142490000Y-129180000D03*
D17*
X142490000Y-126640000D03*
D18*
X142490000Y-124100000D03*
X142490000Y-121560000D03*
X142490000Y-119020000D03*
X142490000Y-116480000D03*
D17*
X142490000Y-113940000D03*
D18*
X142490000Y-111400000D03*
X142490000Y-108860000D03*
X142490000Y-106320000D03*
X142490000Y-103780000D03*
D17*
X142490000Y-101240000D03*
D18*
X142490000Y-98700000D03*
X142490000Y-96160000D03*
X142490000Y-93620000D03*
X142490000Y-91080000D03*
D17*
X142490000Y-88540000D03*
D18*
X142490000Y-86000000D03*
X142490000Y-83460000D03*
D20*
X134184100Y-113290000D03*
D21*
X136724100Y-113290000D03*
X139264100Y-113290000D03*
%TD*%
D14*
%TO.C,R1*%
X117130000Y-116320000D03*
X117130000Y-123940000D03*
%TD*%
D13*
%TO.C,J6*%
X147970000Y-89840000D03*
%TD*%
D10*
%TO.C,D1*%
X117140000Y-113920000D03*
D11*
X117140000Y-111380000D03*
%TD*%
D22*
%TO.C,U1*%
X128950000Y-84090000D02*
G75*
G02*
X126850000Y-84090000I-1050000J0D01*
G01*
X126850000Y-84090000D02*
G75*
G02*
X128950000Y-84090000I1050000J0D01*
G01*
X128950000Y-131090000D02*
G75*
G02*
X126850000Y-131090000I-1050000J0D01*
G01*
X126850000Y-131090000D02*
G75*
G02*
X128950000Y-131090000I1050000J0D01*
G01*
X140350000Y-84090000D02*
G75*
G02*
X138250000Y-84090000I-1050000J0D01*
G01*
X138250000Y-84090000D02*
G75*
G02*
X140350000Y-84090000I1050000J0D01*
G01*
X140350000Y-131090000D02*
G75*
G02*
X138250000Y-131090000I-1050000J0D01*
G01*
X138250000Y-131090000D02*
G75*
G02*
X140350000Y-131090000I1050000J0D01*
G01*
%TD*%
D23*
X112000000Y-135000000D02*
X112000000Y-159000000D01*
D24*
X109000000Y-131900000D02*
G75*
G02*
X106000000Y-131900000I-1500000J0D01*
G01*
X106000000Y-131900000D02*
G75*
G02*
X109000000Y-131900000I1500000J0D01*
G01*
D23*
X150000000Y-79000000D02*
X150000000Y-109000000D01*
X181000000Y-109000000D02*
X181000000Y-135000000D01*
D24*
X177830000Y-113410000D02*
G75*
G02*
X174830000Y-113410000I-1500000J0D01*
G01*
X174830000Y-113410000D02*
G75*
G02*
X177830000Y-113410000I1500000J0D01*
G01*
D23*
X112000000Y-159000000D02*
X101000000Y-159000000D01*
X101000000Y-159000000D02*
X101000000Y-79000000D01*
D24*
X111570000Y-97540000D02*
G75*
G02*
X108570000Y-97540000I-1500000J0D01*
G01*
X108570000Y-97540000D02*
G75*
G02*
X111570000Y-97540000I1500000J0D01*
G01*
D23*
X150000000Y-109000000D02*
X181000000Y-109000000D01*
X101000000Y-79000000D02*
X150000000Y-79000000D01*
X181000000Y-135000000D02*
X112000000Y-135000000D01*
M02*
