%TF.GenerationSoftware,KiCad,Pcbnew,9.0.6*%
%TF.CreationDate,2025-11-11T08:28:45-03:00*%
%TF.ProjectId,RadProt_IOT,52616450-726f-4745-9f49-4f542e6b6963,rev?*%
%TF.SameCoordinates,Original*%
%TF.FileFunction,Copper,L2,Bot*%
%TF.FilePolarity,Positive*%
%FSLAX46Y46*%
G04 Gerber Fmt 4.6, Leading zero omitted, Abs format (unit mm)*
G04 Created by KiCad (PCBNEW 9.0.6) date 2025-11-11 08:28:45*
%MOMM*%
%LPD*%
G01*
G04 APERTURE LIST*
G04 Aperture macros list*
%AMRoundRect*
0 Rectangle with rounded corners*
0 $1 Rounding radius*
0 $2 $3 $4 $5 $6 $7 $8 $9 X,Y pos of 4 corners*
0 Add a 4 corners polygon primitive as box body*
4,1,4,$2,$3,$4,$5,$6,$7,$8,$9,$2,$3,0*
0 Add four circle primitives for the rounded corners*
1,1,$1+$1,$2,$3*
1,1,$1+$1,$4,$5*
1,1,$1+$1,$6,$7*
1,1,$1+$1,$8,$9*
0 Add four rect primitives between the rounded corners*
20,1,$1+$1,$2,$3,$4,$5,0*
20,1,$1+$1,$4,$5,$6,$7,0*
20,1,$1+$1,$6,$7,$8,$9,0*
20,1,$1+$1,$8,$9,$2,$3,0*%
%AMFreePoly0*
4,1,37,0.800000,0.796148,0.878414,0.796148,1.032228,0.765552,1.177117,0.705537,1.307515,0.618408,1.418408,0.507515,1.505537,0.377117,1.565552,0.232228,1.596148,0.078414,1.596148,-0.078414,1.565552,-0.232228,1.505537,-0.377117,1.418408,-0.507515,1.307515,-0.618408,1.177117,-0.705537,1.032228,-0.765552,0.878414,-0.796148,0.800000,-0.796148,0.800000,-0.800000,-1.400000,-0.800000,
-1.403843,-0.796157,-1.439018,-0.796157,-1.511114,-0.766294,-1.566294,-0.711114,-1.596157,-0.639018,-1.596157,-0.603843,-1.600000,-0.600000,-1.600000,0.600000,-1.596157,0.603843,-1.596157,0.639018,-1.566294,0.711114,-1.511114,0.766294,-1.439018,0.796157,-1.403843,0.796157,-1.400000,0.800000,0.800000,0.800000,0.800000,0.796148,0.800000,0.796148,$1*%
%AMFreePoly1*
4,1,37,1.403843,0.796157,1.439018,0.796157,1.511114,0.766294,1.566294,0.711114,1.596157,0.639018,1.596157,0.603843,1.600000,0.600000,1.600000,-0.600000,1.596157,-0.603843,1.596157,-0.639018,1.566294,-0.711114,1.511114,-0.766294,1.439018,-0.796157,1.403843,-0.796157,1.400000,-0.800000,-0.800000,-0.800000,-0.800000,-0.796148,-0.878414,-0.796148,-1.032228,-0.765552,-1.177117,-0.705537,
-1.307515,-0.618408,-1.418408,-0.507515,-1.505537,-0.377117,-1.565552,-0.232228,-1.596148,-0.078414,-1.596148,0.078414,-1.565552,0.232228,-1.505537,0.377117,-1.418408,0.507515,-1.307515,0.618408,-1.177117,0.705537,-1.032228,0.765552,-0.878414,0.796148,-0.800000,0.796148,-0.800000,0.800000,1.400000,0.800000,1.403843,0.796157,1.403843,0.796157,$1*%
G04 Aperture macros list end*
%TA.AperFunction,ComponentPad*%
%ADD10R,1.800000X1.800000*%
%TD*%
%TA.AperFunction,ComponentPad*%
%ADD11C,1.800000*%
%TD*%
%TA.AperFunction,ComponentPad*%
%ADD12C,2.000000*%
%TD*%
%TA.AperFunction,ComponentPad*%
%ADD13R,1.700000X1.700000*%
%TD*%
%TA.AperFunction,ComponentPad*%
%ADD14C,1.700000*%
%TD*%
%TA.AperFunction,ComponentPad*%
%ADD15FreePoly0,0.000000*%
%TD*%
%TA.AperFunction,ComponentPad*%
%ADD16RoundRect,0.800000X-0.800000X-0.000010X0.800000X-0.000010X0.800000X0.000010X-0.800000X0.000010X0*%
%TD*%
%TA.AperFunction,ComponentPad*%
%ADD17FreePoly1,0.000000*%
%TD*%
%TA.AperFunction,ComponentPad*%
%ADD18RoundRect,0.200000X-0.600000X-0.600000X0.600000X-0.600000X0.600000X0.600000X-0.600000X0.600000X0*%
%TD*%
%TA.AperFunction,ComponentPad*%
%ADD19C,1.600000*%
%TD*%
%TA.AperFunction,ViaPad*%
%ADD20C,1.700000*%
%TD*%
%TA.AperFunction,ViaPad*%
%ADD21C,1.500000*%
%TD*%
%TA.AperFunction,Conductor*%
%ADD22C,1.000000*%
%TD*%
%ADD23C,0.120000*%
%TA.AperFunction,Profile*%
%ADD24C,0.100000*%
%TD*%
%TA.AperFunction,Profile*%
%ADD25C,0.200000*%
%TD*%
G04 APERTURE END LIST*
D10*
%TO.P,D2,1,K*%
%TO.N,Net-(D2-K)*%
X117140000Y-95860000D03*
D11*
%TO.P,D2,2,A*%
%TO.N,Net-(D2-A)*%
X117140000Y-93320000D03*
%TD*%
D12*
%TO.P,SW1,1,1*%
%TO.N,GND*%
X114000000Y-126570000D03*
X120500000Y-126570000D03*
%TO.P,SW1,2,2*%
%TO.N,Net-(U1-GPIO15)*%
X114000000Y-131070000D03*
X120500000Y-131070000D03*
%TD*%
D13*
%TO.P,UART0,1,Pin_1*%
%TO.N,Net-(D2-A)*%
X107000000Y-91260000D03*
D14*
%TO.P,UART0,2,Pin_2*%
%TO.N,/UART0_RX*%
X107000000Y-88720000D03*
%TO.P,UART0,3,Pin_3*%
%TO.N,unconnected-(UART0-Pin_3-Pad3)*%
X107000000Y-86180000D03*
%TO.P,UART0,4,Pin_4*%
%TO.N,GND*%
X107000000Y-83640000D03*
%TD*%
%TO.P,J1,CLKOUT,CLKOUT*%
%TO.N,unconnected-(J1-PadCLKOUT)*%
X177000000Y-129240000D03*
%TO.P,J1,CS,CS*%
%TO.N,Net-(U1-GPIO17)*%
X169380000Y-129240000D03*
D13*
%TO.P,J1,GND,GND*%
%TO.N,GND*%
X166840000Y-126700000D03*
D14*
%TO.P,J1,INT,INT*%
%TO.N,Net-(U1-GPIO21)*%
X177000000Y-126700000D03*
%TO.P,J1,RESET,RESET*%
%TO.N,Net-(U1-GPIO20)*%
X169380000Y-126700000D03*
%TO.P,J1,SCK,SCK*%
%TO.N,Net-(U1-GPIO18)*%
X171920000Y-126700000D03*
%TO.P,J1,SI,SI*%
%TO.N,Net-(U1-GPIO19)*%
X171920000Y-129240000D03*
%TO.P,J1,SO,SO*%
%TO.N,Net-(U1-GPIO16)*%
X174460000Y-126700000D03*
%TO.P,J1,VCC,VCC*%
%TO.N,Net-(D2-A)*%
X166840000Y-129240000D03*
%TO.P,J1,WOL,WOL*%
%TO.N,unconnected-(J1-PadWOL)*%
X174460000Y-129240000D03*
%TD*%
D13*
%TO.P,UART2,1,Pin_1*%
%TO.N,Net-(D2-A)*%
X107000000Y-124100000D03*
D14*
%TO.P,UART2,2,Pin_2*%
%TO.N,/UART2_RX*%
X107000000Y-121560000D03*
%TO.P,UART2,3,Pin_3*%
%TO.N,unconnected-(UART2-Pin_3-Pad3)*%
X107000000Y-119020000D03*
%TO.P,UART2,4,Pin_4*%
%TO.N,GND*%
X107000000Y-116480000D03*
%TD*%
%TO.P,R2,1*%
%TO.N,Net-(D2-K)*%
X106970000Y-101510000D03*
%TO.P,R2,2*%
%TO.N,GND*%
X106970000Y-109130000D03*
%TD*%
D13*
%TO.P,J5,1,Pin_1*%
%TO.N,+5V*%
X147970000Y-84640000D03*
%TD*%
%TO.P,UART3,1,Pin_1*%
%TO.N,Net-(D2-A)*%
X106975000Y-157120000D03*
D14*
%TO.P,UART3,2,Pin_2*%
%TO.N,/UART3_RX*%
X106975000Y-154580000D03*
%TO.P,UART3,3,Pin_3*%
%TO.N,unconnected-(UART3-Pin_3-Pad3)*%
X106975000Y-152040000D03*
%TO.P,UART3,4,Pin_4*%
%TO.N,GND*%
X106975000Y-149500000D03*
%TD*%
D15*
%TO.P,U1,1,GPIO0*%
%TO.N,/UART0_TX*%
X124710000Y-83460000D03*
D16*
%TO.P,U1,2,GPIO1*%
%TO.N,/UART0_RX*%
X124710000Y-86000000D03*
D17*
%TO.P,U1,3,GND*%
%TO.N,GND*%
X124710000Y-88540000D03*
D16*
%TO.P,U1,4,GPIO2*%
%TO.N,/UART2_TX*%
X124710000Y-91080000D03*
%TO.P,U1,5,GPIO3*%
%TO.N,/UART2_RX*%
X124710000Y-93620000D03*
%TO.P,U1,6,GPIO4*%
%TO.N,/UART1_TX*%
X124710000Y-96160000D03*
%TO.P,U1,7,GPIO5*%
%TO.N,/UART1_RX*%
X124710000Y-98700000D03*
D17*
%TO.P,U1,8,GND*%
%TO.N,GND*%
X124710000Y-101240000D03*
D16*
%TO.P,U1,9,GPIO6*%
%TO.N,/UART3_TX*%
X124710000Y-103780000D03*
%TO.P,U1,10,GPIO7*%
%TO.N,/UART3_RX*%
X124710000Y-106320000D03*
%TO.P,U1,11,GPIO8*%
%TO.N,unconnected-(U1-GPIO8-Pad11)*%
X124710000Y-108860000D03*
%TO.P,U1,12,GPIO9*%
%TO.N,Net-(D1-A)*%
X124710000Y-111400000D03*
D17*
%TO.P,U1,13,GND*%
%TO.N,GND*%
X124710000Y-113940000D03*
D16*
%TO.P,U1,14,GPIO10*%
%TO.N,unconnected-(U1-GPIO10-Pad14)*%
X124710000Y-116480000D03*
%TO.P,U1,15,GPIO11*%
%TO.N,unconnected-(U1-GPIO11-Pad15)*%
X124710000Y-119020000D03*
%TO.P,U1,16,GPIO12*%
%TO.N,unconnected-(U1-GPIO12-Pad16)*%
X124710000Y-121560000D03*
%TO.P,U1,17,GPIO13*%
%TO.N,unconnected-(U1-GPIO13-Pad17)*%
X124710000Y-124100000D03*
D17*
%TO.P,U1,18,GND*%
%TO.N,GND*%
X124710000Y-126640000D03*
D16*
%TO.P,U1,19,GPIO14*%
%TO.N,unconnected-(U1-GPIO14-Pad19)*%
X124710000Y-129180000D03*
%TO.P,U1,20,GPIO15*%
%TO.N,Net-(U1-GPIO15)*%
X124710000Y-131720000D03*
%TO.P,U1,21,GPIO16*%
%TO.N,Net-(U1-GPIO16)*%
X142490000Y-131720000D03*
%TO.P,U1,22,GPIO17*%
%TO.N,Net-(U1-GPIO17)*%
X142490000Y-129180000D03*
D15*
%TO.P,U1,23,GND*%
%TO.N,GND*%
X142490000Y-126640000D03*
D16*
%TO.P,U1,24,GPIO18*%
%TO.N,Net-(U1-GPIO18)*%
X142490000Y-124100000D03*
%TO.P,U1,25,GPIO19*%
%TO.N,Net-(U1-GPIO19)*%
X142490000Y-121560000D03*
%TO.P,U1,26,GPIO20*%
%TO.N,Net-(U1-GPIO20)*%
X142490000Y-119020000D03*
%TO.P,U1,27,GPIO21*%
%TO.N,Net-(U1-GPIO21)*%
X142490000Y-116480000D03*
D15*
%TO.P,U1,28,GND*%
%TO.N,GND*%
X142490000Y-113940000D03*
D16*
%TO.P,U1,29,GPIO22*%
%TO.N,unconnected-(U1-GPIO22-Pad29)*%
X142490000Y-111400000D03*
%TO.P,U1,30,RUN*%
%TO.N,unconnected-(U1-RUN-Pad30)*%
X142490000Y-108860000D03*
%TO.P,U1,31,GPIO26_ADC0*%
%TO.N,unconnected-(U1-GPIO26_ADC0-Pad31)*%
X142490000Y-106320000D03*
%TO.P,U1,32,GPIO27_ADC1*%
%TO.N,unconnected-(U1-GPIO27_ADC1-Pad32)*%
X142490000Y-103780000D03*
D15*
%TO.P,U1,33,AGND*%
%TO.N,unconnected-(U1-AGND-Pad33)*%
X142490000Y-101240000D03*
D16*
%TO.P,U1,34,GPIO28_ADC2*%
%TO.N,unconnected-(U1-GPIO28_ADC2-Pad34)*%
X142490000Y-98700000D03*
%TO.P,U1,35,ADC_VREF*%
%TO.N,unconnected-(U1-ADC_VREF-Pad35)*%
X142490000Y-96160000D03*
%TO.P,U1,36,3V3*%
%TO.N,Net-(D2-A)*%
X142490000Y-93620000D03*
%TO.P,U1,37,3V3_EN*%
%TO.N,unconnected-(U1-3V3_EN-Pad37)*%
X142490000Y-91080000D03*
D15*
%TO.P,U1,38,GND*%
%TO.N,GND*%
X142490000Y-88540000D03*
D16*
%TO.P,U1,39,VSYS*%
%TO.N,+5V*%
X142490000Y-86000000D03*
%TO.P,U1,40,VBUS*%
%TO.N,unconnected-(U1-VBUS-Pad40)*%
X142490000Y-83460000D03*
D18*
%TO.P,U1,D1*%
%TO.N,N/C*%
X134184100Y-113290000D03*
D19*
%TO.P,U1,D2*%
X136724100Y-113290000D03*
%TO.P,U1,D3*%
X139264100Y-113290000D03*
%TD*%
D14*
%TO.P,R1,1*%
%TO.N,Net-(D1-K)*%
X117130000Y-116320000D03*
%TO.P,R1,2*%
%TO.N,GND*%
X117130000Y-123940000D03*
%TD*%
D13*
%TO.P,J6,1,Pin_1*%
%TO.N,GND*%
X147970000Y-89840000D03*
%TD*%
D10*
%TO.P,D1,1,K*%
%TO.N,Net-(D1-K)*%
X117140000Y-113920000D03*
D11*
%TO.P,D1,2,A*%
%TO.N,Net-(D1-A)*%
X117140000Y-111380000D03*
%TD*%
D20*
%TO.N,GND*%
X117090000Y-83580000D03*
X117090000Y-88480000D03*
D21*
%TO.N,Net-(D2-A)*%
X163879000Y-129300000D03*
X163840000Y-112710000D03*
%TO.N,Net-(U1-GPIO19)*%
X155920000Y-131730000D03*
X155830000Y-121600000D03*
%TO.N,Net-(U1-GPIO20)*%
X159880000Y-119100000D03*
X159880000Y-124500000D03*
%TO.N,Net-(U1-GPIO16)*%
X151870000Y-131740000D03*
X151865000Y-116900000D03*
%TD*%
D22*
%TO.N,/UART3_RX*%
X106975000Y-154580000D02*
X105271000Y-154580000D01*
X115700000Y-106320000D02*
X124710000Y-106320000D01*
X112300000Y-123002000D02*
X112300000Y-109720000D01*
X104761000Y-154070000D02*
X104761000Y-130541000D01*
X112300000Y-109720000D02*
X115700000Y-106320000D01*
X105271000Y-154580000D02*
X104761000Y-154070000D01*
X104761000Y-130541000D02*
X112300000Y-123002000D01*
%TO.N,GND*%
X124710000Y-88540000D02*
X124670000Y-88500000D01*
X124710000Y-101240000D02*
X124690000Y-101220000D01*
X117030000Y-83640000D02*
X117090000Y-83580000D01*
X117130000Y-126410000D02*
X116900000Y-126640000D01*
X146650000Y-88540000D02*
X147950000Y-89840000D01*
X117150000Y-88540000D02*
X117090000Y-88480000D01*
X117130000Y-123940000D02*
X117130000Y-126410000D01*
X120490000Y-126560000D02*
X120500000Y-126570000D01*
X116900000Y-126640000D02*
X114040000Y-126640000D01*
X117410000Y-126630000D02*
X117400000Y-126640000D01*
X117400000Y-126640000D02*
X116900000Y-126640000D01*
X142810000Y-126960000D02*
X142490000Y-126640000D01*
X124710000Y-88540000D02*
X117150000Y-88540000D01*
X142490000Y-126640000D02*
X166520000Y-126640000D01*
X107000000Y-83640000D02*
X117030000Y-83640000D01*
X114040000Y-126640000D02*
X113920000Y-126760000D01*
X142490000Y-88540000D02*
X146650000Y-88540000D01*
X124630000Y-88620000D02*
X124710000Y-88540000D01*
X124710000Y-126640000D02*
X117400000Y-126640000D01*
%TO.N,/UART0_RX*%
X124710000Y-86000000D02*
X112220000Y-86000000D01*
X112220000Y-86000000D02*
X109500000Y-88720000D01*
X124550000Y-86160000D02*
X124710000Y-86000000D01*
X109500000Y-88720000D02*
X107000000Y-88720000D01*
%TO.N,/UART2_RX*%
X109769000Y-108191000D02*
X114060000Y-103900000D01*
X121300000Y-102500000D02*
X121300000Y-95430000D01*
X123800000Y-93540000D02*
X123920000Y-93660000D01*
X119900000Y-103900000D02*
X121300000Y-102500000D01*
X108440000Y-121560000D02*
X109769000Y-120231000D01*
X107000000Y-121560000D02*
X108440000Y-121560000D01*
X109769000Y-120231000D02*
X109769000Y-108191000D01*
X114060000Y-103900000D02*
X119900000Y-103900000D01*
X123110000Y-93620000D02*
X124710000Y-93620000D01*
X121300000Y-95430000D02*
X123110000Y-93620000D01*
%TO.N,+5V*%
X147970000Y-84640000D02*
X146610000Y-86000000D01*
X146610000Y-86000000D02*
X142490000Y-86000000D01*
%TO.N,Net-(D1-A)*%
X119420000Y-111390000D02*
X118500000Y-111390000D01*
X117140000Y-111380000D02*
X119410000Y-111380000D01*
X123300000Y-111390000D02*
X119420000Y-111390000D01*
X119410000Y-111380000D02*
X119420000Y-111390000D01*
%TO.N,Net-(D2-A)*%
X146780000Y-110640000D02*
X148850000Y-112710000D01*
X103170000Y-91260000D02*
X103010000Y-91100000D01*
X132330000Y-81000000D02*
X104510000Y-81000000D01*
X103010000Y-148660000D02*
X103010000Y-154906000D01*
X142490000Y-93620000D02*
X145620000Y-93620000D01*
X145620000Y-93620000D02*
X146780000Y-94780000D01*
X133650000Y-91610000D02*
X133650000Y-82320000D01*
X107000000Y-91260000D02*
X103170000Y-91260000D01*
X166840000Y-129240000D02*
X163939000Y-129240000D01*
X142490000Y-93620000D02*
X142460000Y-93590000D01*
X114530000Y-93320000D02*
X117140000Y-93320000D01*
X163939000Y-129240000D02*
X163879000Y-129300000D01*
X107000000Y-124100000D02*
X103010000Y-124100000D01*
X112470000Y-91260000D02*
X114530000Y-93320000D01*
X106975000Y-157120000D02*
X105224000Y-157120000D01*
X103010000Y-124100000D02*
X103010000Y-148660000D01*
X103010000Y-154906000D02*
X105224000Y-157120000D01*
X148850000Y-112710000D02*
X163840000Y-112710000D01*
X146780000Y-94780000D02*
X146780000Y-110640000D01*
X135630000Y-93590000D02*
X133650000Y-91610000D01*
X107000000Y-91260000D02*
X112470000Y-91260000D01*
X103010000Y-82500000D02*
X103010000Y-124100000D01*
X142460000Y-93590000D02*
X135630000Y-93590000D01*
X133650000Y-82320000D02*
X132330000Y-81000000D01*
X104510000Y-81000000D02*
X103010000Y-82500000D01*
%TO.N,Net-(U1-GPIO21)*%
X143300000Y-116520000D02*
X147253712Y-116520000D01*
X170219000Y-114819000D02*
X177000000Y-121600000D01*
X177000000Y-121600000D02*
X177000000Y-126700000D01*
X147253712Y-116520000D02*
X148954712Y-114819000D01*
X148954712Y-114819000D02*
X170219000Y-114819000D01*
%TO.N,Net-(U1-GPIO19)*%
X171920000Y-130991922D02*
X171920000Y-129500000D01*
X169559881Y-133352041D02*
X171920000Y-130991922D01*
X154810000Y-121600000D02*
X155830000Y-121600000D01*
X159725918Y-131730000D02*
X155920000Y-131730000D01*
X143300000Y-121600000D02*
X154810000Y-121600000D01*
X161347959Y-133352041D02*
X159725918Y-131730000D01*
X161347959Y-133352041D02*
X169559881Y-133352041D01*
%TO.N,Net-(U1-GPIO20)*%
X159800000Y-119020000D02*
X159880000Y-119100000D01*
X168489000Y-124609000D02*
X169380000Y-125500000D01*
X142490000Y-119020000D02*
X159800000Y-119020000D01*
X169380000Y-126700000D02*
X169380000Y-125500000D01*
X169380000Y-125500000D02*
X168380000Y-124500000D01*
X168380000Y-124500000D02*
X159880000Y-124500000D01*
%TO.N,Net-(U1-GPIO17)*%
X162957329Y-131601041D02*
X160576288Y-129220000D01*
X169380000Y-130702081D02*
X169380000Y-129500000D01*
X160576288Y-129220000D02*
X143300000Y-129220000D01*
X168481040Y-131601041D02*
X169380000Y-130702081D01*
X162957329Y-131601041D02*
X168481040Y-131601041D01*
X162957329Y-131601041D02*
X160756288Y-129400000D01*
%TO.N,Net-(U1-GPIO16)*%
X168600000Y-116900000D02*
X174460000Y-122760000D01*
X174460000Y-126700000D02*
X174460000Y-122760000D01*
X151865000Y-116900000D02*
X168600000Y-116900000D01*
X151620000Y-131760000D02*
X151880000Y-131500000D01*
X143300000Y-131760000D02*
X151620000Y-131760000D01*
%TO.N,Net-(U1-GPIO18)*%
X169020000Y-121800000D02*
X171920000Y-124700000D01*
X156800000Y-124100000D02*
X159100000Y-121800000D01*
X171920000Y-124700000D02*
X171920000Y-126960000D01*
X142490000Y-124100000D02*
X156800000Y-124100000D01*
X159100000Y-121800000D02*
X169020000Y-121800000D01*
X143300000Y-124140000D02*
X143460496Y-124300496D01*
X171920000Y-126700000D02*
X171920000Y-124700000D01*
%TO.N,Net-(D1-K)*%
X117140000Y-116310000D02*
X117130000Y-116320000D01*
X117140000Y-113920000D02*
X117140000Y-116310000D01*
%TO.N,Net-(U1-GPIO15)*%
X120500000Y-131070000D02*
X114000000Y-131070000D01*
X121150000Y-131720000D02*
X120500000Y-131070000D01*
X124710000Y-131720000D02*
X121150000Y-131720000D01*
%TO.N,Net-(D2-K)*%
X117140000Y-96540000D02*
X117140000Y-95860000D01*
X112170000Y-101510000D02*
X117140000Y-96540000D01*
X106970000Y-101510000D02*
X112170000Y-101510000D01*
%TD*%
%TA.AperFunction,Conductor*%
%TO.N,Net-(U1-GPIO16)*%
G36*
X151721062Y-131008400D02*
G01*
X151725958Y-131015779D01*
X151870539Y-131737702D01*
X151870539Y-131742298D01*
X151725893Y-132464546D01*
X151720908Y-132471985D01*
X151712562Y-132473799D01*
X150394252Y-132261584D01*
X150386628Y-132256886D01*
X150384411Y-132250033D01*
X150384411Y-131269678D01*
X150387838Y-131261405D01*
X150393916Y-131258186D01*
X151712294Y-131006584D01*
X151721062Y-131008400D01*
G37*
%TD.AperFunction*%
%TD*%
%TA.AperFunction,Conductor*%
%TO.N,GND*%
G36*
X118773667Y-88040000D02*
G01*
X118773667Y-89040000D01*
X117255827Y-89313667D01*
X117089000Y-88480000D01*
X117255827Y-87646333D01*
X118773667Y-88040000D01*
G37*
%TD.AperFunction*%
%TD*%
%TA.AperFunction,Conductor*%
%TO.N,Net-(U1-GPIO16)*%
G36*
X153340916Y-116398298D02*
G01*
X153348470Y-116403106D01*
X153350589Y-116409821D01*
X153350589Y-117390178D01*
X153347162Y-117398451D01*
X153340916Y-117401701D01*
X152022572Y-117633609D01*
X152013830Y-117631667D01*
X152009074Y-117624386D01*
X151864460Y-116902296D01*
X151864460Y-116897702D01*
X152009074Y-116175612D01*
X152014058Y-116168176D01*
X152022570Y-116166390D01*
X153340916Y-116398298D01*
G37*
%TD.AperFunction*%
%TD*%
%TA.AperFunction,Conductor*%
%TO.N,GND*%
G36*
X117091000Y-83580000D02*
G01*
X116924173Y-84413667D01*
X115406333Y-84140000D01*
X115406333Y-83140000D01*
X116924173Y-82746333D01*
X117091000Y-83580000D01*
G37*
%TD.AperFunction*%
%TD*%
%TA.AperFunction,Conductor*%
%TO.N,Net-(D2-A)*%
G36*
X165354411Y-128738665D02*
G01*
X165362167Y-128743139D01*
X165364589Y-128750266D01*
X165364589Y-129730600D01*
X165361162Y-129738873D01*
X165355411Y-129742025D01*
X164036969Y-130033017D01*
X164028151Y-130031454D01*
X164023022Y-130024114D01*
X164022975Y-130023890D01*
X163878460Y-129302298D01*
X163878460Y-129297702D01*
X163988096Y-128750266D01*
X164023170Y-128575134D01*
X164028155Y-128567696D01*
X164036160Y-128565832D01*
X165354411Y-128738665D01*
G37*
%TD.AperFunction*%
%TD*%
%TA.AperFunction,Conductor*%
%TO.N,Net-(U1-GPIO19)*%
G36*
X157395916Y-131228298D02*
G01*
X157403470Y-131233106D01*
X157405589Y-131239821D01*
X157405589Y-132220178D01*
X157402162Y-132228451D01*
X157395916Y-132231701D01*
X156077572Y-132463609D01*
X156068830Y-132461667D01*
X156064074Y-132454386D01*
X155919460Y-131732296D01*
X155919460Y-131727702D01*
X156064074Y-131005612D01*
X156069058Y-130998176D01*
X156077570Y-130996390D01*
X157395916Y-131228298D01*
G37*
%TD.AperFunction*%
%TD*%
%TA.AperFunction,Conductor*%
%TO.N,Net-(D2-A)*%
G36*
X163691169Y-111978332D02*
G01*
X163695926Y-111985615D01*
X163840539Y-112707702D01*
X163840539Y-112712298D01*
X163695926Y-113434384D01*
X163690941Y-113441823D01*
X163682427Y-113443609D01*
X162364084Y-113211701D01*
X162356530Y-113206893D01*
X162354411Y-113200178D01*
X162354411Y-112219821D01*
X162357838Y-112211548D01*
X162364082Y-112208298D01*
X163682429Y-111976390D01*
X163691169Y-111978332D01*
G37*
%TD.AperFunction*%
%TD*%
%TA.AperFunction,Conductor*%
%TO.N,Net-(U1-GPIO20)*%
G36*
X159731589Y-118368103D02*
G01*
X159735798Y-118374978D01*
X159880539Y-119097702D01*
X159880539Y-119102298D01*
X159736058Y-119823723D01*
X159731073Y-119831162D01*
X159722288Y-119832897D01*
X159721902Y-119832813D01*
X158403427Y-119522124D01*
X158396161Y-119516891D01*
X158394411Y-119510736D01*
X158394411Y-118530419D01*
X158397838Y-118522146D01*
X158404759Y-118518797D01*
X159722977Y-118365654D01*
X159731589Y-118368103D01*
G37*
%TD.AperFunction*%
%TD*%
%TA.AperFunction,Conductor*%
%TO.N,Net-(U1-GPIO19)*%
G36*
X155681169Y-120868332D02*
G01*
X155685926Y-120875615D01*
X155830539Y-121597702D01*
X155830539Y-121602298D01*
X155685926Y-122324384D01*
X155680941Y-122331823D01*
X155672427Y-122333609D01*
X154354084Y-122101701D01*
X154346530Y-122096893D01*
X154344411Y-122090178D01*
X154344411Y-121109821D01*
X154347838Y-121101548D01*
X154354082Y-121098298D01*
X155672429Y-120866390D01*
X155681169Y-120868332D01*
G37*
%TD.AperFunction*%
%TD*%
%TA.AperFunction,Conductor*%
%TO.N,GND*%
G36*
X129798752Y-82269454D02*
G01*
X129879534Y-82323430D01*
X129933510Y-82404212D01*
X129952464Y-82499500D01*
X129933510Y-82594788D01*
X129879534Y-82675570D01*
X129844897Y-82710206D01*
X129719950Y-82882182D01*
X129623441Y-83071592D01*
X129557753Y-83273759D01*
X129524500Y-83483703D01*
X129524500Y-83696296D01*
X129557753Y-83906240D01*
X129620638Y-84099781D01*
X129623443Y-84108412D01*
X129719949Y-84297816D01*
X129844896Y-84469792D01*
X129995208Y-84620104D01*
X130167184Y-84745051D01*
X130356588Y-84841557D01*
X130558757Y-84907246D01*
X130632601Y-84918941D01*
X130768703Y-84940499D01*
X130768710Y-84940499D01*
X130768713Y-84940500D01*
X130768716Y-84940500D01*
X130981284Y-84940500D01*
X130981287Y-84940500D01*
X130981290Y-84940499D01*
X130981296Y-84940499D01*
X131080476Y-84924789D01*
X131191243Y-84907246D01*
X131393412Y-84841557D01*
X131582816Y-84745051D01*
X131754792Y-84620104D01*
X131905104Y-84469792D01*
X131949057Y-84409294D01*
X132020396Y-84343350D01*
X132111545Y-84309722D01*
X132208625Y-84313535D01*
X132296857Y-84354209D01*
X132362806Y-84425552D01*
X132396434Y-84516701D01*
X132399500Y-84555656D01*
X132399500Y-85580953D01*
X132380546Y-85676241D01*
X132326570Y-85757023D01*
X132245788Y-85810999D01*
X132150500Y-85829953D01*
X132055212Y-85810999D01*
X131974433Y-85757025D01*
X131940787Y-85723379D01*
X131940783Y-85723376D01*
X131791099Y-85614624D01*
X131791098Y-85614623D01*
X131791096Y-85614622D01*
X131626235Y-85530621D01*
X131626224Y-85530617D01*
X131450270Y-85473447D01*
X131450271Y-85473447D01*
X131450264Y-85473445D01*
X131450262Y-85473444D01*
X131450253Y-85473442D01*
X131267523Y-85444500D01*
X131267514Y-85444500D01*
X131082486Y-85444500D01*
X131082476Y-85444500D01*
X130899746Y-85473442D01*
X130899729Y-85473447D01*
X130723775Y-85530617D01*
X130723764Y-85530621D01*
X130558900Y-85614624D01*
X130409216Y-85723376D01*
X130278376Y-85854216D01*
X130169624Y-86003900D01*
X130085621Y-86168764D01*
X130085617Y-86168775D01*
X130028447Y-86344729D01*
X130028442Y-86344746D01*
X129999500Y-86527476D01*
X129999500Y-86712523D01*
X130028442Y-86895253D01*
X130028447Y-86895270D01*
X130085064Y-87069523D01*
X130085621Y-87071235D01*
X130169622Y-87236096D01*
X130278379Y-87385787D01*
X130409213Y-87516621D01*
X130558904Y-87625378D01*
X130723765Y-87709379D01*
X130899736Y-87766555D01*
X130899742Y-87766556D01*
X130899746Y-87766557D01*
X131082476Y-87795499D01*
X131082483Y-87795499D01*
X131082486Y-87795500D01*
X131082489Y-87795500D01*
X131267511Y-87795500D01*
X131267514Y-87795500D01*
X131267517Y-87795499D01*
X131267523Y-87795499D01*
X131450253Y-87766557D01*
X131450254Y-87766556D01*
X131450264Y-87766555D01*
X131626235Y-87709379D01*
X131791096Y-87625378D01*
X131940787Y-87516621D01*
X131974433Y-87482974D01*
X132055212Y-87429001D01*
X132150500Y-87410047D01*
X132245788Y-87429001D01*
X132326570Y-87482977D01*
X132380546Y-87563759D01*
X132399500Y-87659047D01*
X132399500Y-91708412D01*
X132399501Y-91708428D01*
X132430290Y-91902823D01*
X132484446Y-92069500D01*
X132491116Y-92090026D01*
X132580476Y-92265405D01*
X132696172Y-92424646D01*
X134815354Y-94543828D01*
X134974595Y-94659524D01*
X135149974Y-94748884D01*
X135149976Y-94748884D01*
X135149977Y-94748885D01*
X135329463Y-94807204D01*
X135329462Y-94807204D01*
X135337163Y-94809706D01*
X135337169Y-94809707D01*
X135337174Y-94809709D01*
X135531583Y-94840500D01*
X135531584Y-94840500D01*
X135728417Y-94840500D01*
X140238130Y-94840500D01*
X140333418Y-94859454D01*
X140414200Y-94913430D01*
X140468176Y-94994212D01*
X140487130Y-95089500D01*
X140468176Y-95184788D01*
X140433103Y-95242151D01*
X140433733Y-95242605D01*
X140427868Y-95250745D01*
X140298355Y-95464985D01*
X140204890Y-95697220D01*
X140204886Y-95697233D01*
X140149886Y-95941436D01*
X140139500Y-96088547D01*
X140139500Y-96231452D01*
X140149886Y-96378563D01*
X140204886Y-96622766D01*
X140204890Y-96622779D01*
X140298355Y-96855014D01*
X140427867Y-97069253D01*
X140596565Y-97267579D01*
X140594405Y-97269415D01*
X140638035Y-97334712D01*
X140656989Y-97430000D01*
X140638035Y-97525288D01*
X140594405Y-97590584D01*
X140596565Y-97592421D01*
X140427867Y-97790746D01*
X140298355Y-98004985D01*
X140204890Y-98237220D01*
X140204886Y-98237233D01*
X140149886Y-98481436D01*
X140139500Y-98628547D01*
X140139500Y-98771452D01*
X140149886Y-98918563D01*
X140204886Y-99162766D01*
X140204890Y-99162779D01*
X140298355Y-99395014D01*
X140427867Y-99609252D01*
X140436048Y-99618870D01*
X140483348Y-99703733D01*
X140494572Y-99800237D01*
X140468011Y-99893691D01*
X140422452Y-99956266D01*
X140386234Y-99992484D01*
X140307943Y-100084420D01*
X140222456Y-100237595D01*
X140222454Y-100237598D01*
X140192008Y-100311103D01*
X140192004Y-100311115D01*
X140154866Y-100425982D01*
X140154864Y-100425995D01*
X140134500Y-100600218D01*
X140134500Y-101879781D01*
X140144148Y-102000136D01*
X140192006Y-102168889D01*
X140192009Y-102168899D01*
X140222453Y-102242400D01*
X140222456Y-102242405D01*
X140277429Y-102349911D01*
X140277431Y-102349913D01*
X140277433Y-102349917D01*
X140386233Y-102487515D01*
X140422447Y-102523728D01*
X140476425Y-102604509D01*
X140495380Y-102699797D01*
X140476427Y-102795085D01*
X140436052Y-102861124D01*
X140427869Y-102870744D01*
X140427868Y-102870745D01*
X140298355Y-103084985D01*
X140204890Y-103317220D01*
X140204886Y-103317233D01*
X140149886Y-103561436D01*
X140139500Y-103708547D01*
X140139500Y-103851452D01*
X140149886Y-103998563D01*
X140204886Y-104242766D01*
X140204890Y-104242779D01*
X140298355Y-104475014D01*
X140427867Y-104689253D01*
X140596565Y-104887579D01*
X140594405Y-104889415D01*
X140638035Y-104954712D01*
X140656989Y-105050000D01*
X140638035Y-105145288D01*
X140594405Y-105210584D01*
X140596565Y-105212421D01*
X140427867Y-105410746D01*
X140298355Y-105624985D01*
X140204890Y-105857220D01*
X140204886Y-105857233D01*
X140149886Y-106101436D01*
X140139500Y-106248547D01*
X140139500Y-106391452D01*
X140149886Y-106538563D01*
X140204886Y-106782766D01*
X140204890Y-106782779D01*
X140298355Y-107015014D01*
X140427867Y-107229253D01*
X140596565Y-107427579D01*
X140594405Y-107429415D01*
X140638035Y-107494712D01*
X140656989Y-107590000D01*
X140638035Y-107685288D01*
X140594405Y-107750584D01*
X140596565Y-107752421D01*
X140427867Y-107950746D01*
X140298355Y-108164985D01*
X140204890Y-108397220D01*
X140204886Y-108397233D01*
X140149886Y-108641436D01*
X140139500Y-108788547D01*
X140139500Y-108931452D01*
X140149886Y-109078563D01*
X140204886Y-109322766D01*
X140204890Y-109322779D01*
X140298355Y-109555014D01*
X140427867Y-109769253D01*
X140596565Y-109967579D01*
X140594405Y-109969415D01*
X140638035Y-110034712D01*
X140656989Y-110130000D01*
X140638035Y-110225288D01*
X140594405Y-110290584D01*
X140596565Y-110292421D01*
X140427867Y-110490746D01*
X140298355Y-110704985D01*
X140204890Y-110937220D01*
X140204886Y-110937233D01*
X140149886Y-111181436D01*
X140139500Y-111328547D01*
X140139500Y-111471455D01*
X140147639Y-111586734D01*
X140135442Y-111683120D01*
X140087289Y-111767502D01*
X140010509Y-111827034D01*
X139916792Y-111852651D01*
X139822312Y-111841082D01*
X139627173Y-111777678D01*
X139386136Y-111739500D01*
X139386127Y-111739500D01*
X139142073Y-111739500D01*
X139142063Y-111739500D01*
X138901026Y-111777678D01*
X138668919Y-111853094D01*
X138668915Y-111853095D01*
X138668915Y-111853096D01*
X138649911Y-111862779D01*
X138451459Y-111963895D01*
X138254019Y-112107343D01*
X138254017Y-112107344D01*
X138254017Y-112107345D01*
X138170166Y-112191195D01*
X138089388Y-112245169D01*
X137994100Y-112264123D01*
X137898812Y-112245169D01*
X137818033Y-112191195D01*
X137734183Y-112107345D01*
X137536739Y-111963894D01*
X137319285Y-111853096D01*
X137319282Y-111853095D01*
X137319280Y-111853094D01*
X137087173Y-111777678D01*
X136846136Y-111739500D01*
X136846127Y-111739500D01*
X136602073Y-111739500D01*
X136602063Y-111739500D01*
X136361026Y-111777678D01*
X136128919Y-111853094D01*
X136128915Y-111853095D01*
X136128915Y-111853096D01*
X136109911Y-111862779D01*
X135911455Y-111963897D01*
X135792388Y-112050404D01*
X135704157Y-112091079D01*
X135607077Y-112094892D01*
X135515927Y-112061264D01*
X135470450Y-112021507D01*
X135468600Y-112023358D01*
X135459669Y-112014427D01*
X135309851Y-111892266D01*
X135309846Y-111892263D01*
X135138505Y-111802762D01*
X135022287Y-111769508D01*
X134952652Y-111749583D01*
X134850305Y-111740483D01*
X134839239Y-111739500D01*
X134839238Y-111739500D01*
X133528962Y-111739500D01*
X133528960Y-111739500D01*
X133506826Y-111741467D01*
X133415548Y-111749583D01*
X133415545Y-111749584D01*
X133229694Y-111802762D01*
X133058353Y-111892263D01*
X133058348Y-111892266D01*
X132908530Y-112014427D01*
X132908527Y-112014430D01*
X132786366Y-112164248D01*
X132786363Y-112164253D01*
X132696862Y-112335594D01*
X132650279Y-112498394D01*
X132643683Y-112521448D01*
X132633600Y-112634862D01*
X132633600Y-113945138D01*
X132643683Y-114058552D01*
X132643684Y-114058554D01*
X132696862Y-114244405D01*
X132786363Y-114415746D01*
X132786366Y-114415751D01*
X132903132Y-114558953D01*
X132908529Y-114565571D01*
X133058349Y-114687734D01*
X133229694Y-114777237D01*
X133415548Y-114830417D01*
X133528962Y-114840500D01*
X133528965Y-114840500D01*
X134839235Y-114840500D01*
X134839238Y-114840500D01*
X134952652Y-114830417D01*
X135138506Y-114777237D01*
X135309851Y-114687734D01*
X135459671Y-114565571D01*
X135459675Y-114565565D01*
X135468600Y-114556642D01*
X135470911Y-114558953D01*
X135527838Y-114511880D01*
X135620705Y-114483332D01*
X135717426Y-114492496D01*
X135792387Y-114529594D01*
X135911461Y-114616106D01*
X136128915Y-114726904D01*
X136361024Y-114802321D01*
X136445803Y-114815748D01*
X136602063Y-114840499D01*
X136602070Y-114840499D01*
X136602073Y-114840500D01*
X136602076Y-114840500D01*
X136846124Y-114840500D01*
X136846127Y-114840500D01*
X136846130Y-114840499D01*
X136846136Y-114840499D01*
X136960006Y-114822462D01*
X137087176Y-114802321D01*
X137319285Y-114726904D01*
X137536739Y-114616106D01*
X137734183Y-114472655D01*
X137818033Y-114388804D01*
X137898812Y-114334831D01*
X137994100Y-114315877D01*
X138089388Y-114334831D01*
X138170166Y-114388804D01*
X138254017Y-114472655D01*
X138451461Y-114616106D01*
X138668915Y-114726904D01*
X138901024Y-114802321D01*
X138985803Y-114815748D01*
X139142063Y-114840499D01*
X139142070Y-114840499D01*
X139142073Y-114840500D01*
X139142076Y-114840500D01*
X139386124Y-114840500D01*
X139386127Y-114840500D01*
X139386130Y-114840499D01*
X139386136Y-114840499D01*
X139500006Y-114822462D01*
X139627176Y-114802321D01*
X139859285Y-114726904D01*
X140076739Y-114616106D01*
X140274183Y-114472655D01*
X140446755Y-114300083D01*
X140590206Y-114102639D01*
X140701004Y-113885185D01*
X140776421Y-113653076D01*
X140806502Y-113463158D01*
X140814599Y-113412036D01*
X140814600Y-113412024D01*
X140814600Y-113167975D01*
X140814599Y-113167966D01*
X140807396Y-113122489D01*
X140811209Y-113025409D01*
X140851884Y-112937178D01*
X140923226Y-112871229D01*
X141014376Y-112837601D01*
X141111456Y-112841414D01*
X141146298Y-112852541D01*
X141227221Y-112885110D01*
X141227229Y-112885111D01*
X141227233Y-112885113D01*
X141471436Y-112940113D01*
X141471438Y-112940113D01*
X141471442Y-112940114D01*
X141618554Y-112950500D01*
X141618563Y-112950500D01*
X143361437Y-112950500D01*
X143361446Y-112950500D01*
X143508558Y-112940114D01*
X143508562Y-112940113D01*
X143508563Y-112940113D01*
X143752766Y-112885113D01*
X143752766Y-112885112D01*
X143752779Y-112885110D01*
X143985015Y-112791644D01*
X144199250Y-112662134D01*
X144199250Y-112662133D01*
X144199253Y-112662132D01*
X144281824Y-112591896D01*
X144389936Y-112499936D01*
X144529726Y-112335594D01*
X144552132Y-112309253D01*
X144590872Y-112245169D01*
X144681644Y-112095015D01*
X144775110Y-111862779D01*
X144788627Y-111802762D01*
X144830113Y-111618563D01*
X144830113Y-111618562D01*
X144830114Y-111618558D01*
X144840500Y-111471446D01*
X144840500Y-111328554D01*
X144830114Y-111181442D01*
X144775110Y-110937221D01*
X144681644Y-110704985D01*
X144552134Y-110490750D01*
X144552132Y-110490746D01*
X144383435Y-110292421D01*
X144385594Y-110290584D01*
X144341965Y-110225288D01*
X144323011Y-110130000D01*
X144341965Y-110034712D01*
X144385594Y-109969415D01*
X144383435Y-109967579D01*
X144552132Y-109769253D01*
X144576164Y-109729500D01*
X144681644Y-109555015D01*
X144775110Y-109322779D01*
X144830114Y-109078558D01*
X144840500Y-108931446D01*
X144840500Y-108788554D01*
X144830114Y-108641442D01*
X144805827Y-108533608D01*
X144775113Y-108397233D01*
X144775111Y-108397229D01*
X144775110Y-108397221D01*
X144681644Y-108164985D01*
X144552134Y-107950750D01*
X144552132Y-107950746D01*
X144383435Y-107752421D01*
X144385594Y-107750584D01*
X144341965Y-107685288D01*
X144323011Y-107590000D01*
X144341965Y-107494712D01*
X144385594Y-107429415D01*
X144383435Y-107427579D01*
X144552132Y-107229253D01*
X144552134Y-107229250D01*
X144681644Y-107015015D01*
X144775110Y-106782779D01*
X144830114Y-106538558D01*
X144840500Y-106391446D01*
X144840500Y-106248554D01*
X144830114Y-106101442D01*
X144775110Y-105857221D01*
X144681644Y-105624985D01*
X144552134Y-105410750D01*
X144552132Y-105410746D01*
X144383435Y-105212421D01*
X144385594Y-105210584D01*
X144341965Y-105145288D01*
X144323011Y-105050000D01*
X144341965Y-104954712D01*
X144385594Y-104889415D01*
X144383435Y-104887579D01*
X144552132Y-104689253D01*
X144552134Y-104689250D01*
X144681644Y-104475015D01*
X144775110Y-104242779D01*
X144830114Y-103998558D01*
X144840500Y-103851446D01*
X144840500Y-103708554D01*
X144830114Y-103561442D01*
X144775110Y-103317221D01*
X144681644Y-103084985D01*
X144618194Y-102980026D01*
X144552132Y-102870746D01*
X144383435Y-102672421D01*
X144385587Y-102670590D01*
X144341933Y-102605256D01*
X144322979Y-102509968D01*
X144341933Y-102414680D01*
X144395904Y-102333904D01*
X144445620Y-102284189D01*
X144539577Y-102169703D01*
X144627127Y-102038675D01*
X144696942Y-101908060D01*
X144757248Y-101762469D01*
X144800241Y-101620739D01*
X144830984Y-101466181D01*
X144845500Y-101318793D01*
X144845500Y-101161207D01*
X144830984Y-101013819D01*
X144800241Y-100859261D01*
X144757248Y-100717531D01*
X144724711Y-100638981D01*
X144696943Y-100571941D01*
X144696941Y-100571938D01*
X144627131Y-100441333D01*
X144627127Y-100441325D01*
X144627123Y-100441319D01*
X144627119Y-100441312D01*
X144539591Y-100310317D01*
X144539584Y-100310308D01*
X144539577Y-100310297D01*
X144497889Y-100259500D01*
X144445633Y-100195826D01*
X144445626Y-100195819D01*
X144445620Y-100195811D01*
X144395906Y-100146097D01*
X144341933Y-100065319D01*
X144322979Y-99970031D01*
X144341933Y-99874743D01*
X144385586Y-99809409D01*
X144383435Y-99807579D01*
X144552132Y-99609253D01*
X144593695Y-99540500D01*
X144681644Y-99395015D01*
X144775110Y-99162779D01*
X144801122Y-99047286D01*
X144830113Y-98918563D01*
X144830113Y-98918562D01*
X144830114Y-98918558D01*
X144840500Y-98771446D01*
X144840500Y-98628554D01*
X144830114Y-98481442D01*
X144817784Y-98426697D01*
X144775113Y-98237233D01*
X144775111Y-98237229D01*
X144775110Y-98237221D01*
X144681644Y-98004985D01*
X144649500Y-97951812D01*
X144552132Y-97790746D01*
X144383435Y-97592421D01*
X144385594Y-97590584D01*
X144341965Y-97525288D01*
X144323011Y-97430000D01*
X144341965Y-97334712D01*
X144385594Y-97269415D01*
X144383435Y-97267579D01*
X144552132Y-97069253D01*
X144646713Y-96912797D01*
X144681644Y-96855015D01*
X144775110Y-96622779D01*
X144830114Y-96378558D01*
X144840500Y-96231446D01*
X144840500Y-96088554D01*
X144830114Y-95941442D01*
X144814716Y-95873076D01*
X144775113Y-95697233D01*
X144775111Y-95697229D01*
X144775110Y-95697221D01*
X144681644Y-95464985D01*
X144601002Y-95331587D01*
X144550664Y-95248318D01*
X144544221Y-95230523D01*
X144533707Y-95214788D01*
X144527834Y-95185266D01*
X144517588Y-95156966D01*
X144518445Y-95138061D01*
X144514753Y-95119500D01*
X144520624Y-95089980D01*
X144521988Y-95059911D01*
X144530015Y-95042771D01*
X144533707Y-95024212D01*
X144550428Y-94999185D01*
X144563195Y-94971928D01*
X144577167Y-94959167D01*
X144587683Y-94943430D01*
X144612711Y-94926706D01*
X144634935Y-94906411D01*
X144652729Y-94899968D01*
X144668465Y-94889454D01*
X144697986Y-94883581D01*
X144726287Y-94873335D01*
X144763753Y-94870500D01*
X144998886Y-94870500D01*
X145094174Y-94889454D01*
X145174956Y-94943430D01*
X145456570Y-95225044D01*
X145510546Y-95305826D01*
X145529500Y-95401114D01*
X145529500Y-110738412D01*
X145529501Y-110738428D01*
X145560290Y-110932823D01*
X145560291Y-110932826D01*
X145621116Y-111120026D01*
X145710476Y-111295405D01*
X145826172Y-111454646D01*
X148012314Y-113640788D01*
X148066288Y-113721567D01*
X148085242Y-113816855D01*
X148066288Y-113912143D01*
X148012312Y-113992925D01*
X146808668Y-115196570D01*
X146727886Y-115250546D01*
X146632598Y-115269500D01*
X144351274Y-115269500D01*
X144255986Y-115250546D01*
X144205731Y-115222535D01*
X144199252Y-115217868D01*
X144199253Y-115217868D01*
X144199250Y-115217866D01*
X144056426Y-115131526D01*
X143985014Y-115088355D01*
X143752779Y-114994890D01*
X143752766Y-114994886D01*
X143508563Y-114939886D01*
X143508564Y-114939886D01*
X143361452Y-114929500D01*
X143361446Y-114929500D01*
X141618554Y-114929500D01*
X141618547Y-114929500D01*
X141471436Y-114939886D01*
X141227233Y-114994886D01*
X141227220Y-114994890D01*
X140994985Y-115088355D01*
X140780746Y-115217867D01*
X140590071Y-115380057D01*
X140590057Y-115380071D01*
X140427867Y-115570746D01*
X140298355Y-115784985D01*
X140204890Y-116017220D01*
X140204886Y-116017233D01*
X140149886Y-116261436D01*
X140139500Y-116408547D01*
X140139500Y-116551452D01*
X140149886Y-116698563D01*
X140204886Y-116942766D01*
X140204890Y-116942779D01*
X140298355Y-117175014D01*
X140427867Y-117389253D01*
X140596565Y-117587579D01*
X140594405Y-117589415D01*
X140638035Y-117654712D01*
X140656989Y-117750000D01*
X140638035Y-117845288D01*
X140594405Y-117910584D01*
X140596565Y-117912421D01*
X140427867Y-118110746D01*
X140298355Y-118324985D01*
X140204890Y-118557220D01*
X140204886Y-118557233D01*
X140149886Y-118801436D01*
X140139500Y-118948547D01*
X140139500Y-119091452D01*
X140149886Y-119238563D01*
X140204886Y-119482766D01*
X140204890Y-119482779D01*
X140298355Y-119715014D01*
X140427867Y-119929253D01*
X140596565Y-120127579D01*
X140594405Y-120129415D01*
X140638035Y-120194712D01*
X140656989Y-120290000D01*
X140638035Y-120385288D01*
X140594405Y-120450584D01*
X140596565Y-120452421D01*
X140427867Y-120650746D01*
X140298355Y-120864985D01*
X140204890Y-121097220D01*
X140204886Y-121097233D01*
X140149886Y-121341436D01*
X140139500Y-121488547D01*
X140139500Y-121631452D01*
X140149886Y-121778563D01*
X140204886Y-122022766D01*
X140204890Y-122022779D01*
X140298355Y-122255014D01*
X140427867Y-122469253D01*
X140596565Y-122667579D01*
X140594405Y-122669415D01*
X140638035Y-122734712D01*
X140656989Y-122830000D01*
X140638035Y-122925288D01*
X140594405Y-122990584D01*
X140596565Y-122992421D01*
X140427867Y-123190746D01*
X140298355Y-123404985D01*
X140204890Y-123637220D01*
X140204886Y-123637233D01*
X140149886Y-123881436D01*
X140149610Y-123885354D01*
X140139500Y-124028554D01*
X140139500Y-124171446D01*
X140149886Y-124318558D01*
X140149886Y-124318561D01*
X140150233Y-124323464D01*
X140138037Y-124419850D01*
X140089884Y-124504232D01*
X140013104Y-124563764D01*
X139919387Y-124589382D01*
X139901851Y-124590000D01*
X127298149Y-124590000D01*
X127202861Y-124571046D01*
X127122079Y-124517070D01*
X127068103Y-124436288D01*
X127049149Y-124341000D01*
X127049767Y-124323464D01*
X127050113Y-124318562D01*
X127050114Y-124318558D01*
X127060500Y-124171446D01*
X127060500Y-124028554D01*
X127050114Y-123881442D01*
X127043017Y-123849932D01*
X126995113Y-123637233D01*
X126995111Y-123637229D01*
X126995110Y-123637221D01*
X126901644Y-123404985D01*
X126843427Y-123308683D01*
X126772132Y-123190746D01*
X126603435Y-122992421D01*
X126605594Y-122990584D01*
X126561965Y-122925288D01*
X126543011Y-122830000D01*
X126561965Y-122734712D01*
X126605594Y-122669415D01*
X126603435Y-122667579D01*
X126772132Y-122469253D01*
X126772134Y-122469250D01*
X126901644Y-122255015D01*
X126995110Y-122022779D01*
X127050114Y-121778558D01*
X127060500Y-121631446D01*
X127060500Y-121488554D01*
X127050114Y-121341442D01*
X127045310Y-121320113D01*
X126995113Y-121097233D01*
X126995111Y-121097229D01*
X126995110Y-121097221D01*
X126901644Y-120864985D01*
X126870558Y-120813562D01*
X126772132Y-120650746D01*
X126603435Y-120452421D01*
X126605594Y-120450584D01*
X126561965Y-120385288D01*
X126543011Y-120290000D01*
X126561965Y-120194712D01*
X126605594Y-120129415D01*
X126603435Y-120127579D01*
X126772132Y-119929253D01*
X126806271Y-119872781D01*
X126901644Y-119715015D01*
X126995110Y-119482779D01*
X126995113Y-119482766D01*
X127050113Y-119238563D01*
X127050113Y-119238562D01*
X127050114Y-119238558D01*
X127060500Y-119091446D01*
X127060500Y-118948554D01*
X127050114Y-118801442D01*
X127014928Y-118645215D01*
X126995113Y-118557233D01*
X126995111Y-118557229D01*
X126995110Y-118557221D01*
X126901644Y-118324985D01*
X126840252Y-118223430D01*
X126772132Y-118110746D01*
X126603435Y-117912421D01*
X126605594Y-117910584D01*
X126561965Y-117845288D01*
X126543011Y-117750000D01*
X126561965Y-117654712D01*
X126605594Y-117589415D01*
X126603435Y-117587579D01*
X126772132Y-117389253D01*
X126772134Y-117389250D01*
X126901644Y-117175015D01*
X126995110Y-116942779D01*
X127031342Y-116781908D01*
X127050113Y-116698563D01*
X127050113Y-116698562D01*
X127050114Y-116698558D01*
X127060500Y-116551446D01*
X127060500Y-116408554D01*
X127050114Y-116261442D01*
X127016809Y-116113567D01*
X126995113Y-116017233D01*
X126995111Y-116017229D01*
X126995110Y-116017221D01*
X126901644Y-115784985D01*
X126772134Y-115570750D01*
X126772132Y-115570746D01*
X126609942Y-115380071D01*
X126609941Y-115380070D01*
X126609936Y-115380064D01*
X126605476Y-115376270D01*
X126419253Y-115217867D01*
X126205014Y-115088355D01*
X125972779Y-114994890D01*
X125972766Y-114994886D01*
X125728563Y-114939886D01*
X125728564Y-114939886D01*
X125581452Y-114929500D01*
X125581446Y-114929500D01*
X123838554Y-114929500D01*
X123838547Y-114929500D01*
X123691436Y-114939886D01*
X123447233Y-114994886D01*
X123447220Y-114994890D01*
X123214985Y-115088355D01*
X123000746Y-115217867D01*
X122810071Y-115380057D01*
X122810057Y-115380071D01*
X122647867Y-115570746D01*
X122518355Y-115784985D01*
X122424890Y-116017220D01*
X122424886Y-116017233D01*
X122369886Y-116261436D01*
X122359500Y-116408547D01*
X122359500Y-116551452D01*
X122369886Y-116698563D01*
X122424886Y-116942766D01*
X122424890Y-116942779D01*
X122518355Y-117175014D01*
X122647867Y-117389253D01*
X122816565Y-117587579D01*
X122814405Y-117589415D01*
X122858035Y-117654712D01*
X122876989Y-117750000D01*
X122858035Y-117845288D01*
X122814405Y-117910584D01*
X122816565Y-117912421D01*
X122647867Y-118110746D01*
X122518355Y-118324985D01*
X122424890Y-118557220D01*
X122424886Y-118557233D01*
X122369886Y-118801436D01*
X122359500Y-118948547D01*
X122359500Y-119091452D01*
X122369886Y-119238563D01*
X122424886Y-119482766D01*
X122424890Y-119482779D01*
X122518355Y-119715014D01*
X122647867Y-119929253D01*
X122816565Y-120127579D01*
X122814405Y-120129415D01*
X122858035Y-120194712D01*
X122876989Y-120290000D01*
X122858035Y-120385288D01*
X122814405Y-120450584D01*
X122816565Y-120452421D01*
X122647867Y-120650746D01*
X122518355Y-120864985D01*
X122424890Y-121097220D01*
X122424886Y-121097233D01*
X122369886Y-121341436D01*
X122359500Y-121488547D01*
X122359500Y-121631452D01*
X122369886Y-121778563D01*
X122424886Y-122022766D01*
X122424890Y-122022779D01*
X122518355Y-122255014D01*
X122647867Y-122469253D01*
X122816565Y-122667579D01*
X122814405Y-122669415D01*
X122858035Y-122734712D01*
X122876989Y-122830000D01*
X122858035Y-122925288D01*
X122814405Y-122990584D01*
X122816565Y-122992421D01*
X122647867Y-123190746D01*
X122518355Y-123404985D01*
X122424890Y-123637220D01*
X122424886Y-123637233D01*
X122369886Y-123881436D01*
X122359500Y-124028547D01*
X122359500Y-124171452D01*
X122369886Y-124318563D01*
X122424886Y-124562766D01*
X122424890Y-124562779D01*
X122518355Y-124795014D01*
X122647867Y-125009253D01*
X122784195Y-125169524D01*
X122810064Y-125199936D01*
X122810070Y-125199941D01*
X122810071Y-125199942D01*
X123000746Y-125362132D01*
X123191595Y-125477504D01*
X123214985Y-125491644D01*
X123447221Y-125585110D01*
X123447229Y-125585111D01*
X123447233Y-125585113D01*
X123691436Y-125640113D01*
X123691438Y-125640113D01*
X123691442Y-125640114D01*
X123838554Y-125650500D01*
X123838563Y-125650500D01*
X125581437Y-125650500D01*
X125581446Y-125650500D01*
X125728558Y-125640114D01*
X125728562Y-125640113D01*
X125728563Y-125640113D01*
X125972766Y-125585113D01*
X125972766Y-125585112D01*
X125972779Y-125585110D01*
X126158034Y-125510551D01*
X126253508Y-125492559D01*
X126348601Y-125512471D01*
X126428834Y-125567259D01*
X126481994Y-125648580D01*
X126500000Y-125741546D01*
X126500000Y-127538453D01*
X126481046Y-127633741D01*
X126427070Y-127714523D01*
X126346288Y-127768499D01*
X126251000Y-127787453D01*
X126158035Y-127769448D01*
X126070860Y-127734363D01*
X125972779Y-127694890D01*
X125972776Y-127694889D01*
X125972773Y-127694888D01*
X125972766Y-127694886D01*
X125728563Y-127639886D01*
X125728564Y-127639886D01*
X125581452Y-127629500D01*
X125581446Y-127629500D01*
X123838554Y-127629500D01*
X123838547Y-127629500D01*
X123691436Y-127639886D01*
X123447233Y-127694886D01*
X123447220Y-127694890D01*
X123214985Y-127788355D01*
X123000746Y-127917867D01*
X122810071Y-128080057D01*
X122810057Y-128080071D01*
X122647867Y-128270746D01*
X122518355Y-128484985D01*
X122424890Y-128717220D01*
X122424886Y-128717233D01*
X122369886Y-128961436D01*
X122359500Y-129108547D01*
X122359500Y-129251452D01*
X122369886Y-129398563D01*
X122424886Y-129642766D01*
X122424890Y-129642779D01*
X122518355Y-129875014D01*
X122649336Y-130091682D01*
X122655778Y-130109476D01*
X122666293Y-130125212D01*
X122672165Y-130154733D01*
X122682412Y-130183034D01*
X122681554Y-130201938D01*
X122685247Y-130220500D01*
X122679375Y-130250019D01*
X122678012Y-130280089D01*
X122669984Y-130297228D01*
X122666293Y-130315788D01*
X122649571Y-130340814D01*
X122636805Y-130368072D01*
X122622832Y-130380832D01*
X122612317Y-130396570D01*
X122587288Y-130413293D01*
X122565065Y-130433589D01*
X122547270Y-130440031D01*
X122531535Y-130450546D01*
X122502013Y-130456418D01*
X122473713Y-130466665D01*
X122436247Y-130469500D01*
X122312369Y-130469500D01*
X122217081Y-130450546D01*
X122136299Y-130396570D01*
X122082323Y-130315789D01*
X122079638Y-130309307D01*
X122073344Y-130294112D01*
X121958611Y-130095388D01*
X121818919Y-129913339D01*
X121656661Y-129751081D01*
X121656656Y-129751077D01*
X121656655Y-129751076D01*
X121474621Y-129611396D01*
X121474622Y-129611396D01*
X121474612Y-129611389D01*
X121474602Y-129611383D01*
X121275893Y-129496658D01*
X121275882Y-129496653D01*
X121063885Y-129408841D01*
X120903888Y-129365971D01*
X120842238Y-129349452D01*
X120842235Y-129349451D01*
X120842236Y-129349451D01*
X120614734Y-129319500D01*
X120385266Y-129319500D01*
X120157765Y-129349451D01*
X119936114Y-129408841D01*
X119724117Y-129496653D01*
X119724106Y-129496658D01*
X119525397Y-129611383D01*
X119525378Y-129611396D01*
X119343343Y-129751076D01*
X119337209Y-129756457D01*
X119335673Y-129754706D01*
X119267069Y-129800546D01*
X119171781Y-129819500D01*
X115328219Y-129819500D01*
X115232931Y-129800546D01*
X115164326Y-129754706D01*
X115162791Y-129756457D01*
X115156656Y-129751076D01*
X114974621Y-129611396D01*
X114974622Y-129611396D01*
X114974612Y-129611389D01*
X114974602Y-129611383D01*
X114775893Y-129496658D01*
X114775882Y-129496653D01*
X114563885Y-129408841D01*
X114403888Y-129365971D01*
X114342238Y-129349452D01*
X114342235Y-129349451D01*
X114342236Y-129349451D01*
X114114734Y-129319500D01*
X113885266Y-129319500D01*
X113657765Y-129349451D01*
X113436114Y-129408841D01*
X113224117Y-129496653D01*
X113224106Y-129496658D01*
X113025397Y-129611383D01*
X113025378Y-129611396D01*
X112843344Y-129751076D01*
X112681076Y-129913344D01*
X112541396Y-130095378D01*
X112541383Y-130095397D01*
X112426658Y-130294106D01*
X112426653Y-130294117D01*
X112338841Y-130506114D01*
X112279451Y-130727765D01*
X112249500Y-130955266D01*
X112249500Y-131184733D01*
X112279451Y-131412234D01*
X112338841Y-131633885D01*
X112426653Y-131845882D01*
X112426658Y-131845893D01*
X112541383Y-132044602D01*
X112541389Y-132044612D01*
X112670696Y-132213127D01*
X112713666Y-132300263D01*
X112720021Y-132397209D01*
X112688792Y-132489209D01*
X112649221Y-132540778D01*
X112600000Y-132589999D01*
X112600000Y-134250500D01*
X112581046Y-134345788D01*
X112527070Y-134426570D01*
X112446288Y-134480546D01*
X112351000Y-134499500D01*
X111934108Y-134499500D01*
X111806818Y-134533606D01*
X111806814Y-134533607D01*
X111806814Y-134533608D01*
X111692686Y-134599500D01*
X111599500Y-134692686D01*
X111533606Y-134806818D01*
X111499500Y-134934107D01*
X111499500Y-158158580D01*
X111480546Y-158253868D01*
X111426570Y-158334650D01*
X111334650Y-158426570D01*
X111253868Y-158480546D01*
X111158580Y-158499500D01*
X108784997Y-158499500D01*
X108689709Y-158480546D01*
X108608927Y-158426570D01*
X108554951Y-158345788D01*
X108535997Y-158250500D01*
X108548636Y-158172178D01*
X108564997Y-158122802D01*
X108564999Y-158122797D01*
X108575500Y-158020009D01*
X108575499Y-156219992D01*
X108564999Y-156117203D01*
X108509814Y-155950666D01*
X108417712Y-155801344D01*
X108364359Y-155747991D01*
X108310386Y-155667213D01*
X108291432Y-155571925D01*
X108310386Y-155476637D01*
X108338989Y-155425564D01*
X108343868Y-155418848D01*
X108360592Y-155386026D01*
X108458241Y-155194379D01*
X108536090Y-154954785D01*
X108575500Y-154705962D01*
X108575500Y-154454038D01*
X108575499Y-154454035D01*
X108575499Y-154454028D01*
X108536090Y-154205217D01*
X108536090Y-154205215D01*
X108458241Y-153965621D01*
X108343870Y-153741155D01*
X108195793Y-153537344D01*
X108144515Y-153486066D01*
X108090542Y-153405288D01*
X108071588Y-153310000D01*
X108090542Y-153214712D01*
X108144515Y-153133933D01*
X108195793Y-153082656D01*
X108343870Y-152878845D01*
X108458241Y-152654379D01*
X108536090Y-152414785D01*
X108575500Y-152165962D01*
X108575500Y-151914038D01*
X108575499Y-151914035D01*
X108575499Y-151914028D01*
X108536090Y-151665217D01*
X108536090Y-151665215D01*
X108458241Y-151425621D01*
X108343870Y-151201155D01*
X108195793Y-150997344D01*
X108017656Y-150819207D01*
X107813845Y-150671130D01*
X107589379Y-150556759D01*
X107589376Y-150556758D01*
X107589374Y-150556757D01*
X107349782Y-150478909D01*
X107100971Y-150439500D01*
X107100962Y-150439500D01*
X106849038Y-150439500D01*
X106849028Y-150439500D01*
X106600217Y-150478909D01*
X106360613Y-150556760D01*
X106355780Y-150558763D01*
X106352356Y-150559443D01*
X106351316Y-150559782D01*
X106351275Y-150559658D01*
X106260491Y-150577714D01*
X106165204Y-150558757D01*
X106084424Y-150504778D01*
X106030451Y-150423994D01*
X106011500Y-150328714D01*
X106011500Y-133781873D01*
X106030454Y-133686585D01*
X106084430Y-133605803D01*
X106165212Y-133551827D01*
X106260500Y-133532873D01*
X106355788Y-133551827D01*
X106384999Y-133566232D01*
X106386195Y-133566922D01*
X106386197Y-133566924D01*
X106613303Y-133698043D01*
X106855581Y-133798398D01*
X107108884Y-133866270D01*
X107368880Y-133900500D01*
X107631120Y-133900500D01*
X107891116Y-133866270D01*
X108144419Y-133798398D01*
X108386697Y-133698043D01*
X108613803Y-133566924D01*
X108821851Y-133407282D01*
X109007282Y-133221851D01*
X109166924Y-133013803D01*
X109298043Y-132786697D01*
X109398398Y-132544419D01*
X109466270Y-132291116D01*
X109500500Y-132031120D01*
X109500500Y-131768880D01*
X109466270Y-131508884D01*
X109398398Y-131255581D01*
X109298043Y-131013303D01*
X109166924Y-130786197D01*
X109166920Y-130786192D01*
X109166917Y-130786187D01*
X109007286Y-130578154D01*
X109007285Y-130578153D01*
X109007282Y-130578149D01*
X108821851Y-130392718D01*
X108821846Y-130392714D01*
X108821845Y-130392713D01*
X108613812Y-130233082D01*
X108613798Y-130233073D01*
X108399720Y-130109476D01*
X108386697Y-130101957D01*
X108386695Y-130101956D01*
X108386693Y-130101955D01*
X108386689Y-130101953D01*
X108144417Y-130001601D01*
X108034730Y-129972211D01*
X107891116Y-129933730D01*
X107891111Y-129933729D01*
X107891114Y-129933729D01*
X107759320Y-129916378D01*
X107725105Y-129911873D01*
X107633107Y-129880644D01*
X107560063Y-129816585D01*
X107517092Y-129729449D01*
X107510738Y-129632502D01*
X107541968Y-129540503D01*
X107581534Y-129488938D01*
X113253828Y-123816646D01*
X113369524Y-123657405D01*
X113458884Y-123482026D01*
X113519709Y-123294826D01*
X113550500Y-123100417D01*
X113550500Y-122903583D01*
X113550500Y-110341114D01*
X113569454Y-110245826D01*
X113623430Y-110165044D01*
X116145044Y-107643430D01*
X116225826Y-107589454D01*
X116321114Y-107570500D01*
X122436247Y-107570500D01*
X122531535Y-107589454D01*
X122612317Y-107643430D01*
X122666293Y-107724212D01*
X122685247Y-107819500D01*
X122666293Y-107914788D01*
X122649336Y-107948318D01*
X122518355Y-108164985D01*
X122424890Y-108397220D01*
X122424886Y-108397233D01*
X122369886Y-108641436D01*
X122359500Y-108788547D01*
X122359500Y-108931452D01*
X122369886Y-109078563D01*
X122424886Y-109322766D01*
X122424890Y-109322779D01*
X122518355Y-109555014D01*
X122643291Y-109761682D01*
X122676367Y-109853034D01*
X122671967Y-109950089D01*
X122630760Y-110038072D01*
X122559020Y-110103589D01*
X122467668Y-110136665D01*
X122430202Y-110139500D01*
X119591150Y-110139500D01*
X119552197Y-110136434D01*
X119546546Y-110135539D01*
X119508423Y-110129500D01*
X119508417Y-110129500D01*
X118307738Y-110129500D01*
X118212450Y-110110546D01*
X118161379Y-110081945D01*
X118005050Y-109968365D01*
X117773577Y-109850423D01*
X117773567Y-109850419D01*
X117526493Y-109770140D01*
X117526487Y-109770138D01*
X117269908Y-109729501D01*
X117269899Y-109729500D01*
X117269897Y-109729500D01*
X117010103Y-109729500D01*
X117010100Y-109729500D01*
X117010091Y-109729501D01*
X116753512Y-109770138D01*
X116753506Y-109770140D01*
X116506432Y-109850419D01*
X116506422Y-109850423D01*
X116274949Y-109968365D01*
X116064774Y-110121066D01*
X115881066Y-110304774D01*
X115728365Y-110514949D01*
X115610423Y-110746422D01*
X115610419Y-110746432D01*
X115530140Y-110993506D01*
X115530138Y-110993512D01*
X115489501Y-111250091D01*
X115489500Y-111250107D01*
X115489500Y-111509892D01*
X115489501Y-111509908D01*
X115530138Y-111766487D01*
X115530140Y-111766493D01*
X115594280Y-111963897D01*
X115610421Y-112013572D01*
X115700924Y-112191193D01*
X115722254Y-112233055D01*
X115748625Y-112326562D01*
X115737206Y-112423044D01*
X115689734Y-112507811D01*
X115676465Y-112522166D01*
X115647288Y-112551342D01*
X115555184Y-112700668D01*
X115500002Y-112867197D01*
X115500001Y-112867204D01*
X115489500Y-112969988D01*
X115489500Y-114870006D01*
X115500001Y-114972800D01*
X115555185Y-115139331D01*
X115555186Y-115139334D01*
X115611330Y-115230359D01*
X115635472Y-115269500D01*
X115647288Y-115288656D01*
X115659760Y-115301128D01*
X115713734Y-115381907D01*
X115732688Y-115477195D01*
X115713734Y-115572483D01*
X115705549Y-115590238D01*
X115646759Y-115705620D01*
X115646757Y-115705625D01*
X115568909Y-115945217D01*
X115529500Y-116194028D01*
X115529500Y-116445971D01*
X115568909Y-116694782D01*
X115568910Y-116694785D01*
X115646759Y-116934379D01*
X115761130Y-117158845D01*
X115761133Y-117158849D01*
X115761134Y-117158851D01*
X115895965Y-117344430D01*
X115909207Y-117362656D01*
X116087344Y-117540793D01*
X116291155Y-117688870D01*
X116515621Y-117803241D01*
X116755215Y-117881090D01*
X116842729Y-117894951D01*
X117004028Y-117920499D01*
X117004035Y-117920499D01*
X117004038Y-117920500D01*
X117004041Y-117920500D01*
X117255959Y-117920500D01*
X117255962Y-117920500D01*
X117255965Y-117920499D01*
X117255971Y-117920499D01*
X117373513Y-117901881D01*
X117504785Y-117881090D01*
X117744379Y-117803241D01*
X117968845Y-117688870D01*
X118172656Y-117540793D01*
X118350793Y-117362656D01*
X118498870Y-117158845D01*
X118613241Y-116934379D01*
X118691090Y-116694785D01*
X118730500Y-116445962D01*
X118730500Y-116194038D01*
X118730499Y-116194035D01*
X118730499Y-116194028D01*
X118691090Y-115945217D01*
X118691090Y-115945215D01*
X118613241Y-115705621D01*
X118561200Y-115603484D01*
X118534830Y-115509980D01*
X118546249Y-115413499D01*
X118593721Y-115328732D01*
X118606982Y-115314385D01*
X118632712Y-115288656D01*
X118724814Y-115139334D01*
X118779999Y-114972797D01*
X118790500Y-114870009D01*
X118790499Y-112969992D01*
X118784861Y-112914801D01*
X118794033Y-112818084D01*
X118839521Y-112732235D01*
X118914398Y-112670329D01*
X119007267Y-112641789D01*
X119032572Y-112640500D01*
X119321583Y-112640500D01*
X119518416Y-112640500D01*
X122895550Y-112640500D01*
X122990838Y-112659454D01*
X123024361Y-112676407D01*
X123214985Y-112791644D01*
X123447221Y-112885110D01*
X123447229Y-112885111D01*
X123447233Y-112885113D01*
X123691436Y-112940113D01*
X123691438Y-112940113D01*
X123691442Y-112940114D01*
X123838554Y-112950500D01*
X123838563Y-112950500D01*
X125581437Y-112950500D01*
X125581446Y-112950500D01*
X125728558Y-112940114D01*
X125728562Y-112940113D01*
X125728563Y-112940113D01*
X125972766Y-112885113D01*
X125972766Y-112885112D01*
X125972779Y-112885110D01*
X126205015Y-112791644D01*
X126419250Y-112662134D01*
X126419250Y-112662133D01*
X126419253Y-112662132D01*
X126501824Y-112591896D01*
X126609936Y-112499936D01*
X126749726Y-112335594D01*
X126772132Y-112309253D01*
X126810872Y-112245169D01*
X126901644Y-112095015D01*
X126995110Y-111862779D01*
X127008627Y-111802762D01*
X127050113Y-111618563D01*
X127050113Y-111618562D01*
X127050114Y-111618558D01*
X127060500Y-111471446D01*
X127060500Y-111328554D01*
X127050114Y-111181442D01*
X126995110Y-110937221D01*
X126901644Y-110704985D01*
X126772134Y-110490750D01*
X126772132Y-110490746D01*
X126603435Y-110292421D01*
X126605594Y-110290584D01*
X126561965Y-110225288D01*
X126543011Y-110130000D01*
X126561965Y-110034712D01*
X126605594Y-109969415D01*
X126603435Y-109967579D01*
X126772132Y-109769253D01*
X126796164Y-109729500D01*
X126901644Y-109555015D01*
X126995110Y-109322779D01*
X127050114Y-109078558D01*
X127060500Y-108931446D01*
X127060500Y-108788554D01*
X127050114Y-108641442D01*
X127025827Y-108533608D01*
X126995113Y-108397233D01*
X126995111Y-108397229D01*
X126995110Y-108397221D01*
X126901644Y-108164985D01*
X126772134Y-107950750D01*
X126772132Y-107950746D01*
X126603435Y-107752421D01*
X126605594Y-107750584D01*
X126561965Y-107685288D01*
X126543011Y-107590000D01*
X126561965Y-107494712D01*
X126605594Y-107429415D01*
X126603435Y-107427579D01*
X126772132Y-107229253D01*
X126772134Y-107229250D01*
X126901644Y-107015015D01*
X126995110Y-106782779D01*
X127050114Y-106538558D01*
X127060500Y-106391446D01*
X127060500Y-106248554D01*
X127050114Y-106101442D01*
X126995110Y-105857221D01*
X126901644Y-105624985D01*
X126772134Y-105410750D01*
X126772132Y-105410746D01*
X126603435Y-105212421D01*
X126605594Y-105210584D01*
X126561965Y-105145288D01*
X126543011Y-105050000D01*
X126561965Y-104954712D01*
X126605594Y-104889415D01*
X126603435Y-104887579D01*
X126772132Y-104689253D01*
X126772134Y-104689250D01*
X126901644Y-104475015D01*
X126995110Y-104242779D01*
X127050114Y-103998558D01*
X127060500Y-103851446D01*
X127060500Y-103708554D01*
X127050114Y-103561442D01*
X126995110Y-103317221D01*
X126901644Y-103084985D01*
X126838194Y-102980026D01*
X126772132Y-102870746D01*
X126609942Y-102680071D01*
X126609941Y-102680070D01*
X126609936Y-102680064D01*
X126596794Y-102668885D01*
X126419253Y-102517867D01*
X126205014Y-102388355D01*
X125972779Y-102294890D01*
X125972766Y-102294886D01*
X125728563Y-102239886D01*
X125728564Y-102239886D01*
X125581452Y-102229500D01*
X125581446Y-102229500D01*
X123838554Y-102229500D01*
X123838547Y-102229500D01*
X123691436Y-102239886D01*
X123447233Y-102294886D01*
X123447220Y-102294890D01*
X123214985Y-102388355D01*
X123000747Y-102517867D01*
X122960830Y-102551821D01*
X122875967Y-102599122D01*
X122779463Y-102610346D01*
X122686009Y-102583786D01*
X122609833Y-102523484D01*
X122562532Y-102438621D01*
X122550500Y-102362154D01*
X122550500Y-100117845D01*
X122569454Y-100022557D01*
X122623430Y-99941775D01*
X122704212Y-99887799D01*
X122799500Y-99868845D01*
X122894788Y-99887799D01*
X122960833Y-99928180D01*
X123000750Y-99962134D01*
X123214985Y-100091644D01*
X123447221Y-100185110D01*
X123447229Y-100185111D01*
X123447233Y-100185113D01*
X123691436Y-100240113D01*
X123691438Y-100240113D01*
X123691442Y-100240114D01*
X123838554Y-100250500D01*
X123838563Y-100250500D01*
X125581437Y-100250500D01*
X125581446Y-100250500D01*
X125728558Y-100240114D01*
X125728562Y-100240113D01*
X125728563Y-100240113D01*
X125972766Y-100185113D01*
X125972766Y-100185112D01*
X125972779Y-100185110D01*
X126205015Y-100091644D01*
X126419250Y-99962134D01*
X126419250Y-99962133D01*
X126419253Y-99962132D01*
X126577614Y-99827429D01*
X126609936Y-99799936D01*
X126706161Y-99686809D01*
X126772132Y-99609253D01*
X126813695Y-99540500D01*
X126901644Y-99395015D01*
X126995110Y-99162779D01*
X127021122Y-99047286D01*
X127050113Y-98918563D01*
X127050113Y-98918562D01*
X127050114Y-98918558D01*
X127060500Y-98771446D01*
X127060500Y-98628554D01*
X127050114Y-98481442D01*
X127037784Y-98426697D01*
X126995113Y-98237233D01*
X126995111Y-98237229D01*
X126995110Y-98237221D01*
X126901644Y-98004985D01*
X126869500Y-97951812D01*
X126772132Y-97790746D01*
X126603435Y-97592421D01*
X126605594Y-97590584D01*
X126561965Y-97525288D01*
X126543011Y-97430000D01*
X126561965Y-97334712D01*
X126605594Y-97269415D01*
X126603435Y-97267579D01*
X126772132Y-97069253D01*
X126866713Y-96912797D01*
X126901644Y-96855015D01*
X126995110Y-96622779D01*
X127050114Y-96378558D01*
X127060500Y-96231446D01*
X127060500Y-96088554D01*
X127050114Y-95941442D01*
X127034716Y-95873076D01*
X126995113Y-95697233D01*
X126995111Y-95697229D01*
X126995110Y-95697221D01*
X126901644Y-95464985D01*
X126821002Y-95331587D01*
X126772132Y-95250746D01*
X126603435Y-95052421D01*
X126605594Y-95050584D01*
X126561965Y-94985288D01*
X126543011Y-94890000D01*
X126561965Y-94794712D01*
X126605594Y-94729415D01*
X126603435Y-94727579D01*
X126772132Y-94529253D01*
X126772134Y-94529250D01*
X126901644Y-94315015D01*
X126995110Y-94082779D01*
X127024211Y-93953571D01*
X127050113Y-93838563D01*
X127050113Y-93838562D01*
X127050114Y-93838558D01*
X127060500Y-93691446D01*
X127060500Y-93548554D01*
X127050114Y-93401442D01*
X126995110Y-93157221D01*
X126901644Y-92924985D01*
X126822953Y-92794814D01*
X126772132Y-92710746D01*
X126603435Y-92512421D01*
X126605594Y-92510584D01*
X126561965Y-92445288D01*
X126543011Y-92350000D01*
X126561965Y-92254712D01*
X126605594Y-92189415D01*
X126603435Y-92187579D01*
X126772132Y-91989253D01*
X126772134Y-91989250D01*
X126901644Y-91775015D01*
X126995110Y-91542779D01*
X127050114Y-91298558D01*
X127060500Y-91151446D01*
X127060500Y-91008554D01*
X127050114Y-90861442D01*
X126995110Y-90617221D01*
X126901644Y-90384985D01*
X126772134Y-90170750D01*
X126772132Y-90170746D01*
X126609942Y-89980071D01*
X126609941Y-89980070D01*
X126609936Y-89980064D01*
X126609928Y-89980057D01*
X126419253Y-89817867D01*
X126205014Y-89688355D01*
X125972779Y-89594890D01*
X125972766Y-89594886D01*
X125728563Y-89539886D01*
X125728564Y-89539886D01*
X125581452Y-89529500D01*
X125581446Y-89529500D01*
X123838554Y-89529500D01*
X123838547Y-89529500D01*
X123691436Y-89539886D01*
X123447233Y-89594886D01*
X123447220Y-89594890D01*
X123214985Y-89688355D01*
X123000746Y-89817867D01*
X122810071Y-89980057D01*
X122810057Y-89980071D01*
X122647867Y-90170746D01*
X122518355Y-90384985D01*
X122424890Y-90617220D01*
X122424886Y-90617233D01*
X122369886Y-90861436D01*
X122359500Y-91008547D01*
X122359500Y-91151452D01*
X122369886Y-91298563D01*
X122424886Y-91542766D01*
X122424890Y-91542779D01*
X122518355Y-91775014D01*
X122647865Y-91989249D01*
X122649935Y-91991682D01*
X122718421Y-92072197D01*
X122765721Y-92157058D01*
X122776947Y-92253562D01*
X122750387Y-92347016D01*
X122690086Y-92423193D01*
X122637895Y-92455111D01*
X122638692Y-92456675D01*
X122629977Y-92461115D01*
X122629975Y-92461116D01*
X122550381Y-92501670D01*
X122454590Y-92550478D01*
X122295360Y-92666166D01*
X120346170Y-94615356D01*
X120298051Y-94681587D01*
X120249157Y-94748884D01*
X120230475Y-94774597D01*
X120230473Y-94774598D01*
X120140219Y-94951733D01*
X120138092Y-94959277D01*
X120080290Y-95137173D01*
X120080290Y-95137176D01*
X120049501Y-95331571D01*
X120049500Y-95331587D01*
X120049500Y-101878886D01*
X120030546Y-101974174D01*
X119976570Y-102054956D01*
X119454956Y-102576570D01*
X119374174Y-102630546D01*
X119278886Y-102649500D01*
X114158416Y-102649500D01*
X113961583Y-102649500D01*
X113961580Y-102649500D01*
X113961571Y-102649501D01*
X113767176Y-102680290D01*
X113706344Y-102700055D01*
X113579974Y-102741116D01*
X113404596Y-102830475D01*
X113404595Y-102830476D01*
X113404594Y-102830477D01*
X113404593Y-102830478D01*
X113404592Y-102830477D01*
X113245364Y-102946163D01*
X113245361Y-102946166D01*
X113245357Y-102946169D01*
X113245354Y-102946172D01*
X110980942Y-105210584D01*
X108815170Y-107376356D01*
X108699476Y-107535595D01*
X108610116Y-107710973D01*
X108610115Y-107710977D01*
X108558283Y-107870499D01*
X108558282Y-107870498D01*
X108549292Y-107898167D01*
X108549289Y-107898178D01*
X108518501Y-108092571D01*
X108518500Y-108092587D01*
X108518500Y-117673912D01*
X108499546Y-117769200D01*
X108445570Y-117849982D01*
X108364788Y-117903958D01*
X108269500Y-117922912D01*
X108174212Y-117903958D01*
X108093433Y-117849984D01*
X108042656Y-117799207D01*
X107887436Y-117686433D01*
X107838851Y-117651134D01*
X107838849Y-117651133D01*
X107838845Y-117651130D01*
X107614379Y-117536759D01*
X107614376Y-117536758D01*
X107614374Y-117536757D01*
X107374782Y-117458909D01*
X107125971Y-117419500D01*
X107125962Y-117419500D01*
X106874038Y-117419500D01*
X106874028Y-117419500D01*
X106625217Y-117458909D01*
X106385625Y-117536757D01*
X106385621Y-117536758D01*
X106385621Y-117536759D01*
X106161155Y-117651130D01*
X106161153Y-117651131D01*
X106161148Y-117651134D01*
X105957347Y-117799204D01*
X105779204Y-117977347D01*
X105631134Y-118181148D01*
X105516757Y-118405625D01*
X105438909Y-118645217D01*
X105399500Y-118894028D01*
X105399500Y-119145971D01*
X105438909Y-119394782D01*
X105438910Y-119394785D01*
X105516759Y-119634379D01*
X105631130Y-119858845D01*
X105631133Y-119858849D01*
X105631134Y-119858851D01*
X105682282Y-119929250D01*
X105779207Y-120062656D01*
X105830484Y-120113933D01*
X105884458Y-120194712D01*
X105903412Y-120290000D01*
X105884458Y-120385288D01*
X105830484Y-120466066D01*
X105779207Y-120517344D01*
X105779204Y-120517347D01*
X105631134Y-120721148D01*
X105631131Y-120721153D01*
X105631130Y-120721155D01*
X105584044Y-120813567D01*
X105516757Y-120945625D01*
X105438909Y-121185217D01*
X105399500Y-121434028D01*
X105399500Y-121685971D01*
X105438909Y-121934782D01*
X105494084Y-122104595D01*
X105516759Y-122174379D01*
X105570563Y-122279975D01*
X105631133Y-122398850D01*
X105636017Y-122405572D01*
X105648304Y-122432228D01*
X105664612Y-122456633D01*
X105668451Y-122475932D01*
X105676689Y-122493803D01*
X105677840Y-122523132D01*
X105683567Y-122551921D01*
X105679728Y-122571221D01*
X105680500Y-122590884D01*
X105670340Y-122618420D01*
X105664614Y-122647210D01*
X105653681Y-122663572D01*
X105646870Y-122682033D01*
X105610638Y-122727992D01*
X105562063Y-122776568D01*
X105481283Y-122830545D01*
X105385995Y-122849500D01*
X104509500Y-122849500D01*
X104414212Y-122830546D01*
X104333430Y-122776570D01*
X104279454Y-122695788D01*
X104260500Y-122600500D01*
X104260500Y-97408880D01*
X108069500Y-97408880D01*
X108069500Y-97671119D01*
X108103729Y-97931112D01*
X108171601Y-98184417D01*
X108271953Y-98426689D01*
X108271955Y-98426693D01*
X108271957Y-98426697D01*
X108303564Y-98481442D01*
X108403073Y-98653798D01*
X108403082Y-98653812D01*
X108562713Y-98861845D01*
X108562718Y-98861851D01*
X108748149Y-99047282D01*
X108748153Y-99047285D01*
X108748154Y-99047286D01*
X108956187Y-99206917D01*
X108956192Y-99206920D01*
X108956197Y-99206924D01*
X109183303Y-99338043D01*
X109425581Y-99438398D01*
X109678884Y-99506270D01*
X109938880Y-99540500D01*
X110201120Y-99540500D01*
X110461116Y-99506270D01*
X110714419Y-99438398D01*
X110956697Y-99338043D01*
X111183803Y-99206924D01*
X111391851Y-99047282D01*
X111577282Y-98861851D01*
X111736924Y-98653803D01*
X111868043Y-98426697D01*
X111968398Y-98184419D01*
X112036270Y-97931116D01*
X112070500Y-97671120D01*
X112070500Y-97408880D01*
X112036270Y-97148884D01*
X111968398Y-96895581D01*
X111868043Y-96653303D01*
X111736924Y-96426197D01*
X111736920Y-96426192D01*
X111736917Y-96426187D01*
X111577286Y-96218154D01*
X111577285Y-96218153D01*
X111577282Y-96218149D01*
X111391851Y-96032718D01*
X111391846Y-96032714D01*
X111391845Y-96032713D01*
X111183812Y-95873082D01*
X111183798Y-95873073D01*
X111122937Y-95837935D01*
X110956697Y-95741957D01*
X110956695Y-95741956D01*
X110956693Y-95741955D01*
X110956689Y-95741953D01*
X110714417Y-95641601D01*
X110604730Y-95612211D01*
X110461116Y-95573730D01*
X110461111Y-95573729D01*
X110461114Y-95573729D01*
X110201120Y-95539500D01*
X109938880Y-95539500D01*
X109678887Y-95573729D01*
X109425582Y-95641601D01*
X109183310Y-95741953D01*
X109183306Y-95741955D01*
X108956201Y-95873073D01*
X108956187Y-95873082D01*
X108748154Y-96032713D01*
X108562713Y-96218154D01*
X108403082Y-96426187D01*
X108403073Y-96426201D01*
X108271955Y-96653306D01*
X108271953Y-96653310D01*
X108171601Y-96895582D01*
X108103729Y-97148887D01*
X108069500Y-97408880D01*
X104260500Y-97408880D01*
X104260500Y-92759500D01*
X104279454Y-92664212D01*
X104333430Y-92583430D01*
X104414212Y-92529454D01*
X104509500Y-92510500D01*
X105385992Y-92510500D01*
X105481280Y-92529454D01*
X105562061Y-92583430D01*
X105642844Y-92664212D01*
X105681344Y-92702712D01*
X105830666Y-92794814D01*
X105830669Y-92794815D01*
X105830667Y-92794815D01*
X105994310Y-92849040D01*
X105997203Y-92849999D01*
X106099991Y-92860500D01*
X107900008Y-92860499D01*
X108002797Y-92849999D01*
X108169334Y-92794814D01*
X108318656Y-92702712D01*
X108378297Y-92643070D01*
X108437939Y-92583430D01*
X108518721Y-92529454D01*
X108614008Y-92510500D01*
X111848886Y-92510500D01*
X111944174Y-92529454D01*
X112024956Y-92583430D01*
X113715354Y-94273828D01*
X113874595Y-94389524D01*
X114049974Y-94478884D01*
X114204985Y-94529250D01*
X114237174Y-94539709D01*
X114237176Y-94539709D01*
X114237178Y-94539710D01*
X114390091Y-94563928D01*
X114431583Y-94570500D01*
X114431584Y-94570500D01*
X114628417Y-94570500D01*
X115248449Y-94570500D01*
X115343737Y-94589454D01*
X115424519Y-94643430D01*
X115478495Y-94724212D01*
X115497449Y-94819500D01*
X115496160Y-94844792D01*
X115493245Y-94873335D01*
X115489500Y-94909990D01*
X115489500Y-96318885D01*
X115470546Y-96414173D01*
X115416570Y-96494955D01*
X111724956Y-100186570D01*
X111644174Y-100240546D01*
X111548886Y-100259500D01*
X108052673Y-100259500D01*
X107957385Y-100240546D01*
X107906315Y-100211946D01*
X107871388Y-100186570D01*
X107808845Y-100141130D01*
X107584379Y-100026759D01*
X107584376Y-100026758D01*
X107584374Y-100026757D01*
X107344782Y-99948909D01*
X107095971Y-99909500D01*
X107095962Y-99909500D01*
X106844038Y-99909500D01*
X106844028Y-99909500D01*
X106595217Y-99948909D01*
X106355625Y-100026757D01*
X106355621Y-100026758D01*
X106355621Y-100026759D01*
X106131155Y-100141130D01*
X106131153Y-100141131D01*
X106131148Y-100141134D01*
X105927347Y-100289204D01*
X105749204Y-100467347D01*
X105601134Y-100671148D01*
X105601131Y-100671153D01*
X105601130Y-100671155D01*
X105505285Y-100859261D01*
X105486757Y-100895625D01*
X105408909Y-101135217D01*
X105369500Y-101384028D01*
X105369500Y-101635971D01*
X105408909Y-101884782D01*
X105446389Y-102000135D01*
X105486759Y-102124379D01*
X105601130Y-102348845D01*
X105601133Y-102348849D01*
X105601134Y-102348851D01*
X105742752Y-102543771D01*
X105749207Y-102552656D01*
X105927344Y-102730793D01*
X106131155Y-102878870D01*
X106355621Y-102993241D01*
X106595215Y-103071090D01*
X106682729Y-103084951D01*
X106844028Y-103110499D01*
X106844035Y-103110499D01*
X106844038Y-103110500D01*
X106844041Y-103110500D01*
X107095959Y-103110500D01*
X107095962Y-103110500D01*
X107095965Y-103110499D01*
X107095971Y-103110499D01*
X107213513Y-103091881D01*
X107344785Y-103071090D01*
X107584379Y-102993241D01*
X107808845Y-102878870D01*
X107906315Y-102808053D01*
X107994546Y-102767380D01*
X108052673Y-102760500D01*
X112268413Y-102760500D01*
X112268417Y-102760500D01*
X112462826Y-102729709D01*
X112650026Y-102668884D01*
X112825405Y-102579524D01*
X112984646Y-102463828D01*
X117865044Y-97583428D01*
X117945826Y-97529453D01*
X118041114Y-97510499D01*
X118090006Y-97510499D01*
X118090008Y-97510499D01*
X118192797Y-97499999D01*
X118359334Y-97444814D01*
X118508656Y-97352712D01*
X118632712Y-97228656D01*
X118724814Y-97079334D01*
X118779999Y-96912797D01*
X118790500Y-96810009D01*
X118790499Y-94909992D01*
X118779999Y-94807203D01*
X118769194Y-94774597D01*
X118738374Y-94681587D01*
X118724814Y-94640666D01*
X118632712Y-94491344D01*
X118603533Y-94462165D01*
X118549560Y-94381387D01*
X118530606Y-94286099D01*
X118549560Y-94190811D01*
X118557738Y-94173070D01*
X118669579Y-93953572D01*
X118749860Y-93706493D01*
X118790500Y-93449897D01*
X118790500Y-93190103D01*
X118749860Y-92933507D01*
X118669579Y-92686428D01*
X118659257Y-92666171D01*
X118551634Y-92454949D01*
X118469669Y-92342134D01*
X118398931Y-92244771D01*
X118215229Y-92061069D01*
X118165876Y-92025212D01*
X118005050Y-91908365D01*
X117773577Y-91790423D01*
X117773567Y-91790419D01*
X117526493Y-91710140D01*
X117526487Y-91710138D01*
X117269908Y-91669501D01*
X117269899Y-91669500D01*
X117269897Y-91669500D01*
X117010103Y-91669500D01*
X117010100Y-91669500D01*
X117010091Y-91669501D01*
X116753512Y-91710138D01*
X116753506Y-91710140D01*
X116506432Y-91790419D01*
X116506422Y-91790423D01*
X116274949Y-91908365D01*
X116118621Y-92021945D01*
X116030390Y-92062620D01*
X115972262Y-92069500D01*
X115151114Y-92069500D01*
X115055826Y-92050546D01*
X114975044Y-91996570D01*
X114129910Y-91151436D01*
X113284646Y-90306172D01*
X113125405Y-90190476D01*
X112950026Y-90101116D01*
X112950023Y-90101115D01*
X112950021Y-90101114D01*
X112762823Y-90040290D01*
X112568428Y-90009501D01*
X112568419Y-90009500D01*
X112568417Y-90009500D01*
X112568413Y-90009500D01*
X110580113Y-90009500D01*
X110484825Y-89990546D01*
X110404043Y-89936570D01*
X110350067Y-89855788D01*
X110331113Y-89760500D01*
X110350067Y-89665212D01*
X110404040Y-89584433D01*
X112665044Y-87323430D01*
X112745826Y-87269454D01*
X112841114Y-87250500D01*
X122912091Y-87250500D01*
X123007379Y-87269454D01*
X123040908Y-87286410D01*
X123214985Y-87391644D01*
X123447221Y-87485110D01*
X123447229Y-87485111D01*
X123447233Y-87485113D01*
X123691436Y-87540113D01*
X123691438Y-87540113D01*
X123691442Y-87540114D01*
X123838554Y-87550500D01*
X123838563Y-87550500D01*
X125581437Y-87550500D01*
X125581446Y-87550500D01*
X125728558Y-87540114D01*
X125728562Y-87540113D01*
X125728563Y-87540113D01*
X125972766Y-87485113D01*
X125972766Y-87485112D01*
X125972779Y-87485110D01*
X126205015Y-87391644D01*
X126419250Y-87262134D01*
X126419250Y-87262133D01*
X126419253Y-87262132D01*
X126540633Y-87158885D01*
X126609936Y-87099936D01*
X126734218Y-86953826D01*
X126772132Y-86909253D01*
X126780589Y-86895264D01*
X126901644Y-86695015D01*
X126995110Y-86462779D01*
X127021696Y-86344736D01*
X127050113Y-86218563D01*
X127050113Y-86218562D01*
X127050114Y-86218558D01*
X127060500Y-86071446D01*
X127060500Y-85928554D01*
X127050114Y-85781442D01*
X127044614Y-85757023D01*
X126995113Y-85537233D01*
X126995111Y-85537229D01*
X126995110Y-85537221D01*
X126901644Y-85304985D01*
X126772134Y-85090750D01*
X126772132Y-85090746D01*
X126603435Y-84892421D01*
X126605587Y-84890590D01*
X126561933Y-84825256D01*
X126542979Y-84729968D01*
X126561933Y-84634680D01*
X126615904Y-84553904D01*
X126665620Y-84504189D01*
X126759577Y-84389703D01*
X126847127Y-84258675D01*
X126916942Y-84128060D01*
X126977248Y-83982469D01*
X127020241Y-83840739D01*
X127050984Y-83686181D01*
X127065500Y-83538793D01*
X127065500Y-83381207D01*
X127050984Y-83233819D01*
X127020241Y-83079261D01*
X126977248Y-82937531D01*
X126936010Y-82837974D01*
X126916943Y-82791941D01*
X126916941Y-82791938D01*
X126847131Y-82661333D01*
X126847127Y-82661325D01*
X126831431Y-82637834D01*
X126794253Y-82548074D01*
X126794254Y-82450919D01*
X126831435Y-82361160D01*
X126900135Y-82292462D01*
X126989895Y-82255284D01*
X127038469Y-82250500D01*
X129703464Y-82250500D01*
X129798752Y-82269454D01*
G37*
%TD.AperFunction*%
%TA.AperFunction,Conductor*%
G36*
X149313868Y-79519454D02*
G01*
X149394650Y-79573430D01*
X149426570Y-79605350D01*
X149480546Y-79686132D01*
X149499500Y-79781420D01*
X149499500Y-82882282D01*
X149480546Y-82977570D01*
X149426570Y-83058352D01*
X149345788Y-83112328D01*
X149250500Y-83131282D01*
X149155212Y-83112328D01*
X149145270Y-83107954D01*
X149139329Y-83105183D01*
X148972802Y-83050002D01*
X148972798Y-83050001D01*
X148972797Y-83050001D01*
X148870009Y-83039500D01*
X148870005Y-83039500D01*
X147069993Y-83039500D01*
X146967199Y-83050001D01*
X146800667Y-83105185D01*
X146651346Y-83197286D01*
X146527286Y-83321346D01*
X146435184Y-83470668D01*
X146380002Y-83637197D01*
X146380001Y-83637204D01*
X146369500Y-83739988D01*
X146369500Y-84368886D01*
X146350546Y-84464174D01*
X146296570Y-84544955D01*
X146164957Y-84676569D01*
X146084176Y-84730546D01*
X145988888Y-84749500D01*
X144763753Y-84749500D01*
X144668465Y-84730546D01*
X144587683Y-84676570D01*
X144533707Y-84595788D01*
X144514753Y-84500500D01*
X144533707Y-84405212D01*
X144550664Y-84371682D01*
X144595317Y-84297817D01*
X144681644Y-84155015D01*
X144775110Y-83922779D01*
X144830114Y-83678558D01*
X144840500Y-83531446D01*
X144840500Y-83388554D01*
X144830114Y-83241442D01*
X144828398Y-83233825D01*
X144775113Y-82997233D01*
X144775111Y-82997229D01*
X144775110Y-82997221D01*
X144681644Y-82764985D01*
X144609702Y-82645978D01*
X144552132Y-82550746D01*
X144389942Y-82360071D01*
X144389941Y-82360070D01*
X144389936Y-82360064D01*
X144364518Y-82338443D01*
X144199253Y-82197867D01*
X143985014Y-82068355D01*
X143752779Y-81974890D01*
X143752766Y-81974886D01*
X143508563Y-81919886D01*
X143508564Y-81919886D01*
X143361452Y-81909500D01*
X143361446Y-81909500D01*
X141618554Y-81909500D01*
X141618547Y-81909500D01*
X141471436Y-81919886D01*
X141227233Y-81974886D01*
X141227220Y-81974890D01*
X140994985Y-82068355D01*
X140780746Y-82197867D01*
X140590071Y-82360057D01*
X140590057Y-82360071D01*
X140427867Y-82550746D01*
X140298355Y-82764985D01*
X140204890Y-82997220D01*
X140204886Y-82997233D01*
X140149886Y-83241436D01*
X140139500Y-83388547D01*
X140139500Y-83531452D01*
X140149886Y-83678563D01*
X140204886Y-83922766D01*
X140204890Y-83922779D01*
X140298355Y-84155014D01*
X140427867Y-84369253D01*
X140596565Y-84567579D01*
X140594405Y-84569415D01*
X140638035Y-84634712D01*
X140656989Y-84730000D01*
X140638035Y-84825288D01*
X140594405Y-84890584D01*
X140596565Y-84892421D01*
X140427867Y-85090746D01*
X140298355Y-85304985D01*
X140204890Y-85537220D01*
X140204886Y-85537233D01*
X140149886Y-85781436D01*
X140139500Y-85928547D01*
X140139500Y-86071452D01*
X140149886Y-86218563D01*
X140204886Y-86462766D01*
X140204890Y-86462779D01*
X140298355Y-86695014D01*
X140427867Y-86909253D01*
X140590057Y-87099928D01*
X140590064Y-87099936D01*
X140590070Y-87099941D01*
X140590071Y-87099942D01*
X140780746Y-87262132D01*
X140933892Y-87354712D01*
X140994985Y-87391644D01*
X141227221Y-87485110D01*
X141227229Y-87485111D01*
X141227233Y-87485113D01*
X141471436Y-87540113D01*
X141471438Y-87540113D01*
X141471442Y-87540114D01*
X141618554Y-87550500D01*
X141618563Y-87550500D01*
X143361437Y-87550500D01*
X143361446Y-87550500D01*
X143508558Y-87540114D01*
X143508562Y-87540113D01*
X143508563Y-87540113D01*
X143752766Y-87485113D01*
X143752766Y-87485112D01*
X143752779Y-87485110D01*
X143985015Y-87391644D01*
X144159091Y-87286410D01*
X144250443Y-87253335D01*
X144287909Y-87250500D01*
X146708413Y-87250500D01*
X146708417Y-87250500D01*
X146902826Y-87219709D01*
X147090026Y-87158884D01*
X147265405Y-87069524D01*
X147424646Y-86953828D01*
X148065043Y-86313429D01*
X148145825Y-86259453D01*
X148241113Y-86240499D01*
X148870006Y-86240499D01*
X148870008Y-86240499D01*
X148972797Y-86229999D01*
X149139334Y-86174814D01*
X149139339Y-86174810D01*
X149145260Y-86172050D01*
X149239630Y-86148954D01*
X149335655Y-86163731D01*
X149418716Y-86214129D01*
X149476167Y-86292477D01*
X149499263Y-86386847D01*
X149499500Y-86397717D01*
X149499500Y-109065892D01*
X149533606Y-109193181D01*
X149533607Y-109193183D01*
X149533608Y-109193186D01*
X149599500Y-109307314D01*
X149692686Y-109400500D01*
X149806814Y-109466392D01*
X149934108Y-109500500D01*
X180218580Y-109500500D01*
X180313868Y-109519454D01*
X180394650Y-109573430D01*
X180426570Y-109605350D01*
X180480546Y-109686132D01*
X180499500Y-109781420D01*
X180499500Y-134218580D01*
X180480546Y-134313868D01*
X180426570Y-134394650D01*
X180394650Y-134426570D01*
X180313868Y-134480546D01*
X180218580Y-134499500D01*
X170782035Y-134499500D01*
X170686747Y-134480546D01*
X170605965Y-134426570D01*
X170551989Y-134345788D01*
X170533035Y-134250500D01*
X170551989Y-134155212D01*
X170605962Y-134074433D01*
X172873828Y-131806568D01*
X172989524Y-131647327D01*
X172997546Y-131631583D01*
X173078884Y-131471947D01*
X173132084Y-131308215D01*
X173139709Y-131284749D01*
X173170500Y-131090339D01*
X173170500Y-130893506D01*
X173170500Y-130770140D01*
X173189454Y-130674852D01*
X173243430Y-130594070D01*
X173324212Y-130540094D01*
X173419500Y-130521140D01*
X173514788Y-130540094D01*
X173565860Y-130568696D01*
X173621147Y-130608865D01*
X173621150Y-130608866D01*
X173621155Y-130608870D01*
X173845621Y-130723241D01*
X174085215Y-130801090D01*
X174171700Y-130814788D01*
X174334028Y-130840499D01*
X174334035Y-130840499D01*
X174334038Y-130840500D01*
X174334041Y-130840500D01*
X174585959Y-130840500D01*
X174585962Y-130840500D01*
X174585965Y-130840499D01*
X174585971Y-130840499D01*
X174703513Y-130821881D01*
X174834785Y-130801090D01*
X175074379Y-130723241D01*
X175298845Y-130608870D01*
X175502656Y-130460793D01*
X175553933Y-130409515D01*
X175634712Y-130355542D01*
X175730000Y-130336588D01*
X175825288Y-130355542D01*
X175906066Y-130409515D01*
X175957344Y-130460793D01*
X176161155Y-130608870D01*
X176385621Y-130723241D01*
X176625215Y-130801090D01*
X176711700Y-130814788D01*
X176874028Y-130840499D01*
X176874035Y-130840499D01*
X176874038Y-130840500D01*
X176874041Y-130840500D01*
X177125959Y-130840500D01*
X177125962Y-130840500D01*
X177125965Y-130840499D01*
X177125971Y-130840499D01*
X177243513Y-130821881D01*
X177374785Y-130801090D01*
X177614379Y-130723241D01*
X177838845Y-130608870D01*
X178042656Y-130460793D01*
X178220793Y-130282656D01*
X178368870Y-130078845D01*
X178483241Y-129854379D01*
X178561090Y-129614785D01*
X178581881Y-129483513D01*
X178600499Y-129365971D01*
X178600500Y-129365959D01*
X178600500Y-129114040D01*
X178600499Y-129114028D01*
X178561090Y-128865217D01*
X178561090Y-128865215D01*
X178483241Y-128625621D01*
X178368870Y-128401155D01*
X178220793Y-128197344D01*
X178169515Y-128146066D01*
X178115542Y-128065288D01*
X178096588Y-127970000D01*
X178115542Y-127874712D01*
X178169515Y-127793933D01*
X178220793Y-127742656D01*
X178368870Y-127538845D01*
X178483241Y-127314379D01*
X178561090Y-127074785D01*
X178600500Y-126825962D01*
X178600500Y-126574038D01*
X178600499Y-126574035D01*
X178600499Y-126574028D01*
X178561090Y-126325217D01*
X178561090Y-126325215D01*
X178483241Y-126085621D01*
X178368870Y-125861155D01*
X178298053Y-125763684D01*
X178257380Y-125675454D01*
X178250500Y-125617327D01*
X178250500Y-121501587D01*
X178250498Y-121501571D01*
X178219710Y-121307178D01*
X178219709Y-121307176D01*
X178219709Y-121307174D01*
X178206712Y-121267174D01*
X178200687Y-121248632D01*
X178158886Y-121119981D01*
X178158884Y-121119974D01*
X178069524Y-120944595D01*
X177953828Y-120785354D01*
X171033646Y-113865172D01*
X170874405Y-113749476D01*
X170699026Y-113660116D01*
X170699023Y-113660115D01*
X170699021Y-113660114D01*
X170511823Y-113599290D01*
X170317428Y-113568501D01*
X170317419Y-113568500D01*
X170317417Y-113568500D01*
X170317413Y-113568500D01*
X165481495Y-113568500D01*
X165443259Y-113560894D01*
X165404550Y-113556313D01*
X165395914Y-113551476D01*
X165386207Y-113549546D01*
X165353792Y-113527887D01*
X165319782Y-113508841D01*
X165313655Y-113501069D01*
X165305425Y-113495570D01*
X165283768Y-113463158D01*
X165259634Y-113432544D01*
X165256947Y-113423016D01*
X165251449Y-113414788D01*
X165243843Y-113376553D01*
X165233263Y-113339036D01*
X165234426Y-113329208D01*
X165232495Y-113319500D01*
X165238929Y-113278880D01*
X174329500Y-113278880D01*
X174329500Y-113312032D01*
X174329500Y-113541120D01*
X174331500Y-113556313D01*
X174363729Y-113801112D01*
X174431601Y-114054417D01*
X174531953Y-114296689D01*
X174531955Y-114296693D01*
X174531957Y-114296697D01*
X174627935Y-114462937D01*
X174663073Y-114523798D01*
X174663082Y-114523812D01*
X174822713Y-114731845D01*
X174822718Y-114731851D01*
X175008149Y-114917282D01*
X175008153Y-114917285D01*
X175008154Y-114917286D01*
X175216187Y-115076917D01*
X175216192Y-115076920D01*
X175216197Y-115076924D01*
X175443303Y-115208043D01*
X175443308Y-115208045D01*
X175443310Y-115208046D01*
X175478290Y-115222535D01*
X175685581Y-115308398D01*
X175938884Y-115376270D01*
X176198880Y-115410500D01*
X176461120Y-115410500D01*
X176721116Y-115376270D01*
X176974419Y-115308398D01*
X177216697Y-115208043D01*
X177443803Y-115076924D01*
X177651851Y-114917282D01*
X177837282Y-114731851D01*
X177996924Y-114523803D01*
X178128043Y-114296697D01*
X178228398Y-114054419D01*
X178296270Y-113801116D01*
X178330500Y-113541120D01*
X178330500Y-113278880D01*
X178296270Y-113018884D01*
X178228398Y-112765581D01*
X178128043Y-112523303D01*
X177996924Y-112296197D01*
X177996920Y-112296192D01*
X177996917Y-112296187D01*
X177837286Y-112088154D01*
X177837285Y-112088153D01*
X177837282Y-112088149D01*
X177651851Y-111902718D01*
X177651846Y-111902714D01*
X177651845Y-111902713D01*
X177443812Y-111743082D01*
X177443798Y-111743073D01*
X177382937Y-111707935D01*
X177216697Y-111611957D01*
X177216695Y-111611956D01*
X177216693Y-111611955D01*
X177216689Y-111611953D01*
X176974417Y-111511601D01*
X176864730Y-111482211D01*
X176721116Y-111443730D01*
X176721111Y-111443729D01*
X176721114Y-111443729D01*
X176461120Y-111409500D01*
X176198880Y-111409500D01*
X175938887Y-111443729D01*
X175685582Y-111511601D01*
X175443310Y-111611953D01*
X175443306Y-111611955D01*
X175216201Y-111743073D01*
X175216187Y-111743082D01*
X175008154Y-111902713D01*
X174822713Y-112088154D01*
X174663082Y-112296187D01*
X174663073Y-112296201D01*
X174531955Y-112523306D01*
X174531953Y-112523310D01*
X174431601Y-112765582D01*
X174363729Y-113018887D01*
X174334282Y-113242555D01*
X174329500Y-113278880D01*
X165238929Y-113278880D01*
X165244682Y-113242555D01*
X165260529Y-113193783D01*
X165272641Y-113156502D01*
X165303553Y-113061368D01*
X165340500Y-112828092D01*
X165340500Y-112591908D01*
X165303553Y-112358632D01*
X165230568Y-112134008D01*
X165123343Y-111923567D01*
X165123341Y-111923564D01*
X165123340Y-111923562D01*
X164984521Y-111732495D01*
X164984519Y-111732493D01*
X164984517Y-111732490D01*
X164817510Y-111565483D01*
X164817506Y-111565480D01*
X164817504Y-111565478D01*
X164626437Y-111426659D01*
X164592760Y-111409500D01*
X164415992Y-111319432D01*
X164415989Y-111319431D01*
X164415987Y-111319430D01*
X164291079Y-111278845D01*
X164191368Y-111246447D01*
X164191366Y-111246446D01*
X164191364Y-111246446D01*
X163958103Y-111209501D01*
X163958094Y-111209500D01*
X163958092Y-111209500D01*
X163721908Y-111209500D01*
X163721905Y-111209500D01*
X163721896Y-111209501D01*
X163605226Y-111227980D01*
X163580658Y-111230630D01*
X163551545Y-111232314D01*
X163551539Y-111232315D01*
X162281445Y-111455735D01*
X162238306Y-111459500D01*
X149471114Y-111459500D01*
X149375826Y-111440546D01*
X149295044Y-111386570D01*
X148103430Y-110194956D01*
X148049454Y-110114174D01*
X148030500Y-110018886D01*
X148030500Y-94681587D01*
X148030498Y-94681571D01*
X148024457Y-94643430D01*
X147999709Y-94487174D01*
X147969834Y-94395229D01*
X147967980Y-94389524D01*
X147938886Y-94299981D01*
X147938884Y-94299974D01*
X147849524Y-94124595D01*
X147733829Y-93965354D01*
X146434646Y-92666172D01*
X146275405Y-92550476D01*
X146100026Y-92461116D01*
X146100023Y-92461115D01*
X146100021Y-92461114D01*
X145912823Y-92400290D01*
X145718428Y-92369501D01*
X145718419Y-92369500D01*
X145718417Y-92369500D01*
X145718413Y-92369500D01*
X144763753Y-92369500D01*
X144668465Y-92350546D01*
X144587683Y-92296570D01*
X144533707Y-92215788D01*
X144514753Y-92120500D01*
X144533707Y-92025212D01*
X144550664Y-91991682D01*
X144604381Y-91902823D01*
X144681644Y-91775015D01*
X144775110Y-91542779D01*
X144830114Y-91298558D01*
X144840500Y-91151446D01*
X144840500Y-91008554D01*
X144830114Y-90861442D01*
X144775110Y-90617221D01*
X144681644Y-90384985D01*
X144552134Y-90170750D01*
X144552132Y-90170746D01*
X144389942Y-89980071D01*
X144389941Y-89980070D01*
X144389936Y-89980064D01*
X144389928Y-89980057D01*
X144199253Y-89817867D01*
X143985014Y-89688355D01*
X143752779Y-89594890D01*
X143752766Y-89594886D01*
X143508563Y-89539886D01*
X143508564Y-89539886D01*
X143361452Y-89529500D01*
X143361446Y-89529500D01*
X141618554Y-89529500D01*
X141618547Y-89529500D01*
X141471436Y-89539886D01*
X141227233Y-89594886D01*
X141227220Y-89594890D01*
X140994985Y-89688355D01*
X140780746Y-89817867D01*
X140590071Y-89980057D01*
X140590057Y-89980071D01*
X140427867Y-90170746D01*
X140298355Y-90384985D01*
X140204890Y-90617220D01*
X140204886Y-90617233D01*
X140149886Y-90861436D01*
X140139500Y-91008547D01*
X140139500Y-91151452D01*
X140149886Y-91298563D01*
X140204886Y-91542766D01*
X140204890Y-91542779D01*
X140298356Y-91775017D01*
X140411200Y-91961683D01*
X140444276Y-92053034D01*
X140439876Y-92150089D01*
X140398668Y-92238073D01*
X140326928Y-92303589D01*
X140235577Y-92336665D01*
X140198111Y-92339500D01*
X136251114Y-92339500D01*
X136155826Y-92320546D01*
X136075044Y-92266570D01*
X134973430Y-91164956D01*
X134919454Y-91084174D01*
X134900500Y-90988886D01*
X134900500Y-87744690D01*
X134919454Y-87649402D01*
X134973430Y-87568620D01*
X135054212Y-87514644D01*
X135149500Y-87495690D01*
X135244788Y-87514644D01*
X135295856Y-87543243D01*
X135352436Y-87584352D01*
X135408899Y-87625375D01*
X135408901Y-87625376D01*
X135408904Y-87625378D01*
X135573765Y-87709379D01*
X135749736Y-87766555D01*
X135749742Y-87766556D01*
X135749746Y-87766557D01*
X135932476Y-87795499D01*
X135932483Y-87795499D01*
X135932486Y-87795500D01*
X135932489Y-87795500D01*
X136117511Y-87795500D01*
X136117514Y-87795500D01*
X136117517Y-87795499D01*
X136117523Y-87795499D01*
X136300253Y-87766557D01*
X136300254Y-87766556D01*
X136300264Y-87766555D01*
X136476235Y-87709379D01*
X136641096Y-87625378D01*
X136790787Y-87516621D01*
X136921621Y-87385787D01*
X137030378Y-87236096D01*
X137114379Y-87071235D01*
X137171555Y-86895264D01*
X137200500Y-86712514D01*
X137200500Y-86527486D01*
X137200499Y-86527483D01*
X137200499Y-86527476D01*
X137171557Y-86344746D01*
X137171556Y-86344742D01*
X137171555Y-86344736D01*
X137114379Y-86168765D01*
X137030378Y-86003904D01*
X136921621Y-85854213D01*
X136790787Y-85723379D01*
X136790783Y-85723376D01*
X136641099Y-85614624D01*
X136641098Y-85614623D01*
X136641096Y-85614622D01*
X136476235Y-85530621D01*
X136476224Y-85530617D01*
X136300270Y-85473447D01*
X136300271Y-85473447D01*
X136300264Y-85473445D01*
X136300262Y-85473444D01*
X136300253Y-85473442D01*
X136117523Y-85444500D01*
X136117514Y-85444500D01*
X135932486Y-85444500D01*
X135932476Y-85444500D01*
X135749746Y-85473442D01*
X135749729Y-85473447D01*
X135573775Y-85530617D01*
X135573764Y-85530621D01*
X135408900Y-85614624D01*
X135295859Y-85696754D01*
X135207628Y-85737429D01*
X135110548Y-85741243D01*
X135019398Y-85707617D01*
X134948055Y-85641668D01*
X134907380Y-85553437D01*
X134900500Y-85495309D01*
X134900500Y-84676536D01*
X134919454Y-84581248D01*
X134973430Y-84500466D01*
X135054212Y-84446490D01*
X135149500Y-84427536D01*
X135244788Y-84446490D01*
X135325570Y-84500466D01*
X135445208Y-84620104D01*
X135617184Y-84745051D01*
X135806588Y-84841557D01*
X136008757Y-84907246D01*
X136082601Y-84918941D01*
X136218703Y-84940499D01*
X136218710Y-84940499D01*
X136218713Y-84940500D01*
X136218716Y-84940500D01*
X136431284Y-84940500D01*
X136431287Y-84940500D01*
X136431290Y-84940499D01*
X136431296Y-84940499D01*
X136530476Y-84924789D01*
X136641243Y-84907246D01*
X136843412Y-84841557D01*
X137032816Y-84745051D01*
X137204792Y-84620104D01*
X137355104Y-84469792D01*
X137480051Y-84297816D01*
X137576557Y-84108412D01*
X137642246Y-83906243D01*
X137668578Y-83739991D01*
X137675499Y-83696296D01*
X137675500Y-83696284D01*
X137675500Y-83483715D01*
X137675499Y-83483703D01*
X137642246Y-83273759D01*
X137642246Y-83273757D01*
X137576557Y-83071588D01*
X137480051Y-82882184D01*
X137355104Y-82710208D01*
X137204792Y-82559896D01*
X137032816Y-82434949D01*
X136843412Y-82338443D01*
X136843409Y-82338442D01*
X136843407Y-82338441D01*
X136641240Y-82272753D01*
X136431296Y-82239500D01*
X136431287Y-82239500D01*
X136218713Y-82239500D01*
X136218703Y-82239500D01*
X136008759Y-82272753D01*
X135806592Y-82338441D01*
X135617182Y-82434950D01*
X135445206Y-82559897D01*
X135325570Y-82679534D01*
X135244788Y-82733510D01*
X135149500Y-82752464D01*
X135054212Y-82733510D01*
X134973430Y-82679534D01*
X134919454Y-82598752D01*
X134900500Y-82503464D01*
X134900500Y-82221587D01*
X134900498Y-82221571D01*
X134896744Y-82197867D01*
X134869709Y-82027174D01*
X134834566Y-81919016D01*
X134808884Y-81839974D01*
X134719524Y-81664595D01*
X134603828Y-81505354D01*
X133144646Y-80046172D01*
X133013574Y-79950942D01*
X132947628Y-79879602D01*
X132914002Y-79788452D01*
X132917816Y-79691372D01*
X132958491Y-79603141D01*
X133029834Y-79537192D01*
X133120984Y-79503566D01*
X133159936Y-79500500D01*
X149218580Y-79500500D01*
X149313868Y-79519454D01*
G37*
%TD.AperFunction*%
%TA.AperFunction,Conductor*%
G36*
X158193807Y-124612326D02*
G01*
X158223139Y-124613479D01*
X158241003Y-124621714D01*
X158260301Y-124625553D01*
X158284711Y-124641863D01*
X158311370Y-124654153D01*
X158324723Y-124668598D01*
X158341082Y-124679529D01*
X158357391Y-124703938D01*
X158377320Y-124725496D01*
X158384129Y-124743954D01*
X158395059Y-124760311D01*
X158410947Y-124816645D01*
X158416446Y-124851366D01*
X158482229Y-125053826D01*
X158489432Y-125075992D01*
X158582620Y-125258884D01*
X158596659Y-125286437D01*
X158735478Y-125477504D01*
X158735480Y-125477506D01*
X158735483Y-125477510D01*
X158902490Y-125644517D01*
X158902493Y-125644519D01*
X158902495Y-125644521D01*
X159093562Y-125783340D01*
X159093564Y-125783341D01*
X159093567Y-125783343D01*
X159304008Y-125890568D01*
X159528632Y-125963553D01*
X159761908Y-126000500D01*
X159761912Y-126000500D01*
X159998089Y-126000500D01*
X159998092Y-126000500D01*
X160114799Y-125982015D01*
X160139347Y-125979367D01*
X160168461Y-125977684D01*
X161438547Y-125754265D01*
X161481686Y-125750500D01*
X167662927Y-125750500D01*
X167758215Y-125769454D01*
X167838997Y-125823430D01*
X167892973Y-125904212D01*
X167911927Y-125999500D01*
X167899740Y-126076445D01*
X167818909Y-126325217D01*
X167779500Y-126574028D01*
X167779500Y-126825971D01*
X167818909Y-127074782D01*
X167818910Y-127074785D01*
X167896759Y-127314379D01*
X168008411Y-127533508D01*
X168034781Y-127627013D01*
X168023362Y-127723494D01*
X167975890Y-127808261D01*
X167899593Y-127868410D01*
X167806085Y-127894781D01*
X167709604Y-127883362D01*
X167673514Y-127868413D01*
X167454379Y-127756759D01*
X167454376Y-127756758D01*
X167454374Y-127756757D01*
X167214782Y-127678909D01*
X166965971Y-127639500D01*
X166965962Y-127639500D01*
X166714038Y-127639500D01*
X166714028Y-127639500D01*
X166465217Y-127678909D01*
X166225625Y-127756757D01*
X166001153Y-127871131D01*
X165903685Y-127941946D01*
X165877024Y-127954236D01*
X165852615Y-127970546D01*
X165833319Y-127974384D01*
X165815454Y-127982620D01*
X165757327Y-127989500D01*
X165468295Y-127989500D01*
X165435926Y-127987387D01*
X164134360Y-127816741D01*
X164134367Y-127816741D01*
X164096168Y-127814172D01*
X164073934Y-127811669D01*
X163997093Y-127799500D01*
X163997092Y-127799500D01*
X163760908Y-127799500D01*
X163760905Y-127799500D01*
X163760896Y-127799501D01*
X163527635Y-127836446D01*
X163303012Y-127909430D01*
X163092562Y-128016659D01*
X162901495Y-128155478D01*
X162734478Y-128322495D01*
X162595659Y-128513562D01*
X162488430Y-128724011D01*
X162457126Y-128820357D01*
X162409654Y-128905124D01*
X162333356Y-128965272D01*
X162239849Y-128991643D01*
X162143367Y-128980224D01*
X162058600Y-128932752D01*
X162044243Y-128919481D01*
X161570934Y-128446172D01*
X161570934Y-128446171D01*
X161390935Y-128266173D01*
X161390934Y-128266172D01*
X161231693Y-128150476D01*
X161056314Y-128061116D01*
X161056311Y-128061115D01*
X161056309Y-128061114D01*
X160869111Y-128000290D01*
X160674716Y-127969501D01*
X160674707Y-127969500D01*
X160674705Y-127969500D01*
X160674701Y-127969500D01*
X144351274Y-127969500D01*
X144255986Y-127950546D01*
X144205731Y-127922535D01*
X144199252Y-127917868D01*
X144199253Y-127917868D01*
X144199250Y-127917866D01*
X144031973Y-127816743D01*
X143985014Y-127788355D01*
X143752779Y-127694890D01*
X143752766Y-127694886D01*
X143508563Y-127639886D01*
X143508564Y-127639886D01*
X143361452Y-127629500D01*
X143361446Y-127629500D01*
X141618554Y-127629500D01*
X141618547Y-127629500D01*
X141471436Y-127639886D01*
X141227233Y-127694886D01*
X141227226Y-127694888D01*
X141041965Y-127769448D01*
X140946491Y-127787440D01*
X140851398Y-127767527D01*
X140771165Y-127712739D01*
X140718005Y-127631418D01*
X140700000Y-127538453D01*
X140700000Y-125741546D01*
X140718954Y-125646258D01*
X140772930Y-125565476D01*
X140853712Y-125511500D01*
X140949000Y-125492546D01*
X141041965Y-125510551D01*
X141227221Y-125585110D01*
X141227229Y-125585111D01*
X141227233Y-125585113D01*
X141471436Y-125640113D01*
X141471438Y-125640113D01*
X141471442Y-125640114D01*
X141618554Y-125650500D01*
X141618563Y-125650500D01*
X143361437Y-125650500D01*
X143361446Y-125650500D01*
X143508558Y-125640114D01*
X143508562Y-125640113D01*
X143508563Y-125640113D01*
X143752766Y-125585113D01*
X143752766Y-125585112D01*
X143752779Y-125585110D01*
X143985015Y-125491644D01*
X144159091Y-125386410D01*
X144250443Y-125353335D01*
X144287909Y-125350500D01*
X156898413Y-125350500D01*
X156898417Y-125350500D01*
X157092826Y-125319709D01*
X157280026Y-125258884D01*
X157455405Y-125169524D01*
X157614646Y-125053828D01*
X157988944Y-124679528D01*
X158013352Y-124663220D01*
X158034910Y-124643292D01*
X158053368Y-124636482D01*
X158069725Y-124625553D01*
X158098516Y-124619825D01*
X158126059Y-124609665D01*
X158145716Y-124610437D01*
X158165013Y-124606599D01*
X158193807Y-124612326D01*
G37*
%TD.AperFunction*%
%TA.AperFunction,Conductor*%
G36*
X122255823Y-82269454D02*
G01*
X122336605Y-82323430D01*
X122390581Y-82404212D01*
X122409535Y-82499500D01*
X122397460Y-82576099D01*
X122374867Y-82645978D01*
X122374864Y-82645995D01*
X122354500Y-82820218D01*
X122354500Y-84099781D01*
X122364148Y-84220136D01*
X122390636Y-84313535D01*
X122412008Y-84388896D01*
X122418766Y-84405212D01*
X122418768Y-84405216D01*
X122437720Y-84500504D01*
X122418764Y-84595792D01*
X122364787Y-84676573D01*
X122284004Y-84730548D01*
X122188720Y-84749500D01*
X112121583Y-84749500D01*
X112121580Y-84749500D01*
X112121571Y-84749501D01*
X111927176Y-84780290D01*
X111739978Y-84841114D01*
X111739974Y-84841115D01*
X111739974Y-84841116D01*
X111739107Y-84841558D01*
X111564595Y-84930476D01*
X111405356Y-85046170D01*
X109054956Y-87396570D01*
X108974174Y-87450546D01*
X108878886Y-87469500D01*
X108530140Y-87469500D01*
X108434852Y-87450546D01*
X108354070Y-87396570D01*
X108300094Y-87315788D01*
X108281140Y-87220500D01*
X108300094Y-87125212D01*
X108328696Y-87074140D01*
X108368865Y-87018852D01*
X108368865Y-87018851D01*
X108368870Y-87018845D01*
X108483241Y-86794379D01*
X108561090Y-86554785D01*
X108594360Y-86344729D01*
X108600499Y-86305971D01*
X108600500Y-86305959D01*
X108600500Y-86054040D01*
X108600499Y-86054028D01*
X108568851Y-85854216D01*
X108561090Y-85805215D01*
X108483241Y-85565621D01*
X108368870Y-85341155D01*
X108220793Y-85137344D01*
X108042656Y-84959207D01*
X107971138Y-84907246D01*
X107838851Y-84811134D01*
X107838849Y-84811133D01*
X107838845Y-84811130D01*
X107614379Y-84696759D01*
X107614376Y-84696758D01*
X107614374Y-84696757D01*
X107374782Y-84618909D01*
X107125971Y-84579500D01*
X107125962Y-84579500D01*
X106874038Y-84579500D01*
X106874028Y-84579500D01*
X106625217Y-84618909D01*
X106385625Y-84696757D01*
X106385621Y-84696758D01*
X106385621Y-84696759D01*
X106161155Y-84811130D01*
X106161153Y-84811131D01*
X106161148Y-84811134D01*
X105957347Y-84959204D01*
X105779204Y-85137347D01*
X105631134Y-85341148D01*
X105631131Y-85341153D01*
X105631130Y-85341155D01*
X105534592Y-85530621D01*
X105516757Y-85565625D01*
X105438909Y-85805217D01*
X105399500Y-86054028D01*
X105399500Y-86305971D01*
X105438909Y-86554782D01*
X105484473Y-86695015D01*
X105516759Y-86794379D01*
X105631130Y-87018845D01*
X105631133Y-87018849D01*
X105631134Y-87018851D01*
X105779204Y-87222652D01*
X105779207Y-87222656D01*
X105830484Y-87273933D01*
X105884458Y-87354712D01*
X105903412Y-87450000D01*
X105884458Y-87545288D01*
X105830484Y-87626066D01*
X105797504Y-87659047D01*
X105779204Y-87677347D01*
X105631134Y-87881148D01*
X105516757Y-88105625D01*
X105438909Y-88345217D01*
X105399500Y-88594028D01*
X105399500Y-88845971D01*
X105438909Y-89094782D01*
X105438910Y-89094785D01*
X105516759Y-89334379D01*
X105616178Y-89529500D01*
X105631133Y-89558850D01*
X105636017Y-89565572D01*
X105648304Y-89592228D01*
X105664612Y-89616633D01*
X105668451Y-89635932D01*
X105676689Y-89653803D01*
X105677840Y-89683132D01*
X105683567Y-89711921D01*
X105679728Y-89731221D01*
X105680500Y-89750884D01*
X105670340Y-89778420D01*
X105664614Y-89807210D01*
X105653681Y-89823572D01*
X105646870Y-89842033D01*
X105610638Y-89887992D01*
X105562063Y-89936568D01*
X105481283Y-89990545D01*
X105385995Y-90009500D01*
X104509500Y-90009500D01*
X104414212Y-89990546D01*
X104333430Y-89936570D01*
X104279454Y-89855788D01*
X104260500Y-89760500D01*
X104260500Y-83121114D01*
X104279454Y-83025826D01*
X104333430Y-82945044D01*
X104955044Y-82323430D01*
X105035826Y-82269454D01*
X105131114Y-82250500D01*
X122160535Y-82250500D01*
X122255823Y-82269454D01*
G37*
%TD.AperFunction*%
%TD*%
%TA.AperFunction,Conductor*%
%TO.N,Net-(U1-GPIO20)*%
G36*
X161355916Y-123998298D02*
G01*
X161363470Y-124003106D01*
X161365589Y-124009821D01*
X161365589Y-124990178D01*
X161362162Y-124998451D01*
X161355916Y-125001701D01*
X160037572Y-125233609D01*
X160028830Y-125231667D01*
X160024074Y-125224386D01*
X159879460Y-124502296D01*
X159879460Y-124497702D01*
X160024074Y-123775612D01*
X160029058Y-123768176D01*
X160037570Y-123766390D01*
X161355916Y-123998298D01*
G37*
%TD.AperFunction*%
%TD*%
D23*
%TO.C,U1*%
X128950000Y-84090000D02*
G75*
G02*
X126850000Y-84090000I-1050000J0D01*
G01*
X126850000Y-84090000D02*
G75*
G02*
X128950000Y-84090000I1050000J0D01*
G01*
X128950000Y-131090000D02*
G75*
G02*
X126850000Y-131090000I-1050000J0D01*
G01*
X126850000Y-131090000D02*
G75*
G02*
X128950000Y-131090000I1050000J0D01*
G01*
X140350000Y-84090000D02*
G75*
G02*
X138250000Y-84090000I-1050000J0D01*
G01*
X138250000Y-84090000D02*
G75*
G02*
X140350000Y-84090000I1050000J0D01*
G01*
X140350000Y-131090000D02*
G75*
G02*
X138250000Y-131090000I-1050000J0D01*
G01*
X138250000Y-131090000D02*
G75*
G02*
X140350000Y-131090000I1050000J0D01*
G01*
%TD*%
D24*
X112000000Y-135000000D02*
X112000000Y-159000000D01*
D25*
X109000000Y-131900000D02*
G75*
G02*
X106000000Y-131900000I-1500000J0D01*
G01*
X106000000Y-131900000D02*
G75*
G02*
X109000000Y-131900000I1500000J0D01*
G01*
D24*
X150000000Y-79000000D02*
X150000000Y-109000000D01*
X181000000Y-109000000D02*
X181000000Y-135000000D01*
D25*
X177830000Y-113410000D02*
G75*
G02*
X174830000Y-113410000I-1500000J0D01*
G01*
X174830000Y-113410000D02*
G75*
G02*
X177830000Y-113410000I1500000J0D01*
G01*
D24*
X112000000Y-159000000D02*
X101000000Y-159000000D01*
X101000000Y-159000000D02*
X101000000Y-79000000D01*
D25*
X111570000Y-97540000D02*
G75*
G02*
X108570000Y-97540000I-1500000J0D01*
G01*
X108570000Y-97540000D02*
G75*
G02*
X111570000Y-97540000I1500000J0D01*
G01*
D24*
X150000000Y-109000000D02*
X181000000Y-109000000D01*
X101000000Y-79000000D02*
X150000000Y-79000000D01*
X181000000Y-135000000D02*
X112000000Y-135000000D01*
M02*
