%TF.GenerationSoftware,KiCad,Pcbnew,9.0.2*%
%TF.CreationDate,2025-10-27T14:43:20-03:00*%
%TF.ProjectId,RadProt_IOT,52616450-726f-4745-9f49-4f542e6b6963,rev?*%
%TF.SameCoordinates,Original*%
%TF.FileFunction,Copper,L1,Top*%
%TF.FilePolarity,Positive*%
%FSLAX46Y46*%
G04 Gerber Fmt 4.6, Leading zero omitted, Abs format (unit mm)*
G04 Created by KiCad (PCBNEW 9.0.2) date 2025-10-27 14:43:20*
%MOMM*%
%LPD*%
G01*
G04 APERTURE LIST*
G04 Aperture macros list*
%AMRoundRect*
0 Rectangle with rounded corners*
0 $1 Rounding radius*
0 $2 $3 $4 $5 $6 $7 $8 $9 X,Y pos of 4 corners*
0 Add a 4 corners polygon primitive as box body*
4,1,4,$2,$3,$4,$5,$6,$7,$8,$9,$2,$3,0*
0 Add four circle primitives for the rounded corners*
1,1,$1+$1,$2,$3*
1,1,$1+$1,$4,$5*
1,1,$1+$1,$6,$7*
1,1,$1+$1,$8,$9*
0 Add four rect primitives between the rounded corners*
20,1,$1+$1,$2,$3,$4,$5,0*
20,1,$1+$1,$4,$5,$6,$7,0*
20,1,$1+$1,$6,$7,$8,$9,0*
20,1,$1+$1,$8,$9,$2,$3,0*%
%AMFreePoly0*
4,1,37,0.800000,0.796148,0.878414,0.796148,1.032228,0.765552,1.177117,0.705537,1.307515,0.618408,1.418408,0.507515,1.505537,0.377117,1.565552,0.232228,1.596148,0.078414,1.596148,-0.078414,1.565552,-0.232228,1.505537,-0.377117,1.418408,-0.507515,1.307515,-0.618408,1.177117,-0.705537,1.032228,-0.765552,0.878414,-0.796148,0.800000,-0.796148,0.800000,-0.800000,-1.400000,-0.800000,
-1.403843,-0.796157,-1.439018,-0.796157,-1.511114,-0.766294,-1.566294,-0.711114,-1.596157,-0.639018,-1.596157,-0.603843,-1.600000,-0.600000,-1.600000,0.600000,-1.596157,0.603843,-1.596157,0.639018,-1.566294,0.711114,-1.511114,0.766294,-1.439018,0.796157,-1.403843,0.796157,-1.400000,0.800000,0.800000,0.800000,0.800000,0.796148,0.800000,0.796148,$1*%
%AMFreePoly1*
4,1,37,1.403843,0.796157,1.439018,0.796157,1.511114,0.766294,1.566294,0.711114,1.596157,0.639018,1.596157,0.603843,1.600000,0.600000,1.600000,-0.600000,1.596157,-0.603843,1.596157,-0.639018,1.566294,-0.711114,1.511114,-0.766294,1.439018,-0.796157,1.403843,-0.796157,1.400000,-0.800000,-0.800000,-0.800000,-0.800000,-0.796148,-0.878414,-0.796148,-1.032228,-0.765552,-1.177117,-0.705537,
-1.307515,-0.618408,-1.418408,-0.507515,-1.505537,-0.377117,-1.565552,-0.232228,-1.596148,-0.078414,-1.596148,0.078414,-1.565552,0.232228,-1.505537,0.377117,-1.418408,0.507515,-1.307515,0.618408,-1.177117,0.705537,-1.032228,0.765552,-0.878414,0.796148,-0.800000,0.796148,-0.800000,0.800000,1.400000,0.800000,1.403843,0.796157,1.403843,0.796157,$1*%
G04 Aperture macros list end*
%TA.AperFunction,ComponentPad*%
%ADD10C,1.700000*%
%TD*%
%TA.AperFunction,ComponentPad*%
%ADD11R,1.700000X1.700000*%
%TD*%
%TA.AperFunction,ComponentPad*%
%ADD12C,2.000000*%
%TD*%
%TA.AperFunction,ComponentPad*%
%ADD13R,1.800000X1.800000*%
%TD*%
%TA.AperFunction,ComponentPad*%
%ADD14C,1.800000*%
%TD*%
%TA.AperFunction,ComponentPad*%
%ADD15RoundRect,0.800000X-0.800000X-0.000010X0.800000X-0.000010X0.800000X0.000010X-0.800000X0.000010X0*%
%TD*%
%TA.AperFunction,ComponentPad*%
%ADD16FreePoly0,0.000000*%
%TD*%
%TA.AperFunction,ComponentPad*%
%ADD17FreePoly1,0.000000*%
%TD*%
%TA.AperFunction,ComponentPad*%
%ADD18RoundRect,0.200000X-0.600000X-0.600000X0.600000X-0.600000X0.600000X0.600000X-0.600000X0.600000X0*%
%TD*%
%TA.AperFunction,ComponentPad*%
%ADD19C,1.600000*%
%TD*%
%TA.AperFunction,ViaPad*%
%ADD20C,1.700000*%
%TD*%
%TA.AperFunction,ViaPad*%
%ADD21C,1.500000*%
%TD*%
%TA.AperFunction,Conductor*%
%ADD22C,0.500000*%
%TD*%
%TA.AperFunction,Conductor*%
%ADD23C,1.000000*%
%TD*%
%ADD24C,0.120000*%
%TA.AperFunction,Profile*%
%ADD25C,0.100000*%
%TD*%
%TA.AperFunction,Profile*%
%ADD26C,0.200000*%
%TD*%
G04 APERTURE END LIST*
D10*
%TO.P,J1,WOL,WOL*%
%TO.N,unconnected-(J1-PadWOL)*%
X174460000Y-129240000D03*
%TO.P,J1,VCC,VCC*%
%TO.N,Net-(D2-A)*%
X166840000Y-129240000D03*
%TO.P,J1,SO,SO*%
%TO.N,Net-(U1-GPIO16)*%
X174460000Y-126700000D03*
%TO.P,J1,SI,SI*%
%TO.N,Net-(U1-GPIO19)*%
X171920000Y-129240000D03*
%TO.P,J1,SCK,SCK*%
%TO.N,Net-(U1-GPIO18)*%
X171920000Y-126700000D03*
%TO.P,J1,RESET,RESET*%
%TO.N,Net-(U1-GPIO20)*%
X169380000Y-126700000D03*
%TO.P,J1,INT,INT*%
%TO.N,Net-(U1-GPIO21)*%
X177000000Y-126700000D03*
D11*
%TO.P,J1,GND,GND*%
%TO.N,GND*%
X166840000Y-126700000D03*
D10*
%TO.P,J1,CS,CS*%
%TO.N,Net-(U1-GPIO17)*%
X169380000Y-129240000D03*
%TO.P,J1,CLKOUT,CLKOUT*%
%TO.N,unconnected-(J1-PadCLKOUT)*%
X177000000Y-129240000D03*
%TD*%
%TO.P,UART2,4,Pin_4*%
%TO.N,GND*%
X107000000Y-116480000D03*
%TO.P,UART2,3,Pin_3*%
%TO.N,unconnected-(UART2-Pin_3-Pad3)*%
X107000000Y-119020000D03*
%TO.P,UART2,2,Pin_2*%
%TO.N,/UART2_RX*%
X107000000Y-121560000D03*
D11*
%TO.P,UART2,1,Pin_1*%
%TO.N,Net-(D2-A)*%
X107000000Y-124100000D03*
%TD*%
D10*
%TO.P,UART3,4,Pin_4*%
%TO.N,GND*%
X106975000Y-149500000D03*
%TO.P,UART3,3,Pin_3*%
%TO.N,unconnected-(UART3-Pin_3-Pad3)*%
X106975000Y-152040000D03*
%TO.P,UART3,2,Pin_2*%
%TO.N,/UART3_RX*%
X106975000Y-154580000D03*
D11*
%TO.P,UART3,1,Pin_1*%
%TO.N,Net-(D2-A)*%
X106975000Y-157120000D03*
%TD*%
D10*
%TO.P,UART0,4,Pin_4*%
%TO.N,GND*%
X107000000Y-83640000D03*
%TO.P,UART0,3,Pin_3*%
%TO.N,unconnected-(UART0-Pin_3-Pad3)*%
X107000000Y-86180000D03*
%TO.P,UART0,2,Pin_2*%
%TO.N,/UART0_RX*%
X107000000Y-88720000D03*
D11*
%TO.P,UART0,1,Pin_1*%
%TO.N,Net-(D2-A)*%
X107000000Y-91260000D03*
%TD*%
%TO.P,J5,1,Pin_1*%
%TO.N,+5V*%
X147970000Y-84640000D03*
%TD*%
D12*
%TO.P,SW1,2,2*%
%TO.N,Net-(U1-GPIO15)*%
X120500000Y-131070000D03*
X114000000Y-131070000D03*
%TO.P,SW1,1,1*%
%TO.N,GND*%
X120500000Y-126570000D03*
X114000000Y-126570000D03*
%TD*%
D13*
%TO.P,D2,1,K*%
%TO.N,Net-(D2-K)*%
X117140000Y-95860000D03*
D14*
%TO.P,D2,2,A*%
%TO.N,Net-(D2-A)*%
X117140000Y-93320000D03*
%TD*%
D10*
%TO.P,R2,1*%
%TO.N,Net-(D2-K)*%
X106970000Y-101510000D03*
%TO.P,R2,2*%
%TO.N,GND*%
X106970000Y-109130000D03*
%TD*%
D15*
%TO.P,U1,2,GPIO1*%
%TO.N,/UART0_RX*%
X124710000Y-86000000D03*
D16*
%TO.P,U1,1,GPIO0*%
%TO.N,/UART0_TX*%
X124710000Y-83460000D03*
D17*
%TO.P,U1,3,GND*%
%TO.N,GND*%
X124710000Y-88540000D03*
D15*
%TO.P,U1,4,GPIO2*%
%TO.N,/UART2_TX*%
X124710000Y-91080000D03*
%TO.P,U1,5,GPIO3*%
%TO.N,/UART2_RX*%
X124710000Y-93620000D03*
%TO.P,U1,6,GPIO4*%
%TO.N,/UART1_TX*%
X124710000Y-96160000D03*
%TO.P,U1,7,GPIO5*%
%TO.N,/UART1_RX*%
X124710000Y-98700000D03*
D17*
%TO.P,U1,8,GND*%
%TO.N,GND*%
X124710000Y-101240000D03*
D15*
%TO.P,U1,9,GPIO6*%
%TO.N,/UART3_TX*%
X124710000Y-103780000D03*
%TO.P,U1,10,GPIO7*%
%TO.N,/UART3_RX*%
X124710000Y-106320000D03*
%TO.P,U1,11,GPIO8*%
%TO.N,unconnected-(U1-GPIO8-Pad11)*%
X124710000Y-108860000D03*
%TO.P,U1,12,GPIO9*%
%TO.N,Net-(D1-A)*%
X124710000Y-111400000D03*
D17*
%TO.P,U1,13,GND*%
%TO.N,GND*%
X124710000Y-113940000D03*
D15*
%TO.P,U1,14,GPIO10*%
%TO.N,unconnected-(U1-GPIO10-Pad14)*%
X124710000Y-116480000D03*
%TO.P,U1,15,GPIO11*%
%TO.N,unconnected-(U1-GPIO11-Pad15)*%
X124710000Y-119020000D03*
%TO.P,U1,16,GPIO12*%
%TO.N,unconnected-(U1-GPIO12-Pad16)*%
X124710000Y-121560000D03*
%TO.P,U1,17,GPIO13*%
%TO.N,unconnected-(U1-GPIO13-Pad17)*%
X124710000Y-124100000D03*
D17*
%TO.P,U1,18,GND*%
%TO.N,GND*%
X124710000Y-126640000D03*
D15*
%TO.P,U1,19,GPIO14*%
%TO.N,unconnected-(U1-GPIO14-Pad19)*%
X124710000Y-129180000D03*
%TO.P,U1,20,GPIO15*%
%TO.N,Net-(U1-GPIO15)*%
X124710000Y-131720000D03*
%TO.P,U1,21,GPIO16*%
%TO.N,Net-(U1-GPIO16)*%
X142490000Y-131720000D03*
%TO.P,U1,22,GPIO17*%
%TO.N,Net-(U1-GPIO17)*%
X142490000Y-129180000D03*
D16*
%TO.P,U1,23,GND*%
%TO.N,GND*%
X142490000Y-126640000D03*
D15*
%TO.P,U1,24,GPIO18*%
%TO.N,Net-(U1-GPIO18)*%
X142490000Y-124100000D03*
%TO.P,U1,25,GPIO19*%
%TO.N,Net-(U1-GPIO19)*%
X142490000Y-121560000D03*
%TO.P,U1,26,GPIO20*%
%TO.N,Net-(U1-GPIO20)*%
X142490000Y-119020000D03*
%TO.P,U1,27,GPIO21*%
%TO.N,Net-(U1-GPIO21)*%
X142490000Y-116480000D03*
D16*
%TO.P,U1,28,GND*%
%TO.N,GND*%
X142490000Y-113940000D03*
D15*
%TO.P,U1,29,GPIO22*%
%TO.N,unconnected-(U1-GPIO22-Pad29)*%
X142490000Y-111400000D03*
%TO.P,U1,30,RUN*%
%TO.N,unconnected-(U1-RUN-Pad30)*%
X142490000Y-108860000D03*
%TO.P,U1,31,GPIO26_ADC0*%
%TO.N,unconnected-(U1-GPIO26_ADC0-Pad31)*%
X142490000Y-106320000D03*
%TO.P,U1,32,GPIO27_ADC1*%
%TO.N,unconnected-(U1-GPIO27_ADC1-Pad32)*%
X142490000Y-103780000D03*
D16*
%TO.P,U1,33,AGND*%
%TO.N,unconnected-(U1-AGND-Pad33)*%
X142490000Y-101240000D03*
D15*
%TO.P,U1,34,GPIO28_ADC2*%
%TO.N,unconnected-(U1-GPIO28_ADC2-Pad34)*%
X142490000Y-98700000D03*
%TO.P,U1,35,ADC_VREF*%
%TO.N,unconnected-(U1-ADC_VREF-Pad35)*%
X142490000Y-96160000D03*
%TO.P,U1,36,3V3*%
%TO.N,Net-(D2-A)*%
X142490000Y-93620000D03*
%TO.P,U1,37,3V3_EN*%
%TO.N,unconnected-(U1-3V3_EN-Pad37)*%
X142490000Y-91080000D03*
D16*
%TO.P,U1,38,GND*%
%TO.N,GND*%
X142490000Y-88540000D03*
D15*
%TO.P,U1,39,VSYS*%
%TO.N,+5V*%
X142490000Y-86000000D03*
%TO.P,U1,40,VBUS*%
%TO.N,unconnected-(U1-VBUS-Pad40)*%
X142490000Y-83460000D03*
D18*
%TO.P,U1,D1*%
%TO.N,N/C*%
X134184100Y-113290000D03*
D19*
%TO.P,U1,D2*%
X136724100Y-113290000D03*
%TO.P,U1,D3*%
X139264100Y-113290000D03*
%TD*%
D10*
%TO.P,R1,1*%
%TO.N,Net-(D1-K)*%
X117130000Y-116320000D03*
%TO.P,R1,2*%
%TO.N,GND*%
X117130000Y-123940000D03*
%TD*%
D11*
%TO.P,J6,1,Pin_1*%
%TO.N,GND*%
X147970000Y-89840000D03*
%TD*%
D13*
%TO.P,D1,1,K*%
%TO.N,Net-(D1-K)*%
X117140000Y-113920000D03*
D14*
%TO.P,D1,2,A*%
%TO.N,Net-(D1-A)*%
X117140000Y-111380000D03*
%TD*%
D20*
%TO.N,GND*%
X117090000Y-83580000D03*
X117090000Y-88480000D03*
D21*
%TO.N,Net-(D2-A)*%
X163879000Y-129300000D03*
X163840000Y-112710000D03*
%TO.N,Net-(U1-GPIO19)*%
X155920000Y-131730000D03*
X155830000Y-121600000D03*
%TO.N,Net-(U1-GPIO20)*%
X159880000Y-119100000D03*
X159880000Y-124500000D03*
%TO.N,Net-(U1-GPIO16)*%
X151870000Y-131740000D03*
X151865000Y-116900000D03*
%TD*%
D22*
%TO.N,GND*%
X117090000Y-83580000D02*
X117090000Y-88480000D01*
D23*
%TO.N,Net-(D2-A)*%
X163840000Y-129460000D02*
X163880000Y-129500000D01*
D22*
X163840000Y-112710000D02*
X163840000Y-129460000D01*
%TO.N,Net-(U1-GPIO19)*%
X155880000Y-131434208D02*
X155880000Y-121650000D01*
X155880000Y-121650000D02*
X155830000Y-121600000D01*
%TO.N,Net-(U1-GPIO20)*%
X159880000Y-124500000D02*
X159880000Y-119100000D01*
%TO.N,Net-(U1-GPIO16)*%
X151870000Y-131740000D02*
X151870000Y-116905000D01*
D23*
X151870000Y-116905000D02*
X151865000Y-116900000D01*
%TD*%
%TA.AperFunction,Conductor*%
%TO.N,Net-(U1-GPIO19)*%
G36*
X156130296Y-130247838D02*
G01*
X156132914Y-130251837D01*
X156650486Y-131570678D01*
X156650319Y-131579631D01*
X156643869Y-131585843D01*
X156641893Y-131586424D01*
X155922298Y-131730539D01*
X155917702Y-131730539D01*
X155197395Y-131586282D01*
X155189956Y-131581297D01*
X155188221Y-131572512D01*
X155188587Y-131571128D01*
X155627336Y-130252416D01*
X155633200Y-130245649D01*
X155638438Y-130244411D01*
X156122023Y-130244411D01*
X156130296Y-130247838D01*
G37*
%TD.AperFunction*%
%TD*%
%TA.AperFunction,Conductor*%
%TO.N,Net-(U1-GPIO16)*%
G36*
X152587296Y-117043655D02*
G01*
X152594734Y-117048640D01*
X152596469Y-117057425D01*
X152596009Y-117059079D01*
X152122780Y-118377841D01*
X152116761Y-118384470D01*
X152111768Y-118385589D01*
X151628174Y-118385589D01*
X151619901Y-118382162D01*
X151617188Y-118377913D01*
X151134105Y-117059133D01*
X151134477Y-117050186D01*
X151141067Y-117044123D01*
X151142781Y-117043640D01*
X151862703Y-116899460D01*
X151867297Y-116899460D01*
X152587296Y-117043655D01*
G37*
%TD.AperFunction*%
%TD*%
%TA.AperFunction,Conductor*%
%TO.N,GND*%
G36*
X117910064Y-83743104D02*
G01*
X117917503Y-83748088D01*
X117919240Y-83756873D01*
X117918687Y-83758776D01*
X117342884Y-85256166D01*
X117336717Y-85262658D01*
X117331964Y-85263667D01*
X116848036Y-85263667D01*
X116839763Y-85260240D01*
X116837116Y-85256166D01*
X116261312Y-83758776D01*
X116261541Y-83749824D01*
X116268033Y-83743657D01*
X116269926Y-83743106D01*
X117087706Y-83579459D01*
X117092294Y-83579459D01*
X117910064Y-83743104D01*
G37*
%TD.AperFunction*%
%TD*%
%TA.AperFunction,Conductor*%
%TO.N,GND*%
G36*
X117340237Y-86799760D02*
G01*
X117342884Y-86803834D01*
X117918687Y-88301223D01*
X117918458Y-88310175D01*
X117911966Y-88316342D01*
X117910063Y-88316895D01*
X117092296Y-88480540D01*
X117087704Y-88480540D01*
X116269936Y-88316895D01*
X116262496Y-88311911D01*
X116260759Y-88303126D01*
X116261309Y-88301231D01*
X116837116Y-86803834D01*
X116843283Y-86797342D01*
X116848036Y-86796333D01*
X117331964Y-86796333D01*
X117340237Y-86799760D01*
G37*
%TD.AperFunction*%
%TD*%
%TA.AperFunction,Conductor*%
%TO.N,Net-(D2-A)*%
G36*
X164090290Y-127817838D02*
G01*
X164092911Y-127821844D01*
X164609497Y-129140684D01*
X164609324Y-129149637D01*
X164602870Y-129155845D01*
X164600901Y-129156423D01*
X163881298Y-129300539D01*
X163876702Y-129300539D01*
X163156403Y-129156284D01*
X163148964Y-129151299D01*
X163147229Y-129142514D01*
X163147598Y-129141124D01*
X163587333Y-127822410D01*
X163593201Y-127815646D01*
X163598432Y-127814411D01*
X164082017Y-127814411D01*
X164090290Y-127817838D01*
G37*
%TD.AperFunction*%
%TD*%
%TA.AperFunction,Conductor*%
%TO.N,Net-(D2-A)*%
G36*
X164562252Y-112853647D02*
G01*
X164569690Y-112858631D01*
X164571425Y-112867416D01*
X164570952Y-112869106D01*
X164092796Y-114187877D01*
X164086755Y-114194487D01*
X164081797Y-114195589D01*
X163598203Y-114195589D01*
X163589930Y-114192162D01*
X163587204Y-114187877D01*
X163475167Y-113878876D01*
X163109047Y-112869104D01*
X163109448Y-112860160D01*
X163116058Y-112854119D01*
X163117735Y-112853649D01*
X163837703Y-112709460D01*
X163842297Y-112709460D01*
X164562252Y-112853647D01*
G37*
%TD.AperFunction*%
%TD*%
%TA.AperFunction,Conductor*%
%TO.N,Net-(U1-GPIO20)*%
G36*
X160130070Y-123017838D02*
G01*
X160132796Y-123022123D01*
X160610952Y-124340893D01*
X160610551Y-124349839D01*
X160603941Y-124355880D01*
X160602251Y-124356353D01*
X159882298Y-124500539D01*
X159877702Y-124500539D01*
X159157748Y-124356353D01*
X159150309Y-124351368D01*
X159148574Y-124342583D01*
X159149043Y-124340905D01*
X159627204Y-123022123D01*
X159633245Y-123015513D01*
X159638203Y-123014411D01*
X160121797Y-123014411D01*
X160130070Y-123017838D01*
G37*
%TD.AperFunction*%
%TD*%
%TA.AperFunction,Conductor*%
%TO.N,Net-(U1-GPIO19)*%
G36*
X156551798Y-121743556D02*
G01*
X156552692Y-121743735D01*
X156560131Y-121748720D01*
X156561866Y-121757505D01*
X156561520Y-121758826D01*
X156132628Y-123077508D01*
X156126811Y-123084315D01*
X156121502Y-123085589D01*
X155637922Y-123085589D01*
X155629649Y-123082162D01*
X155627058Y-123078233D01*
X155099631Y-121759372D01*
X155099741Y-121750418D01*
X155106151Y-121744164D01*
X155108186Y-121743559D01*
X155827703Y-121599460D01*
X155832297Y-121599460D01*
X156551798Y-121743556D01*
G37*
%TD.AperFunction*%
%TD*%
%TA.AperFunction,Conductor*%
%TO.N,Net-(U1-GPIO16)*%
G36*
X152120070Y-130257838D02*
G01*
X152122796Y-130262123D01*
X152600952Y-131580893D01*
X152600551Y-131589839D01*
X152593941Y-131595880D01*
X152592251Y-131596353D01*
X151872298Y-131740539D01*
X151867702Y-131740539D01*
X151147748Y-131596353D01*
X151140309Y-131591368D01*
X151138574Y-131582583D01*
X151139043Y-131580905D01*
X151617204Y-130262123D01*
X151623245Y-130255513D01*
X151628203Y-130254411D01*
X152111797Y-130254411D01*
X152120070Y-130257838D01*
G37*
%TD.AperFunction*%
%TD*%
%TA.AperFunction,Conductor*%
%TO.N,Net-(U1-GPIO20)*%
G36*
X160602252Y-119243647D02*
G01*
X160609690Y-119248631D01*
X160611425Y-119257416D01*
X160610952Y-119259106D01*
X160132796Y-120577877D01*
X160126755Y-120584487D01*
X160121797Y-120585589D01*
X159638203Y-120585589D01*
X159629930Y-120582162D01*
X159627204Y-120577877D01*
X159515167Y-120268876D01*
X159149047Y-119259104D01*
X159149448Y-119250160D01*
X159156058Y-119244119D01*
X159157735Y-119243649D01*
X159877703Y-119099460D01*
X159882297Y-119099460D01*
X160602252Y-119243647D01*
G37*
%TD.AperFunction*%
%TD*%
D24*
%TO.C,U1*%
X128950000Y-84090000D02*
G75*
G02*
X126850000Y-84090000I-1050000J0D01*
G01*
X126850000Y-84090000D02*
G75*
G02*
X128950000Y-84090000I1050000J0D01*
G01*
X128950000Y-131090000D02*
G75*
G02*
X126850000Y-131090000I-1050000J0D01*
G01*
X126850000Y-131090000D02*
G75*
G02*
X128950000Y-131090000I1050000J0D01*
G01*
X140350000Y-84090000D02*
G75*
G02*
X138250000Y-84090000I-1050000J0D01*
G01*
X138250000Y-84090000D02*
G75*
G02*
X140350000Y-84090000I1050000J0D01*
G01*
X140350000Y-131090000D02*
G75*
G02*
X138250000Y-131090000I-1050000J0D01*
G01*
X138250000Y-131090000D02*
G75*
G02*
X140350000Y-131090000I1050000J0D01*
G01*
%TD*%
D25*
X112000000Y-135000000D02*
X112000000Y-159000000D01*
D26*
X109000000Y-131900000D02*
G75*
G02*
X106000000Y-131900000I-1500000J0D01*
G01*
X106000000Y-131900000D02*
G75*
G02*
X109000000Y-131900000I1500000J0D01*
G01*
D25*
X150000000Y-79000000D02*
X150000000Y-109000000D01*
X181000000Y-109000000D02*
X181000000Y-135000000D01*
D26*
X177830000Y-113410000D02*
G75*
G02*
X174830000Y-113410000I-1500000J0D01*
G01*
X174830000Y-113410000D02*
G75*
G02*
X177830000Y-113410000I1500000J0D01*
G01*
D25*
X112000000Y-159000000D02*
X101000000Y-159000000D01*
X101000000Y-159000000D02*
X101000000Y-79000000D01*
D26*
X111570000Y-97540000D02*
G75*
G02*
X108570000Y-97540000I-1500000J0D01*
G01*
X108570000Y-97540000D02*
G75*
G02*
X111570000Y-97540000I1500000J0D01*
G01*
D25*
X150000000Y-109000000D02*
X181000000Y-109000000D01*
X101000000Y-79000000D02*
X150000000Y-79000000D01*
X181000000Y-135000000D02*
X112000000Y-135000000D01*
M02*
