M48
; DRILL file {KiCad 9.0.2} date 2025-10-27T14:38:08-0300
; FORMAT={-:-/ absolute / metric / decimal}
; #@! TF.CreationDate,2025-10-27T14:38:08-03:00
; #@! TF.GenerationSoftware,Kicad,Pcbnew,9.0.2
; #@! TF.FileFunction,Plated,1,2,PTH
FMAT,2
METRIC
; #@! TA.AperFunction,Plated,PTH,ViaDrill
T1C0.650
; #@! TA.AperFunction,Plated,PTH,ComponentDrill
T2C0.800
; #@! TA.AperFunction,Plated,PTH,ComponentDrill
T3C1.000
%
G90
G05
T1
X117.09Y-83.58
X117.09Y-88.48
X151.865Y-116.9
X151.87Y-131.74
X155.83Y-121.6
X155.92Y-131.73
X159.88Y-119.1
X159.88Y-124.5
X163.84Y-112.71
X163.879Y-129.3
T2
X106.97Y-101.51
X106.97Y-109.13
X106.975Y-149.5
X106.975Y-152.04
X106.975Y-154.58
X106.975Y-157.12
X107.0Y-83.64
X107.0Y-86.18
X107.0Y-88.72
X107.0Y-91.26
X107.0Y-116.48
X107.0Y-119.02
X107.0Y-121.56
X107.0Y-124.1
X117.13Y-116.32
X117.13Y-123.94
X117.14Y-93.32
X117.14Y-95.86
X117.14Y-111.38
X117.14Y-113.92
X124.71Y-83.46
X124.71Y-86.0
X124.71Y-88.54
X124.71Y-91.08
X124.71Y-93.62
X124.71Y-96.16
X124.71Y-98.7
X124.71Y-101.24
X124.71Y-103.78
X124.71Y-106.32
X124.71Y-108.86
X124.71Y-111.4
X124.71Y-113.94
X124.71Y-116.48
X124.71Y-119.02
X124.71Y-121.56
X124.71Y-124.1
X124.71Y-126.64
X124.71Y-129.18
X124.71Y-131.72
X142.49Y-83.46
X142.49Y-86.0
X142.49Y-88.54
X142.49Y-91.08
X142.49Y-93.62
X142.49Y-96.16
X142.49Y-98.7
X142.49Y-101.24
X142.49Y-103.78
X142.49Y-106.32
X142.49Y-108.86
X142.49Y-111.4
X142.49Y-113.94
X142.49Y-116.48
X142.49Y-119.02
X142.49Y-121.56
X142.49Y-124.1
X142.49Y-126.64
X142.49Y-129.18
X142.49Y-131.72
X147.97Y-84.64
X147.97Y-89.84
X166.84Y-126.7
X166.84Y-129.24
X169.38Y-126.7
X169.38Y-129.24
X171.92Y-126.7
X171.92Y-129.24
X174.46Y-126.7
X174.46Y-129.24
X177.0Y-126.7
X177.0Y-129.24
T3
X114.0Y-126.57
X114.0Y-131.07
X120.5Y-126.57
X120.5Y-131.07
X134.184Y-113.29
X136.724Y-113.29
X139.264Y-113.29
M30
