%TF.GenerationSoftware,KiCad,Pcbnew,9.0.2*%
%TF.CreationDate,2025-07-08T09:36:59-03:00*%
%TF.ProjectId,RadProt_IOT,52616450-726f-4745-9f49-4f542e6b6963,rev?*%
%TF.SameCoordinates,Original*%
%TF.FileFunction,Drillmap*%
%TF.FilePolarity,Positive*%
%FSLAX45Y45*%
G04 Gerber Fmt 4.5, Leading zero omitted, Abs format (unit mm)*
G04 Created by KiCad (PCBNEW 9.0.2) date 2025-07-08 09:36:59*
%MOMM*%
%LPD*%
G01*
G04 APERTURE LIST*
%ADD10C,0.200000*%
%ADD11C,0.050000*%
%ADD12C,0.100000*%
%ADD13C,0.110000*%
G04 APERTURE END LIST*
D10*
X11690000Y-11820000D02*
G75*
G02*
X11290000Y-11820000I-200000J0D01*
G01*
X11290000Y-11820000D02*
G75*
G02*
X11690000Y-11820000I200000J0D01*
G01*
D11*
X15000000Y-8000000D02*
X10500000Y-8000000D01*
D10*
X17838000Y-11419000D02*
G75*
G02*
X17438000Y-11419000I-200000J0D01*
G01*
X17438000Y-11419000D02*
G75*
G02*
X17838000Y-11419000I200000J0D01*
G01*
D11*
X18100000Y-10969000D02*
X14997471Y-10969000D01*
X10500000Y-13500000D02*
X18100000Y-13500000D01*
X14997471Y-10969000D02*
X15000000Y-8000000D01*
X10500000Y-8000000D02*
X10500000Y-13500000D01*
X18100000Y-10969000D02*
X18100000Y-13500000D01*
D10*
D12*
X15154000Y-11851500D02*
X15219000Y-11916500D01*
X15219000Y-11851500D02*
X15154000Y-11916500D01*
X15154500Y-13141500D02*
X15219500Y-13206500D01*
X15219500Y-13141500D02*
X15154500Y-13206500D01*
X15550500Y-12127500D02*
X15615500Y-12192500D01*
X15615500Y-12127500D02*
X15550500Y-12192500D01*
X15559500Y-13140500D02*
X15624500Y-13205500D01*
X15624500Y-13140500D02*
X15559500Y-13205500D01*
X15955500Y-11649500D02*
X16020500Y-11714500D01*
X16020500Y-11649500D02*
X15955500Y-11714500D01*
X15955500Y-12417500D02*
X16020500Y-12482500D01*
X16020500Y-12417500D02*
X15955500Y-12482500D01*
X16351500Y-11238500D02*
X16416500Y-11303500D01*
X16416500Y-11238500D02*
X16351500Y-11303500D01*
X16355500Y-12917500D02*
X16420500Y-12982500D01*
X16420500Y-12917500D02*
X16355500Y-12982500D01*
X10846500Y-12153000D02*
G75*
G02*
X10776500Y-12153000I-35000J0D01*
G01*
X10776500Y-12153000D02*
G75*
G02*
X10846500Y-12153000I35000J0D01*
G01*
X10846500Y-12661000D02*
G75*
G02*
X10776500Y-12661000I-35000J0D01*
G01*
X10776500Y-12661000D02*
G75*
G02*
X10846500Y-12661000I35000J0D01*
G01*
X10811500Y-11265000D02*
X10811500Y-11355000D01*
X10766500Y-11310000D02*
X10856500Y-11310000D01*
X10811500Y-11519000D02*
X10811500Y-11609000D01*
X10766500Y-11564000D02*
X10856500Y-11564000D01*
X10785356Y-9276356D02*
X10785356Y-9205644D01*
X10714644Y-9205644D01*
X10714644Y-9276356D01*
X10785356Y-9276356D01*
X10785356Y-9735356D02*
X10785356Y-9664644D01*
X10714644Y-9664644D01*
X10714644Y-9735356D01*
X10785356Y-9735356D01*
X11235356Y-8235356D02*
X11235356Y-8164644D01*
X11164644Y-8164644D01*
X11164644Y-8235356D01*
X11235356Y-8235356D01*
X11235356Y-8489356D02*
X11235356Y-8418644D01*
X11164644Y-8418644D01*
X11164644Y-8489356D01*
X11235356Y-8489356D01*
X11235356Y-8743356D02*
X11235356Y-8672644D01*
X11164644Y-8672644D01*
X11164644Y-8743356D01*
X11235356Y-8743356D01*
X11235356Y-8997356D02*
X11235356Y-8926644D01*
X11164644Y-8926644D01*
X11164644Y-8997356D01*
X11235356Y-8997356D01*
X11235356Y-10035356D02*
X11235356Y-9964644D01*
X11164644Y-9964644D01*
X11164644Y-10035356D01*
X11235356Y-10035356D01*
X11235356Y-10289356D02*
X11235356Y-10218644D01*
X11164644Y-10218644D01*
X11164644Y-10289356D01*
X11235356Y-10289356D01*
X11235356Y-10543356D02*
X11235356Y-10472644D01*
X11164644Y-10472644D01*
X11164644Y-10543356D01*
X11235356Y-10543356D01*
X11235356Y-10797356D02*
X11235356Y-10726644D01*
X11164644Y-10726644D01*
X11164644Y-10797356D01*
X11235356Y-10797356D01*
X11835356Y-9135356D02*
X11835356Y-9064644D01*
X11764644Y-9064644D01*
X11764644Y-9135356D01*
X11835356Y-9135356D01*
X11835356Y-9389356D02*
X11835356Y-9318644D01*
X11764644Y-9318644D01*
X11764644Y-9389356D01*
X11835356Y-9389356D01*
X11835356Y-9643356D02*
X11835356Y-9572644D01*
X11764644Y-9572644D01*
X11764644Y-9643356D01*
X11835356Y-9643356D01*
X11835356Y-9897356D02*
X11835356Y-9826644D01*
X11764644Y-9826644D01*
X11764644Y-9897356D01*
X11835356Y-9897356D01*
X12506356Y-8381356D02*
X12506356Y-8310644D01*
X12435644Y-8310644D01*
X12435644Y-8381356D01*
X12506356Y-8381356D01*
X12506356Y-8635356D02*
X12506356Y-8564644D01*
X12435644Y-8564644D01*
X12435644Y-8635356D01*
X12506356Y-8635356D01*
X12506356Y-8889356D02*
X12506356Y-8818644D01*
X12435644Y-8818644D01*
X12435644Y-8889356D01*
X12506356Y-8889356D01*
X12506356Y-9143356D02*
X12506356Y-9072644D01*
X12435644Y-9072644D01*
X12435644Y-9143356D01*
X12506356Y-9143356D01*
X12506356Y-9397356D02*
X12506356Y-9326644D01*
X12435644Y-9326644D01*
X12435644Y-9397356D01*
X12506356Y-9397356D01*
X12506356Y-9651356D02*
X12506356Y-9580644D01*
X12435644Y-9580644D01*
X12435644Y-9651356D01*
X12506356Y-9651356D01*
X12506356Y-9905356D02*
X12506356Y-9834644D01*
X12435644Y-9834644D01*
X12435644Y-9905356D01*
X12506356Y-9905356D01*
X12506356Y-10159356D02*
X12506356Y-10088644D01*
X12435644Y-10088644D01*
X12435644Y-10159356D01*
X12506356Y-10159356D01*
X12506356Y-10413356D02*
X12506356Y-10342644D01*
X12435644Y-10342644D01*
X12435644Y-10413356D01*
X12506356Y-10413356D01*
X12506356Y-10667356D02*
X12506356Y-10596644D01*
X12435644Y-10596644D01*
X12435644Y-10667356D01*
X12506356Y-10667356D01*
X12506356Y-10921356D02*
X12506356Y-10850644D01*
X12435644Y-10850644D01*
X12435644Y-10921356D01*
X12506356Y-10921356D01*
X12506356Y-11175356D02*
X12506356Y-11104644D01*
X12435644Y-11104644D01*
X12435644Y-11175356D01*
X12506356Y-11175356D01*
X12506356Y-11429356D02*
X12506356Y-11358644D01*
X12435644Y-11358644D01*
X12435644Y-11429356D01*
X12506356Y-11429356D01*
X12506356Y-11683356D02*
X12506356Y-11612644D01*
X12435644Y-11612644D01*
X12435644Y-11683356D01*
X12506356Y-11683356D01*
X12506356Y-11937356D02*
X12506356Y-11866644D01*
X12435644Y-11866644D01*
X12435644Y-11937356D01*
X12506356Y-11937356D01*
X12506356Y-12191356D02*
X12506356Y-12120644D01*
X12435644Y-12120644D01*
X12435644Y-12191356D01*
X12506356Y-12191356D01*
X12506356Y-12445356D02*
X12506356Y-12374644D01*
X12435644Y-12374644D01*
X12435644Y-12445356D01*
X12506356Y-12445356D01*
X12506356Y-12699356D02*
X12506356Y-12628644D01*
X12435644Y-12628644D01*
X12435644Y-12699356D01*
X12506356Y-12699356D01*
X12506356Y-12953356D02*
X12506356Y-12882644D01*
X12435644Y-12882644D01*
X12435644Y-12953356D01*
X12506356Y-12953356D01*
X12506356Y-13207356D02*
X12506356Y-13136644D01*
X12435644Y-13136644D01*
X12435644Y-13207356D01*
X12506356Y-13207356D01*
X13453766Y-11364356D02*
X13453766Y-11293644D01*
X13383054Y-11293644D01*
X13383054Y-11364356D01*
X13453766Y-11364356D01*
X13707766Y-11364356D02*
X13707766Y-11293644D01*
X13637054Y-11293644D01*
X13637054Y-11364356D01*
X13707766Y-11364356D01*
X13961766Y-11364356D02*
X13961766Y-11293644D01*
X13891054Y-11293644D01*
X13891054Y-11364356D01*
X13961766Y-11364356D01*
X14284356Y-8381356D02*
X14284356Y-8310644D01*
X14213644Y-8310644D01*
X14213644Y-8381356D01*
X14284356Y-8381356D01*
X14284356Y-8635356D02*
X14284356Y-8564644D01*
X14213644Y-8564644D01*
X14213644Y-8635356D01*
X14284356Y-8635356D01*
X14284356Y-8889356D02*
X14284356Y-8818644D01*
X14213644Y-8818644D01*
X14213644Y-8889356D01*
X14284356Y-8889356D01*
X14284356Y-9143356D02*
X14284356Y-9072644D01*
X14213644Y-9072644D01*
X14213644Y-9143356D01*
X14284356Y-9143356D01*
X14284356Y-9397356D02*
X14284356Y-9326644D01*
X14213644Y-9326644D01*
X14213644Y-9397356D01*
X14284356Y-9397356D01*
X14284356Y-9651356D02*
X14284356Y-9580644D01*
X14213644Y-9580644D01*
X14213644Y-9651356D01*
X14284356Y-9651356D01*
X14284356Y-9905356D02*
X14284356Y-9834644D01*
X14213644Y-9834644D01*
X14213644Y-9905356D01*
X14284356Y-9905356D01*
X14284356Y-10159356D02*
X14284356Y-10088644D01*
X14213644Y-10088644D01*
X14213644Y-10159356D01*
X14284356Y-10159356D01*
X14284356Y-10413356D02*
X14284356Y-10342644D01*
X14213644Y-10342644D01*
X14213644Y-10413356D01*
X14284356Y-10413356D01*
X14284356Y-10667356D02*
X14284356Y-10596644D01*
X14213644Y-10596644D01*
X14213644Y-10667356D01*
X14284356Y-10667356D01*
X14284356Y-10921356D02*
X14284356Y-10850644D01*
X14213644Y-10850644D01*
X14213644Y-10921356D01*
X14284356Y-10921356D01*
X14284356Y-11175356D02*
X14284356Y-11104644D01*
X14213644Y-11104644D01*
X14213644Y-11175356D01*
X14284356Y-11175356D01*
X14284356Y-11429356D02*
X14284356Y-11358644D01*
X14213644Y-11358644D01*
X14213644Y-11429356D01*
X14284356Y-11429356D01*
X14284356Y-11683356D02*
X14284356Y-11612644D01*
X14213644Y-11612644D01*
X14213644Y-11683356D01*
X14284356Y-11683356D01*
X14284356Y-11937356D02*
X14284356Y-11866644D01*
X14213644Y-11866644D01*
X14213644Y-11937356D01*
X14284356Y-11937356D01*
X14284356Y-12191356D02*
X14284356Y-12120644D01*
X14213644Y-12120644D01*
X14213644Y-12191356D01*
X14284356Y-12191356D01*
X14284356Y-12445356D02*
X14284356Y-12374644D01*
X14213644Y-12374644D01*
X14213644Y-12445356D01*
X14284356Y-12445356D01*
X14284356Y-12699356D02*
X14284356Y-12628644D01*
X14213644Y-12628644D01*
X14213644Y-12699356D01*
X14284356Y-12699356D01*
X14284356Y-12953356D02*
X14284356Y-12882644D01*
X14213644Y-12882644D01*
X14213644Y-12953356D01*
X14284356Y-12953356D01*
X14284356Y-13207356D02*
X14284356Y-13136644D01*
X14213644Y-13136644D01*
X14213644Y-13207356D01*
X14284356Y-13207356D01*
X16719356Y-12731356D02*
X16719356Y-12660644D01*
X16648644Y-12660644D01*
X16648644Y-12731356D01*
X16719356Y-12731356D01*
X16719356Y-12985356D02*
X16719356Y-12914644D01*
X16648644Y-12914644D01*
X16648644Y-12985356D01*
X16719356Y-12985356D01*
X16973356Y-12731356D02*
X16973356Y-12660644D01*
X16902644Y-12660644D01*
X16902644Y-12731356D01*
X16973356Y-12731356D01*
X16973356Y-12985356D02*
X16973356Y-12914644D01*
X16902644Y-12914644D01*
X16902644Y-12985356D01*
X16973356Y-12985356D01*
X17227356Y-12731356D02*
X17227356Y-12660644D01*
X17156644Y-12660644D01*
X17156644Y-12731356D01*
X17227356Y-12731356D01*
X17227356Y-12985356D02*
X17227356Y-12914644D01*
X17156644Y-12914644D01*
X17156644Y-12985356D01*
X17227356Y-12985356D01*
X17481356Y-12731356D02*
X17481356Y-12660644D01*
X17410644Y-12660644D01*
X17410644Y-12731356D01*
X17481356Y-12731356D01*
X17481356Y-12985356D02*
X17481356Y-12914644D01*
X17410644Y-12914644D01*
X17410644Y-12985356D01*
X17481356Y-12985356D01*
X17735356Y-12731356D02*
X17735356Y-12660644D01*
X17664644Y-12660644D01*
X17664644Y-12731356D01*
X17735356Y-12731356D01*
X17735356Y-12985356D02*
X17735356Y-12914644D01*
X17664644Y-12914644D01*
X17664644Y-12985356D01*
X17735356Y-12985356D01*
D13*
X11186500Y-12518000D02*
X11241500Y-12463000D01*
X11186500Y-12408000D01*
X11131500Y-12463000D01*
X11186500Y-12518000D01*
X11186500Y-12968000D02*
X11241500Y-12913000D01*
X11186500Y-12858000D01*
X11131500Y-12913000D01*
X11186500Y-12968000D01*
X11836500Y-12518000D02*
X11891500Y-12463000D01*
X11836500Y-12408000D01*
X11781500Y-12463000D01*
X11836500Y-12518000D01*
X11836500Y-12968000D02*
X11891500Y-12913000D01*
X11836500Y-12858000D01*
X11781500Y-12913000D01*
X11836500Y-12968000D01*
D10*
X10758277Y-13813984D02*
X10758277Y-13613984D01*
X10758277Y-13613984D02*
X10805896Y-13613984D01*
X10805896Y-13613984D02*
X10834467Y-13623508D01*
X10834467Y-13623508D02*
X10853515Y-13642555D01*
X10853515Y-13642555D02*
X10863039Y-13661603D01*
X10863039Y-13661603D02*
X10872563Y-13699698D01*
X10872563Y-13699698D02*
X10872563Y-13728269D01*
X10872563Y-13728269D02*
X10863039Y-13766365D01*
X10863039Y-13766365D02*
X10853515Y-13785412D01*
X10853515Y-13785412D02*
X10834467Y-13804460D01*
X10834467Y-13804460D02*
X10805896Y-13813984D01*
X10805896Y-13813984D02*
X10758277Y-13813984D01*
X10958277Y-13813984D02*
X10958277Y-13680650D01*
X10958277Y-13718746D02*
X10967801Y-13699698D01*
X10967801Y-13699698D02*
X10977324Y-13690174D01*
X10977324Y-13690174D02*
X10996372Y-13680650D01*
X10996372Y-13680650D02*
X11015420Y-13680650D01*
X11082086Y-13813984D02*
X11082086Y-13680650D01*
X11082086Y-13613984D02*
X11072563Y-13623508D01*
X11072563Y-13623508D02*
X11082086Y-13633031D01*
X11082086Y-13633031D02*
X11091610Y-13623508D01*
X11091610Y-13623508D02*
X11082086Y-13613984D01*
X11082086Y-13613984D02*
X11082086Y-13633031D01*
X11205896Y-13813984D02*
X11186848Y-13804460D01*
X11186848Y-13804460D02*
X11177324Y-13785412D01*
X11177324Y-13785412D02*
X11177324Y-13613984D01*
X11310658Y-13813984D02*
X11291610Y-13804460D01*
X11291610Y-13804460D02*
X11282086Y-13785412D01*
X11282086Y-13785412D02*
X11282086Y-13613984D01*
X11539229Y-13813984D02*
X11539229Y-13613984D01*
X11539229Y-13613984D02*
X11605896Y-13756841D01*
X11605896Y-13756841D02*
X11672562Y-13613984D01*
X11672562Y-13613984D02*
X11672562Y-13813984D01*
X11853515Y-13813984D02*
X11853515Y-13709222D01*
X11853515Y-13709222D02*
X11843991Y-13690174D01*
X11843991Y-13690174D02*
X11824943Y-13680650D01*
X11824943Y-13680650D02*
X11786848Y-13680650D01*
X11786848Y-13680650D02*
X11767801Y-13690174D01*
X11853515Y-13804460D02*
X11834467Y-13813984D01*
X11834467Y-13813984D02*
X11786848Y-13813984D01*
X11786848Y-13813984D02*
X11767801Y-13804460D01*
X11767801Y-13804460D02*
X11758277Y-13785412D01*
X11758277Y-13785412D02*
X11758277Y-13766365D01*
X11758277Y-13766365D02*
X11767801Y-13747317D01*
X11767801Y-13747317D02*
X11786848Y-13737793D01*
X11786848Y-13737793D02*
X11834467Y-13737793D01*
X11834467Y-13737793D02*
X11853515Y-13728269D01*
X11948753Y-13680650D02*
X11948753Y-13880650D01*
X11948753Y-13690174D02*
X11967801Y-13680650D01*
X11967801Y-13680650D02*
X12005896Y-13680650D01*
X12005896Y-13680650D02*
X12024943Y-13690174D01*
X12024943Y-13690174D02*
X12034467Y-13699698D01*
X12034467Y-13699698D02*
X12043991Y-13718746D01*
X12043991Y-13718746D02*
X12043991Y-13775888D01*
X12043991Y-13775888D02*
X12034467Y-13794936D01*
X12034467Y-13794936D02*
X12024943Y-13804460D01*
X12024943Y-13804460D02*
X12005896Y-13813984D01*
X12005896Y-13813984D02*
X11967801Y-13813984D01*
X11967801Y-13813984D02*
X11948753Y-13804460D01*
X12129705Y-13794936D02*
X12139229Y-13804460D01*
X12139229Y-13804460D02*
X12129705Y-13813984D01*
X12129705Y-13813984D02*
X12120182Y-13804460D01*
X12120182Y-13804460D02*
X12129705Y-13794936D01*
X12129705Y-13794936D02*
X12129705Y-13813984D01*
X12129705Y-13690174D02*
X12139229Y-13699698D01*
X12139229Y-13699698D02*
X12129705Y-13709222D01*
X12129705Y-13709222D02*
X12120182Y-13699698D01*
X12120182Y-13699698D02*
X12129705Y-13690174D01*
X12129705Y-13690174D02*
X12129705Y-13709222D01*
D12*
X10432500Y-14110000D02*
X10497500Y-14175000D01*
X10497500Y-14110000D02*
X10432500Y-14175000D01*
D10*
X10796372Y-14033984D02*
X10815420Y-14033984D01*
X10815420Y-14033984D02*
X10834467Y-14043508D01*
X10834467Y-14043508D02*
X10843991Y-14053031D01*
X10843991Y-14053031D02*
X10853515Y-14072079D01*
X10853515Y-14072079D02*
X10863039Y-14110174D01*
X10863039Y-14110174D02*
X10863039Y-14157793D01*
X10863039Y-14157793D02*
X10853515Y-14195888D01*
X10853515Y-14195888D02*
X10843991Y-14214936D01*
X10843991Y-14214936D02*
X10834467Y-14224460D01*
X10834467Y-14224460D02*
X10815420Y-14233984D01*
X10815420Y-14233984D02*
X10796372Y-14233984D01*
X10796372Y-14233984D02*
X10777324Y-14224460D01*
X10777324Y-14224460D02*
X10767801Y-14214936D01*
X10767801Y-14214936D02*
X10758277Y-14195888D01*
X10758277Y-14195888D02*
X10748753Y-14157793D01*
X10748753Y-14157793D02*
X10748753Y-14110174D01*
X10748753Y-14110174D02*
X10758277Y-14072079D01*
X10758277Y-14072079D02*
X10767801Y-14053031D01*
X10767801Y-14053031D02*
X10777324Y-14043508D01*
X10777324Y-14043508D02*
X10796372Y-14033984D01*
X10948753Y-14214936D02*
X10958277Y-14224460D01*
X10958277Y-14224460D02*
X10948753Y-14233984D01*
X10948753Y-14233984D02*
X10939229Y-14224460D01*
X10939229Y-14224460D02*
X10948753Y-14214936D01*
X10948753Y-14214936D02*
X10948753Y-14233984D01*
X11129705Y-14033984D02*
X11091610Y-14033984D01*
X11091610Y-14033984D02*
X11072563Y-14043508D01*
X11072563Y-14043508D02*
X11063039Y-14053031D01*
X11063039Y-14053031D02*
X11043991Y-14081603D01*
X11043991Y-14081603D02*
X11034467Y-14119698D01*
X11034467Y-14119698D02*
X11034467Y-14195888D01*
X11034467Y-14195888D02*
X11043991Y-14214936D01*
X11043991Y-14214936D02*
X11053515Y-14224460D01*
X11053515Y-14224460D02*
X11072563Y-14233984D01*
X11072563Y-14233984D02*
X11110658Y-14233984D01*
X11110658Y-14233984D02*
X11129705Y-14224460D01*
X11129705Y-14224460D02*
X11139229Y-14214936D01*
X11139229Y-14214936D02*
X11148753Y-14195888D01*
X11148753Y-14195888D02*
X11148753Y-14148269D01*
X11148753Y-14148269D02*
X11139229Y-14129222D01*
X11139229Y-14129222D02*
X11129705Y-14119698D01*
X11129705Y-14119698D02*
X11110658Y-14110174D01*
X11110658Y-14110174D02*
X11072563Y-14110174D01*
X11072563Y-14110174D02*
X11053515Y-14119698D01*
X11053515Y-14119698D02*
X11043991Y-14129222D01*
X11043991Y-14129222D02*
X11034467Y-14148269D01*
X11329705Y-14033984D02*
X11234467Y-14033984D01*
X11234467Y-14033984D02*
X11224943Y-14129222D01*
X11224943Y-14129222D02*
X11234467Y-14119698D01*
X11234467Y-14119698D02*
X11253515Y-14110174D01*
X11253515Y-14110174D02*
X11301134Y-14110174D01*
X11301134Y-14110174D02*
X11320182Y-14119698D01*
X11320182Y-14119698D02*
X11329705Y-14129222D01*
X11329705Y-14129222D02*
X11339229Y-14148269D01*
X11339229Y-14148269D02*
X11339229Y-14195888D01*
X11339229Y-14195888D02*
X11329705Y-14214936D01*
X11329705Y-14214936D02*
X11320182Y-14224460D01*
X11320182Y-14224460D02*
X11301134Y-14233984D01*
X11301134Y-14233984D02*
X11253515Y-14233984D01*
X11253515Y-14233984D02*
X11234467Y-14224460D01*
X11234467Y-14224460D02*
X11224943Y-14214936D01*
X11463039Y-14033984D02*
X11482086Y-14033984D01*
X11482086Y-14033984D02*
X11501134Y-14043508D01*
X11501134Y-14043508D02*
X11510658Y-14053031D01*
X11510658Y-14053031D02*
X11520182Y-14072079D01*
X11520182Y-14072079D02*
X11529705Y-14110174D01*
X11529705Y-14110174D02*
X11529705Y-14157793D01*
X11529705Y-14157793D02*
X11520182Y-14195888D01*
X11520182Y-14195888D02*
X11510658Y-14214936D01*
X11510658Y-14214936D02*
X11501134Y-14224460D01*
X11501134Y-14224460D02*
X11482086Y-14233984D01*
X11482086Y-14233984D02*
X11463039Y-14233984D01*
X11463039Y-14233984D02*
X11443991Y-14224460D01*
X11443991Y-14224460D02*
X11434467Y-14214936D01*
X11434467Y-14214936D02*
X11424943Y-14195888D01*
X11424943Y-14195888D02*
X11415420Y-14157793D01*
X11415420Y-14157793D02*
X11415420Y-14110174D01*
X11415420Y-14110174D02*
X11424943Y-14072079D01*
X11424943Y-14072079D02*
X11434467Y-14053031D01*
X11434467Y-14053031D02*
X11443991Y-14043508D01*
X11443991Y-14043508D02*
X11463039Y-14033984D01*
X11615420Y-14233984D02*
X11615420Y-14100650D01*
X11615420Y-14119698D02*
X11624943Y-14110174D01*
X11624943Y-14110174D02*
X11643991Y-14100650D01*
X11643991Y-14100650D02*
X11672563Y-14100650D01*
X11672563Y-14100650D02*
X11691610Y-14110174D01*
X11691610Y-14110174D02*
X11701134Y-14129222D01*
X11701134Y-14129222D02*
X11701134Y-14233984D01*
X11701134Y-14129222D02*
X11710658Y-14110174D01*
X11710658Y-14110174D02*
X11729705Y-14100650D01*
X11729705Y-14100650D02*
X11758277Y-14100650D01*
X11758277Y-14100650D02*
X11777324Y-14110174D01*
X11777324Y-14110174D02*
X11786848Y-14129222D01*
X11786848Y-14129222D02*
X11786848Y-14233984D01*
X11882086Y-14233984D02*
X11882086Y-14100650D01*
X11882086Y-14119698D02*
X11891610Y-14110174D01*
X11891610Y-14110174D02*
X11910658Y-14100650D01*
X11910658Y-14100650D02*
X11939229Y-14100650D01*
X11939229Y-14100650D02*
X11958277Y-14110174D01*
X11958277Y-14110174D02*
X11967801Y-14129222D01*
X11967801Y-14129222D02*
X11967801Y-14233984D01*
X11967801Y-14129222D02*
X11977324Y-14110174D01*
X11977324Y-14110174D02*
X11996372Y-14100650D01*
X11996372Y-14100650D02*
X12024943Y-14100650D01*
X12024943Y-14100650D02*
X12043991Y-14110174D01*
X12043991Y-14110174D02*
X12053515Y-14129222D01*
X12053515Y-14129222D02*
X12053515Y-14233984D01*
X12443991Y-14024460D02*
X12272563Y-14281603D01*
X12701134Y-14033984D02*
X12720182Y-14033984D01*
X12720182Y-14033984D02*
X12739229Y-14043508D01*
X12739229Y-14043508D02*
X12748753Y-14053031D01*
X12748753Y-14053031D02*
X12758277Y-14072079D01*
X12758277Y-14072079D02*
X12767801Y-14110174D01*
X12767801Y-14110174D02*
X12767801Y-14157793D01*
X12767801Y-14157793D02*
X12758277Y-14195888D01*
X12758277Y-14195888D02*
X12748753Y-14214936D01*
X12748753Y-14214936D02*
X12739229Y-14224460D01*
X12739229Y-14224460D02*
X12720182Y-14233984D01*
X12720182Y-14233984D02*
X12701134Y-14233984D01*
X12701134Y-14233984D02*
X12682086Y-14224460D01*
X12682086Y-14224460D02*
X12672563Y-14214936D01*
X12672563Y-14214936D02*
X12663039Y-14195888D01*
X12663039Y-14195888D02*
X12653515Y-14157793D01*
X12653515Y-14157793D02*
X12653515Y-14110174D01*
X12653515Y-14110174D02*
X12663039Y-14072079D01*
X12663039Y-14072079D02*
X12672563Y-14053031D01*
X12672563Y-14053031D02*
X12682086Y-14043508D01*
X12682086Y-14043508D02*
X12701134Y-14033984D01*
X12853515Y-14214936D02*
X12863039Y-14224460D01*
X12863039Y-14224460D02*
X12853515Y-14233984D01*
X12853515Y-14233984D02*
X12843991Y-14224460D01*
X12843991Y-14224460D02*
X12853515Y-14214936D01*
X12853515Y-14214936D02*
X12853515Y-14233984D01*
X12986848Y-14033984D02*
X13005896Y-14033984D01*
X13005896Y-14033984D02*
X13024944Y-14043508D01*
X13024944Y-14043508D02*
X13034467Y-14053031D01*
X13034467Y-14053031D02*
X13043991Y-14072079D01*
X13043991Y-14072079D02*
X13053515Y-14110174D01*
X13053515Y-14110174D02*
X13053515Y-14157793D01*
X13053515Y-14157793D02*
X13043991Y-14195888D01*
X13043991Y-14195888D02*
X13034467Y-14214936D01*
X13034467Y-14214936D02*
X13024944Y-14224460D01*
X13024944Y-14224460D02*
X13005896Y-14233984D01*
X13005896Y-14233984D02*
X12986848Y-14233984D01*
X12986848Y-14233984D02*
X12967801Y-14224460D01*
X12967801Y-14224460D02*
X12958277Y-14214936D01*
X12958277Y-14214936D02*
X12948753Y-14195888D01*
X12948753Y-14195888D02*
X12939229Y-14157793D01*
X12939229Y-14157793D02*
X12939229Y-14110174D01*
X12939229Y-14110174D02*
X12948753Y-14072079D01*
X12948753Y-14072079D02*
X12958277Y-14053031D01*
X12958277Y-14053031D02*
X12967801Y-14043508D01*
X12967801Y-14043508D02*
X12986848Y-14033984D01*
X13129706Y-14053031D02*
X13139229Y-14043508D01*
X13139229Y-14043508D02*
X13158277Y-14033984D01*
X13158277Y-14033984D02*
X13205896Y-14033984D01*
X13205896Y-14033984D02*
X13224944Y-14043508D01*
X13224944Y-14043508D02*
X13234467Y-14053031D01*
X13234467Y-14053031D02*
X13243991Y-14072079D01*
X13243991Y-14072079D02*
X13243991Y-14091127D01*
X13243991Y-14091127D02*
X13234467Y-14119698D01*
X13234467Y-14119698D02*
X13120182Y-14233984D01*
X13120182Y-14233984D02*
X13243991Y-14233984D01*
X13424944Y-14033984D02*
X13329706Y-14033984D01*
X13329706Y-14033984D02*
X13320182Y-14129222D01*
X13320182Y-14129222D02*
X13329706Y-14119698D01*
X13329706Y-14119698D02*
X13348753Y-14110174D01*
X13348753Y-14110174D02*
X13396372Y-14110174D01*
X13396372Y-14110174D02*
X13415420Y-14119698D01*
X13415420Y-14119698D02*
X13424944Y-14129222D01*
X13424944Y-14129222D02*
X13434467Y-14148269D01*
X13434467Y-14148269D02*
X13434467Y-14195888D01*
X13434467Y-14195888D02*
X13424944Y-14214936D01*
X13424944Y-14214936D02*
X13415420Y-14224460D01*
X13415420Y-14224460D02*
X13396372Y-14233984D01*
X13396372Y-14233984D02*
X13348753Y-14233984D01*
X13348753Y-14233984D02*
X13329706Y-14224460D01*
X13329706Y-14224460D02*
X13320182Y-14214936D01*
X13605896Y-14033984D02*
X13567801Y-14033984D01*
X13567801Y-14033984D02*
X13548753Y-14043508D01*
X13548753Y-14043508D02*
X13539229Y-14053031D01*
X13539229Y-14053031D02*
X13520182Y-14081603D01*
X13520182Y-14081603D02*
X13510658Y-14119698D01*
X13510658Y-14119698D02*
X13510658Y-14195888D01*
X13510658Y-14195888D02*
X13520182Y-14214936D01*
X13520182Y-14214936D02*
X13529706Y-14224460D01*
X13529706Y-14224460D02*
X13548753Y-14233984D01*
X13548753Y-14233984D02*
X13586848Y-14233984D01*
X13586848Y-14233984D02*
X13605896Y-14224460D01*
X13605896Y-14224460D02*
X13615420Y-14214936D01*
X13615420Y-14214936D02*
X13624944Y-14195888D01*
X13624944Y-14195888D02*
X13624944Y-14148269D01*
X13624944Y-14148269D02*
X13615420Y-14129222D01*
X13615420Y-14129222D02*
X13605896Y-14119698D01*
X13605896Y-14119698D02*
X13586848Y-14110174D01*
X13586848Y-14110174D02*
X13548753Y-14110174D01*
X13548753Y-14110174D02*
X13529706Y-14119698D01*
X13529706Y-14119698D02*
X13520182Y-14129222D01*
X13520182Y-14129222D02*
X13510658Y-14148269D01*
X13701134Y-14033984D02*
X13701134Y-14072079D01*
X13777325Y-14033984D02*
X13777325Y-14072079D01*
X14072563Y-14310174D02*
X14063039Y-14300650D01*
X14063039Y-14300650D02*
X14043991Y-14272079D01*
X14043991Y-14272079D02*
X14034468Y-14253031D01*
X14034468Y-14253031D02*
X14024944Y-14224460D01*
X14024944Y-14224460D02*
X14015420Y-14176841D01*
X14015420Y-14176841D02*
X14015420Y-14138746D01*
X14015420Y-14138746D02*
X14024944Y-14091127D01*
X14024944Y-14091127D02*
X14034468Y-14062555D01*
X14034468Y-14062555D02*
X14043991Y-14043508D01*
X14043991Y-14043508D02*
X14063039Y-14014936D01*
X14063039Y-14014936D02*
X14072563Y-14005412D01*
X14177325Y-14119698D02*
X14158277Y-14110174D01*
X14158277Y-14110174D02*
X14148753Y-14100650D01*
X14148753Y-14100650D02*
X14139229Y-14081603D01*
X14139229Y-14081603D02*
X14139229Y-14072079D01*
X14139229Y-14072079D02*
X14148753Y-14053031D01*
X14148753Y-14053031D02*
X14158277Y-14043508D01*
X14158277Y-14043508D02*
X14177325Y-14033984D01*
X14177325Y-14033984D02*
X14215420Y-14033984D01*
X14215420Y-14033984D02*
X14234468Y-14043508D01*
X14234468Y-14043508D02*
X14243991Y-14053031D01*
X14243991Y-14053031D02*
X14253515Y-14072079D01*
X14253515Y-14072079D02*
X14253515Y-14081603D01*
X14253515Y-14081603D02*
X14243991Y-14100650D01*
X14243991Y-14100650D02*
X14234468Y-14110174D01*
X14234468Y-14110174D02*
X14215420Y-14119698D01*
X14215420Y-14119698D02*
X14177325Y-14119698D01*
X14177325Y-14119698D02*
X14158277Y-14129222D01*
X14158277Y-14129222D02*
X14148753Y-14138746D01*
X14148753Y-14138746D02*
X14139229Y-14157793D01*
X14139229Y-14157793D02*
X14139229Y-14195888D01*
X14139229Y-14195888D02*
X14148753Y-14214936D01*
X14148753Y-14214936D02*
X14158277Y-14224460D01*
X14158277Y-14224460D02*
X14177325Y-14233984D01*
X14177325Y-14233984D02*
X14215420Y-14233984D01*
X14215420Y-14233984D02*
X14234468Y-14224460D01*
X14234468Y-14224460D02*
X14243991Y-14214936D01*
X14243991Y-14214936D02*
X14253515Y-14195888D01*
X14253515Y-14195888D02*
X14253515Y-14157793D01*
X14253515Y-14157793D02*
X14243991Y-14138746D01*
X14243991Y-14138746D02*
X14234468Y-14129222D01*
X14234468Y-14129222D02*
X14215420Y-14119698D01*
X14491610Y-14233984D02*
X14491610Y-14033984D01*
X14577325Y-14233984D02*
X14577325Y-14129222D01*
X14577325Y-14129222D02*
X14567801Y-14110174D01*
X14567801Y-14110174D02*
X14548753Y-14100650D01*
X14548753Y-14100650D02*
X14520182Y-14100650D01*
X14520182Y-14100650D02*
X14501134Y-14110174D01*
X14501134Y-14110174D02*
X14491610Y-14119698D01*
X14701134Y-14233984D02*
X14682087Y-14224460D01*
X14682087Y-14224460D02*
X14672563Y-14214936D01*
X14672563Y-14214936D02*
X14663039Y-14195888D01*
X14663039Y-14195888D02*
X14663039Y-14138746D01*
X14663039Y-14138746D02*
X14672563Y-14119698D01*
X14672563Y-14119698D02*
X14682087Y-14110174D01*
X14682087Y-14110174D02*
X14701134Y-14100650D01*
X14701134Y-14100650D02*
X14729706Y-14100650D01*
X14729706Y-14100650D02*
X14748753Y-14110174D01*
X14748753Y-14110174D02*
X14758277Y-14119698D01*
X14758277Y-14119698D02*
X14767801Y-14138746D01*
X14767801Y-14138746D02*
X14767801Y-14195888D01*
X14767801Y-14195888D02*
X14758277Y-14214936D01*
X14758277Y-14214936D02*
X14748753Y-14224460D01*
X14748753Y-14224460D02*
X14729706Y-14233984D01*
X14729706Y-14233984D02*
X14701134Y-14233984D01*
X14882087Y-14233984D02*
X14863039Y-14224460D01*
X14863039Y-14224460D02*
X14853515Y-14205412D01*
X14853515Y-14205412D02*
X14853515Y-14033984D01*
X15034468Y-14224460D02*
X15015420Y-14233984D01*
X15015420Y-14233984D02*
X14977325Y-14233984D01*
X14977325Y-14233984D02*
X14958277Y-14224460D01*
X14958277Y-14224460D02*
X14948753Y-14205412D01*
X14948753Y-14205412D02*
X14948753Y-14129222D01*
X14948753Y-14129222D02*
X14958277Y-14110174D01*
X14958277Y-14110174D02*
X14977325Y-14100650D01*
X14977325Y-14100650D02*
X15015420Y-14100650D01*
X15015420Y-14100650D02*
X15034468Y-14110174D01*
X15034468Y-14110174D02*
X15043991Y-14129222D01*
X15043991Y-14129222D02*
X15043991Y-14148269D01*
X15043991Y-14148269D02*
X14948753Y-14167317D01*
X15120182Y-14224460D02*
X15139230Y-14233984D01*
X15139230Y-14233984D02*
X15177325Y-14233984D01*
X15177325Y-14233984D02*
X15196372Y-14224460D01*
X15196372Y-14224460D02*
X15205896Y-14205412D01*
X15205896Y-14205412D02*
X15205896Y-14195888D01*
X15205896Y-14195888D02*
X15196372Y-14176841D01*
X15196372Y-14176841D02*
X15177325Y-14167317D01*
X15177325Y-14167317D02*
X15148753Y-14167317D01*
X15148753Y-14167317D02*
X15129706Y-14157793D01*
X15129706Y-14157793D02*
X15120182Y-14138746D01*
X15120182Y-14138746D02*
X15120182Y-14129222D01*
X15120182Y-14129222D02*
X15129706Y-14110174D01*
X15129706Y-14110174D02*
X15148753Y-14100650D01*
X15148753Y-14100650D02*
X15177325Y-14100650D01*
X15177325Y-14100650D02*
X15196372Y-14110174D01*
X15272563Y-14310174D02*
X15282087Y-14300650D01*
X15282087Y-14300650D02*
X15301134Y-14272079D01*
X15301134Y-14272079D02*
X15310658Y-14253031D01*
X15310658Y-14253031D02*
X15320182Y-14224460D01*
X15320182Y-14224460D02*
X15329706Y-14176841D01*
X15329706Y-14176841D02*
X15329706Y-14138746D01*
X15329706Y-14138746D02*
X15320182Y-14091127D01*
X15320182Y-14091127D02*
X15310658Y-14062555D01*
X15310658Y-14062555D02*
X15301134Y-14043508D01*
X15301134Y-14043508D02*
X15282087Y-14014936D01*
X15282087Y-14014936D02*
X15272563Y-14005412D01*
D12*
X10497500Y-14406500D02*
G75*
G02*
X10427500Y-14406500I-35000J0D01*
G01*
X10427500Y-14406500D02*
G75*
G02*
X10497500Y-14406500I35000J0D01*
G01*
D10*
X10796372Y-14297984D02*
X10815420Y-14297984D01*
X10815420Y-14297984D02*
X10834467Y-14307508D01*
X10834467Y-14307508D02*
X10843991Y-14317031D01*
X10843991Y-14317031D02*
X10853515Y-14336079D01*
X10853515Y-14336079D02*
X10863039Y-14374174D01*
X10863039Y-14374174D02*
X10863039Y-14421793D01*
X10863039Y-14421793D02*
X10853515Y-14459888D01*
X10853515Y-14459888D02*
X10843991Y-14478936D01*
X10843991Y-14478936D02*
X10834467Y-14488460D01*
X10834467Y-14488460D02*
X10815420Y-14497984D01*
X10815420Y-14497984D02*
X10796372Y-14497984D01*
X10796372Y-14497984D02*
X10777324Y-14488460D01*
X10777324Y-14488460D02*
X10767801Y-14478936D01*
X10767801Y-14478936D02*
X10758277Y-14459888D01*
X10758277Y-14459888D02*
X10748753Y-14421793D01*
X10748753Y-14421793D02*
X10748753Y-14374174D01*
X10748753Y-14374174D02*
X10758277Y-14336079D01*
X10758277Y-14336079D02*
X10767801Y-14317031D01*
X10767801Y-14317031D02*
X10777324Y-14307508D01*
X10777324Y-14307508D02*
X10796372Y-14297984D01*
X10948753Y-14478936D02*
X10958277Y-14488460D01*
X10958277Y-14488460D02*
X10948753Y-14497984D01*
X10948753Y-14497984D02*
X10939229Y-14488460D01*
X10939229Y-14488460D02*
X10948753Y-14478936D01*
X10948753Y-14478936D02*
X10948753Y-14497984D01*
X11024944Y-14297984D02*
X11158277Y-14297984D01*
X11158277Y-14297984D02*
X11072563Y-14497984D01*
X11272562Y-14297984D02*
X11291610Y-14297984D01*
X11291610Y-14297984D02*
X11310658Y-14307508D01*
X11310658Y-14307508D02*
X11320182Y-14317031D01*
X11320182Y-14317031D02*
X11329705Y-14336079D01*
X11329705Y-14336079D02*
X11339229Y-14374174D01*
X11339229Y-14374174D02*
X11339229Y-14421793D01*
X11339229Y-14421793D02*
X11329705Y-14459888D01*
X11329705Y-14459888D02*
X11320182Y-14478936D01*
X11320182Y-14478936D02*
X11310658Y-14488460D01*
X11310658Y-14488460D02*
X11291610Y-14497984D01*
X11291610Y-14497984D02*
X11272562Y-14497984D01*
X11272562Y-14497984D02*
X11253515Y-14488460D01*
X11253515Y-14488460D02*
X11243991Y-14478936D01*
X11243991Y-14478936D02*
X11234467Y-14459888D01*
X11234467Y-14459888D02*
X11224943Y-14421793D01*
X11224943Y-14421793D02*
X11224943Y-14374174D01*
X11224943Y-14374174D02*
X11234467Y-14336079D01*
X11234467Y-14336079D02*
X11243991Y-14317031D01*
X11243991Y-14317031D02*
X11253515Y-14307508D01*
X11253515Y-14307508D02*
X11272562Y-14297984D01*
X11463039Y-14297984D02*
X11482086Y-14297984D01*
X11482086Y-14297984D02*
X11501134Y-14307508D01*
X11501134Y-14307508D02*
X11510658Y-14317031D01*
X11510658Y-14317031D02*
X11520182Y-14336079D01*
X11520182Y-14336079D02*
X11529705Y-14374174D01*
X11529705Y-14374174D02*
X11529705Y-14421793D01*
X11529705Y-14421793D02*
X11520182Y-14459888D01*
X11520182Y-14459888D02*
X11510658Y-14478936D01*
X11510658Y-14478936D02*
X11501134Y-14488460D01*
X11501134Y-14488460D02*
X11482086Y-14497984D01*
X11482086Y-14497984D02*
X11463039Y-14497984D01*
X11463039Y-14497984D02*
X11443991Y-14488460D01*
X11443991Y-14488460D02*
X11434467Y-14478936D01*
X11434467Y-14478936D02*
X11424943Y-14459888D01*
X11424943Y-14459888D02*
X11415420Y-14421793D01*
X11415420Y-14421793D02*
X11415420Y-14374174D01*
X11415420Y-14374174D02*
X11424943Y-14336079D01*
X11424943Y-14336079D02*
X11434467Y-14317031D01*
X11434467Y-14317031D02*
X11443991Y-14307508D01*
X11443991Y-14307508D02*
X11463039Y-14297984D01*
X11615420Y-14497984D02*
X11615420Y-14364650D01*
X11615420Y-14383698D02*
X11624943Y-14374174D01*
X11624943Y-14374174D02*
X11643991Y-14364650D01*
X11643991Y-14364650D02*
X11672563Y-14364650D01*
X11672563Y-14364650D02*
X11691610Y-14374174D01*
X11691610Y-14374174D02*
X11701134Y-14393222D01*
X11701134Y-14393222D02*
X11701134Y-14497984D01*
X11701134Y-14393222D02*
X11710658Y-14374174D01*
X11710658Y-14374174D02*
X11729705Y-14364650D01*
X11729705Y-14364650D02*
X11758277Y-14364650D01*
X11758277Y-14364650D02*
X11777324Y-14374174D01*
X11777324Y-14374174D02*
X11786848Y-14393222D01*
X11786848Y-14393222D02*
X11786848Y-14497984D01*
X11882086Y-14497984D02*
X11882086Y-14364650D01*
X11882086Y-14383698D02*
X11891610Y-14374174D01*
X11891610Y-14374174D02*
X11910658Y-14364650D01*
X11910658Y-14364650D02*
X11939229Y-14364650D01*
X11939229Y-14364650D02*
X11958277Y-14374174D01*
X11958277Y-14374174D02*
X11967801Y-14393222D01*
X11967801Y-14393222D02*
X11967801Y-14497984D01*
X11967801Y-14393222D02*
X11977324Y-14374174D01*
X11977324Y-14374174D02*
X11996372Y-14364650D01*
X11996372Y-14364650D02*
X12024943Y-14364650D01*
X12024943Y-14364650D02*
X12043991Y-14374174D01*
X12043991Y-14374174D02*
X12053515Y-14393222D01*
X12053515Y-14393222D02*
X12053515Y-14497984D01*
X12443991Y-14288460D02*
X12272563Y-14545603D01*
X12701134Y-14297984D02*
X12720182Y-14297984D01*
X12720182Y-14297984D02*
X12739229Y-14307508D01*
X12739229Y-14307508D02*
X12748753Y-14317031D01*
X12748753Y-14317031D02*
X12758277Y-14336079D01*
X12758277Y-14336079D02*
X12767801Y-14374174D01*
X12767801Y-14374174D02*
X12767801Y-14421793D01*
X12767801Y-14421793D02*
X12758277Y-14459888D01*
X12758277Y-14459888D02*
X12748753Y-14478936D01*
X12748753Y-14478936D02*
X12739229Y-14488460D01*
X12739229Y-14488460D02*
X12720182Y-14497984D01*
X12720182Y-14497984D02*
X12701134Y-14497984D01*
X12701134Y-14497984D02*
X12682086Y-14488460D01*
X12682086Y-14488460D02*
X12672563Y-14478936D01*
X12672563Y-14478936D02*
X12663039Y-14459888D01*
X12663039Y-14459888D02*
X12653515Y-14421793D01*
X12653515Y-14421793D02*
X12653515Y-14374174D01*
X12653515Y-14374174D02*
X12663039Y-14336079D01*
X12663039Y-14336079D02*
X12672563Y-14317031D01*
X12672563Y-14317031D02*
X12682086Y-14307508D01*
X12682086Y-14307508D02*
X12701134Y-14297984D01*
X12853515Y-14478936D02*
X12863039Y-14488460D01*
X12863039Y-14488460D02*
X12853515Y-14497984D01*
X12853515Y-14497984D02*
X12843991Y-14488460D01*
X12843991Y-14488460D02*
X12853515Y-14478936D01*
X12853515Y-14478936D02*
X12853515Y-14497984D01*
X12986848Y-14297984D02*
X13005896Y-14297984D01*
X13005896Y-14297984D02*
X13024944Y-14307508D01*
X13024944Y-14307508D02*
X13034467Y-14317031D01*
X13034467Y-14317031D02*
X13043991Y-14336079D01*
X13043991Y-14336079D02*
X13053515Y-14374174D01*
X13053515Y-14374174D02*
X13053515Y-14421793D01*
X13053515Y-14421793D02*
X13043991Y-14459888D01*
X13043991Y-14459888D02*
X13034467Y-14478936D01*
X13034467Y-14478936D02*
X13024944Y-14488460D01*
X13024944Y-14488460D02*
X13005896Y-14497984D01*
X13005896Y-14497984D02*
X12986848Y-14497984D01*
X12986848Y-14497984D02*
X12967801Y-14488460D01*
X12967801Y-14488460D02*
X12958277Y-14478936D01*
X12958277Y-14478936D02*
X12948753Y-14459888D01*
X12948753Y-14459888D02*
X12939229Y-14421793D01*
X12939229Y-14421793D02*
X12939229Y-14374174D01*
X12939229Y-14374174D02*
X12948753Y-14336079D01*
X12948753Y-14336079D02*
X12958277Y-14317031D01*
X12958277Y-14317031D02*
X12967801Y-14307508D01*
X12967801Y-14307508D02*
X12986848Y-14297984D01*
X13129706Y-14317031D02*
X13139229Y-14307508D01*
X13139229Y-14307508D02*
X13158277Y-14297984D01*
X13158277Y-14297984D02*
X13205896Y-14297984D01*
X13205896Y-14297984D02*
X13224944Y-14307508D01*
X13224944Y-14307508D02*
X13234467Y-14317031D01*
X13234467Y-14317031D02*
X13243991Y-14336079D01*
X13243991Y-14336079D02*
X13243991Y-14355127D01*
X13243991Y-14355127D02*
X13234467Y-14383698D01*
X13234467Y-14383698D02*
X13120182Y-14497984D01*
X13120182Y-14497984D02*
X13243991Y-14497984D01*
X13310658Y-14297984D02*
X13443991Y-14297984D01*
X13443991Y-14297984D02*
X13358277Y-14497984D01*
X13605896Y-14297984D02*
X13567801Y-14297984D01*
X13567801Y-14297984D02*
X13548753Y-14307508D01*
X13548753Y-14307508D02*
X13539229Y-14317031D01*
X13539229Y-14317031D02*
X13520182Y-14345603D01*
X13520182Y-14345603D02*
X13510658Y-14383698D01*
X13510658Y-14383698D02*
X13510658Y-14459888D01*
X13510658Y-14459888D02*
X13520182Y-14478936D01*
X13520182Y-14478936D02*
X13529706Y-14488460D01*
X13529706Y-14488460D02*
X13548753Y-14497984D01*
X13548753Y-14497984D02*
X13586848Y-14497984D01*
X13586848Y-14497984D02*
X13605896Y-14488460D01*
X13605896Y-14488460D02*
X13615420Y-14478936D01*
X13615420Y-14478936D02*
X13624944Y-14459888D01*
X13624944Y-14459888D02*
X13624944Y-14412269D01*
X13624944Y-14412269D02*
X13615420Y-14393222D01*
X13615420Y-14393222D02*
X13605896Y-14383698D01*
X13605896Y-14383698D02*
X13586848Y-14374174D01*
X13586848Y-14374174D02*
X13548753Y-14374174D01*
X13548753Y-14374174D02*
X13529706Y-14383698D01*
X13529706Y-14383698D02*
X13520182Y-14393222D01*
X13520182Y-14393222D02*
X13510658Y-14412269D01*
X13701134Y-14297984D02*
X13701134Y-14336079D01*
X13777325Y-14297984D02*
X13777325Y-14336079D01*
X14072563Y-14574174D02*
X14063039Y-14564650D01*
X14063039Y-14564650D02*
X14043991Y-14536079D01*
X14043991Y-14536079D02*
X14034468Y-14517031D01*
X14034468Y-14517031D02*
X14024944Y-14488460D01*
X14024944Y-14488460D02*
X14015420Y-14440841D01*
X14015420Y-14440841D02*
X14015420Y-14402746D01*
X14015420Y-14402746D02*
X14024944Y-14355127D01*
X14024944Y-14355127D02*
X14034468Y-14326555D01*
X14034468Y-14326555D02*
X14043991Y-14307508D01*
X14043991Y-14307508D02*
X14063039Y-14278936D01*
X14063039Y-14278936D02*
X14072563Y-14269412D01*
X14139229Y-14317031D02*
X14148753Y-14307508D01*
X14148753Y-14307508D02*
X14167801Y-14297984D01*
X14167801Y-14297984D02*
X14215420Y-14297984D01*
X14215420Y-14297984D02*
X14234468Y-14307508D01*
X14234468Y-14307508D02*
X14243991Y-14317031D01*
X14243991Y-14317031D02*
X14253515Y-14336079D01*
X14253515Y-14336079D02*
X14253515Y-14355127D01*
X14253515Y-14355127D02*
X14243991Y-14383698D01*
X14243991Y-14383698D02*
X14129706Y-14497984D01*
X14129706Y-14497984D02*
X14253515Y-14497984D01*
X14491610Y-14497984D02*
X14491610Y-14297984D01*
X14577325Y-14497984D02*
X14577325Y-14393222D01*
X14577325Y-14393222D02*
X14567801Y-14374174D01*
X14567801Y-14374174D02*
X14548753Y-14364650D01*
X14548753Y-14364650D02*
X14520182Y-14364650D01*
X14520182Y-14364650D02*
X14501134Y-14374174D01*
X14501134Y-14374174D02*
X14491610Y-14383698D01*
X14701134Y-14497984D02*
X14682087Y-14488460D01*
X14682087Y-14488460D02*
X14672563Y-14478936D01*
X14672563Y-14478936D02*
X14663039Y-14459888D01*
X14663039Y-14459888D02*
X14663039Y-14402746D01*
X14663039Y-14402746D02*
X14672563Y-14383698D01*
X14672563Y-14383698D02*
X14682087Y-14374174D01*
X14682087Y-14374174D02*
X14701134Y-14364650D01*
X14701134Y-14364650D02*
X14729706Y-14364650D01*
X14729706Y-14364650D02*
X14748753Y-14374174D01*
X14748753Y-14374174D02*
X14758277Y-14383698D01*
X14758277Y-14383698D02*
X14767801Y-14402746D01*
X14767801Y-14402746D02*
X14767801Y-14459888D01*
X14767801Y-14459888D02*
X14758277Y-14478936D01*
X14758277Y-14478936D02*
X14748753Y-14488460D01*
X14748753Y-14488460D02*
X14729706Y-14497984D01*
X14729706Y-14497984D02*
X14701134Y-14497984D01*
X14882087Y-14497984D02*
X14863039Y-14488460D01*
X14863039Y-14488460D02*
X14853515Y-14469412D01*
X14853515Y-14469412D02*
X14853515Y-14297984D01*
X15034468Y-14488460D02*
X15015420Y-14497984D01*
X15015420Y-14497984D02*
X14977325Y-14497984D01*
X14977325Y-14497984D02*
X14958277Y-14488460D01*
X14958277Y-14488460D02*
X14948753Y-14469412D01*
X14948753Y-14469412D02*
X14948753Y-14393222D01*
X14948753Y-14393222D02*
X14958277Y-14374174D01*
X14958277Y-14374174D02*
X14977325Y-14364650D01*
X14977325Y-14364650D02*
X15015420Y-14364650D01*
X15015420Y-14364650D02*
X15034468Y-14374174D01*
X15034468Y-14374174D02*
X15043991Y-14393222D01*
X15043991Y-14393222D02*
X15043991Y-14412269D01*
X15043991Y-14412269D02*
X14948753Y-14431317D01*
X15120182Y-14488460D02*
X15139230Y-14497984D01*
X15139230Y-14497984D02*
X15177325Y-14497984D01*
X15177325Y-14497984D02*
X15196372Y-14488460D01*
X15196372Y-14488460D02*
X15205896Y-14469412D01*
X15205896Y-14469412D02*
X15205896Y-14459888D01*
X15205896Y-14459888D02*
X15196372Y-14440841D01*
X15196372Y-14440841D02*
X15177325Y-14431317D01*
X15177325Y-14431317D02*
X15148753Y-14431317D01*
X15148753Y-14431317D02*
X15129706Y-14421793D01*
X15129706Y-14421793D02*
X15120182Y-14402746D01*
X15120182Y-14402746D02*
X15120182Y-14393222D01*
X15120182Y-14393222D02*
X15129706Y-14374174D01*
X15129706Y-14374174D02*
X15148753Y-14364650D01*
X15148753Y-14364650D02*
X15177325Y-14364650D01*
X15177325Y-14364650D02*
X15196372Y-14374174D01*
X15272563Y-14574174D02*
X15282087Y-14564650D01*
X15282087Y-14564650D02*
X15301134Y-14536079D01*
X15301134Y-14536079D02*
X15310658Y-14517031D01*
X15310658Y-14517031D02*
X15320182Y-14488460D01*
X15320182Y-14488460D02*
X15329706Y-14440841D01*
X15329706Y-14440841D02*
X15329706Y-14402746D01*
X15329706Y-14402746D02*
X15320182Y-14355127D01*
X15320182Y-14355127D02*
X15310658Y-14326555D01*
X15310658Y-14326555D02*
X15301134Y-14307508D01*
X15301134Y-14307508D02*
X15282087Y-14278936D01*
X15282087Y-14278936D02*
X15272563Y-14269412D01*
D12*
X10452500Y-14625500D02*
X10452500Y-14715500D01*
X10407500Y-14670500D02*
X10497500Y-14670500D01*
D10*
X10796372Y-14561984D02*
X10815420Y-14561984D01*
X10815420Y-14561984D02*
X10834467Y-14571508D01*
X10834467Y-14571508D02*
X10843991Y-14581031D01*
X10843991Y-14581031D02*
X10853515Y-14600079D01*
X10853515Y-14600079D02*
X10863039Y-14638174D01*
X10863039Y-14638174D02*
X10863039Y-14685793D01*
X10863039Y-14685793D02*
X10853515Y-14723888D01*
X10853515Y-14723888D02*
X10843991Y-14742936D01*
X10843991Y-14742936D02*
X10834467Y-14752460D01*
X10834467Y-14752460D02*
X10815420Y-14761984D01*
X10815420Y-14761984D02*
X10796372Y-14761984D01*
X10796372Y-14761984D02*
X10777324Y-14752460D01*
X10777324Y-14752460D02*
X10767801Y-14742936D01*
X10767801Y-14742936D02*
X10758277Y-14723888D01*
X10758277Y-14723888D02*
X10748753Y-14685793D01*
X10748753Y-14685793D02*
X10748753Y-14638174D01*
X10748753Y-14638174D02*
X10758277Y-14600079D01*
X10758277Y-14600079D02*
X10767801Y-14581031D01*
X10767801Y-14581031D02*
X10777324Y-14571508D01*
X10777324Y-14571508D02*
X10796372Y-14561984D01*
X10948753Y-14742936D02*
X10958277Y-14752460D01*
X10958277Y-14752460D02*
X10948753Y-14761984D01*
X10948753Y-14761984D02*
X10939229Y-14752460D01*
X10939229Y-14752460D02*
X10948753Y-14742936D01*
X10948753Y-14742936D02*
X10948753Y-14761984D01*
X11053515Y-14761984D02*
X11091610Y-14761984D01*
X11091610Y-14761984D02*
X11110658Y-14752460D01*
X11110658Y-14752460D02*
X11120182Y-14742936D01*
X11120182Y-14742936D02*
X11139229Y-14714365D01*
X11139229Y-14714365D02*
X11148753Y-14676269D01*
X11148753Y-14676269D02*
X11148753Y-14600079D01*
X11148753Y-14600079D02*
X11139229Y-14581031D01*
X11139229Y-14581031D02*
X11129705Y-14571508D01*
X11129705Y-14571508D02*
X11110658Y-14561984D01*
X11110658Y-14561984D02*
X11072563Y-14561984D01*
X11072563Y-14561984D02*
X11053515Y-14571508D01*
X11053515Y-14571508D02*
X11043991Y-14581031D01*
X11043991Y-14581031D02*
X11034467Y-14600079D01*
X11034467Y-14600079D02*
X11034467Y-14647698D01*
X11034467Y-14647698D02*
X11043991Y-14666746D01*
X11043991Y-14666746D02*
X11053515Y-14676269D01*
X11053515Y-14676269D02*
X11072563Y-14685793D01*
X11072563Y-14685793D02*
X11110658Y-14685793D01*
X11110658Y-14685793D02*
X11129705Y-14676269D01*
X11129705Y-14676269D02*
X11139229Y-14666746D01*
X11139229Y-14666746D02*
X11148753Y-14647698D01*
X11272562Y-14561984D02*
X11291610Y-14561984D01*
X11291610Y-14561984D02*
X11310658Y-14571508D01*
X11310658Y-14571508D02*
X11320182Y-14581031D01*
X11320182Y-14581031D02*
X11329705Y-14600079D01*
X11329705Y-14600079D02*
X11339229Y-14638174D01*
X11339229Y-14638174D02*
X11339229Y-14685793D01*
X11339229Y-14685793D02*
X11329705Y-14723888D01*
X11329705Y-14723888D02*
X11320182Y-14742936D01*
X11320182Y-14742936D02*
X11310658Y-14752460D01*
X11310658Y-14752460D02*
X11291610Y-14761984D01*
X11291610Y-14761984D02*
X11272562Y-14761984D01*
X11272562Y-14761984D02*
X11253515Y-14752460D01*
X11253515Y-14752460D02*
X11243991Y-14742936D01*
X11243991Y-14742936D02*
X11234467Y-14723888D01*
X11234467Y-14723888D02*
X11224943Y-14685793D01*
X11224943Y-14685793D02*
X11224943Y-14638174D01*
X11224943Y-14638174D02*
X11234467Y-14600079D01*
X11234467Y-14600079D02*
X11243991Y-14581031D01*
X11243991Y-14581031D02*
X11253515Y-14571508D01*
X11253515Y-14571508D02*
X11272562Y-14561984D01*
X11463039Y-14561984D02*
X11482086Y-14561984D01*
X11482086Y-14561984D02*
X11501134Y-14571508D01*
X11501134Y-14571508D02*
X11510658Y-14581031D01*
X11510658Y-14581031D02*
X11520182Y-14600079D01*
X11520182Y-14600079D02*
X11529705Y-14638174D01*
X11529705Y-14638174D02*
X11529705Y-14685793D01*
X11529705Y-14685793D02*
X11520182Y-14723888D01*
X11520182Y-14723888D02*
X11510658Y-14742936D01*
X11510658Y-14742936D02*
X11501134Y-14752460D01*
X11501134Y-14752460D02*
X11482086Y-14761984D01*
X11482086Y-14761984D02*
X11463039Y-14761984D01*
X11463039Y-14761984D02*
X11443991Y-14752460D01*
X11443991Y-14752460D02*
X11434467Y-14742936D01*
X11434467Y-14742936D02*
X11424943Y-14723888D01*
X11424943Y-14723888D02*
X11415420Y-14685793D01*
X11415420Y-14685793D02*
X11415420Y-14638174D01*
X11415420Y-14638174D02*
X11424943Y-14600079D01*
X11424943Y-14600079D02*
X11434467Y-14581031D01*
X11434467Y-14581031D02*
X11443991Y-14571508D01*
X11443991Y-14571508D02*
X11463039Y-14561984D01*
X11615420Y-14761984D02*
X11615420Y-14628650D01*
X11615420Y-14647698D02*
X11624943Y-14638174D01*
X11624943Y-14638174D02*
X11643991Y-14628650D01*
X11643991Y-14628650D02*
X11672563Y-14628650D01*
X11672563Y-14628650D02*
X11691610Y-14638174D01*
X11691610Y-14638174D02*
X11701134Y-14657222D01*
X11701134Y-14657222D02*
X11701134Y-14761984D01*
X11701134Y-14657222D02*
X11710658Y-14638174D01*
X11710658Y-14638174D02*
X11729705Y-14628650D01*
X11729705Y-14628650D02*
X11758277Y-14628650D01*
X11758277Y-14628650D02*
X11777324Y-14638174D01*
X11777324Y-14638174D02*
X11786848Y-14657222D01*
X11786848Y-14657222D02*
X11786848Y-14761984D01*
X11882086Y-14761984D02*
X11882086Y-14628650D01*
X11882086Y-14647698D02*
X11891610Y-14638174D01*
X11891610Y-14638174D02*
X11910658Y-14628650D01*
X11910658Y-14628650D02*
X11939229Y-14628650D01*
X11939229Y-14628650D02*
X11958277Y-14638174D01*
X11958277Y-14638174D02*
X11967801Y-14657222D01*
X11967801Y-14657222D02*
X11967801Y-14761984D01*
X11967801Y-14657222D02*
X11977324Y-14638174D01*
X11977324Y-14638174D02*
X11996372Y-14628650D01*
X11996372Y-14628650D02*
X12024943Y-14628650D01*
X12024943Y-14628650D02*
X12043991Y-14638174D01*
X12043991Y-14638174D02*
X12053515Y-14657222D01*
X12053515Y-14657222D02*
X12053515Y-14761984D01*
X12443991Y-14552460D02*
X12272563Y-14809603D01*
X12701134Y-14561984D02*
X12720182Y-14561984D01*
X12720182Y-14561984D02*
X12739229Y-14571508D01*
X12739229Y-14571508D02*
X12748753Y-14581031D01*
X12748753Y-14581031D02*
X12758277Y-14600079D01*
X12758277Y-14600079D02*
X12767801Y-14638174D01*
X12767801Y-14638174D02*
X12767801Y-14685793D01*
X12767801Y-14685793D02*
X12758277Y-14723888D01*
X12758277Y-14723888D02*
X12748753Y-14742936D01*
X12748753Y-14742936D02*
X12739229Y-14752460D01*
X12739229Y-14752460D02*
X12720182Y-14761984D01*
X12720182Y-14761984D02*
X12701134Y-14761984D01*
X12701134Y-14761984D02*
X12682086Y-14752460D01*
X12682086Y-14752460D02*
X12672563Y-14742936D01*
X12672563Y-14742936D02*
X12663039Y-14723888D01*
X12663039Y-14723888D02*
X12653515Y-14685793D01*
X12653515Y-14685793D02*
X12653515Y-14638174D01*
X12653515Y-14638174D02*
X12663039Y-14600079D01*
X12663039Y-14600079D02*
X12672563Y-14581031D01*
X12672563Y-14581031D02*
X12682086Y-14571508D01*
X12682086Y-14571508D02*
X12701134Y-14561984D01*
X12853515Y-14742936D02*
X12863039Y-14752460D01*
X12863039Y-14752460D02*
X12853515Y-14761984D01*
X12853515Y-14761984D02*
X12843991Y-14752460D01*
X12843991Y-14752460D02*
X12853515Y-14742936D01*
X12853515Y-14742936D02*
X12853515Y-14761984D01*
X12986848Y-14561984D02*
X13005896Y-14561984D01*
X13005896Y-14561984D02*
X13024944Y-14571508D01*
X13024944Y-14571508D02*
X13034467Y-14581031D01*
X13034467Y-14581031D02*
X13043991Y-14600079D01*
X13043991Y-14600079D02*
X13053515Y-14638174D01*
X13053515Y-14638174D02*
X13053515Y-14685793D01*
X13053515Y-14685793D02*
X13043991Y-14723888D01*
X13043991Y-14723888D02*
X13034467Y-14742936D01*
X13034467Y-14742936D02*
X13024944Y-14752460D01*
X13024944Y-14752460D02*
X13005896Y-14761984D01*
X13005896Y-14761984D02*
X12986848Y-14761984D01*
X12986848Y-14761984D02*
X12967801Y-14752460D01*
X12967801Y-14752460D02*
X12958277Y-14742936D01*
X12958277Y-14742936D02*
X12948753Y-14723888D01*
X12948753Y-14723888D02*
X12939229Y-14685793D01*
X12939229Y-14685793D02*
X12939229Y-14638174D01*
X12939229Y-14638174D02*
X12948753Y-14600079D01*
X12948753Y-14600079D02*
X12958277Y-14581031D01*
X12958277Y-14581031D02*
X12967801Y-14571508D01*
X12967801Y-14571508D02*
X12986848Y-14561984D01*
X13120182Y-14561984D02*
X13243991Y-14561984D01*
X13243991Y-14561984D02*
X13177325Y-14638174D01*
X13177325Y-14638174D02*
X13205896Y-14638174D01*
X13205896Y-14638174D02*
X13224944Y-14647698D01*
X13224944Y-14647698D02*
X13234467Y-14657222D01*
X13234467Y-14657222D02*
X13243991Y-14676269D01*
X13243991Y-14676269D02*
X13243991Y-14723888D01*
X13243991Y-14723888D02*
X13234467Y-14742936D01*
X13234467Y-14742936D02*
X13224944Y-14752460D01*
X13224944Y-14752460D02*
X13205896Y-14761984D01*
X13205896Y-14761984D02*
X13148753Y-14761984D01*
X13148753Y-14761984D02*
X13129706Y-14752460D01*
X13129706Y-14752460D02*
X13120182Y-14742936D01*
X13424944Y-14561984D02*
X13329706Y-14561984D01*
X13329706Y-14561984D02*
X13320182Y-14657222D01*
X13320182Y-14657222D02*
X13329706Y-14647698D01*
X13329706Y-14647698D02*
X13348753Y-14638174D01*
X13348753Y-14638174D02*
X13396372Y-14638174D01*
X13396372Y-14638174D02*
X13415420Y-14647698D01*
X13415420Y-14647698D02*
X13424944Y-14657222D01*
X13424944Y-14657222D02*
X13434467Y-14676269D01*
X13434467Y-14676269D02*
X13434467Y-14723888D01*
X13434467Y-14723888D02*
X13424944Y-14742936D01*
X13424944Y-14742936D02*
X13415420Y-14752460D01*
X13415420Y-14752460D02*
X13396372Y-14761984D01*
X13396372Y-14761984D02*
X13348753Y-14761984D01*
X13348753Y-14761984D02*
X13329706Y-14752460D01*
X13329706Y-14752460D02*
X13320182Y-14742936D01*
X13605896Y-14628650D02*
X13605896Y-14761984D01*
X13558277Y-14552460D02*
X13510658Y-14695317D01*
X13510658Y-14695317D02*
X13634467Y-14695317D01*
X13701134Y-14561984D02*
X13701134Y-14600079D01*
X13777325Y-14561984D02*
X13777325Y-14600079D01*
X14072563Y-14838174D02*
X14063039Y-14828650D01*
X14063039Y-14828650D02*
X14043991Y-14800079D01*
X14043991Y-14800079D02*
X14034468Y-14781031D01*
X14034468Y-14781031D02*
X14024944Y-14752460D01*
X14024944Y-14752460D02*
X14015420Y-14704841D01*
X14015420Y-14704841D02*
X14015420Y-14666746D01*
X14015420Y-14666746D02*
X14024944Y-14619127D01*
X14024944Y-14619127D02*
X14034468Y-14590555D01*
X14034468Y-14590555D02*
X14043991Y-14571508D01*
X14043991Y-14571508D02*
X14063039Y-14542936D01*
X14063039Y-14542936D02*
X14072563Y-14533412D01*
X14139229Y-14581031D02*
X14148753Y-14571508D01*
X14148753Y-14571508D02*
X14167801Y-14561984D01*
X14167801Y-14561984D02*
X14215420Y-14561984D01*
X14215420Y-14561984D02*
X14234468Y-14571508D01*
X14234468Y-14571508D02*
X14243991Y-14581031D01*
X14243991Y-14581031D02*
X14253515Y-14600079D01*
X14253515Y-14600079D02*
X14253515Y-14619127D01*
X14253515Y-14619127D02*
X14243991Y-14647698D01*
X14243991Y-14647698D02*
X14129706Y-14761984D01*
X14129706Y-14761984D02*
X14253515Y-14761984D01*
X14491610Y-14761984D02*
X14491610Y-14561984D01*
X14577325Y-14761984D02*
X14577325Y-14657222D01*
X14577325Y-14657222D02*
X14567801Y-14638174D01*
X14567801Y-14638174D02*
X14548753Y-14628650D01*
X14548753Y-14628650D02*
X14520182Y-14628650D01*
X14520182Y-14628650D02*
X14501134Y-14638174D01*
X14501134Y-14638174D02*
X14491610Y-14647698D01*
X14701134Y-14761984D02*
X14682087Y-14752460D01*
X14682087Y-14752460D02*
X14672563Y-14742936D01*
X14672563Y-14742936D02*
X14663039Y-14723888D01*
X14663039Y-14723888D02*
X14663039Y-14666746D01*
X14663039Y-14666746D02*
X14672563Y-14647698D01*
X14672563Y-14647698D02*
X14682087Y-14638174D01*
X14682087Y-14638174D02*
X14701134Y-14628650D01*
X14701134Y-14628650D02*
X14729706Y-14628650D01*
X14729706Y-14628650D02*
X14748753Y-14638174D01*
X14748753Y-14638174D02*
X14758277Y-14647698D01*
X14758277Y-14647698D02*
X14767801Y-14666746D01*
X14767801Y-14666746D02*
X14767801Y-14723888D01*
X14767801Y-14723888D02*
X14758277Y-14742936D01*
X14758277Y-14742936D02*
X14748753Y-14752460D01*
X14748753Y-14752460D02*
X14729706Y-14761984D01*
X14729706Y-14761984D02*
X14701134Y-14761984D01*
X14882087Y-14761984D02*
X14863039Y-14752460D01*
X14863039Y-14752460D02*
X14853515Y-14733412D01*
X14853515Y-14733412D02*
X14853515Y-14561984D01*
X15034468Y-14752460D02*
X15015420Y-14761984D01*
X15015420Y-14761984D02*
X14977325Y-14761984D01*
X14977325Y-14761984D02*
X14958277Y-14752460D01*
X14958277Y-14752460D02*
X14948753Y-14733412D01*
X14948753Y-14733412D02*
X14948753Y-14657222D01*
X14948753Y-14657222D02*
X14958277Y-14638174D01*
X14958277Y-14638174D02*
X14977325Y-14628650D01*
X14977325Y-14628650D02*
X15015420Y-14628650D01*
X15015420Y-14628650D02*
X15034468Y-14638174D01*
X15034468Y-14638174D02*
X15043991Y-14657222D01*
X15043991Y-14657222D02*
X15043991Y-14676269D01*
X15043991Y-14676269D02*
X14948753Y-14695317D01*
X15120182Y-14752460D02*
X15139230Y-14761984D01*
X15139230Y-14761984D02*
X15177325Y-14761984D01*
X15177325Y-14761984D02*
X15196372Y-14752460D01*
X15196372Y-14752460D02*
X15205896Y-14733412D01*
X15205896Y-14733412D02*
X15205896Y-14723888D01*
X15205896Y-14723888D02*
X15196372Y-14704841D01*
X15196372Y-14704841D02*
X15177325Y-14695317D01*
X15177325Y-14695317D02*
X15148753Y-14695317D01*
X15148753Y-14695317D02*
X15129706Y-14685793D01*
X15129706Y-14685793D02*
X15120182Y-14666746D01*
X15120182Y-14666746D02*
X15120182Y-14657222D01*
X15120182Y-14657222D02*
X15129706Y-14638174D01*
X15129706Y-14638174D02*
X15148753Y-14628650D01*
X15148753Y-14628650D02*
X15177325Y-14628650D01*
X15177325Y-14628650D02*
X15196372Y-14638174D01*
X15272563Y-14838174D02*
X15282087Y-14828650D01*
X15282087Y-14828650D02*
X15301134Y-14800079D01*
X15301134Y-14800079D02*
X15310658Y-14781031D01*
X15310658Y-14781031D02*
X15320182Y-14752460D01*
X15320182Y-14752460D02*
X15329706Y-14704841D01*
X15329706Y-14704841D02*
X15329706Y-14666746D01*
X15329706Y-14666746D02*
X15320182Y-14619127D01*
X15320182Y-14619127D02*
X15310658Y-14590555D01*
X15310658Y-14590555D02*
X15301134Y-14571508D01*
X15301134Y-14571508D02*
X15282087Y-14542936D01*
X15282087Y-14542936D02*
X15272563Y-14533412D01*
D12*
X10482856Y-14969856D02*
X10482856Y-14899144D01*
X10412144Y-14899144D01*
X10412144Y-14969856D01*
X10482856Y-14969856D01*
D10*
X10863039Y-15025984D02*
X10748753Y-15025984D01*
X10805896Y-15025984D02*
X10805896Y-14825984D01*
X10805896Y-14825984D02*
X10786848Y-14854555D01*
X10786848Y-14854555D02*
X10767801Y-14873603D01*
X10767801Y-14873603D02*
X10748753Y-14883127D01*
X10948753Y-15006936D02*
X10958277Y-15016460D01*
X10958277Y-15016460D02*
X10948753Y-15025984D01*
X10948753Y-15025984D02*
X10939229Y-15016460D01*
X10939229Y-15016460D02*
X10948753Y-15006936D01*
X10948753Y-15006936D02*
X10948753Y-15025984D01*
X11082086Y-14825984D02*
X11101134Y-14825984D01*
X11101134Y-14825984D02*
X11120182Y-14835508D01*
X11120182Y-14835508D02*
X11129705Y-14845031D01*
X11129705Y-14845031D02*
X11139229Y-14864079D01*
X11139229Y-14864079D02*
X11148753Y-14902174D01*
X11148753Y-14902174D02*
X11148753Y-14949793D01*
X11148753Y-14949793D02*
X11139229Y-14987888D01*
X11139229Y-14987888D02*
X11129705Y-15006936D01*
X11129705Y-15006936D02*
X11120182Y-15016460D01*
X11120182Y-15016460D02*
X11101134Y-15025984D01*
X11101134Y-15025984D02*
X11082086Y-15025984D01*
X11082086Y-15025984D02*
X11063039Y-15016460D01*
X11063039Y-15016460D02*
X11053515Y-15006936D01*
X11053515Y-15006936D02*
X11043991Y-14987888D01*
X11043991Y-14987888D02*
X11034467Y-14949793D01*
X11034467Y-14949793D02*
X11034467Y-14902174D01*
X11034467Y-14902174D02*
X11043991Y-14864079D01*
X11043991Y-14864079D02*
X11053515Y-14845031D01*
X11053515Y-14845031D02*
X11063039Y-14835508D01*
X11063039Y-14835508D02*
X11082086Y-14825984D01*
X11272562Y-14825984D02*
X11291610Y-14825984D01*
X11291610Y-14825984D02*
X11310658Y-14835508D01*
X11310658Y-14835508D02*
X11320182Y-14845031D01*
X11320182Y-14845031D02*
X11329705Y-14864079D01*
X11329705Y-14864079D02*
X11339229Y-14902174D01*
X11339229Y-14902174D02*
X11339229Y-14949793D01*
X11339229Y-14949793D02*
X11329705Y-14987888D01*
X11329705Y-14987888D02*
X11320182Y-15006936D01*
X11320182Y-15006936D02*
X11310658Y-15016460D01*
X11310658Y-15016460D02*
X11291610Y-15025984D01*
X11291610Y-15025984D02*
X11272562Y-15025984D01*
X11272562Y-15025984D02*
X11253515Y-15016460D01*
X11253515Y-15016460D02*
X11243991Y-15006936D01*
X11243991Y-15006936D02*
X11234467Y-14987888D01*
X11234467Y-14987888D02*
X11224943Y-14949793D01*
X11224943Y-14949793D02*
X11224943Y-14902174D01*
X11224943Y-14902174D02*
X11234467Y-14864079D01*
X11234467Y-14864079D02*
X11243991Y-14845031D01*
X11243991Y-14845031D02*
X11253515Y-14835508D01*
X11253515Y-14835508D02*
X11272562Y-14825984D01*
X11463039Y-14825984D02*
X11482086Y-14825984D01*
X11482086Y-14825984D02*
X11501134Y-14835508D01*
X11501134Y-14835508D02*
X11510658Y-14845031D01*
X11510658Y-14845031D02*
X11520182Y-14864079D01*
X11520182Y-14864079D02*
X11529705Y-14902174D01*
X11529705Y-14902174D02*
X11529705Y-14949793D01*
X11529705Y-14949793D02*
X11520182Y-14987888D01*
X11520182Y-14987888D02*
X11510658Y-15006936D01*
X11510658Y-15006936D02*
X11501134Y-15016460D01*
X11501134Y-15016460D02*
X11482086Y-15025984D01*
X11482086Y-15025984D02*
X11463039Y-15025984D01*
X11463039Y-15025984D02*
X11443991Y-15016460D01*
X11443991Y-15016460D02*
X11434467Y-15006936D01*
X11434467Y-15006936D02*
X11424943Y-14987888D01*
X11424943Y-14987888D02*
X11415420Y-14949793D01*
X11415420Y-14949793D02*
X11415420Y-14902174D01*
X11415420Y-14902174D02*
X11424943Y-14864079D01*
X11424943Y-14864079D02*
X11434467Y-14845031D01*
X11434467Y-14845031D02*
X11443991Y-14835508D01*
X11443991Y-14835508D02*
X11463039Y-14825984D01*
X11615420Y-15025984D02*
X11615420Y-14892650D01*
X11615420Y-14911698D02*
X11624943Y-14902174D01*
X11624943Y-14902174D02*
X11643991Y-14892650D01*
X11643991Y-14892650D02*
X11672563Y-14892650D01*
X11672563Y-14892650D02*
X11691610Y-14902174D01*
X11691610Y-14902174D02*
X11701134Y-14921222D01*
X11701134Y-14921222D02*
X11701134Y-15025984D01*
X11701134Y-14921222D02*
X11710658Y-14902174D01*
X11710658Y-14902174D02*
X11729705Y-14892650D01*
X11729705Y-14892650D02*
X11758277Y-14892650D01*
X11758277Y-14892650D02*
X11777324Y-14902174D01*
X11777324Y-14902174D02*
X11786848Y-14921222D01*
X11786848Y-14921222D02*
X11786848Y-15025984D01*
X11882086Y-15025984D02*
X11882086Y-14892650D01*
X11882086Y-14911698D02*
X11891610Y-14902174D01*
X11891610Y-14902174D02*
X11910658Y-14892650D01*
X11910658Y-14892650D02*
X11939229Y-14892650D01*
X11939229Y-14892650D02*
X11958277Y-14902174D01*
X11958277Y-14902174D02*
X11967801Y-14921222D01*
X11967801Y-14921222D02*
X11967801Y-15025984D01*
X11967801Y-14921222D02*
X11977324Y-14902174D01*
X11977324Y-14902174D02*
X11996372Y-14892650D01*
X11996372Y-14892650D02*
X12024943Y-14892650D01*
X12024943Y-14892650D02*
X12043991Y-14902174D01*
X12043991Y-14902174D02*
X12053515Y-14921222D01*
X12053515Y-14921222D02*
X12053515Y-15025984D01*
X12443991Y-14816460D02*
X12272563Y-15073603D01*
X12701134Y-14825984D02*
X12720182Y-14825984D01*
X12720182Y-14825984D02*
X12739229Y-14835508D01*
X12739229Y-14835508D02*
X12748753Y-14845031D01*
X12748753Y-14845031D02*
X12758277Y-14864079D01*
X12758277Y-14864079D02*
X12767801Y-14902174D01*
X12767801Y-14902174D02*
X12767801Y-14949793D01*
X12767801Y-14949793D02*
X12758277Y-14987888D01*
X12758277Y-14987888D02*
X12748753Y-15006936D01*
X12748753Y-15006936D02*
X12739229Y-15016460D01*
X12739229Y-15016460D02*
X12720182Y-15025984D01*
X12720182Y-15025984D02*
X12701134Y-15025984D01*
X12701134Y-15025984D02*
X12682086Y-15016460D01*
X12682086Y-15016460D02*
X12672563Y-15006936D01*
X12672563Y-15006936D02*
X12663039Y-14987888D01*
X12663039Y-14987888D02*
X12653515Y-14949793D01*
X12653515Y-14949793D02*
X12653515Y-14902174D01*
X12653515Y-14902174D02*
X12663039Y-14864079D01*
X12663039Y-14864079D02*
X12672563Y-14845031D01*
X12672563Y-14845031D02*
X12682086Y-14835508D01*
X12682086Y-14835508D02*
X12701134Y-14825984D01*
X12853515Y-15006936D02*
X12863039Y-15016460D01*
X12863039Y-15016460D02*
X12853515Y-15025984D01*
X12853515Y-15025984D02*
X12843991Y-15016460D01*
X12843991Y-15016460D02*
X12853515Y-15006936D01*
X12853515Y-15006936D02*
X12853515Y-15025984D01*
X12986848Y-14825984D02*
X13005896Y-14825984D01*
X13005896Y-14825984D02*
X13024944Y-14835508D01*
X13024944Y-14835508D02*
X13034467Y-14845031D01*
X13034467Y-14845031D02*
X13043991Y-14864079D01*
X13043991Y-14864079D02*
X13053515Y-14902174D01*
X13053515Y-14902174D02*
X13053515Y-14949793D01*
X13053515Y-14949793D02*
X13043991Y-14987888D01*
X13043991Y-14987888D02*
X13034467Y-15006936D01*
X13034467Y-15006936D02*
X13024944Y-15016460D01*
X13024944Y-15016460D02*
X13005896Y-15025984D01*
X13005896Y-15025984D02*
X12986848Y-15025984D01*
X12986848Y-15025984D02*
X12967801Y-15016460D01*
X12967801Y-15016460D02*
X12958277Y-15006936D01*
X12958277Y-15006936D02*
X12948753Y-14987888D01*
X12948753Y-14987888D02*
X12939229Y-14949793D01*
X12939229Y-14949793D02*
X12939229Y-14902174D01*
X12939229Y-14902174D02*
X12948753Y-14864079D01*
X12948753Y-14864079D02*
X12958277Y-14845031D01*
X12958277Y-14845031D02*
X12967801Y-14835508D01*
X12967801Y-14835508D02*
X12986848Y-14825984D01*
X13120182Y-14825984D02*
X13243991Y-14825984D01*
X13243991Y-14825984D02*
X13177325Y-14902174D01*
X13177325Y-14902174D02*
X13205896Y-14902174D01*
X13205896Y-14902174D02*
X13224944Y-14911698D01*
X13224944Y-14911698D02*
X13234467Y-14921222D01*
X13234467Y-14921222D02*
X13243991Y-14940269D01*
X13243991Y-14940269D02*
X13243991Y-14987888D01*
X13243991Y-14987888D02*
X13234467Y-15006936D01*
X13234467Y-15006936D02*
X13224944Y-15016460D01*
X13224944Y-15016460D02*
X13205896Y-15025984D01*
X13205896Y-15025984D02*
X13148753Y-15025984D01*
X13148753Y-15025984D02*
X13129706Y-15016460D01*
X13129706Y-15016460D02*
X13120182Y-15006936D01*
X13339229Y-15025984D02*
X13377325Y-15025984D01*
X13377325Y-15025984D02*
X13396372Y-15016460D01*
X13396372Y-15016460D02*
X13405896Y-15006936D01*
X13405896Y-15006936D02*
X13424944Y-14978365D01*
X13424944Y-14978365D02*
X13434467Y-14940269D01*
X13434467Y-14940269D02*
X13434467Y-14864079D01*
X13434467Y-14864079D02*
X13424944Y-14845031D01*
X13424944Y-14845031D02*
X13415420Y-14835508D01*
X13415420Y-14835508D02*
X13396372Y-14825984D01*
X13396372Y-14825984D02*
X13358277Y-14825984D01*
X13358277Y-14825984D02*
X13339229Y-14835508D01*
X13339229Y-14835508D02*
X13329706Y-14845031D01*
X13329706Y-14845031D02*
X13320182Y-14864079D01*
X13320182Y-14864079D02*
X13320182Y-14911698D01*
X13320182Y-14911698D02*
X13329706Y-14930746D01*
X13329706Y-14930746D02*
X13339229Y-14940269D01*
X13339229Y-14940269D02*
X13358277Y-14949793D01*
X13358277Y-14949793D02*
X13396372Y-14949793D01*
X13396372Y-14949793D02*
X13415420Y-14940269D01*
X13415420Y-14940269D02*
X13424944Y-14930746D01*
X13424944Y-14930746D02*
X13434467Y-14911698D01*
X13605896Y-14892650D02*
X13605896Y-15025984D01*
X13558277Y-14816460D02*
X13510658Y-14959317D01*
X13510658Y-14959317D02*
X13634467Y-14959317D01*
X13701134Y-14825984D02*
X13701134Y-14864079D01*
X13777325Y-14825984D02*
X13777325Y-14864079D01*
X14072563Y-15102174D02*
X14063039Y-15092650D01*
X14063039Y-15092650D02*
X14043991Y-15064079D01*
X14043991Y-15064079D02*
X14034468Y-15045031D01*
X14034468Y-15045031D02*
X14024944Y-15016460D01*
X14024944Y-15016460D02*
X14015420Y-14968841D01*
X14015420Y-14968841D02*
X14015420Y-14930746D01*
X14015420Y-14930746D02*
X14024944Y-14883127D01*
X14024944Y-14883127D02*
X14034468Y-14854555D01*
X14034468Y-14854555D02*
X14043991Y-14835508D01*
X14043991Y-14835508D02*
X14063039Y-14806936D01*
X14063039Y-14806936D02*
X14072563Y-14797412D01*
X14234468Y-14825984D02*
X14196372Y-14825984D01*
X14196372Y-14825984D02*
X14177325Y-14835508D01*
X14177325Y-14835508D02*
X14167801Y-14845031D01*
X14167801Y-14845031D02*
X14148753Y-14873603D01*
X14148753Y-14873603D02*
X14139229Y-14911698D01*
X14139229Y-14911698D02*
X14139229Y-14987888D01*
X14139229Y-14987888D02*
X14148753Y-15006936D01*
X14148753Y-15006936D02*
X14158277Y-15016460D01*
X14158277Y-15016460D02*
X14177325Y-15025984D01*
X14177325Y-15025984D02*
X14215420Y-15025984D01*
X14215420Y-15025984D02*
X14234468Y-15016460D01*
X14234468Y-15016460D02*
X14243991Y-15006936D01*
X14243991Y-15006936D02*
X14253515Y-14987888D01*
X14253515Y-14987888D02*
X14253515Y-14940269D01*
X14253515Y-14940269D02*
X14243991Y-14921222D01*
X14243991Y-14921222D02*
X14234468Y-14911698D01*
X14234468Y-14911698D02*
X14215420Y-14902174D01*
X14215420Y-14902174D02*
X14177325Y-14902174D01*
X14177325Y-14902174D02*
X14158277Y-14911698D01*
X14158277Y-14911698D02*
X14148753Y-14921222D01*
X14148753Y-14921222D02*
X14139229Y-14940269D01*
X14320182Y-14825984D02*
X14453515Y-14825984D01*
X14453515Y-14825984D02*
X14367801Y-15025984D01*
X14682087Y-15025984D02*
X14682087Y-14825984D01*
X14767801Y-15025984D02*
X14767801Y-14921222D01*
X14767801Y-14921222D02*
X14758277Y-14902174D01*
X14758277Y-14902174D02*
X14739230Y-14892650D01*
X14739230Y-14892650D02*
X14710658Y-14892650D01*
X14710658Y-14892650D02*
X14691610Y-14902174D01*
X14691610Y-14902174D02*
X14682087Y-14911698D01*
X14891610Y-15025984D02*
X14872563Y-15016460D01*
X14872563Y-15016460D02*
X14863039Y-15006936D01*
X14863039Y-15006936D02*
X14853515Y-14987888D01*
X14853515Y-14987888D02*
X14853515Y-14930746D01*
X14853515Y-14930746D02*
X14863039Y-14911698D01*
X14863039Y-14911698D02*
X14872563Y-14902174D01*
X14872563Y-14902174D02*
X14891610Y-14892650D01*
X14891610Y-14892650D02*
X14920182Y-14892650D01*
X14920182Y-14892650D02*
X14939230Y-14902174D01*
X14939230Y-14902174D02*
X14948753Y-14911698D01*
X14948753Y-14911698D02*
X14958277Y-14930746D01*
X14958277Y-14930746D02*
X14958277Y-14987888D01*
X14958277Y-14987888D02*
X14948753Y-15006936D01*
X14948753Y-15006936D02*
X14939230Y-15016460D01*
X14939230Y-15016460D02*
X14920182Y-15025984D01*
X14920182Y-15025984D02*
X14891610Y-15025984D01*
X15072563Y-15025984D02*
X15053515Y-15016460D01*
X15053515Y-15016460D02*
X15043991Y-14997412D01*
X15043991Y-14997412D02*
X15043991Y-14825984D01*
X15224944Y-15016460D02*
X15205896Y-15025984D01*
X15205896Y-15025984D02*
X15167801Y-15025984D01*
X15167801Y-15025984D02*
X15148753Y-15016460D01*
X15148753Y-15016460D02*
X15139230Y-14997412D01*
X15139230Y-14997412D02*
X15139230Y-14921222D01*
X15139230Y-14921222D02*
X15148753Y-14902174D01*
X15148753Y-14902174D02*
X15167801Y-14892650D01*
X15167801Y-14892650D02*
X15205896Y-14892650D01*
X15205896Y-14892650D02*
X15224944Y-14902174D01*
X15224944Y-14902174D02*
X15234468Y-14921222D01*
X15234468Y-14921222D02*
X15234468Y-14940269D01*
X15234468Y-14940269D02*
X15139230Y-14959317D01*
X15310658Y-15016460D02*
X15329706Y-15025984D01*
X15329706Y-15025984D02*
X15367801Y-15025984D01*
X15367801Y-15025984D02*
X15386849Y-15016460D01*
X15386849Y-15016460D02*
X15396372Y-14997412D01*
X15396372Y-14997412D02*
X15396372Y-14987888D01*
X15396372Y-14987888D02*
X15386849Y-14968841D01*
X15386849Y-14968841D02*
X15367801Y-14959317D01*
X15367801Y-14959317D02*
X15339230Y-14959317D01*
X15339230Y-14959317D02*
X15320182Y-14949793D01*
X15320182Y-14949793D02*
X15310658Y-14930746D01*
X15310658Y-14930746D02*
X15310658Y-14921222D01*
X15310658Y-14921222D02*
X15320182Y-14902174D01*
X15320182Y-14902174D02*
X15339230Y-14892650D01*
X15339230Y-14892650D02*
X15367801Y-14892650D01*
X15367801Y-14892650D02*
X15386849Y-14902174D01*
X15463039Y-15102174D02*
X15472563Y-15092650D01*
X15472563Y-15092650D02*
X15491611Y-15064079D01*
X15491611Y-15064079D02*
X15501134Y-15045031D01*
X15501134Y-15045031D02*
X15510658Y-15016460D01*
X15510658Y-15016460D02*
X15520182Y-14968841D01*
X15520182Y-14968841D02*
X15520182Y-14930746D01*
X15520182Y-14930746D02*
X15510658Y-14883127D01*
X15510658Y-14883127D02*
X15501134Y-14854555D01*
X15501134Y-14854555D02*
X15491611Y-14835508D01*
X15491611Y-14835508D02*
X15472563Y-14806936D01*
X15472563Y-14806936D02*
X15463039Y-14797412D01*
D13*
X10442500Y-15253500D02*
X10497500Y-15198500D01*
X10442500Y-15143500D01*
X10387500Y-15198500D01*
X10442500Y-15253500D01*
D10*
X10863039Y-15289984D02*
X10748753Y-15289984D01*
X10805896Y-15289984D02*
X10805896Y-15089984D01*
X10805896Y-15089984D02*
X10786848Y-15118555D01*
X10786848Y-15118555D02*
X10767801Y-15137603D01*
X10767801Y-15137603D02*
X10748753Y-15147127D01*
X10948753Y-15270936D02*
X10958277Y-15280460D01*
X10958277Y-15280460D02*
X10948753Y-15289984D01*
X10948753Y-15289984D02*
X10939229Y-15280460D01*
X10939229Y-15280460D02*
X10948753Y-15270936D01*
X10948753Y-15270936D02*
X10948753Y-15289984D01*
X11148753Y-15289984D02*
X11034467Y-15289984D01*
X11091610Y-15289984D02*
X11091610Y-15089984D01*
X11091610Y-15089984D02*
X11072563Y-15118555D01*
X11072563Y-15118555D02*
X11053515Y-15137603D01*
X11053515Y-15137603D02*
X11034467Y-15147127D01*
X11272562Y-15089984D02*
X11291610Y-15089984D01*
X11291610Y-15089984D02*
X11310658Y-15099508D01*
X11310658Y-15099508D02*
X11320182Y-15109031D01*
X11320182Y-15109031D02*
X11329705Y-15128079D01*
X11329705Y-15128079D02*
X11339229Y-15166174D01*
X11339229Y-15166174D02*
X11339229Y-15213793D01*
X11339229Y-15213793D02*
X11329705Y-15251888D01*
X11329705Y-15251888D02*
X11320182Y-15270936D01*
X11320182Y-15270936D02*
X11310658Y-15280460D01*
X11310658Y-15280460D02*
X11291610Y-15289984D01*
X11291610Y-15289984D02*
X11272562Y-15289984D01*
X11272562Y-15289984D02*
X11253515Y-15280460D01*
X11253515Y-15280460D02*
X11243991Y-15270936D01*
X11243991Y-15270936D02*
X11234467Y-15251888D01*
X11234467Y-15251888D02*
X11224943Y-15213793D01*
X11224943Y-15213793D02*
X11224943Y-15166174D01*
X11224943Y-15166174D02*
X11234467Y-15128079D01*
X11234467Y-15128079D02*
X11243991Y-15109031D01*
X11243991Y-15109031D02*
X11253515Y-15099508D01*
X11253515Y-15099508D02*
X11272562Y-15089984D01*
X11463039Y-15089984D02*
X11482086Y-15089984D01*
X11482086Y-15089984D02*
X11501134Y-15099508D01*
X11501134Y-15099508D02*
X11510658Y-15109031D01*
X11510658Y-15109031D02*
X11520182Y-15128079D01*
X11520182Y-15128079D02*
X11529705Y-15166174D01*
X11529705Y-15166174D02*
X11529705Y-15213793D01*
X11529705Y-15213793D02*
X11520182Y-15251888D01*
X11520182Y-15251888D02*
X11510658Y-15270936D01*
X11510658Y-15270936D02*
X11501134Y-15280460D01*
X11501134Y-15280460D02*
X11482086Y-15289984D01*
X11482086Y-15289984D02*
X11463039Y-15289984D01*
X11463039Y-15289984D02*
X11443991Y-15280460D01*
X11443991Y-15280460D02*
X11434467Y-15270936D01*
X11434467Y-15270936D02*
X11424943Y-15251888D01*
X11424943Y-15251888D02*
X11415420Y-15213793D01*
X11415420Y-15213793D02*
X11415420Y-15166174D01*
X11415420Y-15166174D02*
X11424943Y-15128079D01*
X11424943Y-15128079D02*
X11434467Y-15109031D01*
X11434467Y-15109031D02*
X11443991Y-15099508D01*
X11443991Y-15099508D02*
X11463039Y-15089984D01*
X11615420Y-15289984D02*
X11615420Y-15156650D01*
X11615420Y-15175698D02*
X11624943Y-15166174D01*
X11624943Y-15166174D02*
X11643991Y-15156650D01*
X11643991Y-15156650D02*
X11672563Y-15156650D01*
X11672563Y-15156650D02*
X11691610Y-15166174D01*
X11691610Y-15166174D02*
X11701134Y-15185222D01*
X11701134Y-15185222D02*
X11701134Y-15289984D01*
X11701134Y-15185222D02*
X11710658Y-15166174D01*
X11710658Y-15166174D02*
X11729705Y-15156650D01*
X11729705Y-15156650D02*
X11758277Y-15156650D01*
X11758277Y-15156650D02*
X11777324Y-15166174D01*
X11777324Y-15166174D02*
X11786848Y-15185222D01*
X11786848Y-15185222D02*
X11786848Y-15289984D01*
X11882086Y-15289984D02*
X11882086Y-15156650D01*
X11882086Y-15175698D02*
X11891610Y-15166174D01*
X11891610Y-15166174D02*
X11910658Y-15156650D01*
X11910658Y-15156650D02*
X11939229Y-15156650D01*
X11939229Y-15156650D02*
X11958277Y-15166174D01*
X11958277Y-15166174D02*
X11967801Y-15185222D01*
X11967801Y-15185222D02*
X11967801Y-15289984D01*
X11967801Y-15185222D02*
X11977324Y-15166174D01*
X11977324Y-15166174D02*
X11996372Y-15156650D01*
X11996372Y-15156650D02*
X12024943Y-15156650D01*
X12024943Y-15156650D02*
X12043991Y-15166174D01*
X12043991Y-15166174D02*
X12053515Y-15185222D01*
X12053515Y-15185222D02*
X12053515Y-15289984D01*
X12443991Y-15080460D02*
X12272563Y-15337603D01*
X12701134Y-15089984D02*
X12720182Y-15089984D01*
X12720182Y-15089984D02*
X12739229Y-15099508D01*
X12739229Y-15099508D02*
X12748753Y-15109031D01*
X12748753Y-15109031D02*
X12758277Y-15128079D01*
X12758277Y-15128079D02*
X12767801Y-15166174D01*
X12767801Y-15166174D02*
X12767801Y-15213793D01*
X12767801Y-15213793D02*
X12758277Y-15251888D01*
X12758277Y-15251888D02*
X12748753Y-15270936D01*
X12748753Y-15270936D02*
X12739229Y-15280460D01*
X12739229Y-15280460D02*
X12720182Y-15289984D01*
X12720182Y-15289984D02*
X12701134Y-15289984D01*
X12701134Y-15289984D02*
X12682086Y-15280460D01*
X12682086Y-15280460D02*
X12672563Y-15270936D01*
X12672563Y-15270936D02*
X12663039Y-15251888D01*
X12663039Y-15251888D02*
X12653515Y-15213793D01*
X12653515Y-15213793D02*
X12653515Y-15166174D01*
X12653515Y-15166174D02*
X12663039Y-15128079D01*
X12663039Y-15128079D02*
X12672563Y-15109031D01*
X12672563Y-15109031D02*
X12682086Y-15099508D01*
X12682086Y-15099508D02*
X12701134Y-15089984D01*
X12853515Y-15270936D02*
X12863039Y-15280460D01*
X12863039Y-15280460D02*
X12853515Y-15289984D01*
X12853515Y-15289984D02*
X12843991Y-15280460D01*
X12843991Y-15280460D02*
X12853515Y-15270936D01*
X12853515Y-15270936D02*
X12853515Y-15289984D01*
X12986848Y-15089984D02*
X13005896Y-15089984D01*
X13005896Y-15089984D02*
X13024944Y-15099508D01*
X13024944Y-15099508D02*
X13034467Y-15109031D01*
X13034467Y-15109031D02*
X13043991Y-15128079D01*
X13043991Y-15128079D02*
X13053515Y-15166174D01*
X13053515Y-15166174D02*
X13053515Y-15213793D01*
X13053515Y-15213793D02*
X13043991Y-15251888D01*
X13043991Y-15251888D02*
X13034467Y-15270936D01*
X13034467Y-15270936D02*
X13024944Y-15280460D01*
X13024944Y-15280460D02*
X13005896Y-15289984D01*
X13005896Y-15289984D02*
X12986848Y-15289984D01*
X12986848Y-15289984D02*
X12967801Y-15280460D01*
X12967801Y-15280460D02*
X12958277Y-15270936D01*
X12958277Y-15270936D02*
X12948753Y-15251888D01*
X12948753Y-15251888D02*
X12939229Y-15213793D01*
X12939229Y-15213793D02*
X12939229Y-15166174D01*
X12939229Y-15166174D02*
X12948753Y-15128079D01*
X12948753Y-15128079D02*
X12958277Y-15109031D01*
X12958277Y-15109031D02*
X12967801Y-15099508D01*
X12967801Y-15099508D02*
X12986848Y-15089984D01*
X13224944Y-15156650D02*
X13224944Y-15289984D01*
X13177325Y-15080460D02*
X13129706Y-15223317D01*
X13129706Y-15223317D02*
X13253515Y-15223317D01*
X13310658Y-15089984D02*
X13434467Y-15089984D01*
X13434467Y-15089984D02*
X13367801Y-15166174D01*
X13367801Y-15166174D02*
X13396372Y-15166174D01*
X13396372Y-15166174D02*
X13415420Y-15175698D01*
X13415420Y-15175698D02*
X13424944Y-15185222D01*
X13424944Y-15185222D02*
X13434467Y-15204269D01*
X13434467Y-15204269D02*
X13434467Y-15251888D01*
X13434467Y-15251888D02*
X13424944Y-15270936D01*
X13424944Y-15270936D02*
X13415420Y-15280460D01*
X13415420Y-15280460D02*
X13396372Y-15289984D01*
X13396372Y-15289984D02*
X13339229Y-15289984D01*
X13339229Y-15289984D02*
X13320182Y-15280460D01*
X13320182Y-15280460D02*
X13310658Y-15270936D01*
X13501134Y-15089984D02*
X13624944Y-15089984D01*
X13624944Y-15089984D02*
X13558277Y-15166174D01*
X13558277Y-15166174D02*
X13586848Y-15166174D01*
X13586848Y-15166174D02*
X13605896Y-15175698D01*
X13605896Y-15175698D02*
X13615420Y-15185222D01*
X13615420Y-15185222D02*
X13624944Y-15204269D01*
X13624944Y-15204269D02*
X13624944Y-15251888D01*
X13624944Y-15251888D02*
X13615420Y-15270936D01*
X13615420Y-15270936D02*
X13605896Y-15280460D01*
X13605896Y-15280460D02*
X13586848Y-15289984D01*
X13586848Y-15289984D02*
X13529706Y-15289984D01*
X13529706Y-15289984D02*
X13510658Y-15280460D01*
X13510658Y-15280460D02*
X13501134Y-15270936D01*
X13701134Y-15089984D02*
X13701134Y-15128079D01*
X13777325Y-15089984D02*
X13777325Y-15128079D01*
X14072563Y-15366174D02*
X14063039Y-15356650D01*
X14063039Y-15356650D02*
X14043991Y-15328079D01*
X14043991Y-15328079D02*
X14034468Y-15309031D01*
X14034468Y-15309031D02*
X14024944Y-15280460D01*
X14024944Y-15280460D02*
X14015420Y-15232841D01*
X14015420Y-15232841D02*
X14015420Y-15194746D01*
X14015420Y-15194746D02*
X14024944Y-15147127D01*
X14024944Y-15147127D02*
X14034468Y-15118555D01*
X14034468Y-15118555D02*
X14043991Y-15099508D01*
X14043991Y-15099508D02*
X14063039Y-15070936D01*
X14063039Y-15070936D02*
X14072563Y-15061412D01*
X14234468Y-15156650D02*
X14234468Y-15289984D01*
X14186848Y-15080460D02*
X14139229Y-15223317D01*
X14139229Y-15223317D02*
X14263039Y-15223317D01*
X14491610Y-15289984D02*
X14491610Y-15089984D01*
X14577325Y-15289984D02*
X14577325Y-15185222D01*
X14577325Y-15185222D02*
X14567801Y-15166174D01*
X14567801Y-15166174D02*
X14548753Y-15156650D01*
X14548753Y-15156650D02*
X14520182Y-15156650D01*
X14520182Y-15156650D02*
X14501134Y-15166174D01*
X14501134Y-15166174D02*
X14491610Y-15175698D01*
X14701134Y-15289984D02*
X14682087Y-15280460D01*
X14682087Y-15280460D02*
X14672563Y-15270936D01*
X14672563Y-15270936D02*
X14663039Y-15251888D01*
X14663039Y-15251888D02*
X14663039Y-15194746D01*
X14663039Y-15194746D02*
X14672563Y-15175698D01*
X14672563Y-15175698D02*
X14682087Y-15166174D01*
X14682087Y-15166174D02*
X14701134Y-15156650D01*
X14701134Y-15156650D02*
X14729706Y-15156650D01*
X14729706Y-15156650D02*
X14748753Y-15166174D01*
X14748753Y-15166174D02*
X14758277Y-15175698D01*
X14758277Y-15175698D02*
X14767801Y-15194746D01*
X14767801Y-15194746D02*
X14767801Y-15251888D01*
X14767801Y-15251888D02*
X14758277Y-15270936D01*
X14758277Y-15270936D02*
X14748753Y-15280460D01*
X14748753Y-15280460D02*
X14729706Y-15289984D01*
X14729706Y-15289984D02*
X14701134Y-15289984D01*
X14882087Y-15289984D02*
X14863039Y-15280460D01*
X14863039Y-15280460D02*
X14853515Y-15261412D01*
X14853515Y-15261412D02*
X14853515Y-15089984D01*
X15034468Y-15280460D02*
X15015420Y-15289984D01*
X15015420Y-15289984D02*
X14977325Y-15289984D01*
X14977325Y-15289984D02*
X14958277Y-15280460D01*
X14958277Y-15280460D02*
X14948753Y-15261412D01*
X14948753Y-15261412D02*
X14948753Y-15185222D01*
X14948753Y-15185222D02*
X14958277Y-15166174D01*
X14958277Y-15166174D02*
X14977325Y-15156650D01*
X14977325Y-15156650D02*
X15015420Y-15156650D01*
X15015420Y-15156650D02*
X15034468Y-15166174D01*
X15034468Y-15166174D02*
X15043991Y-15185222D01*
X15043991Y-15185222D02*
X15043991Y-15204269D01*
X15043991Y-15204269D02*
X14948753Y-15223317D01*
X15120182Y-15280460D02*
X15139230Y-15289984D01*
X15139230Y-15289984D02*
X15177325Y-15289984D01*
X15177325Y-15289984D02*
X15196372Y-15280460D01*
X15196372Y-15280460D02*
X15205896Y-15261412D01*
X15205896Y-15261412D02*
X15205896Y-15251888D01*
X15205896Y-15251888D02*
X15196372Y-15232841D01*
X15196372Y-15232841D02*
X15177325Y-15223317D01*
X15177325Y-15223317D02*
X15148753Y-15223317D01*
X15148753Y-15223317D02*
X15129706Y-15213793D01*
X15129706Y-15213793D02*
X15120182Y-15194746D01*
X15120182Y-15194746D02*
X15120182Y-15185222D01*
X15120182Y-15185222D02*
X15129706Y-15166174D01*
X15129706Y-15166174D02*
X15148753Y-15156650D01*
X15148753Y-15156650D02*
X15177325Y-15156650D01*
X15177325Y-15156650D02*
X15196372Y-15166174D01*
X15272563Y-15366174D02*
X15282087Y-15356650D01*
X15282087Y-15356650D02*
X15301134Y-15328079D01*
X15301134Y-15328079D02*
X15310658Y-15309031D01*
X15310658Y-15309031D02*
X15320182Y-15280460D01*
X15320182Y-15280460D02*
X15329706Y-15232841D01*
X15329706Y-15232841D02*
X15329706Y-15194746D01*
X15329706Y-15194746D02*
X15320182Y-15147127D01*
X15320182Y-15147127D02*
X15310658Y-15118555D01*
X15310658Y-15118555D02*
X15301134Y-15099508D01*
X15301134Y-15099508D02*
X15282087Y-15070936D01*
X15282087Y-15070936D02*
X15272563Y-15061412D01*
M02*
