M48
; DRILL file {KiCad 9.0.2} date 2025-07-08T09:36:59-0300
; FORMAT={-:-/ absolute / metric / decimal}
; #@! TF.CreationDate,2025-07-08T09:36:59-03:00
; #@! TF.GenerationSoftware,Kicad,Pcbnew,9.0.2
; #@! TF.FileFunction,Plated,1,2,PTH
FMAT,2
METRIC
; #@! TA.AperFunction,Plated,PTH,ViaDrill
T1C0.650
; #@! TA.AperFunction,Plated,PTH,ComponentDrill
T2C0.700
; #@! TA.AperFunction,Plated,PTH,ComponentDrill
T3C0.900
; #@! TA.AperFunction,Plated,PTH,ComponentDrill
T4C1.000
; #@! TA.AperFunction,Plated,PTH,ComponentDrill
T5C1.100
%
G90
G05
T1
X151.865Y-118.84
X151.87Y-131.74
X155.83Y-121.6
X155.92Y-131.73
X159.88Y-116.82
X159.88Y-124.5
X163.84Y-112.71
X163.88Y-129.5
T2
X108.115Y-121.53
X108.115Y-126.61
T3
X108.115Y-113.1
X108.115Y-115.64
T4
X107.5Y-92.41
X107.5Y-97.0
X112.0Y-82.0
X112.0Y-84.54
X112.0Y-87.08
X112.0Y-89.62
X112.0Y-100.0
X112.0Y-102.54
X112.0Y-105.08
X112.0Y-107.62
X118.0Y-91.0
X118.0Y-93.54
X118.0Y-96.08
X118.0Y-98.62
X124.71Y-83.46
X124.71Y-86.0
X124.71Y-88.54
X124.71Y-91.08
X124.71Y-93.62
X124.71Y-96.16
X124.71Y-98.7
X124.71Y-101.24
X124.71Y-103.78
X124.71Y-106.32
X124.71Y-108.86
X124.71Y-111.4
X124.71Y-113.94
X124.71Y-116.48
X124.71Y-119.02
X124.71Y-121.56
X124.71Y-124.1
X124.71Y-126.64
X124.71Y-129.18
X124.71Y-131.72
X134.184Y-113.29
X136.724Y-113.29
X139.264Y-113.29
X142.49Y-83.46
X142.49Y-86.0
X142.49Y-88.54
X142.49Y-91.08
X142.49Y-93.62
X142.49Y-96.16
X142.49Y-98.7
X142.49Y-101.24
X142.49Y-103.78
X142.49Y-106.32
X142.49Y-108.86
X142.49Y-111.4
X142.49Y-113.94
X142.49Y-116.48
X142.49Y-119.02
X142.49Y-121.56
X142.49Y-124.1
X142.49Y-126.64
X142.49Y-129.18
X142.49Y-131.72
X166.84Y-126.96
X166.84Y-129.5
X169.38Y-126.96
X169.38Y-129.5
X171.92Y-126.96
X171.92Y-129.5
X174.46Y-126.96
X174.46Y-129.5
X177.0Y-126.96
X177.0Y-129.5
T5
X111.865Y-124.63
X111.865Y-129.13
X118.365Y-124.63
X118.365Y-129.13
M30
