%TF.GenerationSoftware,KiCad,Pcbnew,9.0.2*%
%TF.CreationDate,2025-08-18T10:06:56-03:00*%
%TF.ProjectId,RadProt_IOT,52616450-726f-4745-9f49-4f542e6b6963,rev?*%
%TF.SameCoordinates,Original*%
%TF.FileFunction,Copper,L2,Bot*%
%TF.FilePolarity,Positive*%
%FSLAX46Y46*%
G04 Gerber Fmt 4.6, Leading zero omitted, Abs format (unit mm)*
G04 Created by KiCad (PCBNEW 9.0.2) date 2025-08-18 10:06:56*
%MOMM*%
%LPD*%
G01*
G04 APERTURE LIST*
G04 Aperture macros list*
%AMRoundRect*
0 Rectangle with rounded corners*
0 $1 Rounding radius*
0 $2 $3 $4 $5 $6 $7 $8 $9 X,Y pos of 4 corners*
0 Add a 4 corners polygon primitive as box body*
4,1,4,$2,$3,$4,$5,$6,$7,$8,$9,$2,$3,0*
0 Add four circle primitives for the rounded corners*
1,1,$1+$1,$2,$3*
1,1,$1+$1,$4,$5*
1,1,$1+$1,$6,$7*
1,1,$1+$1,$8,$9*
0 Add four rect primitives between the rounded corners*
20,1,$1+$1,$2,$3,$4,$5,0*
20,1,$1+$1,$4,$5,$6,$7,0*
20,1,$1+$1,$6,$7,$8,$9,0*
20,1,$1+$1,$8,$9,$2,$3,0*%
%AMFreePoly0*
4,1,37,0.800000,0.796148,0.878414,0.796148,1.032228,0.765552,1.177117,0.705537,1.307515,0.618408,1.418408,0.507515,1.505537,0.377117,1.565552,0.232228,1.596148,0.078414,1.596148,-0.078414,1.565552,-0.232228,1.505537,-0.377117,1.418408,-0.507515,1.307515,-0.618408,1.177117,-0.705537,1.032228,-0.765552,0.878414,-0.796148,0.800000,-0.796148,0.800000,-0.800000,-1.400000,-0.800000,
-1.403843,-0.796157,-1.439018,-0.796157,-1.511114,-0.766294,-1.566294,-0.711114,-1.596157,-0.639018,-1.596157,-0.603843,-1.600000,-0.600000,-1.600000,0.600000,-1.596157,0.603843,-1.596157,0.639018,-1.566294,0.711114,-1.511114,0.766294,-1.439018,0.796157,-1.403843,0.796157,-1.400000,0.800000,0.800000,0.800000,0.800000,0.796148,0.800000,0.796148,$1*%
%AMFreePoly1*
4,1,37,1.403843,0.796157,1.439018,0.796157,1.511114,0.766294,1.566294,0.711114,1.596157,0.639018,1.596157,0.603843,1.600000,0.600000,1.600000,-0.600000,1.596157,-0.603843,1.596157,-0.639018,1.566294,-0.711114,1.511114,-0.766294,1.439018,-0.796157,1.403843,-0.796157,1.400000,-0.800000,-0.800000,-0.800000,-0.800000,-0.796148,-0.878414,-0.796148,-1.032228,-0.765552,-1.177117,-0.705537,
-1.307515,-0.618408,-1.418408,-0.507515,-1.505537,-0.377117,-1.565552,-0.232228,-1.596148,-0.078414,-1.596148,0.078414,-1.565552,0.232228,-1.505537,0.377117,-1.418408,0.507515,-1.307515,0.618408,-1.177117,0.705537,-1.032228,0.765552,-0.878414,0.796148,-0.800000,0.796148,-0.800000,0.800000,1.400000,0.800000,1.403843,0.796157,1.403843,0.796157,$1*%
G04 Aperture macros list end*
%TA.AperFunction,ComponentPad*%
%ADD10R,1.800000X1.800000*%
%TD*%
%TA.AperFunction,ComponentPad*%
%ADD11C,1.800000*%
%TD*%
%TA.AperFunction,ComponentPad*%
%ADD12C,2.000000*%
%TD*%
%TA.AperFunction,ComponentPad*%
%ADD13R,1.700000X1.700000*%
%TD*%
%TA.AperFunction,ComponentPad*%
%ADD14C,1.700000*%
%TD*%
%TA.AperFunction,ComponentPad*%
%ADD15C,1.400000*%
%TD*%
%TA.AperFunction,ComponentPad*%
%ADD16FreePoly0,0.000000*%
%TD*%
%TA.AperFunction,ComponentPad*%
%ADD17RoundRect,0.800000X-0.800000X-0.000010X0.800000X-0.000010X0.800000X0.000010X-0.800000X0.000010X0*%
%TD*%
%TA.AperFunction,ComponentPad*%
%ADD18FreePoly1,0.000000*%
%TD*%
%TA.AperFunction,ComponentPad*%
%ADD19RoundRect,0.200000X-0.600000X-0.600000X0.600000X-0.600000X0.600000X0.600000X-0.600000X0.600000X0*%
%TD*%
%TA.AperFunction,ComponentPad*%
%ADD20C,1.600000*%
%TD*%
%TA.AperFunction,ViaPad*%
%ADD21C,1.700000*%
%TD*%
%TA.AperFunction,ViaPad*%
%ADD22C,1.500000*%
%TD*%
%TA.AperFunction,Conductor*%
%ADD23C,1.000000*%
%TD*%
G04 APERTURE END LIST*
D10*
%TO.P,D2,1,K*%
%TO.N,Net-(D2-K)*%
X117140000Y-95860000D03*
D11*
%TO.P,D2,2,A*%
%TO.N,+5V*%
X117140000Y-93320000D03*
%TD*%
D12*
%TO.P,SW1,1,1*%
%TO.N,GND*%
X114000000Y-126570000D03*
X120500000Y-126570000D03*
%TO.P,SW1,2,2*%
%TO.N,Net-(U1-GPIO15)*%
X114000000Y-131070000D03*
X120500000Y-131070000D03*
%TD*%
D13*
%TO.P,UART0,1,Pin_1*%
%TO.N,+5V*%
X107000000Y-91260000D03*
D14*
%TO.P,UART0,2,Pin_2*%
%TO.N,/UART0_RX*%
X107000000Y-88720000D03*
%TO.P,UART0,3,Pin_3*%
%TO.N,unconnected-(UART0-Pin_3-Pad3)*%
X107000000Y-86180000D03*
%TO.P,UART0,4,Pin_4*%
%TO.N,GND*%
X107000000Y-83640000D03*
%TD*%
%TO.P,J1,CLKOUT,CLKOUT*%
%TO.N,unconnected-(J1-PadCLKOUT)*%
X177000000Y-129240000D03*
%TO.P,J1,CS,CS*%
%TO.N,Net-(U1-GPIO17)*%
X169380000Y-129240000D03*
D13*
%TO.P,J1,GND,GND*%
%TO.N,GND*%
X166840000Y-126700000D03*
D14*
%TO.P,J1,INT,INT*%
%TO.N,Net-(U1-GPIO21)*%
X177000000Y-126700000D03*
%TO.P,J1,RESET,RESET*%
%TO.N,Net-(U1-GPIO20)*%
X169380000Y-126700000D03*
%TO.P,J1,SCK,SCK*%
%TO.N,Net-(U1-GPIO18)*%
X171920000Y-126700000D03*
%TO.P,J1,SI,SI*%
%TO.N,Net-(U1-GPIO19)*%
X171920000Y-129240000D03*
%TO.P,J1,SO,SO*%
%TO.N,Net-(U1-GPIO16)*%
X174460000Y-126700000D03*
%TO.P,J1,VCC,VCC*%
%TO.N,Net-(U1-3V3)*%
X166840000Y-129240000D03*
%TO.P,J1,WOL,WOL*%
%TO.N,unconnected-(J1-PadWOL)*%
X174460000Y-129240000D03*
%TD*%
D13*
%TO.P,UART2,1,Pin_1*%
%TO.N,+5V*%
X107000000Y-124100000D03*
D14*
%TO.P,UART2,2,Pin_2*%
%TO.N,/UART2_RX*%
X107000000Y-121560000D03*
%TO.P,UART2,3,Pin_3*%
%TO.N,unconnected-(UART2-Pin_3-Pad3)*%
X107000000Y-119020000D03*
%TO.P,UART2,4,Pin_4*%
%TO.N,GND*%
X107000000Y-116480000D03*
%TD*%
D15*
%TO.P,R2,1*%
%TO.N,Net-(D2-K)*%
X106970000Y-101510000D03*
%TO.P,R2,2*%
%TO.N,GND*%
X106970000Y-109130000D03*
%TD*%
D13*
%TO.P,J5,1,Pin_1*%
%TO.N,+5V*%
X115290000Y-81000000D03*
%TD*%
%TO.P,UART3,1,Pin_1*%
%TO.N,+5V*%
X106975000Y-157120000D03*
D14*
%TO.P,UART3,2,Pin_2*%
%TO.N,/UART3_RX*%
X106975000Y-154580000D03*
%TO.P,UART3,3,Pin_3*%
%TO.N,unconnected-(UART3-Pin_3-Pad3)*%
X106975000Y-152040000D03*
%TO.P,UART3,4,Pin_4*%
%TO.N,GND*%
X106975000Y-149500000D03*
%TD*%
D16*
%TO.P,U1,1,GPIO0*%
%TO.N,/UART0_TX*%
X124710000Y-83460000D03*
D17*
%TO.P,U1,2,GPIO1*%
%TO.N,/UART0_RX*%
X124710000Y-86000000D03*
D18*
%TO.P,U1,3,GND*%
%TO.N,GND*%
X124710000Y-88540000D03*
D17*
%TO.P,U1,4,GPIO2*%
%TO.N,/UART2_TX*%
X124710000Y-91080000D03*
%TO.P,U1,5,GPIO3*%
%TO.N,/UART2_RX*%
X124710000Y-93620000D03*
%TO.P,U1,6,GPIO4*%
%TO.N,/UART1_TX*%
X124710000Y-96160000D03*
%TO.P,U1,7,GPIO5*%
%TO.N,/UART1_RX*%
X124710000Y-98700000D03*
D18*
%TO.P,U1,8,GND*%
%TO.N,GND*%
X124710000Y-101240000D03*
D17*
%TO.P,U1,9,GPIO6*%
%TO.N,/UART3_TX*%
X124710000Y-103780000D03*
%TO.P,U1,10,GPIO7*%
%TO.N,/UART3_RX*%
X124710000Y-106320000D03*
%TO.P,U1,11,GPIO8*%
%TO.N,unconnected-(U1-GPIO8-Pad11)*%
X124710000Y-108860000D03*
%TO.P,U1,12,GPIO9*%
%TO.N,Net-(D1-A)*%
X124710000Y-111400000D03*
D18*
%TO.P,U1,13,GND*%
%TO.N,GND*%
X124710000Y-113940000D03*
D17*
%TO.P,U1,14,GPIO10*%
%TO.N,unconnected-(U1-GPIO10-Pad14)*%
X124710000Y-116480000D03*
%TO.P,U1,15,GPIO11*%
%TO.N,unconnected-(U1-GPIO11-Pad15)*%
X124710000Y-119020000D03*
%TO.P,U1,16,GPIO12*%
%TO.N,unconnected-(U1-GPIO12-Pad16)*%
X124710000Y-121560000D03*
%TO.P,U1,17,GPIO13*%
%TO.N,unconnected-(U1-GPIO13-Pad17)*%
X124710000Y-124100000D03*
D18*
%TO.P,U1,18,GND*%
%TO.N,GND*%
X124710000Y-126640000D03*
D17*
%TO.P,U1,19,GPIO14*%
%TO.N,unconnected-(U1-GPIO14-Pad19)*%
X124710000Y-129180000D03*
%TO.P,U1,20,GPIO15*%
%TO.N,Net-(U1-GPIO15)*%
X124710000Y-131720000D03*
%TO.P,U1,21,GPIO16*%
%TO.N,Net-(U1-GPIO16)*%
X142490000Y-131720000D03*
%TO.P,U1,22,GPIO17*%
%TO.N,Net-(U1-GPIO17)*%
X142490000Y-129180000D03*
D16*
%TO.P,U1,23,GND*%
%TO.N,GND*%
X142490000Y-126640000D03*
D17*
%TO.P,U1,24,GPIO18*%
%TO.N,Net-(U1-GPIO18)*%
X142490000Y-124100000D03*
%TO.P,U1,25,GPIO19*%
%TO.N,Net-(U1-GPIO19)*%
X142490000Y-121560000D03*
%TO.P,U1,26,GPIO20*%
%TO.N,Net-(U1-GPIO20)*%
X142490000Y-119020000D03*
%TO.P,U1,27,GPIO21*%
%TO.N,Net-(U1-GPIO21)*%
X142490000Y-116480000D03*
D16*
%TO.P,U1,28,GND*%
%TO.N,GND*%
X142490000Y-113940000D03*
D17*
%TO.P,U1,29,GPIO22*%
%TO.N,unconnected-(U1-GPIO22-Pad29)*%
X142490000Y-111400000D03*
%TO.P,U1,30,RUN*%
%TO.N,unconnected-(U1-RUN-Pad30)*%
X142490000Y-108860000D03*
%TO.P,U1,31,GPIO26_ADC0*%
%TO.N,unconnected-(U1-GPIO26_ADC0-Pad31)*%
X142490000Y-106320000D03*
%TO.P,U1,32,GPIO27_ADC1*%
%TO.N,unconnected-(U1-GPIO27_ADC1-Pad32)*%
X142490000Y-103780000D03*
D16*
%TO.P,U1,33,AGND*%
%TO.N,unconnected-(U1-AGND-Pad33)*%
X142490000Y-101240000D03*
D17*
%TO.P,U1,34,GPIO28_ADC2*%
%TO.N,unconnected-(U1-GPIO28_ADC2-Pad34)*%
X142490000Y-98700000D03*
%TO.P,U1,35,ADC_VREF*%
%TO.N,unconnected-(U1-ADC_VREF-Pad35)*%
X142490000Y-96160000D03*
%TO.P,U1,36,3V3*%
%TO.N,Net-(U1-3V3)*%
X142490000Y-93620000D03*
%TO.P,U1,37,3V3_EN*%
%TO.N,unconnected-(U1-3V3_EN-Pad37)*%
X142490000Y-91080000D03*
D16*
%TO.P,U1,38,GND*%
%TO.N,GND*%
X142490000Y-88540000D03*
D17*
%TO.P,U1,39,VSYS*%
%TO.N,+5V*%
X142490000Y-86000000D03*
%TO.P,U1,40,VBUS*%
%TO.N,unconnected-(U1-VBUS-Pad40)*%
X142490000Y-83460000D03*
D19*
%TO.P,U1,D1*%
%TO.N,N/C*%
X134184100Y-113290000D03*
D20*
%TO.P,U1,D2*%
X136724100Y-113290000D03*
%TO.P,U1,D3*%
X139264100Y-113290000D03*
%TD*%
D15*
%TO.P,R1,1*%
%TO.N,Net-(D1-K)*%
X117130000Y-116320000D03*
%TO.P,R1,2*%
%TO.N,GND*%
X117130000Y-123940000D03*
%TD*%
D13*
%TO.P,J6,1,Pin_1*%
%TO.N,GND*%
X115290000Y-88500000D03*
%TD*%
D10*
%TO.P,D1,1,K*%
%TO.N,Net-(D1-K)*%
X117140000Y-113920000D03*
D11*
%TO.P,D1,2,A*%
%TO.N,Net-(D1-A)*%
X117140000Y-111380000D03*
%TD*%
D21*
%TO.N,GND*%
X119800000Y-83600000D03*
X119800000Y-88500000D03*
D22*
%TO.N,Net-(U1-3V3)*%
X163879000Y-129300000D03*
X163840000Y-112710000D03*
%TO.N,Net-(U1-GPIO19)*%
X155920000Y-131730000D03*
X155830000Y-121600000D03*
%TO.N,Net-(U1-GPIO20)*%
X159880000Y-119100000D03*
X159880000Y-124500000D03*
%TO.N,Net-(U1-GPIO16)*%
X151870000Y-131740000D03*
X151865000Y-116900000D03*
%TD*%
D23*
%TO.N,/UART3_RX*%
X106975000Y-154580000D02*
X105271000Y-154580000D01*
X115700000Y-106320000D02*
X124710000Y-106320000D01*
X112300000Y-123002000D02*
X112300000Y-109720000D01*
X104761000Y-154070000D02*
X104761000Y-130541000D01*
X112300000Y-109720000D02*
X115700000Y-106320000D01*
X105271000Y-154580000D02*
X104761000Y-154070000D01*
X104761000Y-130541000D02*
X112300000Y-123002000D01*
%TO.N,GND*%
X124710000Y-101240000D02*
X124690000Y-101220000D01*
X117130000Y-126410000D02*
X116900000Y-126640000D01*
X117130000Y-123940000D02*
X117130000Y-126410000D01*
X120490000Y-126560000D02*
X120500000Y-126570000D01*
X124670000Y-88500000D02*
X124710000Y-88540000D01*
X142490000Y-88540000D02*
X124710000Y-88540000D01*
X115290000Y-88500000D02*
X119800000Y-88500000D01*
X116900000Y-126640000D02*
X114040000Y-126640000D01*
X117410000Y-126630000D02*
X117400000Y-126640000D01*
X117400000Y-126640000D02*
X116900000Y-126640000D01*
X142810000Y-126960000D02*
X142490000Y-126640000D01*
X142490000Y-126640000D02*
X166520000Y-126640000D01*
X119800000Y-88500000D02*
X124670000Y-88500000D01*
X107000000Y-83640000D02*
X119760000Y-83640000D01*
X114040000Y-126640000D02*
X113920000Y-126760000D01*
X124630000Y-88620000D02*
X124710000Y-88540000D01*
X124710000Y-126640000D02*
X117400000Y-126640000D01*
X119760000Y-83640000D02*
X119800000Y-83600000D01*
%TO.N,/UART0_RX*%
X124710000Y-86000000D02*
X112220000Y-86000000D01*
X112220000Y-86000000D02*
X109500000Y-88720000D01*
X124550000Y-86160000D02*
X124710000Y-86000000D01*
X109500000Y-88720000D02*
X107000000Y-88720000D01*
%TO.N,/UART2_RX*%
X109769000Y-108191000D02*
X114060000Y-103900000D01*
X121300000Y-102500000D02*
X121300000Y-95430000D01*
X123800000Y-93540000D02*
X123920000Y-93660000D01*
X119900000Y-103900000D02*
X121300000Y-102500000D01*
X108440000Y-121560000D02*
X109769000Y-120231000D01*
X107000000Y-121560000D02*
X108440000Y-121560000D01*
X109769000Y-120231000D02*
X109769000Y-108191000D01*
X114060000Y-103900000D02*
X119900000Y-103900000D01*
X123110000Y-93620000D02*
X124710000Y-93620000D01*
X121300000Y-95430000D02*
X123110000Y-93620000D01*
%TO.N,+5V*%
X103170000Y-91260000D02*
X103010000Y-91100000D01*
X145980000Y-86000000D02*
X147000000Y-84980000D01*
X147000000Y-82000000D02*
X146001000Y-81001000D01*
X103010000Y-148660000D02*
X103010000Y-154906000D01*
X107000000Y-91260000D02*
X103170000Y-91260000D01*
X114530000Y-93320000D02*
X117140000Y-93320000D01*
X107000000Y-124100000D02*
X103010000Y-124100000D01*
X112470000Y-91260000D02*
X114530000Y-93320000D01*
X104510000Y-81000000D02*
X103010000Y-82500000D01*
X106975000Y-157120000D02*
X105224000Y-157120000D01*
X103010000Y-124100000D02*
X103010000Y-148660000D01*
X103010000Y-154906000D02*
X105224000Y-157120000D01*
X103010000Y-91100000D02*
X103010000Y-116770000D01*
X107000000Y-91260000D02*
X112470000Y-91260000D01*
X146001000Y-81001000D02*
X120290000Y-81001000D01*
X120289000Y-81000000D02*
X104510000Y-81000000D01*
X120290000Y-81001000D02*
X120289000Y-81000000D01*
X103010000Y-82500000D02*
X103010000Y-91100000D01*
X103010000Y-116770000D02*
X103010000Y-124100000D01*
X142490000Y-86000000D02*
X145980000Y-86000000D01*
X147000000Y-84980000D02*
X147000000Y-82000000D01*
%TO.N,Net-(D1-A)*%
X119420000Y-111390000D02*
X118500000Y-111390000D01*
X117140000Y-111380000D02*
X119410000Y-111380000D01*
X123300000Y-111390000D02*
X119420000Y-111390000D01*
X119410000Y-111380000D02*
X119420000Y-111390000D01*
%TO.N,Net-(U1-3V3)*%
X163840000Y-112710000D02*
X149010000Y-112710000D01*
X146970000Y-95720000D02*
X144910000Y-93660000D01*
X166840000Y-129240000D02*
X163939000Y-129240000D01*
X163939000Y-129240000D02*
X163879000Y-129300000D01*
X144910000Y-93660000D02*
X143300000Y-93660000D01*
X146970000Y-110670000D02*
X146970000Y-95720000D01*
X149010000Y-112710000D02*
X146970000Y-110670000D01*
%TO.N,Net-(U1-GPIO21)*%
X143300000Y-116520000D02*
X147253712Y-116520000D01*
X170219000Y-114819000D02*
X177000000Y-121600000D01*
X177000000Y-121600000D02*
X177000000Y-126700000D01*
X147253712Y-116520000D02*
X148954712Y-114819000D01*
X148954712Y-114819000D02*
X170219000Y-114819000D01*
%TO.N,Net-(U1-GPIO19)*%
X171920000Y-130991922D02*
X171920000Y-129500000D01*
X169559881Y-133352041D02*
X171920000Y-130991922D01*
X154810000Y-121600000D02*
X155830000Y-121600000D01*
X159725918Y-131730000D02*
X155920000Y-131730000D01*
X143300000Y-121600000D02*
X154810000Y-121600000D01*
X161347959Y-133352041D02*
X159725918Y-131730000D01*
X161347959Y-133352041D02*
X169559881Y-133352041D01*
%TO.N,Net-(U1-GPIO20)*%
X159800000Y-119020000D02*
X159880000Y-119100000D01*
X168489000Y-124609000D02*
X169380000Y-125500000D01*
X142490000Y-119020000D02*
X159800000Y-119020000D01*
X169380000Y-126700000D02*
X169380000Y-125500000D01*
X169380000Y-125500000D02*
X168380000Y-124500000D01*
X168380000Y-124500000D02*
X159880000Y-124500000D01*
%TO.N,Net-(U1-GPIO17)*%
X162957329Y-131601041D02*
X160576288Y-129220000D01*
X169380000Y-130702081D02*
X169380000Y-129500000D01*
X160576288Y-129220000D02*
X143300000Y-129220000D01*
X168481040Y-131601041D02*
X169380000Y-130702081D01*
X162957329Y-131601041D02*
X168481040Y-131601041D01*
X162957329Y-131601041D02*
X160756288Y-129400000D01*
%TO.N,Net-(U1-GPIO16)*%
X168600000Y-116900000D02*
X174460000Y-122760000D01*
X174460000Y-126700000D02*
X174460000Y-122760000D01*
X151865000Y-116900000D02*
X168600000Y-116900000D01*
X151620000Y-131760000D02*
X151880000Y-131500000D01*
X143300000Y-131760000D02*
X151620000Y-131760000D01*
%TO.N,Net-(U1-GPIO18)*%
X169020000Y-121800000D02*
X171920000Y-124700000D01*
X156800000Y-124100000D02*
X159100000Y-121800000D01*
X171920000Y-124700000D02*
X171920000Y-126960000D01*
X142490000Y-124100000D02*
X156800000Y-124100000D01*
X159100000Y-121800000D02*
X169020000Y-121800000D01*
X143300000Y-124140000D02*
X143460496Y-124300496D01*
X171920000Y-126700000D02*
X171920000Y-124700000D01*
%TO.N,Net-(D1-K)*%
X117140000Y-116310000D02*
X117130000Y-116320000D01*
X117140000Y-113920000D02*
X117140000Y-116310000D01*
%TO.N,Net-(U1-GPIO15)*%
X120500000Y-131070000D02*
X114000000Y-131070000D01*
X121150000Y-131720000D02*
X120500000Y-131070000D01*
X124710000Y-131720000D02*
X121150000Y-131720000D01*
%TO.N,Net-(D2-K)*%
X117140000Y-96540000D02*
X117140000Y-95860000D01*
X112170000Y-101510000D02*
X117140000Y-96540000D01*
X106970000Y-101510000D02*
X112170000Y-101510000D01*
%TD*%
%TA.AperFunction,Conductor*%
%TO.N,Net-(U1-GPIO16)*%
G36*
X151721062Y-131008400D02*
G01*
X151725958Y-131015779D01*
X151870539Y-131737702D01*
X151870539Y-131742298D01*
X151725893Y-132464546D01*
X151720908Y-132471985D01*
X151712562Y-132473799D01*
X150394252Y-132261584D01*
X150386628Y-132256886D01*
X150384411Y-132250033D01*
X150384411Y-131269678D01*
X150387838Y-131261405D01*
X150393916Y-131258186D01*
X151712294Y-131006584D01*
X151721062Y-131008400D01*
G37*
%TD.AperFunction*%
%TD*%
%TA.AperFunction,Conductor*%
%TO.N,GND*%
G36*
X119801000Y-83600000D02*
G01*
X119634173Y-84433667D01*
X118116333Y-84140000D01*
X118116333Y-83140000D01*
X119634173Y-82766333D01*
X119801000Y-83600000D01*
G37*
%TD.AperFunction*%
%TD*%
%TA.AperFunction,Conductor*%
%TO.N,Net-(U1-GPIO19)*%
G36*
X157395916Y-131228298D02*
G01*
X157403470Y-131233106D01*
X157405589Y-131239821D01*
X157405589Y-132220178D01*
X157402162Y-132228451D01*
X157395916Y-132231701D01*
X156077572Y-132463609D01*
X156068830Y-132461667D01*
X156064074Y-132454386D01*
X155919460Y-131732296D01*
X155919460Y-131727702D01*
X156064074Y-131005612D01*
X156069058Y-130998176D01*
X156077570Y-130996390D01*
X157395916Y-131228298D01*
G37*
%TD.AperFunction*%
%TD*%
%TA.AperFunction,Conductor*%
%TO.N,Net-(U1-GPIO19)*%
G36*
X155681169Y-120868332D02*
G01*
X155685926Y-120875615D01*
X155830539Y-121597702D01*
X155830539Y-121602298D01*
X155685926Y-122324384D01*
X155680941Y-122331823D01*
X155672427Y-122333609D01*
X154354084Y-122101701D01*
X154346530Y-122096893D01*
X154344411Y-122090178D01*
X154344411Y-121109821D01*
X154347838Y-121101548D01*
X154354082Y-121098298D01*
X155672429Y-120866390D01*
X155681169Y-120868332D01*
G37*
%TD.AperFunction*%
%TD*%
%TA.AperFunction,Conductor*%
%TO.N,Net-(U1-GPIO20)*%
G36*
X161355916Y-123998298D02*
G01*
X161363470Y-124003106D01*
X161365589Y-124009821D01*
X161365589Y-124990178D01*
X161362162Y-124998451D01*
X161355916Y-125001701D01*
X160037572Y-125233609D01*
X160028830Y-125231667D01*
X160024074Y-125224386D01*
X159879460Y-124502296D01*
X159879460Y-124497702D01*
X160024074Y-123775612D01*
X160029058Y-123768176D01*
X160037570Y-123766390D01*
X161355916Y-123998298D01*
G37*
%TD.AperFunction*%
%TD*%
%TA.AperFunction,Conductor*%
%TO.N,GND*%
G36*
X121483667Y-88000000D02*
G01*
X121483667Y-89000000D01*
X119965827Y-89333667D01*
X119799000Y-88500000D01*
X119965827Y-87666333D01*
X121483667Y-88000000D01*
G37*
%TD.AperFunction*%
%TD*%
%TA.AperFunction,Conductor*%
%TO.N,Net-(U1-GPIO20)*%
G36*
X159731589Y-118368103D02*
G01*
X159735798Y-118374978D01*
X159880539Y-119097702D01*
X159880539Y-119102298D01*
X159736058Y-119823723D01*
X159731073Y-119831162D01*
X159722288Y-119832897D01*
X159721902Y-119832813D01*
X158403427Y-119522124D01*
X158396161Y-119516891D01*
X158394411Y-119510736D01*
X158394411Y-118530419D01*
X158397838Y-118522146D01*
X158404759Y-118518797D01*
X159722977Y-118365654D01*
X159731589Y-118368103D01*
G37*
%TD.AperFunction*%
%TD*%
%TA.AperFunction,Conductor*%
%TO.N,Net-(U1-GPIO16)*%
G36*
X153340916Y-116398298D02*
G01*
X153348470Y-116403106D01*
X153350589Y-116409821D01*
X153350589Y-117390178D01*
X153347162Y-117398451D01*
X153340916Y-117401701D01*
X152022572Y-117633609D01*
X152013830Y-117631667D01*
X152009074Y-117624386D01*
X151864460Y-116902296D01*
X151864460Y-116897702D01*
X152009074Y-116175612D01*
X152014058Y-116168176D01*
X152022570Y-116166390D01*
X153340916Y-116398298D01*
G37*
%TD.AperFunction*%
%TD*%
%TA.AperFunction,Conductor*%
%TO.N,GND*%
G36*
X119801000Y-88500000D02*
G01*
X119634173Y-89333667D01*
X118116333Y-89000000D01*
X118116333Y-88000000D01*
X119634173Y-87666333D01*
X119801000Y-88500000D01*
G37*
%TD.AperFunction*%
%TD*%
%TA.AperFunction,Conductor*%
%TO.N,Net-(U1-3V3)*%
G36*
X165354411Y-128738665D02*
G01*
X165362167Y-128743139D01*
X165364589Y-128750266D01*
X165364589Y-129730600D01*
X165361162Y-129738873D01*
X165355411Y-129742025D01*
X164036969Y-130033017D01*
X164028151Y-130031454D01*
X164023022Y-130024114D01*
X164022975Y-130023890D01*
X163878460Y-129302298D01*
X163878460Y-129297702D01*
X163988096Y-128750266D01*
X164023170Y-128575134D01*
X164028155Y-128567696D01*
X164036160Y-128565832D01*
X165354411Y-128738665D01*
G37*
%TD.AperFunction*%
%TD*%
%TA.AperFunction,Conductor*%
%TO.N,Net-(U1-3V3)*%
G36*
X163691169Y-111978332D02*
G01*
X163695926Y-111985615D01*
X163840539Y-112707702D01*
X163840539Y-112712298D01*
X163695926Y-113434384D01*
X163690941Y-113441823D01*
X163682427Y-113443609D01*
X162364084Y-113211701D01*
X162356530Y-113206893D01*
X162354411Y-113200178D01*
X162354411Y-112219821D01*
X162357838Y-112211548D01*
X162364082Y-112208298D01*
X163682429Y-111976390D01*
X163691169Y-111978332D01*
G37*
%TD.AperFunction*%
%TD*%
%TA.AperFunction,Conductor*%
%TO.N,GND*%
G36*
X122531535Y-107589454D02*
G01*
X122612317Y-107643430D01*
X122666293Y-107724212D01*
X122685247Y-107819500D01*
X122666293Y-107914788D01*
X122649336Y-107948318D01*
X122518355Y-108164985D01*
X122424890Y-108397220D01*
X122424886Y-108397233D01*
X122369886Y-108641436D01*
X122359500Y-108788547D01*
X122359500Y-108931452D01*
X122369886Y-109078563D01*
X122424886Y-109322766D01*
X122424890Y-109322779D01*
X122518355Y-109555014D01*
X122643291Y-109761682D01*
X122676367Y-109853034D01*
X122671967Y-109950089D01*
X122630760Y-110038072D01*
X122559020Y-110103589D01*
X122467668Y-110136665D01*
X122430202Y-110139500D01*
X119591150Y-110139500D01*
X119552197Y-110136434D01*
X119546546Y-110135539D01*
X119508423Y-110129500D01*
X119508417Y-110129500D01*
X118307738Y-110129500D01*
X118212450Y-110110546D01*
X118161379Y-110081945D01*
X118005050Y-109968365D01*
X117773577Y-109850423D01*
X117773567Y-109850419D01*
X117526493Y-109770140D01*
X117526487Y-109770138D01*
X117269908Y-109729501D01*
X117269899Y-109729500D01*
X117269897Y-109729500D01*
X117010103Y-109729500D01*
X117010100Y-109729500D01*
X117010091Y-109729501D01*
X116753512Y-109770138D01*
X116753506Y-109770140D01*
X116506432Y-109850419D01*
X116506422Y-109850423D01*
X116274949Y-109968365D01*
X116064774Y-110121066D01*
X115881066Y-110304774D01*
X115728365Y-110514949D01*
X115610423Y-110746422D01*
X115610419Y-110746432D01*
X115530140Y-110993506D01*
X115530138Y-110993512D01*
X115489501Y-111250091D01*
X115489500Y-111250107D01*
X115489500Y-111509892D01*
X115489501Y-111509908D01*
X115530138Y-111766487D01*
X115530140Y-111766493D01*
X115594280Y-111963897D01*
X115610421Y-112013572D01*
X115700924Y-112191193D01*
X115722254Y-112233055D01*
X115748625Y-112326562D01*
X115737206Y-112423044D01*
X115689734Y-112507811D01*
X115676465Y-112522166D01*
X115647288Y-112551342D01*
X115555184Y-112700668D01*
X115500002Y-112867197D01*
X115500001Y-112867204D01*
X115489500Y-112969988D01*
X115489500Y-114870006D01*
X115500001Y-114972800D01*
X115555185Y-115139332D01*
X115635472Y-115269500D01*
X115647288Y-115288656D01*
X115771284Y-115412652D01*
X115825258Y-115493431D01*
X115844212Y-115588719D01*
X115825258Y-115684007D01*
X115817074Y-115701761D01*
X115785767Y-115763205D01*
X115715215Y-115980343D01*
X115679501Y-116205831D01*
X115679500Y-116205847D01*
X115679500Y-116434152D01*
X115679501Y-116434168D01*
X115703590Y-116586256D01*
X115715216Y-116659660D01*
X115741341Y-116740064D01*
X115785767Y-116876794D01*
X115785769Y-116876799D01*
X115889418Y-117080224D01*
X115889419Y-117080224D01*
X115889421Y-117080228D01*
X116023621Y-117264937D01*
X116185063Y-117426379D01*
X116369772Y-117560579D01*
X116369774Y-117560580D01*
X116369775Y-117560581D01*
X116426366Y-117589415D01*
X116573201Y-117664231D01*
X116790340Y-117734784D01*
X117015843Y-117770500D01*
X117015847Y-117770500D01*
X117244153Y-117770500D01*
X117244157Y-117770500D01*
X117469660Y-117734784D01*
X117686799Y-117664231D01*
X117890228Y-117560579D01*
X118074937Y-117426379D01*
X118236379Y-117264937D01*
X118370579Y-117080228D01*
X118474231Y-116876799D01*
X118544784Y-116659660D01*
X118580500Y-116434157D01*
X118580500Y-116205843D01*
X118544784Y-115980340D01*
X118474231Y-115763201D01*
X118449453Y-115714572D01*
X118423083Y-115621067D01*
X118434502Y-115524585D01*
X118481974Y-115439818D01*
X118498928Y-115423495D01*
X118498400Y-115422967D01*
X118508653Y-115412713D01*
X118508656Y-115412712D01*
X118632712Y-115288656D01*
X118724814Y-115139334D01*
X118779999Y-114972797D01*
X118790500Y-114870009D01*
X118790499Y-112969992D01*
X118784861Y-112914801D01*
X118794033Y-112818084D01*
X118839521Y-112732235D01*
X118914398Y-112670329D01*
X119007267Y-112641789D01*
X119032572Y-112640500D01*
X119321583Y-112640500D01*
X119518416Y-112640500D01*
X122762812Y-112640500D01*
X122858100Y-112659454D01*
X122938882Y-112713430D01*
X122992858Y-112794212D01*
X123011812Y-112889500D01*
X122992858Y-112984788D01*
X122938882Y-113065570D01*
X122931498Y-113072954D01*
X122868713Y-113149458D01*
X122781157Y-113280494D01*
X122734484Y-113367814D01*
X122674187Y-113513385D01*
X122674179Y-113513406D01*
X122645447Y-113608122D01*
X122629161Y-113690000D01*
X124500382Y-113690000D01*
X124449936Y-113740446D01*
X124407149Y-113814555D01*
X124385000Y-113897213D01*
X124385000Y-113982787D01*
X124407149Y-114065445D01*
X124449936Y-114139554D01*
X124500382Y-114190000D01*
X122629161Y-114190000D01*
X122645447Y-114271877D01*
X122674179Y-114366593D01*
X122674187Y-114366614D01*
X122734484Y-114512185D01*
X122781157Y-114599505D01*
X122868713Y-114730541D01*
X122931498Y-114807045D01*
X122931507Y-114807055D01*
X122994464Y-114870012D01*
X123048440Y-114950794D01*
X123067394Y-115046082D01*
X123048440Y-115141370D01*
X122994464Y-115222152D01*
X122979726Y-115235748D01*
X122810066Y-115380062D01*
X122810057Y-115380071D01*
X122647867Y-115570746D01*
X122518355Y-115784985D01*
X122424890Y-116017220D01*
X122424886Y-116017233D01*
X122369886Y-116261436D01*
X122359500Y-116408547D01*
X122359500Y-116551452D01*
X122369886Y-116698563D01*
X122424886Y-116942766D01*
X122424890Y-116942779D01*
X122518355Y-117175014D01*
X122647867Y-117389253D01*
X122816565Y-117587579D01*
X122814405Y-117589415D01*
X122858035Y-117654712D01*
X122876989Y-117750000D01*
X122858035Y-117845288D01*
X122814405Y-117910584D01*
X122816565Y-117912421D01*
X122647867Y-118110746D01*
X122518355Y-118324985D01*
X122424890Y-118557220D01*
X122424886Y-118557233D01*
X122369886Y-118801436D01*
X122359500Y-118948547D01*
X122359500Y-119091452D01*
X122369886Y-119238563D01*
X122424886Y-119482766D01*
X122424890Y-119482779D01*
X122518355Y-119715014D01*
X122647867Y-119929253D01*
X122816565Y-120127579D01*
X122814405Y-120129415D01*
X122858035Y-120194712D01*
X122876989Y-120290000D01*
X122858035Y-120385288D01*
X122814405Y-120450584D01*
X122816565Y-120452421D01*
X122647867Y-120650746D01*
X122518355Y-120864985D01*
X122424890Y-121097220D01*
X122424886Y-121097233D01*
X122369886Y-121341436D01*
X122359500Y-121488547D01*
X122359500Y-121631452D01*
X122369886Y-121778563D01*
X122424886Y-122022766D01*
X122424890Y-122022779D01*
X122518355Y-122255014D01*
X122647867Y-122469253D01*
X122816565Y-122667579D01*
X122814405Y-122669415D01*
X122858035Y-122734712D01*
X122876989Y-122830000D01*
X122858035Y-122925288D01*
X122814405Y-122990584D01*
X122816565Y-122992421D01*
X122647867Y-123190746D01*
X122518355Y-123404985D01*
X122424890Y-123637220D01*
X122424886Y-123637233D01*
X122369886Y-123881436D01*
X122359500Y-124028547D01*
X122359500Y-124171452D01*
X122369886Y-124318563D01*
X122424886Y-124562766D01*
X122424890Y-124562779D01*
X122518355Y-124795014D01*
X122647867Y-125009253D01*
X122784195Y-125169524D01*
X122810064Y-125199936D01*
X122810070Y-125199941D01*
X122810071Y-125199942D01*
X122979725Y-125344251D01*
X123040027Y-125420427D01*
X123066587Y-125513881D01*
X123055361Y-125610386D01*
X123008060Y-125695248D01*
X122994465Y-125709985D01*
X122931517Y-125772933D01*
X122931498Y-125772954D01*
X122868713Y-125849458D01*
X122781157Y-125980494D01*
X122734484Y-126067814D01*
X122674187Y-126213385D01*
X122674179Y-126213406D01*
X122645447Y-126308122D01*
X122629161Y-126390000D01*
X124461000Y-126390000D01*
X124493848Y-126396533D01*
X124449936Y-126440446D01*
X124407149Y-126514555D01*
X124385000Y-126597213D01*
X124385000Y-126682787D01*
X124407149Y-126765445D01*
X124449936Y-126839554D01*
X124493848Y-126883466D01*
X124461000Y-126890000D01*
X122629161Y-126890000D01*
X122645447Y-126971877D01*
X122674179Y-127066593D01*
X122674187Y-127066614D01*
X122734484Y-127212185D01*
X122781157Y-127299505D01*
X122868713Y-127430541D01*
X122931498Y-127507045D01*
X122931507Y-127507055D01*
X122994464Y-127570012D01*
X123048440Y-127650794D01*
X123067394Y-127746082D01*
X123048440Y-127841370D01*
X122994464Y-127922152D01*
X122979726Y-127935748D01*
X122810066Y-128080062D01*
X122810057Y-128080071D01*
X122647867Y-128270746D01*
X122518355Y-128484985D01*
X122424890Y-128717220D01*
X122424886Y-128717233D01*
X122369886Y-128961436D01*
X122359500Y-129108547D01*
X122359500Y-129251452D01*
X122369886Y-129398563D01*
X122424886Y-129642766D01*
X122424890Y-129642779D01*
X122518355Y-129875014D01*
X122649336Y-130091682D01*
X122655778Y-130109476D01*
X122666293Y-130125212D01*
X122672165Y-130154733D01*
X122682412Y-130183034D01*
X122681554Y-130201938D01*
X122685247Y-130220500D01*
X122679375Y-130250019D01*
X122678012Y-130280089D01*
X122669984Y-130297228D01*
X122666293Y-130315788D01*
X122649571Y-130340814D01*
X122636805Y-130368072D01*
X122622832Y-130380832D01*
X122612317Y-130396570D01*
X122587288Y-130413293D01*
X122565065Y-130433589D01*
X122547270Y-130440031D01*
X122531535Y-130450546D01*
X122502013Y-130456418D01*
X122473713Y-130466665D01*
X122436247Y-130469500D01*
X122312369Y-130469500D01*
X122217081Y-130450546D01*
X122136299Y-130396570D01*
X122082323Y-130315789D01*
X122079638Y-130309307D01*
X122073344Y-130294112D01*
X121958611Y-130095388D01*
X121818919Y-129913339D01*
X121656661Y-129751081D01*
X121656656Y-129751077D01*
X121656655Y-129751076D01*
X121474621Y-129611396D01*
X121474622Y-129611396D01*
X121474612Y-129611389D01*
X121474602Y-129611383D01*
X121275893Y-129496658D01*
X121275882Y-129496653D01*
X121063885Y-129408841D01*
X120903888Y-129365971D01*
X120842238Y-129349452D01*
X120842235Y-129349451D01*
X120842236Y-129349451D01*
X120614734Y-129319500D01*
X120385266Y-129319500D01*
X120157765Y-129349451D01*
X119936114Y-129408841D01*
X119724117Y-129496653D01*
X119724106Y-129496658D01*
X119525397Y-129611383D01*
X119525378Y-129611396D01*
X119343343Y-129751076D01*
X119337209Y-129756457D01*
X119335673Y-129754706D01*
X119267069Y-129800546D01*
X119171781Y-129819500D01*
X115328219Y-129819500D01*
X115232931Y-129800546D01*
X115164326Y-129754706D01*
X115162791Y-129756457D01*
X115156656Y-129751076D01*
X114974621Y-129611396D01*
X114974622Y-129611396D01*
X114974612Y-129611389D01*
X114974602Y-129611383D01*
X114775893Y-129496658D01*
X114775882Y-129496653D01*
X114563885Y-129408841D01*
X114403888Y-129365971D01*
X114342238Y-129349452D01*
X114342235Y-129349451D01*
X114342236Y-129349451D01*
X114114734Y-129319500D01*
X113885266Y-129319500D01*
X113657765Y-129349451D01*
X113436114Y-129408841D01*
X113224117Y-129496653D01*
X113224106Y-129496658D01*
X113025397Y-129611383D01*
X113025378Y-129611396D01*
X112843344Y-129751076D01*
X112681076Y-129913344D01*
X112541396Y-130095378D01*
X112541383Y-130095397D01*
X112426658Y-130294106D01*
X112426653Y-130294117D01*
X112338841Y-130506114D01*
X112279451Y-130727765D01*
X112249500Y-130955266D01*
X112249500Y-131184733D01*
X112279451Y-131412234D01*
X112338841Y-131633885D01*
X112426653Y-131845882D01*
X112426658Y-131845893D01*
X112541383Y-132044602D01*
X112541389Y-132044612D01*
X112670696Y-132213127D01*
X112713666Y-132300263D01*
X112720021Y-132397209D01*
X112688792Y-132489209D01*
X112649221Y-132540778D01*
X112600000Y-132589999D01*
X112600000Y-134250500D01*
X112581046Y-134345788D01*
X112527070Y-134426570D01*
X112446288Y-134480546D01*
X112351000Y-134499500D01*
X111934108Y-134499500D01*
X111806818Y-134533606D01*
X111806814Y-134533607D01*
X111806814Y-134533608D01*
X111692686Y-134599500D01*
X111599500Y-134692686D01*
X111533606Y-134806818D01*
X111499500Y-134934107D01*
X111499500Y-158158580D01*
X111480546Y-158253868D01*
X111426570Y-158334650D01*
X111334650Y-158426570D01*
X111253868Y-158480546D01*
X111158580Y-158499500D01*
X108784997Y-158499500D01*
X108689709Y-158480546D01*
X108608927Y-158426570D01*
X108554951Y-158345788D01*
X108535997Y-158250500D01*
X108548636Y-158172178D01*
X108564997Y-158122802D01*
X108564999Y-158122797D01*
X108575500Y-158020009D01*
X108575499Y-156219992D01*
X108564999Y-156117203D01*
X108509814Y-155950666D01*
X108417712Y-155801344D01*
X108364359Y-155747991D01*
X108310386Y-155667213D01*
X108291432Y-155571925D01*
X108310386Y-155476637D01*
X108338989Y-155425564D01*
X108343868Y-155418848D01*
X108360592Y-155386026D01*
X108458241Y-155194379D01*
X108536090Y-154954785D01*
X108575500Y-154705962D01*
X108575500Y-154454038D01*
X108575499Y-154454035D01*
X108575499Y-154454028D01*
X108536090Y-154205217D01*
X108536090Y-154205215D01*
X108458241Y-153965621D01*
X108343870Y-153741155D01*
X108195793Y-153537344D01*
X108144515Y-153486066D01*
X108090542Y-153405288D01*
X108071588Y-153310000D01*
X108090542Y-153214712D01*
X108144515Y-153133933D01*
X108195793Y-153082656D01*
X108343870Y-152878845D01*
X108458241Y-152654379D01*
X108536090Y-152414785D01*
X108575500Y-152165962D01*
X108575500Y-151914038D01*
X108575499Y-151914035D01*
X108575499Y-151914028D01*
X108536090Y-151665217D01*
X108536090Y-151665215D01*
X108458241Y-151425621D01*
X108343870Y-151201155D01*
X108195793Y-150997344D01*
X108017656Y-150819207D01*
X107938499Y-150761696D01*
X107881352Y-150720176D01*
X107881338Y-150720166D01*
X107813845Y-150671130D01*
X107797135Y-150662616D01*
X107783928Y-150653589D01*
X107775745Y-150645233D01*
X107742597Y-150621151D01*
X106974292Y-149852846D01*
X106955686Y-149825000D01*
X107017787Y-149825000D01*
X107100445Y-149802851D01*
X107174554Y-149760064D01*
X107235064Y-149699554D01*
X107277851Y-149625445D01*
X107300000Y-149542787D01*
X107300000Y-149499999D01*
X107328553Y-149499999D01*
X108084097Y-150255543D01*
X108091218Y-150260410D01*
X108129624Y-150207551D01*
X108226091Y-150018224D01*
X108226095Y-150018215D01*
X108291758Y-149816123D01*
X108324999Y-149606256D01*
X108325000Y-149606244D01*
X108325000Y-149393755D01*
X108324999Y-149393743D01*
X108291758Y-149183876D01*
X108226095Y-148981784D01*
X108226091Y-148981774D01*
X108129624Y-148792448D01*
X108090270Y-148738282D01*
X107328553Y-149499999D01*
X107300000Y-149499999D01*
X107300000Y-149457213D01*
X107277851Y-149374555D01*
X107235064Y-149300446D01*
X107174554Y-149239936D01*
X107100445Y-149197149D01*
X107017787Y-149175000D01*
X106955686Y-149175000D01*
X106974292Y-149147153D01*
X106974295Y-149147150D01*
X107736717Y-148384729D01*
X107682551Y-148345375D01*
X107682545Y-148345371D01*
X107493225Y-148248908D01*
X107493215Y-148248904D01*
X107291123Y-148183241D01*
X107081256Y-148150000D01*
X106868743Y-148150000D01*
X106658876Y-148183241D01*
X106456784Y-148248904D01*
X106456779Y-148248906D01*
X106373543Y-148291317D01*
X106280035Y-148317688D01*
X106183554Y-148306269D01*
X106098787Y-148258797D01*
X106038639Y-148182499D01*
X106012268Y-148088991D01*
X106011500Y-148069456D01*
X106011500Y-133781873D01*
X106030454Y-133686585D01*
X106084430Y-133605803D01*
X106165212Y-133551827D01*
X106260500Y-133532873D01*
X106355788Y-133551827D01*
X106384999Y-133566232D01*
X106386195Y-133566922D01*
X106386197Y-133566924D01*
X106613303Y-133698043D01*
X106855581Y-133798398D01*
X107108884Y-133866270D01*
X107368880Y-133900500D01*
X107631120Y-133900500D01*
X107891116Y-133866270D01*
X108144419Y-133798398D01*
X108386697Y-133698043D01*
X108613803Y-133566924D01*
X108821851Y-133407282D01*
X109007282Y-133221851D01*
X109166924Y-133013803D01*
X109298043Y-132786697D01*
X109398398Y-132544419D01*
X109466270Y-132291116D01*
X109500500Y-132031120D01*
X109500500Y-131768880D01*
X109466270Y-131508884D01*
X109398398Y-131255581D01*
X109298043Y-131013303D01*
X109166924Y-130786197D01*
X109166920Y-130786192D01*
X109166917Y-130786187D01*
X109007286Y-130578154D01*
X109007285Y-130578153D01*
X109007282Y-130578149D01*
X108821851Y-130392718D01*
X108821846Y-130392714D01*
X108821845Y-130392713D01*
X108613812Y-130233082D01*
X108613798Y-130233073D01*
X108399720Y-130109476D01*
X108386697Y-130101957D01*
X108386695Y-130101956D01*
X108386693Y-130101955D01*
X108386689Y-130101953D01*
X108144417Y-130001601D01*
X108034730Y-129972211D01*
X107891116Y-129933730D01*
X107891111Y-129933729D01*
X107891114Y-129933729D01*
X107759320Y-129916378D01*
X107725105Y-129911873D01*
X107633107Y-129880644D01*
X107560063Y-129816585D01*
X107517092Y-129729449D01*
X107510738Y-129632502D01*
X107541968Y-129540503D01*
X107581534Y-129488938D01*
X110618522Y-126451951D01*
X112500000Y-126451951D01*
X112500000Y-126688048D01*
X112500001Y-126688063D01*
X112536934Y-126921247D01*
X112609893Y-127145795D01*
X112717088Y-127356176D01*
X112777339Y-127439105D01*
X113600000Y-126616444D01*
X113600000Y-126622661D01*
X113627259Y-126724394D01*
X113679920Y-126815606D01*
X113754394Y-126890080D01*
X113845606Y-126942741D01*
X113947339Y-126970000D01*
X113953552Y-126970000D01*
X113130893Y-127792659D01*
X113213823Y-127852911D01*
X113424204Y-127960106D01*
X113648752Y-128033065D01*
X113881936Y-128069998D01*
X113881951Y-128070000D01*
X114118049Y-128070000D01*
X114118063Y-128069998D01*
X114351247Y-128033065D01*
X114575795Y-127960106D01*
X114786177Y-127852910D01*
X114869105Y-127792659D01*
X114046446Y-126970000D01*
X114052661Y-126970000D01*
X114154394Y-126942741D01*
X114245606Y-126890080D01*
X114320080Y-126815606D01*
X114372741Y-126724394D01*
X114400000Y-126622661D01*
X114400000Y-126616446D01*
X115222659Y-127439105D01*
X115282910Y-127356177D01*
X115390106Y-127145795D01*
X115463065Y-126921247D01*
X115499998Y-126688063D01*
X115500000Y-126688048D01*
X115500000Y-126451951D01*
X119000000Y-126451951D01*
X119000000Y-126688048D01*
X119000001Y-126688063D01*
X119036934Y-126921247D01*
X119109893Y-127145795D01*
X119217088Y-127356176D01*
X119277339Y-127439105D01*
X120100000Y-126616444D01*
X120100000Y-126622661D01*
X120127259Y-126724394D01*
X120179920Y-126815606D01*
X120254394Y-126890080D01*
X120345606Y-126942741D01*
X120447339Y-126970000D01*
X120453552Y-126970000D01*
X119630893Y-127792659D01*
X119713823Y-127852911D01*
X119924204Y-127960106D01*
X120148752Y-128033065D01*
X120381936Y-128069998D01*
X120381951Y-128070000D01*
X120618049Y-128070000D01*
X120618063Y-128069998D01*
X120851247Y-128033065D01*
X121075795Y-127960106D01*
X121286177Y-127852910D01*
X121369105Y-127792659D01*
X120546446Y-126970000D01*
X120552661Y-126970000D01*
X120654394Y-126942741D01*
X120745606Y-126890080D01*
X120820080Y-126815606D01*
X120872741Y-126724394D01*
X120900000Y-126622661D01*
X120900000Y-126616446D01*
X121722659Y-127439105D01*
X121782910Y-127356177D01*
X121890106Y-127145795D01*
X121963065Y-126921247D01*
X121999998Y-126688063D01*
X122000000Y-126688048D01*
X122000000Y-126451951D01*
X121999998Y-126451936D01*
X121963065Y-126218752D01*
X121890106Y-125994204D01*
X121782911Y-125783823D01*
X121722659Y-125700893D01*
X120900000Y-126523552D01*
X120900000Y-126517339D01*
X120872741Y-126415606D01*
X120820080Y-126324394D01*
X120745606Y-126249920D01*
X120654394Y-126197259D01*
X120552661Y-126170000D01*
X120546444Y-126170000D01*
X121369105Y-125347339D01*
X121286176Y-125287088D01*
X121075795Y-125179893D01*
X120851247Y-125106934D01*
X120618063Y-125070001D01*
X120618049Y-125070000D01*
X120381951Y-125070000D01*
X120381936Y-125070001D01*
X120148752Y-125106934D01*
X119924204Y-125179894D01*
X119924199Y-125179896D01*
X119713833Y-125287082D01*
X119630894Y-125347340D01*
X120453554Y-126170000D01*
X120447339Y-126170000D01*
X120345606Y-126197259D01*
X120254394Y-126249920D01*
X120179920Y-126324394D01*
X120127259Y-126415606D01*
X120100000Y-126517339D01*
X120100000Y-126523554D01*
X119277340Y-125700894D01*
X119217082Y-125783833D01*
X119109896Y-125994199D01*
X119109894Y-125994204D01*
X119036934Y-126218752D01*
X119000001Y-126451936D01*
X119000000Y-126451951D01*
X115500000Y-126451951D01*
X115499998Y-126451936D01*
X115463065Y-126218752D01*
X115390106Y-125994204D01*
X115282911Y-125783823D01*
X115222659Y-125700893D01*
X114400000Y-126523552D01*
X114400000Y-126517339D01*
X114372741Y-126415606D01*
X114320080Y-126324394D01*
X114245606Y-126249920D01*
X114154394Y-126197259D01*
X114052661Y-126170000D01*
X114046444Y-126170000D01*
X114869105Y-125347339D01*
X114786176Y-125287088D01*
X114575795Y-125179893D01*
X114351247Y-125106934D01*
X114300630Y-125098917D01*
X114118063Y-125070001D01*
X114118049Y-125070000D01*
X113881951Y-125070000D01*
X113881936Y-125070001D01*
X113648752Y-125106934D01*
X113424204Y-125179894D01*
X113424199Y-125179896D01*
X113213833Y-125287082D01*
X113130894Y-125347340D01*
X113953554Y-126170000D01*
X113947339Y-126170000D01*
X113845606Y-126197259D01*
X113754394Y-126249920D01*
X113679920Y-126324394D01*
X113627259Y-126415606D01*
X113600000Y-126517339D01*
X113600000Y-126523554D01*
X112777340Y-125700894D01*
X112717082Y-125783833D01*
X112609896Y-125994199D01*
X112609894Y-125994204D01*
X112536934Y-126218752D01*
X112500001Y-126451936D01*
X112500000Y-126451951D01*
X110618522Y-126451951D01*
X112122591Y-124947883D01*
X116475670Y-124947883D01*
X116501058Y-124966328D01*
X116501071Y-124966336D01*
X116669354Y-125052081D01*
X116669367Y-125052087D01*
X116848999Y-125110452D01*
X117035547Y-125139998D01*
X117035562Y-125140000D01*
X117224438Y-125140000D01*
X117224452Y-125139998D01*
X117410998Y-125110452D01*
X117411001Y-125110452D01*
X117590632Y-125052087D01*
X117590644Y-125052081D01*
X117758934Y-124966333D01*
X117784328Y-124947882D01*
X117130000Y-124293553D01*
X116475670Y-124947883D01*
X112122591Y-124947883D01*
X113224912Y-123845562D01*
X115930000Y-123845562D01*
X115930000Y-124034437D01*
X115930001Y-124034452D01*
X115959547Y-124220998D01*
X115959547Y-124221001D01*
X116017912Y-124400632D01*
X116017918Y-124400644D01*
X116103666Y-124568933D01*
X116103672Y-124568944D01*
X116122115Y-124594328D01*
X116122116Y-124594328D01*
X116776445Y-123940000D01*
X116730367Y-123893922D01*
X116780000Y-123893922D01*
X116780000Y-123986078D01*
X116803852Y-124075095D01*
X116849930Y-124154905D01*
X116915095Y-124220070D01*
X116994905Y-124266148D01*
X117083922Y-124290000D01*
X117176078Y-124290000D01*
X117265095Y-124266148D01*
X117344905Y-124220070D01*
X117410070Y-124154905D01*
X117456148Y-124075095D01*
X117480000Y-123986078D01*
X117480000Y-123940000D01*
X117483553Y-123940000D01*
X118137882Y-124594328D01*
X118156333Y-124568934D01*
X118242081Y-124400644D01*
X118242087Y-124400632D01*
X118300452Y-124221001D01*
X118300452Y-124220998D01*
X118329998Y-124034452D01*
X118330000Y-124034437D01*
X118330000Y-123845562D01*
X118329998Y-123845547D01*
X118300452Y-123659001D01*
X118300452Y-123658998D01*
X118242087Y-123479367D01*
X118242081Y-123479354D01*
X118156336Y-123311071D01*
X118156328Y-123311058D01*
X118137883Y-123285670D01*
X117483553Y-123940000D01*
X117480000Y-123940000D01*
X117480000Y-123893922D01*
X117456148Y-123804905D01*
X117410070Y-123725095D01*
X117344905Y-123659930D01*
X117265095Y-123613852D01*
X117176078Y-123590000D01*
X117083922Y-123590000D01*
X116994905Y-123613852D01*
X116915095Y-123659930D01*
X116849930Y-123725095D01*
X116803852Y-123804905D01*
X116780000Y-123893922D01*
X116730367Y-123893922D01*
X116122115Y-123285670D01*
X116103669Y-123311061D01*
X116103660Y-123311076D01*
X116017918Y-123479354D01*
X116017912Y-123479367D01*
X115959547Y-123658998D01*
X115959547Y-123659001D01*
X115930001Y-123845547D01*
X115930000Y-123845562D01*
X113224912Y-123845562D01*
X113253828Y-123816646D01*
X113369524Y-123657405D01*
X113458884Y-123482026D01*
X113519709Y-123294826D01*
X113550500Y-123100417D01*
X113550500Y-122932115D01*
X116475670Y-122932115D01*
X117130000Y-123586445D01*
X117784328Y-122932116D01*
X117784328Y-122932115D01*
X117758944Y-122913672D01*
X117758933Y-122913666D01*
X117590644Y-122827918D01*
X117590632Y-122827912D01*
X117411000Y-122769547D01*
X117224452Y-122740001D01*
X117224438Y-122740000D01*
X117035562Y-122740000D01*
X117035547Y-122740001D01*
X116849001Y-122769547D01*
X116848998Y-122769547D01*
X116669367Y-122827912D01*
X116669354Y-122827918D01*
X116501076Y-122913660D01*
X116501061Y-122913669D01*
X116475670Y-122932115D01*
X113550500Y-122932115D01*
X113550500Y-122903583D01*
X113550500Y-110341114D01*
X113569454Y-110245826D01*
X113623430Y-110165044D01*
X116145044Y-107643430D01*
X116225826Y-107589454D01*
X116321114Y-107570500D01*
X122436247Y-107570500D01*
X122531535Y-107589454D01*
G37*
%TD.AperFunction*%
%TA.AperFunction,Conductor*%
G36*
X149313868Y-79519454D02*
G01*
X149394650Y-79573430D01*
X149426570Y-79605350D01*
X149480546Y-79686132D01*
X149499500Y-79781420D01*
X149499500Y-109065892D01*
X149533606Y-109193181D01*
X149533607Y-109193183D01*
X149533608Y-109193186D01*
X149599500Y-109307314D01*
X149692686Y-109400500D01*
X149806814Y-109466392D01*
X149934108Y-109500500D01*
X180218580Y-109500500D01*
X180313868Y-109519454D01*
X180394650Y-109573430D01*
X180426570Y-109605350D01*
X180480546Y-109686132D01*
X180499500Y-109781420D01*
X180499500Y-134218580D01*
X180480546Y-134313868D01*
X180426570Y-134394650D01*
X180394650Y-134426570D01*
X180313868Y-134480546D01*
X180218580Y-134499500D01*
X170782035Y-134499500D01*
X170686747Y-134480546D01*
X170605965Y-134426570D01*
X170551989Y-134345788D01*
X170533035Y-134250500D01*
X170551989Y-134155212D01*
X170605962Y-134074433D01*
X172873828Y-131806568D01*
X172989524Y-131647327D01*
X172997546Y-131631583D01*
X173078884Y-131471947D01*
X173132084Y-131308215D01*
X173139709Y-131284749D01*
X173170500Y-131090339D01*
X173170500Y-130893506D01*
X173170500Y-130770140D01*
X173189454Y-130674852D01*
X173243430Y-130594070D01*
X173324212Y-130540094D01*
X173419500Y-130521140D01*
X173514788Y-130540094D01*
X173565860Y-130568696D01*
X173621147Y-130608865D01*
X173621150Y-130608866D01*
X173621155Y-130608870D01*
X173845621Y-130723241D01*
X174085215Y-130801090D01*
X174171700Y-130814788D01*
X174334028Y-130840499D01*
X174334035Y-130840499D01*
X174334038Y-130840500D01*
X174334041Y-130840500D01*
X174585959Y-130840500D01*
X174585962Y-130840500D01*
X174585965Y-130840499D01*
X174585971Y-130840499D01*
X174703513Y-130821881D01*
X174834785Y-130801090D01*
X175074379Y-130723241D01*
X175298845Y-130608870D01*
X175502656Y-130460793D01*
X175553933Y-130409515D01*
X175634712Y-130355542D01*
X175730000Y-130336588D01*
X175825288Y-130355542D01*
X175906066Y-130409515D01*
X175957344Y-130460793D01*
X176161155Y-130608870D01*
X176385621Y-130723241D01*
X176625215Y-130801090D01*
X176711700Y-130814788D01*
X176874028Y-130840499D01*
X176874035Y-130840499D01*
X176874038Y-130840500D01*
X176874041Y-130840500D01*
X177125959Y-130840500D01*
X177125962Y-130840500D01*
X177125965Y-130840499D01*
X177125971Y-130840499D01*
X177243513Y-130821881D01*
X177374785Y-130801090D01*
X177614379Y-130723241D01*
X177838845Y-130608870D01*
X178042656Y-130460793D01*
X178220793Y-130282656D01*
X178368870Y-130078845D01*
X178483241Y-129854379D01*
X178561090Y-129614785D01*
X178581881Y-129483513D01*
X178600499Y-129365971D01*
X178600500Y-129365959D01*
X178600500Y-129114040D01*
X178600499Y-129114028D01*
X178561090Y-128865217D01*
X178561090Y-128865215D01*
X178483241Y-128625621D01*
X178368870Y-128401155D01*
X178220793Y-128197344D01*
X178169515Y-128146066D01*
X178115542Y-128065288D01*
X178096588Y-127970000D01*
X178115542Y-127874712D01*
X178169515Y-127793933D01*
X178220793Y-127742656D01*
X178368870Y-127538845D01*
X178483241Y-127314379D01*
X178561090Y-127074785D01*
X178592405Y-126877070D01*
X178600499Y-126825971D01*
X178600500Y-126825959D01*
X178600500Y-126574040D01*
X178600499Y-126574028D01*
X178561090Y-126325217D01*
X178561090Y-126325215D01*
X178483241Y-126085621D01*
X178368870Y-125861155D01*
X178298053Y-125763684D01*
X178257380Y-125675454D01*
X178250500Y-125617327D01*
X178250500Y-121501587D01*
X178250498Y-121501571D01*
X178219710Y-121307178D01*
X178219709Y-121307176D01*
X178219709Y-121307174D01*
X178206712Y-121267174D01*
X178200687Y-121248632D01*
X178158886Y-121119981D01*
X178158884Y-121119974D01*
X178069524Y-120944595D01*
X177953828Y-120785354D01*
X171033646Y-113865172D01*
X170874405Y-113749476D01*
X170699026Y-113660116D01*
X170699023Y-113660115D01*
X170699021Y-113660114D01*
X170511823Y-113599290D01*
X170317428Y-113568501D01*
X170317419Y-113568500D01*
X170317417Y-113568500D01*
X170317413Y-113568500D01*
X165481495Y-113568500D01*
X165443259Y-113560894D01*
X165404550Y-113556313D01*
X165395914Y-113551476D01*
X165386207Y-113549546D01*
X165353792Y-113527887D01*
X165319782Y-113508841D01*
X165313655Y-113501069D01*
X165305425Y-113495570D01*
X165283768Y-113463158D01*
X165259634Y-113432544D01*
X165256947Y-113423016D01*
X165251449Y-113414788D01*
X165243843Y-113376553D01*
X165233263Y-113339036D01*
X165234426Y-113329208D01*
X165232495Y-113319500D01*
X165238929Y-113278880D01*
X174329500Y-113278880D01*
X174329500Y-113312032D01*
X174329500Y-113541120D01*
X174331500Y-113556313D01*
X174363729Y-113801112D01*
X174431601Y-114054417D01*
X174531953Y-114296689D01*
X174531955Y-114296693D01*
X174531957Y-114296697D01*
X174627935Y-114462937D01*
X174663073Y-114523798D01*
X174663082Y-114523812D01*
X174822713Y-114731845D01*
X174822718Y-114731851D01*
X175008149Y-114917282D01*
X175008153Y-114917285D01*
X175008154Y-114917286D01*
X175216187Y-115076917D01*
X175216192Y-115076920D01*
X175216197Y-115076924D01*
X175443303Y-115208043D01*
X175685581Y-115308398D01*
X175938884Y-115376270D01*
X176198880Y-115410500D01*
X176461120Y-115410500D01*
X176721116Y-115376270D01*
X176974419Y-115308398D01*
X177216697Y-115208043D01*
X177443803Y-115076924D01*
X177651851Y-114917282D01*
X177837282Y-114731851D01*
X177996924Y-114523803D01*
X178128043Y-114296697D01*
X178228398Y-114054419D01*
X178296270Y-113801116D01*
X178330500Y-113541120D01*
X178330500Y-113278880D01*
X178296270Y-113018884D01*
X178228398Y-112765581D01*
X178128043Y-112523303D01*
X177996924Y-112296197D01*
X177996920Y-112296192D01*
X177996917Y-112296187D01*
X177837286Y-112088154D01*
X177837285Y-112088153D01*
X177837282Y-112088149D01*
X177651851Y-111902718D01*
X177651846Y-111902714D01*
X177651845Y-111902713D01*
X177443812Y-111743082D01*
X177443798Y-111743073D01*
X177382937Y-111707935D01*
X177216697Y-111611957D01*
X177216695Y-111611956D01*
X177216693Y-111611955D01*
X177216689Y-111611953D01*
X176974417Y-111511601D01*
X176864730Y-111482211D01*
X176721116Y-111443730D01*
X176721111Y-111443729D01*
X176721114Y-111443729D01*
X176461120Y-111409500D01*
X176198880Y-111409500D01*
X175938887Y-111443729D01*
X175685582Y-111511601D01*
X175443310Y-111611953D01*
X175443306Y-111611955D01*
X175216201Y-111743073D01*
X175216187Y-111743082D01*
X175008154Y-111902713D01*
X174822713Y-112088154D01*
X174663082Y-112296187D01*
X174663073Y-112296201D01*
X174531955Y-112523306D01*
X174531953Y-112523310D01*
X174431601Y-112765582D01*
X174363729Y-113018887D01*
X174329500Y-113278880D01*
X165238929Y-113278880D01*
X165244682Y-113242555D01*
X165260529Y-113193783D01*
X165274931Y-113149458D01*
X165303553Y-113061368D01*
X165340500Y-112828092D01*
X165340500Y-112591908D01*
X165303553Y-112358632D01*
X165230568Y-112134008D01*
X165123343Y-111923567D01*
X165123341Y-111923564D01*
X165123340Y-111923562D01*
X164984521Y-111732495D01*
X164984519Y-111732493D01*
X164984517Y-111732490D01*
X164817510Y-111565483D01*
X164817506Y-111565480D01*
X164817504Y-111565478D01*
X164626437Y-111426659D01*
X164592760Y-111409500D01*
X164415992Y-111319432D01*
X164415989Y-111319431D01*
X164415987Y-111319430D01*
X164291079Y-111278845D01*
X164191368Y-111246447D01*
X164191366Y-111246446D01*
X164191364Y-111246446D01*
X163958103Y-111209501D01*
X163958094Y-111209500D01*
X163958092Y-111209500D01*
X163721908Y-111209500D01*
X163721905Y-111209500D01*
X163721896Y-111209501D01*
X163605226Y-111227980D01*
X163580658Y-111230630D01*
X163551545Y-111232314D01*
X163551539Y-111232315D01*
X162281445Y-111455735D01*
X162238306Y-111459500D01*
X149631114Y-111459500D01*
X149535826Y-111440546D01*
X149455044Y-111386570D01*
X148293430Y-110224956D01*
X148239454Y-110144174D01*
X148220500Y-110048886D01*
X148220500Y-95621587D01*
X148220498Y-95621571D01*
X148207499Y-95539500D01*
X148189709Y-95427174D01*
X148161272Y-95339654D01*
X148158646Y-95331571D01*
X148128887Y-95239981D01*
X148128886Y-95239979D01*
X148128884Y-95239976D01*
X148128884Y-95239974D01*
X148039524Y-95064595D01*
X147923828Y-94905354D01*
X145724646Y-92706172D01*
X145565405Y-92590476D01*
X145390026Y-92501116D01*
X145390023Y-92501115D01*
X145390021Y-92501114D01*
X145202823Y-92440290D01*
X145008428Y-92409501D01*
X145008419Y-92409500D01*
X145008417Y-92409500D01*
X145008413Y-92409500D01*
X144733364Y-92409500D01*
X144638076Y-92390546D01*
X144557294Y-92336570D01*
X144503318Y-92255788D01*
X144484364Y-92160500D01*
X144503318Y-92065212D01*
X144543696Y-91999171D01*
X144552132Y-91989252D01*
X144552134Y-91989250D01*
X144681644Y-91775015D01*
X144775110Y-91542779D01*
X144830114Y-91298558D01*
X144840500Y-91151446D01*
X144840500Y-91008554D01*
X144830114Y-90861442D01*
X144775110Y-90617221D01*
X144681644Y-90384985D01*
X144552134Y-90170750D01*
X144552132Y-90170746D01*
X144389942Y-89980071D01*
X144389941Y-89980070D01*
X144389936Y-89980064D01*
X144379093Y-89970841D01*
X144220274Y-89835748D01*
X144159972Y-89759572D01*
X144133412Y-89666118D01*
X144144638Y-89569613D01*
X144191939Y-89484751D01*
X144205537Y-89470011D01*
X144268483Y-89407064D01*
X144268501Y-89407045D01*
X144331286Y-89330541D01*
X144418842Y-89199505D01*
X144465515Y-89112185D01*
X144525812Y-88966614D01*
X144525820Y-88966593D01*
X144554552Y-88871877D01*
X144570839Y-88790000D01*
X142699618Y-88790000D01*
X142750064Y-88739554D01*
X142792851Y-88665445D01*
X142815000Y-88582787D01*
X142815000Y-88497213D01*
X142792851Y-88414555D01*
X142750064Y-88340446D01*
X142699618Y-88290000D01*
X144570839Y-88290000D01*
X144554552Y-88208122D01*
X144525820Y-88113406D01*
X144525812Y-88113385D01*
X144465515Y-87967814D01*
X144418842Y-87880494D01*
X144331286Y-87749458D01*
X144268501Y-87672954D01*
X144264388Y-87668416D01*
X144265602Y-87667315D01*
X144217142Y-87594788D01*
X144198188Y-87499500D01*
X144217142Y-87404212D01*
X144271118Y-87323430D01*
X144351900Y-87269454D01*
X144447188Y-87250500D01*
X146078413Y-87250500D01*
X146078417Y-87250500D01*
X146272826Y-87219709D01*
X146460026Y-87158884D01*
X146635405Y-87069524D01*
X146794646Y-86953828D01*
X147953828Y-85794646D01*
X148069524Y-85635405D01*
X148158884Y-85460026D01*
X148219709Y-85272826D01*
X148241167Y-85137344D01*
X148248548Y-85090747D01*
X148250500Y-85078417D01*
X148250500Y-81901587D01*
X148250499Y-81901579D01*
X148249637Y-81896135D01*
X148241474Y-81844595D01*
X148219709Y-81707173D01*
X148173086Y-81563685D01*
X148158884Y-81519975D01*
X148104301Y-81412849D01*
X148069524Y-81344594D01*
X147953828Y-81185354D01*
X146815646Y-80047172D01*
X146683199Y-79950943D01*
X146617252Y-79879602D01*
X146583626Y-79788452D01*
X146587440Y-79691372D01*
X146628115Y-79603141D01*
X146699458Y-79537192D01*
X146790608Y-79503566D01*
X146829560Y-79500500D01*
X149218580Y-79500500D01*
X149313868Y-79519454D01*
G37*
%TD.AperFunction*%
%TA.AperFunction,Conductor*%
G36*
X158193807Y-124612326D02*
G01*
X158223139Y-124613479D01*
X158241003Y-124621714D01*
X158260301Y-124625553D01*
X158284711Y-124641863D01*
X158311370Y-124654153D01*
X158324723Y-124668598D01*
X158341082Y-124679529D01*
X158357391Y-124703938D01*
X158377320Y-124725496D01*
X158384129Y-124743954D01*
X158395059Y-124760311D01*
X158410947Y-124816645D01*
X158416446Y-124851366D01*
X158482229Y-125053826D01*
X158489432Y-125075992D01*
X158589683Y-125272747D01*
X158596659Y-125286437D01*
X158735478Y-125477504D01*
X158735480Y-125477506D01*
X158735483Y-125477510D01*
X158902490Y-125644517D01*
X158902493Y-125644519D01*
X158902495Y-125644521D01*
X159093562Y-125783340D01*
X159093564Y-125783341D01*
X159093567Y-125783343D01*
X159304008Y-125890568D01*
X159528632Y-125963553D01*
X159761908Y-126000500D01*
X159761912Y-126000500D01*
X159998089Y-126000500D01*
X159998092Y-126000500D01*
X160114799Y-125982015D01*
X160139347Y-125979367D01*
X160168461Y-125977684D01*
X161438547Y-125754265D01*
X161481686Y-125750500D01*
X165241000Y-125750500D01*
X165336288Y-125769454D01*
X165417070Y-125823430D01*
X165471046Y-125904212D01*
X165490000Y-125999500D01*
X165490000Y-126449999D01*
X165490001Y-126450000D01*
X166591000Y-126450000D01*
X166623848Y-126456533D01*
X166579936Y-126500446D01*
X166537149Y-126574555D01*
X166515000Y-126657213D01*
X166515000Y-126742787D01*
X166537149Y-126825445D01*
X166579936Y-126899554D01*
X166623848Y-126943466D01*
X166591000Y-126950000D01*
X165490001Y-126950000D01*
X165490000Y-126950001D01*
X165490000Y-127597832D01*
X165498067Y-127672863D01*
X165496501Y-127673031D01*
X165499325Y-127752184D01*
X165465369Y-127843212D01*
X165399162Y-127914316D01*
X165310785Y-127954672D01*
X165221164Y-127959230D01*
X164134360Y-127816741D01*
X164134367Y-127816741D01*
X164096168Y-127814172D01*
X164073934Y-127811669D01*
X163997093Y-127799500D01*
X163997092Y-127799500D01*
X163760908Y-127799500D01*
X163760905Y-127799500D01*
X163760896Y-127799501D01*
X163527635Y-127836446D01*
X163303012Y-127909430D01*
X163092562Y-128016659D01*
X162901495Y-128155478D01*
X162734478Y-128322495D01*
X162595659Y-128513562D01*
X162488430Y-128724011D01*
X162457126Y-128820357D01*
X162409654Y-128905124D01*
X162333356Y-128965272D01*
X162239849Y-128991643D01*
X162143367Y-128980224D01*
X162058600Y-128932752D01*
X162044243Y-128919481D01*
X161570934Y-128446172D01*
X161570934Y-128446171D01*
X161390935Y-128266173D01*
X161390934Y-128266172D01*
X161231693Y-128150476D01*
X161056314Y-128061116D01*
X161056311Y-128061115D01*
X161056309Y-128061114D01*
X160869111Y-128000290D01*
X160674716Y-127969501D01*
X160674707Y-127969500D01*
X160674705Y-127969500D01*
X160674701Y-127969500D01*
X144407188Y-127969500D01*
X144311900Y-127950546D01*
X144231118Y-127896570D01*
X144177142Y-127815788D01*
X144158188Y-127720500D01*
X144177142Y-127625212D01*
X144231118Y-127544430D01*
X144268493Y-127507055D01*
X144268501Y-127507045D01*
X144331286Y-127430541D01*
X144418842Y-127299505D01*
X144465515Y-127212185D01*
X144525812Y-127066614D01*
X144525820Y-127066593D01*
X144554552Y-126971877D01*
X144570839Y-126890000D01*
X142739000Y-126890000D01*
X142706151Y-126883466D01*
X142750064Y-126839554D01*
X142792851Y-126765445D01*
X142815000Y-126682787D01*
X142815000Y-126597213D01*
X142792851Y-126514555D01*
X142750064Y-126440446D01*
X142706151Y-126396533D01*
X142739000Y-126390000D01*
X144570839Y-126390000D01*
X144554552Y-126308122D01*
X144525820Y-126213406D01*
X144525812Y-126213385D01*
X144465515Y-126067814D01*
X144418842Y-125980494D01*
X144331286Y-125849458D01*
X144268501Y-125772954D01*
X144264388Y-125768416D01*
X144265602Y-125767315D01*
X144217142Y-125694788D01*
X144198188Y-125599500D01*
X144217142Y-125504212D01*
X144271118Y-125423430D01*
X144351900Y-125369454D01*
X144447188Y-125350500D01*
X156898413Y-125350500D01*
X156898417Y-125350500D01*
X157092826Y-125319709D01*
X157280026Y-125258884D01*
X157455405Y-125169524D01*
X157614646Y-125053828D01*
X157988944Y-124679528D01*
X158013352Y-124663220D01*
X158034910Y-124643292D01*
X158053368Y-124636482D01*
X158069725Y-124625553D01*
X158098516Y-124619825D01*
X158126059Y-124609665D01*
X158145716Y-124610437D01*
X158165013Y-124606599D01*
X158193807Y-124612326D01*
G37*
%TD.AperFunction*%
%TA.AperFunction,Conductor*%
G36*
X129797752Y-82270454D02*
G01*
X129878534Y-82324430D01*
X129932510Y-82405212D01*
X129951464Y-82500500D01*
X129932510Y-82595788D01*
X129878534Y-82676570D01*
X129844897Y-82710206D01*
X129719950Y-82882182D01*
X129623441Y-83071592D01*
X129557753Y-83273759D01*
X129524500Y-83483703D01*
X129524500Y-83696296D01*
X129557753Y-83906240D01*
X129620638Y-84099781D01*
X129623443Y-84108412D01*
X129719949Y-84297816D01*
X129844896Y-84469792D01*
X129995208Y-84620104D01*
X130167184Y-84745051D01*
X130356588Y-84841557D01*
X130558757Y-84907246D01*
X130632601Y-84918941D01*
X130768703Y-84940499D01*
X130768710Y-84940499D01*
X130768713Y-84940500D01*
X130768716Y-84940500D01*
X130981284Y-84940500D01*
X130981287Y-84940500D01*
X130981290Y-84940499D01*
X130981296Y-84940499D01*
X131080476Y-84924789D01*
X131191243Y-84907246D01*
X131393412Y-84841557D01*
X131582816Y-84745051D01*
X131754792Y-84620104D01*
X131905104Y-84469792D01*
X132030051Y-84297816D01*
X132126557Y-84108412D01*
X132192246Y-83906243D01*
X132225500Y-83696287D01*
X132225500Y-83483713D01*
X132225499Y-83483710D01*
X132225499Y-83483703D01*
X132198778Y-83315000D01*
X132192246Y-83273757D01*
X132126557Y-83071588D01*
X132030051Y-82882184D01*
X131905104Y-82710208D01*
X131871466Y-82676570D01*
X131817490Y-82595788D01*
X131798536Y-82500500D01*
X131817490Y-82405212D01*
X131871466Y-82324430D01*
X131952248Y-82270454D01*
X132047536Y-82251500D01*
X135152464Y-82251500D01*
X135247752Y-82270454D01*
X135328534Y-82324430D01*
X135382510Y-82405212D01*
X135401464Y-82500500D01*
X135382510Y-82595788D01*
X135328534Y-82676570D01*
X135294897Y-82710206D01*
X135169950Y-82882182D01*
X135073441Y-83071592D01*
X135007753Y-83273759D01*
X134974500Y-83483703D01*
X134974500Y-83696296D01*
X135007753Y-83906240D01*
X135070638Y-84099781D01*
X135073443Y-84108412D01*
X135169949Y-84297816D01*
X135294896Y-84469792D01*
X135445208Y-84620104D01*
X135617184Y-84745051D01*
X135806588Y-84841557D01*
X136008757Y-84907246D01*
X136082601Y-84918941D01*
X136218703Y-84940499D01*
X136218710Y-84940499D01*
X136218713Y-84940500D01*
X136218716Y-84940500D01*
X136431284Y-84940500D01*
X136431287Y-84940500D01*
X136431290Y-84940499D01*
X136431296Y-84940499D01*
X136530476Y-84924789D01*
X136641243Y-84907246D01*
X136843412Y-84841557D01*
X137032816Y-84745051D01*
X137204792Y-84620104D01*
X137355104Y-84469792D01*
X137480051Y-84297816D01*
X137576557Y-84108412D01*
X137642246Y-83906243D01*
X137675500Y-83696287D01*
X137675500Y-83483713D01*
X137675499Y-83483710D01*
X137675499Y-83483703D01*
X137648778Y-83315000D01*
X137642246Y-83273757D01*
X137576557Y-83071588D01*
X137480051Y-82882184D01*
X137355104Y-82710208D01*
X137321466Y-82676570D01*
X137267490Y-82595788D01*
X137248536Y-82500500D01*
X137267490Y-82405212D01*
X137321466Y-82324430D01*
X137402248Y-82270454D01*
X137497536Y-82251500D01*
X140167281Y-82251500D01*
X140262569Y-82270454D01*
X140343351Y-82324430D01*
X140397327Y-82405212D01*
X140416281Y-82500500D01*
X140397327Y-82595788D01*
X140380370Y-82629318D01*
X140298355Y-82764985D01*
X140204890Y-82997220D01*
X140204886Y-82997233D01*
X140149886Y-83241436D01*
X140139500Y-83388547D01*
X140139500Y-83531452D01*
X140149886Y-83678563D01*
X140204886Y-83922766D01*
X140204890Y-83922779D01*
X140298355Y-84155014D01*
X140427867Y-84369253D01*
X140596565Y-84567579D01*
X140594405Y-84569415D01*
X140638035Y-84634712D01*
X140656989Y-84730000D01*
X140638035Y-84825288D01*
X140594405Y-84890584D01*
X140596565Y-84892421D01*
X140427867Y-85090746D01*
X140298355Y-85304985D01*
X140204890Y-85537220D01*
X140204886Y-85537233D01*
X140149886Y-85781436D01*
X140139500Y-85928547D01*
X140139500Y-86071452D01*
X140149886Y-86218563D01*
X140204886Y-86462766D01*
X140204890Y-86462779D01*
X140298355Y-86695014D01*
X140427867Y-86909253D01*
X140596565Y-87107579D01*
X140594707Y-87109159D01*
X140639460Y-87176137D01*
X140658414Y-87271425D01*
X140639460Y-87366713D01*
X140585487Y-87447491D01*
X140563352Y-87469626D01*
X140527237Y-87509831D01*
X140453884Y-87633463D01*
X140423443Y-87706957D01*
X140423434Y-87706980D01*
X140405456Y-87757940D01*
X140405456Y-87757942D01*
X140385000Y-87900221D01*
X140385000Y-88289999D01*
X140385001Y-88290000D01*
X142280382Y-88290000D01*
X142229936Y-88340446D01*
X142187149Y-88414555D01*
X142165000Y-88497213D01*
X142165000Y-88582787D01*
X142187149Y-88665445D01*
X142229936Y-88739554D01*
X142280382Y-88790000D01*
X140385001Y-88790000D01*
X140385000Y-88790001D01*
X140385000Y-89179789D01*
X140387893Y-89233761D01*
X140387894Y-89233769D01*
X140423441Y-89373040D01*
X140423441Y-89373041D01*
X140453878Y-89446522D01*
X140477221Y-89495313D01*
X140477222Y-89495314D01*
X140563354Y-89610374D01*
X140585484Y-89632504D01*
X140639460Y-89713286D01*
X140658414Y-89808574D01*
X140639460Y-89903862D01*
X140594713Y-89970845D01*
X140596565Y-89972421D01*
X140427867Y-90170746D01*
X140298355Y-90384985D01*
X140204890Y-90617220D01*
X140204886Y-90617233D01*
X140149886Y-90861436D01*
X140139500Y-91008547D01*
X140139500Y-91151452D01*
X140149886Y-91298563D01*
X140204886Y-91542766D01*
X140204890Y-91542779D01*
X140298355Y-91775014D01*
X140427867Y-91989253D01*
X140596565Y-92187579D01*
X140594405Y-92189415D01*
X140638035Y-92254712D01*
X140656989Y-92350000D01*
X140638035Y-92445288D01*
X140594405Y-92510584D01*
X140596565Y-92512421D01*
X140427867Y-92710746D01*
X140298355Y-92924985D01*
X140204890Y-93157220D01*
X140204886Y-93157233D01*
X140149886Y-93401436D01*
X140139500Y-93548547D01*
X140139500Y-93691452D01*
X140149886Y-93838563D01*
X140204886Y-94082766D01*
X140204890Y-94082779D01*
X140298355Y-94315014D01*
X140427867Y-94529253D01*
X140596565Y-94727579D01*
X140594405Y-94729415D01*
X140638035Y-94794712D01*
X140656989Y-94890000D01*
X140638035Y-94985288D01*
X140594405Y-95050584D01*
X140596565Y-95052421D01*
X140427867Y-95250746D01*
X140298355Y-95464985D01*
X140204890Y-95697220D01*
X140204886Y-95697233D01*
X140149886Y-95941436D01*
X140139500Y-96088547D01*
X140139500Y-96231452D01*
X140149886Y-96378563D01*
X140204886Y-96622766D01*
X140204890Y-96622779D01*
X140298355Y-96855014D01*
X140427867Y-97069253D01*
X140596565Y-97267579D01*
X140594405Y-97269415D01*
X140638035Y-97334712D01*
X140656989Y-97430000D01*
X140638035Y-97525288D01*
X140594405Y-97590584D01*
X140596565Y-97592421D01*
X140427867Y-97790746D01*
X140298355Y-98004985D01*
X140204890Y-98237220D01*
X140204886Y-98237233D01*
X140149886Y-98481436D01*
X140139500Y-98628547D01*
X140139500Y-98771452D01*
X140149886Y-98918563D01*
X140204886Y-99162766D01*
X140204890Y-99162779D01*
X140298355Y-99395014D01*
X140427867Y-99609252D01*
X140436048Y-99618870D01*
X140483348Y-99703733D01*
X140494572Y-99800237D01*
X140468011Y-99893691D01*
X140422452Y-99956266D01*
X140386234Y-99992484D01*
X140307943Y-100084420D01*
X140222456Y-100237595D01*
X140222454Y-100237598D01*
X140192008Y-100311103D01*
X140192004Y-100311115D01*
X140154866Y-100425982D01*
X140154864Y-100425995D01*
X140134500Y-100600218D01*
X140134500Y-101879781D01*
X140144148Y-102000136D01*
X140192006Y-102168889D01*
X140192009Y-102168899D01*
X140222453Y-102242400D01*
X140236681Y-102270224D01*
X140277429Y-102349911D01*
X140277431Y-102349913D01*
X140277433Y-102349917D01*
X140386233Y-102487515D01*
X140422447Y-102523728D01*
X140476425Y-102604509D01*
X140495380Y-102699797D01*
X140476427Y-102795085D01*
X140436052Y-102861124D01*
X140427869Y-102870744D01*
X140427868Y-102870745D01*
X140298355Y-103084985D01*
X140204890Y-103317220D01*
X140204886Y-103317233D01*
X140149886Y-103561436D01*
X140139500Y-103708547D01*
X140139500Y-103851452D01*
X140149886Y-103998563D01*
X140204886Y-104242766D01*
X140204890Y-104242779D01*
X140298355Y-104475014D01*
X140427867Y-104689253D01*
X140596565Y-104887579D01*
X140594405Y-104889415D01*
X140638035Y-104954712D01*
X140656989Y-105050000D01*
X140638035Y-105145288D01*
X140594405Y-105210584D01*
X140596565Y-105212421D01*
X140427867Y-105410746D01*
X140298355Y-105624985D01*
X140204890Y-105857220D01*
X140204886Y-105857233D01*
X140149886Y-106101436D01*
X140139500Y-106248547D01*
X140139500Y-106391452D01*
X140149886Y-106538563D01*
X140204886Y-106782766D01*
X140204890Y-106782779D01*
X140298355Y-107015014D01*
X140427867Y-107229253D01*
X140596565Y-107427579D01*
X140594405Y-107429415D01*
X140638035Y-107494712D01*
X140656989Y-107590000D01*
X140638035Y-107685288D01*
X140594405Y-107750584D01*
X140596565Y-107752421D01*
X140427867Y-107950746D01*
X140298355Y-108164985D01*
X140204890Y-108397220D01*
X140204886Y-108397233D01*
X140149886Y-108641436D01*
X140139500Y-108788547D01*
X140139500Y-108931452D01*
X140149886Y-109078563D01*
X140204886Y-109322766D01*
X140204890Y-109322779D01*
X140298355Y-109555014D01*
X140427867Y-109769253D01*
X140596565Y-109967579D01*
X140594405Y-109969415D01*
X140638035Y-110034712D01*
X140656989Y-110130000D01*
X140638035Y-110225288D01*
X140594405Y-110290584D01*
X140596565Y-110292421D01*
X140427867Y-110490746D01*
X140298355Y-110704985D01*
X140204890Y-110937220D01*
X140204886Y-110937233D01*
X140149886Y-111181436D01*
X140139500Y-111328547D01*
X140139500Y-111471455D01*
X140147639Y-111586734D01*
X140135442Y-111683120D01*
X140087289Y-111767502D01*
X140010509Y-111827034D01*
X139916792Y-111852651D01*
X139822312Y-111841082D01*
X139627173Y-111777678D01*
X139386136Y-111739500D01*
X139386127Y-111739500D01*
X139142073Y-111739500D01*
X139142063Y-111739500D01*
X138901026Y-111777678D01*
X138668919Y-111853094D01*
X138668915Y-111853095D01*
X138668915Y-111853096D01*
X138649911Y-111862779D01*
X138451459Y-111963895D01*
X138254019Y-112107343D01*
X138254017Y-112107344D01*
X138254017Y-112107345D01*
X138170166Y-112191195D01*
X138089388Y-112245169D01*
X137994100Y-112264123D01*
X137898812Y-112245169D01*
X137818033Y-112191195D01*
X137734183Y-112107345D01*
X137536739Y-111963894D01*
X137319285Y-111853096D01*
X137319282Y-111853095D01*
X137319280Y-111853094D01*
X137087173Y-111777678D01*
X136846136Y-111739500D01*
X136846127Y-111739500D01*
X136602073Y-111739500D01*
X136602063Y-111739500D01*
X136361026Y-111777678D01*
X136128919Y-111853094D01*
X136128915Y-111853095D01*
X136128915Y-111853096D01*
X136109911Y-111862779D01*
X135911455Y-111963897D01*
X135792388Y-112050404D01*
X135704157Y-112091079D01*
X135607077Y-112094892D01*
X135515927Y-112061264D01*
X135470450Y-112021507D01*
X135468600Y-112023358D01*
X135459669Y-112014427D01*
X135309851Y-111892266D01*
X135309846Y-111892263D01*
X135138505Y-111802762D01*
X135022287Y-111769508D01*
X134952652Y-111749583D01*
X134850305Y-111740483D01*
X134839239Y-111739500D01*
X134839238Y-111739500D01*
X133528962Y-111739500D01*
X133528960Y-111739500D01*
X133506826Y-111741467D01*
X133415548Y-111749583D01*
X133415545Y-111749584D01*
X133229694Y-111802762D01*
X133058353Y-111892263D01*
X133058348Y-111892266D01*
X132908530Y-112014427D01*
X132908527Y-112014430D01*
X132786366Y-112164248D01*
X132786363Y-112164253D01*
X132696862Y-112335594D01*
X132650279Y-112498394D01*
X132643683Y-112521448D01*
X132633600Y-112634862D01*
X132633600Y-113945138D01*
X132643683Y-114058552D01*
X132656298Y-114102639D01*
X132696862Y-114244405D01*
X132786363Y-114415746D01*
X132786366Y-114415751D01*
X132908527Y-114565569D01*
X132908530Y-114565572D01*
X132950145Y-114599505D01*
X133058349Y-114687734D01*
X133229694Y-114777237D01*
X133415548Y-114830417D01*
X133528962Y-114840500D01*
X133528965Y-114840500D01*
X134839235Y-114840500D01*
X134839238Y-114840500D01*
X134952652Y-114830417D01*
X135138506Y-114777237D01*
X135309851Y-114687734D01*
X135459671Y-114565571D01*
X135459675Y-114565565D01*
X135468600Y-114556642D01*
X135470911Y-114558953D01*
X135527838Y-114511880D01*
X135620705Y-114483332D01*
X135717426Y-114492496D01*
X135792387Y-114529594D01*
X135911461Y-114616106D01*
X136128915Y-114726904D01*
X136361024Y-114802321D01*
X136445803Y-114815748D01*
X136602063Y-114840499D01*
X136602070Y-114840499D01*
X136602073Y-114840500D01*
X136602076Y-114840500D01*
X136846124Y-114840500D01*
X136846127Y-114840500D01*
X136846130Y-114840499D01*
X136846136Y-114840499D01*
X136960006Y-114822462D01*
X137087176Y-114802321D01*
X137319285Y-114726904D01*
X137536739Y-114616106D01*
X137734183Y-114472655D01*
X137818033Y-114388804D01*
X137898812Y-114334831D01*
X137994100Y-114315877D01*
X138089388Y-114334831D01*
X138170166Y-114388804D01*
X138254017Y-114472655D01*
X138451461Y-114616106D01*
X138668915Y-114726904D01*
X138901024Y-114802321D01*
X138985803Y-114815748D01*
X139142063Y-114840499D01*
X139142070Y-114840499D01*
X139142073Y-114840500D01*
X139142076Y-114840500D01*
X139386124Y-114840500D01*
X139386127Y-114840500D01*
X139386130Y-114840499D01*
X139386136Y-114840499D01*
X139500006Y-114822462D01*
X139627176Y-114802321D01*
X139859285Y-114726904D01*
X140070767Y-114619148D01*
X140164270Y-114592778D01*
X140260751Y-114604197D01*
X140345519Y-114651668D01*
X140396021Y-114710755D01*
X140621628Y-115078319D01*
X140628481Y-115096854D01*
X140639460Y-115113286D01*
X140645170Y-115141993D01*
X140655320Y-115169445D01*
X140654558Y-115189191D01*
X140658414Y-115208574D01*
X140652703Y-115237280D01*
X140651576Y-115266528D01*
X140643315Y-115284480D01*
X140639460Y-115303862D01*
X140623190Y-115328216D01*
X140610964Y-115354788D01*
X140596488Y-115368188D01*
X140594713Y-115370845D01*
X140596565Y-115372421D01*
X140427867Y-115570746D01*
X140298355Y-115784985D01*
X140204890Y-116017220D01*
X140204886Y-116017233D01*
X140149886Y-116261436D01*
X140139500Y-116408547D01*
X140139500Y-116551452D01*
X140149886Y-116698563D01*
X140204886Y-116942766D01*
X140204890Y-116942779D01*
X140298355Y-117175014D01*
X140427867Y-117389253D01*
X140596565Y-117587579D01*
X140594405Y-117589415D01*
X140638035Y-117654712D01*
X140656989Y-117750000D01*
X140638035Y-117845288D01*
X140594405Y-117910584D01*
X140596565Y-117912421D01*
X140427867Y-118110746D01*
X140298355Y-118324985D01*
X140204890Y-118557220D01*
X140204886Y-118557233D01*
X140149886Y-118801436D01*
X140139500Y-118948547D01*
X140139500Y-119091452D01*
X140149886Y-119238563D01*
X140204886Y-119482766D01*
X140204890Y-119482779D01*
X140298355Y-119715014D01*
X140427867Y-119929253D01*
X140596565Y-120127579D01*
X140594405Y-120129415D01*
X140638035Y-120194712D01*
X140656989Y-120290000D01*
X140638035Y-120385288D01*
X140594405Y-120450584D01*
X140596565Y-120452421D01*
X140427867Y-120650746D01*
X140298355Y-120864985D01*
X140204890Y-121097220D01*
X140204886Y-121097233D01*
X140149886Y-121341436D01*
X140139500Y-121488547D01*
X140139500Y-121631452D01*
X140149886Y-121778563D01*
X140204886Y-122022766D01*
X140204890Y-122022779D01*
X140298355Y-122255014D01*
X140427867Y-122469253D01*
X140596565Y-122667579D01*
X140594405Y-122669415D01*
X140638035Y-122734712D01*
X140656989Y-122830000D01*
X140638035Y-122925288D01*
X140594405Y-122990584D01*
X140596565Y-122992421D01*
X140427867Y-123190746D01*
X140298355Y-123404985D01*
X140204890Y-123637220D01*
X140204886Y-123637233D01*
X140149886Y-123881436D01*
X140139500Y-124028547D01*
X140139500Y-124171452D01*
X140143774Y-124231994D01*
X140149886Y-124318558D01*
X140149886Y-124318561D01*
X140150233Y-124323464D01*
X140138037Y-124419850D01*
X140089884Y-124504232D01*
X140013104Y-124563764D01*
X139919387Y-124589382D01*
X139901851Y-124590000D01*
X127298149Y-124590000D01*
X127202861Y-124571046D01*
X127122079Y-124517070D01*
X127068103Y-124436288D01*
X127049149Y-124341000D01*
X127049767Y-124323464D01*
X127050113Y-124318562D01*
X127050114Y-124318558D01*
X127060500Y-124171446D01*
X127060500Y-124028554D01*
X127050114Y-123881442D01*
X127043017Y-123849932D01*
X126995113Y-123637233D01*
X126995111Y-123637229D01*
X126995110Y-123637221D01*
X126901644Y-123404985D01*
X126843427Y-123308683D01*
X126772132Y-123190746D01*
X126603435Y-122992421D01*
X126605594Y-122990584D01*
X126561965Y-122925288D01*
X126543011Y-122830000D01*
X126561965Y-122734712D01*
X126605594Y-122669415D01*
X126603435Y-122667579D01*
X126772132Y-122469253D01*
X126772134Y-122469250D01*
X126901644Y-122255015D01*
X126995110Y-122022779D01*
X127050114Y-121778558D01*
X127060500Y-121631446D01*
X127060500Y-121488554D01*
X127050114Y-121341442D01*
X127045310Y-121320113D01*
X126995113Y-121097233D01*
X126995111Y-121097229D01*
X126995110Y-121097221D01*
X126901644Y-120864985D01*
X126870558Y-120813562D01*
X126772132Y-120650746D01*
X126603435Y-120452421D01*
X126605594Y-120450584D01*
X126561965Y-120385288D01*
X126543011Y-120290000D01*
X126561965Y-120194712D01*
X126605594Y-120129415D01*
X126603435Y-120127579D01*
X126772132Y-119929253D01*
X126806271Y-119872781D01*
X126901644Y-119715015D01*
X126995110Y-119482779D01*
X126995113Y-119482766D01*
X127050113Y-119238563D01*
X127050113Y-119238562D01*
X127050114Y-119238558D01*
X127060500Y-119091446D01*
X127060500Y-118948554D01*
X127050114Y-118801442D01*
X127014928Y-118645215D01*
X126995113Y-118557233D01*
X126995111Y-118557229D01*
X126995110Y-118557221D01*
X126901644Y-118324985D01*
X126840252Y-118223430D01*
X126772132Y-118110746D01*
X126603435Y-117912421D01*
X126605594Y-117910584D01*
X126561965Y-117845288D01*
X126543011Y-117750000D01*
X126561965Y-117654712D01*
X126605594Y-117589415D01*
X126603435Y-117587579D01*
X126772132Y-117389253D01*
X126772134Y-117389250D01*
X126901644Y-117175015D01*
X126995110Y-116942779D01*
X127031342Y-116781908D01*
X127050113Y-116698563D01*
X127050113Y-116698562D01*
X127050114Y-116698558D01*
X127060500Y-116551446D01*
X127060500Y-116408554D01*
X127050114Y-116261442D01*
X127037589Y-116205831D01*
X126995113Y-116017233D01*
X126995111Y-116017229D01*
X126995110Y-116017221D01*
X126901644Y-115784985D01*
X126888479Y-115763208D01*
X126772132Y-115570746D01*
X126603435Y-115372421D01*
X126605292Y-115370841D01*
X126560539Y-115303862D01*
X126541585Y-115208574D01*
X126560539Y-115113286D01*
X126614515Y-115032504D01*
X126614519Y-115032501D01*
X126636648Y-115010372D01*
X126672762Y-114970168D01*
X126746115Y-114846536D01*
X126776556Y-114773042D01*
X126776565Y-114773019D01*
X126794543Y-114722059D01*
X126794543Y-114722057D01*
X126815000Y-114579778D01*
X126815000Y-114190001D01*
X126814999Y-114190000D01*
X124919618Y-114190000D01*
X124970064Y-114139554D01*
X125012851Y-114065445D01*
X125035000Y-113982787D01*
X125035000Y-113897213D01*
X125012851Y-113814555D01*
X124970064Y-113740446D01*
X124919618Y-113690000D01*
X126814999Y-113690000D01*
X126815000Y-113689999D01*
X126815000Y-113300210D01*
X126812106Y-113246238D01*
X126812105Y-113246230D01*
X126776558Y-113106959D01*
X126776558Y-113106958D01*
X126746121Y-113033477D01*
X126722778Y-112984686D01*
X126722777Y-112984685D01*
X126636645Y-112869625D01*
X126614515Y-112847495D01*
X126560539Y-112766713D01*
X126541585Y-112671425D01*
X126560539Y-112576137D01*
X126605291Y-112509158D01*
X126603435Y-112507579D01*
X126772132Y-112309253D01*
X126810872Y-112245169D01*
X126901644Y-112095015D01*
X126995110Y-111862779D01*
X127008627Y-111802762D01*
X127050113Y-111618563D01*
X127050113Y-111618562D01*
X127050114Y-111618558D01*
X127060500Y-111471446D01*
X127060500Y-111328554D01*
X127050114Y-111181442D01*
X127043038Y-111150026D01*
X126995113Y-110937233D01*
X126995111Y-110937229D01*
X126995110Y-110937221D01*
X126901644Y-110704985D01*
X126772132Y-110490746D01*
X126603435Y-110292421D01*
X126605594Y-110290584D01*
X126561965Y-110225288D01*
X126543011Y-110130000D01*
X126561965Y-110034712D01*
X126605594Y-109969415D01*
X126603435Y-109967579D01*
X126772132Y-109769253D01*
X126817419Y-109694339D01*
X126901644Y-109555015D01*
X126995110Y-109322779D01*
X127013760Y-109239974D01*
X127050113Y-109078563D01*
X127050113Y-109078562D01*
X127050114Y-109078558D01*
X127060500Y-108931446D01*
X127060500Y-108788554D01*
X127050114Y-108641442D01*
X127037177Y-108584003D01*
X126995113Y-108397233D01*
X126995111Y-108397229D01*
X126995110Y-108397221D01*
X126901644Y-108164985D01*
X126772134Y-107950750D01*
X126772132Y-107950746D01*
X126603435Y-107752421D01*
X126605594Y-107750584D01*
X126561965Y-107685288D01*
X126543011Y-107590000D01*
X126561965Y-107494712D01*
X126605594Y-107429415D01*
X126603435Y-107427579D01*
X126772132Y-107229253D01*
X126772134Y-107229250D01*
X126901644Y-107015015D01*
X126995110Y-106782779D01*
X127050114Y-106538558D01*
X127060500Y-106391446D01*
X127060500Y-106248554D01*
X127050114Y-106101442D01*
X126995110Y-105857221D01*
X126901644Y-105624985D01*
X126772134Y-105410750D01*
X126772132Y-105410746D01*
X126603435Y-105212421D01*
X126605594Y-105210584D01*
X126561965Y-105145288D01*
X126543011Y-105050000D01*
X126561965Y-104954712D01*
X126605594Y-104889415D01*
X126603435Y-104887579D01*
X126772132Y-104689253D01*
X126772134Y-104689250D01*
X126901644Y-104475015D01*
X126995110Y-104242779D01*
X127050114Y-103998558D01*
X127060500Y-103851446D01*
X127060500Y-103708554D01*
X127050114Y-103561442D01*
X126995110Y-103317221D01*
X126901644Y-103084985D01*
X126826389Y-102960498D01*
X126772132Y-102870746D01*
X126603435Y-102672421D01*
X126605292Y-102670841D01*
X126560539Y-102603862D01*
X126541585Y-102508574D01*
X126560539Y-102413286D01*
X126614515Y-102332504D01*
X126614519Y-102332501D01*
X126636648Y-102310372D01*
X126672762Y-102270168D01*
X126746115Y-102146536D01*
X126776556Y-102073042D01*
X126776565Y-102073019D01*
X126794543Y-102022059D01*
X126794543Y-102022057D01*
X126815000Y-101879778D01*
X126815000Y-101490001D01*
X126814999Y-101490000D01*
X124959000Y-101490000D01*
X124926151Y-101483466D01*
X124970064Y-101439554D01*
X125012851Y-101365445D01*
X125035000Y-101282787D01*
X125035000Y-101197213D01*
X125012851Y-101114555D01*
X124970064Y-101040446D01*
X124926151Y-100996533D01*
X124959000Y-100990000D01*
X126814999Y-100990000D01*
X126815000Y-100989999D01*
X126815000Y-100600210D01*
X126812106Y-100546238D01*
X126812105Y-100546230D01*
X126776558Y-100406959D01*
X126776558Y-100406958D01*
X126746121Y-100333477D01*
X126722778Y-100284686D01*
X126722777Y-100284685D01*
X126636645Y-100169625D01*
X126614515Y-100147495D01*
X126560539Y-100066713D01*
X126541585Y-99971425D01*
X126560539Y-99876137D01*
X126605291Y-99809158D01*
X126603435Y-99807579D01*
X126772132Y-99609253D01*
X126813695Y-99540500D01*
X126901644Y-99395015D01*
X126995110Y-99162779D01*
X127021122Y-99047286D01*
X127050113Y-98918563D01*
X127050113Y-98918562D01*
X127050114Y-98918558D01*
X127060500Y-98771446D01*
X127060500Y-98628554D01*
X127050114Y-98481442D01*
X127037784Y-98426697D01*
X126995113Y-98237233D01*
X126995111Y-98237229D01*
X126995110Y-98237221D01*
X126901644Y-98004985D01*
X126869500Y-97951812D01*
X126772132Y-97790746D01*
X126603435Y-97592421D01*
X126605594Y-97590584D01*
X126561965Y-97525288D01*
X126543011Y-97430000D01*
X126561965Y-97334712D01*
X126605594Y-97269415D01*
X126603435Y-97267579D01*
X126772132Y-97069253D01*
X126866713Y-96912797D01*
X126901644Y-96855015D01*
X126995110Y-96622779D01*
X127050114Y-96378558D01*
X127060500Y-96231446D01*
X127060500Y-96088554D01*
X127050114Y-95941442D01*
X127034716Y-95873076D01*
X126995113Y-95697233D01*
X126995111Y-95697229D01*
X126995110Y-95697221D01*
X126901644Y-95464985D01*
X126821002Y-95331587D01*
X126772132Y-95250746D01*
X126603435Y-95052421D01*
X126605594Y-95050584D01*
X126561965Y-94985288D01*
X126543011Y-94890000D01*
X126561965Y-94794712D01*
X126605594Y-94729415D01*
X126603435Y-94727579D01*
X126772132Y-94529253D01*
X126772134Y-94529250D01*
X126901644Y-94315015D01*
X126995110Y-94082779D01*
X127024211Y-93953571D01*
X127050113Y-93838563D01*
X127050113Y-93838562D01*
X127050114Y-93838558D01*
X127060500Y-93691446D01*
X127060500Y-93548554D01*
X127050114Y-93401442D01*
X126995110Y-93157221D01*
X126901644Y-92924985D01*
X126822953Y-92794814D01*
X126772132Y-92710746D01*
X126603435Y-92512421D01*
X126605594Y-92510584D01*
X126561965Y-92445288D01*
X126543011Y-92350000D01*
X126561965Y-92254712D01*
X126605594Y-92189415D01*
X126603435Y-92187579D01*
X126772132Y-91989253D01*
X126772134Y-91989250D01*
X126901644Y-91775015D01*
X126995110Y-91542779D01*
X127050114Y-91298558D01*
X127060500Y-91151446D01*
X127060500Y-91008554D01*
X127050114Y-90861442D01*
X126995110Y-90617221D01*
X126901644Y-90384985D01*
X126772134Y-90170750D01*
X126772132Y-90170746D01*
X126603435Y-89972421D01*
X126605292Y-89970841D01*
X126560539Y-89903862D01*
X126541585Y-89808574D01*
X126560539Y-89713286D01*
X126614515Y-89632504D01*
X126614519Y-89632501D01*
X126636648Y-89610372D01*
X126672762Y-89570168D01*
X126746115Y-89446536D01*
X126776556Y-89373042D01*
X126776565Y-89373019D01*
X126794543Y-89322059D01*
X126794543Y-89322057D01*
X126815000Y-89179778D01*
X126815000Y-88790001D01*
X126814999Y-88790000D01*
X124919618Y-88790000D01*
X124970064Y-88739554D01*
X125012851Y-88665445D01*
X125035000Y-88582787D01*
X125035000Y-88497213D01*
X125012851Y-88414555D01*
X124970064Y-88340446D01*
X124919618Y-88290000D01*
X126814999Y-88290000D01*
X126815000Y-88289999D01*
X126815000Y-87900210D01*
X126812106Y-87846238D01*
X126812105Y-87846230D01*
X126776558Y-87706959D01*
X126776558Y-87706958D01*
X126746121Y-87633477D01*
X126722778Y-87584686D01*
X126722777Y-87584685D01*
X126636645Y-87469625D01*
X126614515Y-87447495D01*
X126560539Y-87366713D01*
X126541585Y-87271425D01*
X126560539Y-87176137D01*
X126605291Y-87109158D01*
X126603435Y-87107579D01*
X126772132Y-86909253D01*
X126780589Y-86895264D01*
X126901644Y-86695015D01*
X126969072Y-86527476D01*
X129999500Y-86527476D01*
X129999500Y-86712523D01*
X130028442Y-86895253D01*
X130028447Y-86895270D01*
X130085064Y-87069523D01*
X130085621Y-87071235D01*
X130161675Y-87220500D01*
X130169624Y-87236099D01*
X130278376Y-87385783D01*
X130278379Y-87385787D01*
X130409213Y-87516621D01*
X130558904Y-87625378D01*
X130723765Y-87709379D01*
X130899736Y-87766555D01*
X130899742Y-87766556D01*
X130899746Y-87766557D01*
X131082476Y-87795499D01*
X131082483Y-87795499D01*
X131082486Y-87795500D01*
X131082489Y-87795500D01*
X131267511Y-87795500D01*
X131267514Y-87795500D01*
X131267517Y-87795499D01*
X131267523Y-87795499D01*
X131450253Y-87766557D01*
X131450254Y-87766556D01*
X131450264Y-87766555D01*
X131626235Y-87709379D01*
X131791096Y-87625378D01*
X131940787Y-87516621D01*
X132071621Y-87385787D01*
X132180378Y-87236096D01*
X132264379Y-87071235D01*
X132321555Y-86895264D01*
X132350500Y-86712514D01*
X132350500Y-86527486D01*
X132350499Y-86527483D01*
X132350499Y-86527476D01*
X134849500Y-86527476D01*
X134849500Y-86712523D01*
X134878442Y-86895253D01*
X134878447Y-86895270D01*
X134935064Y-87069523D01*
X134935621Y-87071235D01*
X135011675Y-87220500D01*
X135019624Y-87236099D01*
X135128376Y-87385783D01*
X135128379Y-87385787D01*
X135259213Y-87516621D01*
X135408904Y-87625378D01*
X135573765Y-87709379D01*
X135749736Y-87766555D01*
X135749742Y-87766556D01*
X135749746Y-87766557D01*
X135932476Y-87795499D01*
X135932483Y-87795499D01*
X135932486Y-87795500D01*
X135932489Y-87795500D01*
X136117511Y-87795500D01*
X136117514Y-87795500D01*
X136117517Y-87795499D01*
X136117523Y-87795499D01*
X136300253Y-87766557D01*
X136300254Y-87766556D01*
X136300264Y-87766555D01*
X136476235Y-87709379D01*
X136641096Y-87625378D01*
X136790787Y-87516621D01*
X136921621Y-87385787D01*
X137030378Y-87236096D01*
X137114379Y-87071235D01*
X137171555Y-86895264D01*
X137200500Y-86712514D01*
X137200500Y-86527486D01*
X137200499Y-86527483D01*
X137200499Y-86527476D01*
X137171557Y-86344746D01*
X137171556Y-86344742D01*
X137171555Y-86344736D01*
X137114379Y-86168765D01*
X137030378Y-86003904D01*
X136921621Y-85854213D01*
X136790787Y-85723379D01*
X136790783Y-85723376D01*
X136641099Y-85614624D01*
X136641098Y-85614623D01*
X136641096Y-85614622D01*
X136476235Y-85530621D01*
X136476224Y-85530617D01*
X136300270Y-85473447D01*
X136300271Y-85473447D01*
X136300264Y-85473445D01*
X136300262Y-85473444D01*
X136300253Y-85473442D01*
X136117523Y-85444500D01*
X136117514Y-85444500D01*
X135932486Y-85444500D01*
X135932476Y-85444500D01*
X135749746Y-85473442D01*
X135749729Y-85473447D01*
X135573775Y-85530617D01*
X135573764Y-85530621D01*
X135408900Y-85614624D01*
X135259216Y-85723376D01*
X135128376Y-85854216D01*
X135019624Y-86003900D01*
X134935621Y-86168764D01*
X134935617Y-86168775D01*
X134878447Y-86344729D01*
X134878442Y-86344746D01*
X134849500Y-86527476D01*
X132350499Y-86527476D01*
X132321557Y-86344746D01*
X132321556Y-86344742D01*
X132321555Y-86344736D01*
X132264379Y-86168765D01*
X132180378Y-86003904D01*
X132071621Y-85854213D01*
X131940787Y-85723379D01*
X131940783Y-85723376D01*
X131791099Y-85614624D01*
X131791098Y-85614623D01*
X131791096Y-85614622D01*
X131626235Y-85530621D01*
X131626224Y-85530617D01*
X131450270Y-85473447D01*
X131450271Y-85473447D01*
X131450264Y-85473445D01*
X131450262Y-85473444D01*
X131450253Y-85473442D01*
X131267523Y-85444500D01*
X131267514Y-85444500D01*
X131082486Y-85444500D01*
X131082476Y-85444500D01*
X130899746Y-85473442D01*
X130899729Y-85473447D01*
X130723775Y-85530617D01*
X130723764Y-85530621D01*
X130558900Y-85614624D01*
X130409216Y-85723376D01*
X130278376Y-85854216D01*
X130169624Y-86003900D01*
X130085621Y-86168764D01*
X130085617Y-86168775D01*
X130028447Y-86344729D01*
X130028442Y-86344746D01*
X129999500Y-86527476D01*
X126969072Y-86527476D01*
X126995110Y-86462779D01*
X127050114Y-86218558D01*
X127060500Y-86071446D01*
X127060500Y-85928554D01*
X127050114Y-85781442D01*
X127037036Y-85723376D01*
X126995113Y-85537233D01*
X126995111Y-85537229D01*
X126995110Y-85537221D01*
X126901644Y-85304985D01*
X126772134Y-85090750D01*
X126772132Y-85090746D01*
X126603435Y-84892421D01*
X126605587Y-84890590D01*
X126561933Y-84825256D01*
X126542979Y-84729968D01*
X126561933Y-84634680D01*
X126615904Y-84553904D01*
X126665620Y-84504189D01*
X126759577Y-84389703D01*
X126847127Y-84258675D01*
X126916942Y-84128060D01*
X126977248Y-83982469D01*
X127020241Y-83840739D01*
X127050984Y-83686181D01*
X127065500Y-83538793D01*
X127065500Y-83381207D01*
X127050984Y-83233819D01*
X127020241Y-83079261D01*
X126977248Y-82937531D01*
X126944711Y-82858981D01*
X126916943Y-82791941D01*
X126916941Y-82791938D01*
X126873254Y-82710206D01*
X126847127Y-82661325D01*
X126832100Y-82638835D01*
X126794921Y-82549075D01*
X126794922Y-82451920D01*
X126832102Y-82362161D01*
X126900802Y-82293463D01*
X126990562Y-82256284D01*
X127039137Y-82251500D01*
X129702464Y-82251500D01*
X129797752Y-82270454D01*
G37*
%TD.AperFunction*%
%TA.AperFunction,Conductor*%
G36*
X113796023Y-87269454D02*
G01*
X113876805Y-87323430D01*
X113930781Y-87404212D01*
X113949735Y-87499500D01*
X113946533Y-87526972D01*
X113948067Y-87527137D01*
X113940000Y-87602167D01*
X113940000Y-88249999D01*
X113940001Y-88250000D01*
X115080382Y-88250000D01*
X115029936Y-88300446D01*
X114987149Y-88374555D01*
X114965000Y-88457213D01*
X114965000Y-88542787D01*
X114987149Y-88625445D01*
X115029936Y-88699554D01*
X115090446Y-88760064D01*
X115164555Y-88802851D01*
X115247213Y-88825000D01*
X115332787Y-88825000D01*
X115415445Y-88802851D01*
X115489554Y-88760064D01*
X115499617Y-88750001D01*
X115540000Y-88750001D01*
X115540000Y-89849999D01*
X115540001Y-89850000D01*
X116187825Y-89850000D01*
X116187832Y-89849999D01*
X116247371Y-89843598D01*
X116247378Y-89843596D01*
X116382087Y-89793353D01*
X116497187Y-89707189D01*
X116497189Y-89707187D01*
X116583353Y-89592087D01*
X116633596Y-89457378D01*
X116633598Y-89457371D01*
X116639999Y-89397832D01*
X116640000Y-89397825D01*
X116640000Y-88750001D01*
X116639999Y-88750000D01*
X115540001Y-88750000D01*
X115540000Y-88750001D01*
X115499617Y-88750001D01*
X115550064Y-88699554D01*
X115592851Y-88625445D01*
X115615000Y-88542787D01*
X115615000Y-88457213D01*
X115592851Y-88374555D01*
X115550064Y-88300446D01*
X115499618Y-88250000D01*
X116639999Y-88250000D01*
X116640000Y-88249999D01*
X116640000Y-87602175D01*
X116639999Y-87602167D01*
X116631933Y-87527137D01*
X116635864Y-87526714D01*
X116633472Y-87459663D01*
X116667427Y-87368634D01*
X116733633Y-87297529D01*
X116822009Y-87257172D01*
X116879265Y-87250500D01*
X122752812Y-87250500D01*
X122848100Y-87269454D01*
X122928882Y-87323430D01*
X122982858Y-87404212D01*
X123001812Y-87499500D01*
X122982858Y-87594788D01*
X122934397Y-87667315D01*
X122935612Y-87668416D01*
X122931498Y-87672954D01*
X122868713Y-87749458D01*
X122781157Y-87880494D01*
X122734484Y-87967814D01*
X122674187Y-88113385D01*
X122674179Y-88113406D01*
X122645447Y-88208122D01*
X122629161Y-88290000D01*
X124500382Y-88290000D01*
X124449936Y-88340446D01*
X124407149Y-88414555D01*
X124385000Y-88497213D01*
X124385000Y-88582787D01*
X124407149Y-88665445D01*
X124449936Y-88739554D01*
X124500382Y-88790000D01*
X122629161Y-88790000D01*
X122645447Y-88871877D01*
X122674179Y-88966593D01*
X122674187Y-88966614D01*
X122734484Y-89112185D01*
X122781157Y-89199505D01*
X122868713Y-89330541D01*
X122931498Y-89407045D01*
X122931507Y-89407055D01*
X122994464Y-89470012D01*
X123048440Y-89550794D01*
X123067394Y-89646082D01*
X123048440Y-89741370D01*
X122994464Y-89822152D01*
X122979726Y-89835748D01*
X122810066Y-89980062D01*
X122810057Y-89980071D01*
X122647867Y-90170746D01*
X122518355Y-90384985D01*
X122424890Y-90617220D01*
X122424886Y-90617233D01*
X122369886Y-90861436D01*
X122359500Y-91008547D01*
X122359500Y-91151452D01*
X122369886Y-91298563D01*
X122424886Y-91542766D01*
X122424890Y-91542779D01*
X122518355Y-91775014D01*
X122647865Y-91989249D01*
X122654092Y-91996570D01*
X122718421Y-92072197D01*
X122765721Y-92157058D01*
X122776947Y-92253562D01*
X122750387Y-92347016D01*
X122690086Y-92423193D01*
X122637895Y-92455111D01*
X122638692Y-92456675D01*
X122629977Y-92461115D01*
X122629975Y-92461116D01*
X122551474Y-92501114D01*
X122454590Y-92550478D01*
X122295360Y-92666166D01*
X120346170Y-94615356D01*
X120327781Y-94640667D01*
X120263302Y-94729415D01*
X120230475Y-94774597D01*
X120230473Y-94774598D01*
X120140219Y-94951733D01*
X120138092Y-94959277D01*
X120080290Y-95137173D01*
X120080290Y-95137176D01*
X120049501Y-95331571D01*
X120049500Y-95331587D01*
X120049500Y-101878886D01*
X120030546Y-101974174D01*
X119976570Y-102054956D01*
X119454956Y-102576570D01*
X119374174Y-102630546D01*
X119278886Y-102649500D01*
X114158416Y-102649500D01*
X113961583Y-102649500D01*
X113961580Y-102649500D01*
X113961571Y-102649501D01*
X113767176Y-102680290D01*
X113706344Y-102700055D01*
X113579976Y-102741115D01*
X113540424Y-102761268D01*
X113404595Y-102830476D01*
X113349163Y-102870750D01*
X113349162Y-102870751D01*
X113349161Y-102870750D01*
X113245363Y-102946163D01*
X113245361Y-102946166D01*
X113245357Y-102946169D01*
X113245354Y-102946172D01*
X110980942Y-105210584D01*
X108815170Y-107376356D01*
X108729179Y-107494712D01*
X108699476Y-107535595D01*
X108672034Y-107589454D01*
X108610114Y-107710978D01*
X108560624Y-107863294D01*
X108549290Y-107898173D01*
X108549290Y-107898176D01*
X108518501Y-108092571D01*
X108518500Y-108092587D01*
X108518500Y-108488715D01*
X108499546Y-108584003D01*
X108445570Y-108664785D01*
X108364788Y-108718761D01*
X108269500Y-108737715D01*
X108174212Y-108718761D01*
X108093430Y-108664785D01*
X108047640Y-108601759D01*
X107996336Y-108501071D01*
X107996328Y-108501058D01*
X107977883Y-108475670D01*
X107323553Y-109130000D01*
X107977882Y-109784328D01*
X107996333Y-109758934D01*
X108047640Y-109658240D01*
X108107788Y-109581943D01*
X108192555Y-109534471D01*
X108289037Y-109523052D01*
X108382544Y-109549424D01*
X108458841Y-109609572D01*
X108506313Y-109694339D01*
X108518500Y-109771284D01*
X108518500Y-115506937D01*
X108499546Y-115602225D01*
X108445570Y-115683007D01*
X108364788Y-115736983D01*
X108269500Y-115755937D01*
X108174212Y-115736983D01*
X108150356Y-115721043D01*
X108115269Y-115718282D01*
X107353553Y-116479999D01*
X108125502Y-117251948D01*
X108131001Y-117260178D01*
X108138775Y-117266307D01*
X108157822Y-117300319D01*
X108179478Y-117332730D01*
X108181408Y-117342437D01*
X108186246Y-117351075D01*
X108190827Y-117389786D01*
X108198432Y-117428018D01*
X108196500Y-117437727D01*
X108197664Y-117447557D01*
X108187083Y-117485071D01*
X108179478Y-117523306D01*
X108173977Y-117531537D01*
X108171291Y-117541064D01*
X108147160Y-117571673D01*
X108125502Y-117604088D01*
X108117271Y-117609587D01*
X108111143Y-117617361D01*
X108077130Y-117636408D01*
X108044720Y-117658064D01*
X108035012Y-117659994D01*
X108026375Y-117664832D01*
X107987663Y-117669413D01*
X107949432Y-117677018D01*
X107939722Y-117675086D01*
X107929893Y-117676250D01*
X107892378Y-117665669D01*
X107854144Y-117658064D01*
X107836386Y-117649877D01*
X107830620Y-117646939D01*
X107767596Y-117601150D01*
X106999999Y-116833553D01*
X106232399Y-117601151D01*
X106169378Y-117646939D01*
X106169377Y-117646940D01*
X106163615Y-117649876D01*
X106133689Y-117658316D01*
X106111883Y-117685978D01*
X106096530Y-117698081D01*
X105957348Y-117799203D01*
X105779204Y-117977347D01*
X105631134Y-118181148D01*
X105516757Y-118405625D01*
X105438909Y-118645217D01*
X105399500Y-118894028D01*
X105399500Y-119145971D01*
X105438909Y-119394782D01*
X105438910Y-119394785D01*
X105516759Y-119634379D01*
X105631130Y-119858845D01*
X105631133Y-119858849D01*
X105631134Y-119858851D01*
X105682282Y-119929250D01*
X105779207Y-120062656D01*
X105830484Y-120113933D01*
X105884458Y-120194712D01*
X105903412Y-120290000D01*
X105884458Y-120385288D01*
X105830484Y-120466066D01*
X105779207Y-120517344D01*
X105779204Y-120517347D01*
X105631134Y-120721148D01*
X105631131Y-120721153D01*
X105631130Y-120721155D01*
X105584044Y-120813567D01*
X105516757Y-120945625D01*
X105438909Y-121185217D01*
X105399500Y-121434028D01*
X105399500Y-121685971D01*
X105438909Y-121934782D01*
X105494084Y-122104595D01*
X105516759Y-122174379D01*
X105570563Y-122279975D01*
X105631133Y-122398850D01*
X105636017Y-122405572D01*
X105648304Y-122432228D01*
X105664612Y-122456633D01*
X105668451Y-122475932D01*
X105676689Y-122493803D01*
X105677840Y-122523132D01*
X105683567Y-122551921D01*
X105679728Y-122571221D01*
X105680500Y-122590884D01*
X105670340Y-122618420D01*
X105664614Y-122647210D01*
X105653681Y-122663572D01*
X105646870Y-122682033D01*
X105610638Y-122727992D01*
X105562063Y-122776568D01*
X105481283Y-122830545D01*
X105385995Y-122849500D01*
X104509500Y-122849500D01*
X104414212Y-122830546D01*
X104333430Y-122776570D01*
X104279454Y-122695788D01*
X104260500Y-122600500D01*
X104260500Y-116373743D01*
X105650000Y-116373743D01*
X105650000Y-116586256D01*
X105683241Y-116796123D01*
X105748904Y-116998215D01*
X105748908Y-116998225D01*
X105845371Y-117187545D01*
X105845375Y-117187551D01*
X105884728Y-117241716D01*
X106646446Y-116479999D01*
X106603660Y-116437213D01*
X106675000Y-116437213D01*
X106675000Y-116522787D01*
X106697149Y-116605445D01*
X106739936Y-116679554D01*
X106800446Y-116740064D01*
X106874555Y-116782851D01*
X106957213Y-116805000D01*
X107042787Y-116805000D01*
X107125445Y-116782851D01*
X107199554Y-116740064D01*
X107260064Y-116679554D01*
X107302851Y-116605445D01*
X107325000Y-116522787D01*
X107325000Y-116437213D01*
X107302851Y-116354555D01*
X107260064Y-116280446D01*
X107199554Y-116219936D01*
X107125445Y-116177149D01*
X107042787Y-116155000D01*
X106957213Y-116155000D01*
X106874555Y-116177149D01*
X106800446Y-116219936D01*
X106739936Y-116280446D01*
X106697149Y-116354555D01*
X106675000Y-116437213D01*
X106603660Y-116437213D01*
X105884728Y-115718281D01*
X105845380Y-115772441D01*
X105845372Y-115772454D01*
X105748908Y-115961774D01*
X105748904Y-115961784D01*
X105683241Y-116163876D01*
X105650000Y-116373743D01*
X104260500Y-116373743D01*
X104260500Y-115364728D01*
X106238281Y-115364728D01*
X107000000Y-116126446D01*
X107761717Y-115364729D01*
X107707551Y-115325375D01*
X107707545Y-115325371D01*
X107518225Y-115228908D01*
X107518215Y-115228904D01*
X107316123Y-115163241D01*
X107106256Y-115130000D01*
X106893743Y-115130000D01*
X106683876Y-115163241D01*
X106481784Y-115228904D01*
X106481774Y-115228908D01*
X106292454Y-115325372D01*
X106292441Y-115325380D01*
X106238281Y-115364728D01*
X104260500Y-115364728D01*
X104260500Y-110137883D01*
X106315670Y-110137883D01*
X106341058Y-110156328D01*
X106341071Y-110156336D01*
X106509354Y-110242081D01*
X106509367Y-110242087D01*
X106688999Y-110300452D01*
X106875547Y-110329998D01*
X106875562Y-110330000D01*
X107064438Y-110330000D01*
X107064452Y-110329998D01*
X107250998Y-110300452D01*
X107251001Y-110300452D01*
X107430632Y-110242087D01*
X107430644Y-110242081D01*
X107598934Y-110156333D01*
X107624328Y-110137882D01*
X106970000Y-109483553D01*
X106315670Y-110137883D01*
X104260500Y-110137883D01*
X104260500Y-109035562D01*
X105770000Y-109035562D01*
X105770000Y-109224437D01*
X105770001Y-109224452D01*
X105799547Y-109410998D01*
X105799547Y-109411001D01*
X105857912Y-109590632D01*
X105857918Y-109590644D01*
X105943666Y-109758933D01*
X105943672Y-109758944D01*
X105962115Y-109784328D01*
X105962116Y-109784328D01*
X106616445Y-109130000D01*
X106570367Y-109083922D01*
X106620000Y-109083922D01*
X106620000Y-109176078D01*
X106643852Y-109265095D01*
X106689930Y-109344905D01*
X106755095Y-109410070D01*
X106834905Y-109456148D01*
X106923922Y-109480000D01*
X107016078Y-109480000D01*
X107105095Y-109456148D01*
X107184905Y-109410070D01*
X107250070Y-109344905D01*
X107296148Y-109265095D01*
X107320000Y-109176078D01*
X107320000Y-109083922D01*
X107296148Y-108994905D01*
X107250070Y-108915095D01*
X107184905Y-108849930D01*
X107105095Y-108803852D01*
X107016078Y-108780000D01*
X106923922Y-108780000D01*
X106834905Y-108803852D01*
X106755095Y-108849930D01*
X106689930Y-108915095D01*
X106643852Y-108994905D01*
X106620000Y-109083922D01*
X106570367Y-109083922D01*
X105962115Y-108475670D01*
X105943669Y-108501061D01*
X105943660Y-108501076D01*
X105857918Y-108669354D01*
X105857912Y-108669367D01*
X105799547Y-108848998D01*
X105799547Y-108849001D01*
X105770001Y-109035547D01*
X105770000Y-109035562D01*
X104260500Y-109035562D01*
X104260500Y-108122115D01*
X106315670Y-108122115D01*
X106970000Y-108776445D01*
X107624328Y-108122116D01*
X107624328Y-108122115D01*
X107598944Y-108103672D01*
X107598933Y-108103666D01*
X107430644Y-108017918D01*
X107430632Y-108017912D01*
X107251000Y-107959547D01*
X107064452Y-107930001D01*
X107064438Y-107930000D01*
X106875562Y-107930000D01*
X106875547Y-107930001D01*
X106689001Y-107959547D01*
X106688998Y-107959547D01*
X106509367Y-108017912D01*
X106509354Y-108017918D01*
X106341076Y-108103660D01*
X106341061Y-108103669D01*
X106315670Y-108122115D01*
X104260500Y-108122115D01*
X104260500Y-97408880D01*
X108069500Y-97408880D01*
X108069500Y-97671119D01*
X108103729Y-97931112D01*
X108171601Y-98184417D01*
X108271953Y-98426689D01*
X108271955Y-98426693D01*
X108271957Y-98426697D01*
X108303564Y-98481442D01*
X108403073Y-98653798D01*
X108403082Y-98653812D01*
X108562713Y-98861845D01*
X108562718Y-98861851D01*
X108748149Y-99047282D01*
X108748153Y-99047285D01*
X108748154Y-99047286D01*
X108956187Y-99206917D01*
X108956192Y-99206920D01*
X108956197Y-99206924D01*
X109183303Y-99338043D01*
X109425581Y-99438398D01*
X109678884Y-99506270D01*
X109938880Y-99540500D01*
X110201120Y-99540500D01*
X110461116Y-99506270D01*
X110714419Y-99438398D01*
X110956697Y-99338043D01*
X111183803Y-99206924D01*
X111391851Y-99047282D01*
X111577282Y-98861851D01*
X111736924Y-98653803D01*
X111868043Y-98426697D01*
X111968398Y-98184419D01*
X112036270Y-97931116D01*
X112070500Y-97671120D01*
X112070500Y-97408880D01*
X112036270Y-97148884D01*
X111968398Y-96895581D01*
X111868043Y-96653303D01*
X111736924Y-96426197D01*
X111736920Y-96426192D01*
X111736917Y-96426187D01*
X111577286Y-96218154D01*
X111577285Y-96218153D01*
X111577282Y-96218149D01*
X111391851Y-96032718D01*
X111391846Y-96032714D01*
X111391845Y-96032713D01*
X111183812Y-95873082D01*
X111183798Y-95873073D01*
X111036086Y-95787792D01*
X110956697Y-95741957D01*
X110956695Y-95741956D01*
X110956693Y-95741955D01*
X110956689Y-95741953D01*
X110714417Y-95641601D01*
X110604730Y-95612211D01*
X110461116Y-95573730D01*
X110461111Y-95573729D01*
X110461114Y-95573729D01*
X110201120Y-95539500D01*
X109938880Y-95539500D01*
X109678887Y-95573729D01*
X109425582Y-95641601D01*
X109183310Y-95741953D01*
X109183306Y-95741955D01*
X108956201Y-95873073D01*
X108956187Y-95873082D01*
X108748154Y-96032713D01*
X108562713Y-96218154D01*
X108403082Y-96426187D01*
X108403073Y-96426201D01*
X108271955Y-96653306D01*
X108271953Y-96653310D01*
X108171601Y-96895582D01*
X108103729Y-97148887D01*
X108069500Y-97408880D01*
X104260500Y-97408880D01*
X104260500Y-92759500D01*
X104279454Y-92664212D01*
X104333430Y-92583430D01*
X104414212Y-92529454D01*
X104509500Y-92510500D01*
X105385992Y-92510500D01*
X105481280Y-92529454D01*
X105562061Y-92583430D01*
X105642844Y-92664212D01*
X105681344Y-92702712D01*
X105830666Y-92794814D01*
X105830669Y-92794815D01*
X105830667Y-92794815D01*
X105994310Y-92849040D01*
X105997203Y-92849999D01*
X106099991Y-92860500D01*
X107900008Y-92860499D01*
X108002797Y-92849999D01*
X108169334Y-92794814D01*
X108318656Y-92702712D01*
X108378297Y-92643070D01*
X108437939Y-92583430D01*
X108518721Y-92529454D01*
X108614008Y-92510500D01*
X111848886Y-92510500D01*
X111944174Y-92529454D01*
X112024956Y-92583430D01*
X113715354Y-94273828D01*
X113874595Y-94389524D01*
X114049974Y-94478884D01*
X114178055Y-94520500D01*
X114237174Y-94539709D01*
X114431583Y-94570500D01*
X114431584Y-94570500D01*
X114628417Y-94570500D01*
X115248449Y-94570500D01*
X115343737Y-94589454D01*
X115424519Y-94643430D01*
X115478495Y-94724212D01*
X115497449Y-94819500D01*
X115496160Y-94844792D01*
X115492346Y-94882134D01*
X115489500Y-94909990D01*
X115489500Y-96318885D01*
X115470546Y-96414173D01*
X115416570Y-96494955D01*
X111724956Y-100186570D01*
X111644174Y-100240546D01*
X111548886Y-100259500D01*
X107770537Y-100259500D01*
X107675249Y-100240546D01*
X107657494Y-100232361D01*
X107526799Y-100165769D01*
X107526794Y-100165767D01*
X107406048Y-100126534D01*
X107309660Y-100095216D01*
X107309658Y-100095215D01*
X107309656Y-100095215D01*
X107084168Y-100059501D01*
X107084159Y-100059500D01*
X107084157Y-100059500D01*
X106855843Y-100059500D01*
X106855840Y-100059500D01*
X106855831Y-100059501D01*
X106630343Y-100095215D01*
X106413205Y-100165767D01*
X106413200Y-100165769D01*
X106209775Y-100269418D01*
X106209774Y-100269419D01*
X106209772Y-100269421D01*
X106153484Y-100310317D01*
X106025065Y-100403619D01*
X105863619Y-100565065D01*
X105838085Y-100600210D01*
X105752852Y-100717523D01*
X105729420Y-100749774D01*
X105729418Y-100749775D01*
X105625769Y-100953200D01*
X105625767Y-100953205D01*
X105555215Y-101170343D01*
X105519501Y-101395831D01*
X105519500Y-101395847D01*
X105519500Y-101624152D01*
X105519501Y-101624168D01*
X105555215Y-101849656D01*
X105625767Y-102066794D01*
X105625769Y-102066799D01*
X105729418Y-102270224D01*
X105729419Y-102270224D01*
X105729421Y-102270228D01*
X105863621Y-102454937D01*
X106025063Y-102616379D01*
X106209772Y-102750579D01*
X106209774Y-102750580D01*
X106209775Y-102750581D01*
X106297120Y-102795085D01*
X106413201Y-102854231D01*
X106630340Y-102924784D01*
X106855843Y-102960500D01*
X106855847Y-102960500D01*
X107084153Y-102960500D01*
X107084157Y-102960500D01*
X107309660Y-102924784D01*
X107526799Y-102854231D01*
X107642880Y-102795085D01*
X107657494Y-102787639D01*
X107751001Y-102761268D01*
X107770537Y-102760500D01*
X112268413Y-102760500D01*
X112268417Y-102760500D01*
X112462826Y-102729709D01*
X112650026Y-102668884D01*
X112825405Y-102579524D01*
X112984646Y-102463828D01*
X117865044Y-97583428D01*
X117945826Y-97529453D01*
X118041114Y-97510499D01*
X118090006Y-97510499D01*
X118090008Y-97510499D01*
X118192797Y-97499999D01*
X118359334Y-97444814D01*
X118508656Y-97352712D01*
X118632712Y-97228656D01*
X118724814Y-97079334D01*
X118779999Y-96912797D01*
X118790500Y-96810009D01*
X118790499Y-94909992D01*
X118779999Y-94807203D01*
X118769194Y-94774597D01*
X118724814Y-94640667D01*
X118724814Y-94640666D01*
X118632712Y-94491344D01*
X118603533Y-94462165D01*
X118549560Y-94381387D01*
X118530606Y-94286099D01*
X118549560Y-94190811D01*
X118557738Y-94173070D01*
X118669579Y-93953572D01*
X118749860Y-93706493D01*
X118790500Y-93449897D01*
X118790500Y-93190103D01*
X118749860Y-92933507D01*
X118669579Y-92686428D01*
X118659257Y-92666171D01*
X118551634Y-92454949D01*
X118406935Y-92255788D01*
X118398931Y-92244771D01*
X118215229Y-92061069D01*
X118200745Y-92050546D01*
X118005050Y-91908365D01*
X117773577Y-91790423D01*
X117773567Y-91790419D01*
X117526493Y-91710140D01*
X117526487Y-91710138D01*
X117269908Y-91669501D01*
X117269899Y-91669500D01*
X117269897Y-91669500D01*
X117010103Y-91669500D01*
X117010100Y-91669500D01*
X117010091Y-91669501D01*
X116753512Y-91710138D01*
X116753506Y-91710140D01*
X116506432Y-91790419D01*
X116506422Y-91790423D01*
X116274949Y-91908365D01*
X116118621Y-92021945D01*
X116030390Y-92062620D01*
X115972262Y-92069500D01*
X115151114Y-92069500D01*
X115055826Y-92050546D01*
X114975044Y-91996570D01*
X114129910Y-91151436D01*
X113284646Y-90306172D01*
X113125405Y-90190476D01*
X112950026Y-90101116D01*
X112950023Y-90101115D01*
X112950021Y-90101114D01*
X112762823Y-90040290D01*
X112568428Y-90009501D01*
X112568419Y-90009500D01*
X112568417Y-90009500D01*
X112568413Y-90009500D01*
X110580113Y-90009500D01*
X110484825Y-89990546D01*
X110404043Y-89936570D01*
X110350067Y-89855788D01*
X110331113Y-89760500D01*
X110350067Y-89665212D01*
X110404040Y-89584433D01*
X111238472Y-88750001D01*
X113940000Y-88750001D01*
X113940000Y-89397832D01*
X113946401Y-89457371D01*
X113946403Y-89457378D01*
X113996646Y-89592087D01*
X114082810Y-89707187D01*
X114082812Y-89707189D01*
X114197912Y-89793353D01*
X114332621Y-89843596D01*
X114332628Y-89843598D01*
X114392167Y-89849999D01*
X114392175Y-89850000D01*
X115039999Y-89850000D01*
X115040000Y-89849999D01*
X115040000Y-88750001D01*
X115039999Y-88750000D01*
X113940001Y-88750000D01*
X113940000Y-88750001D01*
X111238472Y-88750001D01*
X112665044Y-87323430D01*
X112745826Y-87269454D01*
X112841114Y-87250500D01*
X113700735Y-87250500D01*
X113796023Y-87269454D01*
G37*
%TD.AperFunction*%
%TA.AperFunction,Conductor*%
G36*
X145159260Y-95714838D02*
G01*
X145243642Y-95762991D01*
X145256480Y-95774954D01*
X145646570Y-96165044D01*
X145700546Y-96245826D01*
X145719500Y-96341114D01*
X145719500Y-110768412D01*
X145719501Y-110768428D01*
X145750290Y-110962823D01*
X145760259Y-110993506D01*
X145811116Y-111150026D01*
X145900476Y-111325405D01*
X146016172Y-111484646D01*
X147054829Y-112523303D01*
X148092312Y-113560786D01*
X148146288Y-113641568D01*
X148165242Y-113736856D01*
X148146288Y-113832144D01*
X148092312Y-113912926D01*
X146808668Y-115196570D01*
X146727886Y-115250546D01*
X146632598Y-115269500D01*
X144407188Y-115269500D01*
X144311900Y-115250546D01*
X144231118Y-115196570D01*
X144177142Y-115115788D01*
X144158188Y-115020500D01*
X144177142Y-114925212D01*
X144231118Y-114844430D01*
X144268493Y-114807055D01*
X144268501Y-114807045D01*
X144331286Y-114730541D01*
X144418842Y-114599505D01*
X144465515Y-114512185D01*
X144525812Y-114366614D01*
X144525820Y-114366593D01*
X144554552Y-114271877D01*
X144570839Y-114190000D01*
X142739000Y-114190000D01*
X142706151Y-114183466D01*
X142750064Y-114139554D01*
X142792851Y-114065445D01*
X142815000Y-113982787D01*
X142815000Y-113897213D01*
X142792851Y-113814555D01*
X142750064Y-113740446D01*
X142706151Y-113696533D01*
X142739000Y-113690000D01*
X144570839Y-113690000D01*
X144554552Y-113608122D01*
X144525820Y-113513406D01*
X144525812Y-113513385D01*
X144465515Y-113367814D01*
X144418842Y-113280494D01*
X144331286Y-113149458D01*
X144268501Y-113072954D01*
X144268493Y-113072945D01*
X144205535Y-113009987D01*
X144151559Y-112929205D01*
X144132605Y-112833917D01*
X144151559Y-112738629D01*
X144205535Y-112657847D01*
X144220261Y-112644261D01*
X144389936Y-112499936D01*
X144529726Y-112335594D01*
X144552132Y-112309253D01*
X144590872Y-112245169D01*
X144681644Y-112095015D01*
X144775110Y-111862779D01*
X144788627Y-111802762D01*
X144830113Y-111618563D01*
X144830113Y-111618562D01*
X144830114Y-111618558D01*
X144840500Y-111471446D01*
X144840500Y-111328554D01*
X144830114Y-111181442D01*
X144823038Y-111150026D01*
X144775113Y-110937233D01*
X144775111Y-110937229D01*
X144775110Y-110937221D01*
X144681644Y-110704985D01*
X144552132Y-110490746D01*
X144383435Y-110292421D01*
X144385594Y-110290584D01*
X144341965Y-110225288D01*
X144323011Y-110130000D01*
X144341965Y-110034712D01*
X144385594Y-109969415D01*
X144383435Y-109967579D01*
X144552132Y-109769253D01*
X144597419Y-109694339D01*
X144681644Y-109555015D01*
X144775110Y-109322779D01*
X144793760Y-109239974D01*
X144830113Y-109078563D01*
X144830113Y-109078562D01*
X144830114Y-109078558D01*
X144840500Y-108931446D01*
X144840500Y-108788554D01*
X144830114Y-108641442D01*
X144817177Y-108584003D01*
X144775113Y-108397233D01*
X144775111Y-108397229D01*
X144775110Y-108397221D01*
X144681644Y-108164985D01*
X144552134Y-107950750D01*
X144552132Y-107950746D01*
X144383435Y-107752421D01*
X144385594Y-107750584D01*
X144341965Y-107685288D01*
X144323011Y-107590000D01*
X144341965Y-107494712D01*
X144385594Y-107429415D01*
X144383435Y-107427579D01*
X144552132Y-107229253D01*
X144552134Y-107229250D01*
X144681644Y-107015015D01*
X144775110Y-106782779D01*
X144830114Y-106538558D01*
X144840500Y-106391446D01*
X144840500Y-106248554D01*
X144830114Y-106101442D01*
X144775110Y-105857221D01*
X144681644Y-105624985D01*
X144552134Y-105410750D01*
X144552132Y-105410746D01*
X144383435Y-105212421D01*
X144385594Y-105210584D01*
X144341965Y-105145288D01*
X144323011Y-105050000D01*
X144341965Y-104954712D01*
X144385594Y-104889415D01*
X144383435Y-104887579D01*
X144552132Y-104689253D01*
X144552134Y-104689250D01*
X144681644Y-104475015D01*
X144775110Y-104242779D01*
X144830114Y-103998558D01*
X144840500Y-103851446D01*
X144840500Y-103708554D01*
X144830114Y-103561442D01*
X144775110Y-103317221D01*
X144681644Y-103084985D01*
X144606389Y-102960498D01*
X144552132Y-102870746D01*
X144383435Y-102672421D01*
X144385587Y-102670590D01*
X144341933Y-102605256D01*
X144322979Y-102509968D01*
X144341933Y-102414680D01*
X144395904Y-102333904D01*
X144445620Y-102284189D01*
X144539577Y-102169703D01*
X144627127Y-102038675D01*
X144696942Y-101908060D01*
X144757248Y-101762469D01*
X144800241Y-101620739D01*
X144830984Y-101466181D01*
X144845500Y-101318793D01*
X144845500Y-101161207D01*
X144830984Y-101013819D01*
X144800241Y-100859261D01*
X144757248Y-100717531D01*
X144724711Y-100638981D01*
X144696943Y-100571941D01*
X144696941Y-100571938D01*
X144627131Y-100441333D01*
X144627127Y-100441325D01*
X144627123Y-100441319D01*
X144627119Y-100441312D01*
X144539591Y-100310317D01*
X144539584Y-100310308D01*
X144539577Y-100310297D01*
X144539568Y-100310286D01*
X144445633Y-100195826D01*
X144445626Y-100195819D01*
X144445620Y-100195811D01*
X144395906Y-100146097D01*
X144341933Y-100065319D01*
X144322979Y-99970031D01*
X144341933Y-99874743D01*
X144385586Y-99809409D01*
X144383435Y-99807579D01*
X144552132Y-99609253D01*
X144593695Y-99540500D01*
X144681644Y-99395015D01*
X144775110Y-99162779D01*
X144801122Y-99047286D01*
X144830113Y-98918563D01*
X144830113Y-98918562D01*
X144830114Y-98918558D01*
X144840500Y-98771446D01*
X144840500Y-98628554D01*
X144830114Y-98481442D01*
X144817784Y-98426697D01*
X144775113Y-98237233D01*
X144775111Y-98237229D01*
X144775110Y-98237221D01*
X144681644Y-98004985D01*
X144649500Y-97951812D01*
X144552132Y-97790746D01*
X144383435Y-97592421D01*
X144385594Y-97590584D01*
X144341965Y-97525288D01*
X144323011Y-97430000D01*
X144341965Y-97334712D01*
X144385594Y-97269415D01*
X144383435Y-97267579D01*
X144552132Y-97069253D01*
X144646713Y-96912797D01*
X144681644Y-96855015D01*
X144775110Y-96622779D01*
X144830114Y-96378558D01*
X144840500Y-96231446D01*
X144840500Y-96088554D01*
X144832028Y-95968557D01*
X144844224Y-95872174D01*
X144892377Y-95787792D01*
X144969157Y-95728260D01*
X145062874Y-95702642D01*
X145159260Y-95714838D01*
G37*
%TD.AperFunction*%
%TA.AperFunction,Conductor*%
G36*
X106085785Y-82269454D02*
G01*
X106166567Y-82323430D01*
X106220543Y-82404212D01*
X106239497Y-82499500D01*
X106238729Y-82519036D01*
X106238281Y-82524727D01*
X107000000Y-83286446D01*
X107761717Y-82524729D01*
X107761269Y-82519037D01*
X107772688Y-82422556D01*
X107820159Y-82337788D01*
X107896456Y-82277640D01*
X107989964Y-82251268D01*
X108009501Y-82250500D01*
X113675992Y-82250500D01*
X113771280Y-82269454D01*
X113852061Y-82323430D01*
X113930215Y-82401583D01*
X113971344Y-82442712D01*
X114120666Y-82534814D01*
X114120669Y-82534815D01*
X114120667Y-82534815D01*
X114248276Y-82577100D01*
X114287203Y-82589999D01*
X114389991Y-82600500D01*
X116190008Y-82600499D01*
X116292797Y-82589999D01*
X116459334Y-82534814D01*
X116608656Y-82442712D01*
X116691304Y-82360064D01*
X116727939Y-82323430D01*
X116808721Y-82269454D01*
X116904008Y-82250500D01*
X120169093Y-82250500D01*
X120188628Y-82251267D01*
X120191577Y-82251499D01*
X120191583Y-82251500D01*
X120388416Y-82251500D01*
X122160212Y-82251500D01*
X122255500Y-82270454D01*
X122336282Y-82324430D01*
X122390258Y-82405212D01*
X122409212Y-82500500D01*
X122397137Y-82577100D01*
X122374866Y-82645982D01*
X122374864Y-82645995D01*
X122357805Y-82791940D01*
X122354500Y-82820218D01*
X122354500Y-84099782D01*
X122364148Y-84220135D01*
X122412008Y-84388896D01*
X122416777Y-84400410D01*
X122418768Y-84405216D01*
X122437720Y-84500504D01*
X122418764Y-84595792D01*
X122364787Y-84676573D01*
X122284004Y-84730548D01*
X122188720Y-84749500D01*
X112121583Y-84749500D01*
X112121580Y-84749500D01*
X112121571Y-84749501D01*
X111927176Y-84780290D01*
X111739978Y-84841114D01*
X111739974Y-84841115D01*
X111739974Y-84841116D01*
X111739107Y-84841558D01*
X111564595Y-84930476D01*
X111405356Y-85046170D01*
X109054956Y-87396570D01*
X108974174Y-87450546D01*
X108878886Y-87469500D01*
X108530140Y-87469500D01*
X108434852Y-87450546D01*
X108354070Y-87396570D01*
X108300094Y-87315788D01*
X108281140Y-87220500D01*
X108300094Y-87125212D01*
X108328696Y-87074140D01*
X108368865Y-87018852D01*
X108368865Y-87018851D01*
X108368870Y-87018845D01*
X108483241Y-86794379D01*
X108561090Y-86554785D01*
X108600500Y-86305962D01*
X108600500Y-86054038D01*
X108600499Y-86054035D01*
X108600499Y-86054028D01*
X108568851Y-85854216D01*
X108561090Y-85805215D01*
X108483241Y-85565621D01*
X108368870Y-85341155D01*
X108220793Y-85137344D01*
X108042656Y-84959207D01*
X108042652Y-84959204D01*
X107906352Y-84860176D01*
X107906338Y-84860166D01*
X107838845Y-84811130D01*
X107822135Y-84802616D01*
X107808928Y-84793589D01*
X107800749Y-84785237D01*
X107767596Y-84761150D01*
X106999999Y-83993553D01*
X106232399Y-84761151D01*
X106169378Y-84806939D01*
X106169377Y-84806940D01*
X106163615Y-84809876D01*
X106133689Y-84818316D01*
X106111883Y-84845978D01*
X106096530Y-84858081D01*
X105957348Y-84959203D01*
X105779204Y-85137347D01*
X105631134Y-85341148D01*
X105631131Y-85341153D01*
X105631130Y-85341155D01*
X105534592Y-85530621D01*
X105516757Y-85565625D01*
X105438909Y-85805217D01*
X105399500Y-86054028D01*
X105399500Y-86305971D01*
X105438909Y-86554782D01*
X105484473Y-86695015D01*
X105516759Y-86794379D01*
X105631130Y-87018845D01*
X105631133Y-87018849D01*
X105631134Y-87018851D01*
X105779204Y-87222652D01*
X105779207Y-87222656D01*
X105830484Y-87273933D01*
X105884458Y-87354712D01*
X105903412Y-87450000D01*
X105884458Y-87545288D01*
X105830484Y-87626066D01*
X105789236Y-87667315D01*
X105779204Y-87677347D01*
X105631134Y-87881148D01*
X105631131Y-87881153D01*
X105631130Y-87881155D01*
X105586975Y-87967814D01*
X105516757Y-88105625D01*
X105438909Y-88345217D01*
X105399500Y-88594028D01*
X105399500Y-88845971D01*
X105438909Y-89094782D01*
X105472935Y-89199505D01*
X105516759Y-89334379D01*
X105616178Y-89529500D01*
X105631133Y-89558850D01*
X105636017Y-89565572D01*
X105648304Y-89592228D01*
X105664612Y-89616633D01*
X105668451Y-89635932D01*
X105676689Y-89653803D01*
X105677840Y-89683132D01*
X105683567Y-89711921D01*
X105679728Y-89731221D01*
X105680500Y-89750884D01*
X105670340Y-89778420D01*
X105664614Y-89807210D01*
X105653681Y-89823572D01*
X105646870Y-89842033D01*
X105610638Y-89887992D01*
X105562063Y-89936568D01*
X105481283Y-89990545D01*
X105385995Y-90009500D01*
X104509500Y-90009500D01*
X104414212Y-89990546D01*
X104333430Y-89936570D01*
X104279454Y-89855788D01*
X104260500Y-89760500D01*
X104260500Y-83533743D01*
X105650000Y-83533743D01*
X105650000Y-83746256D01*
X105683241Y-83956123D01*
X105748904Y-84158215D01*
X105748908Y-84158225D01*
X105845371Y-84347545D01*
X105845375Y-84347551D01*
X105884728Y-84401716D01*
X106646446Y-83639999D01*
X106603660Y-83597213D01*
X106675000Y-83597213D01*
X106675000Y-83682787D01*
X106697149Y-83765445D01*
X106739936Y-83839554D01*
X106800446Y-83900064D01*
X106874555Y-83942851D01*
X106957213Y-83965000D01*
X107042787Y-83965000D01*
X107125445Y-83942851D01*
X107199554Y-83900064D01*
X107260064Y-83839554D01*
X107302851Y-83765445D01*
X107325000Y-83682787D01*
X107325000Y-83639999D01*
X107353553Y-83639999D01*
X108109097Y-84395543D01*
X108116218Y-84400410D01*
X108154624Y-84347551D01*
X108251091Y-84158224D01*
X108251095Y-84158215D01*
X108316758Y-83956123D01*
X108349999Y-83746256D01*
X108350000Y-83746244D01*
X108350000Y-83533755D01*
X108349999Y-83533743D01*
X108316758Y-83323876D01*
X108251095Y-83121784D01*
X108251091Y-83121774D01*
X108154624Y-82932448D01*
X108115270Y-82878282D01*
X108115269Y-82878282D01*
X107353553Y-83639999D01*
X107325000Y-83639999D01*
X107325000Y-83597213D01*
X107302851Y-83514555D01*
X107260064Y-83440446D01*
X107199554Y-83379936D01*
X107125445Y-83337149D01*
X107042787Y-83315000D01*
X106957213Y-83315000D01*
X106874555Y-83337149D01*
X106800446Y-83379936D01*
X106739936Y-83440446D01*
X106697149Y-83514555D01*
X106675000Y-83597213D01*
X106603660Y-83597213D01*
X105884728Y-82878281D01*
X105845380Y-82932441D01*
X105845372Y-82932454D01*
X105748908Y-83121774D01*
X105748904Y-83121784D01*
X105683241Y-83323876D01*
X105650000Y-83533743D01*
X104260500Y-83533743D01*
X104260500Y-83121114D01*
X104279454Y-83025826D01*
X104333430Y-82945044D01*
X104955044Y-82323430D01*
X105035826Y-82269454D01*
X105131114Y-82250500D01*
X105990497Y-82250500D01*
X106085785Y-82269454D01*
G37*
%TD.AperFunction*%
%TD*%
M02*
